<?xml version="1.0" encoding="utf-8"?>
<!-- Generator: Adobe Illustrator 25.0.1, SVG Export Plug-In . SVG Version: 6.00 Build 0)  -->
<svg version="1.1" id="Layer_1" xmlns="http://www.w3.org/2000/svg" xmlns:xlink="http://www.w3.org/1999/xlink" x="0px" y="0px"
	 viewBox="0 0 53 33" style="enable-background:new 0 0 53 33;" xml:space="preserve">
<style type="text/css">
	.st0{fill:#FFFFFF;}
	.st1{fill:none;}
</style>
<path d="M440.5,464.3l-1.8,15.1l-0.3,2.2h2.3h6.9l-14.7,18.8l1.8-14.5l0.3-2.2h-2.3h-7L440.5,464.3 M443.4,457.2l-21.7,28.3h11
	l-2.7,21.7l21.7-27.7h-11L443.4,457.2L443.4,457.2z"/>
<path class="st0" d="M27.5,2c6.8,0,12.7,4.8,14.2,11.4l0.3,1.5l1.5,0.1c4.2,0.3,7.5,3.8,7.5,8c0,4.4-3.6,8-8,8c0,0-0.1,0-0.1,0l-2,0
	v0H12.5l-0.6,0C6.5,31,2,26.5,2,21c0-5.5,4.5-10,10-10c0.2,0,0.3,0,0.5,0l0.1,0l1.3,0.1l0.6-1.2C17.1,5,22,2,27.5,2 M27.5,0
	c-6.4,0-12,3.7-14.7,9c-0.3,0-0.5,0-0.8,0C5.4,9,0,14.4,0,21c0,6.6,5.3,12,11.9,12v0h30.9v0c0,0,0.1,0,0.1,0c5.5,0,10-4.5,10-10
	c0-5.3-4.1-9.6-9.4-10C42,5.6,35.4,0,27.5,0L27.5,0z"/>
<g>
	<path d="M150.5,20.4C149,13.7,143,8.6,135.8,8.6c-2.2,0-4.3,0.5-6.1,1.3c-1.7-3.2-5-5.4-8.9-5.4c-5.5,0-10,4.5-10,10
		c0,2.5,0.9,4.7,2.4,6.4c-1.4,1.8-2.3,4.1-2.3,6.7c0,6,4.8,10.8,10.8,10.9v0h28v0c0,0,0.1,0,0.1,0c5,0,9.1-4.1,9.1-9.1
		C158.9,24.6,155.2,20.7,150.5,20.4z M120.9,6.5c3.1,0,5.8,1.8,7.1,4.3c-2.3,1.4-4.2,3.5-5.4,5.9c-0.2,0-0.5,0-0.7,0
		c-2.8,0-5.3,1-7.2,2.7c-1.1-1.4-1.8-3.1-1.8-5C112.9,10.1,116.4,6.5,120.9,6.5z M149.9,36.5c0,0-0.1,0-0.1,0l-2,0v0h-25.4l-0.6,0
		c-4.9,0-8.8-4-8.8-8.9c0-4.9,4-8.9,8.9-8.9c0.2,0,0.3,0,0.4,0l0.1,0l1.3,0.1l0.6-1.2c2.2-4.4,6.6-7.1,11.5-7.1
		c6.1,0,11.4,4.3,12.6,10.2l0.3,1.5l1.5,0.1c3.7,0.2,6.6,3.3,6.6,7C156.9,33.3,153.8,36.5,149.9,36.5z"/>
	<rect x="119.9" y="-5.5" width="2" height="8"/>
	<rect x="100.9" y="13.5" width="8" height="2"/>
	<rect x="108.6" y="-0.7" transform="matrix(0.7071 -0.7071 0.7071 0.7071 29.7903 78.4554)" width="2" height="8"/>
	<rect x="128.1" y="2.3" transform="matrix(0.7071 -0.7071 0.7071 0.7071 36.3837 94.3818)" width="8" height="2"/>
</g>
<path d="M246.2,16.4c-1.4-6.7-7.4-11.8-14.6-11.8c-1.8,0-3.5,0.3-5.1,0.9c-0.9-5.1-5.4-9-10.8-9c-0.4,0-0.8,0-1.2,0.1
	c0.7,1.1,1.2,2.4,1.2,3.9c0,3.9-3.1,7-7,7c-1.4,0-2.8-0.4-3.9-1.2c0,0.4-0.1,0.8-0.1,1.2c0,3.7,1.8,7,4.7,9
	c-1.7,1.9-2.7,4.4-2.7,7.1c0,6,4.8,10.8,10.8,10.9v0h28v0c0,0,0.1,0,0.1,0c5,0,9.1-4.1,9.1-9.1C254.7,20.6,250.9,16.7,246.2,16.4z
	 M206.9,9.3c0.6,0.1,1.2,0.2,1.8,0.2c5,0,9-4,9-9c0-0.6-0.1-1.2-0.2-1.8c3.7,0.8,6.6,3.8,7.1,7.6c-2.7,1.4-4.9,3.7-6.3,6.4
	c-0.2,0-0.5,0-0.7,0c-2.5,0-4.9,0.9-6.7,2.3C208.8,13.8,207.4,11.7,206.9,9.3z M245.7,32.5c0,0-0.1,0-0.1,0l-2,0v0h-25.4l-0.6,0
	c-4.9,0-8.8-4-8.8-8.9c0-4.9,4-8.9,8.9-8.9c0.1,0,0.3,0,0.4,0l0.1,0l1.3,0.1l0.6-1.2c2.2-4.4,6.6-7.1,11.5-7.1
	c6.1,0,11.4,4.3,12.6,10.2l0.3,1.5l1.5,0.1c3.7,0.2,6.6,3.3,6.6,7C252.7,29.3,249.5,32.4,245.7,32.5z"/>
<g>
	<rect x="330.8" y="25" width="2" height="7"/>
	<rect x="338.8" y="21" width="2" height="7"/>
	<rect x="322.8" y="21" width="2" height="7"/>
	<rect x="330.8" y="35" width="2" height="7"/>
	<rect x="338.8" y="31" width="2" height="7"/>
	<rect x="322.8" y="31" width="2" height="7"/>
	<path d="M349.5,8c-1.6-7.4-8.2-13-16.1-13c-6.4,0-12,3.7-14.7,9c-0.3,0-0.5,0-0.8,0c-6.6,0-12,5.4-12,12c0,6.6,5.3,12,11.9,12v0
		h2.1v-2h-1.6l-0.4,0c-5.5,0-9.9-4.5-9.9-10c0-5.5,4.5-10,10-10c0.2,0,0.3,0,0.5,0l0.1,0l1.3,0.1l0.6-1.2C322.9,0,327.9-3,333.3-3
		c6.8,0,12.8,4.8,14.2,11.4l0.3,1.5l1.5,0.1c4.2,0.3,7.5,3.8,7.5,8c0,4.4-3.6,8-8,8c0,0-0.1,0-0.1,0l-2,0h-2.9v2h4.9v0
		c0,0,0.1,0,0.1,0c5.5,0,10-4.5,10-10C358.8,12.7,354.7,8.3,349.5,8z"/>
</g>
<g>
	<path d="M147,97.4c-1.6-7.4-8.2-13-16.1-13c-6.4,0-12,3.7-14.7,9c-0.3,0-0.5,0-0.8,0c-6.6,0-12,5.4-12,12c0,6.6,5.3,12,11.9,12v0
		h2.1v-2h-1.6l-0.4,0c-5.5,0-9.9-4.5-9.9-10c0-5.5,4.5-10,10-10c0.2,0,0.3,0,0.5,0l0.1,0l1.3,0.1l0.6-1.2c2.5-4.9,7.4-7.9,12.9-7.9
		c6.8,0,12.8,4.8,14.2,11.4l0.3,1.5l1.5,0.1c4.2,0.3,7.5,3.8,7.5,8c0,4.4-3.6,8-8,8c-0.1,0-0.1,0-0.1,0l-2,0h-2.9v2h4.9v0
		c0,0,0.1,0,0.1,0c5.5,0,10-4.5,10-10C156.4,102,152.3,97.7,147,97.4z"/>
	<polygon points="128.4,124.4 128.4,126.3 128.4,132.4 130.4,132.4 130.4,126.3 130.4,124.4 130.4,112.4 128.4,112.4 	"/>
	<polygon points="136.4,120.4 136.4,122.1 136.4,128.4 138.4,128.4 138.4,122.1 138.4,120.4 138.4,108.4 136.4,108.4 	"/>
	<polygon points="120.4,120.4 120.4,122.4 120.4,128.4 122.4,128.4 122.4,122.4 122.4,120.4 122.4,108.4 120.4,108.4 	"/>
</g>
<g>
	<polygon points="442.7,121.3 435.8,111.5 434.2,112.6 441.1,122.4 442.2,124 445.6,129 447.3,127.8 443.8,122.9 	"/>
	<polygon points="450.7,121.3 443.8,111.5 442.2,112.6 449.1,122.4 450.1,123.9 453.6,129 455.3,127.8 451.7,122.7 	"/>
	<polygon points="434.7,121.3 427.8,111.5 426.2,112.6 433.1,122.4 434.2,124.1 437.6,129 439.3,127.8 435.9,123 	"/>
	<path d="M453.8,97.6c-1.6-7.4-8.2-13-16.1-13c-6.4,0-12,3.7-14.7,9c-0.3,0-0.5,0-0.8,0c-6.6,0-12,5.4-12,12c0,6.6,5.3,12,11.9,12v0
		h2.1v-2h-1.6l-0.4,0c-5.5,0-9.9-4.5-9.9-10c0-5.5,4.5-10,10-10c0.2,0,0.3,0,0.5,0l0.1,0l1.3,0.1l0.6-1.2c2.5-4.9,7.4-7.9,12.9-7.9
		c6.8,0,12.8,4.8,14.2,11.4l0.3,1.5l1.5,0.1c4.2,0.3,7.5,3.8,7.5,8c0,4.4-3.6,8-8,8c0,0-0.1,0-0.1,0l-1,0h0.1v2h0.9v0
		c0,0,0.1,0,0.1,0c5.5,0,10-4.5,10-10C463.2,102.3,459,98,453.8,97.6z"/>
</g>
<g>
	<rect x="425.5" y="-11.4" width="2" height="8"/>
	<rect x="406.5" y="7.5" width="8" height="2"/>
	<rect x="414.2" y="-6.8" transform="matrix(0.7071 -0.7071 0.7071 0.7071 123.5722 292.7398)" width="2" height="8"/>
	<rect x="433.7" y="-3.8" transform="matrix(0.7071 -0.7071 0.7071 0.7071 130.1657 308.6662)" width="8" height="2"/>
	<rect x="439.5" y="29.4" width="2" height="7"/>
	<rect x="447.5" y="25.4" width="2" height="7"/>
	<rect x="431.5" y="25.4" width="2" height="7"/>
	<rect x="439.5" y="39.4" width="2" height="7"/>
	<rect x="447.5" y="35.4" width="2" height="7"/>
	<rect x="431.5" y="35.4" width="2" height="7"/>
	<path d="M456,14.4c-1.4-6.7-7.4-11.8-14.6-11.8c-2.2,0-4.3,0.5-6.1,1.3c-1.7-3.2-5-5.4-8.9-5.4c-5.5,0-10,4.5-10,10
		c0,2.5,0.9,4.7,2.4,6.4c-1.4,1.8-2.3,4.1-2.3,6.7c0,6,4.8,10.8,10.8,10.9v0h1.2v-2h-0.7l-0.5,0c-4.9,0-8.8-4-8.8-8.9
		c0-4.9,4-8.9,8.9-8.9c0.1,0,0.3,0,0.4,0l0.1,0l1.3,0.1l0.6-1.2c2.2-4.4,6.6-7.1,11.5-7.1c6.1,0,11.4,4.3,12.6,10.2l0.3,1.5l1.5,0.1
		c3.7,0.2,6.6,3.3,6.6,7c0,3.9-3.1,7-7,7.1c0,0-0.1,0-0.1,0l-2,0h-0.8v2h2.8v0c0,0,0.1,0,0.1,0c5,0,9.1-4.1,9.1-9.1
		C464.5,18.6,460.7,14.6,456,14.4z M428.1,10.7c-0.2,0-0.5,0-0.7,0c-2.8,0-5.3,1-7.2,2.7c-1.1-1.4-1.8-3.1-1.8-5c0-4.4,3.6-8,8-8
		c3.1,0,5.8,1.8,7.1,4.3C431.2,6.3,429.3,8.3,428.1,10.7z"/>
</g>
<g>
	<rect x="539.9" y="28" width="2" height="7"/>
	<rect x="547.9" y="24" width="2" height="7"/>
	<rect x="531.9" y="24" width="2" height="7"/>
	<rect x="539.9" y="38" width="2" height="7"/>
	<rect x="547.9" y="34" width="2" height="7"/>
	<rect x="531.9" y="34" width="2" height="7"/>
	<path d="M556.4,12.9C555,6.2,549,1.1,541.8,1.1c-1.8,0-3.5,0.3-5.1,0.9c-0.9-5.1-5.4-9-10.8-9c-0.4,0-0.8,0-1.2,0.1
		c0.7,1.1,1.2,2.4,1.2,3.9c0,3.9-3.1,7-7,7c-1.4,0-2.8-0.4-3.9-1.2c0,0.4-0.1,0.8-0.1,1.2c0,3.7,1.8,7,4.7,9
		c-1.7,1.9-2.7,4.4-2.7,7.1c0,6,4.8,10.8,10.8,10.9v0h1.2v-2h-0.7l-0.5,0c-4.9,0-8.8-4-8.8-8.9c0-4.9,4-8.9,8.9-8.9
		c0.2,0,0.3,0,0.4,0l0.1,0l1.3,0.1l0.6-1.2c2.2-4.4,6.6-7.1,11.5-7.1c6.1,0,11.4,4.3,12.6,10.2l0.3,1.5l1.5,0.1
		c3.7,0.2,6.6,3.3,6.6,7c0,3.9-3.1,7-7,7.1c0,0-0.1,0-0.1,0l-2,0h-0.8v2h2.8v0c0,0,0.1,0,0.1,0c5,0,9.1-4.1,9.1-9.1
		C564.9,17.1,561.2,13.2,556.4,12.9z M528.5,9.3c-0.2,0-0.5,0-0.7,0c-2.5,0-4.9,0.9-6.7,2.3c-2-1.3-3.5-3.4-4-5.8
		c0.6,0.1,1.2,0.2,1.8,0.2c5,0,9-4,9-9c0-0.6-0.1-1.2-0.2-1.8c3.7,0.8,6.6,3.8,7.1,7.6C532.1,4.3,529.9,6.5,528.5,9.3z"/>
</g>
<g>
	<polygon points="232.7,128.8 232.7,130.8 232.7,136.8 234.7,136.8 234.7,130.8 234.7,128.8 234.7,116.8 232.7,116.8 	"/>
	<polygon points="240.7,124.8 240.7,126.6 240.7,132.8 242.7,132.8 242.7,126.6 242.7,124.8 242.7,112.8 240.7,112.8 	"/>
	<polygon points="224.7,124.8 224.7,126.9 224.7,132.8 226.7,132.8 226.7,126.9 226.7,124.8 226.7,112.8 224.7,112.8 	"/>
	<rect x="218.7" y="77.9" width="2" height="8"/>
	<rect x="199.7" y="96.8" width="8" height="2"/>
	<rect x="207.3" y="82.6" transform="matrix(0.7071 -0.7071 0.7071 0.7071 -0.18 172.6715)" width="2" height="8"/>
	<rect x="226.9" y="85.6" transform="matrix(0.7071 -0.7071 0.7071 0.7071 6.4137 188.5972)" width="8" height="2"/>
	<path d="M249.2,103.7c-1.4-6.7-7.4-11.8-14.6-11.8c-2.2,0-4.3,0.5-6.1,1.3c-1.7-3.2-5-5.4-8.9-5.4c-5.5,0-10,4.5-10,10
		c0,2.5,0.9,4.7,2.4,6.4c-1.4,1.8-2.3,4.1-2.3,6.7c0,6,4.8,10.8,10.8,10.9v0h1.2v-2H221l-0.5,0c-4.9,0-8.8-4-8.8-8.9
		c0-4.9,4-8.9,8.9-8.9c0.1,0,0.3,0,0.4,0l0.1,0l1.3,0.1l0.6-1.2c2.2-4.4,6.6-7.1,11.5-7.1c6.1,0,11.4,4.3,12.6,10.2l0.3,1.5l1.5,0.1
		c3.7,0.2,6.6,3.3,6.6,7c0,3.9-3.1,7-7,7.1c0,0-0.1,0-0.1,0l-2,0h-0.8v2h2.8v0c0,0,0.1,0,0.1,0c5,0,9.1-4.1,9.1-9.1
		C257.7,107.9,253.9,104,249.2,103.7z M221.3,100.1c-0.2,0-0.5,0-0.7,0c-2.8,0-5.3,1-7.2,2.7c-1.1-1.4-1.8-3.1-1.8-5
		c0-4.4,3.6-8,8-8c3.1,0,5.8,1.8,7.1,4.3C224.4,95.6,222.5,97.7,221.3,100.1z"/>
</g>
<g>
	<polygon points="333.1,126.3 333.1,128.2 333.1,134.3 335.1,134.3 335.1,128.2 335.1,126.3 335.1,114.3 333.1,114.3 	"/>
	<polygon points="341.1,122.3 341.1,124 341.1,130.3 343.1,130.3 343.1,124 343.1,122.3 343.1,110.3 341.1,110.3 	"/>
	<polygon points="325.1,122.3 325.1,124.4 325.1,130.3 327.1,130.3 327.1,124.4 327.1,122.3 327.1,110.3 325.1,110.3 	"/>
	<path d="M349.6,101.2c-1.4-6.7-7.4-11.8-14.6-11.8c-1.8,0-3.5,0.3-5.1,0.9c-0.9-5.1-5.4-9-10.8-9c-0.4,0-0.8,0-1.2,0.1
		c0.7,1.1,1.2,2.4,1.2,3.9c0,3.9-3.1,7-7,7c-1.4,0-2.8-0.4-3.9-1.2c0,0.4-0.1,0.8-0.1,1.2c0,3.7,1.8,7,4.7,9
		c-1.7,1.9-2.7,4.4-2.7,7.1c0,6,4.8,10.8,10.8,10.9v0h1.2v-2h-0.7l-0.5,0c-4.9,0-8.8-4-8.8-8.9c0-4.9,4-8.9,8.9-8.9
		c0.1,0,0.3,0,0.4,0l0.1,0l1.3,0.1l0.6-1.2c2.2-4.4,6.6-7.1,11.5-7.1c6.1,0,11.4,4.3,12.6,10.2l0.3,1.5l1.5,0.1
		c3.7,0.2,6.6,3.3,6.6,7c0,3.9-3.1,7-7,7.1c0,0-0.1,0-0.1,0l-2,0h-0.8v2h2.8v0c0,0,0.1,0,0.1,0c5,0,9.1-4.1,9.1-9.1
		C358.1,105.4,354.3,101.5,349.6,101.2z M321.7,97.6c-0.2,0-0.5,0-0.7,0c-2.5,0-4.9,0.9-6.7,2.3c-2-1.3-3.5-3.4-4-5.8
		c0.6,0.1,1.2,0.2,1.8,0.2c5,0,9-4,9-9c0-0.6-0.1-1.2-0.2-1.8c3.7,0.8,6.6,3.8,7.1,7.6C325.3,92.6,323.1,94.8,321.7,97.6z"/>
</g>
<g>
	<polygon points="550.1,127.2 543.2,117.4 541.6,118.6 548.5,128.4 549.6,130 553.1,134.9 554.7,133.8 551.2,128.8 	"/>
	<polygon points="558.1,127.2 551.2,117.4 549.6,118.6 556.5,128.4 557.5,129.8 561.1,134.9 562.7,133.8 559.1,128.7 	"/>
	<polygon points="542.1,127.2 535.2,117.4 533.6,118.6 540.5,128.4 541.7,130.1 545.1,134.9 546.7,133.8 543.3,128.9 	"/>
	<rect x="529.6" y="79.7" width="2" height="8"/>
	<rect x="510.6" y="98.6" width="8" height="2"/>
	<rect x="518.3" y="84.3" transform="matrix(0.7071 -0.7071 0.7071 0.7071 89.6256 393.0391)" width="2" height="8"/>
	<rect x="537.8" y="87.3" transform="matrix(0.7071 -0.7071 0.7071 0.7071 96.2193 408.9648)" width="8" height="2"/>
	<path d="M560.1,105.5c-1.4-6.7-7.4-11.8-14.6-11.8c-2.2,0-4.3,0.5-6.1,1.3c-1.7-3.2-5-5.4-8.9-5.4c-5.5,0-10,4.5-10,10
		c0,2.5,0.9,4.7,2.4,6.4c-1.4,1.8-2.3,4.1-2.3,6.7c0,6,4.8,10.8,10.8,10.9v0h1.2v-2h-0.7l-0.5,0c-4.9,0-8.8-4-8.8-8.9
		c0-4.9,4-8.9,8.9-8.9c0.2,0,0.3,0,0.4,0l0.1,0l1.3,0.1l0.6-1.2c2.2-4.4,6.6-7.1,11.5-7.1c6.1,0,11.4,4.3,12.6,10.2l0.3,1.5l1.5,0.1
		c3.7,0.2,6.6,3.3,6.6,7c0,3.9-3.1,7-7,7.1c0,0-0.1,0-0.1,0l0,0h-0.8v2h0.8v0c0,0,0.1,0,0.1,0c5,0,9.1-4.1,9.1-9.1
		C568.6,109.7,564.8,105.8,560.1,105.5z M532.2,101.9c-0.2,0-0.5,0-0.7,0c-2.8,0-5.3,1-7.2,2.7c-1.1-1.4-1.8-3.1-1.8-5
		c0-4.4,3.6-8,8-8c3.1,0,5.8,1.8,7.1,4.3C535.3,97.4,533.4,99.4,532.2,101.9z"/>
</g>
<g>
	<polygon points="-173.3,223.7 -180.2,213.9 -181.8,215 -175,224.9 -173.8,226.5 -170.4,231.4 -168.7,230.3 -172.2,225.3 	"/>
	<polygon points="-165.3,223.7 -172.2,213.9 -173.8,215 -166.9,224.9 -165.9,226.3 -162.4,231.4 -160.7,230.3 -164.3,225.2 	"/>
	<polygon points="-181.3,223.7 -188.2,213.9 -189.8,215 -183,224.9 -181.8,226.6 -178.4,231.4 -176.7,230.3 -180.1,225.4 	"/>
	<path d="M-163.3,202c-1.4-6.7-7.4-11.8-14.6-11.8c-1.8,0-3.5,0.3-5.1,0.9c-0.9-5.1-5.4-9-10.8-9c-0.4,0-0.8,0-1.2,0.1
		c0.7,1.1,1.2,2.4,1.2,3.9c0,3.9-3.1,7-7,7c-1.4,0-2.8-0.4-3.9-1.2c0,0.4-0.1,0.8-0.1,1.2c0,3.7,1.8,7,4.7,9
		c-1.7,1.9-2.7,4.4-2.7,7.1c0,6,4.8,10.8,10.8,10.9v0h1.2v-2h-0.7l-0.5,0c-4.9,0-8.8-4-8.8-8.9c0-4.9,4-8.9,8.9-8.9
		c0.1,0,0.3,0,0.4,0l0.1,0l1.3,0.1l0.6-1.2c2.2-4.4,6.6-7.1,11.5-7.1c6.1,0,11.4,4.3,12.6,10.2l0.3,1.5l1.5,0.1
		c3.7,0.2,6.6,3.3,6.6,7c0,3.9-3.1,7-7,7.1c0,0-0.1,0-0.1,0l0,0h-0.8v2h0.8v0c0,0,0.1,0,0.1,0c5,0,9.1-4.1,9.1-9.1
		C-154.8,206.2-158.6,202.3-163.3,202z M-191.2,198.3c-0.2,0-0.5,0-0.7,0c-2.5,0-4.9,0.9-6.7,2.3c-2-1.3-3.5-3.4-4-5.8
		c0.6,0.1,1.2,0.2,1.8,0.2c5,0,9-4,9-9c0-0.6-0.1-1.2-0.2-1.8c3.7,0.8,6.6,3.8,7.1,7.6C-187.6,193.3-189.8,195.6-191.2,198.3z"/>
</g>
<g>
	<rect x="-180.8" y="119.9" width="2" height="4"/>
	<rect x="-172.8" y="115.9" width="2" height="4"/>
	<rect x="-188.8" y="115.9" width="2" height="4"/>
	<path d="M-162.2,99.9c-1.6-7.4-8.2-13-16.1-13c-6.4,0-12,3.7-14.7,9c-0.3,0-0.5,0-0.8,0c-6.6,0-12,5.4-12,12c0,6.6,5.3,12,11.9,12
		v0h2.1v-2h-1.6l-0.4,0c-5.5,0-9.9-4.5-9.9-10c0-5.5,4.5-10,10-10c0.2,0,0.3,0,0.5,0l0.1,0l1.3,0.1l0.6-1.2
		c2.5-4.9,7.4-7.9,12.9-7.9c6.8,0,12.8,4.8,14.2,11.4l0.3,1.5l1.5,0.1c4.2,0.3,7.5,3.8,7.5,8c0,4.4-3.6,8-8,8c-0.1,0-0.1,0-0.1,0
		l-2,0h-2.9v2h4.9v0c0,0,0.1,0,0.1,0c5.5,0,10-4.5,10-10C-152.8,104.5-157,100.2-162.2,99.9z"/>
	<circle cx="-171.8" cy="124.9" r="1.5"/>
	<circle cx="-179.8" cy="128.9" r="1.5"/>
	<circle cx="-187.8" cy="124.9" r="1.5"/>
</g>
<g>
	<rect x="-87.9" y="80.4" width="2" height="8"/>
	<rect x="-106.9" y="99.3" width="8" height="2"/>
	<rect x="-99.3" y="85.1" transform="matrix(0.7071 -0.7071 0.7071 0.7071 -91.7588 -43.3873)" width="2" height="8"/>
	<rect x="-79.7" y="88.1" transform="matrix(0.7071 -0.7071 0.7071 0.7071 -85.1654 -27.4608)" width="8" height="2"/>
	<path d="M-57.4,106.2c-1.4-6.7-7.4-11.8-14.6-11.8c-2.2,0-4.3,0.5-6.1,1.3c-1.7-3.2-5-5.4-8.9-5.4c-5.5,0-10,4.5-10,10
		c0,2.5,0.9,4.7,2.4,6.4c-1.4,1.8-2.3,4.1-2.3,6.7c0,6,4.8,10.8,10.8,10.9v0h1.2v-2h-0.7l-0.5,0c-4.9,0-8.8-4-8.8-8.9
		c0-4.9,4-8.9,8.9-8.9c0.2,0,0.3,0,0.4,0l0.1,0l1.3,0.1l0.6-1.2c2.2-4.4,6.6-7.1,11.5-7.1c6.1,0,11.4,4.3,12.6,10.2l0.3,1.5l1.5,0.1
		c3.7,0.2,6.6,3.3,6.6,7c0,3.9-3.1,7-7,7.1c0,0-0.1,0-0.1,0l-2,0h-0.8v2h2.8v0c0,0,0.1,0,0.1,0c5,0,9.1-4.1,9.1-9.1
		C-48.9,110.4-52.7,106.5-57.4,106.2z M-85.3,102.6c-0.2,0-0.5,0-0.7,0c-2.8,0-5.3,1-7.2,2.7c-1.1-1.4-1.8-3.1-1.8-5
		c0-4.4,3.6-8,8-8c3.1,0,5.8,1.8,7.1,4.3C-82.2,98.1-84.1,100.2-85.3,102.6z"/>
	<rect x="-73.9" y="124.3" width="2" height="4"/>
	<rect x="-65.9" y="120.3" width="2" height="4"/>
	<rect x="-81.9" y="120.3" width="2" height="4"/>
	<circle cx="-64.9" cy="129.3" r="1.5"/>
	<circle cx="-72.9" cy="133.3" r="1.5"/>
	<circle cx="-80.9" cy="129.3" r="1.5"/>
</g>
<g>
	<path d="M43.5,105.3c-1.4-6.7-7.4-11.8-14.6-11.8c-1.8,0-3.5,0.3-5.1,0.9c-0.9-5.1-5.4-9-10.8-9c-0.4,0-0.8,0-1.2,0.1
		c0.7,1.1,1.2,2.4,1.2,3.9c0,3.9-3.1,7-7,7c-1.4,0-2.8-0.4-3.9-1.2C2,95.6,2,96,2,96.4c0,3.7,1.8,7,4.7,9C5,107.3,4,109.7,4,112.5
		c0,6,4.8,10.8,10.8,10.9v0H16v-2h-0.7l-0.5,0c-4.9,0-8.8-4-8.8-8.9c0-4.9,4-8.9,8.9-8.9c0.1,0,0.3,0,0.4,0l0.1,0l1.3,0.1l0.6-1.2
		c2.2-4.4,6.6-7.1,11.5-7.1c6.1,0,11.4,4.3,12.6,10.2l0.3,1.5l1.5,0.1c3.7,0.2,6.6,3.3,6.6,7c0,3.9-3.1,7-7,7.1c0,0-0.1,0-0.1,0
		l-2,0H40v2h2.8v0c0,0,0.1,0,0.1,0c5,0,9.1-4.1,9.1-9.1C52,109.5,48.3,105.6,43.5,105.3z M15.6,101.6c-0.2,0-0.5,0-0.7,0
		c-2.5,0-4.9,0.9-6.7,2.3c-2-1.3-3.5-3.4-4-5.8c0.6,0.1,1.2,0.2,1.8,0.2c5,0,9-4,9-9c0-0.6-0.1-1.2-0.2-1.8c3.7,0.8,6.6,3.8,7.1,7.6
		C19.2,96.6,17,98.9,15.6,101.6z"/>
	<rect x="27" y="123.4" width="2" height="4"/>
	<rect x="35" y="119.3" width="2" height="4"/>
	<rect x="19" y="119.3" width="2" height="4"/>
	<circle cx="36" cy="128.4" r="1.5"/>
	<circle cx="28" cy="132.3" r="1.5"/>
	<circle cx="20" cy="128.3" r="1.5"/>
</g>
<g>
	<path d="M-59.8,198.3c-1.6-7.4-8.2-13-16.1-13c-6.4,0-12,3.7-14.7,9c-0.3,0-0.5,0-0.8,0c-6.6,0-12,5.4-12,12c0,6.6,5.3,12,11.9,12
		v0h6.1v-2H-91l-0.4,0c-5.5,0-9.9-4.5-9.9-10c0-5.5,4.5-10,10-10c0.2,0,0.3,0,0.5,0l0.1,0l1.3,0.1l0.6-1.2c2.5-4.9,7.4-7.9,12.9-7.9
		c6.8,0,12.8,4.8,14.2,11.4l0.3,1.5l1.5,0.1c4.2,0.3,7.5,3.8,7.5,8c0,4.4-3.6,8-8,8c0,0-0.1,0-0.1,0l-5,0h0.1v2h4.9v0
		c0,0,0.1,0,0.1,0c5.5,0,10-4.5,10-10C-50.4,202.9-54.6,198.6-59.8,198.3z"/>
	<polygon points="-75.6,218.3 -73.8,218.3 -73.4,218.3 -71.4,218.3 -77.8,209.1 -79.4,210.2 -75.2,216.3 -77,216.3 -79.4,216.3 
		-78.1,218.1 -77,219.7 -71.1,228.3 -69.4,227.1 -75.4,218.5 	"/>
</g>
<g>
	<rect x="16" y="179.2" width="2" height="8"/>
	<rect x="-3" y="198.1" width="8" height="2"/>
	<rect x="4.7" y="183.8" transform="matrix(0.7071 -0.7071 0.7071 0.7071 -131.1342 59.0172)" width="2" height="8"/>
	<rect x="24.2" y="186.8" transform="matrix(0.7071 -0.7071 0.7071 0.7071 -124.5405 74.943)" width="8" height="2"/>
	<path d="M46.5,204.9c-1.4-6.7-7.4-11.8-14.6-11.8c-2.2,0-4.3,0.5-6.1,1.3c-1.7-3.2-5-5.4-8.9-5.4c-5.5,0-10,4.5-10,10
		c0,2.5,0.9,4.7,2.4,6.4c-1.4,1.8-2.3,4.1-2.3,6.7c0,6,4.8,10.8,10.8,10.9v0H22v-2h-3.7l-0.5,0c-4.9,0-8.8-4-8.8-8.9
		c0-4.9,4-8.9,8.9-8.9c0.1,0,0.3,0,0.4,0l0.1,0l1.3,0.1l0.6-1.2c2.2-4.4,6.6-7.1,11.5-7.1c6.1,0,11.4,4.3,12.6,10.2l0.3,1.5l1.5,0.1
		c3.7,0.2,6.6,3.3,6.6,7c0,3.9-3.1,7-7,7.1c0,0-0.1,0-0.1,0l-2,0H40v2h5.8v0c0,0,0.1,0,0.1,0c5,0,9.1-4.1,9.1-9.1
		C55,209.2,51.3,205.2,46.5,204.9z M18.6,201.3c-0.2,0-0.5,0-0.7,0c-2.8,0-5.3,1-7.2,2.7c-1.1-1.4-1.8-3.1-1.8-5c0-4.4,3.6-8,8-8
		c3.1,0,5.8,1.8,7.1,4.3C21.7,196.9,19.8,198.9,18.6,201.3z"/>
	<polygon points="30.9,223 32.6,223 33.1,223 35.1,223 28.6,213.9 27,215 31.2,221 29.5,221 27,221 28.3,222.9 29.4,224.4 35.4,233 
		37,231.9 31,223.3 	"/>
</g>
<g>
	<path d="M146.1,202.6c-1.4-6.7-7.4-11.8-14.6-11.8c-1.8,0-3.5,0.3-5.1,0.9c-0.9-5.1-5.4-9-10.8-9c-0.4,0-0.8,0-1.2,0.1
		c0.7,1.1,1.2,2.4,1.2,3.9c0,3.9-3.1,7-7,7c-1.4,0-2.8-0.4-3.9-1.2c0,0.4-0.1,0.8-0.1,1.2c0,3.7,1.8,7,4.7,9
		c-1.7,1.9-2.7,4.4-2.7,7.1c0,6,4.8,10.8,10.8,10.9v0h4.2v-2h-3.7l-0.5,0c-4.9,0-8.8-4-8.8-8.9c0-4.9,4-8.9,8.9-8.9
		c0.2,0,0.3,0,0.4,0l0.1,0l1.3,0.1l0.6-1.2c2.2-4.4,6.6-7.1,11.5-7.1c6.1,0,11.4,4.3,12.6,10.2l0.3,1.5l1.5,0.1
		c3.7,0.2,6.6,3.3,6.6,7c0,3.9-3.1,7-7,7.1c0,0-0.1,0-0.1,0l-2,0h-3.8v2h5.8v0c0,0,0.1,0,0.1,0c5,0,9.1-4.1,9.1-9.1
		C154.6,206.9,150.8,202.9,146.1,202.6z M118.2,199c-0.2,0-0.5,0-0.7,0c-2.5,0-4.9,0.9-6.7,2.3c-2-1.3-3.5-3.4-4-5.8
		c0.6,0.1,1.2,0.2,1.8,0.2c5,0,9-4,9-9c0-0.6-0.1-1.2-0.2-1.8c3.7,0.8,6.6,3.8,7.1,7.6C121.8,194,119.6,196.3,118.2,199z"/>
	<polygon points="130.4,220.7 132.2,220.7 132.6,220.7 134.6,220.7 128.2,211.6 126.6,212.7 130.8,218.7 129,218.7 126.6,218.7 
		127.9,220.6 129,222.1 135,230.7 136.6,229.6 130.6,221 	"/>
</g>
<g>
	<path d="M247,198.8c-1.6-7.4-8.2-13-16.1-13c-6.4,0-12,3.7-14.7,9c-0.3,0-0.5,0-0.8,0c-6.6,0-12,5.4-12,12c0,6.6,5.3,12,11.9,12v0
		h1.1v-2h-0.6l-0.4,0c-5.5,0-9.9-4.5-9.9-10c0-5.5,4.5-10,10-10c0.2,0,0.3,0,0.5,0l0.1,0l1.3,0.1l0.6-1.2c2.5-4.9,7.4-7.9,12.9-7.9
		c6.8,0,12.8,4.8,14.2,11.4l0.3,1.5l1.5,0.1c4.2,0.3,7.5,3.8,7.5,8c0,4.4-3.6,8-8,8c-0.1,0-0.1,0-0.1,0l-0.9,0v2h0.9v0
		c0,0,0.1,0,0.1,0c5.5,0,10-4.5,10-10C256.4,203.4,252.2,199.1,247,198.8z"/>
	<rect x="220.4" y="212.2" transform="matrix(0.8191 -0.5736 0.5736 0.8191 -84.8649 166.3848)" width="2" height="11.2"/>
	<rect x="238.4" y="212.2" transform="matrix(0.8191 -0.5736 0.5736 0.8191 -81.614 176.696)" width="2" height="11.2"/>
	<polygon points="232.2,221.8 234,221.8 234.4,221.8 236.4,221.8 230,212.6 228.4,213.7 232.6,219.8 230.8,219.8 228.4,219.8 
		229.6,221.6 230.7,223.2 235.4,229.8 237,228.6 232.4,222 	"/>
</g>
<g>
	<rect x="321.8" y="179.3" width="2" height="8"/>
	<rect x="302.8" y="198.2" width="8" height="2"/>
	<rect x="310.5" y="184" transform="matrix(0.7071 -0.7071 0.7071 0.7071 -41.6734 275.3167)" width="2" height="8"/>
	<rect x="330" y="187" transform="matrix(0.7071 -0.7071 0.7071 0.7071 -35.0799 291.2432)" width="8" height="2"/>
	<path d="M352.4,205.1c-1.4-6.7-7.4-11.8-14.6-11.8c-2.2,0-4.3,0.5-6.1,1.3c-1.7-3.2-5-5.4-8.9-5.4c-5.5,0-10,4.5-10,10
		c0,2.5,0.9,4.7,2.4,6.4c-1.4,1.8-2.3,4.1-2.3,6.7c0,6,4.8,10.8,10.8,10.9v0h0.2v-2l-0.2,0c-4.9,0-8.8-4-8.8-8.9
		c0-4.9,4-8.9,8.9-8.9c0.1,0,0.3,0,0.4,0l0.1,0l1.3,0.1l0.6-1.2c2.2-4.4,6.6-7.1,11.5-7.1c6.1,0,11.4,4.3,12.6,10.2l0.3,1.5l1.5,0.1
		c3.7,0.2,6.6,3.3,6.6,7c0,3.9-3.1,7-7,7.1c0,0-0.1,0-0.1,0l-0.9,0v2h0.8v0c0,0,0.1,0,0.1,0c5,0,9.1-4.1,9.1-9.1
		C360.8,209.3,357.1,205.4,352.4,205.1z M324.4,201.5c-0.2,0-0.5,0-0.7,0c-2.8,0-5.3,1-7.2,2.7c-1.1-1.4-1.8-3.1-1.8-5
		c0-4.4,3.6-8,8-8c3.1,0,5.8,1.8,7.1,4.3C327.5,197,325.7,199.1,324.4,201.5z"/>
	<rect x="326.9" y="216.6" transform="matrix(0.8191 -0.5736 0.5736 0.8191 -68.1543 228.2596)" width="2" height="11.2"/>
	<rect x="344.8" y="216.6" transform="matrix(0.8191 -0.5736 0.5736 0.8191 -64.9029 238.5704)" width="2" height="11.2"/>
	<polygon points="338.7,226.2 340.4,226.2 340.9,226.2 342.9,226.2 336.5,217 334.8,218.2 339,224.2 337.3,224.2 334.8,224.2 
		336.1,226 337.2,227.6 341.8,234.2 343.5,233 338.9,226.5 	"/>
</g>
<g>
	<path d="M454.2,202.1c-1.4-6.7-7.4-11.8-14.6-11.8c-1.8,0-3.5,0.3-5.1,0.9c-0.9-5.1-5.4-9-10.8-9c-0.4,0-0.8,0-1.2,0.1
		c0.7,1.1,1.2,2.4,1.2,3.9c0,3.9-3.1,7-7,7c-1.4,0-2.8-0.4-3.9-1.2c0,0.4-0.1,0.8-0.1,1.2c0,3.7,1.8,7,4.7,9
		c-1.7,1.9-2.7,4.4-2.7,7.1c0,6,4.8,10.8,10.8,10.9v0h0.2v-2l-0.2,0c-4.9,0-8.8-4-8.8-8.9c0-4.9,4-8.9,8.9-8.9c0.1,0,0.3,0,0.4,0
		l0.1,0l1.3,0.1l0.6-1.2c2.2-4.4,6.6-7.1,11.5-7.1c6.1,0,11.4,4.3,12.6,10.2l0.3,1.5l1.5,0.1c3.7,0.2,6.6,3.3,6.6,7
		c0,3.9-3.1,7-7,7.1c0,0-0.1,0-0.1,0l-0.9,0v2h0.8v0c0,0,0.1,0,0.1,0c5,0,9.1-4.1,9.1-9.1C462.7,206.4,458.9,202.4,454.2,202.1z
		 M426.3,198.5c-0.2,0-0.5,0-0.7,0c-2.5,0-4.9,0.9-6.7,2.3c-2-1.3-3.5-3.4-4-5.8c0.6,0.1,1.2,0.2,1.8,0.2c5,0,9-4,9-9
		c0-0.6-0.1-1.2-0.2-1.8c3.7,0.8,6.6,3.8,7.1,7.6C429.9,193.5,427.7,195.8,426.3,198.5z"/>
	<rect x="428.7" y="213.7" transform="matrix(0.8191 -0.5736 0.5736 0.8191 -48.0374 286.1423)" width="2" height="11.2"/>
	<rect x="446.7" y="213.7" transform="matrix(0.8191 -0.5736 0.5736 0.8191 -44.786 296.453)" width="2" height="11.2"/>
	<polygon points="440.5,223.2 442.3,223.2 442.7,223.2 444.7,223.2 438.3,214.1 436.7,215.2 440.9,221.2 439.1,221.2 436.7,221.2 
		437.9,223.1 439,224.6 443.7,231.2 445.3,230.1 440.7,223.5 	"/>
</g>
<g>
	<g>
		<path d="M43.6,288.6c-1.6-7.4-8.2-13-16.1-13c-6.4,0-12,3.7-14.7,9c-0.3,0-0.5,0-0.8,0c-6.6,0-12,5.4-12,12c0,6.6,5.3,12,11.9,12
			v0H14v-2h-1.6l-0.4,0c-5.5,0-9.9-4.5-9.9-10c0-5.5,4.5-10,10-10c0.2,0,0.3,0,0.5,0l0.1,0l1.3,0.1l0.6-1.2
			c2.5-4.9,7.4-7.9,12.9-7.9c6.8,0,12.8,4.8,14.2,11.4l0.3,1.5l1.5,0.1c4.2,0.3,7.5,3.8,7.5,8c0,4.4-3.6,8-8,8c0,0-0.1,0-0.1,0l-2,0
			H38v2h4.9v0c0,0,0.1,0,0.1,0c5.5,0,10-4.5,10-10C53,293.3,48.9,288.9,43.6,288.6z"/>
	</g>
	<g>
		<circle cx="18.5" cy="302.1" r="1.5"/>
	</g>
	<g>
		<circle cx="22.5" cy="308.1" r="1.5"/>
	</g>
	<g>
		<circle cx="30.5" cy="308.1" r="1.5"/>
	</g>
	<g>
		<circle cx="26.5" cy="302.1" r="1.5"/>
	</g>
	<g>
		<circle cx="34.5" cy="302.1" r="1.5"/>
	</g>
	<g>
		<circle cx="18.5" cy="314.1" r="1.5"/>
	</g>
	<g>
		<circle cx="26.5" cy="314.1" r="1.5"/>
	</g>
	<g>
		<circle cx="34.5" cy="314.1" r="1.5"/>
	</g>
</g>
<g>
	<g>
		<rect x="119.4" y="273.1" width="2" height="8"/>
	</g>
	<g>
		<rect x="100.4" y="292" width="8" height="2"/>
	</g>
	<g>
		<rect x="108.1" y="277.8" transform="matrix(0.7071 -0.7071 0.7071 0.7071 -167.2963 159.657)" width="2" height="8"/>
	</g>
	<g>
		<rect x="127.6" y="280.8" transform="matrix(0.7071 -0.7071 0.7071 0.7071 -160.7029 175.5833)" width="8" height="2"/>
	</g>
	<g>
		<path d="M149.9,298.9c-1.4-6.7-7.4-11.8-14.6-11.8c-2.2,0-4.3,0.5-6.1,1.3c-1.7-3.2-5-5.4-8.9-5.4c-5.5,0-10,4.5-10,10
			c0,2.5,0.9,4.7,2.4,6.4c-1.4,1.8-2.3,4.1-2.3,6.7c0,6,4.8,10.8,10.8,10.9v0h1.2v-2h-0.7l-0.5,0c-4.9,0-8.8-4-8.8-8.9
			c0-4.9,4-8.9,8.9-8.9c0.2,0,0.3,0,0.4,0l0.1,0l1.3,0.1l0.6-1.2c2.2-4.4,6.6-7.1,11.5-7.1c6.1,0,11.4,4.3,12.6,10.2l0.3,1.5
			l1.5,0.1c3.7,0.2,6.6,3.3,6.6,7c0,3.9-3.1,7-7,7.1c0,0-0.1,0-0.1,0l-2,0h-1.8v2h3.8v0c0,0,0.1,0,0.1,0c5,0,9.1-4.1,9.1-9.1
			C158.4,303.1,154.7,299.2,149.9,298.9z M122,295.3c-0.2,0-0.5,0-0.7,0c-2.8,0-5.3,1-7.2,2.7c-1.1-1.4-1.8-3.1-1.8-5
			c0-4.4,3.6-8,8-8c3.1,0,5.8,1.8,7.1,4.3C125.1,290.8,123.2,292.9,122,295.3z"/>
	</g>
	<g>
		<circle cx="125.9" cy="310.5" r="1.5"/>
	</g>
	<g>
		<circle cx="129.9" cy="316.5" r="1.5"/>
	</g>
	<g>
		<circle cx="137.9" cy="316.5" r="1.5"/>
	</g>
	<g>
		<circle cx="133.9" cy="310.5" r="1.5"/>
	</g>
	<g>
		<circle cx="141.9" cy="310.5" r="1.5"/>
	</g>
	<g>
		<circle cx="125.9" cy="322.5" r="1.5"/>
	</g>
	<g>
		<circle cx="133.9" cy="322.5" r="1.5"/>
	</g>
	<g>
		<circle cx="141.9" cy="322.5" r="1.5"/>
	</g>
</g>
<g>
	<g>
		<path d="M245.9,295c-1.4-6.7-7.4-11.8-14.6-11.8c-1.8,0-3.5,0.3-5.1,0.9c-0.9-5.1-5.4-9-10.8-9c-0.4,0-0.8,0-1.2,0.1
			c0.7,1.1,1.2,2.4,1.2,3.9c0,3.9-3.1,7-7,7c-1.4,0-2.8-0.4-3.9-1.2c0,0.4-0.1,0.8-0.1,1.2c0,3.7,1.8,7,4.7,9
			c-1.7,1.9-2.7,4.4-2.7,7.1c0,6,4.8,10.8,10.8,10.9v0h1.2v-2h-0.7l-0.5,0c-4.9,0-8.8-4-8.8-8.9c0-4.9,4-8.9,8.9-8.9
			c0.1,0,0.3,0,0.4,0l0.1,0l1.3,0.1l0.6-1.2c2.2-4.4,6.6-7.1,11.5-7.1c6.1,0,11.4,4.3,12.6,10.2l0.3,1.5l1.5,0.1
			c3.7,0.2,6.6,3.3,6.6,7c0,3.9-3.1,7-7,7.1c0,0-0.1,0-0.1,0l-2,0h-1.8v2h3.8v0c0,0,0.1,0,0.1,0c5,0,9.1-4.1,9.1-9.1
			C254.4,299.2,250.6,295.3,245.9,295z M218,291.3c-0.2,0-0.5,0-0.7,0c-2.5,0-4.9,0.9-6.7,2.3c-2-1.3-3.5-3.4-4-5.8
			c0.6,0.1,1.2,0.2,1.8,0.2c5,0,9-4,9-9c0-0.6-0.1-1.2-0.2-1.8c3.7,0.8,6.6,3.8,7.1,7.6C221.6,286.3,219.4,288.6,218,291.3z"/>
	</g>
	<g>
		<circle cx="221.9" cy="306.6" r="1.5"/>
	</g>
	<g>
		<circle cx="225.9" cy="312.6" r="1.5"/>
	</g>
	<g>
		<circle cx="233.9" cy="312.6" r="1.5"/>
	</g>
	<g>
		<circle cx="229.9" cy="306.6" r="1.5"/>
	</g>
	<g>
		<circle cx="237.9" cy="306.6" r="1.5"/>
	</g>
	<g>
		<circle cx="221.9" cy="318.6" r="1.5"/>
	</g>
	<g>
		<circle cx="229.9" cy="318.6" r="1.5"/>
	</g>
	<g>
		<circle cx="237.9" cy="318.6" r="1.5"/>
	</g>
</g>
<g>
	<path d="M557,196.1c-1.6-7.4-8.2-13-16.1-13c-6.4,0-12,3.7-14.7,9c-0.3,0-0.5,0-0.8,0c-6.6,0-12,5.4-12,12c0,6.6,5.3,12,11.9,12v0
		h2.1v-2h-1.6l-0.4,0c-5.5,0-9.9-4.5-9.9-10c0-5.5,4.5-10,10-10c0.2,0,0.3,0,0.5,0l0.1,0l1.3,0.1l0.6-1.2c2.5-4.9,7.4-7.9,12.9-7.9
		c6.8,0,12.8,4.8,14.2,11.4l0.3,1.5l1.5,0.1c4.2,0.3,7.5,3.8,7.5,8c0,4.4-3.6,8-8,8c0,0-0.1,0-0.1,0l-2,0h-2.9v2h4.9v0
		c0,0,0.1,0,0.1,0c5.5,0,10-4.5,10-10C566.4,200.7,562.3,196.4,557,196.1z"/>
	<circle cx="531.4" cy="223.5" r="1.5"/>
	<circle cx="539.4" cy="229.5" r="1.5"/>
	<circle cx="547.4" cy="225.5" r="1.5"/>
	<rect x="530.4" y="207.1" width="2" height="12"/>
	<polygon points="540.4,225 540.4,223.1 540.4,211.1 538.4,211.1 538.4,223.1 538.4,225 538.4,225 540.4,225 	"/>
	<polygon points="548.4,220.8 548.4,219.1 548.4,207.1 546.4,207.1 546.4,219.1 546.4,220.8 546.4,221 548.4,221 	"/>
</g>
<g>
	<rect x="-191.3" y="267.7" width="2" height="8"/>
	<rect x="-210.3" y="286.6" width="8" height="2"/>
	<rect x="-202.7" y="272.3" transform="matrix(0.7071 -0.7071 0.7071 0.7071 -254.4676 -61.6665)" width="2" height="8"/>
	<rect x="-183.1" y="275.3" transform="matrix(0.7071 -0.7071 0.7071 0.7071 -247.8741 -45.74)" width="8" height="2"/>
	<path d="M-160.8,293.5c-1.4-6.7-7.4-11.8-14.6-11.8c-2.2,0-4.3,0.5-6.1,1.3c-1.7-3.2-5-5.4-8.9-5.4c-5.5,0-10,4.5-10,10
		c0,2.5,0.9,4.7,2.4,6.4c-1.4,1.8-2.3,4.1-2.3,6.7c0,6,4.8,10.8,10.8,10.9v0h1.2v-2h-0.7l-0.5,0c-4.9,0-8.8-4-8.8-8.9
		c0-4.9,4-8.9,8.9-8.9c0.1,0,0.3,0,0.4,0l0.1,0l1.3,0.1l0.6-1.2c2.2-4.4,6.6-7.1,11.5-7.1c6.1,0,11.4,4.3,12.6,10.2l0.3,1.5l1.5,0.1
		c3.7,0.2,6.6,3.3,6.6,7c0,3.9-3.1,7-7,7.1c0,0-0.1,0-0.1,0l-2,0h-0.8v2h2.8v0c0,0,0.1,0,0.1,0c5,0,9.1-4.1,9.1-9.1
		C-152.3,297.7-156.1,293.8-160.8,293.5z M-188.7,289.9c-0.2,0-0.5,0-0.7,0c-2.8,0-5.3,1-7.2,2.7c-1.1-1.4-1.8-3.1-1.8-5
		c0-4.4,3.6-8,8-8c3.1,0,5.8,1.8,7.1,4.3C-185.6,285.4-187.5,287.4-188.7,289.9z"/>
	<circle cx="-184.3" cy="320" r="1.5"/>
	<circle cx="-176.3" cy="326" r="1.5"/>
	<circle cx="-168.3" cy="322" r="1.5"/>
	<rect x="-185.3" y="303.6" width="2" height="12"/>
	<polygon points="-175.3,321.5 -175.3,319.6 -175.3,307.6 -177.3,307.6 -177.3,319.6 -177.3,321.5 -177.3,321.5 -175.3,321.5 	"/>
	<polygon points="-167.3,317.3 -167.3,315.6 -167.3,303.6 -169.3,303.6 -169.3,315.6 -169.3,317.3 -169.3,317.5 -167.3,317.5 	"/>
</g>
<g>
	<path d="M-60.2,290.5c-1.4-6.7-7.4-11.8-14.6-11.8c-1.8,0-3.5,0.3-5.1,0.9c-0.9-5.1-5.4-9-10.8-9c-0.4,0-0.8,0-1.2,0.1
		c0.7,1.1,1.2,2.4,1.2,3.9c0,3.9-3.1,7-7,7c-1.4,0-2.8-0.4-3.9-1.2c0,0.4-0.1,0.8-0.1,1.2c0,3.7,1.8,7,4.7,9
		c-1.7,1.9-2.7,4.4-2.7,7.1c0,6,4.8,10.8,10.8,10.9v0h1.2v-2h-0.7l-0.5,0c-4.9,0-8.8-4-8.8-8.9c0-4.9,4-8.9,8.9-8.9
		c0.2,0,0.3,0,0.4,0l0.1,0l1.3,0.1l0.6-1.2c2.2-4.4,6.6-7.1,11.5-7.1c6.1,0,11.4,4.3,12.6,10.2l0.3,1.5l1.5,0.1
		c3.7,0.2,6.6,3.3,6.6,7c0,3.9-3.1,7-7,7.1c0,0-0.1,0-0.1,0l-2,0h-0.8v2h2.8v0c0,0,0.1,0,0.1,0c5,0,9.1-4.1,9.1-9.1
		C-51.7,294.7-55.5,290.8-60.2,290.5z M-88.1,286.9c-0.2,0-0.5,0-0.7,0c-2.5,0-4.9,0.9-6.7,2.3c-2-1.3-3.5-3.4-4-5.8
		c0.6,0.1,1.2,0.2,1.8,0.2c5,0,9-4,9-9c0-0.6-0.1-1.2-0.2-1.8c3.7,0.8,6.6,3.8,7.1,7.6C-84.5,281.9-86.7,284.1-88.1,286.9z"/>
	<circle cx="-83.7" cy="317.1" r="1.5"/>
	<circle cx="-75.7" cy="323.1" r="1.5"/>
	<circle cx="-67.7" cy="319.1" r="1.5"/>
	<rect x="-84.7" y="300.6" width="2" height="12"/>
	<polygon points="-74.7,318.5 -74.7,316.6 -74.7,304.6 -76.7,304.6 -76.7,316.6 -76.7,318.5 -76.7,318.6 -74.7,318.6 	"/>
	<polygon points="-66.7,314.3 -66.7,312.6 -66.7,300.6 -68.7,300.6 -68.7,312.6 -68.7,314.3 -68.7,314.6 -66.7,314.6 	"/>
</g>
<g>
	<rect x="-208.3" y="394.9" width="56" height="2"/>
	<rect x="-204.3" y="400.9" width="50" height="2"/>
	<rect x="-198.3" y="406.9" width="36" height="2"/>
	<rect x="-206.3" y="388.9" width="52" height="2"/>
	<path d="M-194.5,380.9c0.2,0,0.3,0,0.5,0l0.1,0l1.3,0.1l0.6-1.2c2.5-4.9,7.4-7.9,12.9-7.9c6.8,0,12.8,4.8,14.2,11.4l0.3,1.5
		l1.5,0.1c1.2,0.1,2.3,0.4,3.3,1h3.3c-1.7-1.7-4-2.8-6.5-3c-1.6-7.4-8.2-13-16.1-13c-6.4,0-12,3.7-14.7,9c-0.3,0-0.5,0-0.8,0
		c-4.8,0-9,2.9-10.9,7h2.3C-201.4,382.9-198.2,380.9-194.5,380.9z"/>
</g>
<g>
	<rect x="-87.2" y="367.4" width="2" height="8"/>
	<rect x="-106.2" y="386.3" width="8" height="2"/>
	<rect x="-98.6" y="372.1" transform="matrix(0.7071 -0.7071 0.7071 0.7071 -294.4871 41.1517)" width="2" height="8"/>
	<rect x="-79" y="375.1" transform="matrix(0.7071 -0.7071 0.7071 0.7071 -287.8933 57.0774)" width="8" height="2"/>
	<rect x="-97.2" y="401.3" width="50" height="2"/>
	<rect x="-93.2" y="407.3" width="44" height="2"/>
	<rect x="-87.2" y="412.3" width="30" height="2"/>
	<rect x="-95.2" y="395.3" width="46" height="2"/>
	<path d="M-94.3,393.3h0.8h1.9h1c1.5-1.1,3.3-1.7,5.2-1.7c0.2,0,0.3,0,0.4,0l0.1,0l1.3,0.1l0.6-1.2c2.2-4.4,6.6-7.1,11.5-7.1
		c5.9,0,11.2,4.1,12.6,9.9h2v-0.1c-1.4-6.7-7.4-11.8-14.6-11.8c-2.2,0-4.3,0.5-6.1,1.3c-1.7-3.2-5-5.4-8.9-5.4c-5.5,0-10,4.5-10,10
		C-96.3,389.6-95.6,391.6-94.3,393.3z M-86.3,379.3c3.1,0,5.8,1.8,7.1,4.3c-2.3,1.4-4.2,3.5-5.4,5.9c-0.2,0-0.5,0-0.7,0
		c-2.8,0-5.3,1-7.2,2.7c-1.1-1.4-1.8-3.1-1.8-5C-94.3,382.9-90.7,379.3-86.3,379.3z"/>
</g>
<g>
	<rect x="1.5" y="397.8" width="50" height="2"/>
	<rect x="5.5" y="403.8" width="44" height="2"/>
	<rect x="11.5" y="408.8" width="30" height="2"/>
	<rect x="3.5" y="391.8" width="46" height="2"/>
	<path d="M5.2,389.8L5.2,389.8h1.9h1.1c1.5-1.1,3.3-1.7,5.2-1.7c0.1,0,0.3,0,0.4,0l0.1,0l1.3,0.1l0.6-1.2c2.2-4.4,6.6-7.1,11.5-7.1
		c5.9,0,11.2,4.1,12.6,9.9h2v-0.1C40.6,383,34.6,378,27.4,378c-1.8,0-3.5,0.3-5.1,0.9c-0.9-5.1-5.4-9-10.8-9c-0.4,0-0.8,0-1.2,0.1
		c0.7,1.1,1.2,2.4,1.2,3.9c0,3.9-3.1,7-7,7c-1.4,0-2.8-0.4-3.9-1.2c0,0.4-0.1,0.8-0.1,1.2C0.5,384.6,2.3,387.9,5.2,389.8z
		 M4.5,382.8c5,0,9-4,9-9c0-0.6-0.1-1.2-0.2-1.8c3.7,0.8,6.6,3.8,7.1,7.6c-2.7,1.4-4.9,3.7-6.3,6.4c-0.2,0-0.5,0-0.7,0
		c-2.5,0-4.9,0.9-6.7,2.3c-2-1.3-3.5-3.4-4-5.8C3.3,382.8,3.9,382.8,4.5,382.8z"/>
</g>
<g>
	<path d="M133.4,400.9h-19.5l-0.6,0c-5.5,0-9.9-4.5-9.9-10c0-5.5,4.5-10,10-10c0.2,0,0.3,0,0.5,0l0.1,0l1.3,0.1l0.6-1.2
		c2.5-4.9,7.4-7.9,12.9-7.9c6.8,0,12.8,4.8,14.2,11.4l0.3,1.5l1.5,0.1c1.8,0.1,3.5,0.8,4.7,2h2.7c-1.7-2.3-4.3-3.8-7.4-4
		c-1.6-7.4-8.2-13-16.1-13c-6.4,0-12,3.7-14.7,9c-0.3,0-0.5,0-0.8,0c-6.6,0-12,5.4-12,12c0,6.6,5.3,12,11.9,12v0h20.1
		c2.2,0,4,1.8,4,4s-1.8,4-4,4v2c3.3,0,6-2.7,6-6C139.4,403.5,136.7,400.9,133.4,400.9z"/>
	<path d="M137.4,396.9h-16v2h16c3.3,0,6-2.7,6-6c0-3.3-2.7-6-6-6v2c2.2,0,4,1.8,4,4S139.6,396.9,137.4,396.9z"/>
	<path d="M150.4,390.9c1.7,0,3,1.3,3,3s-1.3,3-3,3c0,0-0.1,0-0.1,0h-4.9c0,0,0,0,0,0h0v2h5.5v-0.1c2.5-0.3,4.5-2.4,4.5-4.9
		c0-2.8-2.2-5-5-5L150.4,390.9L150.4,390.9z"/>
	<path d="M154.4,400.9h-13v2h9c0,0,0,0,0,0h3.9c0,0,0.1,0,0.1,0c1.7,0,3,1.3,3,3s-1.3,3-3,3v2c2.8,0,5-2.2,5-5
		S157.2,400.9,154.4,400.9z"/>
	<rect x="115.4" y="396.9" width="4" height="2"/>
</g>
<path d="M-74.2,1.8c6.9,1.3,12.2,7.4,12.2,14.7c0,8.3-6.7,15-15,15c-6.8,0-12.5-4.5-14.4-10.7c1.4,0.5,2.9,0.7,4.4,0.7
	c7.7,0,14-6.3,14-14C-72.9,5.5-73.4,3.5-74.2,1.8 M-76.9-0.5c-0.3,0-0.7,0-1,0.1c1.9,2.1,3,4.9,3,7.9c0,6.6-5.4,12-12,12
	c-2.6,0-5-0.8-7-2.2c0.4,9,7.8,16.3,17,16.3c9.4,0,17-7.6,17-17S-67.5-0.5-76.9-0.5L-76.9-0.5z"/>
<g>
	<path d="M-180.3,4.5c-7.2,0-13,5.8-13,13c0,7.2,5.8,13,13,13s13-5.8,13-13C-167.3,10.3-173.1,4.5-180.3,4.5z M-180.3,28.5
		c-6.1,0-11-4.9-11-11c0-6.1,4.9-11,11-11s11,4.9,11,11C-169.3,23.6-174.3,28.5-180.3,28.5z"/>
	<rect x="-181.3" y="-8.5" width="2" height="10"/>
	<rect x="-181.3" y="33.5" width="2" height="10"/>
	<rect x="-206.3" y="16.5" width="10" height="2"/>
	<rect x="-164.3" y="16.5" width="10" height="2"/>
	<rect x="-170.8" y="1.8" transform="matrix(0.7071 -0.7071 0.7071 0.7071 -50.4858 -116.3037)" width="10.4" height="2"/>
	<rect x="-200.3" y="31.2" transform="matrix(0.7071 -0.7071 0.7071 0.7071 -79.8938 -128.4877)" width="10.4" height="2"/>
	<rect x="-196" y="-2.4" transform="matrix(0.7071 -0.7071 0.7071 0.7071 -59.102 -137.0944)" width="2" height="10.4"/>
	<rect x="-166.6" y="27" transform="matrix(0.7071 -0.7072 0.7072 0.7071 -71.2935 -107.6854)" width="2" height="10.4"/>
</g>
<g>
	<rect x="217.8" y="362.4" width="2" height="8"/>
	<rect x="198.9" y="381.3" width="8" height="2"/>
	<rect x="206.6" y="367.1" transform="matrix(0.7071 -0.7071 0.7071 0.7071 -201.6251 255.48)" width="2" height="8"/>
	<rect x="226.1" y="370.1" transform="matrix(0.7071 -0.7071 0.7071 0.7071 -195.0316 271.4064)" width="8" height="2"/>
	<path d="M232.9,404.4L232.9,404.4l-12.5,0l-0.6,0c-4.9,0-8.8-4-8.8-8.9c0-4.9,4-8.9,8.9-8.9c0.1,0,0.3,0,0.4,0l0.1,0l1.3,0.1
		l0.6-1.2c2.2-4.4,6.6-7.1,11.5-7.1c5.9,0,11.1,4.1,12.5,9.8h2.1c-1.4-6.7-7.4-11.8-14.6-11.8c-2.2,0-4.3,0.5-6.1,1.3
		c-1.7-3.2-5-5.4-8.9-5.4c-5.5,0-10,4.5-10,10c0,2.5,0.9,4.7,2.4,6.4c-1.4,1.8-2.3,4.1-2.3,6.7c0,6,4.8,10.8,10.8,10.9v0h13.1v0
		c2.2,0,4,1.8,4,4s-1.8,4-4,4v2c3.3,0,6-2.7,6-6C238.9,407,236.2,404.4,232.9,404.4z M218.8,374.4c3.1,0,5.8,1.8,7.1,4.3
		c-2.3,1.4-4.2,3.5-5.4,5.9c-0.2,0-0.5,0-0.7,0c-2.8,0-5.3,1-7.2,2.7c-1.1-1.4-1.8-3.1-1.8-5C210.8,378,214.4,374.4,218.8,374.4z"/>
	<path d="M236.9,400.4h-10v2h10c3.3,0,6-2.7,6-6c0-3.3-2.7-6-6-6v2c2.2,0,4,1.8,4,4S239.1,400.4,236.9,400.4z"/>
	<path d="M244.9,400.4L244.9,400.4l0,2h5.5v-0.1c2.5-0.3,4.5-2.4,4.5-4.9c0-2.8-2.2-5-5-5v2c1.7,0,3,1.3,3,3s-1.3,3-3,3
		c0,0-0.1,0-0.1,0L244.9,400.4C244.9,400.4,244.9,400.4,244.9,400.4z"/>
	<path d="M253.9,404.4h-13v2h9c0,0,0,0,0,0h3.9c0,0,0.1,0,0.1,0c1.7,0,3,1.3,3,3s-1.3,3-3,3v2c2.8,0,5-2.2,5-5
		S256.6,404.4,253.9,404.4z"/>
	<rect x="220.9" y="400.4" width="4" height="2"/>
</g>
<g>
	<path d="M332.8,402.4L332.8,402.4l-12.5,0l-0.6,0c-4.9,0-8.8-4-8.8-8.9c0-4.9,4-8.9,8.9-8.9c0.1,0,0.3,0,0.4,0l0.1,0l1.3,0.1
		l0.6-1.2c2.2-4.4,6.6-7.1,11.5-7.1c5.9,0,11.1,4.1,12.5,9.8h2.1c-1.4-6.7-7.4-11.8-14.6-11.8c-1.8,0-3.5,0.3-5.1,0.9
		c-0.9-5.1-5.4-9-10.8-9c-0.4,0-0.8,0-1.2,0.1c0.7,1.1,1.2,2.4,1.2,3.9c0,3.9-3.1,7-7,7c-1.4,0-2.8-0.4-3.9-1.2
		c0,0.4-0.1,0.8-0.1,1.2c0,3.7,1.9,7,4.7,9c-1.7,1.9-2.7,4.4-2.7,7.1c0,6,4.8,10.8,10.8,10.9v0h13.1v0c2.2,0,4,1.8,4,4s-1.8,4-4,4v2
		c3.3,0,6-2.7,6-6C338.8,405,336.1,402.4,332.8,402.4z M309,379.1c0.6,0.1,1.2,0.2,1.8,0.2c5,0,9-4,9-9c0-0.6-0.1-1.2-0.2-1.8
		c3.7,0.8,6.6,3.8,7.1,7.7c-2.7,1.4-4.9,3.7-6.3,6.4c-0.2,0-0.5,0-0.7,0c-2.5,0-4.9,0.9-6.7,2.3C311,383.6,309.5,381.6,309,379.1z"
		/>
	<path d="M336.8,398.4h-10v2h10c3.3,0,6-2.7,6-6c0-3.3-2.7-6-6-6v2c2.2,0,4,1.8,4,4S339,398.4,336.8,398.4z"/>
	<path d="M344.9,398.4L344.9,398.4l0,2h5.5v-0.1c2.5-0.3,4.5-2.4,4.5-4.9c0-2.8-2.2-5-5-5v2c1.7,0,3,1.3,3,3s-1.3,3-3,3
		c0,0-0.1,0-0.1,0L344.9,398.4C344.8,398.3,344.8,398.4,344.9,398.4z"/>
	<path d="M353.8,402.4h-13v2h9c0,0,0,0,0,0h3.9c0,0,0.1,0,0.1,0c1.7,0,3,1.3,3,3s-1.3,3-3,3v2c2.8,0,5-2.2,5-5
		S356.6,402.4,353.8,402.4z"/>
	<rect x="320.8" y="398.4" width="4" height="2"/>
</g>
<g>
	<rect x="433.7" y="364.9" width="2" height="10"/>
	<rect x="408.7" y="389.9" width="10" height="2"/>
	<rect x="444.2" y="375.2" transform="matrix(0.7071 -0.7071 0.7071 0.7071 -134.3868 427.9759)" width="10.4" height="2"/>
	<rect x="419" y="371" transform="matrix(0.7071 -0.7071 0.7071 0.7071 -143.0023 407.1856)" width="2" height="10.4"/>
	<path d="M438.7,404.9h-24v2h24c2.2,0,4,1.8,4,4s-1.8,4-4,4v2c3.3,0,6-2.7,6-6S442,404.9,438.7,404.9z"/>
	<path d="M450.7,400.9L450.7,400.9l0,2h5.5v-0.1c2.5-0.3,4.5-2.4,4.5-4.9c0-2.8-2.2-5-5-5v2c1.7,0,3,1.3,3,3s-1.3,3-3,3
		c0,0-0.1,0-0.1,0L450.7,400.9C450.7,400.9,450.7,400.9,450.7,400.9z"/>
	<path d="M459.7,404.9h-13v2h9c0,0,0,0,0,0h3.9c0,0,0.1,0,0.1,0c1.7,0,3,1.3,3,3s-1.3,3-3,3v2c2.8,0,5-2.2,5-5
		S462.5,404.9,459.7,404.9z"/>
	<path d="M426.4,400.9h-11.7v2h12h0.8h15.2c3.3,0,6-2.7,6-6c0-3.3-2.7-6-6-6v2c2.2,0,4,1.8,4,4s-1.8,4-4,4h-12.5
		c-3.8-1.7-6.5-5.6-6.5-10c0-6.1,4.9-11,11-11c5.4,0,9.9,3.9,10.8,9h2c-1-6.2-6.3-11-12.8-11c-7.2,0-13,5.8-13,13
		C421.7,394.9,423.6,398.5,426.4,400.9z"/>
</g>
<g>
	<path d="M538.9,398.4h-24v2h24c2.2,0,4,1.8,4,4s-1.8,4-4,4v2c3.3,0,6-2.7,6-6C544.9,401.1,542.3,398.4,538.9,398.4z"/>
	<path d="M556.4,396.4L556.4,396.4c2.5-0.3,4.5-2.4,4.5-5c0-2.8-2.2-5-5-5v2c1.7,0,3,1.3,3,3s-1.3,3-3,3c0,0-0.1,0-0.1,0H551
		c0,0,0,0,0,0h0v2H556.4z"/>
	<path d="M559.9,398.4h-13v2h9c0,0,0,0,0,0h3.9c0,0,0.1,0,0.1,0c1.7,0,3,1.3,3,3s-1.3,3-3,3v2c2.8,0,5-2.2,5-5
		S562.7,398.4,559.9,398.4z"/>
	<path d="M527.8,396.4h15.2c3.3,0,6-2.7,6-6c0-3.3-2.7-6-6-6v2c2.2,0,4,1.8,4,4s-1.8,4-4,4h-12.6c-2.6-1.2-4.7-3.3-5.7-6
		c0.8,0.2,1.7,0.3,2.6,0.3c6.2,0,11.2-5,11.2-11.2c0-1.3-0.2-2.5-0.6-3.7c4,1.1,7.2,4.5,7.9,8.6h2c-1-6.2-6.3-11-12.8-11
		c-0.3,0-0.5,0-0.8,0c1.4,1.6,2.3,3.7,2.3,6.1c0,5.1-4.1,9.2-9.2,9.2c-2,0-3.8-0.6-5.3-1.7c0.2,3.8,2,7.2,4.7,9.4h-11.7v2h12
		L527.8,396.4L527.8,396.4z"/>
</g>
<g>
	<path d="M-180.8,483.6h-20c-1.1,0-2-0.9-2-2s0.9-2,2-2h3.4h0.6v-2h-4c-2.2,0-4,1.8-4,4s1.8,4,4,4h20c2.2,0,4,1.8,4,4s-1.8,4-4,4v2
		c3.3,0,6-2.7,6-6S-177.5,483.6-180.8,483.6z"/>
	<path d="M-178.8,467.6v2c2.2,0,4,1.8,4,4s-1.8,4-4,4h-16v2h16c3.3,0,6-2.7,6-6C-172.8,470.2-175.5,467.6-178.8,467.6z"/>
	<path d="M-172.8,479.6v2h5.5v-0.1c2.5-0.3,4.5-2.4,4.5-4.9c0-2.8-2.2-5-5-5v2c1.7,0,3,1.3,3,3s-1.3,3-3,3c0,0-0.1,0-0.1,0
		L-172.8,479.6C-172.8,479.6-172.8,479.6-172.8,479.6L-172.8,479.6z"/>
	<path d="M-161.8,483.6h-11v2h7c0,0,0,0,0,0h3.9c0,0,0.1,0,0.1,0c1.7,0,3,1.3,3,3s-1.3,3-3,3v2c2.8,0,5-2.2,5-5
		S-159.1,483.6-161.8,483.6z"/>
</g>
<path d="M355.5,469.9L355.5,469.9l-38.4,0c-1.1,0-2-0.9-2-2s0.9-2,2-2h33c2.8,0,5-2.2,5-5s-2.2-5-5-5h-37.9v0c0,0-0.1,0-0.1,0
	c-2.8,0-5,2.2-5,5s2.2,5,5,5v-2c-1.7,0-3-1.3-3-3s1.3-3,3-3h0.1h3.9h34c1.7,0,3,1.3,3,3s-1.3,3-3,3h-33c-2.2,0-4,1.8-4,4s1.8,4,4,4
	h38c1.1,0,2,0.9,2,2s-0.9,2-2,2h-32c-2.2,0-4,1.8-4,4s1.8,4,4,4h22c1.1,0,2,0.9,2,2s-0.9,2-2,2h-24v0c-2.2,0-4,1.8-4,4s1.8,4,4,4v0
	h12c1.1,0,2,0.9,2,2s-0.9,2-2,2h-2c-2.2,0-4,1.8-4,4s1.8,4,4,4v-2c-1.1,0-2-0.9-2-2s0.9-2,2-2h2c2.2,0,4-1.8,4-4s-1.8-4-4-4h-12
	c-1.1,0-2-0.9-2-2s0.9-2,2-2h24c2.2,0,4-1.8,4-4c0-2.2-1.7-3.9-3.8-4v0h-22.2c-1.1,0-2-0.9-2-2s0.9-2,2-2h32c2.2,0,4-1.8,4-4
	C359.1,471.8,357.5,470.1,355.5,469.9z"/>
<path d="M540.9,460.6v-2h-2v2c-13,0.5-23.5,11-24,24h1.7c1.1-1.2,2.7-2,4.6-2c2.3,0,4.2,1.2,5.3,3h1.8c1.1-1.8,3.1-3,5.3-3
	c2.2,0,4.1,1.1,5.2,2.9v15.1c0,2.2,1.8,4,4,4s4-1.8,4-4h-2c0,1.1-0.9,2-2,2s-2-0.9-2-2v-15.1c1.1-1.7,3-2.9,5.2-2.9
	c2.3,0,4.2,1.2,5.3,3h1.8c1.1-1.8,3.1-3,5.3-3c1.8,0,3.4,0.8,4.6,2h1.7C564.3,471.5,553.9,461.1,540.9,460.6z M558.6,480.6
	c-2.5,0-4.7,1.1-6.2,2.9c-1.5-1.8-3.8-2.9-6.2-2.9s-4.7,1.1-6.2,2.9c-1.5-1.8-3.8-2.9-6.2-2.9s-4.7,1.1-6.2,2.9
	c-1.5-1.8-3.8-2.9-6.2-2.9c-1.4,0-2.7,0.4-3.9,1c1.9-10.8,11.3-19,22.6-19s20.7,8.2,22.6,19C561.4,480.9,560,480.6,558.6,480.6z"/>
<g>
	<path d="M135.6,584.9v-17.1c0-2.8-2.2-5-5-5s-5,2.2-5,5v17.1c-1.2,1.3-2,3-2,4.9c0,3.9,3.1,7,7,7s7-3.1,7-7
		C137.6,587.9,136.8,586.1,135.6,584.9z M130.6,594.8c-2.8,0-5-2.2-5-5c0-1.3,0.5-2.6,1.4-3.5l0.6-0.6v-0.8v-17.1c0-1.7,1.3-3,3-3
		s3,1.3,3,3v17.1v0.8l0.6,0.6c0.9,0.9,1.4,2.2,1.4,3.5C135.6,592.5,133.3,594.8,130.6,594.8z"/>
	<path d="M131.6,586.9v-15.2h-2v15.2c-1.2,0.4-2,1.5-2,2.8c0,1.7,1.3,3,3,3c1.7,0,3-1.3,3-3C133.6,588.5,132.7,587.4,131.6,586.9z
		 M130.6,590.8c-0.6,0-1-0.5-1-1s0.5-1,1-1s1,0.5,1,1S131.1,590.8,130.6,590.8z"/>
</g>
<g>
	<path d="M235.4,584.9v-17.1c0-2.8-2.2-5-5-5s-5,2.2-5,5v17.1c-1.2,1.3-2,3-2,4.9c0,3.9,3.1,7,7,7s7-3.1,7-7
		C237.4,587.9,236.6,586.1,235.4,584.9z M230.4,594.8c-2.8,0-5-2.2-5-5c0-1.3,0.5-2.6,1.4-3.5l0.6-0.6v-0.8v-17.1c0-1.7,1.3-3,3-3
		s3,1.3,3,3v17.1v0.8l0.6,0.6c0.9,0.9,1.4,2.2,1.4,3.5C235.4,592.5,233.1,594.8,230.4,594.8z"/>
	<path d="M231.4,586.9v-20.2h-2v20.2c-1.2,0.4-2,1.5-2,2.8c0,1.7,1.3,3,3,3c1.7,0,3-1.3,3-3C233.4,588.5,232.5,587.4,231.4,586.9z
		 M230.4,590.8c-0.6,0-1-0.5-1-1s0.5-1,1-1s1,0.5,1,1S230.9,590.8,230.4,590.8z"/>
</g>
<g>
	<path d="M32.5,584.9v-17.1c0-2.8-2.2-5-5-5s-5,2.2-5,5v17.1c-1.2,1.3-2,3-2,4.9c0,3.9,3.1,7,7,7s7-3.1,7-7
		C34.5,587.9,33.7,586.1,32.5,584.9z M27.5,594.8c-2.8,0-5-2.2-5-5c0-1.3,0.5-2.6,1.4-3.5l0.6-0.6v-0.8v-17.1c0-1.7,1.3-3,3-3
		s3,1.3,3,3v17.1v0.8l0.6,0.6c0.9,0.9,1.4,2.2,1.4,3.5C32.5,592.5,30.2,594.8,27.5,594.8z"/>
	<path d="M28.5,586.9v-10.2h-2v10.2c-1.2,0.4-2,1.5-2,2.8c0,1.7,1.3,3,3,3c1.7,0,3-1.3,3-3C30.5,588.5,29.6,587.4,28.5,586.9z
		 M27.5,590.8c-0.6,0-1-0.5-1-1s0.5-1,1-1s1,0.5,1,1S28,590.8,27.5,590.8z"/>
</g>
<g>
	<path d="M-71.2,584.9v-17.1c0-2.8-2.2-5-5-5s-5,2.2-5,5v17.1c-1.2,1.3-2,3-2,4.9c0,3.9,3.1,7,7,7s7-3.1,7-7
		C-69.2,587.9-69.9,586.1-71.2,584.9z M-76.2,594.8c-2.8,0-5-2.2-5-5c0-1.3,0.5-2.6,1.4-3.5l0.6-0.6v-0.8v-17.1c0-1.7,1.3-3,3-3
		s3,1.3,3,3v17.1v0.8l0.6,0.6c0.9,0.9,1.4,2.2,1.4,3.5C-71.2,592.5-73.4,594.8-76.2,594.8z"/>
	<path d="M-75.2,586.9v-5.2h-2v5.2c-1.2,0.4-2,1.5-2,2.8c0,1.7,1.3,3,3,3c1.7,0,3-1.3,3-3C-73.2,588.5-74,587.4-75.2,586.9z
		 M-76.2,590.8c-0.6,0-1-0.5-1-1s0.5-1,1-1s1,0.5,1,1S-75.6,590.8-76.2,590.8z"/>
</g>
<g>
	<path d="M-175.8,584.9v-17.1c0-2.8-2.2-5-5-5s-5,2.2-5,5v17.1c-1.2,1.3-2,3-2,4.9c0,3.9,3.1,7,7,7s7-3.1,7-7
		C-173.8,587.9-174.6,586.1-175.8,584.9z M-180.8,594.8c-2.8,0-5-2.2-5-5c0-1.3,0.5-2.6,1.4-3.5l0.6-0.6v-0.8v-17.1c0-1.7,1.3-3,3-3
		s3,1.3,3,3v17.1v0.8l0.6,0.6c0.9,0.9,1.4,2.2,1.4,3.5C-175.8,592.5-178.1,594.8-180.8,594.8z"/>
	<path d="M-180.8,586.8c-1.7,0-3,1.3-3,3c0,1.7,1.3,3,3,3c1.7,0,3-1.3,3-3C-177.8,588.1-179.2,586.8-180.8,586.8z M-180.8,590.8
		c-0.6,0-1-0.5-1-1s0.5-1,1-1s1,0.5,1,1S-180.3,590.8-180.8,590.8z"/>
</g>
<g>
	<path d="M324.1,565.1c-2.2,0-4,1.8-4,4c0,2.2,1.8,4,4,4c2.2,0,4-1.8,4-4C328.1,566.9,326.3,565.1,324.1,565.1z M324.1,571.1
		c-1.1,0-2-0.9-2-2s0.9-2,2-2s2,0.9,2,2S325.2,571.1,324.1,571.1z"/>
	<path d="M338.1,593.1c-4.4,0-8-3.6-8-8v-4c0-4.4,3.6-8,8-8c2.7,0,5.1,1.4,6.6,3.4l1.4-1.4c-1.8-2.4-4.7-4-8-4c-5.5,0-10,4.5-10,10
		v4c0,5.5,4.5,10,10,10c3.3,0,6.2-1.6,8-4l-1.4-1.4C343.2,591.7,340.8,593.1,338.1,593.1z"/>
</g>
<g>
	<path d="M428.8,565c-2.2,0-4,1.8-4,4c0,2.2,1.8,4,4,4c2.2,0,4-1.8,4-4C432.8,566.7,431,565,428.8,565z M428.8,571c-1.1,0-2-0.9-2-2
		s0.9-2,2-2s2,0.9,2,2S429.9,571,428.8,571z"/>
	<polygon points="448.7,573.1 448.7,571.1 436.7,571.1 434.7,571.1 434.7,595.1 436.7,595.1 436.7,583.1 444.7,583.1 444.7,581.1 
		436.7,581.1 436.7,573.1 	"/>
</g>
<g>
	<path d="M539.9,568.8c-7.2,0-13,5.8-13,13s5.8,13,13,13s13-5.8,13-13S547.1,568.8,539.9,568.8z M539.9,592.8c-6.1,0-11-4.9-11-11
		s4.9-11,11-11s11,4.9,11,11S545.9,592.8,539.9,592.8z"/>
	<path d="M535.6,586l6.4-2.1l2.1-6.4l-6.4,2.1L535.6,586z M539.3,581.2l1.6-0.5l-0.5,1.6l-1.6,0.5L539.3,581.2z"/>
</g>
<g>
	<path d="M-180.8,659.3c-7.2,0-13,5.8-13,13s5.8,13,13,13s13-5.8,13-13S-173.7,659.3-180.8,659.3z M-180.8,683.3
		c-6.1,0-11-4.9-11-11c0-6.1,4.9-11,11-11s11,4.9,11,11C-169.8,678.4-174.8,683.3-180.8,683.3z"/>
	<path d="M-178.3,670.7l-2.6-4.4l-2.5,4.3h0c-0.3,0.5-0.5,1-0.5,1.6c0,1.7,1.3,3,3,3s3-1.3,3-3C-177.9,671.7-178,671.2-178.3,670.7
		L-178.3,670.7z M-180.9,673.2c-0.6,0-1-0.4-1-1c0-0.2,0.1-0.4,0.2-0.5l0.9-1.4l0.8,1.4c0.1,0.2,0.1,0.3,0.1,0.5
		C-179.9,672.8-180.3,673.2-180.9,673.2z"/>
</g>
<g>
	<path d="M-76.1,659.3c-7.2,0-13,5.8-13,13s5.8,13,13,13s13-5.8,13-13S-68.9,659.3-76.1,659.3z M-76.1,683.3c-6.1,0-11-4.9-11-11
		c0-6.1,4.9-11,11-11s11,4.9,11,11C-65.1,678.4-70,683.3-76.1,683.3z"/>
	<path d="M-74.5,669.7c-0.5-0.3-1-0.5-1.6-0.5c-1.7,0-3,1.3-3,3c0,1.7,1.3,3,3,3c0.6,0,1.1-0.2,1.5-0.4v0l4.4-2.6L-74.5,669.7
		L-74.5,669.7L-74.5,669.7z M-75.6,673.1c-0.2,0.1-0.3,0.1-0.5,0.1c-0.6,0-1-0.4-1-1c0-0.6,0.4-1,1-1c0.2,0,0.4,0.1,0.5,0.2l1.4,0.9
		L-75.6,673.1z"/>
</g>
<g>
	<path d="M27,659.3c-7.2,0-13,5.8-13,13s5.8,13,13,13s13-5.8,13-13S34.2,659.3,27,659.3z M27,683.3c-6.1,0-11-4.9-11-11
		c0-6.1,4.9-11,11-11s11,4.9,11,11C38,678.4,33.1,683.3,27,683.3z"/>
	<path d="M27,669.2c-1.7,0-3,1.3-3,3c0,0.6,0.2,1.1,0.4,1.5h0l2.6,4.4l2.5-4.3h0c0.3-0.5,0.5-1,0.5-1.6
		C30,670.6,28.7,669.2,27,669.2z M27.8,672.8l-0.9,1.4l-0.8-1.4c-0.1-0.2-0.1-0.3-0.1-0.5c0-0.6,0.4-1,1-1s1,0.4,1,1
		C28,672.4,27.9,672.6,27.8,672.8z"/>
</g>
<g>
	<path d="M130.4,659.3c-7.2,0-13,5.8-13,13s5.8,13,13,13s13-5.8,13-13S137.6,659.3,130.4,659.3z M130.4,683.3c-6.1,0-11-4.9-11-11
		c0-6.1,4.9-11,11-11s11,4.9,11,11C141.4,678.4,136.5,683.3,130.4,683.3z"/>
	<path d="M130.4,669.2c-0.6,0-1.1,0.2-1.5,0.4v0l-4.4,2.6l4.3,2.5v0c0.5,0.3,1,0.5,1.6,0.5c1.7,0,3-1.3,3-3
		C133.4,670.6,132,669.2,130.4,669.2z M130.4,673.2c-0.2,0-0.4-0.1-0.5-0.2l-1.4-0.9l1.4-0.8c0.2-0.1,0.3-0.1,0.5-0.1
		c0.6,0,1,0.4,1,1C131.4,672.8,130.9,673.2,130.4,673.2z"/>
</g>
<g>
	<rect x="-77.7" y="462.6" width="2" height="10"/>
	<rect x="-67.2" y="472.8" transform="matrix(0.7071 -0.7071 0.7071 0.7071 -353.2297 94.922)" width="10.4" height="2"/>
	<rect x="-92.4" y="468.6" transform="matrix(0.7071 -0.7071 0.7071 0.7071 -361.8452 74.1317)" width="2" height="10.4"/>
	<polygon points="-83.4,491.8 -82,493.2 -77.7,489 -77.7,498.6 -75.7,498.6 -75.7,489 -71.5,493.2 -70.1,491.8 -76.7,485.1 	"/>
	<path d="M-63.7,488.6C-63.7,488.6-63.7,488.6-63.7,488.6c0-7.2-5.8-13-13-13s-13,5.8-13,13c0,0,0,0,0,0h-13v2h18v-2h-3c0,0,0,0,0,0
		c0-6.1,4.9-11,11-11s11,4.9,11,11c0,0,0,0,0,0h-3v2h18v-2H-63.7z"/>
</g>
<g>
	<rect x="26" y="461.4" width="2" height="10"/>
	<rect x="36.5" y="471.7" transform="matrix(0.7071 -0.7071 0.7071 0.7071 -322.0031 167.9325)" width="10.4" height="2"/>
	<rect x="11.3" y="467.5" transform="matrix(0.7071 -0.7071 0.7071 0.7071 -330.6193 147.1418)" width="2" height="10.4"/>
	<polygon points="28,495.9 28,485.4 26,485.4 26,495.9 21.8,491.7 20.3,493.1 27,499.7 33.7,493.1 32.3,491.7 	"/>
	<path d="M40,487.4C40,487.4,40,487.4,40,487.4c0-7.2-5.8-13-13-13s-13,5.8-13,13c0,0,0,0,0,0H1v2h22v-2h-7c0,0,0,0,0,0
		c0-6.1,4.9-11,11-11s11,4.9,11,11c0,0,0,0,0,0h-7v2h22v-2H40z"/>
</g>
<g>
	<polygon points="230.4,495.4 230.4,481 228.4,481 228.4,495.4 224.1,491.1 222.7,492.5 229.4,499.2 236,492.5 234.6,491.1 	"/>
	<path d="M246,476c-1.6-7.4-8.2-13-16.1-13c-6.4,0-12,3.7-14.7,9c-0.3,0-0.5,0-0.8,0c-6.6,0-12,5.4-12,12c0,6.6,5.3,12,11.9,12v0
		h6.1v-2h-5.6l-0.4,0c-5.5,0-9.9-4.5-9.9-10c0-5.5,4.5-10,10-10c0.2,0,0.3,0,0.5,0l0.1,0l1.3,0.1l0.6-1.2c2.5-4.9,7.4-7.9,12.9-7.9
		c6.8,0,12.8,4.8,14.2,11.4l0.3,1.5l1.5,0.1c4.2,0.3,7.5,3.8,7.5,8c0,4.4-3.6,8-8,8c-0.1,0-0.1,0-0.1,0l-2,0h-4.9v2h6.9v0
		c0,0,0.1,0,0.1,0c5.5,0,10-4.5,10-10C255.4,480.7,251.2,476.4,246,476z"/>
</g>
<g>
	<polygon points="136.4,492.2 137.8,490.8 131.1,484.1 124.4,490.8 125.8,492.2 130.1,487.9 130.1,500.5 132.1,500.5 132.1,487.9 	
		"/>
	<path d="M147.7,477.6c-1.6-7.4-8.2-13-16.1-13c-6.4,0-12,3.7-14.7,9c-0.3,0-0.5,0-0.8,0c-6.6,0-12,5.4-12,12c0,6.6,5.3,12,11.9,12
		v0h10.1v-2h-9.6l-0.4,0c-5.5,0-9.9-4.5-9.9-10c0-5.5,4.5-10,10-10c0.2,0,0.3,0,0.5,0l0.1,0l1.3,0.1l0.6-1.2
		c2.5-4.9,7.4-7.9,12.9-7.9c6.8,0,12.8,4.8,14.2,11.4l0.3,1.5l1.5,0.1c4.2,0.3,7.5,3.8,7.5,8c0,4.4-3.6,8-8,8c-0.1,0-0.1,0-0.1,0
		l-2,0h-8.9v2H147v0c0,0,0.1,0,0.1,0c5.5,0,10-4.5,10-10C157.1,482.3,153,478,147.7,477.6z"/>
</g>
<g>
	<path d="M350.2,288.1c-1.6-7.4-8.2-13-16.1-13c-6.4,0-12,3.7-14.7,9c-0.3,0-0.5,0-0.8,0c-6.6,0-12,5.4-12,12c0,6.6,5.3,12,11.9,12
		v0h2.1v-2H319l-0.4,0c-5.5,0-9.9-4.5-9.9-10c0-5.5,4.5-10,10-10c0.2,0,0.3,0,0.5,0l0.1,0l1.3,0.1l0.6-1.2c2.5-4.9,7.4-7.9,12.9-7.9
		c6.8,0,12.8,4.8,14.2,11.4l0.3,1.5l1.5,0.1c4.2,0.3,7.5,3.8,7.5,8c0,4.4-3.6,8-8,8c0,0-0.1,0-0.1,0l-2,0h-0.9v2h2.9v0
		c0,0,0.1,0,0.1,0c5.5,0,10-4.5,10-10C359.6,292.8,355.4,288.4,350.2,288.1z"/>
	<polygon points="328.6,307.1 328.6,304.5 330.8,305.7 331.4,304.5 329,303.1 331.4,301.7 330.8,300.5 328.6,301.7 328.6,299.1 
		326.6,299.1 326.6,301.7 324.3,300.5 323.6,301.7 326.1,303.1 323.6,304.5 324.3,305.7 326.6,304.4 326.6,307.1 	"/>
	<polygon points="333.7,311.5 331.6,312.7 331.6,310.1 329.6,310.1 329.6,312.7 327.3,311.5 326.6,312.7 329.1,314.1 326.6,315.5 
		327.3,316.7 329.6,315.4 329.6,318.1 331.6,318.1 331.6,315.5 333.7,316.7 334.4,315.5 332,314.1 334.4,312.7 	"/>
	<polygon points="342.8,304.5 340.6,305.7 340.6,303.1 338.6,303.1 338.6,305.7 336.3,304.5 335.7,305.7 338.1,307.1 335.7,308.5 
		336.3,309.7 338.6,308.4 338.6,311.1 340.6,311.1 340.6,308.5 342.8,309.7 343.4,308.5 341,307.1 343.4,305.7 	"/>
</g>
<g>
	<rect x="425.7" y="270.1" width="2" height="8"/>
	<rect x="406.7" y="289" width="8" height="2"/>
	<rect x="414.4" y="274.7" transform="matrix(0.7071 -0.7071 0.7071 0.7071 -75.4083 375.3513)" width="2" height="8"/>
	<rect x="433.9" y="277.7" transform="matrix(0.7071 -0.7071 0.7071 0.7071 -68.8145 391.2771)" width="8" height="2"/>
	<path d="M456.2,295.8c-1.4-6.7-7.4-11.8-14.6-11.8c-2.2,0-4.3,0.5-6.1,1.3c-1.7-3.2-5-5.4-8.9-5.4c-5.5,0-10,4.5-10,10
		c0,2.5,0.9,4.7,2.4,6.4c-1.4,1.8-2.3,4.1-2.3,6.7c0,6,4.8,10.8,10.8,10.9v0h1.2v-2H428l-0.5,0c-4.9,0-8.8-4-8.8-8.9
		c0-4.9,4-8.9,8.9-8.9c0.1,0,0.3,0,0.4,0l0.1,0l1.3,0.1l0.6-1.2c2.2-4.4,6.6-7.1,11.5-7.1c6.1,0,11.4,4.3,12.6,10.2l0.3,1.5l1.5,0.1
		c3.7,0.2,6.6,3.3,6.6,7c0,3.9-3.1,7-7,7.1c0,0-0.1,0-0.1,0l-1.9,0v2h1.8v0c0,0,0.1,0,0.1,0c5,0,9.1-4.1,9.1-9.1
		C464.7,300.1,461,296.1,456.2,295.8z M428.3,292.2c-0.2,0-0.5,0-0.7,0c-2.8,0-5.3,1-7.2,2.7c-1.1-1.4-1.8-3.1-1.8-5
		c0-4.4,3.6-8,8-8c3.1,0,5.8,1.8,7.1,4.3C431.4,287.8,429.6,289.8,428.3,292.2z"/>
	<polygon points="435.7,313 435.7,310.3 437.9,311.5 438.6,310.3 436.1,308.9 438.6,307.5 437.9,306.3 435.7,307.5 435.7,305 
		433.7,305 433.7,307.6 431.5,306.3 430.8,307.5 433.3,308.9 430.8,310.3 431.5,311.5 433.7,310.3 433.7,313 	"/>
	<polygon points="440.9,317.3 438.7,318.5 438.7,315.9 436.7,315.9 436.7,318.6 434.5,317.3 433.8,318.5 436.2,319.9 433.8,321.3 
		434.5,322.5 436.7,321.3 436.7,323.9 438.7,323.9 438.7,321.3 440.9,322.5 441.6,321.3 439.1,319.9 441.6,318.5 	"/>
	<polygon points="449.9,310.3 447.7,311.5 447.7,309 445.7,309 445.7,311.6 443.5,310.3 442.8,311.5 445.3,312.9 442.8,314.3 
		443.5,315.5 445.7,314.3 445.7,317 447.7,317 447.7,314.3 449.9,315.5 450.6,314.3 448.1,312.9 450.6,311.5 	"/>
</g>
<g>
	<path d="M556.4,292.8c-1.4-6.7-7.4-11.8-14.6-11.8c-1.8,0-3.5,0.3-5.1,0.9c-0.9-5.1-5.4-9-10.8-9c-0.4,0-0.8,0-1.2,0.1
		c0.7,1.1,1.2,2.4,1.2,3.9c0,3.9-3.1,7-7,7c-1.4,0-2.8-0.4-3.9-1.2c0,0.4-0.1,0.8-0.1,1.2c0,3.7,1.8,7,4.7,9
		c-1.7,1.9-2.7,4.4-2.7,7.1c0,6,4.8,10.8,10.8,10.9v0h1.2v-2h-0.7l-0.5,0c-4.9,0-8.8-4-8.8-8.9c0-4.9,4-8.9,8.9-8.9
		c0.2,0,0.3,0,0.4,0l0.1,0l1.3,0.1l0.6-1.2c2.2-4.4,6.6-7.1,11.5-7.1c6.1,0,11.4,4.3,12.6,10.2l0.3,1.5l1.5,0.1
		c3.7,0.2,6.6,3.3,6.6,7c0,3.9-3.1,7-7,7.1c0,0-0.1,0-0.1,0l-1.9,0v2h1.8v0c0,0,0.1,0,0.1,0c5,0,9.1-4.1,9.1-9.1
		C564.9,297.1,561.2,293.1,556.4,292.8z M528.5,289.2c-0.2,0-0.5,0-0.7,0c-2.5,0-4.9,0.9-6.7,2.3c-2-1.3-3.5-3.4-4-5.8
		c0.6,0.1,1.2,0.2,1.8,0.2c5,0,9-4,9-9c0-0.6-0.1-1.2-0.2-1.8c3.7,0.8,6.6,3.8,7.1,7.6C532.1,284.2,529.9,286.5,528.5,289.2z"/>
	<polygon points="536,309.9 536,307.3 538.1,308.5 538.8,307.3 536.3,305.9 538.8,304.5 538.1,303.3 536,304.5 536,301.9 534,301.9 
		534,304.6 531.7,303.3 531,304.5 533.5,305.9 531,307.3 531.7,308.5 534,307.3 534,309.9 	"/>
	<polygon points="541.1,314.3 538.9,315.5 538.9,312.9 536.9,312.9 536.9,315.6 534.7,314.3 534,315.5 536.5,316.9 534,318.3 
		534.7,319.5 536.9,318.3 536.9,320.9 538.9,320.9 538.9,318.3 541.1,319.5 541.8,318.3 539.3,316.9 541.8,315.5 	"/>
	<polygon points="550.1,307.3 548,308.5 548,305.9 546,305.9 546,308.6 543.7,307.3 543,308.5 545.5,309.9 543,311.3 543.7,312.5 
		546,311.3 546,313.9 548,313.9 548,311.3 550.1,312.5 550.8,311.3 548.3,309.9 550.8,308.5 	"/>
</g>
<rect x="-59.9" y="-274.9" class="st1" width="473" height="180.9"/>
<text transform="matrix(1 0 0 1 119.7046 -203.5054)" style="font-family:'Helvetica'; font-size:100px; letter-spacing:2;">60</text>
<text transform="matrix(1 0 0 1 20.4366 -143.5054)" style="font-family:'Helvetica'; font-size:48px;">Weather Icons</text>
<text transform="matrix(1 0 0 1 115.9786 -99.5054)" style="font-family:'Helvetica'; font-size:24px;">IOS 7 Style</text>
</svg>
