<?xml version="1.0" encoding="utf-8"?>
<!-- Generator: Adobe Illustrator 25.0.1, SVG Export Plug-In . SVG Version: 6.00 Build 0)  -->
<svg version="1.1" id="Layer_1" xmlns="http://www.w3.org/2000/svg" xmlns:xlink="http://www.w3.org/1999/xlink" x="0px" y="0px"
	 viewBox="0 0 50 39" style="enable-background:new 0 0 50 39;" xml:space="preserve">
<style type="text/css">
	.st0{fill:#FFFFFF;}
	.st1{fill:none;}
</style>
<path d="M-74.4,92.9l-1.8,15.1l-0.3,2.2h2.3h6.9L-82,129l1.8-14.5l0.3-2.2h-2.3h-7L-74.4,92.9 M-71.6,85.9l-21.7,28.3h11l-2.7,21.7
	l21.7-27.7h-11L-71.6,85.9L-71.6,85.9z"/>
<path d="M-487.4-369.4c6.8,0,12.7,4.8,14.2,11.4l0.3,1.5l1.5,0.1c4.2,0.3,7.5,3.8,7.5,8c0,4.4-3.6,8-8,8c0,0-0.1,0-0.1,0l-2,0v0
	h-28.3l-0.6,0c-5.5,0-9.9-4.5-9.9-10c0-5.5,4.5-10,10-10c0.2,0,0.3,0,0.5,0l0.1,0l1.3,0.1l0.6-1.2
	C-497.9-366.3-492.9-369.4-487.4-369.4 M-487.4-371.4c-6.4,0-12,3.7-14.7,9c-0.3,0-0.5,0-0.8,0c-6.6,0-12,5.4-12,12
	c0,6.6,5.3,12,11.9,12v0h30.9v0c0,0,0.1,0,0.1,0c5.5,0,10-4.5,10-10c0-5.3-4.1-9.6-9.4-10C-472.9-365.8-479.5-371.4-487.4-371.4
	L-487.4-371.4z"/>
<g>
	<path d="M-364.5-350.9c-1.4-6.7-7.4-11.8-14.6-11.8c-2.2,0-4.3,0.5-6.1,1.3c-1.7-3.2-5-5.4-8.9-5.4c-5.5,0-10,4.5-10,10
		c0,2.5,0.9,4.7,2.4,6.4c-1.4,1.8-2.3,4.1-2.3,6.7c0,6,4.8,10.8,10.8,10.9v0h28v0c0,0,0.1,0,0.1,0c5,0,9.1-4.1,9.1-9.1
		C-356-346.7-359.8-350.6-364.5-350.9z M-394.1-364.8c3.1,0,5.8,1.8,7.1,4.3c-2.3,1.4-4.2,3.5-5.4,5.9c-0.2,0-0.5,0-0.7,0
		c-2.8,0-5.3,1-7.2,2.7c-1.1-1.4-1.8-3.1-1.8-5C-402.1-361.2-398.5-364.8-394.1-364.8z M-365-334.9c0,0-0.1,0-0.1,0l-2,0v0h-25.4
		l-0.6,0c-4.9,0-8.8-4-8.8-8.9c0-4.9,4-8.9,8.9-8.9c0.1,0,0.3,0,0.4,0l0.1,0l1.3,0.1l0.6-1.2c2.2-4.4,6.6-7.1,11.5-7.1
		c6.1,0,11.4,4.3,12.6,10.2l0.3,1.5l1.5,0.1c3.7,0.2,6.6,3.3,6.6,7C-358-338-361.1-334.9-365-334.9z"/>
	<rect x="-395.1" y="-376.8" width="2" height="8"/>
	<rect x="-414.1" y="-357.9" width="8" height="2"/>
	<rect x="-406.3" y="-372.1" transform="matrix(0.7071 -0.7071 0.7071 0.7071 141.5461 -394.4297)" width="2" height="8"/>
	<rect x="-386.8" y="-369.1" transform="matrix(0.7071 -0.7071 0.7071 0.7071 148.1395 -378.5033)" width="8" height="2"/>
</g>
<path d="M-268.8-355c-1.4-6.7-7.4-11.8-14.6-11.8c-1.8,0-3.5,0.3-5.1,0.9c-0.9-5.1-5.4-9-10.8-9c-0.4,0-0.8,0-1.2,0.1
	c0.7,1.1,1.2,2.4,1.2,3.9c0,3.9-3.1,7-7,7c-1.4,0-2.8-0.4-3.9-1.2c0,0.4-0.1,0.8-0.1,1.2c0,3.7,1.8,7,4.7,9
	c-1.7,1.9-2.7,4.4-2.7,7.1c0,6,4.8,10.8,10.8,10.9v0h28v0c0,0,0.1,0,0.1,0c5,0,9.1-4.1,9.1-9.1C-260.3-350.7-264-354.7-268.8-355z
	 M-308.1-362.1c0.6,0.1,1.2,0.2,1.8,0.2c5,0,9-4,9-9c0-0.6-0.1-1.2-0.2-1.8c3.7,0.8,6.6,3.8,7.1,7.6c-2.7,1.4-4.9,3.7-6.3,6.4
	c-0.2,0-0.5,0-0.7,0c-2.5,0-4.9,0.9-6.7,2.3C-306.1-357.6-307.6-359.6-308.1-362.1z M-269.3-338.9c0,0-0.1,0-0.1,0l-2,0v0h-25.4
	l-0.6,0c-4.9,0-8.8-4-8.8-8.9c0-4.9,4-8.9,8.9-8.9c0.1,0,0.3,0,0.4,0l0.1,0l1.3,0.1l0.6-1.2c2.2-4.4,6.6-7.1,11.5-7.1
	c6.1,0,11.4,4.3,12.6,10.2l0.3,1.5l1.5,0.1c3.7,0.2,6.6,3.3,6.6,7C-262.3-342.1-265.4-338.9-269.3-338.9z"/>
<g>
	<rect x="-184.1" y="-346.3" width="2" height="7"/>
	<rect x="-176.1" y="-350.3" width="2" height="7"/>
	<rect x="-192.1" y="-350.3" width="2" height="7"/>
	<rect x="-184.1" y="-336.3" width="2" height="7"/>
	<rect x="-176.1" y="-340.3" width="2" height="7"/>
	<rect x="-192.1" y="-340.3" width="2" height="7"/>
	<path d="M-165.5-363.3c-1.6-7.4-8.2-13-16.1-13c-6.4,0-12,3.7-14.7,9c-0.3,0-0.5,0-0.8,0c-6.6,0-12,5.4-12,12c0,6.6,5.3,12,11.9,12
		v0h2.1v-2h-1.6l-0.4,0c-5.5,0-9.9-4.5-9.9-10c0-5.5,4.5-10,10-10c0.2,0,0.3,0,0.5,0l0.1,0l1.3,0.1l0.6-1.2
		c2.5-4.9,7.4-7.9,12.9-7.9c6.8,0,12.8,4.8,14.2,11.4l0.3,1.5l1.5,0.1c4.2,0.3,7.5,3.8,7.5,8c0,4.4-3.6,8-8,8c-0.1,0-0.1,0-0.1,0
		l-2,0h-2.9v2h4.9v0c0,0,0.1,0,0.1,0c5.5,0,10-4.5,10-10C-156.1-358.7-160.2-363-165.5-363.3z"/>
</g>
<g>
	<path d="M-367.9-274c-1.6-7.4-8.2-13-16.1-13c-6.4,0-12,3.7-14.7,9c-0.3,0-0.5,0-0.8,0c-6.6,0-12,5.4-12,12c0,6.6,5.3,12,11.9,12v0
		h2.1v-2h-1.6l-0.4,0c-5.5,0-9.9-4.5-9.9-10c0-5.5,4.5-10,10-10c0.2,0,0.3,0,0.5,0l0.1,0l1.3,0.1l0.6-1.2c2.5-4.9,7.4-7.9,12.9-7.9
		c6.8,0,12.8,4.8,14.2,11.4l0.3,1.5l1.5,0.1c4.2,0.3,7.5,3.8,7.5,8c0,4.4-3.6,8-8,8c0,0-0.1,0-0.1,0l-2,0h-2.9v2h4.9v0
		c0,0,0.1,0,0.1,0c5.5,0,10-4.5,10-10C-358.5-269.3-362.7-273.6-367.9-274z"/>
	<polygon points="-386.5,-247 -386.5,-245 -386.5,-239 -384.5,-239 -384.5,-245 -384.5,-247 -384.5,-259 -386.5,-259 	"/>
	<polygon points="-378.5,-251 -378.5,-249.2 -378.5,-243 -376.5,-243 -376.5,-249.2 -376.5,-251 -376.5,-263 -378.5,-263 	"/>
	<polygon points="-394.5,-251 -394.5,-248.9 -394.5,-243 -392.5,-243 -392.5,-248.9 -392.5,-251 -392.5,-263 -394.5,-263 	"/>
</g>
<g>
	<polygon points="-72.3,-250.1 -79.1,-259.9 -80.8,-258.8 -73.9,-248.9 -72.8,-247.3 -69.3,-242.4 -67.7,-243.5 -71.1,-248.5 	"/>
	<polygon points="-64.3,-250.1 -71.1,-259.9 -72.8,-258.7 -65.9,-248.9 -64.9,-247.5 -61.3,-242.4 -59.7,-243.5 -63.2,-248.6 	"/>
	<polygon points="-80.3,-250.1 -87.1,-259.9 -88.8,-258.7 -81.9,-248.9 -80.7,-247.2 -77.3,-242.4 -75.7,-243.5 -79.1,-248.4 	"/>
	<path d="M-61.1-273.7c-1.6-7.4-8.2-13-16.1-13c-6.4,0-12,3.7-14.7,9c-0.3,0-0.5,0-0.8,0c-6.6,0-12,5.4-12,12c0,6.6,5.3,12,11.9,12
		v0h2.1v-2h-1.6l-0.4,0c-5.5,0-9.9-4.5-9.9-10c0-5.5,4.5-10,10-10c0.2,0,0.3,0,0.5,0l0.1,0l1.3,0.1l0.6-1.2
		c2.5-4.9,7.4-7.9,12.9-7.9c6.8,0,12.8,4.8,14.2,11.4l0.3,1.5l1.5,0.1c4.2,0.3,7.5,3.8,7.5,8c0,4.4-3.6,8-8,8c0,0-0.1,0-0.1,0l-1,0
		h0.1v2h0.9v0c0,0,0.1,0,0.1,0c5.5,0,10-4.5,10-10C-51.8-269.1-55.9-273.4-61.1-273.7z"/>
</g>
<g>
	<rect x="-89.4" y="-382.8" width="2" height="8"/>
	<rect x="-108.4" y="-363.9" width="8" height="2"/>
	<rect x="-100.8" y="-378.1" transform="matrix(0.7071 -0.7071 0.7071 0.7071 235.3272 -180.1456)" width="2" height="8"/>
	<rect x="-81.3" y="-375.1" transform="matrix(0.7071 -0.7071 0.7071 0.7071 241.9207 -164.2192)" width="8" height="2"/>
	<rect x="-75.4" y="-341.9" width="2" height="7"/>
	<rect x="-67.4" y="-345.9" width="2" height="7"/>
	<rect x="-83.4" y="-345.9" width="2" height="7"/>
	<rect x="-75.4" y="-331.9" width="2" height="7"/>
	<rect x="-67.4" y="-335.9" width="2" height="7"/>
	<rect x="-83.4" y="-335.9" width="2" height="7"/>
	<path d="M-58.9-357c-1.4-6.7-7.4-11.8-14.6-11.8c-2.2,0-4.3,0.5-6.1,1.3c-1.7-3.2-5-5.4-8.9-5.4c-5.5,0-10,4.5-10,10
		c0,2.5,0.9,4.7,2.4,6.4c-1.4,1.8-2.3,4.1-2.3,6.7c0,6,4.8,10.8,10.8,10.9v0h1.2v-2h-0.7l-0.5,0c-4.9,0-8.8-4-8.8-8.9
		c0-4.9,4-8.9,8.9-8.9c0.2,0,0.3,0,0.4,0l0.1,0l1.3,0.1l0.6-1.2c2.2-4.4,6.6-7.1,11.5-7.1c6.1,0,11.4,4.3,12.6,10.2l0.3,1.5l1.5,0.1
		c3.7,0.2,6.6,3.3,6.6,7c0,3.9-3.1,7-7,7.1c0,0-0.1,0-0.1,0l-2,0h-0.8v2h2.8v0c0,0,0.1,0,0.1,0c5,0,9.1-4.1,9.1-9.1
		C-50.4-352.8-54.2-356.7-58.9-357z M-86.9-360.6c-0.2,0-0.5,0-0.7,0c-2.8,0-5.3,1-7.2,2.7c-1.1-1.4-1.8-3.1-1.8-5c0-4.4,3.6-8,8-8
		c3.1,0,5.8,1.8,7.1,4.3C-83.7-365.1-85.6-363-86.9-360.6z"/>
</g>
<g>
	<rect x="25" y="-343.4" width="2" height="7"/>
	<rect x="33" y="-347.4" width="2" height="7"/>
	<rect x="17" y="-347.4" width="2" height="7"/>
	<rect x="25" y="-333.4" width="2" height="7"/>
	<rect x="33" y="-337.4" width="2" height="7"/>
	<rect x="17" y="-337.4" width="2" height="7"/>
	<path d="M41.5-358.4c-1.4-6.7-7.4-11.8-14.6-11.8c-1.8,0-3.5,0.3-5.1,0.9c-0.9-5.1-5.4-9-10.8-9c-0.4,0-0.8,0-1.2,0.1
		c0.7,1.1,1.2,2.4,1.2,3.9c0,3.9-3.1,7-7,7c-1.4,0-2.8-0.4-3.9-1.2c0,0.4-0.1,0.8-0.1,1.2c0,3.7,1.8,7,4.7,9C3-356.4,2-354,2-351.2
		c0,6,4.8,10.8,10.8,10.9v0H14v-2h-0.7l-0.5,0c-4.9,0-8.8-4-8.8-8.9c0-4.9,4-8.9,8.9-8.9c0.1,0,0.3,0,0.4,0l0.1,0l1.3,0.1l0.6-1.2
		c2.2-4.4,6.6-7.1,11.5-7.1c6.1,0,11.4,4.3,12.6,10.2l0.3,1.5l1.5,0.1c3.7,0.2,6.6,3.3,6.6,7c0,3.9-3.1,7-7,7.1c0,0-0.1,0-0.1,0
		l-2,0H38v2h2.8v0c0,0,0.1,0,0.1,0c5,0,9.1-4.1,9.1-9.1C50-354.2,46.2-358.2,41.5-358.4z M13.6-362.1c-0.2,0-0.5,0-0.7,0
		c-2.5,0-4.9,0.9-6.7,2.3c-2-1.3-3.5-3.4-4-5.8c0.6,0.1,1.2,0.2,1.8,0.2c5,0,9-4,9-9c0-0.6-0.1-1.2-0.2-1.8c3.7,0.8,6.6,3.8,7.1,7.6
		C17.2-367.1,15-364.8,13.6-362.1z"/>
</g>
<g>
	<polygon points="-282.3,-242.5 -282.3,-240.6 -282.3,-234.5 -280.3,-234.5 -280.3,-240.6 -280.3,-242.5 -280.3,-254.5 
		-282.3,-254.5 	"/>
	<polygon points="-274.3,-246.5 -274.3,-244.8 -274.3,-238.5 -272.3,-238.5 -272.3,-244.8 -272.3,-246.5 -272.3,-258.5 
		-274.3,-258.5 	"/>
	<polygon points="-290.3,-246.5 -290.3,-244.5 -290.3,-238.5 -288.3,-238.5 -288.3,-244.5 -288.3,-246.5 -288.3,-258.5 
		-290.3,-258.5 	"/>
	<rect x="-296.3" y="-293.4" width="2" height="8"/>
	<rect x="-315.3" y="-274.5" width="8" height="2"/>
	<rect x="-307.6" y="-288.8" transform="matrix(0.7071 -0.7071 0.7071 0.7071 111.576 -300.2142)" width="2" height="8"/>
	<rect x="-288.1" y="-285.8" transform="matrix(0.7071 -0.7071 0.7071 0.7071 118.1695 -284.2878)" width="8" height="2"/>
	<path d="M-265.8-267.7c-1.4-6.7-7.4-11.8-14.6-11.8c-2.2,0-4.3,0.5-6.1,1.3c-1.7-3.2-5-5.4-8.9-5.4c-5.5,0-10,4.5-10,10
		c0,2.5,0.9,4.7,2.4,6.4c-1.4,1.8-2.3,4.1-2.3,6.7c0,6,4.8,10.8,10.8,10.9v0h1.2v-2h-0.7l-0.5,0c-4.9,0-8.8-4-8.8-8.9
		c0-4.9,4-8.9,8.9-8.9c0.1,0,0.3,0,0.4,0l0.1,0l1.3,0.1l0.6-1.2c2.2-4.4,6.6-7.1,11.5-7.1c6.1,0,11.4,4.3,12.6,10.2l0.3,1.5l1.5,0.1
		c3.7,0.2,6.6,3.3,6.6,7c0,3.9-3.1,7-7,7.1c0,0-0.1,0-0.1,0l-2,0h-0.8v2h2.8v0c0,0,0.1,0,0.1,0c5,0,9.1-4.1,9.1-9.1
		C-257.3-263.4-261-267.4-265.8-267.7z M-293.7-271.3c-0.2,0-0.5,0-0.7,0c-2.8,0-5.3,1-7.2,2.7c-1.1-1.4-1.8-3.1-1.8-5
		c0-4.4,3.6-8,8-8c3.1,0,5.8,1.8,7.1,4.3C-290.6-275.7-292.4-273.7-293.7-271.3z"/>
</g>
<g>
	<polygon points="-181.9,-245.1 -181.9,-243.1 -181.9,-237.1 -179.9,-237.1 -179.9,-243.1 -179.9,-245.1 -179.9,-257.1 
		-181.9,-257.1 	"/>
	<polygon points="-173.9,-249.1 -173.9,-247.3 -173.9,-241.1 -171.9,-241.1 -171.9,-247.3 -171.9,-249.1 -171.9,-261.1 
		-173.9,-261.1 	"/>
	<polygon points="-189.9,-249.1 -189.9,-247 -189.9,-241.1 -187.9,-241.1 -187.9,-247 -187.9,-249.1 -187.9,-261.1 -189.9,-261.1 	
		"/>
	<path d="M-165.4-270.2c-1.4-6.7-7.4-11.8-14.6-11.8c-1.8,0-3.5,0.3-5.1,0.9c-0.9-5.1-5.4-9-10.8-9c-0.4,0-0.8,0-1.2,0.1
		c0.7,1.1,1.2,2.4,1.2,3.9c0,3.9-3.1,7-7,7c-1.4,0-2.8-0.4-3.9-1.2c0,0.4-0.1,0.8-0.1,1.2c0,3.7,1.8,7,4.7,9
		c-1.7,1.9-2.7,4.4-2.7,7.1c0,6,4.8,10.8,10.8,10.9v0h1.2v-2h-0.7l-0.5,0c-4.9,0-8.8-4-8.8-8.9c0-4.9,4-8.9,8.9-8.9
		c0.1,0,0.3,0,0.4,0l0.1,0l1.3,0.1l0.6-1.2c2.2-4.4,6.6-7.1,11.5-7.1c6.1,0,11.4,4.3,12.6,10.2l0.3,1.5l1.5,0.1
		c3.7,0.2,6.6,3.3,6.6,7c0,3.9-3.1,7-7,7.1c0,0-0.1,0-0.1,0l-2,0h-0.8v2h2.8v0c0,0,0.1,0,0.1,0c5,0,9.1-4.1,9.1-9.1
		C-156.9-266-160.6-269.9-165.4-270.2z M-193.3-273.8c-0.2,0-0.5,0-0.7,0c-2.5,0-4.9,0.9-6.7,2.3c-2-1.3-3.5-3.4-4-5.8
		c0.6,0.1,1.2,0.2,1.8,0.2c5,0,9-4,9-9c0-0.6-0.1-1.2-0.2-1.8c3.7,0.8,6.6,3.8,7.1,7.6C-189.7-278.8-191.9-276.5-193.3-273.8z"/>
</g>
<g>
	<polygon points="35.2,-244.1 28.3,-253.9 26.6,-252.8 33.5,-243 34.6,-241.4 38.1,-236.4 39.8,-237.6 36.3,-242.5 	"/>
	<polygon points="43.2,-244.1 36.3,-253.9 34.6,-252.8 41.5,-243 42.5,-241.5 46.1,-236.4 47.8,-237.6 44.2,-242.7 	"/>
	<polygon points="27.2,-244.1 20.3,-253.9 18.6,-252.8 25.5,-243 26.7,-241.3 30.1,-236.4 31.8,-237.6 28.4,-242.4 	"/>
	<rect x="14.6" y="-291.7" width="2" height="8"/>
	<rect x="-4.4" y="-272.7" width="8" height="2"/>
	<rect x="3.3" y="-287" transform="matrix(0.7071 -0.7071 0.7071 0.7071 201.3816 -79.8466)" width="2" height="8"/>
	<rect x="22.8" y="-284" transform="matrix(0.7071 -0.7071 0.7071 0.7071 207.9751 -63.9202)" width="8" height="2"/>
	<path d="M45.2-265.9c-1.4-6.7-7.4-11.8-14.6-11.8c-2.2,0-4.3,0.5-6.1,1.3c-1.7-3.2-5-5.4-8.9-5.4c-5.5,0-10,4.5-10,10
		c0,2.5,0.9,4.7,2.4,6.4c-1.4,1.8-2.3,4.1-2.3,6.7c0,6,4.8,10.8,10.8,10.9v0h1.2v-2h-0.7l-0.5,0c-4.9,0-8.8-4-8.8-8.9
		c0-4.9,4-8.9,8.9-8.9c0.1,0,0.3,0,0.4,0l0.1,0l1.3,0.1l0.6-1.2c2.2-4.4,6.6-7.1,11.5-7.1c6.1,0,11.4,4.3,12.6,10.2l0.3,1.5l1.5,0.1
		c3.7,0.2,6.6,3.3,6.6,7c0,3.9-3.1,7-7,7.1c0,0-0.1,0-0.1,0l0,0h-0.8v2h0.8v0c0,0,0.1,0,0.1,0c5,0,9.1-4.1,9.1-9.1
		C53.6-261.7,49.9-265.6,45.2-265.9z M17.2-269.5c-0.2,0-0.5,0-0.7,0c-2.8,0-5.3,1-7.2,2.7c-1.1-1.4-1.8-3.1-1.8-5c0-4.4,3.6-8,8-8
		c3.1,0,5.8,1.8,7.1,4.3C20.4-274,18.5-271.9,17.2-269.5z"/>
</g>
<g>
	<polygon points="-688.3,-147.6 -695.1,-157.5 -696.8,-156.3 -689.9,-146.5 -688.8,-144.9 -685.3,-139.9 -683.7,-141.1 -687.1,-146 
			"/>
	<polygon points="-680.3,-147.6 -687.1,-157.5 -688.8,-156.3 -681.9,-146.5 -680.9,-145 -677.3,-139.9 -675.7,-141.1 -679.3,-146.2 
			"/>
	<polygon points="-696.3,-147.6 -703.1,-157.5 -704.8,-156.3 -697.9,-146.5 -696.7,-144.8 -693.3,-139.9 -691.7,-141.1 
		-695.1,-145.9 	"/>
	<path d="M-678.3-169.4c-1.4-6.7-7.4-11.8-14.6-11.8c-1.8,0-3.5,0.3-5.1,0.9c-0.9-5.1-5.4-9-10.8-9c-0.4,0-0.8,0-1.2,0.1
		c0.7,1.1,1.2,2.4,1.2,3.9c0,3.9-3.1,7-7,7c-1.4,0-2.8-0.4-3.9-1.2c0,0.4-0.1,0.8-0.1,1.2c0,3.7,1.8,7,4.7,9
		c-1.7,1.9-2.7,4.4-2.7,7.1c0,6,4.8,10.8,10.8,10.9v0h1.2v-2h-0.7l-0.5,0c-4.9,0-8.8-4-8.8-8.9c0-4.9,4-8.9,8.9-8.9
		c0.2,0,0.3,0,0.4,0l0.1,0l1.3,0.1l0.6-1.2c2.2-4.4,6.6-7.1,11.5-7.1c6.1,0,11.4,4.3,12.6,10.2l0.3,1.5l1.5,0.1
		c3.7,0.2,6.6,3.3,6.6,7c0,3.9-3.1,7-7,7.1c0,0-0.1,0-0.1,0l0,0h-0.8v2h0.8v0c0,0,0.1,0,0.1,0c5,0,9.1-4.1,9.1-9.1
		C-669.8-165.2-673.5-169.1-678.3-169.4z M-706.2-173c-0.2,0-0.5,0-0.7,0c-2.5,0-4.9,0.9-6.7,2.3c-2-1.3-3.5-3.4-4-5.8
		c0.6,0.1,1.2,0.2,1.8,0.2c5,0,9-4,9-9c0-0.6-0.1-1.2-0.2-1.8c3.7,0.8,6.6,3.8,7.1,7.6C-702.6-178-704.8-175.7-706.2-173z"/>
</g>
<g>
	<rect x="-695.8" y="-251.5" width="2" height="4"/>
	<rect x="-687.8" y="-255.5" width="2" height="4"/>
	<rect x="-703.8" y="-255.5" width="2" height="4"/>
	<path d="M-677.2-271.5c-1.6-7.4-8.2-13-16.1-13c-6.4,0-12,3.7-14.7,9c-0.3,0-0.5,0-0.8,0c-6.6,0-12,5.4-12,12c0,6.6,5.3,12,11.9,12
		v0h2.1v-2h-1.6l-0.4,0c-5.5,0-9.9-4.5-9.9-10c0-5.5,4.5-10,10-10c0.2,0,0.3,0,0.5,0l0.1,0l1.3,0.1l0.6-1.2
		c2.5-4.9,7.4-7.9,12.9-7.9c6.8,0,12.8,4.8,14.2,11.4l0.3,1.5l1.5,0.1c4.2,0.3,7.5,3.8,7.5,8c0,4.4-3.6,8-8,8c0,0-0.1,0-0.1,0l-2,0
		h-2.9v2h4.9v0c0,0,0.1,0,0.1,0c5.5,0,10-4.5,10-10C-667.8-266.8-671.9-271.1-677.2-271.5z"/>
	<circle cx="-686.8" cy="-246.5" r="1.5"/>
	<circle cx="-694.8" cy="-242.5" r="1.5"/>
	<circle cx="-702.8" cy="-246.5" r="1.5"/>
</g>
<g>
	<rect x="-602.9" y="-290.9" width="2" height="8"/>
	<rect x="-621.9" y="-272" width="8" height="2"/>
	<rect x="-614.2" y="-286.3" transform="matrix(0.7071 -0.7071 0.7071 0.7071 19.9962 -516.2726)" width="2" height="8"/>
	<rect x="-594.7" y="-283.3" transform="matrix(0.7071 -0.7071 0.7071 0.7071 26.59 -500.3468)" width="8" height="2"/>
	<path d="M-572.3-265.1c-1.4-6.7-7.4-11.8-14.6-11.8c-2.2,0-4.3,0.5-6.1,1.3c-1.7-3.2-5-5.4-8.9-5.4c-5.5,0-10,4.5-10,10
		c0,2.5,0.9,4.7,2.4,6.4c-1.4,1.8-2.3,4.1-2.3,6.7c0,6,4.8,10.8,10.8,10.9v0h1.2v-2h-0.7l-0.5,0c-4.9,0-8.8-4-8.8-8.9
		c0-4.9,4-8.9,8.9-8.9c0.2,0,0.3,0,0.4,0l0.1,0l1.3,0.1l0.6-1.2c2.2-4.4,6.6-7.1,11.5-7.1c6.1,0,11.4,4.3,12.6,10.2l0.3,1.5l1.5,0.1
		c3.7,0.2,6.6,3.3,6.6,7c0,3.9-3.1,7-7,7.1c0,0-0.1,0-0.1,0l-2,0h-0.8v2h2.8v0c0,0,0.1,0,0.1,0c5,0,9.1-4.1,9.1-9.1
		C-563.9-260.9-567.6-264.8-572.3-265.1z M-600.3-268.8c-0.2,0-0.5,0-0.7,0c-2.8,0-5.3,1-7.2,2.7c-1.1-1.4-1.8-3.1-1.8-5
		c0-4.4,3.6-8,8-8c3.1,0,5.8,1.8,7.1,4.3C-597.2-273.2-599-271.2-600.3-268.8z"/>
	<rect x="-588.9" y="-247" width="2" height="4"/>
	<rect x="-580.9" y="-251.1" width="2" height="4"/>
	<rect x="-596.9" y="-251.1" width="2" height="4"/>
	<circle cx="-579.9" cy="-242" r="1.5"/>
	<circle cx="-587.9" cy="-238.1" r="1.5"/>
	<circle cx="-595.9" cy="-242.1" r="1.5"/>
</g>
<g>
	<path d="M-471.4-266.1c-1.4-6.7-7.4-11.8-14.6-11.8c-1.8,0-3.5,0.3-5.1,0.9c-0.9-5.1-5.4-9-10.8-9c-0.4,0-0.8,0-1.2,0.1
		c0.7,1.1,1.2,2.4,1.2,3.9c0,3.9-3.1,7-7,7c-1.4,0-2.8-0.4-3.9-1.2c0,0.4-0.1,0.8-0.1,1.2c0,3.7,1.8,7,4.7,9
		c-1.7,1.9-2.7,4.4-2.7,7.1c0,6,4.8,10.8,10.8,10.9v0h1.2v-2h-0.7l-0.5,0c-4.9,0-8.8-4-8.8-8.9c0-4.9,4-8.9,8.9-8.9
		c0.1,0,0.3,0,0.4,0l0.1,0l1.3,0.1l0.6-1.2c2.2-4.4,6.6-7.1,11.5-7.1c6.1,0,11.4,4.3,12.6,10.2l0.3,1.5l1.5,0.1
		c3.7,0.2,6.6,3.3,6.6,7c0,3.9-3.1,7-7,7.1c0,0-0.1,0-0.1,0l-2,0h-0.8v2h2.8v0c0,0,0.1,0,0.1,0c5,0,9.1-4.1,9.1-9.1
		C-462.9-261.9-466.7-265.8-471.4-266.1z M-499.3-269.7c-0.2,0-0.5,0-0.7,0c-2.5,0-4.9,0.9-6.7,2.3c-2-1.3-3.5-3.4-4-5.8
		c0.6,0.1,1.2,0.2,1.8,0.2c5,0,9-4,9-9c0-0.6-0.1-1.2-0.2-1.8c3.7,0.8,6.6,3.8,7.1,7.6C-495.7-274.7-497.9-272.5-499.3-269.7z"/>
	<rect x="-487.9" y="-248" width="2" height="4"/>
	<rect x="-479.9" y="-252" width="2" height="4"/>
	<rect x="-495.9" y="-252" width="2" height="4"/>
	<circle cx="-478.9" cy="-243" r="1.5"/>
	<circle cx="-486.9" cy="-239" r="1.5"/>
	<circle cx="-494.9" cy="-243" r="1.5"/>
</g>
<g>
	<path d="M-574.7-173.1c-1.6-7.4-8.2-13-16.1-13c-6.4,0-12,3.7-14.7,9c-0.3,0-0.5,0-0.8,0c-6.6,0-12,5.4-12,12c0,6.6,5.3,12,11.9,12
		v0h6.1v-2h-5.6l-0.4,0c-5.5,0-9.9-4.5-9.9-10c0-5.5,4.5-10,10-10c0.2,0,0.3,0,0.5,0l0.1,0l1.3,0.1l0.6-1.2
		c2.5-4.9,7.4-7.9,12.9-7.9c6.8,0,12.8,4.8,14.2,11.4l0.3,1.5l1.5,0.1c4.2,0.3,7.5,3.8,7.5,8c0,4.4-3.6,8-8,8c0,0-0.1,0-0.1,0l-5,0
		h0.1v2h4.9v0c0,0,0.1,0,0.1,0c5.5,0,10-4.5,10-10C-565.4-168.4-569.5-172.7-574.7-173.1z"/>
	<polygon points="-590.5,-153.1 -588.7,-153.1 -588.3,-153.1 -586.3,-153.1 -592.7,-162.3 -594.4,-161.1 -590.1,-155.1 
		-591.9,-155.1 -594.4,-155.1 -593.1,-153.3 -592,-151.7 -586,-143.1 -584.4,-144.2 -590.3,-152.8 	"/>
</g>
<g>
	<rect x="-498.9" y="-192.2" width="2" height="8"/>
	<rect x="-517.9" y="-173.3" width="8" height="2"/>
	<rect x="-510.3" y="-187.5" transform="matrix(0.7071 -0.7071 0.7071 0.7071 -19.3782 -413.8685)" width="2" height="8"/>
	<rect x="-490.7" y="-184.5" transform="matrix(0.7071 -0.7071 0.7071 0.7071 -12.7847 -397.942)" width="8" height="2"/>
	<path d="M-468.4-166.4c-1.4-6.7-7.4-11.8-14.6-11.8c-2.2,0-4.3,0.5-6.1,1.3c-1.7-3.2-5-5.4-8.9-5.4c-5.5,0-10,4.5-10,10
		c0,2.5,0.9,4.7,2.4,6.4c-1.4,1.8-2.3,4.1-2.3,6.7c0,6,4.8,10.8,10.8,10.9v0h4.2v-2h-3.7l-0.5,0c-4.9,0-8.8-4-8.8-8.9
		c0-4.9,4-8.9,8.9-8.9c0.1,0,0.3,0,0.4,0l0.1,0l1.3,0.1l0.6-1.2c2.2-4.4,6.6-7.1,11.5-7.1c6.1,0,11.4,4.3,12.6,10.2l0.3,1.5l1.5,0.1
		c3.7,0.2,6.6,3.3,6.6,7c0,3.9-3.1,7-7,7.1c0,0-0.1,0-0.1,0l-2,0h-3.8v2h5.8v0c0,0,0.1,0,0.1,0c5,0,9.1-4.1,9.1-9.1
		C-459.9-162.2-463.7-166.1-468.4-166.4z M-496.3-170c-0.2,0-0.5,0-0.7,0c-2.8,0-5.3,1-7.2,2.7c-1.1-1.4-1.8-3.1-1.8-5
		c0-4.4,3.6-8,8-8c3.1,0,5.8,1.8,7.1,4.3C-493.2-174.5-495.1-172.5-496.3-170z"/>
	<polygon points="-484.1,-148.3 -482.3,-148.3 -481.9,-148.3 -479.9,-148.3 -486.3,-157.5 -487.9,-156.3 -483.7,-150.3 
		-485.5,-150.3 -487.9,-150.3 -486.7,-148.5 -485.6,-146.9 -479.6,-138.3 -477.9,-139.5 -483.9,-148.1 	"/>
</g>
<g>
	<path d="M-368.8-168.7c-1.4-6.7-7.4-11.8-14.6-11.8c-1.8,0-3.5,0.3-5.1,0.9c-0.9-5.1-5.4-9-10.8-9c-0.4,0-0.8,0-1.2,0.1
		c0.7,1.1,1.2,2.4,1.2,3.9c0,3.9-3.1,7-7,7c-1.4,0-2.8-0.4-3.9-1.2c0,0.4-0.1,0.8-0.1,1.2c0,3.7,1.8,7,4.7,9
		c-1.7,1.9-2.7,4.4-2.7,7.1c0,6,4.8,10.8,10.8,10.9v0h4.2v-2h-3.7l-0.5,0c-4.9,0-8.8-4-8.8-8.9c0-4.9,4-8.9,8.9-8.9
		c0.1,0,0.3,0,0.4,0l0.1,0l1.3,0.1l0.6-1.2c2.2-4.4,6.6-7.1,11.5-7.1c6.1,0,11.4,4.3,12.6,10.2l0.3,1.5l1.5,0.1
		c3.7,0.2,6.6,3.3,6.6,7c0,3.9-3.1,7-7,7.1c0,0-0.1,0-0.1,0l-2,0h-3.8v2h5.8v0c0,0,0.1,0,0.1,0c5,0,9.1-4.1,9.1-9.1
		C-360.4-164.5-364.1-168.4-368.8-168.7z M-396.8-172.3c-0.2,0-0.5,0-0.7,0c-2.5,0-4.9,0.9-6.7,2.3c-2-1.3-3.5-3.4-4-5.8
		c0.6,0.1,1.2,0.2,1.8,0.2c5,0,9-4,9-9c0-0.6-0.1-1.2-0.2-1.8c3.7,0.8,6.6,3.8,7.1,7.6C-393.1-177.3-395.4-175.1-396.8-172.3z"/>
	<polygon points="-384.5,-150.6 -382.7,-150.6 -382.3,-150.6 -380.3,-150.6 -386.7,-159.8 -388.4,-158.6 -384.1,-152.6 
		-385.9,-152.6 -388.4,-152.6 -387.1,-150.8 -386,-149.2 -380,-140.6 -378.4,-141.8 -384.3,-150.4 	"/>
</g>
<g>
	<path d="M-268-172.6c-1.6-7.4-8.2-13-16.1-13c-6.4,0-12,3.7-14.7,9c-0.3,0-0.5,0-0.8,0c-6.6,0-12,5.4-12,12c0,6.6,5.3,12,11.9,12v0
		h1.1v-2h-0.6l-0.4,0c-5.5,0-9.9-4.5-9.9-10c0-5.5,4.5-10,10-10c0.2,0,0.3,0,0.5,0l0.1,0l1.3,0.1l0.6-1.2c2.5-4.9,7.4-7.9,12.9-7.9
		c6.8,0,12.8,4.8,14.2,11.4l0.3,1.5l1.5,0.1c4.2,0.3,7.5,3.8,7.5,8c0,4.4-3.6,8-8,8c0,0-0.1,0-0.1,0l-0.9,0v2h0.9v0c0,0,0.1,0,0.1,0
		c5.5,0,10-4.5,10-10C-258.6-167.9-262.7-172.2-268-172.6z"/>
	<rect x="-294.6" y="-159.2" transform="matrix(0.8191 -0.5736 0.5736 0.8191 35.0132 -196.1779)" width="2" height="11.2"/>
	<rect x="-276.6" y="-159.2" transform="matrix(0.8191 -0.5736 0.5736 0.8191 38.2646 -185.8672)" width="2" height="11.2"/>
	<polygon points="-282.7,-149.6 -281,-149.6 -280.5,-149.6 -278.5,-149.6 -284.9,-158.8 -286.6,-157.6 -282.4,-151.6 -284.1,-151.6 
		-286.6,-151.6 -285.3,-149.8 -284.2,-148.2 -279.6,-141.6 -277.9,-142.7 -282.6,-149.3 	"/>
</g>
<g>
	<rect x="-193.1" y="-192" width="2" height="8"/>
	<rect x="-212.1" y="-173.1" width="8" height="2"/>
	<rect x="-204.4" y="-187.4" transform="matrix(0.7071 -0.7071 0.7071 0.7071 70.0824 -197.5683)" width="2" height="8"/>
	<rect x="-184.9" y="-184.4" transform="matrix(0.7071 -0.7071 0.7071 0.7071 76.6762 -181.6426)" width="8" height="2"/>
	<path d="M-162.6-166.2C-164-173-170-178-177.2-178c-2.2,0-4.3,0.5-6.1,1.3c-1.7-3.2-5-5.4-8.9-5.4c-5.5,0-10,4.5-10,10
		c0,2.5,0.9,4.7,2.4,6.4c-1.4,1.8-2.3,4.1-2.3,6.7c0,6,4.8,10.8,10.8,10.9v0h0.2v-2l-0.2,0c-4.9,0-8.8-4-8.8-8.9
		c0-4.9,4-8.9,8.9-8.9c0.1,0,0.3,0,0.4,0l0.1,0l1.3,0.1l0.6-1.2c2.2-4.4,6.6-7.1,11.5-7.1c6.1,0,11.4,4.3,12.6,10.2l0.3,1.5l1.5,0.1
		c3.7,0.2,6.6,3.3,6.6,7c0,3.9-3.1,7-7,7.1c0,0-0.1,0-0.1,0l-0.9,0v2h0.8v0c0,0,0.1,0,0.1,0c5,0,9.1-4.1,9.1-9.1
		C-154.1-162-157.9-165.9-162.6-166.2z M-190.5-169.9c-0.2,0-0.5,0-0.7,0c-2.8,0-5.3,1-7.2,2.7c-1.1-1.4-1.8-3.1-1.8-5
		c0-4.4,3.6-8,8-8c3.1,0,5.8,1.8,7.1,4.3C-187.4-174.3-189.3-172.3-190.5-169.9z"/>
	<rect x="-188.1" y="-154.8" transform="matrix(0.8191 -0.5736 0.5736 0.8191 51.7242 -134.3036)" width="2" height="11.2"/>
	<rect x="-170.1" y="-154.8" transform="matrix(0.8191 -0.5736 0.5736 0.8191 54.9756 -123.9928)" width="2" height="11.2"/>
	<polygon points="-176.3,-145.2 -174.5,-145.2 -174.1,-145.2 -172.1,-145.2 -178.5,-154.3 -180.1,-153.2 -175.9,-147.2 
		-177.7,-147.2 -180.1,-147.2 -178.8,-145.3 -177.7,-143.8 -173.1,-137.2 -171.5,-138.3 -176.1,-144.9 	"/>
</g>
<g>
	<path d="M-60.8-169.2c-1.4-6.7-7.4-11.8-14.6-11.8c-1.8,0-3.5,0.3-5.1,0.9c-0.9-5.1-5.4-9-10.8-9c-0.4,0-0.8,0-1.2,0.1
		c0.7,1.1,1.2,2.4,1.2,3.9c0,3.9-3.1,7-7,7c-1.4,0-2.8-0.4-3.9-1.2c0,0.4-0.1,0.8-0.1,1.2c0,3.7,1.8,7,4.7,9
		c-1.7,1.9-2.7,4.4-2.7,7.1c0,6,4.8,10.8,10.8,10.9v0h0.2v-2l-0.2,0c-4.9,0-8.8-4-8.8-8.9c0-4.9,4-8.9,8.9-8.9c0.2,0,0.3,0,0.4,0
		l0.1,0l1.3,0.1l0.6-1.2c2.2-4.4,6.6-7.1,11.5-7.1c6.1,0,11.4,4.3,12.6,10.2l0.3,1.5l1.5,0.1c3.7,0.2,6.6,3.3,6.6,7
		c0,3.9-3.1,7-7,7.1c0,0-0.1,0-0.1,0l-0.9,0v2h0.8v0c0,0,0.1,0,0.1,0c5,0,9.1-4.1,9.1-9.1C-52.3-165-56-168.9-60.8-169.2z
		 M-88.7-172.8c-0.2,0-0.5,0-0.7,0c-2.5,0-4.9,0.9-6.7,2.3c-2-1.3-3.5-3.4-4-5.8c0.6,0.1,1.2,0.2,1.8,0.2c5,0,9-4,9-9
		c0-0.6-0.1-1.2-0.2-1.8c3.7,0.8,6.6,3.8,7.1,7.6C-85.1-177.8-87.3-175.6-88.7-172.8z"/>
	<rect x="-86.3" y="-157.7" transform="matrix(0.8191 -0.5736 0.5736 0.8191 71.8411 -76.4209)" width="2" height="11.2"/>
	<rect x="-68.3" y="-157.7" transform="matrix(0.8191 -0.5736 0.5736 0.8191 75.0924 -66.1101)" width="2" height="11.2"/>
	<polygon points="-74.4,-148.1 -72.7,-148.1 -72.2,-148.1 -70.2,-148.1 -76.6,-157.3 -78.3,-156.1 -74.1,-150.1 -75.8,-150.1 
		-78.3,-150.1 -77,-148.3 -75.9,-146.7 -71.3,-140.1 -69.6,-141.3 -74.3,-147.9 	"/>
</g>
<g>
	<g>
		<path d="M-471.3-82.7c-1.6-7.4-8.2-13-16.1-13c-6.4,0-12,3.7-14.7,9c-0.3,0-0.5,0-0.8,0c-6.6,0-12,5.4-12,12c0,6.6,5.3,12,11.9,12
			v0h2.1v-2h-1.6l-0.4,0c-5.5,0-9.9-4.5-9.9-10c0-5.5,4.5-10,10-10c0.2,0,0.3,0,0.5,0l0.1,0l1.3,0.1l0.6-1.2
			c2.5-4.9,7.4-7.9,12.9-7.9c6.8,0,12.8,4.8,14.2,11.4l0.3,1.5l1.5,0.1c4.2,0.3,7.5,3.8,7.5,8c0,4.4-3.6,8-8,8c0,0-0.1,0-0.1,0l-2,0
			h-2.9v2h4.9v0c0,0,0.1,0,0.1,0c5.5,0,10-4.5,10-10C-461.9-78.1-466.1-82.4-471.3-82.7z"/>
	</g>
	<g>
		<circle cx="-496.4" cy="-69.2" r="1.5"/>
	</g>
	<g>
		<circle cx="-492.4" cy="-63.3" r="1.5"/>
	</g>
	<g>
		<circle cx="-484.4" cy="-63.3" r="1.5"/>
	</g>
	<g>
		<circle cx="-488.4" cy="-69.2" r="1.5"/>
	</g>
	<g>
		<circle cx="-480.4" cy="-69.2" r="1.5"/>
	</g>
	<g>
		<circle cx="-496.4" cy="-57.3" r="1.5"/>
	</g>
	<g>
		<circle cx="-488.4" cy="-57.3" r="1.5"/>
	</g>
	<g>
		<circle cx="-480.4" cy="-57.3" r="1.5"/>
	</g>
</g>
<g>
	<g>
		<rect x="-395.5" y="-98.2" width="2" height="8"/>
	</g>
	<g>
		<rect x="-414.5" y="-79.3" width="8" height="2"/>
	</g>
	<g>
		<rect x="-406.9" y="-93.6" transform="matrix(0.7071 -0.7071 0.7071 0.7071 -55.5405 -313.2281)" width="2" height="8"/>
	</g>
	<g>
		<rect x="-387.3" y="-90.6" transform="matrix(0.7071 -0.7071 0.7071 0.7071 -48.9471 -297.3017)" width="8" height="2"/>
	</g>
	<g>
		<path d="M-365-72.4c-1.4-6.7-7.4-11.8-14.6-11.8c-2.2,0-4.3,0.5-6.1,1.3c-1.7-3.2-5-5.4-8.9-5.4c-5.5,0-10,4.5-10,10
			c0,2.5,0.9,4.7,2.4,6.4c-1.4,1.8-2.3,4.1-2.3,6.7c0,6,4.8,10.8,10.8,10.9v0h1.2v-2h-0.7l-0.5,0c-4.9,0-8.8-4-8.8-8.9
			c0-4.9,4-8.9,8.9-8.9c0.1,0,0.3,0,0.4,0l0.1,0l1.3,0.1l0.6-1.2c2.2-4.4,6.6-7.1,11.5-7.1c6.1,0,11.4,4.3,12.6,10.2l0.3,1.5
			l1.5,0.1c3.7,0.2,6.6,3.3,6.6,7c0,3.9-3.1,7-7,7.1c0,0-0.1,0-0.1,0l-2,0h-1.8v2h3.8v0c0,0,0.1,0,0.1,0c5,0,9.1-4.1,9.1-9.1
			C-356.5-68.2-360.3-72.1-365-72.4z M-392.9-76c-0.2,0-0.5,0-0.7,0c-2.8,0-5.3,1-7.2,2.7c-1.1-1.4-1.8-3.1-1.8-5c0-4.4,3.6-8,8-8
			c3.1,0,5.8,1.8,7.1,4.3C-389.8-80.5-391.7-78.5-392.9-76z"/>
	</g>
	<g>
		<circle cx="-389" cy="-60.8" r="1.5"/>
	</g>
	<g>
		<circle cx="-385" cy="-54.8" r="1.5"/>
	</g>
	<g>
		<circle cx="-377" cy="-54.8" r="1.5"/>
	</g>
	<g>
		<circle cx="-381" cy="-60.8" r="1.5"/>
	</g>
	<g>
		<circle cx="-373" cy="-60.8" r="1.5"/>
	</g>
	<g>
		<circle cx="-389" cy="-48.8" r="1.5"/>
	</g>
	<g>
		<circle cx="-381" cy="-48.8" r="1.5"/>
	</g>
	<g>
		<circle cx="-373" cy="-48.8" r="1.5"/>
	</g>
</g>
<g>
	<g>
		<path d="M-269.1-76.4c-1.4-6.7-7.4-11.8-14.6-11.8c-1.8,0-3.5,0.3-5.1,0.9c-0.9-5.1-5.4-9-10.8-9c-0.4,0-0.8,0-1.2,0.1
			c0.7,1.1,1.2,2.4,1.2,3.9c0,3.9-3.1,7-7,7c-1.4,0-2.8-0.4-3.9-1.2c0,0.4-0.1,0.8-0.1,1.2c0,3.7,1.8,7,4.7,9
			c-1.7,1.9-2.7,4.4-2.7,7.1c0,6,4.8,10.8,10.8,10.9v0h1.2v-2h-0.7l-0.5,0c-4.9,0-8.8-4-8.8-8.9c0-4.9,4-8.9,8.9-8.9
			c0.1,0,0.3,0,0.4,0l0.1,0l1.3,0.1l0.6-1.2c2.2-4.4,6.6-7.1,11.5-7.1c6.1,0,11.4,4.3,12.6,10.2l0.3,1.5l1.5,0.1
			c3.7,0.2,6.6,3.3,6.6,7c0,3.9-3.1,7-7,7.1c0,0-0.1,0-0.1,0l-2,0h-1.8v2h3.8v0c0,0,0.1,0,0.1,0c5,0,9.1-4.1,9.1-9.1
			C-260.6-72.2-264.3-76.1-269.1-76.4z M-297-80c-0.2,0-0.5,0-0.7,0c-2.5,0-4.9,0.9-6.7,2.3c-2-1.3-3.5-3.4-4-5.8
			c0.6,0.1,1.2,0.2,1.8,0.2c5,0,9-4,9-9c0-0.6-0.1-1.2-0.2-1.8c3.7,0.8,6.6,3.8,7.1,7.6C-293.4-85-295.6-82.7-297-80z"/>
	</g>
	<g>
		<circle cx="-293.1" cy="-64.8" r="1.5"/>
	</g>
	<g>
		<circle cx="-289.1" cy="-58.8" r="1.5"/>
	</g>
	<g>
		<circle cx="-281.1" cy="-58.8" r="1.5"/>
	</g>
	<g>
		<circle cx="-285.1" cy="-64.8" r="1.5"/>
	</g>
	<g>
		<circle cx="-277.1" cy="-64.8" r="1.5"/>
	</g>
	<g>
		<circle cx="-293.1" cy="-52.8" r="1.5"/>
	</g>
	<g>
		<circle cx="-285.1" cy="-52.8" r="1.5"/>
	</g>
	<g>
		<circle cx="-277.1" cy="-52.8" r="1.5"/>
	</g>
</g>
<g>
	<path d="M42.1-175.3c-1.6-7.4-8.2-13-16.1-13c-6.4,0-12,3.7-14.7,9c-0.3,0-0.5,0-0.8,0c-6.6,0-12,5.4-12,12c0,6.6,5.3,12,11.9,12v0
		h2.1v-2h-1.6l-0.4,0c-5.5,0-9.9-4.5-9.9-10c0-5.5,4.5-10,10-10c0.2,0,0.3,0,0.5,0l0.1,0l1.3,0.1l0.6-1.2c2.5-4.9,7.4-7.9,12.9-7.9
		c6.8,0,12.8,4.8,14.2,11.4l0.3,1.5l1.5,0.1c4.2,0.3,7.5,3.8,7.5,8c0,4.4-3.6,8-8,8c0,0-0.1,0-0.1,0l-2,0h-2.9v2h4.9v0
		c0,0,0.1,0,0.1,0c5.5,0,10-4.5,10-10C51.5-170.6,47.3-174.9,42.1-175.3z"/>
	<circle cx="16.5" cy="-147.8" r="1.5"/>
	<circle cx="24.5" cy="-141.8" r="1.5"/>
	<circle cx="32.5" cy="-145.8" r="1.5"/>
	<rect x="15.5" y="-164.3" width="2" height="12"/>
	<polygon points="25.5,-146.3 25.5,-148.3 25.5,-160.3 23.5,-160.3 23.5,-148.3 23.5,-146.3 23.5,-146.3 25.5,-146.3 	"/>
	<polygon points="33.5,-150.5 33.5,-152.3 33.5,-164.3 31.5,-164.3 31.5,-152.3 31.5,-150.5 31.5,-150.3 33.5,-150.3 	"/>
</g>
<g>
	<rect x="-706.3" y="-103.7" width="2" height="8"/>
	<rect x="-725.3" y="-84.7" width="8" height="2"/>
	<rect x="-717.6" y="-99" transform="matrix(0.7071 -0.7071 0.7071 0.7071 -142.7118 -534.5515)" width="2" height="8"/>
	<rect x="-698.1" y="-96" transform="matrix(0.7071 -0.7071 0.7071 0.7071 -136.1183 -518.6251)" width="8" height="2"/>
	<path d="M-675.8-77.9c-1.4-6.7-7.4-11.8-14.6-11.8c-2.2,0-4.3,0.5-6.1,1.3c-1.7-3.2-5-5.4-8.9-5.4c-5.5,0-10,4.5-10,10
		c0,2.5,0.9,4.7,2.4,6.4c-1.4,1.8-2.3,4.1-2.3,6.7c0,6,4.8,10.8,10.8,10.9v0h1.2v-2h-0.7l-0.5,0c-4.9,0-8.8-4-8.8-8.9
		c0-4.9,4-8.9,8.9-8.9c0.2,0,0.3,0,0.4,0l0.1,0l1.3,0.1l0.6-1.2c2.2-4.4,6.6-7.1,11.5-7.1c6.1,0,11.4,4.3,12.6,10.2l0.3,1.5l1.5,0.1
		c3.7,0.2,6.6,3.3,6.6,7c0,3.9-3.1,7-7,7.1c0,0-0.1,0-0.1,0l-2,0h-0.8v2h2.8v0c0,0,0.1,0,0.1,0c5,0,9.1-4.1,9.1-9.1
		C-667.3-73.7-671-77.6-675.8-77.9z M-703.7-81.5c-0.2,0-0.5,0-0.7,0c-2.8,0-5.3,1-7.2,2.7c-1.1-1.4-1.8-3.1-1.8-5c0-4.4,3.6-8,8-8
		c3.1,0,5.8,1.8,7.1,4.3C-700.6-86-702.5-83.9-703.7-81.5z"/>
	<circle cx="-699.3" cy="-51.3" r="1.5"/>
	<circle cx="-691.3" cy="-45.3" r="1.5"/>
	<circle cx="-683.3" cy="-49.3" r="1.5"/>
	<rect x="-700.3" y="-67.8" width="2" height="12"/>
	<polygon points="-690.3,-49.8 -690.3,-51.8 -690.3,-63.8 -692.3,-63.8 -692.3,-51.8 -692.3,-49.8 -692.3,-49.8 -690.3,-49.8 	"/>
	<polygon points="-682.3,-54 -682.3,-55.8 -682.3,-67.8 -684.3,-67.8 -684.3,-55.8 -684.3,-54 -684.3,-53.8 -682.3,-53.8 	"/>
</g>
<g>
	<path d="M-575.2-80.9c-1.4-6.7-7.4-11.8-14.6-11.8c-1.8,0-3.5,0.3-5.1,0.9c-0.9-5.1-5.4-9-10.8-9c-0.4,0-0.8,0-1.2,0.1
		c0.7,1.1,1.2,2.4,1.2,3.9c0,3.9-3.1,7-7,7c-1.4,0-2.8-0.4-3.9-1.2c0,0.4-0.1,0.8-0.1,1.2c0,3.7,1.8,7,4.7,9
		c-1.7,1.9-2.7,4.4-2.7,7.1c0,6,4.8,10.8,10.8,10.9v0h1.2v-2h-0.7l-0.5,0c-4.9,0-8.8-4-8.8-8.9c0-4.9,4-8.9,8.9-8.9
		c0.2,0,0.3,0,0.4,0l0.1,0l1.3,0.1l0.6-1.2c2.2-4.4,6.6-7.1,11.5-7.1c6.1,0,11.4,4.3,12.6,10.2l0.3,1.5l1.5,0.1
		c3.7,0.2,6.6,3.3,6.6,7c0,3.9-3.1,7-7,7.1c0,0-0.1,0-0.1,0l-2,0h-0.8v2h2.8v0c0,0,0.1,0,0.1,0c5,0,9.1-4.1,9.1-9.1
		C-566.7-76.7-570.4-80.6-575.2-80.9z M-603.1-84.5c-0.2,0-0.5,0-0.7,0c-2.5,0-4.9,0.9-6.7,2.3c-2-1.3-3.5-3.4-4-5.8
		c0.6,0.1,1.2,0.2,1.8,0.2c5,0,9-4,9-9c0-0.6-0.1-1.2-0.2-1.8c3.7,0.8,6.6,3.8,7.1,7.6C-599.5-89.5-601.7-87.2-603.1-84.5z"/>
	<circle cx="-598.7" cy="-54.3" r="1.5"/>
	<circle cx="-590.7" cy="-48.3" r="1.5"/>
	<circle cx="-582.7" cy="-52.3" r="1.5"/>
	<rect x="-599.7" y="-70.8" width="2" height="12"/>
	<polygon points="-589.7,-52.8 -589.7,-54.8 -589.7,-66.8 -591.7,-66.8 -591.7,-54.8 -591.7,-52.8 -591.7,-52.8 -589.7,-52.8 	"/>
	<polygon points="-581.7,-57 -581.7,-58.8 -581.7,-70.8 -583.7,-70.8 -583.7,-58.8 -583.7,-57 -583.7,-56.8 -581.7,-56.8 	"/>
</g>
<g>
	<rect x="-723.3" y="23.6" width="56" height="2"/>
	<rect x="-719.3" y="29.6" width="50" height="2"/>
	<rect x="-713.3" y="35.6" width="36" height="2"/>
	<rect x="-721.3" y="17.6" width="52" height="2"/>
	<path d="M-709.4,9.6c0.2,0,0.3,0,0.5,0l0.1,0l1.3,0.1l0.6-1.2c2.5-4.9,7.4-7.9,12.9-7.9c6.8,0,12.8,4.8,14.2,11.4l0.3,1.5l1.5,0.1
		c1.2,0.1,2.3,0.4,3.3,1h3.3c-1.7-1.7-4-2.8-6.5-3c-1.6-7.4-8.2-13-16.1-13c-6.4,0-12,3.7-14.7,9c-0.3,0-0.5,0-0.8,0
		c-4.8,0-9,2.9-10.9,7h2.3C-716.3,11.6-713.1,9.6-709.4,9.6z"/>
</g>
<g>
	<rect x="-602.2" y="-3.9" width="2" height="8"/>
	<rect x="-621.2" y="15" width="8" height="2"/>
	<rect x="-613.5" y="0.7" transform="matrix(0.7071 -0.7071 0.7071 0.7071 -182.731 -431.734)" width="2" height="8"/>
	<rect x="-594" y="3.7" transform="matrix(0.7071 -0.7071 0.7071 0.7071 -176.1376 -415.8076)" width="8" height="2"/>
	<rect x="-612.2" y="29.9" width="50" height="2"/>
	<rect x="-608.2" y="35.9" width="44" height="2"/>
	<rect x="-602.2" y="40.9" width="30" height="2"/>
	<rect x="-610.2" y="23.9" width="46" height="2"/>
	<path d="M-609.3,21.9h0.8h1.9h1c1.5-1.1,3.3-1.7,5.2-1.7c0.2,0,0.3,0,0.4,0l0.1,0l1.3,0.1l0.6-1.2c2.2-4.4,6.6-7.1,11.5-7.1
		c5.9,0,11.2,4.1,12.6,9.9h2v-0.1c-1.4-6.7-7.4-11.8-14.6-11.8c-2.2,0-4.3,0.5-6.1,1.3c-1.7-3.2-5-5.4-8.9-5.4c-5.5,0-10,4.5-10,10
		C-611.3,18.2-610.5,20.3-609.3,21.9z M-601.3,8c3.1,0,5.8,1.8,7.1,4.3c-2.3,1.4-4.2,3.5-5.4,5.9c-0.2,0-0.5,0-0.7,0
		c-2.8,0-5.3,1-7.2,2.7c-1.1-1.4-1.8-3.1-1.8-5C-609.3,11.6-605.7,8-601.3,8z"/>
</g>
<g>
	<rect x="-513.4" y="26.5" width="50" height="2"/>
	<rect x="-509.4" y="32.5" width="44" height="2"/>
	<rect x="-503.4" y="37.5" width="30" height="2"/>
	<rect x="-511.4" y="20.5" width="46" height="2"/>
	<path d="M-509.8,18.5L-509.8,18.5h1.9h1.1c1.5-1.1,3.3-1.7,5.2-1.7c0.1,0,0.3,0,0.4,0l0.1,0l1.3,0.1l0.6-1.2
		c2.2-4.4,6.6-7.1,11.5-7.1c5.9,0,11.2,4.1,12.6,9.9h2v-0.1c-1.4-6.7-7.4-11.8-14.6-11.8c-1.8,0-3.5,0.3-5.1,0.9
		c-0.9-5.1-5.4-9-10.8-9c-0.4,0-0.8,0-1.2,0.1c0.7,1.1,1.2,2.4,1.2,3.9c0,3.9-3.1,7-7,7c-1.4,0-2.8-0.4-3.9-1.2
		c0,0.4-0.1,0.8-0.1,1.2C-514.4,13.2-512.6,16.5-509.8,18.5z M-510.5,11.5c5,0,9-4,9-9c0-0.6-0.1-1.2-0.2-1.8
		c3.7,0.8,6.6,3.8,7.1,7.6c-2.7,1.4-4.9,3.7-6.3,6.4c-0.2,0-0.5,0-0.7,0c-2.5,0-4.9,0.9-6.7,2.3c-2-1.3-3.5-3.4-4-5.8
		C-511.7,11.4-511.1,11.5-510.5,11.5z"/>
</g>
<g>
	<path d="M-381.5,29.5H-401l-0.6,0c-5.5,0-9.9-4.5-9.9-10c0-5.5,4.5-10,10-10c0.2,0,0.3,0,0.5,0l0.1,0l1.3,0.1l0.6-1.2
		c2.5-4.9,7.4-7.9,12.9-7.9c6.8,0,12.8,4.8,14.2,11.4l0.3,1.5l1.5,0.1c1.8,0.1,3.5,0.8,4.7,2h2.7c-1.7-2.3-4.3-3.8-7.4-4
		c-1.6-7.4-8.2-13-16.1-13c-6.4,0-12,3.7-14.7,9c-0.3,0-0.5,0-0.8,0c-6.6,0-12,5.4-12,12c0,6.6,5.3,12,11.9,12v0h20.1
		c2.2,0,4,1.8,4,4s-1.8,4-4,4v2c3.3,0,6-2.7,6-6C-375.5,32.2-378.2,29.5-381.5,29.5z"/>
	<path d="M-377.5,25.5h-16v2h16c3.3,0,6-2.7,6-6c0-3.3-2.7-6-6-6v2c2.2,0,4,1.8,4,4S-375.3,25.5-377.5,25.5z"/>
	<path d="M-364.5,19.5c1.7,0,3,1.3,3,3s-1.3,3-3,3c0,0-0.1,0-0.1,0h-4.9c0,0,0,0,0,0h0v2h5.5v-0.1c2.5-0.3,4.5-2.4,4.5-4.9
		c0-2.8-2.2-5-5-5L-364.5,19.5L-364.5,19.5z"/>
	<path d="M-360.5,29.5h-13v2h9c0,0,0,0,0,0h3.9c0,0,0.1,0,0.1,0c1.7,0,3,1.3,3,3s-1.3,3-3,3v2c2.8,0,5-2.2,5-5
		S-357.8,29.5-360.5,29.5z"/>
	<rect x="-399.5" y="25.5" width="4" height="2"/>
</g>
<path d="M-589.1-369.6c7,1.3,12.2,7.4,12.2,14.7c0,8.3-6.7,15-15,15c-6.8,0-12.5-4.5-14.4-10.7c1.4,0.5,2.9,0.7,4.4,0.7
	c7.7,0,14-6.3,14-14C-587.9-365.9-588.3-367.8-589.1-369.6 M-591.9-371.9c-0.3,0-0.7,0-1,0.1c1.9,2.1,3,4.9,3,7.9
	c0,6.6-5.4,12-12,12c-2.6,0-5-0.8-7-2.2c0.4,9,7.8,16.3,17,16.3c9.4,0,17-7.6,17-17S-582.5-371.9-591.9-371.9L-591.9-371.9z"/>
<g>
	<path d="M-695.3-366.9c-7.2,0-13,5.8-13,13c0,7.2,5.8,13,13,13s13-5.8,13-13C-682.3-361-688.1-366.9-695.3-366.9z M-695.3-342.9
		c-6.1,0-11-4.9-11-11c0-6.1,4.9-11,11-11s11,4.9,11,11C-684.3-347.8-689.2-342.9-695.3-342.9z"/>
	<rect x="-696.3" y="-379.9" width="2" height="10"/>
	<rect x="-696.3" y="-337.9" width="2" height="10"/>
	<rect x="-721.3" y="-354.9" width="10" height="2"/>
	<rect x="-679.3" y="-354.9" width="10" height="2"/>
	<rect x="-685.8" y="-369.6" transform="matrix(0.7071 -0.7071 0.7071 0.7071 61.27 -589.1887)" width="10.4" height="2"/>
	<rect x="-715.2" y="-340.2" transform="matrix(0.7071 -0.7071 0.7071 0.7071 31.8695 -601.3783)" width="10.4" height="2"/>
	<rect x="-711" y="-373.8" transform="matrix(0.7071 -0.7071 0.7071 0.7071 52.6538 -609.9794)" width="2" height="10.4"/>
	<rect x="-681.6" y="-344.3" transform="matrix(0.7071 -0.7072 0.7072 0.7071 40.4345 -580.6005)" width="2" height="10.4"/>
</g>
<g>
	<rect x="-297.1" y="-9" width="2" height="8"/>
	<rect x="-316.1" y="10" width="8" height="2"/>
	<rect x="-308.4" y="-4.2" transform="matrix(0.7071 -0.7071 0.7071 0.7071 -89.8693 -217.405)" width="2" height="8"/>
	<rect x="-288.8" y="-1.2" transform="matrix(0.7071 -0.7071 0.7071 0.7071 -83.2755 -201.4792)" width="8" height="2"/>
	<path d="M-282.1,33L-282.1,33l-12.5,0l-0.6,0c-4.9,0-8.8-4-8.8-8.9c0-4.9,4-8.9,8.9-8.9c0.1,0,0.3,0,0.4,0l0.1,0l1.3,0.1l0.6-1.2
		c2.2-4.4,6.6-7.1,11.5-7.1c5.9,0,11.1,4.1,12.5,9.8h2.1c-1.4-6.7-7.4-11.8-14.6-11.8c-2.2,0-4.3,0.5-6.1,1.3
		c-1.7-3.2-5-5.4-8.9-5.4c-5.5,0-10,4.5-10,10c0,2.5,0.9,4.7,2.4,6.4c-1.4,1.8-2.3,4.1-2.3,6.7c0,6,4.8,10.8,10.8,10.9v0h13.1v0
		c2.2,0,4,1.8,4,4s-1.8,4-4,4v2c3.3,0,6-2.7,6-6C-276.1,35.7-278.8,33-282.1,33z M-296.1,3c3.1,0,5.8,1.8,7.1,4.3
		c-2.3,1.4-4.2,3.5-5.4,5.9c-0.2,0-0.5,0-0.7,0c-2.8,0-5.3,1-7.2,2.7c-1.1-1.4-1.8-3.1-1.8-5C-304.1,6.6-300.5,3-296.1,3z"/>
	<path d="M-278.1,29h-10v2h10c3.3,0,6-2.7,6-6c0-3.3-2.7-6-6-6v2c2.2,0,4,1.8,4,4S-275.9,29-278.1,29z"/>
	<path d="M-270.1,29L-270.1,29l0,2h5.5V31c2.5-0.3,4.5-2.4,4.5-4.9c0-2.8-2.2-5-5-5v2c1.7,0,3,1.3,3,3s-1.3,3-3,3c0,0-0.1,0-0.1,0
		L-270.1,29C-270.1,29-270.1,29-270.1,29z"/>
	<path d="M-261.1,33h-13v2h9c0,0,0,0,0,0h3.9c0,0,0.1,0,0.1,0c1.7,0,3,1.3,3,3s-1.3,3-3,3v2c2.8,0,5-2.2,5-5S-258.3,33-261.1,33z"/>
	<rect x="-294.1" y="29" width="4" height="2"/>
</g>
<g>
	<path d="M-182.1,31L-182.1,31l-12.5,0l-0.6,0c-4.9,0-8.8-4-8.8-8.9c0-4.9,4-8.9,8.9-8.9c0.1,0,0.3,0,0.4,0l0.1,0l1.3,0.1l0.6-1.2
		c2.2-4.4,6.6-7.1,11.5-7.1c5.9,0,11.1,4.1,12.5,9.8h2.1C-168,8.2-174,3.1-181.2,3.1c-1.8,0-3.5,0.3-5.1,0.9c-0.9-5.1-5.4-9-10.8-9
		c-0.4,0-0.8,0-1.2,0.1c0.7,1.1,1.2,2.4,1.2,3.9c0,3.9-3.1,7-7,7c-1.4,0-2.8-0.4-3.9-1.2c0,0.4-0.1,0.8-0.1,1.2c0,3.7,1.9,7,4.7,9
		c-1.7,1.9-2.7,4.4-2.7,7.1c0,6,4.8,10.8,10.8,10.9v0h13.1v0c2.2,0,4,1.8,4,4s-1.8,4-4,4v2c3.3,0,6-2.7,6-6
		C-176.1,33.7-178.8,31-182.1,31z M-205.9,7.8c0.6,0.1,1.2,0.2,1.8,0.2c5,0,9-4,9-9c0-0.6-0.1-1.2-0.2-1.8c3.7,0.8,6.6,3.8,7.1,7.7
		c-2.7,1.4-4.9,3.7-6.3,6.4c-0.2,0-0.5,0-0.7,0c-2.5,0-4.9,0.9-6.7,2.3C-203.9,12.3-205.4,10.2-205.9,7.8z"/>
	<path d="M-178.1,27h-10v2h10c3.3,0,6-2.7,6-6c0-3.3-2.7-6-6-6v2c2.2,0,4,1.8,4,4S-175.9,27-178.1,27z"/>
	<path d="M-170.1,27L-170.1,27l0,2h5.5V29c2.5-0.3,4.5-2.4,4.5-4.9c0-2.8-2.2-5-5-5v2c1.7,0,3,1.3,3,3s-1.3,3-3,3c0,0-0.1,0-0.1,0
		L-170.1,27C-170.1,27-170.1,27-170.1,27z"/>
	<path d="M-161.1,31h-13v2h9c0,0,0,0,0,0h3.9c0,0,0.1,0,0.1,0c1.7,0,3,1.3,3,3s-1.3,3-3,3v2c2.8,0,5-2.2,5-5S-158.4,31-161.1,31z"/>
	<rect x="-194.1" y="27" width="4" height="2"/>
</g>
<g>
	<rect x="-81.2" y="-6.4" width="2" height="10"/>
	<rect x="-106.2" y="18.6" width="10" height="2"/>
	<rect x="-70.7" y="3.9" transform="matrix(0.7071 -0.7071 0.7071 0.7071 -22.6308 -44.9098)" width="10.4" height="2"/>
	<rect x="-95.9" y="-0.3" transform="matrix(0.7071 -0.7071 0.7071 0.7071 -31.247 -65.7004)" width="2" height="10.4"/>
	<path d="M-76.2,33.6h-24v2h24c2.2,0,4,1.8,4,4s-1.8,4-4,4v2c3.3,0,6-2.7,6-6C-70.2,36.3-72.9,33.6-76.2,33.6z"/>
	<path d="M-64.2,29.6L-64.2,29.6l0,2h5.5v-0.1c2.5-0.3,4.5-2.4,4.5-4.9c0-2.8-2.2-5-5-5v2c1.7,0,3,1.3,3,3s-1.3,3-3,3
		c0,0-0.1,0-0.1,0L-64.2,29.6C-64.2,29.6-64.2,29.6-64.2,29.6z"/>
	<path d="M-55.2,33.6h-13v2h9c0,0,0,0,0,0h3.9c0,0,0.1,0,0.1,0c1.7,0,3,1.3,3,3s-1.3,3-3,3v2c2.8,0,5-2.2,5-5S-52.5,33.6-55.2,33.6z
		"/>
	<path d="M-88.5,29.6h-11.7v2h12h0.8h15.2c3.3,0,6-2.7,6-6c0-3.3-2.7-6-6-6v2c2.2,0,4,1.8,4,4s-1.8,4-4,4h-12.5
		c-3.8-1.7-6.5-5.6-6.5-10c0-6.1,4.9-11,11-11c5.4,0,9.9,3.9,10.8,9h2c-1-6.2-6.3-11-12.8-11c-7.2,0-13,5.8-13,13
		C-93.2,23.6-91.4,27.2-88.5,29.6z"/>
</g>
<g>
	<path class="st0" d="M24,27H0v2h24c2.2,0,4,1.8,4,4s-1.8,4-4,4v2c3.3,0,6-2.7,6-6S27.3,27,24,27z"/>
	<path class="st0" d="M41.5,25L41.5,25c2.5-0.3,4.5-2.4,4.5-5c0-2.8-2.2-5-5-5v2c1.7,0,3,1.3,3,3s-1.3,3-3,3c0,0-0.1,0-0.1,0H36
		c0,0,0,0,0,0h0v2H41.5z"/>
	<path class="st0" d="M45,27H32v2h9c0,0,0,0,0,0h3.9c0,0,0.1,0,0.1,0c1.7,0,3,1.3,3,3c0,1.7-1.3,3-3,3v2c2.8,0,5-2.2,5-5
		S47.8,27,45,27z"/>
	<path class="st0" d="M12.8,25H28c3.3,0,6-2.7,6-6c0-3.3-2.7-6-6-6v2c2.2,0,4,1.8,4,4s-1.8,4-4,4H15.4c-2.6-1.2-4.7-3.3-5.7-6
		c0.8,0.2,1.7,0.3,2.6,0.3c6.2,0,11.2-5,11.2-11.2c0-1.3-0.2-2.5-0.6-3.7c4,1.1,7.2,4.5,7.9,8.6h2C31.9,4.8,26.5,0,20,0
		c-0.3,0-0.5,0-0.8,0c1.4,1.6,2.3,3.7,2.3,6.1c0,5.1-4.1,9.2-9.2,9.2c-2,0-3.8-0.6-5.3-1.7c0.2,3.8,2,7.2,4.7,9.4H0v2h12L12.8,25
		L12.8,25z"/>
</g>
<g>
	<path d="M-695.8,112.2h-20c-1.1,0-2-0.9-2-2s0.9-2,2-2h3.4h0.6v-2h-4c-2.2,0-4,1.8-4,4s1.8,4,4,4h20c2.2,0,4,1.8,4,4s-1.8,4-4,4v2
		c3.3,0,6-2.7,6-6C-689.8,114.9-692.5,112.2-695.8,112.2z"/>
	<path d="M-693.8,96.2v2c2.2,0,4,1.8,4,4s-1.8,4-4,4h-16v2h16c3.3,0,6-2.7,6-6C-687.8,98.9-690.5,96.2-693.8,96.2z"/>
	<path d="M-687.8,108.2v2h5.5v-0.1c2.5-0.3,4.5-2.4,4.5-4.9c0-2.8-2.2-5-5-5v2c1.7,0,3,1.3,3,3s-1.3,3-3,3c0,0-0.1,0-0.1,0
		L-687.8,108.2C-687.8,108.2-687.8,108.2-687.8,108.2L-687.8,108.2z"/>
	<path d="M-676.8,112.2h-11v2h7c0,0,0,0,0,0h3.9c0,0,0.1,0,0.1,0c1.7,0,3,1.3,3,3s-1.3,3-3,3v2c2.8,0,5-2.2,5-5
		S-674,112.2-676.8,112.2z"/>
</g>
<path d="M-159.5,98.6L-159.5,98.6l-38.4,0c-1.1,0-2-0.9-2-2s0.9-2,2-2h33c2.8,0,5-2.2,5-5s-2.2-5-5-5h-37.9v0c0,0-0.1,0-0.1,0
	c-2.8,0-5,2.2-5,5s2.2,5,5,5v-2c-1.7,0-3-1.3-3-3s1.3-3,3-3h0.1h3.9h34c1.7,0,3,1.3,3,3s-1.3,3-3,3h-33c-2.2,0-4,1.8-4,4s1.8,4,4,4
	h38c1.1,0,2,0.9,2,2s-0.9,2-2,2h-32c-2.2,0-4,1.8-4,4s1.8,4,4,4h22c1.1,0,2,0.9,2,2s-0.9,2-2,2h-24v0c-2.2,0-4,1.8-4,4s1.8,4,4,4v0
	h12c1.1,0,2,0.9,2,2s-0.9,2-2,2h-2c-2.2,0-4,1.8-4,4s1.8,4,4,4v-2c-1.1,0-2-0.9-2-2s0.9-2,2-2h2c2.2,0,4-1.8,4-4s-1.8-4-4-4h-12
	c-1.1,0-2-0.9-2-2s0.9-2,2-2h24c2.2,0,4-1.8,4-4c0-2.2-1.7-3.9-3.8-4v0h-22.2c-1.1,0-2-0.9-2-2s0.9-2,2-2h32c2.2,0,4-1.8,4-4
	C-155.9,100.4-157.5,98.7-159.5,98.6z"/>
<path d="M25.9,89.2v-2h-2v2c-13,0.5-23.5,11-24,24h1.7c1.1-1.2,2.7-2,4.6-2c2.3,0,4.2,1.2,5.3,3h1.8c1.1-1.8,3.1-3,5.3-3
	c2.2,0,4.1,1.1,5.2,2.9v15.1c0,2.2,1.8,4,4,4s4-1.8,4-4h-2c0,1.1-0.9,2-2,2s-2-0.9-2-2v-15.1c1.1-1.7,3-2.9,5.2-2.9
	c2.3,0,4.2,1.2,5.3,3h1.8c1.1-1.8,3.1-3,5.3-3c1.8,0,3.4,0.8,4.6,2h1.7C49.4,100.2,38.9,89.7,25.9,89.2z M43.7,109.2
	c-2.5,0-4.7,1.1-6.2,2.9c-1.5-1.8-3.8-2.9-6.2-2.9s-4.7,1.1-6.2,2.9c-1.5-1.8-3.8-2.9-6.2-2.9s-4.7,1.1-6.2,2.9
	c-1.5-1.8-3.8-2.9-6.2-2.9c-1.4,0-2.7,0.4-3.9,1c1.9-10.8,11.3-19,22.6-19s20.7,8.2,22.6,19C46.4,109.6,45.1,109.2,43.7,109.2z"/>
<g>
	<path d="M-379.4,213.5v-17.1c0-2.8-2.2-5-5-5s-5,2.2-5,5v17.1c-1.2,1.3-2,3-2,4.9c0,3.9,3.1,7,7,7s7-3.1,7-7
		C-377.4,216.5-378.1,214.8-379.4,213.5z M-384.4,223.4c-2.8,0-5-2.2-5-5c0-1.3,0.5-2.6,1.4-3.5l0.6-0.6v-0.8v-17.1c0-1.7,1.3-3,3-3
		s3,1.3,3,3v17.1v0.8l0.6,0.6c0.9,0.9,1.4,2.2,1.4,3.5C-379.4,221.2-381.6,223.4-384.4,223.4z"/>
	<path d="M-383.4,215.6v-15.2h-2v15.2c-1.2,0.4-2,1.5-2,2.8c0,1.7,1.3,3,3,3c1.7,0,3-1.3,3-3C-381.4,217.1-382.2,216-383.4,215.6z
		 M-384.4,219.4c-0.6,0-1-0.5-1-1s0.5-1,1-1s1,0.5,1,1S-383.8,219.4-384.4,219.4z"/>
</g>
<g>
	<path d="M-279.6,213.5v-17.1c0-2.8-2.2-5-5-5s-5,2.2-5,5v17.1c-1.2,1.3-2,3-2,4.9c0,3.9,3.1,7,7,7s7-3.1,7-7
		C-277.6,216.5-278.3,214.8-279.6,213.5z M-284.6,223.4c-2.8,0-5-2.2-5-5c0-1.3,0.5-2.6,1.4-3.5l0.6-0.6v-0.8v-17.1c0-1.7,1.3-3,3-3
		s3,1.3,3,3v17.1v0.8l0.6,0.6c0.9,0.9,1.4,2.2,1.4,3.5C-279.6,221.2-281.8,223.4-284.6,223.4z"/>
	<path d="M-283.6,215.6v-20.2h-2v20.2c-1.2,0.4-2,1.5-2,2.8c0,1.7,1.3,3,3,3c1.7,0,3-1.3,3-3C-281.6,217.1-282.4,216-283.6,215.6z
		 M-284.6,219.4c-0.6,0-1-0.5-1-1s0.5-1,1-1s1,0.5,1,1S-284,219.4-284.6,219.4z"/>
</g>
<g>
	<path d="M-482.5,213.5v-17.1c0-2.8-2.2-5-5-5s-5,2.2-5,5v17.1c-1.2,1.3-2,3-2,4.9c0,3.9,3.1,7,7,7s7-3.1,7-7
		C-480.5,216.5-481.2,214.8-482.5,213.5z M-487.5,223.4c-2.8,0-5-2.2-5-5c0-1.3,0.5-2.6,1.4-3.5l0.6-0.6v-0.8v-17.1c0-1.7,1.3-3,3-3
		s3,1.3,3,3v17.1v0.8l0.6,0.6c0.9,0.9,1.4,2.2,1.4,3.5C-482.5,221.2-484.7,223.4-487.5,223.4z"/>
	<path d="M-486.5,215.6v-10.2h-2v10.2c-1.2,0.4-2,1.5-2,2.8c0,1.7,1.3,3,3,3c1.7,0,3-1.3,3-3C-484.5,217.1-485.3,216-486.5,215.6z
		 M-487.5,219.4c-0.6,0-1-0.5-1-1s0.5-1,1-1s1,0.5,1,1S-486.9,219.4-487.5,219.4z"/>
</g>
<g>
	<path d="M-586.1,213.5v-17.1c0-2.8-2.2-5-5-5s-5,2.2-5,5v17.1c-1.2,1.3-2,3-2,4.9c0,3.9,3.1,7,7,7s7-3.1,7-7
		C-584.1,216.5-584.9,214.8-586.1,213.5z M-591.1,223.4c-2.8,0-5-2.2-5-5c0-1.3,0.5-2.6,1.4-3.5l0.6-0.6v-0.8v-17.1c0-1.7,1.3-3,3-3
		s3,1.3,3,3v17.1v0.8l0.6,0.6c0.9,0.9,1.4,2.2,1.4,3.5C-586.1,221.2-588.4,223.4-591.1,223.4z"/>
	<path d="M-590.1,215.6v-5.2h-2v5.2c-1.2,0.4-2,1.5-2,2.8c0,1.7,1.3,3,3,3c1.7,0,3-1.3,3-3C-588.1,217.1-589,216-590.1,215.6z
		 M-591.1,219.4c-0.6,0-1-0.5-1-1s0.5-1,1-1s1,0.5,1,1S-590.6,219.4-591.1,219.4z"/>
</g>
<g>
	<path d="M-690.8,213.5v-17.1c0-2.8-2.2-5-5-5s-5,2.2-5,5v17.1c-1.2,1.3-2,3-2,4.9c0,3.9,3.1,7,7,7s7-3.1,7-7
		C-688.8,216.5-689.5,214.8-690.8,213.5z M-695.8,223.4c-2.8,0-5-2.2-5-5c0-1.3,0.5-2.6,1.4-3.5l0.6-0.6v-0.8v-17.1c0-1.7,1.3-3,3-3
		s3,1.3,3,3v17.1v0.8l0.6,0.6c0.9,0.9,1.4,2.2,1.4,3.5C-690.8,221.2-693,223.4-695.8,223.4z"/>
	<path d="M-695.8,215.4c-1.7,0-3,1.3-3,3c0,1.7,1.3,3,3,3c1.7,0,3-1.3,3-3C-692.8,216.8-694.1,215.4-695.8,215.4z M-695.8,219.4
		c-0.6,0-1-0.5-1-1s0.5-1,1-1s1,0.5,1,1S-695.2,219.4-695.8,219.4z"/>
</g>
<g>
	<path d="M-190.9,193.7c-2.2,0-4,1.8-4,4c0,2.2,1.8,4,4,4c2.2,0,4-1.8,4-4C-186.9,195.5-188.6,193.7-190.9,193.7z M-190.9,199.7
		c-1.1,0-2-0.9-2-2s0.9-2,2-2s2,0.9,2,2S-189.8,199.7-190.9,199.7z"/>
	<path d="M-176.9,221.7c-4.4,0-8-3.6-8-8v-4c0-4.4,3.6-8,8-8c2.7,0,5.1,1.4,6.6,3.4l1.4-1.4c-1.8-2.4-4.7-4-8-4c-5.5,0-10,4.5-10,10
		v4c0,5.5,4.5,10,10,10c3.3,0,6.2-1.6,8-4l-1.4-1.4C-171.7,220.4-174.1,221.7-176.9,221.7z"/>
</g>
<g>
	<path d="M-86.2,193.6c-2.2,0-4,1.8-4,4c0,2.2,1.8,4,4,4c2.2,0,4-1.8,4-4C-82.2,195.4-83.9,193.6-86.2,193.6z M-86.2,199.6
		c-1.1,0-2-0.9-2-2s0.9-2,2-2s2,0.9,2,2S-85.1,199.6-86.2,199.6z"/>
	<polygon points="-66.3,201.7 -66.3,199.7 -78.3,199.7 -80.3,199.7 -80.3,223.7 -78.3,223.7 -78.3,211.7 -70.3,211.7 -70.3,209.7 
		-78.3,209.7 -78.3,201.7 	"/>
</g>
<g>
	<path d="M24.9,197.4c-7.2,0-13,5.8-13,13s5.8,13,13,13s13-5.8,13-13S32.1,197.4,24.9,197.4z M24.9,221.4c-6.1,0-11-4.9-11-11
		s4.9-11,11-11s11,4.9,11,11S31,221.4,24.9,221.4z"/>
	<path d="M20.7,214.7l6.4-2.1l2.1-6.4l-6.4,2.1L20.7,214.7z M24.4,209.9l1.6-0.5l-0.5,1.6l-1.6,0.5L24.4,209.9z"/>
</g>
<g>
	<path d="M-695.8,287.9c-7.2,0-13,5.8-13,13s5.8,13,13,13s13-5.8,13-13S-688.6,287.9-695.8,287.9z M-695.8,311.9
		c-6.1,0-11-4.9-11-11c0-6.1,4.9-11,11-11s11,4.9,11,11C-684.8,307-689.7,311.9-695.8,311.9z"/>
	<path d="M-693.2,299.4l-2.6-4.4l-2.5,4.3h0c-0.3,0.5-0.5,1-0.5,1.6c0,1.7,1.3,3,3,3s3-1.3,3-3C-692.8,300.3-693,299.8-693.2,299.4
		L-693.2,299.4z M-695.8,301.9c-0.6,0-1-0.4-1-1c0-0.2,0.1-0.4,0.2-0.5l0.9-1.4l0.8,1.4c0.1,0.2,0.1,0.3,0.1,0.5
		C-694.8,301.4-695.3,301.9-695.8,301.9z"/>
</g>
<g>
	<path d="M-591,287.9c-7.2,0-13,5.8-13,13s5.8,13,13,13s13-5.8,13-13S-583.8,287.9-591,287.9z M-591,311.9c-6.1,0-11-4.9-11-11
		c0-6.1,4.9-11,11-11s11,4.9,11,11C-580,307-584.9,311.9-591,311.9z"/>
	<path d="M-589.4,298.4c-0.5-0.3-1-0.5-1.6-0.5c-1.7,0-3,1.3-3,3c0,1.7,1.3,3,3,3c0.6,0,1.1-0.2,1.5-0.4v0l4.4-2.6L-589.4,298.4
		L-589.4,298.4L-589.4,298.4z M-590.5,301.7c-0.2,0.1-0.3,0.1-0.5,0.1c-0.6,0-1-0.4-1-1c0-0.6,0.4-1,1-1c0.2,0,0.4,0.1,0.5,0.2
		l1.4,0.9L-590.5,301.7z"/>
</g>
<g>
	<path d="M-487.9,287.9c-7.2,0-13,5.8-13,13s5.8,13,13,13s13-5.8,13-13S-480.8,287.9-487.9,287.9z M-487.9,311.9
		c-6.1,0-11-4.9-11-11c0-6.1,4.9-11,11-11s11,4.9,11,11C-476.9,307-481.9,311.9-487.9,311.9z"/>
	<path d="M-487.9,297.9c-1.7,0-3,1.3-3,3c0,0.6,0.2,1.1,0.4,1.5h0l2.6,4.4l2.5-4.3h0c0.3-0.5,0.5-1,0.5-1.6
		C-484.9,299.2-486.3,297.9-487.9,297.9z M-487.1,301.4l-0.9,1.4l-0.8-1.4c-0.1-0.2-0.1-0.3-0.1-0.5c0-0.6,0.4-1,1-1s1,0.4,1,1
		C-486.9,301.1-487,301.2-487.1,301.4z"/>
</g>
<g>
	<path d="M-384.5,287.9c-7.2,0-13,5.8-13,13s5.8,13,13,13s13-5.8,13-13S-377.4,287.9-384.5,287.9z M-384.5,311.9
		c-6.1,0-11-4.9-11-11c0-6.1,4.9-11,11-11s11,4.9,11,11C-373.5,307-378.5,311.9-384.5,311.9z"/>
	<path d="M-384.6,297.9c-0.6,0-1.1,0.2-1.5,0.4v0l-4.4,2.6l4.3,2.5v0c0.5,0.3,1,0.5,1.6,0.5c1.7,0,3-1.3,3-3
		C-381.6,299.2-382.9,297.9-384.6,297.9z M-384.6,301.9c-0.2,0-0.4-0.1-0.5-0.2l-1.4-0.9l1.4-0.8c0.2-0.1,0.3-0.1,0.5-0.1
		c0.6,0,1,0.4,1,1C-383.6,301.4-384,301.9-384.6,301.9z"/>
</g>
<g>
	<rect x="-592.7" y="91.2" width="2" height="10"/>
	<rect x="-582.2" y="101.5" transform="matrix(0.7071 -0.7071 0.7071 0.7071 -241.4736 -377.9637)" width="10.4" height="2"/>
	<rect x="-607.4" y="97.3" transform="matrix(0.7071 -0.7071 0.7071 0.7071 -250.0898 -398.7543)" width="2" height="10.4"/>
	<polygon points="-598.4,120.5 -596.9,121.9 -592.7,117.6 -592.7,127.2 -590.7,127.2 -590.7,117.6 -586.4,121.9 -585,120.5 
		-591.7,113.8 	"/>
	<path d="M-578.7,117.2C-578.7,117.2-578.7,117.2-578.7,117.2c0-7.2-5.8-13-13-13s-13,5.8-13,13c0,0,0,0,0,0h-13v2h18v-2h-3
		c0,0,0,0,0,0c0-6.1,4.9-11,11-11s11,4.9,11,11c0,0,0,0,0,0h-3v2h18v-2H-578.7z"/>
</g>
<g>
	<rect x="-488.9" y="90" width="2" height="10"/>
	<rect x="-478.4" y="100.3" transform="matrix(0.7071 -0.7071 0.7071 0.7071 -210.2471 -304.9532)" width="10.4" height="2"/>
	<rect x="-503.6" y="96.1" transform="matrix(0.7071 -0.7071 0.7071 0.7071 -218.8633 -325.7439)" width="2" height="10.4"/>
	<polygon points="-486.9,124.6 -486.9,114 -488.9,114 -488.9,124.6 -493.2,120.3 -494.6,121.7 -487.9,128.4 -481.3,121.7 
		-482.7,120.3 	"/>
	<path d="M-474.9,116C-474.9,116-474.9,116-474.9,116c0-7.2-5.8-13-13-13s-13,5.8-13,13c0,0,0,0,0,0h-13v2h22v-2h-7c0,0,0,0,0,0
		c0-6.1,4.9-11,11-11s11,4.9,11,11c0,0,0,0,0,0h-7v2h22v-2H-474.9z"/>
</g>
<g>
	<polygon points="-284.6,124 -284.6,109.7 -286.6,109.7 -286.6,124 -290.8,119.8 -292.2,121.2 -285.6,127.9 -278.9,121.2 
		-280.3,119.8 	"/>
	<path d="M-269,104.7c-1.6-7.4-8.2-13-16.1-13c-6.4,0-12,3.7-14.7,9c-0.3,0-0.5,0-0.8,0c-6.6,0-12,5.4-12,12c0,6.6,5.3,12,11.9,12v0
		h6.1v-2h-5.6l-0.4,0c-5.5,0-9.9-4.5-9.9-10c0-5.5,4.5-10,10-10c0.2,0,0.3,0,0.5,0l0.1,0l1.3,0.1l0.6-1.2c2.5-4.9,7.4-7.9,12.9-7.9
		c6.8,0,12.8,4.8,14.2,11.4l0.3,1.5l1.5,0.1c4.2,0.3,7.5,3.8,7.5,8c0,4.4-3.6,8-8,8c0,0-0.1,0-0.1,0l-2,0h-4.9v2h6.9v0
		c0,0,0.1,0,0.1,0c5.5,0,10-4.5,10-10C-259.6,109.3-263.7,105-269,104.7z"/>
</g>
<g>
	<polygon points="-378.6,120.8 -377.2,119.4 -383.9,112.8 -390.5,119.4 -389.1,120.8 -384.9,116.6 -384.9,129.2 -382.9,129.2 
		-382.9,116.6 	"/>
	<path d="M-367.2,106.3c-1.6-7.4-8.2-13-16.1-13c-6.4,0-12,3.7-14.7,9c-0.3,0-0.5,0-0.8,0c-6.6,0-12,5.4-12,12c0,6.6,5.3,12,11.9,12
		v0h10.1v-2h-9.6l-0.4,0c-5.5,0-9.9-4.5-9.9-10c0-5.5,4.5-10,10-10c0.2,0,0.3,0,0.5,0l0.1,0l1.3,0.1l0.6-1.2
		c2.5-4.9,7.4-7.9,12.9-7.9c6.8,0,12.8,4.8,14.2,11.4l0.3,1.5l1.5,0.1c4.2,0.3,7.5,3.8,7.5,8c0,4.4-3.6,8-8,8c0,0-0.1,0-0.1,0l-2,0
		h-8.9v2h10.9v0c0,0,0.1,0,0.1,0c5.5,0,10-4.5,10-10C-357.9,110.9-362,106.6-367.2,106.3z"/>
</g>
<g>
	<path d="M-164.7-83.2c-1.6-7.4-8.2-13-16.1-13c-6.4,0-12,3.7-14.7,9c-0.3,0-0.5,0-0.8,0c-6.6,0-12,5.4-12,12c0,6.6,5.3,12,11.9,12
		v0h2.1v-2h-1.6l-0.4,0c-5.5,0-9.9-4.5-9.9-10c0-5.5,4.5-10,10-10c0.2,0,0.3,0,0.5,0l0.1,0l1.3,0.1l0.6-1.2
		c2.5-4.9,7.4-7.9,12.9-7.9c6.8,0,12.8,4.8,14.2,11.4l0.3,1.5l1.5,0.1c4.2,0.3,7.5,3.8,7.5,8c0,4.4-3.6,8-8,8c-0.1,0-0.1,0-0.1,0
		l-2,0h-0.9v2h2.9v0c0,0,0.1,0,0.1,0c5.5,0,10-4.5,10-10C-155.4-78.6-159.5-82.9-164.7-83.2z"/>
	<polygon points="-186.4,-64.3 -186.4,-66.9 -184.2,-65.7 -183.5,-66.9 -186,-68.3 -183.5,-69.7 -184.2,-70.9 -186.4,-69.7 
		-186.4,-72.3 -188.4,-72.3 -188.4,-69.6 -190.6,-70.9 -191.3,-69.7 -188.8,-68.3 -191.3,-66.9 -190.6,-65.7 -188.4,-66.9 
		-188.4,-64.3 	"/>
	<polygon points="-181.2,-59.9 -183.4,-58.7 -183.4,-61.3 -185.4,-61.3 -185.4,-58.6 -187.6,-59.9 -188.3,-58.7 -185.8,-57.3 
		-188.3,-55.9 -187.6,-54.7 -185.4,-55.9 -185.4,-53.3 -183.4,-53.3 -183.4,-55.9 -181.2,-54.7 -180.5,-55.9 -183,-57.3 
		-180.5,-58.7 	"/>
	<polygon points="-172.2,-66.9 -174.4,-65.7 -174.4,-68.3 -176.4,-68.3 -176.4,-65.6 -178.6,-66.9 -179.3,-65.7 -176.8,-64.3 
		-179.3,-62.9 -178.6,-61.7 -176.4,-62.9 -176.4,-60.3 -174.4,-60.3 -174.4,-62.9 -172.2,-61.7 -171.5,-62.9 -174,-64.3 
		-171.5,-65.7 	"/>
</g>
<g>
	<rect x="-89.2" y="-101.3" width="2" height="8"/>
	<rect x="-108.2" y="-82.4" width="8" height="2"/>
	<rect x="-100.6" y="-96.6" transform="matrix(0.7071 -0.7071 0.7071 0.7071 36.3471 -97.5347)" width="2" height="8"/>
	<rect x="-81" y="-93.6" transform="matrix(0.7071 -0.7071 0.7071 0.7071 42.9406 -81.6082)" width="8" height="2"/>
	<path d="M-58.7-75.5c-1.4-6.7-7.4-11.8-14.6-11.8c-2.2,0-4.3,0.5-6.1,1.3c-1.7-3.2-5-5.4-8.9-5.4c-5.5,0-10,4.5-10,10
		c0,2.5,0.9,4.7,2.4,6.4c-1.4,1.8-2.3,4.1-2.3,6.7c0,6,4.8,10.8,10.8,10.9v0h1.2v-2h-0.7l-0.5,0c-4.9,0-8.8-4-8.8-8.9
		c0-4.9,4-8.9,8.9-8.9c0.2,0,0.3,0,0.4,0l0.1,0l1.3,0.1l0.6-1.2c2.2-4.4,6.6-7.1,11.5-7.1c6.1,0,11.4,4.3,12.6,10.2l0.3,1.5l1.5,0.1
		c3.7,0.2,6.6,3.3,6.6,7c0,3.9-3.1,7-7,7.1c0,0-0.1,0-0.1,0l-1.9,0v2h1.8v0c0,0,0.1,0,0.1,0c5,0,9.1-4.1,9.1-9.1
		C-50.2-71.3-54-75.2-58.7-75.5z M-86.6-79.1c-0.2,0-0.5,0-0.7,0c-2.8,0-5.3,1-7.2,2.7c-1.1-1.4-1.8-3.1-1.8-5c0-4.4,3.6-8,8-8
		c3.1,0,5.8,1.8,7.1,4.3C-83.5-83.6-85.4-81.5-86.6-79.1z"/>
	<polygon points="-79.2,-58.4 -79.2,-61 -77.1,-59.8 -76.4,-61 -78.8,-62.4 -76.4,-63.8 -77.1,-65 -79.2,-63.8 -79.2,-66.4 
		-81.2,-66.4 -81.2,-63.8 -83.5,-65 -84.2,-63.8 -81.7,-62.4 -84.2,-61 -83.5,-59.8 -81.2,-61.1 -81.2,-58.4 	"/>
	<polygon points="-74.1,-54 -76.2,-52.8 -76.2,-55.4 -78.2,-55.4 -78.2,-52.8 -80.5,-54 -81.2,-52.8 -78.7,-51.4 -81.2,-50 
		-80.5,-48.8 -78.2,-50.1 -78.2,-47.4 -76.2,-47.4 -76.2,-50 -74.1,-48.8 -73.4,-50 -75.9,-51.4 -73.4,-52.8 	"/>
	<polygon points="-65.1,-61 -67.2,-59.8 -67.2,-62.4 -69.2,-62.4 -69.2,-59.8 -71.5,-61 -72.2,-59.8 -69.7,-58.4 -72.2,-57 
		-71.5,-55.8 -69.2,-57.1 -69.2,-54.4 -67.2,-54.4 -67.2,-57 -65.1,-55.8 -64.4,-57 -66.8,-58.4 -64.4,-59.8 	"/>
</g>
<g>
	<path d="M41.5-78.5C40-85.2,34-90.3,26.9-90.3c-1.8,0-3.5,0.3-5.1,0.9c-0.9-5.1-5.4-9-10.8-9c-0.4,0-0.8,0-1.2,0.1
		c0.7,1.1,1.2,2.4,1.2,3.9c0,3.9-3.1,7-7,7c-1.4,0-2.8-0.4-3.9-1.2C0-88.2,0-87.8,0-87.4c0,3.7,1.8,7,4.7,9C3-76.5,2-74,2-71.3
		c0,6,4.8,10.8,10.8,10.9v0H14v-2h-0.7l-0.5,0c-4.9,0-8.8-4-8.8-8.9c0-4.9,4-8.9,8.9-8.9c0.1,0,0.3,0,0.4,0l0.1,0l1.3,0.1l0.6-1.2
		c2.2-4.4,6.6-7.1,11.5-7.1c6.1,0,11.4,4.3,12.6,10.2l0.3,1.5l1.5,0.1c3.7,0.2,6.6,3.3,6.6,7c0,3.9-3.1,7-7,7.1c0,0-0.1,0-0.1,0
		l-1.9,0v2h1.8v0c0,0,0.1,0,0.1,0c5,0,9.1-4.1,9.1-9.1C50-74.3,46.2-78.2,41.5-78.5z M13.6-82.1c-0.2,0-0.5,0-0.7,0
		c-2.5,0-4.9,0.9-6.7,2.3c-2-1.3-3.5-3.4-4-5.8c0.6,0.1,1.2,0.2,1.8,0.2c5,0,9-4,9-9c0-0.6-0.1-1.2-0.2-1.8c3.7,0.8,6.6,3.8,7.1,7.6
		C17.2-87.1,15-84.9,13.6-82.1z"/>
	<polygon points="21,-61.4 21,-64 23.2,-62.8 23.9,-64 21.4,-65.4 23.9,-66.8 23.2,-68 21,-66.8 21,-69.4 19,-69.4 19,-66.8 
		16.8,-68 16.1,-66.8 18.5,-65.4 16.1,-64 16.8,-62.8 19,-64.1 19,-61.4 	"/>
	<polygon points="26.2,-57 24,-55.8 24,-58.4 22,-58.4 22,-55.8 19.7,-57 19.1,-55.8 21.5,-54.4 19.1,-53 19.7,-51.8 22,-53.1 
		22,-50.4 24,-50.4 24,-53 26.2,-51.8 26.9,-53 24.4,-54.4 26.9,-55.8 	"/>
	<polygon points="35.2,-64 33,-62.8 33,-65.4 31,-65.4 31,-62.8 28.8,-64 28.1,-62.8 30.5,-61.4 28.1,-60 28.8,-58.8 31,-60.1 
		31,-57.4 33,-57.4 33,-60 35.2,-58.8 35.9,-60 33.4,-61.4 35.9,-62.8 	"/>
</g>
<rect x="-574.9" y="-646.3" class="st1" width="473" height="180.9"/>
<text transform="matrix(1 0 0 1 -395.2417 -574.855)" style="font-family:'Helvetica'; font-size:100px; letter-spacing:2;">60</text>
<text transform="matrix(1 0 0 1 -494.5097 -514.855)" style="font-family:'Helvetica'; font-size:48px;">Weather Icons</text>
<text transform="matrix(1 0 0 1 -398.9677 -470.855)" style="font-family:'Helvetica'; font-size:24px;">IOS 7 Style</text>
</svg>
