<?xml version="1.0" encoding="utf-8"?>
<!-- Generator: Adobe Illustrator 25.0.1, SVG Export Plug-In . SVG Version: 6.00 Build 0)  -->
<svg version="1.1" id="Layer_1" xmlns="http://www.w3.org/2000/svg" xmlns:xlink="http://www.w3.org/1999/xlink" x="0px" y="0px"
	 viewBox="0 0 52 52" style="enable-background:new 0 0 52 52;" xml:space="preserve">
<g>
	<path d="M26,13c-7.2,0-13,5.8-13,13s5.8,13,13,13s13-5.8,13-13S33.2,13,26,13z M26,37c-6.1,0-11-4.9-11-11s4.9-11,11-11
		s11,4.9,11,11S32.1,37,26,37z"/>
	<rect x="25" width="2" height="10"/>
	<rect x="25" y="42" width="2" height="10"/>
	<rect y="25" width="10" height="2"/>
	<rect x="42" y="25" width="10" height="2"/>
	<rect x="35.5" y="10.3" transform="matrix(0.7071 -0.7071 0.7071 0.7071 3.9372 32.0898)" width="10.4" height="2"/>
	<rect x="6.1" y="39.7" transform="matrix(0.7071 -0.7071 0.7071 0.7071 -25.463 19.9043)" width="10.4" height="2"/>
	<rect x="10.3" y="6.1" transform="matrix(0.7071 -0.7071 0.7071 0.7071 -4.6739 11.2968)" width="2" height="10.4"/>
	<rect x="39.7" y="35.5" transform="matrix(0.7071 -0.7072 0.7072 0.7071 -16.8568 40.7051)" width="2" height="10.4"/>
</g>
</svg>
