<?xml version="1.0" encoding="utf-8"?>
<!-- Generator: Adobe Illustrator 25.0.1, SVG Export Plug-In . SVG Version: 6.00 Build 0)  -->
<svg version="1.1" id="Layer_1" xmlns="http://www.w3.org/2000/svg" xmlns:xlink="http://www.w3.org/1999/xlink" x="0px" y="0px"
	 viewBox="0 0 50 38" style="enable-background:new 0 0 50 38;" xml:space="preserve">
<style type="text/css">
	.st0{fill:none;}
</style>
<path d="M235.9,467.8l-1.8,15.1l-0.3,2.2h2.3h6.9l-14.7,18.8l1.8-14.5l0.3-2.2H228h-7L235.9,467.8 M238.7,460.7L217,489.1h11
	l-2.7,21.7l21.7-27.7h-11L238.7,460.7L238.7,460.7z"/>
<path d="M-177.2,5.5c6.8,0,12.7,4.8,14.2,11.4l0.3,1.5l1.5,0.1c4.2,0.3,7.5,3.8,7.5,8c0,4.4-3.6,8-8,8h-0.1h-2l0,0h-28.3h-0.6
	c-5.5,0-9.9-4.5-9.9-10s4.5-10,10-10c0.2,0,0.3,0,0.5,0h0.1l1.3,0.1l0.6-1.2C-187.6,8.5-182.7,5.5-177.2,5.5 M-177.2,3.5
	c-6.4,0-12,3.7-14.7,9c-0.3,0-0.5,0-0.8,0c-6.6,0-12,5.4-12,12s5.3,12,11.9,12l0,0h30.9l0,0h0.1c5.5,0,10-4.5,10-10
	c0-5.3-4.1-9.6-9.4-10C-162.7,9.1-169.3,3.5-177.2,3.5L-177.2,3.5z"/>
<g>
	<path d="M-54.2,23.9c-1.4-6.7-7.4-11.8-14.6-11.8c-2.2,0-4.3,0.5-6.1,1.3c-1.7-3.2-5-5.4-8.9-5.4c-5.5,0-10,4.5-10,10
		c0,2.5,0.9,4.7,2.4,6.4c-1.4,1.8-2.3,4.1-2.3,6.7c0,6,4.8,10.8,10.8,10.9l0,0h28l0,0h0.1c5,0,9.1-4.1,9.1-9.1
		C-45.7,28.1-49.5,24.2-54.2,23.9z M-83.8,10c3.1,0,5.8,1.8,7.1,4.3c-2.3,1.4-4.2,3.5-5.4,5.9c-0.2,0-0.5,0-0.7,0
		c-2.8,0-5.3,1-7.2,2.7c-1.1-1.4-1.8-3.1-1.8-5C-91.8,13.6-88.2,10-83.8,10z M-54.8,40L-54.8,40h-2.1l0,0h-25.4h-0.6
		c-4.9,0-8.8-4-8.8-8.9s4-8.9,8.9-8.9c0.2,0,0.3,0,0.4,0h0.1l1.3,0.1l0.6-1.2c2.2-4.4,6.6-7.1,11.5-7.1c6.1,0,11.4,4.3,12.7,10.2
		l0.3,1.5l1.5,0.1c3.7,0.2,6.6,3.3,6.6,7C-47.7,36.8-50.9,40-54.8,40z"/>
	<rect x="-84.8" y="-2" width="2" height="8"/>
	<rect x="-103.8" y="17" width="8" height="2"/>
	<rect x="-96.1" y="2.8" transform="matrix(0.7071 -0.7071 0.7071 0.7071 -32.6531 -65.2308)" width="2" height="8"/>
	<rect x="-76.5" y="5.7" transform="matrix(0.7071 -0.7071 0.7071 0.7071 -26.0031 -49.2845)" width="8" height="2"/>
</g>
<path d="M41.5,19.9c-1.4-6.7-7.4-11.8-14.6-11.8c-1.8,0-3.5,0.3-5.1,0.9c-1-5.1-5.4-9-10.8-9c-0.4,0-0.8,0-1.2,0.1
	C10.5,1.2,11,2.5,11,4c0,3.9-3.1,7-7,7c-1.4,0-2.8-0.4-3.9-1.2C0,10.2,0,10.6,0,11c0,3.7,1.8,7,4.7,9C3,21.9,2,24.4,2,27.1
	c0,6,4.8,10.8,10.8,10.9l0,0h28l0,0h0.1c5,0,9.1-4.1,9.1-9.1C50,24.1,46.2,20.2,41.5,19.9z M2.2,12.8C2.8,12.9,3.4,13,4,13
	c5,0,9-4,9-9c0-0.6-0.1-1.2-0.2-1.8C16.5,3,19.4,6,19.9,9.8c-2.7,1.4-4.9,3.7-6.3,6.4c-0.2,0-0.5,0-0.7,0c-2.5,0-4.9,0.9-6.7,2.3
	C4.1,17.3,2.7,15.2,2.2,12.8z M41,36L41,36h-2.1l0,0H13.4h-0.6C8,35.9,4,32,4,27.1s4-8.9,8.9-8.9c0.1,0,0.3,0,0.4,0h0.1l1.3,0.1
	l0.6-1.2c2.2-4.4,6.6-7.1,11.5-7.1c6.1,0,11.4,4.3,12.7,10.2l0.3,1.5l1.5,0.1c3.7,0.2,6.6,3.3,6.6,7C48,32.8,44.9,35.9,41,36z"/>
<g>
	<rect x="126.2" y="28.5" width="2" height="7"/>
	<rect x="134.2" y="24.5" width="2" height="7"/>
	<rect x="118.2" y="24.5" width="2" height="7"/>
	<rect x="126.2" y="38.5" width="2" height="7"/>
	<rect x="134.2" y="34.5" width="2" height="7"/>
	<rect x="118.2" y="34.5" width="2" height="7"/>
	<path d="M144.8,11.5c-1.6-7.4-8.2-13-16.1-13c-6.4,0-12,3.7-14.7,9c-0.3,0-0.5,0-0.8,0c-6.6,0-12,5.4-12,12s5.3,12,11.9,12l0,0h2.1
		v-2h-1.6h-0.4c-5.5,0-9.9-4.5-9.9-10s4.5-10,10-10c0.2,0,0.3,0,0.5,0h0.1l1.3,0.1l0.6-1.2c2.5-4.9,7.4-7.9,12.9-7.9
		c6.8,0,12.8,4.8,14.2,11.4l0.3,1.5l1.5,0.1c4.2,0.3,7.5,3.8,7.5,8c0,4.4-3.6,8-8,8c-0.1,0-0.1,0-0.1,0h-2h-2.9v2h4.9l0,0h0.1
		c5.5,0,10-4.5,10-10C154.2,16.2,150,11.8,144.8,11.5z"/>
</g>
<g>
	<path d="M-57.6,100.9c-1.6-7.4-8.2-13-16.1-13c-6.4,0-12,3.7-14.7,9c-0.3,0-0.5,0-0.8,0c-6.6,0-12,5.4-12,12s5.3,12,11.9,12l0,0
		h2.1v-2h-1.6h-0.4c-5.5,0-9.9-4.5-9.9-10s4.5-10,10-10c0.2,0,0.3,0,0.5,0h0.1l1.3,0.1l0.6-1.2c2.5-4.9,7.4-7.9,12.9-7.9
		c6.8,0,12.8,4.8,14.2,11.4l0.3,1.5l1.5,0.1c4.2,0.3,7.5,3.8,7.5,8c0,4.4-3.6,8-8,8h-0.1h-2h-2.9v2h4.9l0,0h0.1c5.5,0,10-4.5,10-10
		C-48.3,105.5-52.4,101.2-57.6,100.9z"/>
	<polygon points="-76.3,127.9 -76.3,129.8 -76.3,135.9 -74.3,135.9 -74.3,129.8 -74.3,127.9 -74.3,115.9 -76.3,115.9 	"/>
	<polygon points="-68.3,123.9 -68.3,125.6 -68.3,131.9 -66.3,131.9 -66.3,125.6 -66.3,123.9 -66.3,111.9 -68.3,111.9 	"/>
	<polygon points="-84.3,123.9 -84.3,125.9 -84.3,131.9 -82.3,131.9 -82.3,125.9 -82.3,123.9 -82.3,111.9 -84.3,111.9 	"/>
</g>
<g>
	<polygon points="238,124.8 231.1,114.9 229.5,116.1 236.4,125.9 237.5,127.5 241,132.5 242.6,131.3 239.1,126.4 	"/>
	<polygon points="246,124.8 239.1,114.9 237.5,116.1 244.4,125.9 245.4,127.4 249,132.5 250.6,131.3 247,126.2 	"/>
	<polygon points="230,124.8 223.1,114.9 221.5,116.1 228.4,125.9 229.6,127.6 233,132.5 234.6,131.3 231.2,126.5 	"/>
	<path d="M249.1,101.1c-1.6-7.4-8.2-13-16.1-13c-6.4,0-12,3.7-14.7,9c-0.3,0-0.5,0-0.8,0c-6.6,0-12,5.4-12,12s5.3,12,11.9,12l0,0
		h2.1v-2h-1.6h-0.4c-5.5,0-9.9-4.5-9.9-10s4.5-10,10-10c0.2,0,0.3,0,0.5,0h0.1l1.3,0.1l0.6-1.2c2.5-4.9,7.4-7.9,12.9-7.9
		c6.8,0,12.8,4.8,14.2,11.4l0.3,1.5l1.5,0.1c4.2,0.3,7.5,3.8,7.5,8c0,4.4-3.6,8-8,8c-0.1,0-0.1,0-0.1,0h-1h0.1v2h0.9l0,0h0.1
		c5.5,0,10-4.5,10-10C258.5,105.8,254.3,101.5,249.1,101.1z"/>
</g>
<g>
	<rect x="220.8" y="-7.9" width="2" height="8"/>
	<rect x="201.8" y="11" width="8" height="2"/>
	<rect x="209.5" y="-3.3" transform="matrix(0.7071 -0.7071 0.7071 0.7071 61.17 149.0395)" width="2" height="8"/>
	<rect x="229" y="-0.3" transform="matrix(0.7071 -0.7071 0.7071 0.7071 67.7493 164.9566)" width="8" height="2"/>
	<rect x="234.8" y="32.9" width="2" height="7"/>
	<rect x="242.8" y="28.9" width="2" height="7"/>
	<rect x="226.8" y="28.9" width="2" height="7"/>
	<rect x="234.8" y="42.9" width="2" height="7"/>
	<rect x="242.8" y="38.9" width="2" height="7"/>
	<rect x="226.8" y="38.9" width="2" height="7"/>
	<path d="M251.3,17.8C249.9,11.1,243.9,6,236.7,6c-2.2,0-4.3,0.5-6.1,1.3c-1.7-3.2-5-5.4-8.9-5.4c-5.5,0-10,4.5-10,10
		c0,2.5,0.9,4.7,2.4,6.4c-1.4,1.8-2.3,4.1-2.3,6.7c0,6,4.8,10.8,10.8,10.9l0,0h1.2v-2h-0.7h-0.5c-4.9,0-8.8-4-8.8-8.9s4-8.9,8.9-8.9
		c0.1,0,0.3,0,0.4,0h0.1l1.3,0.1l0.6-1.2c2.2-4.4,6.6-7.1,11.5-7.1c6.1,0,11.4,4.3,12.6,10.2l0.3,1.5l1.5,0.1c3.7,0.2,6.6,3.3,6.6,7
		c0,3.9-3.1,7-7,7.1h-0.1h-2h-0.8v2h2.8l0,0h0.1c5,0,9.1-4.1,9.1-9.1C259.8,22.1,256.1,18.1,251.3,17.8z M223.4,14.2
		c-0.2,0-0.5,0-0.7,0c-2.8,0-5.3,1-7.2,2.7c-1.1-1.4-1.8-3.1-1.8-5c0-4.4,3.6-8,8-8c3.1,0,5.8,1.8,7.1,4.3
		C226.5,9.7,224.6,11.8,223.4,14.2z"/>
</g>
<g>
	<rect x="335.2" y="31.5" width="2" height="7"/>
	<rect x="343.2" y="27.5" width="2" height="7"/>
	<rect x="327.2" y="27.5" width="2" height="7"/>
	<rect x="335.2" y="41.5" width="2" height="7"/>
	<rect x="343.2" y="37.5" width="2" height="7"/>
	<rect x="327.2" y="37.5" width="2" height="7"/>
	<path d="M351.7,16.4c-1.4-6.7-7.4-11.8-14.6-11.8c-1.8,0-3.5,0.3-5.1,0.9c-0.9-5.1-5.4-9-10.8-9c-0.4,0-0.8,0-1.2,0.1
		c0.7,1.1,1.2,2.4,1.2,3.9c0,3.9-3.1,7-7,7c-1.4,0-2.8-0.4-3.9-1.2c0,0.4-0.1,0.8-0.1,1.2c0,3.7,1.8,7,4.7,9
		c-1.7,1.9-2.7,4.4-2.7,7.1c0,6,4.8,10.8,10.8,10.9l0,0h1.2v-2h-0.7H323c-4.9,0-8.8-4-8.8-8.9s4-8.9,8.9-8.9c0.1,0,0.3,0,0.4,0h0.1
		l1.3,0.1l0.6-1.2c2.2-4.4,6.6-7.1,11.5-7.1c6.1,0,11.4,4.3,12.6,10.2l0.3,1.5l1.5,0.1c3.7,0.2,6.6,3.3,6.6,7c0,3.9-3.1,7-7,7.1
		h-0.1h-2h-0.8v2h2.8l0,0h0.1c5,0,9.1-4.1,9.1-9.1C360.2,20.6,356.5,16.7,351.7,16.4z M323.8,12.8c-0.2,0-0.5,0-0.7,0
		c-2.5,0-4.9,0.9-6.7,2.3c-2-1.3-3.5-3.4-4-5.8c0.6,0.1,1.2,0.2,1.8,0.2c5,0,9-4,9-9c0-0.6-0.1-1.2-0.2-1.8c3.7,0.8,6.6,3.8,7.1,7.6
		C327.4,7.8,325.2,10,323.8,12.8z"/>
</g>
<g>
	<polygon points="28,132.3 28,134.2 28,140.3 30,140.3 30,134.2 30,132.3 30,120.3 28,120.3 	"/>
	<polygon points="36,128.3 36,130.1 36,136.3 38,136.3 38,130.1 38,128.3 38,116.3 36,116.3 	"/>
	<polygon points="20,128.3 20,130.4 20,136.3 22,136.3 22,130.4 22,128.3 22,116.3 20,116.3 	"/>
	<rect x="14" y="81.4" width="2" height="8"/>
	<rect x="-5" y="100.3" width="8" height="2"/>
	<rect x="2.7" y="86.1" transform="matrix(0.7071 -0.7071 0.7071 0.7071 -62.5877 29.0113)" width="2" height="8"/>
	<rect x="22.2" y="89.1" transform="matrix(0.7071 -0.7071 0.7071 0.7071 -56.0085 44.9284)" width="8" height="2"/>
	<path d="M44.5,107.2c-1.4-6.7-7.4-11.8-14.6-11.8c-2.2,0-4.3,0.5-6.1,1.3c-1.7-3.2-5-5.4-8.9-5.4c-5.5,0-10,4.5-10,10
		c0,2.5,0.9,4.7,2.4,6.4c-1.4,1.8-2.3,4.1-2.3,6.7c0,6,4.8,10.8,10.8,10.9l0,0H17v-2h-0.7h-0.5c-4.9,0-8.8-4-8.8-8.9s4-8.9,8.9-8.9
		c0.2,0,0.3,0,0.4,0h0.1l1.3,0.1l0.6-1.2c2.2-4.4,6.6-7.1,11.5-7.1c6.1,0,11.4,4.3,12.6,10.2l0.3,1.5l1.5,0.1c3.7,0.2,6.6,3.3,6.6,7
		c0,3.9-3.1,7-7,7.1h-0.1h-2H41v2h2.8l0,0h0.1c5,0,9.1-4.1,9.1-9.1C53,111.4,49.2,107.5,44.5,107.2z M16.6,103.6c-0.2,0-0.5,0-0.7,0
		c-2.8,0-5.3,1-7.2,2.7c-1.1-1.4-1.8-3.1-1.8-5c0-4.4,3.6-8,8-8c3.1,0,5.8,1.8,7.1,4.3C19.7,99.1,17.8,101.1,16.6,103.6z"/>
</g>
<g>
	<polygon points="128.4,129.8 128.4,131.7 128.4,137.8 130.4,137.8 130.4,131.7 130.4,129.8 130.4,117.8 128.4,117.8 	"/>
	<polygon points="136.4,125.8 136.4,127.5 136.4,133.8 138.4,133.8 138.4,127.5 138.4,125.8 138.4,113.8 136.4,113.8 	"/>
	<polygon points="120.4,125.8 120.4,127.9 120.4,133.8 122.4,133.8 122.4,127.9 122.4,125.8 122.4,113.8 120.4,113.8 	"/>
	<path d="M144.9,104.7c-1.4-6.7-7.4-11.8-14.6-11.8c-1.8,0-3.5,0.3-5.1,0.9c-0.9-5.1-5.4-9-10.8-9c-0.4,0-0.8,0-1.2,0.1
		c0.7,1.1,1.2,2.4,1.2,3.9c0,3.9-3.1,7-7,7c-1.4,0-2.8-0.4-3.9-1.2c0,0.4-0.1,0.8-0.1,1.2c0,3.7,1.8,7,4.7,9
		c-1.7,1.9-2.7,4.4-2.7,7.1c0,6,4.8,10.8,10.8,10.9l0,0h1.2v-2h-0.7h-0.5c-4.9,0-8.8-4-8.8-8.9s4-8.9,8.9-8.9c0.2,0,0.3,0,0.4,0h0.1
		l1.3,0.1l0.6-1.2c2.2-4.4,6.6-7.1,11.5-7.1c6.1,0,11.4,4.3,12.6,10.2l0.3,1.5l1.5,0.1c3.7,0.2,6.6,3.3,6.6,7c0,3.9-3.1,7-7,7.1
		h-0.1h-2h-0.8v2h2.8l0,0h0.1c5,0,9.1-4.1,9.1-9.1C153.4,108.9,149.6,105,144.9,104.7z M117,101.1c-0.2,0-0.5,0-0.7,0
		c-2.5,0-4.9,0.9-6.7,2.3c-2-1.3-3.5-3.4-4-5.8c0.6,0.1,1.2,0.2,1.8,0.2c5,0,9-4,9-9c0-0.6-0.1-1.2-0.2-1.8c3.7,0.8,6.6,3.8,7.1,7.6
		C120.6,96.1,118.4,98.3,117,101.1z"/>
</g>
<g>
	<polygon points="345.4,130.7 338.5,120.9 336.9,122 343.8,131.9 344.9,133.5 348.4,138.4 350,137.3 346.5,132.3 	"/>
	<polygon points="353.4,130.7 346.5,120.9 344.9,122 351.8,131.9 352.8,133.3 356.4,138.4 358,137.3 354.4,132.2 	"/>
	<polygon points="337.4,130.7 330.5,120.9 328.9,122 335.8,131.9 337,133.6 340.4,138.4 342,137.3 338.6,132.4 	"/>
	<rect x="324.9" y="83.2" width="2" height="8"/>
	<rect x="305.9" y="102.1" width="8" height="2"/>
	<rect x="313.6" y="87.8" transform="matrix(0.7071 -0.7071 0.7071 0.7071 27.2317 249.3193)" width="2" height="8"/>
	<rect x="333.1" y="90.8" transform="matrix(0.7071 -0.7071 0.7071 0.7071 33.8109 265.2364)" width="8" height="2"/>
	<path d="M355.4,109c-1.4-6.7-7.4-11.8-14.6-11.8c-2.2,0-4.3,0.5-6.1,1.3c-1.7-3.2-5-5.4-8.9-5.4c-5.5,0-10,4.5-10,10
		c0,2.5,0.9,4.7,2.4,6.4c-1.4,1.8-2.3,4.1-2.3,6.7c0,6,4.8,10.8,10.8,10.9l0,0h1.2v-2h-0.7h-0.5c-4.9,0-8.8-4-8.8-8.9s4-8.9,8.9-8.9
		c0.1,0,0.3,0,0.4,0h0.1l1.3,0.1l0.6-1.2c2.2-4.4,6.6-7.1,11.5-7.1c6.1,0,11.4,4.3,12.6,10.2l0.3,1.5l1.5,0.1c3.7,0.2,6.6,3.3,6.6,7
		c0,3.9-3.1,7-7,7.1h-0.1l0,0h-0.8v2h0.8l0,0h0.1c5,0,9.1-4.1,9.1-9.1C363.9,113.2,360.2,109.3,355.4,109z M327.5,105.4
		c-0.2,0-0.5,0-0.7,0c-2.8,0-5.3,1-7.2,2.7c-1.1-1.4-1.8-3.1-1.8-5c0-4.4,3.6-8,8-8c3.1,0,5.8,1.8,7.1,4.3
		C330.6,100.9,328.7,102.9,327.5,105.4z"/>
</g>
<g>
	<polygon points="-378,227.2 -384.9,217.4 -386.5,218.5 -379.6,228.4 -378.5,230 -375,234.9 -373.4,233.8 -376.9,228.8 	"/>
	<polygon points="-370,227.2 -376.9,217.4 -378.5,218.5 -371.6,228.4 -370.6,229.8 -367,234.9 -365.4,233.8 -369,228.6 	"/>
	<polygon points="-386,227.2 -392.9,217.4 -394.5,218.5 -387.6,228.4 -386.5,230.1 -383,234.9 -381.4,233.8 -384.8,228.9 	"/>
	<path d="M-368,205.5c-1.4-6.7-7.4-11.8-14.6-11.8c-1.8,0-3.5,0.3-5.1,0.9c-0.9-5.1-5.4-9-10.8-9c-0.4,0-0.8,0-1.2,0.1
		c0.7,1.1,1.2,2.4,1.2,3.9c0,3.9-3.1,7-7,7c-1.4,0-2.8-0.4-3.9-1.2c0,0.4-0.1,0.8-0.1,1.2c0,3.7,1.8,7,4.7,9
		c-1.7,1.9-2.7,4.4-2.7,7.1c0,6,4.8,10.8,10.8,10.9l0,0h1.2v-2h-0.7h-0.5c-4.9,0-8.8-4-8.8-8.9s4-8.9,8.9-8.9c0.1,0,0.3,0,0.4,0h0.1
		l1.3,0.1l0.6-1.2c2.2-4.4,6.6-7.1,11.5-7.1c6.1,0,11.4,4.3,12.6,10.2l0.3,1.5l1.5,0.1c3.7,0.2,6.6,3.3,6.6,7c0,3.9-3.1,7-7,7.1
		h-0.1l0,0h-0.8v2h0.8l0,0h0.1c5,0,9.1-4.1,9.1-9.1C-359.5,209.7-363.3,205.8-368,205.5z M-395.9,201.8c-0.2,0-0.5,0-0.7,0
		c-2.5,0-4.9,0.9-6.7,2.3c-2-1.3-3.5-3.4-4-5.8c0.6,0.1,1.2,0.2,1.8,0.2c5,0,9-4,9-9c0-0.6-0.1-1.2-0.2-1.8c3.7,0.8,6.6,3.8,7.1,7.6
		C-392.3,196.8-394.5,199.1-395.9,201.8z"/>
</g>
<g>
	<rect x="-385.5" y="123.4" width="2" height="4"/>
	<rect x="-377.5" y="119.3" width="2" height="4"/>
	<rect x="-393.5" y="119.3" width="2" height="4"/>
	<path d="M-366.9,103.4c-1.6-7.4-8.2-13-16.1-13c-6.4,0-12,3.7-14.7,9c-0.3,0-0.5,0-0.8,0c-6.6,0-12,5.4-12,12s5.3,12,11.9,12l0,0
		h2.1v-2h-1.6h-0.4c-5.5,0-9.9-4.5-9.9-10s4.5-10,10-10c0.2,0,0.3,0,0.5,0h0.1l1.3,0.1l0.6-1.2c2.5-4.9,7.4-7.9,12.9-7.9
		c6.8,0,12.8,4.8,14.2,11.4l0.3,1.5l1.5,0.1c4.2,0.3,7.5,3.8,7.5,8c0,4.4-3.6,8-8,8h-0.1h-2h-2.9v2h4.9l0,0h0.1c5.5,0,10-4.5,10-10
		C-357.5,108-361.7,103.7-366.9,103.4z"/>
	<circle cx="-376.5" cy="128.4" r="1.5"/>
	<circle cx="-384.5" cy="132.4" r="1.5"/>
	<circle cx="-392.5" cy="128.3" r="1.5"/>
</g>
<g>
	<rect x="-292.6" y="83.9" width="2" height="8"/>
	<rect x="-311.6" y="102.8" width="8" height="2"/>
	<rect x="-303.9" y="88.6" transform="matrix(0.7071 -0.7071 0.7071 0.7071 -154.163 -187.0598)" width="2" height="8"/>
	<rect x="-284.4" y="91.6" transform="matrix(0.7071 -0.7071 0.7071 0.7071 -147.5838 -171.1428)" width="8" height="2"/>
	<path d="M-262.1,109.7c-1.4-6.7-7.4-11.8-14.6-11.8c-2.2,0-4.3,0.5-6.1,1.3c-1.7-3.2-5-5.4-8.9-5.4c-5.5,0-10,4.5-10,10
		c0,2.5,0.9,4.7,2.4,6.4c-1.4,1.8-2.3,4.1-2.3,6.7c0,6,4.8,10.8,10.8,10.9l0,0h1.2v-2h-0.7h-0.5c-4.9,0-8.8-4-8.8-8.9s4-8.9,8.9-8.9
		c0.1,0,0.3,0,0.4,0h0.1l1.3,0.1l0.6-1.2c2.2-4.4,6.6-7.1,11.5-7.1c6.1,0,11.4,4.3,12.6,10.2l0.3,1.5l1.5,0.1c3.7,0.2,6.6,3.3,6.6,7
		c0,3.9-3.1,7-7,7.1h-0.1h-2h-0.8v2h2.8l0,0h0.1c5,0,9.1-4.1,9.1-9.1C-253.6,113.9-257.4,110-262.1,109.7z M-290,106.1
		c-0.2,0-0.5,0-0.7,0c-2.8,0-5.3,1-7.2,2.7c-1.1-1.4-1.8-3.1-1.8-5c0-4.4,3.6-8,8-8c3.1,0,5.8,1.8,7.1,4.3
		C-286.9,101.6-288.8,103.7-290,106.1z"/>
	<rect x="-278.6" y="127.8" width="2" height="4"/>
	<rect x="-270.6" y="123.8" width="2" height="4"/>
	<rect x="-286.6" y="123.8" width="2" height="4"/>
	<circle cx="-269.6" cy="132.8" r="1.5"/>
	<circle cx="-277.6" cy="136.8" r="1.5"/>
	<circle cx="-285.6" cy="132.8" r="1.5"/>
</g>
<g>
	<path d="M-161.2,108.7c-1.4-6.7-7.4-11.8-14.6-11.8c-1.8,0-3.5,0.3-5.1,0.9c-0.9-5.1-5.4-9-10.8-9c-0.4,0-0.8,0-1.2,0.1
		c0.7,1.1,1.2,2.4,1.2,3.9c0,3.9-3.1,7-7,7c-1.4,0-2.8-0.4-3.9-1.2c0,0.4-0.1,0.8-0.1,1.2c0,3.7,1.8,7,4.7,9
		c-1.7,1.9-2.7,4.4-2.7,7.1c0,6,4.8,10.8,10.8,10.9l0,0h1.2v-2h-0.7h-0.5c-4.9,0-8.8-4-8.8-8.9s4-8.9,8.9-8.9c0.1,0,0.3,0,0.4,0h0.1
		l1.3,0.1l0.6-1.2c2.2-4.4,6.6-7.1,11.5-7.1c6.1,0,11.4,4.3,12.6,10.2l0.3,1.5l1.5,0.1c3.7,0.2,6.6,3.3,6.6,7c0,3.9-3.1,7-7,7.1
		h-0.1h-2h-0.8v2h2.8l0,0h0.1c5,0,9.1-4.1,9.1-9.1C-152.7,113-156.4,109-161.2,108.7z M-189.1,105.1c-0.2,0-0.5,0-0.7,0
		c-2.5,0-4.9,0.9-6.7,2.3c-2-1.3-3.5-3.4-4-5.8c0.6,0.1,1.2,0.2,1.8,0.2c5,0,9-4,9-9c0-0.6-0.1-1.2-0.2-1.8c3.7,0.8,6.6,3.8,7.1,7.6
		C-185.5,100.1-187.7,102.4-189.1,105.1z"/>
	<rect x="-177.7" y="126.8" width="2" height="4"/>
	<rect x="-169.7" y="122.8" width="2" height="4"/>
	<rect x="-185.7" y="122.8" width="2" height="4"/>
	<circle cx="-168.7" cy="131.9" r="1.5"/>
	<circle cx="-176.7" cy="135.8" r="1.5"/>
	<circle cx="-184.7" cy="131.8" r="1.5"/>
</g>
<g>
	<path d="M-264.5,201.8c-1.6-7.4-8.2-13-16.1-13c-6.4,0-12,3.7-14.7,9c-0.3,0-0.5,0-0.8,0c-6.6,0-12,5.4-12,12s5.3,12,11.9,12l0,0
		h6.1v-2h-5.6h-0.4c-5.5,0-9.9-4.5-9.9-10s4.5-10,10-10c0.2,0,0.3,0,0.5,0h0.1l1.3,0.1l0.6-1.2c2.5-4.9,7.4-7.9,12.9-7.9
		c6.8,0,12.8,4.8,14.2,11.4l0.3,1.5l1.5,0.1c4.2,0.3,7.5,3.8,7.5,8c0,4.4-3.6,8-8,8h-0.1h-5h0.1v2h4.9l0,0h0.1c5.5,0,10-4.5,10-10
		C-255.1,206.4-259.2,202.1-264.5,201.8z"/>
	<polygon points="-280.3,221.7 -278.5,221.7 -278.1,221.7 -276,221.7 -282.5,212.6 -284.1,213.7 -279.9,219.7 -281.7,219.7 
		-284.1,219.7 -282.8,221.6 -281.7,223.2 -275.7,231.7 -274.1,230.6 -280.1,222 	"/>
</g>
<g>
	<rect x="-188.7" y="182.6" width="2" height="8"/>
	<rect x="-207.7" y="201.6" width="8" height="2"/>
	<rect x="-200" y="187.3" transform="matrix(0.7071 -0.7071 0.7071 0.7071 -193.5474 -84.6863)" width="2" height="8"/>
	<rect x="-180.5" y="190.3" transform="matrix(0.7071 -0.7071 0.7071 0.7071 -186.9681 -68.7692)" width="8" height="2"/>
	<path d="M-158.2,208.4c-1.4-6.7-7.4-11.8-14.6-11.8c-2.2,0-4.3,0.5-6.1,1.3c-1.7-3.2-5-5.4-8.9-5.4c-5.5,0-10,4.5-10,10
		c0,2.5,0.9,4.7,2.4,6.4c-1.4,1.8-2.3,4.1-2.3,6.7c0,6,4.8,10.8,10.8,10.9l0,0h4.2v-2h-3.7h-0.5c-4.9,0-8.8-4-8.8-8.9s4-8.9,8.9-8.9
		c0.1,0,0.3,0,0.4,0h0.1l1.3,0.1l0.6-1.2c2.2-4.4,6.6-7.1,11.5-7.1c6.1,0,11.4,4.3,12.6,10.2l0.3,1.5l1.5,0.1c3.7,0.2,6.6,3.3,6.6,7
		c0,3.9-3.1,7-7,7.1h-0.1h-2h-3.8v2h5.8l0,0h0.1c5,0,9.1-4.1,9.1-9.1C-149.7,212.7-153.4,208.7-158.2,208.4z M-186.1,204.8
		c-0.2,0-0.5,0-0.7,0c-2.8,0-5.3,1-7.2,2.7c-1.1-1.4-1.8-3.1-1.8-5c0-4.4,3.6-8,8-8c3.1,0,5.8,1.8,7.1,4.3
		C-183,200.3-184.8,202.4-186.1,204.8z"/>
	<polygon points="-173.8,226.5 -172.1,226.5 -171.6,226.5 -169.6,226.5 -176,217.4 -177.7,218.5 -173.5,224.5 -175.2,224.5 
		-177.7,224.5 -176.4,226.3 -175.3,227.9 -169.3,236.5 -167.7,235.4 -173.6,226.8 	"/>
</g>
<g>
	<path d="M-58.6,206.1c-1.4-6.7-7.4-11.8-14.6-11.8c-1.8,0-3.5,0.3-5.1,0.9c-0.9-5.1-5.4-9-10.8-9c-0.4,0-0.8,0-1.2,0.1
		c0.7,1.1,1.2,2.4,1.2,3.9c0,3.9-3.1,7-7,7c-1.4,0-2.8-0.4-3.9-1.2c0,0.4-0.1,0.8-0.1,1.2c0,3.7,1.8,7,4.7,9
		c-1.7,1.9-2.7,4.4-2.7,7.1c0,6,4.8,10.8,10.8,10.9l0,0h4.2v-2h-3.7h-0.5c-4.9,0-8.8-4-8.8-8.9s4-8.9,8.9-8.9c0.2,0,0.3,0,0.4,0h0.1
		l1.3,0.1l0.6-1.2c2.2-4.4,6.6-7.1,11.5-7.1c6.1,0,11.4,4.3,12.6,10.2l0.3,1.5l1.5,0.1c3.7,0.2,6.6,3.3,6.6,7c0,3.9-3.1,7-7,7.1
		h-0.1h-2h-3.8v2h5.8l0,0h0.1c5,0,9.1-4.1,9.1-9.1C-50.1,210.4-53.8,206.4-58.6,206.1z M-86.5,202.5c-0.2,0-0.5,0-0.7,0
		c-2.5,0-4.9,0.9-6.7,2.3c-2-1.3-3.5-3.4-4-5.8c0.6,0.1,1.2,0.2,1.8,0.2c5,0,9-4,9-9c0-0.6-0.1-1.2-0.2-1.8c3.7,0.8,6.6,3.8,7.1,7.6
		C-82.9,197.5-85.1,199.8-86.5,202.5z"/>
	<polygon points="-74.2,224.2 -72.5,224.2 -72,224.2 -70,224.2 -76.4,215.1 -78.1,216.2 -73.9,222.2 -75.6,222.2 -78.1,222.2 
		-76.8,224 -75.7,225.6 -69.7,234.2 -68.1,233.1 -74.1,224.5 	"/>
</g>
<g>
	<path d="M42.3,202.3c-1.6-7.4-8.2-13-16.1-13c-6.4,0-12,3.7-14.7,9c-0.3,0-0.5,0-0.8,0c-6.6,0-12,5.4-12,12s5.3,12,11.9,12l0,0h1.1
		v-2h-0.6h-0.4c-5.5,0-9.9-4.5-9.9-10s4.5-10,10-10c0.2,0,0.3,0,0.5,0h0.1l1.3,0.1l0.6-1.2c2.5-4.9,7.4-7.9,12.9-7.9
		c6.8,0,12.8,4.8,14.2,11.4l0.3,1.5l1.5,0.1c4.2,0.3,7.5,3.8,7.5,8c0,4.4-3.6,8-8,8h-0.1h-0.9v2h0.9l0,0h0.1c5.5,0,10-4.5,10-10
		C51.7,206.9,47.5,202.6,42.3,202.3z"/>
	<rect x="15.7" y="215.7" transform="matrix(0.8191 -0.5736 0.5736 0.8191 -123.9101 49.62)" width="2" height="11.2"/>
	<rect x="33.7" y="215.7" transform="matrix(0.8191 -0.5736 0.5736 0.8191 -120.6472 59.9398)" width="2" height="11.2"/>
	<polygon points="27.5,225.2 29.3,225.2 29.7,225.2 31.7,225.2 25.3,216.1 23.7,217.2 27.9,223.2 26.1,223.2 23.7,223.2 25,225.1 
		26.1,226.7 30.7,233.2 32.3,232.1 27.7,225.5 	"/>
</g>
<g>
	<rect x="117.2" y="182.8" width="2" height="8"/>
	<rect x="98.2" y="201.7" width="8" height="2"/>
	<rect x="105.8" y="187.5" transform="matrix(0.7071 -0.7071 0.7071 0.7071 -104.1191 131.6321)" width="2" height="8"/>
	<rect x="125.4" y="190.4" transform="matrix(0.7071 -0.7071 0.7071 0.7071 -97.4692 147.5785)" width="8" height="2"/>
	<path d="M147.7,208.6c-1.4-6.7-7.4-11.8-14.6-11.8c-2.2,0-4.3,0.5-6.1,1.3c-1.7-3.2-5-5.4-8.9-5.4c-5.5,0-10,4.5-10,10
		c0,2.5,0.9,4.7,2.4,6.4c-1.4,1.8-2.3,4.1-2.3,6.7c0,6,4.8,10.8,10.8,10.9l0,0h0.2v-2H119c-4.9,0-8.8-4-8.8-8.9s4-8.9,8.9-8.9
		c0.2,0,0.3,0,0.4,0h0.1l1.3,0.1l0.6-1.2c2.2-4.4,6.6-7.1,11.5-7.1c6.1,0,11.4,4.3,12.6,10.2l0.3,1.5l1.5,0.1c3.7,0.2,6.6,3.3,6.6,7
		c0,3.9-3.1,7-7,7.1h-0.1H146v2h0.8l0,0h0.1c5,0,9.1-4.1,9.1-9.1C156.2,212.8,152.4,208.9,147.7,208.6z M119.7,205
		c-0.2,0-0.5,0-0.7,0c-2.8,0-5.3,1-7.2,2.7c-1.1-1.4-1.8-3.1-1.8-5c0-4.4,3.6-8,8-8c3.1,0,5.8,1.8,7.1,4.3
		C122.9,200.5,121,202.6,119.7,205z"/>
	<rect x="122.2" y="220.1" transform="matrix(0.8191 -0.5736 0.5736 0.8191 -107.1706 111.4864)" width="2" height="11.2"/>
	<rect x="140.1" y="220.1" transform="matrix(0.8191 -0.5736 0.5736 0.8191 -103.9557 121.7695)" width="2" height="11.2"/>
	<polygon points="134,229.7 135.8,229.7 136.2,229.7 138.2,229.7 131.8,220.5 130.1,221.7 134.4,227.7 132.6,227.7 130.1,227.7 
		131.4,229.5 132.5,231.1 137.1,237.7 138.8,236.5 134.2,229.9 	"/>
</g>
<g>
	<path d="M249.5,205.6c-1.4-6.7-7.4-11.8-14.6-11.8c-1.8,0-3.5,0.3-5.1,0.9c-0.9-5.1-5.4-9-10.8-9c-0.4,0-0.8,0-1.2,0.1
		c0.7,1.1,1.2,2.4,1.2,3.9c0,3.9-3.1,7-7,7c-1.4,0-2.8-0.4-3.9-1.2c0,0.4-0.1,0.8-0.1,1.2c0,3.7,1.8,7,4.7,9
		c-1.7,1.9-2.7,4.4-2.7,7.1c0,6,4.8,10.8,10.8,10.9l0,0h0.2v-2h-0.2c-4.9,0-8.8-4-8.8-8.9s4-8.9,8.9-8.9c0.1,0,0.3,0,0.4,0h0.1
		l1.3,0.1l0.6-1.2c2.2-4.4,6.6-7.1,11.5-7.1c6.1,0,11.4,4.3,12.6,10.2l0.3,1.5l1.5,0.1c3.7,0.2,6.6,3.3,6.6,7c0,3.9-3.1,7-7,7.1
		h-0.1h-0.9v2h0.8l0,0h0.1c5,0,9.1-4.1,9.1-9.1C258,209.9,254.2,205.9,249.5,205.6z M221.6,202c-0.2,0-0.5,0-0.7,0
		c-2.5,0-4.9,0.9-6.7,2.3c-2-1.3-3.5-3.4-4-5.8c0.6,0.1,1.2,0.2,1.8,0.2c5,0,9-4,9-9c0-0.6-0.1-1.2-0.2-1.8c3.7,0.8,6.6,3.8,7.1,7.6
		C225.2,197,223,199.3,221.6,202z"/>
	<rect x="224" y="217.1" transform="matrix(0.8191 -0.5736 0.5736 0.8191 -87.0589 169.3327)" width="2" height="11.2"/>
	<rect x="242" y="217.1" transform="matrix(0.8191 -0.5736 0.5736 0.8191 -83.7964 179.6524)" width="2" height="11.2"/>
	<polygon points="235.8,226.7 237.6,226.7 238,226.7 240,226.7 233.6,217.6 232,218.7 236.2,224.7 234.4,224.7 232,224.7 
		233.3,226.5 234.4,228.1 239,234.7 240.6,233.6 236,227 	"/>
</g>
<g>
	<g>
		<path d="M-161.1,292.1c-1.6-7.4-8.2-13-16.1-13c-6.4,0-12,3.7-14.7,9c-0.3,0-0.5,0-0.8,0c-6.6,0-12,5.4-12,12s5.3,12,11.9,12l0,0
			h2.1v-2h-1.6h-0.4c-5.5,0-9.9-4.5-9.9-10s4.5-10,10-10c0.2,0,0.3,0,0.5,0h0.1l1.3,0.1l0.6-1.2c2.5-4.9,7.4-7.9,12.9-7.9
			c6.8,0,12.8,4.8,14.2,11.4l0.3,1.5l1.5,0.1c4.2,0.3,7.5,3.8,7.5,8c0,4.4-3.6,8-8,8c-0.1,0-0.1,0-0.1,0h-2h-2.9v2h4.9l0,0h0.1
			c5.5,0,10-4.5,10-10C-151.7,296.8-155.8,292.4-161.1,292.1z"/>
	</g>
	<g>
		<circle cx="-186.2" cy="305.6" r="1.5"/>
	</g>
	<g>
		<circle cx="-182.2" cy="311.6" r="1.5"/>
	</g>
	<g>
		<circle cx="-174.2" cy="311.6" r="1.5"/>
	</g>
	<g>
		<circle cx="-178.2" cy="305.6" r="1.5"/>
	</g>
	<g>
		<circle cx="-170.2" cy="305.6" r="1.5"/>
	</g>
	<g>
		<circle cx="-186.2" cy="317.6" r="1.5"/>
	</g>
	<g>
		<circle cx="-178.2" cy="317.6" r="1.5"/>
	</g>
	<g>
		<circle cx="-170.2" cy="317.6" r="1.5"/>
	</g>
</g>
<g>
	<g>
		<rect x="-85.3" y="276.6" width="2" height="8"/>
	</g>
	<g>
		<rect x="-104.3" y="295.5" width="8" height="2"/>
	</g>
	<g>
		<rect x="-96.6" y="281.3" transform="matrix(0.7071 -0.7071 0.7071 0.7071 -229.7196 15.9723)" width="2" height="8"/>
	</g>
	<g>
		<rect x="-77.1" y="284.3" transform="matrix(0.7071 -0.7071 0.7071 0.7071 -223.1403 31.8894)" width="8" height="2"/>
	</g>
	<g>
		<path d="M-54.8,302.4c-1.4-6.7-7.4-11.8-14.6-11.8c-2.2,0-4.3,0.5-6.1,1.3c-1.7-3.2-5-5.4-8.9-5.4c-5.5,0-10,4.5-10,10
			c0,2.5,0.9,4.7,2.4,6.4c-1.4,1.8-2.3,4.1-2.3,6.7c0,6,4.8,10.8,10.8,10.9l0,0h1.2v-2H-83h-0.5c-4.9,0-8.8-4-8.8-8.9s4-8.9,8.9-8.9
			c0.2,0,0.3,0,0.4,0h0.1l1.3,0.1l0.6-1.2c2.2-4.4,6.6-7.1,11.5-7.1c6.1,0,11.4,4.3,12.6,10.2l0.3,1.5l1.5,0.1
			c3.7,0.2,6.6,3.3,6.6,7c0,3.9-3.1,7-7,7.1h-0.1h-2h-1.8v2h3.8l0,0h0.1c5,0,9.1-4.1,9.1-9.1C-46.3,306.6-50,302.7-54.8,302.4z
			 M-82.7,298.8c-0.2,0-0.5,0-0.7,0c-2.8,0-5.3,1-7.2,2.7c-1.1-1.4-1.8-3.1-1.8-5c0-4.4,3.6-8,8-8c3.1,0,5.8,1.8,7.1,4.3
			C-79.6,294.3-81.4,296.4-82.7,298.8z"/>
	</g>
	<g>
		<circle cx="-78.8" cy="314" r="1.5"/>
	</g>
	<g>
		<circle cx="-74.8" cy="320" r="1.5"/>
	</g>
	<g>
		<circle cx="-66.8" cy="320" r="1.5"/>
	</g>
	<g>
		<circle cx="-70.8" cy="314" r="1.5"/>
	</g>
	<g>
		<circle cx="-62.8" cy="314" r="1.5"/>
	</g>
	<g>
		<circle cx="-78.8" cy="326" r="1.5"/>
	</g>
	<g>
		<circle cx="-70.8" cy="326" r="1.5"/>
	</g>
	<g>
		<circle cx="-62.8" cy="326" r="1.5"/>
	</g>
</g>
<g>
	<g>
		<path d="M41.2,298.5c-1.4-6.7-7.4-11.8-14.6-11.8c-1.8,0-3.5,0.3-5.1,0.9c-0.9-5.1-5.4-9-10.8-9c-0.4,0-0.8,0-1.2,0.1
			c0.7,1.1,1.2,2.4,1.2,3.9c0,3.9-3.1,7-7,7c-1.4,0-2.8-0.4-3.9-1.2c0,0.4-0.1,0.8-0.1,1.2c0,3.7,1.8,7,4.7,9
			c-1.7,1.9-2.7,4.4-2.7,7.1c0,6,4.8,10.8,10.8,10.9l0,0h1.2v-2H13h-0.5c-4.9,0-8.8-4-8.8-8.9s4-8.9,8.9-8.9c0.1,0,0.3,0,0.4,0h0.1
			l1.3,0.1l0.6-1.2c2.2-4.4,6.6-7.1,11.5-7.1c6.1,0,11.4,4.3,12.6,10.2l0.3,1.5l1.5,0.1c3.7,0.2,6.6,3.3,6.6,7c0,3.9-3.1,7-7,7.1
			h-0.1h-2h-1.8v2h3.8l0,0h0.1c5,0,9.1-4.1,9.1-9.1C49.7,302.7,45.9,298.7,41.2,298.5z M13.3,294.8c-0.2,0-0.5,0-0.7,0
			c-2.5,0-4.9,0.9-6.7,2.3c-2-1.3-3.5-3.4-4-5.8c0.6,0.1,1.2,0.2,1.8,0.2c5,0,9-4,9-9c0-0.6-0.1-1.2-0.2-1.8
			c3.7,0.8,6.6,3.8,7.1,7.6C16.9,289.8,14.7,292.1,13.3,294.8z"/>
	</g>
	<g>
		<circle cx="17.2" cy="310" r="1.5"/>
	</g>
	<g>
		<circle cx="21.2" cy="316" r="1.5"/>
	</g>
	<g>
		<circle cx="29.2" cy="316" r="1.5"/>
	</g>
	<g>
		<circle cx="25.2" cy="310" r="1.5"/>
	</g>
	<g>
		<circle cx="33.2" cy="310" r="1.5"/>
	</g>
	<g>
		<circle cx="17.2" cy="322.1" r="1.5"/>
	</g>
	<g>
		<circle cx="25.2" cy="322.1" r="1.5"/>
	</g>
	<g>
		<circle cx="33.2" cy="322.1" r="1.5"/>
	</g>
</g>
<g>
	<path d="M352.4,199.6c-1.6-7.4-8.2-13-16.1-13c-6.4,0-12,3.7-14.7,9c-0.3,0-0.5,0-0.8,0c-6.6,0-12,5.4-12,12s5.3,12,11.9,12l0,0
		h2.1v-2h-1.6h-0.4c-5.5,0-9.9-4.5-9.9-10s4.5-10,10-10c0.2,0,0.3,0,0.5,0h0.1l1.3,0.1l0.6-1.2c2.5-4.9,7.4-7.9,12.9-7.9
		c6.8,0,12.8,4.8,14.2,11.4l0.3,1.5l1.5,0.1c4.2,0.3,7.5,3.8,7.5,8c0,4.4-3.6,8-8,8h-0.1h-2h-2.9v2h4.9l0,0h0.1c5.5,0,10-4.5,10-10
		C361.7,204.2,357.6,199.9,352.4,199.6z"/>
	<circle cx="326.7" cy="227" r="1.5"/>
	<circle cx="334.7" cy="233" r="1.5"/>
	<circle cx="342.7" cy="229" r="1.5"/>
	<rect x="325.7" y="210.6" width="2" height="12"/>
	<polygon points="335.7,228.5 335.7,226.6 335.7,214.6 333.7,214.6 333.7,226.6 333.7,228.5 333.7,228.5 	"/>
	<polygon points="343.7,224.3 343.7,222.6 343.7,210.6 341.7,210.6 341.7,222.6 341.7,224.3 341.7,224.5 343.7,224.5 	"/>
</g>
<g>
	<rect x="-396" y="271.2" width="2" height="8"/>
	<rect x="-415" y="290.1" width="8" height="2"/>
	<rect x="-407.4" y="275.8" transform="matrix(0.7071 -0.7071 0.7071 0.7071 -316.9079 -205.4106)" width="2" height="8"/>
	<rect x="-387.8" y="278.8" transform="matrix(0.7071 -0.7071 0.7071 0.7071 -310.2579 -189.4643)" width="8" height="2"/>
	<path d="M-365.5,297c-1.4-6.7-7.4-11.8-14.6-11.8c-2.2,0-4.3,0.5-6.1,1.3c-1.7-3.2-5-5.4-8.9-5.4c-5.5,0-10,4.5-10,10
		c0,2.5,0.9,4.7,2.4,6.4c-1.4,1.8-2.3,4.1-2.3,6.7c0,6,4.8,10.8,10.8,10.9l0,0h1.2v-2h-0.7h-0.5c-4.9,0-8.8-4-8.8-8.9s4-8.9,8.9-8.9
		c0.1,0,0.3,0,0.4,0h0.1l1.3,0.1l0.6-1.2c2.2-4.4,6.6-7.1,11.5-7.1c6.1,0,11.4,4.3,12.6,10.2l0.3,1.5l1.5,0.1c3.7,0.2,6.6,3.3,6.6,7
		c0,3.9-3.1,7-7,7.1h-0.1h-2h-0.8v2h2.8l0,0h0.1c5,0,9.1-4.1,9.1-9.1C-357,301.2-360.8,297.3-365.5,297z M-393.4,293.4
		c-0.2,0-0.5,0-0.7,0c-2.8,0-5.3,1-7.2,2.7c-1.1-1.4-1.8-3.1-1.8-5c0-4.4,3.6-8,8-8c3.1,0,5.8,1.8,7.1,4.3
		C-390.3,288.9-392.2,290.9-393.4,293.4z"/>
	<circle cx="-389" cy="323.5" r="1.5"/>
	<circle cx="-381" cy="329.5" r="1.5"/>
	<circle cx="-373" cy="325.5" r="1.5"/>
	<rect x="-390" y="307.1" width="2" height="12"/>
	<polygon points="-380,325 -380,323.1 -380,311.1 -382,311.1 -382,323.1 -382,325 -382,325 	"/>
	<polygon points="-372,320.8 -372,319.1 -372,307.1 -374,307.1 -374,319.1 -374,320.8 -374,321 -372,321 	"/>
</g>
<g>
	<path d="M-264.9,294c-1.4-6.7-7.4-11.8-14.6-11.8c-1.8,0-3.5,0.3-5.1,0.9c-0.9-5.1-5.4-9-10.8-9c-0.4,0-0.8,0-1.2,0.1
		c0.7,1.1,1.2,2.4,1.2,3.9c0,3.9-3.1,7-7,7c-1.4,0-2.8-0.4-3.9-1.2c0,0.4-0.1,0.8-0.1,1.2c0,3.7,1.8,7,4.7,9
		c-1.7,1.9-2.7,4.4-2.7,7.1c0,6,4.8,10.8,10.8,10.9l0,0h1.2v-2h-0.7h-0.5c-4.9,0-8.8-4-8.8-8.9s4-8.9,8.9-8.9c0.1,0,0.3,0,0.4,0h0.1
		l1.3,0.1l0.6-1.2c2.2-4.4,6.6-7.1,11.5-7.1c6.1,0,11.4,4.3,12.6,10.2l0.3,1.5l1.5,0.1c3.7,0.2,6.6,3.3,6.6,7c0,3.9-3.1,7-7,7.1
		h-0.1h-2h-0.8v2h2.8l0,0h0.1c5,0,9.1-4.1,9.1-9.1C-256.4,298.2-260.2,294.3-264.9,294z M-292.8,290.4c-0.2,0-0.5,0-0.7,0
		c-2.5,0-4.9,0.9-6.7,2.3c-2-1.3-3.5-3.4-4-5.8c0.6,0.1,1.2,0.2,1.8,0.2c5,0,9-4,9-9c0-0.6-0.1-1.2-0.2-1.8c3.7,0.8,6.6,3.8,7.1,7.6
		C-289.2,285.4-291.4,287.6-292.8,290.4z"/>
	<circle cx="-288.4" cy="320.5" r="1.5"/>
	<circle cx="-280.4" cy="326.5" r="1.5"/>
	<circle cx="-272.4" cy="322.5" r="1.5"/>
	<rect x="-289.4" y="304.1" width="2" height="12"/>
	<polygon points="-279.4,322 -279.4,320.1 -279.4,308.1 -281.4,308.1 -281.4,320.1 -281.4,322 -281.4,322 	"/>
	<polygon points="-271.4,317.8 -271.4,316.1 -271.4,304.1 -273.4,304.1 -273.4,316.1 -273.4,317.8 -273.4,318 -271.4,318 	"/>
</g>
<g>
	<rect x="-413" y="398.4" width="56" height="2"/>
	<rect x="-409" y="404.4" width="50" height="2"/>
	<rect x="-403" y="410.4" width="36" height="2"/>
	<rect x="-411" y="392.4" width="52" height="2"/>
	<path d="M-399.1,384.4c0.2,0,0.3,0,0.5,0h0.1l1.3,0.1l0.6-1.2c2.5-4.9,7.4-7.9,12.9-7.9c6.8,0,12.8,4.8,14.2,11.4l0.3,1.5l1.5,0.1
		c1.2,0.1,2.3,0.4,3.3,1h3.3c-1.7-1.7-4-2.8-6.5-3c-1.6-7.4-8.2-13-16.1-13c-6.4,0-12,3.7-14.7,9c-0.3,0-0.5,0-0.8,0
		c-4.8,0-9,2.9-10.9,7h2.3C-406.1,386.4-402.8,384.4-399.1,384.4z"/>
</g>
<g>
	<rect x="-291.9" y="370.9" width="2" height="8"/>
	<rect x="-310.9" y="389.8" width="8" height="2"/>
	<rect x="-303.2" y="375.6" transform="matrix(0.7071 -0.7071 0.7071 0.7071 -356.9541 -102.5355)" width="2" height="8"/>
	<rect x="-283.7" y="378.6" transform="matrix(0.7071 -0.7071 0.7071 0.7071 -350.3041 -86.5891)" width="8" height="2"/>
	<rect x="-301.9" y="404.8" width="50" height="2"/>
	<rect x="-297.9" y="410.8" width="44" height="2"/>
	<rect x="-291.9" y="415.8" width="30" height="2"/>
	<rect x="-299.9" y="398.8" width="46" height="2"/>
	<path d="M-299,396.8h0.8h1.9h1c1.5-1.1,3.3-1.7,5.2-1.7c0.1,0,0.3,0,0.4,0h0.1l1.3,0.1l0.6-1.2c2.2-4.4,6.6-7.1,11.5-7.1
		c5.9,0,11.2,4.1,12.6,9.9h2v-0.1c-1.4-6.7-7.4-11.8-14.6-11.8c-2.2,0-4.3,0.5-6.1,1.3c-1.7-3.2-5-5.4-8.9-5.4c-5.5,0-10,4.5-10,10
		C-301,393-300.3,395.1-299,396.8z M-291,382.8c3.1,0,5.8,1.8,7.1,4.3c-2.3,1.4-4.2,3.5-5.4,5.9c-0.2,0-0.5,0-0.7,0
		c-2.8,0-5.3,1-7.2,2.7c-1.1-1.4-1.8-3.1-1.8-5C-299,386.4-295.4,382.8-291,382.8z"/>
</g>
<g>
	<rect x="-203.2" y="401.3" width="50" height="2"/>
	<rect x="-199.2" y="407.3" width="44" height="2"/>
	<rect x="-193.2" y="412.3" width="30" height="2"/>
	<rect x="-201.2" y="395.3" width="46" height="2"/>
	<path d="M-199.5,393.3L-199.5,393.3h1.9h1.1c1.5-1.1,3.3-1.7,5.2-1.7c0.1,0,0.3,0,0.4,0h0.1l1.3,0.1l0.6-1.2
		c2.2-4.4,6.6-7.1,11.5-7.1c5.9,0,11.2,4.1,12.6,9.9h2v-0.1c-1.4-6.7-7.4-11.8-14.6-11.8c-1.8,0-3.5,0.3-5.1,0.9
		c-0.9-5.1-5.4-9-10.8-9c-0.4,0-0.8,0-1.2,0.1c0.7,1.1,1.2,2.4,1.2,3.9c0,3.9-3.1,7-7,7c-1.4,0-2.8-0.4-3.9-1.2
		c0,0.4-0.1,0.8-0.1,1.2C-204.2,388.1-202.3,391.3-199.5,393.3z M-200.2,386.3c5,0,9-4,9-9c0-0.6-0.1-1.2-0.2-1.8
		c3.7,0.8,6.6,3.8,7.1,7.6c-2.7,1.4-4.9,3.7-6.3,6.4c-0.2,0-0.5,0-0.7,0c-2.5,0-4.9,0.9-6.7,2.3c-2-1.3-3.5-3.4-4-5.8
		C-201.4,386.3-200.8,386.3-200.2,386.3z"/>
</g>
<g>
	<path d="M-71.3,404.4h-19.5h-0.6c-5.5,0-9.9-4.5-9.9-10s4.5-10,10-10c0.2,0,0.3,0,0.5,0h0.1l1.3,0.1l0.6-1.2
		c2.5-4.9,7.4-7.9,12.9-7.9c6.8,0,12.8,4.8,14.2,11.4l0.3,1.5l1.5,0.1c1.8,0.1,3.5,0.8,4.7,2h2.7c-1.7-2.3-4.3-3.8-7.4-4
		c-1.6-7.4-8.2-13-16.1-13c-6.4,0-12,3.7-14.7,9c-0.3,0-0.5,0-0.8,0c-6.6,0-12,5.4-12,12s5.3,12,11.9,12l0,0h20.1c2.2,0,4,1.8,4,4
		s-1.8,4-4,4v2c3.3,0,6-2.7,6-6C-65.3,407-68,404.4-71.3,404.4z"/>
	<path d="M-67.3,400.4h-16v2h16c3.3,0,6-2.7,6-6s-2.7-6-6-6v2c2.2,0,4,1.8,4,4S-65.1,400.4-67.3,400.4z"/>
	<path d="M-54.3,394.4c1.7,0,3,1.3,3,3s-1.3,3-3,3h-0.1h-4.9l0,0l0,0v2h5.5v-0.1c2.5-0.3,4.5-2.4,4.5-4.9c0-2.8-2.2-5-5-5V394.4
		L-54.3,394.4z"/>
	<path d="M-50.3,404.4h-13v2h9l0,0h3.9h0.1c1.7,0,3,1.3,3,3s-1.3,3-3,3v2c2.8,0,5-2.2,5-5S-47.5,404.4-50.3,404.4z"/>
	<rect x="-89.3" y="400.4" width="4" height="2"/>
</g>
<path d="M-278.8,5.2c7,1.3,12.2,7.4,12.2,14.7c0,8.3-6.7,15-15,15c-6.8,0-12.5-4.5-14.4-10.7c1.4,0.5,2.9,0.7,4.4,0.7
	c7.7,0,14-6.3,14-14C-277.6,9-278,7-278.8,5.2 M-281.6,3c-0.3,0-0.7,0-1,0.1c1.9,2.1,3,4.9,3,7.9c0,6.6-5.4,12-12,12
	c-2.6,0-5-0.8-7-2.2c0.4,9,7.8,16.3,17,16.3c9.4,0,17-7.6,17-17S-272.2,3-281.6,3L-281.6,3z"/>
<g>
	<path d="M-385,8c-7.2,0-13,5.8-13,13s5.8,13,13,13s13-5.8,13-13S-377.8,8-385,8z M-385,32c-6.1,0-11-4.9-11-11s4.9-11,11-11
		s11,4.9,11,11C-374,27-378.9,32-385,32z"/>
	<rect x="-386" y="-5" width="2" height="10"/>
	<rect x="-386" y="37" width="2" height="10"/>
	<rect x="-411" y="20" width="10" height="2"/>
	<rect x="-369" y="20" width="10" height="2"/>
	<rect x="-375.5" y="5.3" transform="matrix(0.7071 -0.7071 0.7071 0.7071 -112.8968 -259.9951)" width="10.4" height="2"/>
	<rect x="-404.9" y="34.7" transform="matrix(0.7071 -0.7071 0.7071 0.7071 -142.2922 -272.1808)" width="10.4" height="2"/>
	<rect x="-400.7" y="1.1" transform="matrix(0.7071 -0.7071 0.7071 0.7071 -121.508 -280.7881)" width="2" height="10.4"/>
	<rect x="-371.3" y="30.5" transform="matrix(0.7071 -0.7072 0.7072 0.7071 -133.7438 -251.4087)" width="2" height="10.4"/>
</g>
<g>
	<rect x="13.2" y="365.9" width="2" height="8"/>
	<rect x="-5.8" y="384.8" width="8" height="2"/>
	<rect x="1.9" y="370.6" transform="matrix(0.7071 -0.7071 0.7071 0.7071 -264.0372 111.7578)" width="2" height="8"/>
	<rect x="21.4" y="373.6" transform="matrix(0.7071 -0.7071 0.7071 0.7071 -257.4579 127.675)" width="8" height="2"/>
	<path d="M28.2,407.9L28.2,407.9H15.7h-0.6c-4.9,0-8.8-4-8.8-8.9s4-8.9,8.9-8.9c0.1,0,0.3,0,0.4,0h0.1l1.3,0.1l0.6-1.2
		c2.2-4.4,6.6-7.1,11.5-7.1c5.9,0,11.1,4.1,12.5,9.8h2.1C42.3,385,36.3,380,29.1,380c-2.2,0-4.3,0.5-6.1,1.3c-1.7-3.2-5-5.4-8.9-5.4
		c-5.5,0-10,4.5-10,10c0,2.5,0.9,4.7,2.4,6.4c-1.4,1.8-2.3,4.1-2.3,6.7c0,6,4.8,10.8,10.8,10.9l0,0h13.1l0,0c2.2,0,4,1.8,4,4
		s-1.8,4-4,4v2c3.3,0,6-2.7,6-6C34.2,410.5,31.5,407.9,28.2,407.9z M14.1,377.9c3.1,0,5.8,1.8,7.1,4.3c-2.3,1.4-4.2,3.5-5.4,5.9
		c-0.2,0-0.5,0-0.7,0c-2.8,0-5.3,1-7.2,2.7c-1.1-1.4-1.8-3.1-1.8-5C6.1,381.5,9.7,377.9,14.1,377.9z"/>
	<path d="M32.2,403.9h-10v2h10c3.3,0,6-2.7,6-6s-2.7-6-6-6v2c2.2,0,4,1.8,4,4S34.4,403.9,32.2,403.9z"/>
	<path d="M40.2,403.9L40.2,403.9v2h5.5v-0.1c2.5-0.3,4.5-2.4,4.5-4.9c0-2.8-2.2-5-5-5v2c1.7,0,3,1.3,3,3s-1.3,3-3,3h-0.1H40.2
		C40.2,403.8,40.2,403.8,40.2,403.9z"/>
	<path d="M49.2,407.9h-13v2h9l0,0h3.9h0.1c1.7,0,3,1.3,3,3s-1.3,3-3,3v2c2.8,0,5-2.2,5-5S51.9,407.9,49.2,407.9z"/>
	<rect x="16.2" y="403.9" width="4" height="2"/>
</g>
<g>
	<path d="M128.1,405.8L128.1,405.8h-12.5H115c-4.9,0-8.8-4-8.8-8.9s4-8.9,8.9-8.9c0.2,0,0.3,0,0.4,0h0.1l1.3,0.1l0.6-1.2
		c2.2-4.4,6.6-7.1,11.5-7.1c5.9,0,11.1,4.1,12.5,9.8h2.1c-1.4-6.7-7.4-11.8-14.6-11.8c-1.8,0-3.5,0.3-5.1,0.9c-0.9-5.1-5.4-9-10.8-9
		c-0.4,0-0.8,0-1.2,0.1c0.7,1.1,1.2,2.4,1.2,3.9c0,3.9-3.1,7-7,7c-1.4,0-2.8-0.4-3.9-1.2c0,0.4-0.1,0.8-0.1,1.2c0,3.7,1.9,7,4.7,9
		c-1.7,1.9-2.7,4.4-2.7,7.1c0,6,4.8,10.8,10.8,10.9l0,0H128l0,0c2.2,0,4,1.8,4,4s-1.8,4-4,4v2c3.3,0,6-2.7,6-6
		C134.1,408.5,131.5,405.8,128.1,405.8z M104.3,382.6c0.6,0.1,1.2,0.2,1.8,0.2c5,0,9-4,9-9c0-0.6-0.1-1.2-0.2-1.8
		c3.7,0.8,6.6,3.8,7.1,7.7c-2.7,1.4-4.9,3.7-6.3,6.4c-0.2,0-0.5,0-0.7,0c-2.5,0-4.9,0.9-6.7,2.3
		C106.3,387.1,104.8,385.1,104.3,382.6z"/>
	<path d="M132.1,401.8h-10v2h10c3.3,0,6-2.7,6-6s-2.7-6-6-6v2c2.2,0,4,1.8,4,4S134.3,401.8,132.1,401.8z"/>
	<path d="M140.2,401.8L140.2,401.8v2h5.5v-0.1c2.5-0.3,4.5-2.4,4.5-4.9c0-2.8-2.2-5-5-5v2c1.7,0,3,1.3,3,3s-1.3,3-3,3h-0.1H140.2
		L140.2,401.8z"/>
	<path d="M149.1,405.8h-13v2h9l0,0h3.9h0.1c1.7,0,3,1.3,3,3s-1.3,3-3,3v2c2.8,0,5-2.2,5-5S151.9,405.8,149.1,405.8z"/>
	<rect x="116.1" y="401.8" width="4" height="2"/>
</g>
<g>
	<rect x="229" y="368.4" width="2" height="10"/>
	<rect x="204" y="393.4" width="10" height="2"/>
	<rect x="239.5" y="378.7" transform="matrix(0.7071 -0.7071 0.7071 0.7071 -196.8335 284.2525)" width="10.4" height="2"/>
	<rect x="214.3" y="374.5" transform="matrix(0.7071 -0.7071 0.7071 0.7071 -205.4446 263.4595)" width="2" height="10.4"/>
	<path d="M234,408.4h-24v2h24c2.2,0,4,1.8,4,4s-1.8,4-4,4v2c3.3,0,6-2.7,6-6S237.4,408.4,234,408.4z"/>
	<path d="M246.1,404.4L246.1,404.4v2h5.5v-0.1c2.5-0.3,4.5-2.4,4.5-4.9c0-2.8-2.2-5-5-5v2c1.7,0,3,1.3,3,3s-1.3,3-3,3H251H246.1
		L246.1,404.4z"/>
	<path d="M255,408.4h-13v2h9l0,0h3.9h0.1c1.7,0,3,1.3,3,3s-1.3,3-3,3v2c2.8,0,5-2.2,5-5S257.8,408.4,255,408.4z"/>
	<path d="M221.7,404.4H210v2h12h0.8H238c3.3,0,6-2.7,6-6s-2.7-6-6-6v2c2.2,0,4,1.8,4,4s-1.8,4-4,4h-12.5c-3.8-1.7-6.5-5.6-6.5-10
		c0-6.1,4.9-11,11-11c5.4,0,9.9,3.9,10.8,9h2c-1-6.2-6.3-11-12.8-11c-7.2,0-13,5.8-13,13C217,398.4,218.9,402,221.7,404.4z"/>
</g>
<g>
	<path d="M334.3,401.9h-24v2h24c2.2,0,4,1.8,4,4s-1.8,4-4,4v2c3.3,0,6-2.7,6-6C340.3,404.5,337.6,401.9,334.3,401.9z"/>
	<path d="M351.8,399.9L351.8,399.9c2.5-0.3,4.5-2.4,4.5-5c0-2.8-2.2-5-5-5v2c1.7,0,3,1.3,3,3s-1.3,3-3,3h-0.1h-4.9l0,0l0,0v2H351.8z
		"/>
	<path d="M355.3,401.9h-13v2h9l0,0h3.9h0.1c1.7,0,3,1.3,3,3s-1.3,3-3,3v2c2.8,0,5-2.2,5-5S358,401.9,355.3,401.9z"/>
	<path d="M323.1,399.9h15.2c3.3,0,6-2.7,6-6s-2.7-6-6-6v2c2.2,0,4,1.8,4,4s-1.8,4-4,4h-12.6c-2.6-1.2-4.7-3.3-5.7-6
		c0.8,0.2,1.7,0.3,2.6,0.3c6.2,0,11.2-5,11.2-11.2c0-1.3-0.2-2.5-0.6-3.7c4,1.1,7.2,4.5,7.9,8.6h2c-1-6.2-6.3-11-12.8-11
		c-0.3,0-0.5,0-0.8,0c1.4,1.6,2.3,3.7,2.3,6.1c0,5.1-4.1,9.2-9.2,9.2c-2,0-3.8-0.6-5.3-1.7c0.2,3.8,2,7.2,4.7,9.4h-11.7v2h12
		L323.1,399.9L323.1,399.9z"/>
</g>
<g>
	<path d="M-385.5,487.1h-20c-1.1,0-2-0.9-2-2s0.9-2,2-2h3.4h0.6v-2h-4c-2.2,0-4,1.8-4,4s1.8,4,4,4h20c2.2,0,4,1.8,4,4s-1.8,4-4,4v2
		c3.3,0,6-2.7,6-6S-382.2,487.1-385.5,487.1z"/>
	<path d="M-383.5,471.1v2c2.2,0,4,1.8,4,4s-1.8,4-4,4h-16v2h16c3.3,0,6-2.7,6-6C-377.5,473.7-380.2,471.1-383.5,471.1z"/>
	<path d="M-377.5,483.1v2h5.5V485c2.5-0.3,4.5-2.4,4.5-4.9c0-2.8-2.2-5-5-5v2c1.7,0,3,1.3,3,3s-1.3,3-3,3h-0.1H-377.5
		C-377.5,483-377.5,483-377.5,483.1L-377.5,483.1z"/>
	<path d="M-366.5,487.1h-11v2h7l0,0h3.9h0.1c1.7,0,3,1.3,3,3s-1.3,3-3,3v2c2.8,0,5-2.2,5-5S-363.8,487.1-366.5,487.1z"/>
</g>
<path d="M150.8,473.4L150.8,473.4h-38.4c-1.1,0-2-0.9-2-2s0.9-2,2-2h33c2.8,0,5-2.2,5-5s-2.2-5-5-5h-37.9l0,0h-0.1c-2.8,0-5,2.2-5,5
	s2.2,5,5,5v-2c-1.7,0-3-1.3-3-3s1.3-3,3-3h0.1h3.9h34c1.7,0,3,1.3,3,3s-1.3,3-3,3h-33c-2.2,0-4,1.8-4,4s1.8,4,4,4h38
	c1.1,0,2,0.9,2,2s-0.9,2-2,2h-32c-2.2,0-4,1.8-4,4s1.8,4,4,4h22c1.1,0,2,0.9,2,2s-0.9,2-2,2h-24l0,0c-2.2,0-4,1.8-4,4s1.8,4,4,4l0,0
	h12c1.1,0,2,0.9,2,2s-0.9,2-2,2h-2c-2.2,0-4,1.8-4,4s1.8,4,4,4v-2c-1.1,0-2-0.9-2-2s0.9-2,2-2h2c2.2,0,4-1.8,4-4s-1.8-4-4-4h-12
	c-1.1,0-2-0.9-2-2s0.9-2,2-2h24c2.2,0,4-1.8,4-4s-1.7-3.9-3.8-4l0,0h-22.2c-1.1,0-2-0.9-2-2s0.9-2,2-2h32c2.2,0,4-1.8,4-4
	C154.4,475.3,152.8,473.6,150.8,473.4z"/>
<path d="M336.2,464.1v-2h-2v2c-13,0.5-23.5,11-24,24h1.7c1.1-1.2,2.7-2,4.6-2c2.3,0,4.2,1.2,5.3,3h1.8c1.1-1.8,3.1-3,5.3-3
	c2.2,0,4.1,1.1,5.2,2.9v15.1c0,2.2,1.8,4,4,4s4-1.8,4-4h-2c0,1.1-0.9,2-2,2s-2-0.9-2-2V489c1.1-1.7,3-2.9,5.2-2.9
	c2.3,0,4.2,1.2,5.3,3h1.8c1.1-1.8,3.1-3,5.3-3c1.8,0,3.4,0.8,4.6,2h1.7C359.6,475,349.2,464.6,336.2,464.1z M353.9,484.1
	c-2.5,0-4.7,1.1-6.2,2.9c-1.5-1.8-3.8-2.9-6.2-2.9s-4.7,1.1-6.2,2.9c-1.5-1.8-3.8-2.9-6.2-2.9s-4.7,1.1-6.2,2.9
	c-1.5-1.8-3.8-2.9-6.2-2.9c-1.4,0-2.7,0.4-3.9,1c1.9-10.8,11.3-19,22.6-19s20.7,8.2,22.6,19C356.7,484.4,355.3,484.1,353.9,484.1z"
	/>
<g>
	<path d="M-69.1,588.4v-17.1c0-2.8-2.2-5-5-5s-5,2.2-5,5v17.1c-1.2,1.3-2,3-2,4.9c0,3.9,3.1,7,7,7s7-3.1,7-7
		C-67.1,591.4-67.9,589.6-69.1,588.4z M-74.1,598.3c-2.8,0-5-2.2-5-5c0-1.3,0.5-2.6,1.4-3.5l0.6-0.6v-0.8v-17.1c0-1.7,1.3-3,3-3
		s3,1.3,3,3v17.1v0.8l0.6,0.6c0.9,0.9,1.4,2.2,1.4,3.5C-69.1,596-71.3,598.3-74.1,598.3z"/>
	<path d="M-73.1,590.4v-15.2h-2v15.2c-1.2,0.4-2,1.5-2,2.8c0,1.7,1.3,3,3,3s3-1.3,3-3C-71.1,591.9-71.9,590.8-73.1,590.4z
		 M-74.1,594.3c-0.6,0-1-0.5-1-1s0.5-1,1-1s1,0.5,1,1S-73.6,594.3-74.1,594.3z"/>
</g>
<g>
	<path d="M30.7,588.4v-17.1c0-2.8-2.2-5-5-5s-5,2.2-5,5v17.1c-1.2,1.3-2,3-2,4.9c0,3.9,3.1,7,7,7s7-3.1,7-7
		C32.7,591.4,31.9,589.6,30.7,588.4z M25.7,598.3c-2.8,0-5-2.2-5-5c0-1.3,0.5-2.6,1.4-3.5l0.6-0.6v-0.8v-17.1c0-1.7,1.3-3,3-3
		s3,1.3,3,3v17.1v0.8l0.6,0.6c0.9,0.9,1.4,2.2,1.4,3.5C30.7,596,28.4,598.3,25.7,598.3z"/>
	<path d="M26.7,590.4v-20.2h-2v20.2c-1.2,0.4-2,1.5-2,2.8c0,1.7,1.3,3,3,3s3-1.3,3-3C28.7,591.9,27.9,590.8,26.7,590.4z M25.7,594.3
		c-0.6,0-1-0.5-1-1s0.5-1,1-1s1,0.5,1,1S26.2,594.3,25.7,594.3z"/>
</g>
<g>
	<path d="M-172.2,588.4v-17.1c0-2.8-2.2-5-5-5s-5,2.2-5,5v17.1c-1.2,1.3-2,3-2,4.9c0,3.9,3.1,7,7,7s7-3.1,7-7
		C-170.2,591.4-171,589.6-172.2,588.4z M-177.2,598.3c-2.8,0-5-2.2-5-5c0-1.3,0.5-2.6,1.4-3.5l0.6-0.6v-0.8v-17.1c0-1.7,1.3-3,3-3
		s3,1.3,3,3v17.1v0.8l0.6,0.6c0.9,0.9,1.4,2.2,1.4,3.5C-172.2,596-174.5,598.3-177.2,598.3z"/>
	<path d="M-176.2,590.4v-10.2h-2v10.2c-1.2,0.4-2,1.5-2,2.8c0,1.7,1.3,3,3,3s3-1.3,3-3C-174.2,591.9-175,590.8-176.2,590.4z
		 M-177.2,594.3c-0.6,0-1-0.5-1-1s0.5-1,1-1s1,0.5,1,1S-176.7,594.3-177.2,594.3z"/>
</g>
<g>
	<path d="M-275.9,588.4v-17.1c0-2.8-2.2-5-5-5s-5,2.2-5,5v17.1c-1.2,1.3-2,3-2,4.9c0,3.9,3.1,7,7,7s7-3.1,7-7
		C-273.9,591.4-274.6,589.6-275.9,588.4z M-280.9,598.3c-2.8,0-5-2.2-5-5c0-1.3,0.5-2.6,1.4-3.5l0.6-0.6v-0.8v-17.1c0-1.7,1.3-3,3-3
		s3,1.3,3,3v17.1v0.8l0.6,0.6c0.9,0.9,1.4,2.2,1.4,3.5C-275.9,596-278.1,598.3-280.9,598.3z"/>
	<path d="M-279.9,590.4v-5.2h-2v5.2c-1.2,0.4-2,1.5-2,2.8c0,1.7,1.3,3,3,3s3-1.3,3-3C-277.9,591.9-278.7,590.8-279.9,590.4z
		 M-280.9,594.3c-0.6,0-1-0.5-1-1s0.5-1,1-1s1,0.5,1,1S-280.3,594.3-280.9,594.3z"/>
</g>
<g>
	<path d="M-380.5,588.4v-17.1c0-2.8-2.2-5-5-5s-5,2.2-5,5v17.1c-1.2,1.3-2,3-2,4.9c0,3.9,3.1,7,7,7s7-3.1,7-7
		C-378.5,591.4-379.3,589.6-380.5,588.4z M-385.5,598.3c-2.8,0-5-2.2-5-5c0-1.3,0.5-2.6,1.4-3.5l0.6-0.6v-0.8v-17.1c0-1.7,1.3-3,3-3
		s3,1.3,3,3v17.1v0.8l0.6,0.6c0.9,0.9,1.4,2.2,1.4,3.5C-380.5,596-382.8,598.3-385.5,598.3z"/>
	<path d="M-385.5,590.2c-1.7,0-3,1.3-3,3s1.3,3,3,3s3-1.3,3-3C-382.5,591.6-383.9,590.2-385.5,590.2z M-385.5,594.3
		c-0.6,0-1-0.5-1-1s0.5-1,1-1s1,0.5,1,1S-385,594.3-385.5,594.3z"/>
</g>
<g>
	<path d="M119.4,568.6c-2.2,0-4,1.8-4,4s1.8,4,4,4s4-1.8,4-4C123.4,570.4,121.6,568.6,119.4,568.6z M119.4,574.6c-1.1,0-2-0.9-2-2
		s0.9-2,2-2s2,0.9,2,2S120.5,574.6,119.4,574.6z"/>
	<path d="M133.4,596.6c-4.4,0-8-3.6-8-8v-4c0-4.4,3.6-8,8-8c2.7,0,5.1,1.4,6.6,3.4l1.4-1.4c-1.8-2.4-4.7-4-8-4c-5.5,0-10,4.5-10,10
		v4c0,5.5,4.5,10,10,10c3.3,0,6.2-1.6,8-4l-1.4-1.4C138.5,595.2,136.1,596.6,133.4,596.6z"/>
</g>
<g>
	<path d="M224.1,568.4c-2.2,0-4,1.8-4,4s1.8,4,4,4s4-1.8,4-4S226.3,568.4,224.1,568.4z M224.1,574.4c-1.1,0-2-0.9-2-2s0.9-2,2-2
		s2,0.9,2,2S225.2,574.4,224.1,574.4z"/>
	<polygon points="244,576.6 244,574.6 232,574.6 230,574.6 230,598.6 232,598.6 232,586.6 240,586.6 240,584.6 232,584.6 232,576.6 
			"/>
</g>
<g>
	<path d="M335.2,572.3c-7.2,0-13,5.8-13,13s5.8,13,13,13s13-5.8,13-13S342.4,572.3,335.2,572.3z M335.2,596.3c-6.1,0-11-4.9-11-11
		s4.9-11,11-11s11,4.9,11,11S341.3,596.3,335.2,596.3z"/>
	<path d="M330.9,589.5l6.4-2.1l2.1-6.4l-6.4,2.1L330.9,589.5z M334.6,584.7l1.6-0.5l-0.5,1.6l-1.6,0.5L334.6,584.7z"/>
</g>
<g>
	<path d="M-385.5,662.8c-7.2,0-13,5.8-13,13s5.8,13,13,13s13-5.8,13-13S-378.3,662.8-385.5,662.8z M-385.5,686.8
		c-6.1,0-11-4.9-11-11s4.9-11,11-11s11,4.9,11,11C-374.5,681.8-379.5,686.8-385.5,686.8z"/>
	<path d="M-383,674.2l-2.6-4.4l-2.5,4.3l0,0c-0.3,0.5-0.5,1-0.5,1.6c0,1.7,1.3,3,3,3s3-1.3,3-3C-382.5,675.2-382.7,674.6-383,674.2
		L-383,674.2z M-385.5,676.7c-0.6,0-1-0.4-1-1c0-0.2,0.1-0.4,0.2-0.5l0.9-1.4l0.8,1.4c0.1,0.2,0.1,0.3,0.1,0.5
		C-384.5,676.3-385,676.7-385.5,676.7z"/>
</g>
<g>
	<path d="M-280.7,662.8c-7.2,0-13,5.8-13,13s5.8,13,13,13s13-5.8,13-13S-273.6,662.8-280.7,662.8z M-280.7,686.8
		c-6.1,0-11-4.9-11-11s4.9-11,11-11s11,4.9,11,11C-269.7,681.8-274.7,686.8-280.7,686.8z"/>
	<path d="M-279.1,673.2c-0.5-0.3-1-0.5-1.6-0.5c-1.7,0-3,1.3-3,3s1.3,3,3,3c0.6,0,1.1-0.2,1.5-0.4l0,0l4.4-2.6L-279.1,673.2
		L-279.1,673.2L-279.1,673.2z M-280.3,676.6c-0.2,0.1-0.3,0.1-0.5,0.1c-0.6,0-1-0.4-1-1s0.4-1,1-1c0.2,0,0.4,0.1,0.5,0.2l1.4,0.9
		L-280.3,676.6z"/>
</g>
<g>
	<path d="M-177.7,662.8c-7.2,0-13,5.8-13,13s5.8,13,13,13s13-5.8,13-13S-170.5,662.8-177.7,662.8z M-177.7,686.8
		c-6.1,0-11-4.9-11-11s4.9-11,11-11s11,4.9,11,11C-166.7,681.8-171.6,686.8-177.7,686.8z"/>
	<path d="M-177.7,672.7c-1.7,0-3,1.3-3,3c0,0.6,0.2,1.1,0.4,1.5l0,0l2.6,4.4l2.5-4.3l0,0c0.3-0.5,0.5-1,0.5-1.6
		C-174.7,674.1-176,672.7-177.7,672.7z M-176.8,676.3l-0.9,1.4l-0.8-1.4c-0.1-0.2-0.1-0.3-0.1-0.5c0-0.6,0.4-1,1-1s1,0.4,1,1
		C-176.7,675.9-176.7,676.1-176.8,676.3z"/>
</g>
<g>
	<path d="M-74.3,662.8c-7.2,0-13,5.8-13,13s5.8,13,13,13s13-5.8,13-13S-67.1,662.8-74.3,662.8z M-74.3,686.8c-6.1,0-11-4.9-11-11
		s4.9-11,11-11s11,4.9,11,11C-63.3,681.8-68.2,686.8-74.3,686.8z"/>
	<path d="M-74.3,672.7c-0.6,0-1.1,0.2-1.5,0.4l0,0l-4.4,2.6l4.3,2.5l0,0c0.5,0.3,1,0.5,1.6,0.5c1.7,0,3-1.3,3-3
		C-71.3,674.1-72.7,672.7-74.3,672.7z M-74.3,676.7c-0.2,0-0.4-0.1-0.5-0.2l-1.4-0.9l1.4-0.8c0.2-0.1,0.3-0.1,0.5-0.1
		c0.6,0,1,0.4,1,1S-73.8,676.7-74.3,676.7z"/>
</g>
<g>
	<rect x="-282.4" y="466.1" width="2" height="10"/>
	<rect x="-271.9" y="476.3" transform="matrix(0.7071 -0.7071 0.7071 0.7071 -415.6235 -48.8133)" width="10.4" height="2"/>
	<rect x="-297.1" y="472.1" transform="matrix(0.7071 -0.7071 0.7071 0.7071 -424.2347 -69.6056)" width="2" height="10.4"/>
	<polygon points="-288.1,495.3 -286.7,496.7 -282.4,492.5 -282.4,502.1 -280.4,502.1 -280.4,492.5 -276.2,496.7 -274.8,495.3 
		-281.4,488.6 	"/>
	<path d="M-268.4,492L-268.4,492c0-7.2-5.8-13-13-13s-13,5.8-13,13l0,0h-13v2h18v-2h-3l0,0c0-6.1,4.9-11,11-11s11,4.9,11,11l0,0h-3
		v2h18v-2H-268.4z"/>
</g>
<g>
	<rect x="-178.7" y="464.9" width="2" height="10"/>
	<rect x="-168.2" y="475.2" transform="matrix(0.7071 -0.7071 0.7071 0.7071 -384.4551 24.2465)" width="10.4" height="2"/>
	<rect x="-193.4" y="471" transform="matrix(0.7071 -0.7071 0.7071 0.7071 -393.0662 3.4535)" width="2" height="10.4"/>
	<polygon points="-176.7,499.4 -176.7,488.9 -178.7,488.9 -178.7,499.4 -182.9,495.2 -184.3,496.6 -177.7,503.2 -171,496.6 
		-172.4,495.2 	"/>
	<path d="M-164.7,490.9L-164.7,490.9c0-7.2-5.8-13-13-13s-13,5.8-13,13l0,0h-13v2h22v-2h-7l0,0c0-6.1,4.9-11,11-11s11,4.9,11,11l0,0
		h-7v2h22v-2H-164.7z"/>
</g>
<g>
	<polygon points="25.7,498.9 25.7,484.5 23.7,484.5 23.7,498.9 19.4,494.6 18,496 24.7,502.7 31.3,496 29.9,494.6 	"/>
	<path d="M41.3,479.5c-1.6-7.4-8.2-13-16.1-13c-6.4,0-12,3.7-14.7,9c-0.3,0-0.5,0-0.8,0c-6.6,0-12,5.4-12,12s5.3,12,11.9,12l0,0h6.1
		v-2h-5.6H9.7c-5.5,0-9.9-4.5-9.9-10s4.5-10,10-10c0.2,0,0.3,0,0.5,0h0.1l1.3,0.1l0.6-1.2c2.5-4.9,7.4-7.9,12.9-7.9
		c6.8,0,12.8,4.8,14.2,11.4l0.3,1.5l1.5,0.1c4.2,0.3,7.5,3.8,7.5,8c0,4.4-3.6,8-8,8h-0.1h-2h-4.9v2h6.9l0,0h0.1c5.5,0,10-4.5,10-10
		C50.7,484.2,46.5,479.8,41.3,479.5z"/>
</g>
<g>
	<polygon points="-68.3,495.7 -66.9,494.3 -73.6,487.6 -80.3,494.3 -78.8,495.7 -74.6,491.4 -74.6,504 -72.6,504 -72.6,491.4 	"/>
	<path d="M-57,481.1c-1.6-7.4-8.2-13-16.1-13c-6.4,0-12,3.7-14.7,9c-0.3,0-0.5,0-0.8,0c-6.6,0-12,5.4-12,12s5.3,12,11.9,12l0,0h10.1
		v-2h-9.6h-0.4c-5.5,0-9.9-4.5-9.9-10s4.5-10,10-10c0.2,0,0.3,0,0.5,0h0.1l1.3,0.1l0.6-1.2c2.5-4.9,7.4-7.9,12.9-7.9
		c6.8,0,12.8,4.8,14.2,11.4l0.3,1.5l1.5,0.1c4.2,0.3,7.5,3.8,7.5,8c0,4.4-3.6,8-8,8h-0.1h-2h-8.9v2h10.9l0,0h0.1c5.5,0,10-4.5,10-10
		C-47.6,485.8-51.7,481.4-57,481.1z"/>
</g>
<g>
	<path d="M145.5,291.6c-1.6-7.4-8.2-13-16.1-13c-6.4,0-12,3.7-14.7,9c-0.3,0-0.5,0-0.8,0c-6.6,0-12,5.4-12,12s5.3,12,11.9,12l0,0
		h2.1v-2h-1.6h-0.4c-5.5,0-9.9-4.5-9.9-10s4.5-10,10-10c0.2,0,0.3,0,0.5,0h0.1l1.3,0.1l0.6-1.2c2.5-4.9,7.4-7.9,12.9-7.9
		c6.8,0,12.8,4.8,14.2,11.4l0.3,1.5l1.5,0.1c4.2,0.3,7.5,3.8,7.5,8c0,4.4-3.6,8-8,8c-0.1,0-0.1,0-0.1,0h-2h-0.9v2h2.9l0,0h0.1
		c5.5,0,10-4.5,10-10C154.9,296.3,150.8,291.9,145.5,291.6z"/>
	<polygon points="123.9,310.6 123.9,308 126.1,309.2 126.8,308 124.3,306.6 126.8,305.2 126.1,304 123.9,305.2 123.9,302.6 
		121.9,302.6 121.9,305.2 119.7,304 119,305.2 121.4,306.6 119,308 119.7,309.2 121.9,307.9 121.9,310.6 	"/>
	<polygon points="129.1,314.9 126.9,316.2 126.9,313.6 124.9,313.6 124.9,316.2 122.6,314.9 122,316.2 124.4,317.6 122,318.9 
		122.6,320.2 124.9,318.9 124.9,321.6 126.9,321.6 126.9,318.9 129.1,320.2 129.8,318.9 127.3,317.6 129.8,316.2 	"/>
	<polygon points="138.1,308 135.9,309.2 135.9,306.6 133.9,306.6 133.9,309.2 131.7,308 131,309.2 133.4,310.6 131,312 131.7,313.2 
		133.9,311.9 133.9,314.6 135.9,314.6 135.9,312 138.1,313.2 138.8,312 136.3,310.6 138.8,309.2 	"/>
</g>
<g>
	<rect x="221" y="273.6" width="2" height="8"/>
	<rect x="202" y="292.5" width="8" height="2"/>
	<rect x="209.7" y="278.2" transform="matrix(0.7071 -0.7071 0.7071 0.7071 -137.8325 231.6427)" width="2" height="8"/>
	<rect x="229.2" y="281.2" transform="matrix(0.7071 -0.7071 0.7071 0.7071 -131.2532 247.5597)" width="8" height="2"/>
	<path d="M251.6,299.3c-1.4-6.7-7.4-11.8-14.6-11.8c-2.2,0-4.3,0.5-6.1,1.3c-1.7-3.2-5-5.4-8.9-5.4c-5.5,0-10,4.5-10,10
		c0,2.5,0.9,4.7,2.4,6.4c-1.4,1.8-2.3,4.1-2.3,6.7c0,6,4.8,10.8,10.8,10.9l0,0h1.2v-2h-0.7h-0.5c-4.9,0-8.8-4-8.8-8.9s4-8.9,8.9-8.9
		c0.1,0,0.3,0,0.4,0h0.1l1.3,0.1l0.6-1.2c2.2-4.4,6.6-7.1,11.5-7.1c6.1,0,11.4,4.3,12.6,10.2l0.3,1.5l1.5,0.1c3.7,0.2,6.6,3.3,6.6,7
		c0,3.9-3.1,7-7,7.1h-0.1h-1.9v2h1.8l0,0h0.1c5,0,9.1-4.1,9.1-9.1C260,303.6,256.3,299.6,251.6,299.3z M223.6,295.7
		c-0.2,0-0.5,0-0.7,0c-2.8,0-5.3,1-7.2,2.7c-1.1-1.4-1.8-3.1-1.8-5c0-4.4,3.6-8,8-8c3.1,0,5.8,1.8,7.1,4.3
		C226.7,291.2,224.9,293.3,223.6,295.7z"/>
	<polygon points="231,316.4 231,313.8 233.2,315 233.9,313.8 231.4,312.4 233.9,311 233.2,309.8 231,311 231,308.4 229,308.4 
		229,311.1 226.8,309.8 226.1,311 228.6,312.4 226.1,313.8 226.8,315 229,313.8 229,316.4 	"/>
	<polygon points="236.2,320.8 234,322 234,319.4 232,319.4 232,322.1 229.8,320.8 229.1,322 231.6,323.4 229.1,324.8 229.8,326 
		232,324.8 232,327.4 234,327.4 234,324.8 236.2,326 236.9,324.8 234.4,323.4 236.9,322 	"/>
	<polygon points="245.2,313.8 243,315 243,312.4 241,312.4 241,315.1 238.8,313.8 238.1,315 240.6,316.4 238.1,317.8 238.8,319 
		241,317.8 241,320.4 243,320.4 243,317.8 245.2,319 245.9,317.8 243.4,316.4 245.9,315 	"/>
</g>
<g>
	<path d="M351.7,296.3c-1.4-6.7-7.4-11.8-14.6-11.8c-1.8,0-3.5,0.3-5.1,0.9c-0.9-5.1-5.4-9-10.8-9c-0.4,0-0.8,0-1.2,0.1
		c0.7,1.1,1.2,2.4,1.2,3.9c0,3.9-3.1,7-7,7c-1.4,0-2.8-0.4-3.9-1.2c0,0.4-0.1,0.8-0.1,1.2c0,3.7,1.8,7,4.7,9
		c-1.7,1.9-2.7,4.4-2.7,7.1c0,6,4.8,10.8,10.8,10.9l0,0h1.2v-2h-0.7H323c-4.9,0-8.8-4-8.8-8.9s4-8.9,8.9-8.9c0.1,0,0.3,0,0.4,0h0.1
		l1.3,0.1l0.6-1.2c2.2-4.4,6.6-7.1,11.5-7.1c6.1,0,11.4,4.3,12.6,10.2l0.3,1.5l1.5,0.1c3.7,0.2,6.6,3.3,6.6,7c0,3.9-3.1,7-7,7.1
		h-0.1H349v2h1.8l0,0h0.1c5,0,9.1-4.1,9.1-9.1C360.2,300.6,356.5,296.6,351.7,296.3z M323.8,292.7c-0.2,0-0.5,0-0.7,0
		c-2.5,0-4.9,0.9-6.7,2.3c-2-1.3-3.5-3.4-4-5.8c0.6,0.1,1.2,0.2,1.8,0.2c5,0,9-4,9-9c0-0.6-0.1-1.2-0.2-1.8c3.7,0.8,6.6,3.8,7.1,7.6
		C327.4,287.7,325.2,290,323.8,292.7z"/>
	<polygon points="331.3,313.4 331.3,310.8 333.4,312 334.1,310.8 331.7,309.4 334.1,308 333.4,306.8 331.3,308 331.3,305.4 
		329.3,305.4 329.3,308.1 327,306.8 326.3,308 328.8,309.4 326.3,310.8 327,312 329.3,310.8 329.3,313.4 	"/>
	<polygon points="336.4,317.8 334.3,319 334.3,316.4 332.3,316.4 332.3,319.1 330,317.8 329.3,319 331.8,320.4 329.3,321.8 330,323 
		332.3,321.7 332.3,324.4 334.3,324.4 334.3,321.8 336.4,323 337.1,321.8 334.6,320.4 337.1,319 	"/>
	<polygon points="345.4,310.8 343.3,312 343.3,309.4 341.3,309.4 341.3,312.1 339,310.8 338.3,312 340.8,313.4 338.3,314.8 339,316 
		341.3,314.8 341.3,317.4 343.3,317.4 343.3,314.8 345.4,316 346.1,314.8 343.7,313.4 346.1,312 	"/>
</g>
<rect x="-264.6" y="-271.4" class="st0" width="473" height="180.9"/>
<text transform="matrix(1 0 0 1 -84.979 -200.0132)" style="font-family:'Helvetica'; font-size:100px; letter-spacing:2;">60</text>
<text transform="matrix(1 0 0 1 -184.247 -140.0132)" style="font-family:'Helvetica'; font-size:48px;">Weather Icons</text>
<text transform="matrix(1 0 0 1 -88.705 -96.0132)" style="font-family:'Helvetica'; font-size:24px;">IOS 7 Style</text>
</svg>
