<?xml version="1.0" encoding="utf-8"?>
<!-- Generator: Adobe Illustrator 25.0.1, SVG Export Plug-In . SVG Version: 6.00 Build 0)  -->
<svg version="1.1" id="Layer_1" xmlns="http://www.w3.org/2000/svg" xmlns:xlink="http://www.w3.org/1999/xlink" x="0px" y="0px"
	 viewBox="0 0 52 52" style="enable-background:new 0 0 52 52;" xml:space="preserve">
<style type="text/css">
	.st0{fill:#FFFFFF;}
</style>
<g>
	<path class="st0" d="M26,13c-7.2,0-13,5.8-13,13c0,7.2,5.8,13,13,13s13-5.8,13-13C39,18.8,33.2,13,26,13z M26,37
		c-6.1,0-11-4.9-11-11c0-6.1,4.9-11,11-11s11,4.9,11,11C37,32.1,32.1,37,26,37z"/>
	<rect x="25" class="st0" width="2" height="10"/>
	<rect x="25" y="42" class="st0" width="2" height="10"/>
	<rect y="25" class="st0" width="10" height="2"/>
	<rect x="42" y="25" class="st0" width="10" height="2"/>
	<rect x="35.5" y="10.3" transform="matrix(0.7071 -0.7071 0.7071 0.7071 3.9352 32.081)" class="st0" width="10.4" height="2"/>
	<rect x="6.1" y="39.7" transform="matrix(0.7071 -0.7071 0.7071 0.7071 -25.4741 19.9)" class="st0" width="10.4" height="2"/>
	<rect x="10.3" y="6.1" transform="matrix(0.7071 -0.7071 0.7071 0.7071 -4.681 11.2903)" class="st0" width="2" height="10.4"/>
	<rect x="39.7" y="35.5" transform="matrix(0.7071 -0.7072 0.7072 0.7071 -16.8599 40.7026)" class="st0" width="2" height="10.4"/>
</g>
</svg>
