<?xml version="1.0" encoding="utf-8"?>
<!-- Generator: Adobe Illustrator 25.0.1, SVG Export Plug-In . SVG Version: 6.00 Build 0)  -->
<svg version="1.1" id="Layer_1" xmlns="http://www.w3.org/2000/svg" xmlns:xlink="http://www.w3.org/1999/xlink" x="0px" y="0px"
	 viewBox="0 0 34 34" style="enable-background:new 0 0 34 34;" xml:space="preserve">
<style type="text/css">
	.st0{fill:#FFFFFF;}
	.st1{fill:none;}
</style>
<path d="M534.4,464.8l-1.8,15.1l-0.3,2.2h2.3h6.9l-14.7,18.8l1.8-14.5l0.3-2.2h-2.3h-7L534.4,464.8 M537.3,457.7l-21.7,28.3h11
	l-2.7,21.7l21.7-27.7h-11L537.3,457.7L537.3,457.7z"/>
<path d="M121.4,2.5c6.8,0,12.7,4.8,14.2,11.4l0.3,1.5l1.5,0.1c4.2,0.3,7.5,3.8,7.5,8c0,4.4-3.6,8-8,8c0,0-0.1,0-0.1,0l-2,0v0h-28.3
	l-0.6,0c-5.5,0-9.9-4.5-9.9-10c0-5.5,4.5-10,10-10c0.2,0,0.3,0,0.5,0l0.1,0l1.3,0.1l0.6-1.2C111,5.5,115.9,2.5,121.4,2.5 M121.4,0.5
	c-6.4,0-12,3.7-14.7,9c-0.3,0-0.5,0-0.8,0c-6.6,0-12,5.4-12,12c0,6.6,5.3,12,11.9,12v0h30.9v0c0,0,0.1,0,0.1,0c5.5,0,10-4.5,10-10
	c0-5.3-4.1-9.6-9.4-10C135.9,6.1,129.3,0.5,121.4,0.5L121.4,0.5z"/>
<g>
	<path d="M244.3,20.9c-1.4-6.7-7.4-11.8-14.6-11.8c-2.2,0-4.3,0.5-6.1,1.3c-1.7-3.2-5-5.4-8.9-5.4c-5.5,0-10,4.5-10,10
		c0,2.5,0.9,4.7,2.4,6.4c-1.4,1.8-2.3,4.1-2.3,6.7c0,6,4.8,10.8,10.8,10.9v0h28v0c0,0,0.1,0,0.1,0c5,0,9.1-4.1,9.1-9.1
		C252.8,25.1,249.1,21.2,244.3,20.9z M214.8,7c3.1,0,5.8,1.8,7.1,4.3c-2.3,1.4-4.2,3.5-5.4,5.9c-0.2,0-0.5,0-0.7,0
		c-2.8,0-5.3,1-7.2,2.7c-1.1-1.4-1.8-3.1-1.8-5C206.8,10.6,210.3,7,214.8,7z M243.8,37c0,0-0.1,0-0.1,0l-2,0v0h-25.4l-0.6,0
		c-4.9,0-8.8-4-8.8-8.9c0-4.9,4-8.9,8.9-8.9c0.1,0,0.3,0,0.4,0l0.1,0l1.3,0.1l0.6-1.2c2.2-4.4,6.6-7.1,11.5-7.1
		c6.1,0,11.4,4.3,12.6,10.2l0.3,1.5l1.5,0.1c3.7,0.2,6.6,3.3,6.6,7C250.8,33.8,247.7,37,243.8,37z"/>
	<rect x="213.8" y="-5" width="2" height="8"/>
	<rect x="194.8" y="14" width="8" height="2"/>
	<rect x="202.5" y="-0.2" transform="matrix(0.7071 -0.7071 0.7071 0.7071 56.936 144.9966)" width="2" height="8"/>
	<rect x="222" y="2.8" transform="matrix(0.7071 -0.7071 0.7071 0.7071 63.5295 160.9229)" width="8" height="2"/>
</g>
<path d="M340.1,16.9c-1.4-6.7-7.4-11.8-14.6-11.8c-1.8,0-3.5,0.3-5.1,0.9c-0.9-5.1-5.4-9-10.8-9c-0.4,0-0.8,0-1.2,0.1
	c0.7,1.1,1.2,2.4,1.2,3.9c0,3.9-3.1,7-7,7c-1.4,0-2.8-0.4-3.9-1.2c0,0.4-0.1,0.8-0.1,1.2c0,3.7,1.8,7,4.7,9
	c-1.7,1.9-2.7,4.4-2.7,7.1c0,6,4.8,10.8,10.8,10.9v0h28v0c0,0,0.1,0,0.1,0c5,0,9.1-4.1,9.1-9.1C348.6,21.1,344.8,17.2,340.1,16.9z
	 M300.8,9.8c0.6,0.1,1.2,0.2,1.8,0.2c5,0,9-4,9-9c0-0.6-0.1-1.2-0.2-1.8c3.7,0.8,6.6,3.8,7.1,7.6c-2.7,1.4-4.9,3.7-6.3,6.4
	c-0.2,0-0.5,0-0.7,0c-2.5,0-4.9,0.9-6.7,2.3C302.7,14.3,301.2,12.2,300.8,9.8z M339.6,33c0,0-0.1,0-0.1,0l-2,0v0H312l-0.6,0
	c-4.9,0-8.8-4-8.8-8.9c0-4.9,4-8.9,8.9-8.9c0.1,0,0.3,0,0.4,0l0.1,0l1.3,0.1l0.6-1.2c2.2-4.4,6.6-7.1,11.5-7.1
	c6.1,0,11.4,4.3,12.6,10.2l0.3,1.5l1.5,0.1c3.7,0.2,6.6,3.3,6.6,7C346.6,29.8,343.4,32.9,339.6,33z"/>
<g>
	<rect x="424.7" y="25.5" width="2" height="7"/>
	<rect x="432.7" y="21.5" width="2" height="7"/>
	<rect x="416.7" y="21.5" width="2" height="7"/>
	<rect x="424.7" y="35.5" width="2" height="7"/>
	<rect x="432.7" y="31.5" width="2" height="7"/>
	<rect x="416.7" y="31.5" width="2" height="7"/>
	<path d="M443.4,8.5c-1.6-7.4-8.2-13-16.1-13c-6.4,0-12,3.7-14.7,9c-0.3,0-0.5,0-0.8,0c-6.6,0-12,5.4-12,12c0,6.6,5.3,12,11.9,12v0
		h2.1v-2h-1.6l-0.4,0c-5.5,0-9.9-4.5-9.9-10c0-5.5,4.5-10,10-10c0.2,0,0.3,0,0.5,0l0.1,0l1.3,0.1l0.6-1.2c2.5-4.9,7.4-7.9,12.9-7.9
		c6.8,0,12.8,4.8,14.2,11.4l0.3,1.5l1.5,0.1c4.2,0.3,7.5,3.8,7.5,8c0,4.4-3.6,8-8,8c0,0-0.1,0-0.1,0l-2,0h-2.9v2h4.9v0
		c0,0,0.1,0,0.1,0c5.5,0,10-4.5,10-10C452.7,13.2,448.6,8.8,443.4,8.5z"/>
</g>
<g>
	<path d="M240.9,97.9c-1.6-7.4-8.2-13-16.1-13c-6.4,0-12,3.7-14.7,9c-0.3,0-0.5,0-0.8,0c-6.6,0-12,5.4-12,12c0,6.6,5.3,12,11.9,12v0
		h2.1v-2h-1.6l-0.4,0c-5.5,0-9.9-4.5-9.9-10c0-5.5,4.5-10,10-10c0.2,0,0.3,0,0.5,0l0.1,0l1.3,0.1l0.6-1.2c2.5-4.9,7.4-7.9,12.9-7.9
		c6.8,0,12.8,4.8,14.2,11.4l0.3,1.5l1.5,0.1c4.2,0.3,7.5,3.8,7.5,8c0,4.4-3.6,8-8,8c-0.1,0-0.1,0-0.1,0l-2,0h-2.9v2h4.9v0
		c0,0,0.1,0,0.1,0c5.5,0,10-4.5,10-10C250.3,102.5,246.2,98.2,240.9,97.9z"/>
	<polygon points="222.3,124.9 222.3,126.8 222.3,132.9 224.3,132.9 224.3,126.8 224.3,124.9 224.3,112.9 222.3,112.9 	"/>
	<polygon points="230.3,120.9 230.3,122.6 230.3,128.9 232.3,128.9 232.3,122.6 232.3,120.9 232.3,108.9 230.3,108.9 	"/>
	<polygon points="214.3,120.9 214.3,122.9 214.3,128.9 216.3,128.9 216.3,122.9 216.3,120.9 216.3,108.9 214.3,108.9 	"/>
</g>
<g>
	<polygon points="536.6,121.8 529.7,112 528.1,113.1 534.9,122.9 536.1,124.5 539.5,129.5 541.2,128.3 537.7,123.4 	"/>
	<polygon points="544.6,121.8 537.7,112 536.1,113.1 543,122.9 544,124.4 547.5,129.5 549.2,128.3 545.6,123.2 	"/>
	<polygon points="528.6,121.8 521.7,112 520.1,113.1 526.9,122.9 528.1,124.6 531.5,129.5 533.2,128.3 529.8,123.5 	"/>
	<path d="M547.7,98.1c-1.6-7.4-8.2-13-16.1-13c-6.4,0-12,3.7-14.7,9c-0.3,0-0.5,0-0.8,0c-6.6,0-12,5.4-12,12c0,6.6,5.3,12,11.9,12v0
		h2.1v-2h-1.6l-0.4,0c-5.5,0-9.9-4.5-9.9-10c0-5.5,4.5-10,10-10c0.2,0,0.3,0,0.5,0l0.1,0l1.3,0.1l0.6-1.2c2.5-4.9,7.4-7.9,12.9-7.9
		c6.8,0,12.8,4.8,14.2,11.4l0.3,1.5l1.5,0.1c4.2,0.3,7.5,3.8,7.5,8c0,4.4-3.6,8-8,8c0,0-0.1,0-0.1,0l-1,0h0.1v2h0.9v0
		c0,0,0.1,0,0.1,0c5.5,0,10-4.5,10-10C557.1,102.8,552.9,98.5,547.7,98.1z"/>
</g>
<g>
	<rect x="519.4" y="-10.9" width="2" height="8"/>
	<rect x="500.4" y="8" width="8" height="2"/>
	<rect x="508" y="-6.3" transform="matrix(0.7071 -0.7071 0.7071 0.7071 150.718 359.2809)" width="2" height="8"/>
	<rect x="527.6" y="-3.3" transform="matrix(0.7071 -0.7071 0.7071 0.7071 157.3118 375.2066)" width="8" height="2"/>
	<rect x="533.4" y="29.9" width="2" height="7"/>
	<rect x="541.4" y="25.9" width="2" height="7"/>
	<rect x="525.4" y="25.9" width="2" height="7"/>
	<rect x="533.4" y="39.9" width="2" height="7"/>
	<rect x="541.4" y="35.9" width="2" height="7"/>
	<rect x="525.4" y="35.9" width="2" height="7"/>
	<path d="M549.9,14.9c-1.4-6.7-7.4-11.8-14.6-11.8c-2.2,0-4.3,0.5-6.1,1.3c-1.7-3.2-5-5.4-8.9-5.4c-5.5,0-10,4.5-10,10
		c0,2.5,0.9,4.7,2.4,6.4c-1.4,1.8-2.3,4.1-2.3,6.7c0,6,4.8,10.8,10.8,10.9v0h1.2v-2h-0.7l-0.5,0c-4.9,0-8.8-4-8.8-8.9
		c0-4.9,4-8.9,8.9-8.9c0.2,0,0.3,0,0.4,0l0.1,0l1.3,0.1l0.6-1.2c2.2-4.4,6.6-7.1,11.5-7.1c6.1,0,11.4,4.3,12.6,10.2l0.3,1.5l1.5,0.1
		c3.7,0.2,6.6,3.3,6.6,7c0,3.9-3.1,7-7,7.1c0,0-0.1,0-0.1,0l-2,0h-0.8v2h2.8v0c0,0,0.1,0,0.1,0c5,0,9.1-4.1,9.1-9.1
		C558.4,19.1,554.6,15.1,549.9,14.9z M522,11.2c-0.2,0-0.5,0-0.7,0c-2.8,0-5.3,1-7.2,2.7c-1.1-1.4-1.8-3.1-1.8-5c0-4.4,3.6-8,8-8
		c3.1,0,5.8,1.8,7.1,4.3C525.1,6.8,523.2,8.8,522,11.2z"/>
</g>
<g>
	<rect x="633.8" y="28.5" width="2" height="7"/>
	<rect x="641.8" y="24.5" width="2" height="7"/>
	<rect x="625.8" y="24.5" width="2" height="7"/>
	<rect x="633.8" y="38.5" width="2" height="7"/>
	<rect x="641.8" y="34.5" width="2" height="7"/>
	<rect x="625.8" y="34.5" width="2" height="7"/>
	<path d="M650.3,13.4c-1.4-6.7-7.4-11.8-14.6-11.8c-1.8,0-3.5,0.3-5.1,0.9c-0.9-5.1-5.4-9-10.8-9c-0.4,0-0.8,0-1.2,0.1
		c0.7,1.1,1.2,2.4,1.2,3.9c0,3.9-3.1,7-7,7c-1.4,0-2.8-0.4-3.9-1.2c0,0.4-0.1,0.8-0.1,1.2c0,3.7,1.8,7,4.7,9
		c-1.7,1.9-2.7,4.4-2.7,7.1c0,6,4.8,10.8,10.8,10.9v0h1.2v-2h-0.7l-0.5,0c-4.9,0-8.8-4-8.8-8.9c0-4.9,4-8.9,8.9-8.9
		c0.2,0,0.3,0,0.4,0l0.1,0l1.3,0.1l0.6-1.2c2.2-4.4,6.6-7.1,11.5-7.1c6.1,0,11.4,4.3,12.6,10.2l0.3,1.5l1.5,0.1
		c3.7,0.2,6.6,3.3,6.6,7c0,3.9-3.1,7-7,7.1c0,0-0.1,0-0.1,0l-2,0h-0.8v2h2.8v0c0,0,0.1,0,0.1,0c5,0,9.1-4.1,9.1-9.1
		C658.8,17.6,655.1,13.7,650.3,13.4z M622.4,9.8c-0.2,0-0.5,0-0.7,0c-2.5,0-4.9,0.9-6.7,2.3c-2-1.3-3.5-3.4-4-5.8
		c0.6,0.1,1.2,0.2,1.8,0.2c5,0,9-4,9-9c0-0.6-0.1-1.2-0.2-1.8c3.7,0.8,6.6,3.8,7.1,7.6C626,4.8,623.8,7,622.4,9.8z"/>
</g>
<g>
	<polygon points="326.6,129.3 326.6,131.3 326.6,137.3 328.6,137.3 328.6,131.3 328.6,129.3 328.6,117.3 326.6,117.3 	"/>
	<polygon points="334.6,125.3 334.6,127.1 334.6,133.3 336.6,133.3 336.6,127.1 336.6,125.3 336.6,113.3 334.6,113.3 	"/>
	<polygon points="318.6,125.3 318.6,127.4 318.6,133.3 320.6,133.3 320.6,127.4 320.6,125.3 320.6,113.3 318.6,113.3 	"/>
	<rect x="312.6" y="78.4" width="2" height="8"/>
	<rect x="293.6" y="97.3" width="8" height="2"/>
	<rect x="301.2" y="83.1" transform="matrix(0.7071 -0.7071 0.7071 0.7071 26.966 239.212)" width="2" height="8"/>
	<rect x="320.8" y="86.1" transform="matrix(0.7071 -0.7071 0.7071 0.7071 33.5595 255.1383)" width="8" height="2"/>
	<path d="M343.1,104.2c-1.4-6.7-7.4-11.8-14.6-11.8c-2.2,0-4.3,0.5-6.1,1.3c-1.7-3.2-5-5.4-8.9-5.4c-5.5,0-10,4.5-10,10
		c0,2.5,0.9,4.7,2.4,6.4c-1.4,1.8-2.3,4.1-2.3,6.7c0,6,4.8,10.8,10.8,10.9v0h1.2v-2h-0.7l-0.5,0c-4.9,0-8.8-4-8.8-8.9
		c0-4.9,4-8.9,8.9-8.9c0.1,0,0.3,0,0.4,0l0.1,0l1.3,0.1l0.6-1.2c2.2-4.4,6.6-7.1,11.5-7.1c6.1,0,11.4,4.3,12.6,10.2l0.3,1.5l1.5,0.1
		c3.7,0.2,6.6,3.3,6.6,7c0,3.9-3.1,7-7,7.1c0,0-0.1,0-0.1,0l-2,0h-0.8v2h2.8v0c0,0,0.1,0,0.1,0c5,0,9.1-4.1,9.1-9.1
		C351.6,108.4,347.8,104.5,343.1,104.2z M315.2,100.6c-0.2,0-0.5,0-0.7,0c-2.8,0-5.3,1-7.2,2.7c-1.1-1.4-1.8-3.1-1.8-5
		c0-4.4,3.6-8,8-8c3.1,0,5.8,1.8,7.1,4.3C318.3,96.1,316.4,98.2,315.2,100.6z"/>
</g>
<g>
	<polygon points="427,126.8 427,128.7 427,134.8 429,134.8 429,128.7 429,126.8 429,114.8 427,114.8 	"/>
	<polygon points="435,122.8 435,124.5 435,130.8 437,130.8 437,124.5 437,122.8 437,110.8 435,110.8 	"/>
	<polygon points="419,122.8 419,124.9 419,130.8 421,130.8 421,124.9 421,122.8 421,110.8 419,110.8 	"/>
	<path d="M443.5,101.7c-1.4-6.7-7.4-11.8-14.6-11.8c-1.8,0-3.5,0.3-5.1,0.9c-0.9-5.1-5.4-9-10.8-9c-0.4,0-0.8,0-1.2,0.1
		c0.7,1.1,1.2,2.4,1.2,3.9c0,3.9-3.1,7-7,7c-1.4,0-2.8-0.4-3.9-1.2c0,0.4-0.1,0.8-0.1,1.2c0,3.7,1.8,7,4.7,9
		c-1.7,1.9-2.7,4.4-2.7,7.1c0,6,4.8,10.8,10.8,10.9v0h1.2v-2h-0.7l-0.5,0c-4.9,0-8.8-4-8.8-8.9c0-4.9,4-8.9,8.9-8.9
		c0.1,0,0.3,0,0.4,0l0.1,0l1.3,0.1l0.6-1.2c2.2-4.4,6.6-7.1,11.5-7.1c6.1,0,11.4,4.3,12.6,10.2l0.3,1.5l1.5,0.1
		c3.7,0.2,6.6,3.3,6.6,7c0,3.9-3.1,7-7,7.1c0,0-0.1,0-0.1,0l-2,0H440v2h2.8v0c0,0,0.1,0,0.1,0c5,0,9.1-4.1,9.1-9.1
		C452,105.9,448.2,102,443.5,101.7z M415.6,98.1c-0.2,0-0.5,0-0.7,0c-2.5,0-4.9,0.9-6.7,2.3c-2-1.3-3.5-3.4-4-5.8
		c0.6,0.1,1.2,0.2,1.8,0.2c5,0,9-4,9-9c0-0.6-0.1-1.2-0.2-1.8c3.7,0.8,6.6,3.8,7.1,7.6C419.2,93.1,417,95.3,415.6,98.1z"/>
</g>
<g>
	<polygon points="644,127.7 637.1,117.9 635.5,119.1 642.4,128.9 643.5,130.5 647,135.4 648.6,134.3 645.1,129.3 	"/>
	<polygon points="652,127.7 645.1,117.9 643.5,119.1 650.4,128.9 651.4,130.3 655,135.4 656.6,134.3 653,129.2 	"/>
	<polygon points="636,127.7 629.1,117.9 627.5,119.1 634.4,128.9 635.6,130.6 639,135.4 640.6,134.3 637.2,129.4 	"/>
	<rect x="623.5" y="80.2" width="2" height="8"/>
	<rect x="604.5" y="99.1" width="8" height="2"/>
	<rect x="612.1" y="84.8" transform="matrix(0.7071 -0.7071 0.7071 0.7071 116.7717 459.5796)" width="2" height="8"/>
	<rect x="631.7" y="87.8" transform="matrix(0.7071 -0.7071 0.7071 0.7071 123.3652 475.506)" width="8" height="2"/>
	<path d="M654,106c-1.4-6.7-7.4-11.8-14.6-11.8c-2.2,0-4.3,0.5-6.1,1.3c-1.7-3.2-5-5.4-8.9-5.4c-5.5,0-10,4.5-10,10
		c0,2.5,0.9,4.7,2.4,6.4c-1.4,1.8-2.3,4.1-2.3,6.7c0,6,4.8,10.8,10.8,10.9v0h1.2v-2h-0.7l-0.5,0c-4.9,0-8.8-4-8.8-8.9
		c0-4.9,4-8.9,8.9-8.9c0.2,0,0.3,0,0.4,0l0.1,0l1.3,0.1l0.6-1.2c2.2-4.4,6.6-7.1,11.5-7.1c6.1,0,11.4,4.3,12.6,10.2l0.3,1.5l1.5,0.1
		c3.7,0.2,6.6,3.3,6.6,7c0,3.9-3.1,7-7,7.1c0,0-0.1,0-0.1,0l0,0h-0.8v2h0.8v0c0,0,0.1,0,0.1,0c5,0,9.1-4.1,9.1-9.1
		C662.5,110.2,658.7,106.3,654,106z M626.1,102.4c-0.2,0-0.5,0-0.7,0c-2.8,0-5.3,1-7.2,2.7c-1.1-1.4-1.8-3.1-1.8-5c0-4.4,3.6-8,8-8
		c3.1,0,5.8,1.8,7.1,4.3C629.2,97.9,627.3,99.9,626.1,102.4z"/>
</g>
<g>
	<polygon points="-79.4,224.2 -86.3,214.4 -87.9,215.5 -81.1,225.4 -79.9,227 -76.5,231.9 -74.8,230.8 -78.3,225.8 	"/>
	<polygon points="-71.4,224.2 -78.3,214.4 -79.9,215.5 -73.1,225.4 -72,226.8 -68.5,231.9 -66.8,230.8 -70.4,225.7 	"/>
	<polygon points="-87.4,224.2 -94.3,214.4 -95.9,215.5 -89.1,225.4 -87.9,227.1 -84.5,231.9 -82.8,230.8 -86.2,225.9 	"/>
	<path d="M-69.4,202.5c-1.4-6.7-7.4-11.8-14.6-11.8c-1.8,0-3.5,0.3-5.1,0.9c-0.9-5.1-5.4-9-10.8-9c-0.4,0-0.8,0-1.2,0.1
		c0.7,1.1,1.2,2.4,1.2,3.9c0,3.9-3.1,7-7,7c-1.4,0-2.8-0.4-3.9-1.2c0,0.4-0.1,0.8-0.1,1.2c0,3.7,1.8,7,4.7,9
		c-1.7,1.9-2.7,4.4-2.7,7.1c0,6,4.8,10.8,10.8,10.9v0h1.2v-2h-0.7l-0.5,0c-4.9,0-8.8-4-8.8-8.9c0-4.9,4-8.9,8.9-8.9
		c0.2,0,0.3,0,0.4,0l0.1,0l1.3,0.1l0.6-1.2c2.2-4.4,6.6-7.1,11.5-7.1c6.1,0,11.4,4.3,12.6,10.2l0.3,1.5l1.5,0.1
		c3.7,0.2,6.6,3.3,6.6,7c0,3.9-3.1,7-7,7.1c0,0-0.1,0-0.1,0l0,0h-0.8v2h0.8v0c0,0,0.1,0,0.1,0c5,0,9.1-4.1,9.1-9.1
		C-60.9,206.7-64.7,202.8-69.4,202.5z M-97.3,198.9c-0.2,0-0.5,0-0.7,0c-2.5,0-4.9,0.9-6.7,2.3c-2-1.3-3.5-3.4-4-5.8
		c0.6,0.1,1.2,0.2,1.8,0.2c5,0,9-4,9-9c0-0.6-0.1-1.2-0.2-1.8c3.7,0.8,6.6,3.8,7.1,7.6C-93.7,193.9-96,196.1-97.3,198.9z"/>
</g>
<g>
	<rect x="-86.9" y="120.4" width="2" height="4"/>
	<rect x="-78.9" y="116.4" width="2" height="4"/>
	<rect x="-94.9" y="116.4" width="2" height="4"/>
	<path d="M-68.3,100.4c-1.6-7.4-8.2-13-16.1-13c-6.4,0-12,3.7-14.7,9c-0.3,0-0.5,0-0.8,0c-6.6,0-12,5.4-12,12c0,6.6,5.3,12,11.9,12
		v0h2.1v-2h-1.6l-0.4,0c-5.5,0-9.9-4.5-9.9-10c0-5.5,4.5-10,10-10c0.2,0,0.3,0,0.5,0l0.1,0l1.3,0.1l0.6-1.2
		c2.5-4.9,7.4-7.9,12.9-7.9c6.8,0,12.8,4.8,14.2,11.4l0.3,1.5l1.5,0.1c4.2,0.3,7.5,3.8,7.5,8c0,4.4-3.6,8-8,8c-0.1,0-0.1,0-0.1,0
		l-2,0h-2.9v2h4.9v0c0,0,0.1,0,0.1,0c5.5,0,10-4.5,10-10C-58.9,105-63.1,100.7-68.3,100.4z"/>
	<circle cx="-77.9" cy="125.4" r="1.5"/>
	<circle cx="-85.9" cy="129.4" r="1.5"/>
	<circle cx="-93.9" cy="125.4" r="1.5"/>
</g>
<g>
	<rect x="6" y="80.9" width="2" height="8"/>
	<rect x="-13" y="99.8" width="8" height="2"/>
	<rect x="-5.4" y="85.6" transform="matrix(0.7071 -0.7071 0.7071 0.7071 -64.6128 23.1532)" width="2" height="8"/>
	<rect x="14.2" y="88.6" transform="matrix(0.7071 -0.7071 0.7071 0.7071 -58.0192 39.0796)" width="8" height="2"/>
	<path d="M36.5,106.7C35,100,29.1,94.9,21.9,94.9c-2.2,0-4.3,0.5-6.1,1.3c-1.7-3.2-5-5.4-8.9-5.4c-5.5,0-10,4.5-10,10
		c0,2.5,0.9,4.7,2.4,6.4c-1.4,1.8-2.3,4.1-2.3,6.7c0,6,4.8,10.8,10.8,10.9v0H9v-2H8.3l-0.5,0c-4.9,0-8.8-4-8.8-8.9
		c0-4.9,4-8.9,8.9-8.9c0.2,0,0.3,0,0.4,0l0.1,0l1.3,0.1l0.6-1.2c2.2-4.4,6.6-7.1,11.5-7.1c6.1,0,11.4,4.3,12.6,10.2l0.3,1.5l1.5,0.1
		c3.7,0.2,6.6,3.3,6.6,7c0,3.9-3.1,7-7,7.1c0,0-0.1,0-0.1,0l-2,0H33v2h2.8v0c0,0,0.1,0,0.1,0c5,0,9.1-4.1,9.1-9.1
		C45,110.9,41.2,107,36.5,106.7z M8.6,103.1c-0.2,0-0.5,0-0.7,0c-2.8,0-5.3,1-7.2,2.7c-1.1-1.4-1.8-3.1-1.8-5c0-4.4,3.6-8,8-8
		c3.1,0,5.8,1.8,7.1,4.3C11.7,98.6,9.8,100.7,8.6,103.1z"/>
	<rect x="20" y="124.8" width="2" height="4"/>
	<rect x="28" y="120.8" width="2" height="4"/>
	<rect x="12" y="120.8" width="2" height="4"/>
	<circle cx="29" cy="129.8" r="1.5"/>
	<circle cx="21" cy="133.8" r="1.5"/>
	<circle cx="13" cy="129.8" r="1.5"/>
</g>
<g>
	<path d="M137.4,105.8C136,99,130,94,122.8,94c-1.8,0-3.5,0.3-5.1,0.9c-0.9-5.1-5.4-9-10.8-9c-0.4,0-0.8,0-1.2,0.1
		c0.7,1.1,1.2,2.4,1.2,3.9c0,3.9-3.1,7-7,7c-1.4,0-2.8-0.4-3.9-1.2c0,0.4-0.1,0.8-0.1,1.2c0,3.7,1.8,7,4.7,9
		c-1.7,1.9-2.7,4.4-2.7,7.1c0,6,4.8,10.8,10.8,10.9v0h1.2v-2h-0.7l-0.5,0c-4.9,0-8.8-4-8.8-8.9c0-4.9,4-8.9,8.9-8.9
		c0.2,0,0.3,0,0.4,0l0.1,0l1.3,0.1l0.6-1.2c2.2-4.4,6.6-7.1,11.5-7.1c6.1,0,11.4,4.3,12.6,10.2l0.3,1.5l1.5,0.1
		c3.7,0.2,6.6,3.3,6.6,7c0,3.9-3.1,7-7,7.1c0,0-0.1,0-0.1,0l-2,0h-0.8v2h2.8v0c0,0,0.1,0,0.1,0c5,0,9.1-4.1,9.1-9.1
		C145.9,110,142.2,106.1,137.4,105.8z M109.5,102.1c-0.2,0-0.5,0-0.7,0c-2.5,0-4.9,0.9-6.7,2.3c-2-1.3-3.5-3.4-4-5.8
		c0.6,0.1,1.2,0.2,1.8,0.2c5,0,9-4,9-9c0-0.6-0.1-1.2-0.2-1.8c3.7,0.8,6.6,3.8,7.1,7.6C113.1,97.1,110.9,99.4,109.5,102.1z"/>
	<rect x="120.9" y="123.9" width="2" height="4"/>
	<rect x="128.9" y="119.8" width="2" height="4"/>
	<rect x="112.9" y="119.8" width="2" height="4"/>
	<circle cx="129.9" cy="128.9" r="1.5"/>
	<circle cx="121.9" cy="132.8" r="1.5"/>
	<circle cx="113.9" cy="128.8" r="1.5"/>
</g>
<g>
	<path d="M34.1,198.8c-1.6-7.4-8.2-13-16.1-13c-6.4,0-12,3.7-14.7,9c-0.3,0-0.5,0-0.8,0c-6.6,0-12,5.4-12,12c0,6.6,5.3,12,11.9,12v0
		h6.1v-2H2.9l-0.4,0c-5.5,0-9.9-4.5-9.9-10c0-5.5,4.5-10,10-10c0.2,0,0.3,0,0.5,0l0.1,0l1.3,0.1l0.6-1.2c2.5-4.9,7.4-7.9,12.9-7.9
		c6.8,0,12.8,4.8,14.2,11.4l0.3,1.5l1.5,0.1c4.2,0.3,7.5,3.8,7.5,8c0,4.4-3.6,8-8,8c0,0-0.1,0-0.1,0l-5,0h0.1v2h4.9v0
		c0,0,0.1,0,0.1,0c5.5,0,10-4.5,10-10C43.5,203.4,39.3,199.1,34.1,198.8z"/>
	<polygon points="18.3,218.8 20.1,218.8 20.5,218.8 22.5,218.8 16.1,209.6 14.5,210.7 18.7,216.8 16.9,216.8 14.5,216.8 15.8,218.6 
		16.9,220.2 22.8,228.8 24.5,227.6 18.5,219 	"/>
</g>
<g>
	<rect x="109.9" y="179.7" width="2" height="8"/>
	<rect x="90.9" y="198.6" width="8" height="2"/>
	<rect x="98.6" y="184.3" transform="matrix(0.7071 -0.7071 0.7071 0.7071 -103.9882 125.5577)" width="2" height="8"/>
	<rect x="118.1" y="187.3" transform="matrix(0.7071 -0.7071 0.7071 0.7071 -97.3947 141.4841)" width="8" height="2"/>
	<path d="M140.4,205.4c-1.4-6.7-7.4-11.8-14.6-11.8c-2.2,0-4.3,0.5-6.1,1.3c-1.7-3.2-5-5.4-8.9-5.4c-5.5,0-10,4.5-10,10
		c0,2.5,0.9,4.7,2.4,6.4c-1.4,1.8-2.3,4.1-2.3,6.7c0,6,4.8,10.8,10.8,10.9v0h4.2v-2h-3.7l-0.5,0c-4.9,0-8.8-4-8.8-8.9
		c0-4.9,4-8.9,8.9-8.9c0.2,0,0.3,0,0.4,0l0.1,0l1.3,0.1l0.6-1.2c2.2-4.4,6.6-7.1,11.5-7.1c6.1,0,11.4,4.3,12.6,10.2l0.3,1.5l1.5,0.1
		c3.7,0.2,6.6,3.3,6.6,7c0,3.9-3.1,7-7,7.1c0,0-0.1,0-0.1,0l-2,0h-3.8v2h5.8v0c0,0,0.1,0,0.1,0c5,0,9.1-4.1,9.1-9.1
		C148.9,209.7,145.2,205.7,140.4,205.4z M112.5,201.8c-0.2,0-0.5,0-0.7,0c-2.8,0-5.3,1-7.2,2.7c-1.1-1.4-1.8-3.1-1.8-5
		c0-4.4,3.6-8,8-8c3.1,0,5.8,1.8,7.1,4.3C115.6,197.4,113.7,199.4,112.5,201.8z"/>
	<polygon points="124.7,223.5 126.5,223.5 126.9,223.5 129,223.5 122.5,214.4 120.9,215.5 125.1,221.5 123.3,221.5 120.9,221.5 
		122.2,223.4 123.3,224.9 129.3,233.5 130.9,232.4 124.9,223.8 	"/>
</g>
<g>
	<path d="M240,203.2c-1.4-6.7-7.4-11.8-14.6-11.8c-1.8,0-3.5,0.3-5.1,0.9c-0.9-5.1-5.4-9-10.8-9c-0.4,0-0.8,0-1.2,0.1
		c0.7,1.1,1.2,2.4,1.2,3.9c0,3.9-3.1,7-7,7c-1.4,0-2.8-0.4-3.9-1.2c0,0.4-0.1,0.8-0.1,1.2c0,3.7,1.8,7,4.7,9
		c-1.7,1.9-2.7,4.4-2.7,7.1c0,6,4.8,10.8,10.8,10.9v0h4.2v-2h-3.7l-0.5,0c-4.9,0-8.8-4-8.8-8.9c0-4.9,4-8.9,8.9-8.9
		c0.1,0,0.3,0,0.4,0l0.1,0l1.3,0.1l0.6-1.2c2.2-4.4,6.6-7.1,11.5-7.1c6.1,0,11.4,4.3,12.6,10.2l0.3,1.5l1.5,0.1
		c3.7,0.2,6.6,3.3,6.6,7c0,3.9-3.1,7-7,7.1c0,0-0.1,0-0.1,0l-2,0h-3.8v2h5.8v0c0,0,0.1,0,0.1,0c5,0,9.1-4.1,9.1-9.1
		C248.5,207.4,244.7,203.4,240,203.2z M212.1,199.5c-0.2,0-0.5,0-0.7,0c-2.5,0-4.9,0.9-6.7,2.3c-2-1.3-3.5-3.4-4-5.8
		c0.6,0.1,1.2,0.2,1.8,0.2c5,0,9-4,9-9c0-0.6-0.1-1.2-0.2-1.8c3.7,0.8,6.6,3.8,7.1,7.6C215.7,194.5,213.5,196.8,212.1,199.5z"/>
	<polygon points="224.3,221.2 226.1,221.2 226.5,221.2 228.5,221.2 222.1,212.1 220.5,213.2 224.7,219.2 222.9,219.2 220.5,219.2 
		221.8,221.1 222.9,222.6 228.9,231.2 230.5,230.1 224.5,221.5 	"/>
</g>
<g>
	<path d="M340.9,199.3c-1.6-7.4-8.2-13-16.1-13c-6.4,0-12,3.7-14.7,9c-0.3,0-0.5,0-0.8,0c-6.6,0-12,5.4-12,12c0,6.6,5.3,12,11.9,12
		v0h1.1v-2h-0.6l-0.4,0c-5.5,0-9.9-4.5-9.9-10c0-5.5,4.5-10,10-10c0.2,0,0.3,0,0.5,0l0.1,0l1.3,0.1l0.6-1.2
		c2.5-4.9,7.4-7.9,12.9-7.9c6.8,0,12.8,4.8,14.2,11.4l0.3,1.5l1.5,0.1c4.2,0.3,7.5,3.8,7.5,8c0,4.4-3.6,8-8,8c0,0-0.1,0-0.1,0
		l-0.9,0v2h0.9v0c0,0,0.1,0,0.1,0c5.5,0,10-4.5,10-10C350.3,203.9,346.1,199.6,340.9,199.3z"/>
	<rect x="314.3" y="212.7" transform="matrix(0.8191 -0.5736 0.5736 0.8191 -68.1699 220.3382)" width="2" height="11.2"/>
	<rect x="332.3" y="212.7" transform="matrix(0.8191 -0.5736 0.5736 0.8191 -64.9186 230.649)" width="2" height="11.2"/>
	<polygon points="326.1,222.3 327.9,222.3 328.3,222.3 330.3,222.3 323.9,213.1 322.3,214.2 326.5,220.3 324.7,220.3 322.3,220.3 
		323.5,222.1 324.6,223.7 329.3,230.3 330.9,229.1 326.3,222.5 	"/>
</g>
<g>
	<rect x="415.7" y="179.8" width="2" height="8"/>
	<rect x="396.7" y="198.7" width="8" height="2"/>
	<rect x="404.4" y="184.5" transform="matrix(0.7071 -0.7071 0.7071 0.7071 -14.5272 341.8572)" width="2" height="8"/>
	<rect x="423.9" y="187.5" transform="matrix(0.7071 -0.7071 0.7071 0.7071 -7.9338 357.7836)" width="8" height="2"/>
	<path d="M446.2,205.6c-1.4-6.7-7.4-11.8-14.6-11.8c-2.2,0-4.3,0.5-6.1,1.3c-1.7-3.2-5-5.4-8.9-5.4c-5.5,0-10,4.5-10,10
		c0,2.5,0.9,4.7,2.4,6.4c-1.4,1.8-2.3,4.1-2.3,6.7c0,6,4.8,10.8,10.8,10.9v0h0.2v-2l-0.2,0c-4.9,0-8.8-4-8.8-8.9
		c0-4.9,4-8.9,8.9-8.9c0.1,0,0.3,0,0.4,0l0.1,0l1.3,0.1l0.6-1.2c2.2-4.4,6.6-7.1,11.5-7.1c6.1,0,11.4,4.3,12.6,10.2l0.3,1.5l1.5,0.1
		c3.7,0.2,6.6,3.3,6.6,7c0,3.9-3.1,7-7,7.1c0,0-0.1,0-0.1,0l-0.9,0v2h0.8v0c0,0,0.1,0,0.1,0c5,0,9.1-4.1,9.1-9.1
		C454.7,209.8,451,205.9,446.2,205.6z M418.3,202c-0.2,0-0.5,0-0.7,0c-2.8,0-5.3,1-7.2,2.7c-1.1-1.4-1.8-3.1-1.8-5c0-4.4,3.6-8,8-8
		c3.1,0,5.8,1.8,7.1,4.3C421.4,197.5,419.6,199.6,418.3,202z"/>
	<rect x="420.8" y="217.1" transform="matrix(0.8191 -0.5736 0.5736 0.8191 -51.4594 282.2122)" width="2" height="11.2"/>
	<rect x="438.7" y="217.1" transform="matrix(0.8191 -0.5736 0.5736 0.8191 -48.2081 292.523)" width="2" height="11.2"/>
	<polygon points="432.6,226.7 434.3,226.7 434.8,226.7 436.8,226.7 430.4,217.5 428.7,218.7 432.9,224.7 431.2,224.7 428.7,224.7 
		430,226.5 431.1,228.1 435.7,234.7 437.4,233.6 432.7,227 	"/>
</g>
<g>
	<path d="M548.1,202.7c-1.4-6.7-7.4-11.8-14.6-11.8c-1.8,0-3.5,0.3-5.1,0.9c-0.9-5.1-5.4-9-10.8-9c-0.4,0-0.8,0-1.2,0.1
		c0.7,1.1,1.2,2.4,1.2,3.9c0,3.9-3.1,7-7,7c-1.4,0-2.8-0.4-3.9-1.2c0,0.4-0.1,0.8-0.1,1.2c0,3.7,1.8,7,4.7,9
		c-1.7,1.9-2.7,4.4-2.7,7.1c0,6,4.8,10.8,10.8,10.9v0h0.2v-2l-0.2,0c-4.9,0-8.8-4-8.8-8.9c0-4.9,4-8.9,8.9-8.9c0.2,0,0.3,0,0.4,0
		l0.1,0l1.3,0.1l0.6-1.2c2.2-4.4,6.6-7.1,11.5-7.1c6.1,0,11.4,4.3,12.6,10.2l0.3,1.5l1.5,0.1c3.7,0.2,6.6,3.3,6.6,7
		c0,3.9-3.1,7-7,7.1c0,0-0.1,0-0.1,0l-0.9,0v2h0.8v0c0,0,0.1,0,0.1,0c5,0,9.1-4.1,9.1-9.1C556.6,206.9,552.8,202.9,548.1,202.7z
		 M520.2,199c-0.2,0-0.5,0-0.7,0c-2.5,0-4.9,0.9-6.7,2.3c-2-1.3-3.5-3.4-4-5.8c0.6,0.1,1.2,0.2,1.8,0.2c5,0,9-4,9-9
		c0-0.6-0.1-1.2-0.2-1.8c3.7,0.8,6.6,3.8,7.1,7.6C523.8,194,521.6,196.3,520.2,199z"/>
	<rect x="522.6" y="214.2" transform="matrix(0.8191 -0.5736 0.5736 0.8191 -31.3426 340.0949)" width="2" height="11.2"/>
	<rect x="540.6" y="214.2" transform="matrix(0.8191 -0.5736 0.5736 0.8191 -28.0915 350.4062)" width="2" height="11.2"/>
	<polygon points="534.4,223.7 536.2,223.7 536.6,223.7 538.6,223.7 532.2,214.6 530.6,215.7 534.8,221.7 533,221.7 530.6,221.7 
		531.8,223.6 532.9,225.1 537.6,231.7 539.2,230.6 534.6,224 	"/>
</g>
<g>
	<g>
		<path d="M137.5,289.1c-1.6-7.4-8.2-13-16.1-13c-6.4,0-12,3.7-14.7,9c-0.3,0-0.5,0-0.8,0c-6.6,0-12,5.4-12,12c0,6.6,5.3,12,11.9,12
			v0h2.1v-2h-1.6l-0.4,0c-5.5,0-9.9-4.5-9.9-10c0-5.5,4.5-10,10-10c0.2,0,0.3,0,0.5,0l0.1,0l1.3,0.1l0.6-1.2
			c2.5-4.9,7.4-7.9,12.9-7.9c6.8,0,12.8,4.8,14.2,11.4l0.3,1.5l1.5,0.1c4.2,0.3,7.5,3.8,7.5,8c0,4.4-3.6,8-8,8c-0.1,0-0.1,0-0.1,0
			l-2,0h-2.9v2h4.9v0c0,0,0.1,0,0.1,0c5.5,0,10-4.5,10-10C146.9,293.8,142.8,289.4,137.5,289.1z"/>
	</g>
	<g>
		<circle cx="112.4" cy="302.7" r="1.5"/>
	</g>
	<g>
		<circle cx="116.4" cy="308.6" r="1.5"/>
	</g>
	<g>
		<circle cx="124.4" cy="308.6" r="1.5"/>
	</g>
	<g>
		<circle cx="120.4" cy="302.7" r="1.5"/>
	</g>
	<g>
		<circle cx="128.4" cy="302.7" r="1.5"/>
	</g>
	<g>
		<circle cx="112.4" cy="314.6" r="1.5"/>
	</g>
	<g>
		<circle cx="120.4" cy="314.6" r="1.5"/>
	</g>
	<g>
		<circle cx="128.4" cy="314.6" r="1.5"/>
	</g>
</g>
<g>
	<g>
		<rect x="213.3" y="273.6" width="2" height="8"/>
	</g>
	<g>
		<rect x="194.3" y="292.5" width="8" height="2"/>
	</g>
	<g>
		<rect x="202" y="278.3" transform="matrix(0.7071 -0.7071 0.7071 0.7071 -140.1498 226.1984)" width="2" height="8"/>
	</g>
	<g>
		<rect x="221.5" y="281.3" transform="matrix(0.7071 -0.7071 0.7071 0.7071 -133.5561 242.1241)" width="8" height="2"/>
	</g>
	<g>
		<path d="M243.8,299.4c-1.4-6.7-7.4-11.8-14.6-11.8c-2.2,0-4.3,0.5-6.1,1.3c-1.7-3.2-5-5.4-8.9-5.4c-5.5,0-10,4.5-10,10
			c0,2.5,0.9,4.7,2.4,6.4c-1.4,1.8-2.3,4.1-2.3,6.7c0,6,4.8,10.8,10.8,10.9v0h1.2v-2h-0.7l-0.5,0c-4.9,0-8.8-4-8.8-8.9
			c0-4.9,4-8.9,8.9-8.9c0.1,0,0.3,0,0.4,0l0.1,0l1.3,0.1l0.6-1.2c2.2-4.4,6.6-7.1,11.5-7.1c6.1,0,11.4,4.3,12.6,10.2l0.3,1.5
			l1.5,0.1c3.7,0.2,6.6,3.3,6.6,7c0,3.9-3.1,7-7,7.1c0,0-0.1,0-0.1,0l-2,0h-1.8v2h3.8v0c0,0,0.1,0,0.1,0c5,0,9.1-4.1,9.1-9.1
			C252.3,303.6,248.6,299.7,243.8,299.4z M215.9,295.8c-0.2,0-0.5,0-0.7,0c-2.8,0-5.3,1-7.2,2.7c-1.1-1.4-1.8-3.1-1.8-5
			c0-4.4,3.6-8,8-8c3.1,0,5.8,1.8,7.1,4.3C219,291.3,217.1,293.4,215.9,295.8z"/>
	</g>
	<g>
		<circle cx="219.8" cy="311" r="1.5"/>
	</g>
	<g>
		<circle cx="223.8" cy="317" r="1.5"/>
	</g>
	<g>
		<circle cx="231.8" cy="317" r="1.5"/>
	</g>
	<g>
		<circle cx="227.8" cy="311" r="1.5"/>
	</g>
	<g>
		<circle cx="235.8" cy="311" r="1.5"/>
	</g>
	<g>
		<circle cx="219.8" cy="323" r="1.5"/>
	</g>
	<g>
		<circle cx="227.8" cy="323" r="1.5"/>
	</g>
	<g>
		<circle cx="235.8" cy="323" r="1.5"/>
	</g>
</g>
<g>
	<g>
		<path d="M339.8,295.5c-1.4-6.7-7.4-11.8-14.6-11.8c-1.8,0-3.5,0.3-5.1,0.9c-0.9-5.1-5.4-9-10.8-9c-0.4,0-0.8,0-1.2,0.1
			c0.7,1.1,1.2,2.4,1.2,3.9c0,3.9-3.1,7-7,7c-1.4,0-2.8-0.4-3.9-1.2c0,0.4-0.1,0.8-0.1,1.2c0,3.7,1.8,7,4.7,9
			c-1.7,1.9-2.7,4.4-2.7,7.1c0,6,4.8,10.8,10.8,10.9v0h1.2v-2h-0.7l-0.5,0c-4.9,0-8.8-4-8.8-8.9c0-4.9,4-8.9,8.9-8.9
			c0.1,0,0.3,0,0.4,0l0.1,0l1.3,0.1l0.6-1.2c2.2-4.4,6.6-7.1,11.5-7.1c6.1,0,11.4,4.3,12.6,10.2l0.3,1.5l1.5,0.1
			c3.7,0.2,6.6,3.3,6.6,7c0,3.9-3.1,7-7,7.1c0,0-0.1,0-0.1,0l-2,0h-1.8v2h3.8v0c0,0,0.1,0,0.1,0c5,0,9.1-4.1,9.1-9.1
			C348.3,299.7,344.5,295.8,339.8,295.5z M311.9,291.8c-0.2,0-0.5,0-0.7,0c-2.5,0-4.9,0.9-6.7,2.3c-2-1.3-3.5-3.4-4-5.8
			c0.6,0.1,1.2,0.2,1.8,0.2c5,0,9-4,9-9c0-0.6-0.1-1.2-0.2-1.8c3.7,0.8,6.6,3.8,7.1,7.6C315.5,286.9,313.2,289.1,311.9,291.8z"/>
	</g>
	<g>
		<circle cx="315.8" cy="307.1" r="1.5"/>
	</g>
	<g>
		<circle cx="319.8" cy="313.1" r="1.5"/>
	</g>
	<g>
		<circle cx="327.8" cy="313.1" r="1.5"/>
	</g>
	<g>
		<circle cx="323.8" cy="307.1" r="1.5"/>
	</g>
	<g>
		<circle cx="331.8" cy="307.1" r="1.5"/>
	</g>
	<g>
		<circle cx="315.8" cy="319.1" r="1.5"/>
	</g>
	<g>
		<circle cx="323.8" cy="319.1" r="1.5"/>
	</g>
	<g>
		<circle cx="331.8" cy="319.1" r="1.5"/>
	</g>
</g>
<g>
	<path d="M650.9,196.6c-1.6-7.4-8.2-13-16.1-13c-6.4,0-12,3.7-14.7,9c-0.3,0-0.5,0-0.8,0c-6.6,0-12,5.4-12,12c0,6.6,5.3,12,11.9,12
		v0h2.1v-2h-1.6l-0.4,0c-5.5,0-9.9-4.5-9.9-10c0-5.5,4.5-10,10-10c0.2,0,0.3,0,0.5,0l0.1,0l1.3,0.1l0.6-1.2
		c2.5-4.9,7.4-7.9,12.9-7.9c6.8,0,12.8,4.8,14.2,11.4l0.3,1.5l1.5,0.1c4.2,0.3,7.5,3.8,7.5,8c0,4.4-3.6,8-8,8c0,0-0.1,0-0.1,0l-2,0
		h-2.9v2h4.9v0c0,0,0.1,0,0.1,0c5.5,0,10-4.5,10-10C660.3,201.2,656.2,196.9,650.9,196.6z"/>
	<circle cx="625.3" cy="224.1" r="1.5"/>
	<circle cx="633.3" cy="230.1" r="1.5"/>
	<circle cx="641.3" cy="226.1" r="1.5"/>
	<rect x="624.3" y="207.6" width="2" height="12"/>
	<polygon points="634.3,225.5 634.3,223.6 634.3,211.6 632.3,211.6 632.3,223.6 632.3,225.5 632.3,225.6 634.3,225.6 	"/>
	<polygon points="642.3,221.3 642.3,219.6 642.3,207.6 640.3,207.6 640.3,219.6 640.3,221.3 640.3,221.6 642.3,221.6 	"/>
</g>
<g>
	<rect x="-97.4" y="268.2" width="2" height="8"/>
	<rect x="-116.4" y="287.1" width="8" height="2"/>
	<rect x="-108.8" y="272.9" transform="matrix(0.7071 -0.7071 0.7071 0.7071 -227.3218 4.8747)" width="2" height="8"/>
	<rect x="-89.2" y="275.8" transform="matrix(0.7071 -0.7071 0.7071 0.7071 -220.728 20.8004)" width="8" height="2"/>
	<path d="M-66.9,294c-1.4-6.7-7.4-11.8-14.6-11.8c-2.2,0-4.3,0.5-6.1,1.3c-1.7-3.2-5-5.4-8.9-5.4c-5.5,0-10,4.5-10,10
		c0,2.5,0.9,4.7,2.4,6.4c-1.4,1.8-2.3,4.1-2.3,6.7c0,6,4.8,10.8,10.8,10.9v0h1.2v-2h-0.7l-0.5,0c-4.9,0-8.8-4-8.8-8.9
		c0-4.9,4-8.9,8.9-8.9c0.2,0,0.3,0,0.4,0l0.1,0l1.3,0.1l0.6-1.2c2.2-4.4,6.6-7.1,11.5-7.1c6.1,0,11.4,4.3,12.6,10.2l0.3,1.5l1.5,0.1
		c3.7,0.2,6.6,3.3,6.6,7c0,3.9-3.1,7-7,7.1c0,0-0.1,0-0.1,0l-2,0h-0.8v2h2.8v0c0,0,0.1,0,0.1,0c5,0,9.1-4.1,9.1-9.1
		C-58.4,298.2-62.2,294.3-66.9,294z M-94.8,290.4c-0.2,0-0.5,0-0.7,0c-2.8,0-5.3,1-7.2,2.7c-1.1-1.4-1.8-3.1-1.8-5c0-4.4,3.6-8,8-8
		c3.1,0,5.8,1.8,7.1,4.3C-91.7,285.9-93.6,287.9-94.8,290.4z"/>
	<circle cx="-90.4" cy="320.6" r="1.5"/>
	<circle cx="-82.4" cy="326.6" r="1.5"/>
	<circle cx="-74.4" cy="322.6" r="1.5"/>
	<rect x="-91.4" y="304.1" width="2" height="12"/>
	<polygon points="-81.4,322 -81.4,320.1 -81.4,308.1 -83.4,308.1 -83.4,320.1 -83.4,322 -83.4,322.1 -81.4,322.1 	"/>
	<polygon points="-73.4,317.8 -73.4,316.1 -73.4,304.1 -75.4,304.1 -75.4,316.1 -75.4,317.8 -75.4,318.1 -73.4,318.1 	"/>
</g>
<g>
	<path d="M33.7,291c-1.4-6.7-7.4-11.8-14.6-11.8c-1.8,0-3.5,0.3-5.1,0.9c-0.9-5.1-5.4-9-10.8-9c-0.4,0-0.8,0-1.2,0.1
		c0.7,1.1,1.2,2.4,1.2,3.9c0,3.9-3.1,7-7,7c-1.4,0-2.8-0.4-3.9-1.2c0,0.4-0.1,0.8-0.1,1.2c0,3.7,1.8,7,4.7,9
		c-1.7,1.9-2.7,4.4-2.7,7.1c0,6,4.8,10.8,10.8,10.9v0h1.2v-2H5.4l-0.5,0c-4.9,0-8.8-4-8.8-8.9c0-4.9,4-8.9,8.9-8.9
		c0.2,0,0.3,0,0.4,0l0.1,0l1.3,0.1l0.6-1.2c2.2-4.4,6.6-7.1,11.5-7.1c6.1,0,11.4,4.3,12.6,10.2l0.3,1.5l1.5,0.1
		c3.7,0.2,6.6,3.3,6.6,7c0,3.9-3.1,7-7,7.1c0,0-0.1,0-0.1,0l-2,0h-0.8v2H33v0c0,0,0.1,0,0.1,0c5,0,9.1-4.1,9.1-9.1
		C42.2,295.2,38.4,291.3,33.7,291z M5.8,287.4c-0.2,0-0.5,0-0.7,0c-2.5,0-4.9,0.9-6.7,2.3c-2-1.3-3.5-3.4-4-5.8
		c0.6,0.1,1.2,0.2,1.8,0.2c5,0,9-4,9-9c0-0.6-0.1-1.2-0.2-1.8c3.7,0.8,6.6,3.8,7.1,7.6C9.4,282.4,7.2,284.6,5.8,287.4z"/>
	<circle cx="10.2" cy="317.6" r="1.5"/>
	<circle cx="18.2" cy="323.6" r="1.5"/>
	<circle cx="26.2" cy="319.6" r="1.5"/>
	<rect x="9.2" y="301.1" width="2" height="12"/>
	<polygon points="19.2,319 19.2,317.1 19.2,305.1 17.2,305.1 17.2,317.1 17.2,319 17.2,319.1 19.2,319.1 	"/>
	<polygon points="27.2,314.8 27.2,313.1 27.2,301.1 25.2,301.1 25.2,313.1 25.2,314.8 25.2,315.1 27.2,315.1 	"/>
</g>
<g>
	<rect x="-114.4" y="395.4" width="56" height="2"/>
	<rect x="-110.4" y="401.4" width="50" height="2"/>
	<rect x="-104.4" y="407.4" width="36" height="2"/>
	<rect x="-112.4" y="389.4" width="52" height="2"/>
	<path d="M-100.6,381.4c0.2,0,0.3,0,0.5,0l0.1,0l1.3,0.1l0.6-1.2c2.5-4.9,7.4-7.9,12.9-7.9c6.8,0,12.8,4.8,14.2,11.4l0.3,1.5
		l1.5,0.1c1.2,0.1,2.3,0.4,3.3,1h3.3c-1.7-1.7-4-2.8-6.5-3c-1.6-7.4-8.2-13-16.1-13c-6.4,0-12,3.7-14.7,9c-0.3,0-0.5,0-0.8,0
		c-4.8,0-9,2.9-10.9,7h2.3C-107.5,383.4-104.3,381.4-100.6,381.4z"/>
</g>
<g>
	<rect x="6.7" y="367.9" width="2" height="8"/>
	<rect x="-12.3" y="386.8" width="8" height="2"/>
	<rect x="-4.7" y="372.6" transform="matrix(0.7071 -0.7071 0.7071 0.7071 -267.341 107.6921)" width="2" height="8"/>
	<rect x="14.9" y="375.6" transform="matrix(0.7071 -0.7071 0.7071 0.7071 -260.7475 123.6185)" width="8" height="2"/>
	<rect x="-3.3" y="401.8" width="50" height="2"/>
	<rect x="0.7" y="407.8" width="44" height="2"/>
	<rect x="6.7" y="412.8" width="30" height="2"/>
	<rect x="-1.3" y="395.8" width="46" height="2"/>
	<path d="M-0.4,393.8h0.8h1.9h1c1.5-1.1,3.3-1.7,5.2-1.7c0.1,0,0.3,0,0.4,0l0.1,0l1.3,0.1L11,391c2.2-4.4,6.6-7.1,11.5-7.1
		c5.9,0,11.2,4.1,12.6,9.9h2v-0.1c-1.4-6.7-7.4-11.8-14.6-11.8c-2.2,0-4.3,0.5-6.1,1.3c-1.7-3.2-5-5.4-8.9-5.4c-5.5,0-10,4.5-10,10
		C-2.4,390.1-1.7,392.1-0.4,393.8z M7.6,379.8c3.1,0,5.8,1.8,7.1,4.3c-2.3,1.4-4.2,3.5-5.4,5.9c-0.2,0-0.5,0-0.7,0
		c-2.8,0-5.3,1-7.2,2.7c-1.1-1.4-1.8-3.1-1.8-5C-0.4,383.4,3.2,379.8,7.6,379.8z"/>
</g>
<g>
	<rect x="95.4" y="398.3" width="50" height="2"/>
	<rect x="99.4" y="404.3" width="44" height="2"/>
	<rect x="105.4" y="409.3" width="30" height="2"/>
	<rect x="97.4" y="392.3" width="46" height="2"/>
	<path d="M99.1,390.3L99.1,390.3h1.9h1.1c1.5-1.1,3.3-1.7,5.2-1.7c0.2,0,0.3,0,0.4,0l0.1,0l1.3,0.1l0.6-1.2
		c2.2-4.4,6.6-7.1,11.5-7.1c5.9,0,11.2,4.1,12.6,9.9h2v-0.1c-1.4-6.7-7.4-11.8-14.6-11.8c-1.8,0-3.5,0.3-5.1,0.9
		c-0.9-5.1-5.4-9-10.8-9c-0.4,0-0.8,0-1.2,0.1c0.7,1.1,1.2,2.4,1.2,3.9c0,3.9-3.1,7-7,7c-1.4,0-2.8-0.4-3.9-1.2
		c0,0.4-0.1,0.8-0.1,1.2C94.4,385.1,96.2,388.4,99.1,390.3z M98.4,383.3c5,0,9-4,9-9c0-0.6-0.1-1.2-0.2-1.8c3.7,0.8,6.6,3.8,7.1,7.6
		c-2.7,1.4-4.9,3.7-6.3,6.4c-0.2,0-0.5,0-0.7,0c-2.5,0-4.9,0.9-6.7,2.3c-2-1.3-3.5-3.4-4-5.8C97.2,383.3,97.8,383.3,98.4,383.3z"/>
</g>
<g>
	<path d="M227.3,401.4h-19.5l-0.6,0c-5.5,0-9.9-4.5-9.9-10c0-5.5,4.5-10,10-10c0.2,0,0.3,0,0.5,0l0.1,0l1.3,0.1l0.6-1.2
		c2.5-4.9,7.4-7.9,12.9-7.9c6.8,0,12.8,4.8,14.2,11.4l0.3,1.5l1.5,0.1c1.8,0.1,3.5,0.8,4.7,2h2.7c-1.7-2.3-4.3-3.8-7.4-4
		c-1.6-7.4-8.2-13-16.1-13c-6.4,0-12,3.7-14.7,9c-0.3,0-0.5,0-0.8,0c-6.6,0-12,5.4-12,12c0,6.6,5.3,12,11.9,12v0h20.1
		c2.2,0,4,1.8,4,4s-1.8,4-4,4v2c3.3,0,6-2.7,6-6C233.3,404,230.6,401.4,227.3,401.4z"/>
	<path d="M231.3,397.4h-16v2h16c3.3,0,6-2.7,6-6c0-3.3-2.7-6-6-6v2c2.2,0,4,1.8,4,4S233.5,397.4,231.3,397.4z"/>
	<path d="M244.3,391.4c1.7,0,3,1.3,3,3s-1.3,3-3,3c0,0-0.1,0-0.1,0h-4.9c0,0,0,0,0,0h0v2h5.5v-0.1c2.5-0.3,4.5-2.4,4.5-4.9
		c0-2.8-2.2-5-5-5L244.3,391.4L244.3,391.4z"/>
	<path d="M248.3,401.4h-13v2h9c0,0,0,0,0,0h3.9c0,0,0.1,0,0.1,0c1.7,0,3,1.3,3,3s-1.3,3-3,3v2c2.8,0,5-2.2,5-5
		S251.1,401.4,248.3,401.4z"/>
	<rect x="209.3" y="397.4" width="4" height="2"/>
</g>
<path class="st0" d="M19.7,2.3C26.7,3.6,32,9.7,32,17c0,8.3-6.7,15-15,15c-6.8,0-12.5-4.5-14.4-10.7C4,21.7,5.5,22,7,22
	c7.7,0,14-6.3,14-14C21,6,20.5,4,19.7,2.3 M17,0c-0.3,0-0.7,0-1,0.1c1.9,2.1,3,4.9,3,7.9c0,6.6-5.4,12-12,12c-2.6,0-5-0.8-7-2.2
	C0.4,26.8,7.8,34,17,34c9.4,0,17-7.6,17-17S26.4,0,17,0L17,0z"/>
<g>
	<path d="M-86.4,5c-7.2,0-13,5.8-13,13c0,7.2,5.8,13,13,13s13-5.8,13-13C-73.4,10.8-79.3,5-86.4,5z M-86.4,29c-6.1,0-11-4.9-11-11
		c0-6.1,4.9-11,11-11s11,4.9,11,11C-75.4,24.1-80.4,29-86.4,29z"/>
	<rect x="-87.4" y="-8" width="2" height="10"/>
	<rect x="-87.4" y="34" width="2" height="10"/>
	<rect x="-112.4" y="17" width="10" height="2"/>
	<rect x="-70.4" y="17" width="10" height="2"/>
	<rect x="-76.9" y="2.3" transform="matrix(0.7071 -0.7071 0.7071 0.7071 -23.3396 -49.7633)" width="10.4" height="2"/>
	<rect x="-106.4" y="31.7" transform="matrix(0.7071 -0.7071 0.7071 0.7071 -52.7482 -61.946)" width="10.4" height="2"/>
	<rect x="-102.1" y="-1.9" transform="matrix(0.7071 -0.7071 0.7071 0.7071 -31.9551 -70.5537)" width="2" height="10.4"/>
	<rect x="-72.7" y="27.5" transform="matrix(0.7071 -0.7072 0.7072 0.7071 -44.1415 -41.1438)" width="2" height="10.4"/>
</g>
<g>
	<rect x="311.7" y="362.9" width="2" height="8"/>
	<rect x="292.8" y="381.8" width="8" height="2"/>
	<rect x="300.5" y="367.6" transform="matrix(0.7071 -0.7071 0.7071 0.7071 -174.4789 322.0204)" width="2" height="8"/>
	<rect x="320" y="370.6" transform="matrix(0.7071 -0.7071 0.7071 0.7071 -167.8855 337.9468)" width="8" height="2"/>
	<path d="M326.8,404.9L326.8,404.9l-12.5,0l-0.6,0c-4.9,0-8.8-4-8.8-8.9c0-4.9,4-8.9,8.9-8.9c0.1,0,0.3,0,0.4,0l0.1,0l1.3,0.1
		l0.6-1.2c2.2-4.4,6.6-7.1,11.5-7.1c5.9,0,11.1,4.1,12.5,9.8h2.1c-1.4-6.7-7.4-11.8-14.6-11.8c-2.2,0-4.3,0.5-6.1,1.3
		c-1.7-3.2-5-5.4-8.9-5.4c-5.5,0-10,4.5-10,10c0,2.5,0.9,4.7,2.4,6.4c-1.4,1.8-2.3,4.1-2.3,6.7c0,6,4.8,10.8,10.8,10.9v0h13.1v0
		c2.2,0,4,1.8,4,4s-1.8,4-4,4v2c3.3,0,6-2.7,6-6C332.8,407.5,330.1,404.9,326.8,404.9z M312.7,374.9c3.1,0,5.8,1.8,7.1,4.3
		c-2.3,1.4-4.2,3.5-5.4,5.9c-0.2,0-0.5,0-0.7,0c-2.8,0-5.3,1-7.2,2.7c-1.1-1.4-1.8-3.1-1.8-5C304.7,378.5,308.3,374.9,312.7,374.9z"
		/>
	<path d="M330.8,400.9h-10v2h10c3.3,0,6-2.7,6-6c0-3.3-2.7-6-6-6v2c2.2,0,4,1.8,4,4S333,400.9,330.8,400.9z"/>
	<path d="M338.8,400.9L338.8,400.9l0,2h5.5v-0.1c2.5-0.3,4.5-2.4,4.5-4.9c0-2.8-2.2-5-5-5v2c1.7,0,3,1.3,3,3s-1.3,3-3,3
		c0,0-0.1,0-0.1,0L338.8,400.9C338.8,400.9,338.8,400.9,338.8,400.9z"/>
	<path d="M347.8,404.9h-13v2h9c0,0,0,0,0,0h3.9c0,0,0.1,0,0.1,0c1.7,0,3,1.3,3,3s-1.3,3-3,3v2c2.8,0,5-2.2,5-5
		S350.5,404.9,347.8,404.9z"/>
	<rect x="314.8" y="400.9" width="4" height="2"/>
</g>
<g>
	<path d="M426.7,402.9L426.7,402.9l-12.5,0l-0.6,0c-4.9,0-8.8-4-8.8-8.9c0-4.9,4-8.9,8.9-8.9c0.1,0,0.3,0,0.4,0l0.1,0l1.3,0.1
		l0.6-1.2c2.2-4.4,6.6-7.1,11.5-7.1c5.9,0,11.1,4.1,12.5,9.8h2.1c-1.4-6.7-7.4-11.8-14.6-11.8c-1.8,0-3.5,0.3-5.1,0.9
		c-0.9-5.1-5.4-9-10.8-9c-0.4,0-0.8,0-1.2,0.1c0.7,1.1,1.2,2.4,1.2,3.9c0,3.9-3.1,7-7,7c-1.4,0-2.8-0.4-3.9-1.2
		c0,0.4-0.1,0.8-0.1,1.2c0,3.7,1.9,7,4.7,9c-1.7,1.9-2.7,4.4-2.7,7.1c0,6,4.8,10.8,10.8,10.9v0h13.1v0c2.2,0,4,1.8,4,4s-1.8,4-4,4v2
		c3.3,0,6-2.7,6-6C432.7,405.5,430,402.9,426.7,402.9z M402.9,379.6c0.6,0.1,1.2,0.2,1.8,0.2c5,0,9-4,9-9c0-0.6-0.1-1.2-0.2-1.8
		c3.7,0.8,6.6,3.8,7.1,7.7c-2.7,1.4-4.9,3.7-6.3,6.4c-0.2,0-0.5,0-0.7,0c-2.5,0-4.9,0.9-6.7,2.3
		C404.9,384.2,403.4,382.1,402.9,379.6z"/>
	<path d="M430.7,398.9h-10v2h10c3.3,0,6-2.7,6-6c0-3.3-2.7-6-6-6v2c2.2,0,4,1.8,4,4S432.9,398.9,430.7,398.9z"/>
	<path d="M438.7,398.9L438.7,398.9l0,2h5.5v-0.1c2.5-0.3,4.5-2.4,4.5-4.9c0-2.8-2.2-5-5-5v2c1.7,0,3,1.3,3,3s-1.3,3-3,3
		c0,0-0.1,0-0.1,0L438.7,398.9C438.7,398.8,438.7,398.9,438.7,398.9z"/>
	<path d="M447.7,402.9h-13v2h9c0,0,0,0,0,0h3.9c0,0,0.1,0,0.1,0c1.7,0,3,1.3,3,3s-1.3,3-3,3v2c2.8,0,5-2.2,5-5
		S450.5,402.9,447.7,402.9z"/>
	<rect x="414.7" y="398.9" width="4" height="2"/>
</g>
<g>
	<rect x="527.6" y="365.4" width="2" height="10"/>
	<rect x="502.6" y="390.4" width="10" height="2"/>
	<rect x="538.1" y="375.7" transform="matrix(0.7071 -0.7071 0.7071 0.7071 -107.2408 494.5164)" width="10.4" height="2"/>
	<rect x="512.9" y="371.5" transform="matrix(0.7071 -0.7071 0.7071 0.7071 -115.8563 473.726)" width="2" height="10.4"/>
	<path d="M532.6,405.4h-24v2h24c2.2,0,4,1.8,4,4s-1.8,4-4,4v2c3.3,0,6-2.7,6-6S535.9,405.4,532.6,405.4z"/>
	<path d="M544.6,401.4L544.6,401.4l0,2h5.5v-0.1c2.5-0.3,4.5-2.4,4.5-4.9c0-2.8-2.2-5-5-5v2c1.7,0,3,1.3,3,3s-1.3,3-3,3
		c0,0-0.1,0-0.1,0L544.6,401.4C544.6,401.4,544.6,401.4,544.6,401.4z"/>
	<path d="M553.6,405.4h-13v2h9c0,0,0,0,0,0h3.9c0,0,0.1,0,0.1,0c1.7,0,3,1.3,3,3s-1.3,3-3,3v2c2.8,0,5-2.2,5-5
		S556.4,405.4,553.6,405.4z"/>
	<path d="M520.3,401.4h-11.7v2h12h0.8h15.2c3.3,0,6-2.7,6-6c0-3.3-2.7-6-6-6v2c2.2,0,4,1.8,4,4s-1.8,4-4,4h-12.5
		c-3.8-1.7-6.5-5.6-6.5-10c0-6.1,4.9-11,11-11c5.4,0,9.9,3.9,10.8,9h2c-1-6.2-6.3-11-12.8-11c-7.2,0-13,5.8-13,13
		C515.6,395.4,517.5,399,520.3,401.4z"/>
</g>
<g>
	<path d="M632.8,398.9h-24v2h24c2.2,0,4,1.8,4,4s-1.8,4-4,4v2c3.3,0,6-2.7,6-6C638.8,401.6,636.2,398.9,632.8,398.9z"/>
	<path d="M650.3,396.9L650.3,396.9c2.5-0.3,4.5-2.4,4.5-5c0-2.8-2.2-5-5-5v2c1.7,0,3,1.3,3,3s-1.3,3-3,3c0,0-0.1,0-0.1,0h-4.9
		c0,0,0,0,0,0h0v2H650.3z"/>
	<path d="M653.8,398.9h-13v2h9c0,0,0,0,0,0h3.9c0,0,0.1,0,0.1,0c1.7,0,3,1.3,3,3s-1.3,3-3,3v2c2.8,0,5-2.2,5-5
		S656.6,398.9,653.8,398.9z"/>
	<path d="M621.7,396.9h15.2c3.3,0,6-2.7,6-6c0-3.3-2.7-6-6-6v2c2.2,0,4,1.8,4,4s-1.8,4-4,4h-12.6c-2.6-1.2-4.7-3.3-5.7-6
		c0.8,0.2,1.7,0.3,2.6,0.3c6.2,0,11.2-5,11.2-11.2c0-1.3-0.2-2.5-0.6-3.7c4,1.1,7.2,4.5,7.9,8.6h2c-1-6.2-6.3-11-12.8-11
		c-0.3,0-0.5,0-0.8,0c1.4,1.6,2.3,3.7,2.3,6.1c0,5.1-4.1,9.2-9.2,9.2c-2,0-3.8-0.6-5.3-1.7c0.2,3.8,2,7.2,4.7,9.4h-11.7v2h12
		L621.7,396.9L621.7,396.9z"/>
</g>
<g>
	<path d="M-86.9,484.1h-20c-1.1,0-2-0.9-2-2s0.9-2,2-2h3.4h0.6v-2h-4c-2.2,0-4,1.8-4,4s1.8,4,4,4h20c2.2,0,4,1.8,4,4s-1.8,4-4,4v2
		c3.3,0,6-2.7,6-6C-80.9,486.7-83.6,484.1-86.9,484.1z"/>
	<path d="M-84.9,468.1v2c2.2,0,4,1.8,4,4s-1.8,4-4,4h-16v2h16c3.3,0,6-2.7,6-6C-78.9,470.7-81.6,468.1-84.9,468.1z"/>
	<path d="M-78.9,480.1v2h5.5V482c2.5-0.3,4.5-2.4,4.5-4.9c0-2.8-2.2-5-5-5v2c1.7,0,3,1.3,3,3s-1.3,3-3,3c0,0-0.1,0-0.1,0
		L-78.9,480.1C-78.9,480.1-78.9,480.1-78.9,480.1L-78.9,480.1z"/>
	<path d="M-67.9,484.1h-11v2h7c0,0,0,0,0,0h3.9c0,0,0.1,0,0.1,0c1.7,0,3,1.3,3,3s-1.3,3-3,3v2c2.8,0,5-2.2,5-5
		S-65.2,484.1-67.9,484.1z"/>
</g>
<path d="M449.4,470.4L449.4,470.4l-38.4,0c-1.1,0-2-0.9-2-2s0.9-2,2-2h33c2.8,0,5-2.2,5-5s-2.2-5-5-5h-37.9v0c0,0-0.1,0-0.1,0
	c-2.8,0-5,2.2-5,5s2.2,5,5,5v-2c-1.7,0-3-1.3-3-3s1.3-3,3-3h0.1h3.9h34c1.7,0,3,1.3,3,3s-1.3,3-3,3h-33c-2.2,0-4,1.8-4,4s1.8,4,4,4
	h38c1.1,0,2,0.9,2,2s-0.9,2-2,2h-32c-2.2,0-4,1.8-4,4s1.8,4,4,4h22c1.1,0,2,0.9,2,2s-0.9,2-2,2h-24v0c-2.2,0-4,1.8-4,4s1.8,4,4,4v0
	h12c1.1,0,2,0.9,2,2s-0.9,2-2,2h-2c-2.2,0-4,1.8-4,4s1.8,4,4,4v-2c-1.1,0-2-0.9-2-2s0.9-2,2-2h2c2.2,0,4-1.8,4-4s-1.8-4-4-4h-12
	c-1.1,0-2-0.9-2-2s0.9-2,2-2h24c2.2,0,4-1.8,4-4c0-2.2-1.7-3.9-3.8-4v0H417c-1.1,0-2-0.9-2-2s0.9-2,2-2h32c2.2,0,4-1.8,4-4
	C453,472.3,451.4,470.6,449.4,470.4z"/>
<path d="M634.8,461.1v-2h-2v2c-13,0.5-23.5,11-24,24h1.7c1.1-1.2,2.7-2,4.6-2c2.3,0,4.2,1.2,5.3,3h1.8c1.1-1.8,3.1-3,5.3-3
	c2.2,0,4.1,1.1,5.2,2.9v15.1c0,2.2,1.8,4,4,4s4-1.8,4-4h-2c0,1.1-0.9,2-2,2s-2-0.9-2-2v-15.1c1.1-1.7,3-2.9,5.2-2.9
	c2.3,0,4.2,1.2,5.3,3h1.8c1.1-1.8,3.1-3,5.3-3c1.8,0,3.4,0.8,4.6,2h1.7C658.2,472.1,647.8,461.6,634.8,461.1z M652.5,481.1
	c-2.5,0-4.7,1.1-6.2,2.9c-1.5-1.8-3.8-2.9-6.2-2.9s-4.7,1.1-6.2,2.9c-1.5-1.8-3.8-2.9-6.2-2.9s-4.7,1.1-6.2,2.9
	c-1.5-1.8-3.8-2.9-6.2-2.9c-1.4,0-2.7,0.4-3.9,1c1.9-10.8,11.3-19,22.6-19s20.7,8.2,22.6,19C655.2,481.4,653.9,481.1,652.5,481.1z"
	/>
<g>
	<path d="M229.5,585.4v-17.1c0-2.8-2.2-5-5-5s-5,2.2-5,5v17.1c-1.2,1.3-2,3-2,4.9c0,3.9,3.1,7,7,7s7-3.1,7-7
		C231.5,588.4,230.7,586.6,229.5,585.4z M224.5,595.3c-2.8,0-5-2.2-5-5c0-1.3,0.5-2.6,1.4-3.5l0.6-0.6v-0.8v-17.1c0-1.7,1.3-3,3-3
		s3,1.3,3,3v17.1v0.8l0.6,0.6c0.9,0.9,1.4,2.2,1.4,3.5C229.5,593,227.2,595.3,224.5,595.3z"/>
	<path d="M225.5,587.4v-15.2h-2v15.2c-1.2,0.4-2,1.5-2,2.8c0,1.7,1.3,3,3,3c1.7,0,3-1.3,3-3C227.5,589,226.6,587.9,225.5,587.4z
		 M224.5,591.3c-0.6,0-1-0.5-1-1s0.5-1,1-1s1,0.5,1,1S225,591.3,224.5,591.3z"/>
</g>
<g>
	<path d="M329.3,585.4v-17.1c0-2.8-2.2-5-5-5s-5,2.2-5,5v17.1c-1.2,1.3-2,3-2,4.9c0,3.9,3.1,7,7,7s7-3.1,7-7
		C331.3,588.4,330.5,586.6,329.3,585.4z M324.3,595.3c-2.8,0-5-2.2-5-5c0-1.3,0.5-2.6,1.4-3.5l0.6-0.6v-0.8v-17.1c0-1.7,1.3-3,3-3
		s3,1.3,3,3v17.1v0.8l0.6,0.6c0.9,0.9,1.4,2.2,1.4,3.5C329.3,593,327,595.3,324.3,595.3z"/>
	<path d="M325.3,587.4v-20.2h-2v20.2c-1.2,0.4-2,1.5-2,2.8c0,1.7,1.3,3,3,3c1.7,0,3-1.3,3-3C327.3,589,326.4,587.9,325.3,587.4z
		 M324.3,591.3c-0.6,0-1-0.5-1-1s0.5-1,1-1s1,0.5,1,1S324.8,591.3,324.3,591.3z"/>
</g>
<g>
	<path d="M126.4,585.4v-17.1c0-2.8-2.2-5-5-5s-5,2.2-5,5v17.1c-1.2,1.3-2,3-2,4.9c0,3.9,3.1,7,7,7s7-3.1,7-7
		C128.4,588.4,127.6,586.6,126.4,585.4z M121.4,595.3c-2.8,0-5-2.2-5-5c0-1.3,0.5-2.6,1.4-3.5l0.6-0.6v-0.8v-17.1c0-1.7,1.3-3,3-3
		s3,1.3,3,3v17.1v0.8l0.6,0.6c0.9,0.9,1.4,2.2,1.4,3.5C126.4,593,124.1,595.3,121.4,595.3z"/>
	<path d="M122.4,587.4v-10.2h-2v10.2c-1.2,0.4-2,1.5-2,2.8c0,1.7,1.3,3,3,3c1.7,0,3-1.3,3-3C124.4,589,123.5,587.9,122.4,587.4z
		 M121.4,591.3c-0.6,0-1-0.5-1-1s0.5-1,1-1s1,0.5,1,1S121.9,591.3,121.4,591.3z"/>
</g>
<g>
	<path d="M22.7,585.4v-17.1c0-2.8-2.2-5-5-5s-5,2.2-5,5v17.1c-1.2,1.3-2,3-2,4.9c0,3.9,3.1,7,7,7s7-3.1,7-7
		C24.7,588.4,24,586.6,22.7,585.4z M17.7,595.3c-2.8,0-5-2.2-5-5c0-1.3,0.5-2.6,1.4-3.5l0.6-0.6v-0.8v-17.1c0-1.7,1.3-3,3-3
		s3,1.3,3,3v17.1v0.8l0.6,0.6c0.9,0.9,1.4,2.2,1.4,3.5C22.7,593,20.5,595.3,17.7,595.3z"/>
	<path d="M18.7,587.4v-5.2h-2v5.2c-1.2,0.4-2,1.5-2,2.8c0,1.7,1.3,3,3,3c1.7,0,3-1.3,3-3C20.7,589,19.9,587.9,18.7,587.4z
		 M17.7,591.3c-0.6,0-1-0.5-1-1s0.5-1,1-1s1,0.5,1,1S18.3,591.3,17.7,591.3z"/>
</g>
<g>
	<path d="M-81.9,585.4v-17.1c0-2.8-2.2-5-5-5s-5,2.2-5,5v17.1c-1.2,1.3-2,3-2,4.9c0,3.9,3.1,7,7,7s7-3.1,7-7
		C-79.9,588.4-80.7,586.6-81.9,585.4z M-86.9,595.3c-2.8,0-5-2.2-5-5c0-1.3,0.5-2.6,1.4-3.5l0.6-0.6v-0.8v-17.1c0-1.7,1.3-3,3-3
		s3,1.3,3,3v17.1v0.8l0.6,0.6c0.9,0.9,1.4,2.2,1.4,3.5C-81.9,593-84.2,595.3-86.9,595.3z"/>
	<path d="M-86.9,587.3c-1.7,0-3,1.3-3,3c0,1.7,1.3,3,3,3c1.7,0,3-1.3,3-3C-83.9,588.6-85.3,587.3-86.9,587.3z M-86.9,591.3
		c-0.6,0-1-0.5-1-1s0.5-1,1-1s1,0.5,1,1S-86.4,591.3-86.9,591.3z"/>
</g>
<g>
	<path d="M418,565.6c-2.2,0-4,1.8-4,4c0,2.2,1.8,4,4,4c2.2,0,4-1.8,4-4C422,567.4,420.2,565.6,418,565.6z M418,571.6
		c-1.1,0-2-0.9-2-2s0.9-2,2-2s2,0.9,2,2S419.1,571.6,418,571.6z"/>
	<path d="M432,593.6c-4.4,0-8-3.6-8-8v-4c0-4.4,3.6-8,8-8c2.7,0,5.1,1.4,6.6,3.4l1.4-1.4c-1.8-2.4-4.7-4-8-4c-5.5,0-10,4.5-10,10v4
		c0,5.5,4.5,10,10,10c3.3,0,6.2-1.6,8-4l-1.4-1.4C437.1,592.2,434.7,593.6,432,593.6z"/>
</g>
<g>
	<path d="M522.7,565.5c-2.2,0-4,1.8-4,4c0,2.2,1.8,4,4,4c2.2,0,4-1.8,4-4C526.7,567.3,524.9,565.5,522.7,565.5z M522.7,571.5
		c-1.1,0-2-0.9-2-2s0.9-2,2-2s2,0.9,2,2S523.8,571.5,522.7,571.5z"/>
	<polygon points="542.6,573.6 542.6,571.6 530.6,571.6 528.6,571.6 528.6,595.6 530.6,595.6 530.6,583.6 538.6,583.6 538.6,581.6 
		530.6,581.6 530.6,573.6 	"/>
</g>
<g>
	<path d="M633.8,569.3c-7.2,0-13,5.8-13,13s5.8,13,13,13s13-5.8,13-13S640.9,569.3,633.8,569.3z M633.8,593.3c-6.1,0-11-4.9-11-11
		s4.9-11,11-11s11,4.9,11,11S639.8,593.3,633.8,593.3z"/>
	<path d="M629.5,586.5l6.4-2.1l2.1-6.4l-6.4,2.1L629.5,586.5z M633.2,581.7l1.6-0.5l-0.5,1.6l-1.6,0.5L633.2,581.7z"/>
</g>
<g>
	<path d="M-86.9,659.8c-7.2,0-13,5.8-13,13s5.8,13,13,13s13-5.8,13-13S-79.8,659.8-86.9,659.8z M-86.9,683.8c-6.1,0-11-4.9-11-11
		c0-6.1,4.9-11,11-11s11,4.9,11,11C-75.9,678.9-80.9,683.8-86.9,683.8z"/>
	<path d="M-84.4,671.2l-2.6-4.4l-2.5,4.3h0c-0.3,0.5-0.5,1-0.5,1.6c0,1.7,1.3,3,3,3s3-1.3,3-3C-84,672.2-84.1,671.7-84.4,671.2
		L-84.4,671.2z M-87,673.7c-0.6,0-1-0.4-1-1c0-0.2,0.1-0.4,0.2-0.5l0.9-1.4l0.8,1.4c0.1,0.2,0.1,0.3,0.1,0.5
		C-86,673.3-86.4,673.7-87,673.7z"/>
</g>
<g>
	<path d="M17.8,659.8c-7.2,0-13,5.8-13,13s5.8,13,13,13s13-5.8,13-13S25,659.8,17.8,659.8z M17.8,683.8c-6.1,0-11-4.9-11-11
		c0-6.1,4.9-11,11-11s11,4.9,11,11C28.8,678.9,23.9,683.8,17.8,683.8z"/>
	<path d="M19.4,670.2c-0.5-0.3-1-0.5-1.6-0.5c-1.7,0-3,1.3-3,3c0,1.7,1.3,3,3,3c0.6,0,1.1-0.2,1.5-0.4v0l4.4-2.6L19.4,670.2
		L19.4,670.2L19.4,670.2z M18.3,673.6c-0.2,0.1-0.3,0.1-0.5,0.1c-0.6,0-1-0.4-1-1c0-0.6,0.4-1,1-1c0.2,0,0.4,0.1,0.5,0.2l1.4,0.9
		L18.3,673.6z"/>
</g>
<g>
	<path d="M120.9,659.8c-7.2,0-13,5.8-13,13s5.8,13,13,13s13-5.8,13-13S128.1,659.8,120.9,659.8z M120.9,683.8c-6.1,0-11-4.9-11-11
		c0-6.1,4.9-11,11-11s11,4.9,11,11C131.9,678.9,127,683.8,120.9,683.8z"/>
	<path d="M120.9,669.7c-1.7,0-3,1.3-3,3c0,0.6,0.2,1.1,0.4,1.5h0l2.6,4.4l2.5-4.3h0c0.3-0.5,0.5-1,0.5-1.6
		C123.9,671.1,122.6,669.7,120.9,669.7z M121.7,673.3l-0.9,1.4l-0.8-1.4c-0.1-0.2-0.1-0.3-0.1-0.5c0-0.6,0.4-1,1-1s1,0.4,1,1
		C121.9,672.9,121.8,673.1,121.7,673.3z"/>
</g>
<g>
	<path d="M224.3,659.8c-7.2,0-13,5.8-13,13s5.8,13,13,13s13-5.8,13-13S231.5,659.8,224.3,659.8z M224.3,683.8c-6.1,0-11-4.9-11-11
		c0-6.1,4.9-11,11-11s11,4.9,11,11C235.3,678.9,230.4,683.8,224.3,683.8z"/>
	<path d="M224.3,669.7c-0.6,0-1.1,0.2-1.5,0.4v0l-4.4,2.6l4.3,2.5v0c0.5,0.3,1,0.5,1.6,0.5c1.7,0,3-1.3,3-3
		C227.3,671.1,225.9,669.7,224.3,669.7z M224.3,673.7c-0.2,0-0.4-0.1-0.5-0.2l-1.4-0.9l1.4-0.8c0.2-0.1,0.3-0.1,0.5-0.1
		c0.6,0,1,0.4,1,1C225.3,673.3,224.8,673.7,224.3,673.7z"/>
</g>
<g>
	<rect x="16.2" y="463.1" width="2" height="10"/>
	<rect x="26.7" y="473.3" transform="matrix(0.7071 -0.7071 0.7071 0.7071 -326.0829 161.4628)" width="10.4" height="2"/>
	<rect x="1.5" y="469.1" transform="matrix(0.7071 -0.7071 0.7071 0.7071 -334.6992 140.6721)" width="2" height="10.4"/>
	<polygon points="10.5,492.3 11.9,493.7 16.2,489.5 16.2,499.1 18.2,499.1 18.2,489.5 22.4,493.7 23.8,492.3 17.2,485.6 	"/>
	<path d="M30.2,489.1C30.2,489.1,30.2,489.1,30.2,489.1c0-7.2-5.8-13-13-13s-13,5.8-13,13c0,0,0,0,0,0h-13v2h18v-2h-3c0,0,0,0,0,0
		c0-6.1,4.9-11,11-11s11,4.9,11,11c0,0,0,0,0,0h-3v2h18v-2H30.2z"/>
</g>
<g>
	<rect x="119.9" y="461.9" width="2" height="10"/>
	<rect x="130.4" y="472.2" transform="matrix(0.7071 -0.7071 0.7071 0.7071 -294.857 234.4729)" width="10.4" height="2"/>
	<rect x="105.2" y="468" transform="matrix(0.7071 -0.7071 0.7071 0.7071 -303.4733 213.6822)" width="2" height="10.4"/>
	<polygon points="121.9,496.4 121.9,485.9 119.9,485.9 119.9,496.4 115.6,492.2 114.2,493.6 120.9,500.2 127.6,493.6 126.2,492.2 	
		"/>
	<path d="M133.9,487.9C133.9,487.9,133.9,487.9,133.9,487.9c0-7.2-5.8-13-13-13s-13,5.8-13,13c0,0,0,0,0,0h-13v2h22v-2h-7
		c0,0,0,0,0,0c0-6.1,4.9-11,11-11s11,4.9,11,11c0,0,0,0,0,0h-7v2h22v-2H133.9z"/>
</g>
<g>
	<polygon points="324.3,495.9 324.3,481.5 322.3,481.5 322.3,495.9 318,491.6 316.6,493 323.3,499.7 329.9,493 328.5,491.6 	"/>
	<path d="M339.9,476.5c-1.6-7.4-8.2-13-16.1-13c-6.4,0-12,3.7-14.7,9c-0.3,0-0.5,0-0.8,0c-6.6,0-12,5.4-12,12c0,6.6,5.3,12,11.9,12
		v0h6.1v-2h-5.6l-0.4,0c-5.5,0-9.9-4.5-9.9-10c0-5.5,4.5-10,10-10c0.2,0,0.3,0,0.5,0l0.1,0l1.3,0.1l0.6-1.2
		c2.5-4.9,7.4-7.9,12.9-7.9c6.8,0,12.8,4.8,14.2,11.4l0.3,1.5l1.5,0.1c4.2,0.3,7.5,3.8,7.5,8c0,4.4-3.6,8-8,8c0,0-0.1,0-0.1,0l-2,0
		h-4.9v2h6.9v0c0,0,0.1,0,0.1,0c5.5,0,10-4.5,10-10C349.3,481.2,345.1,476.9,339.9,476.5z"/>
</g>
<g>
	<polygon points="230.2,492.7 231.7,491.3 225,484.6 218.3,491.3 219.7,492.7 224,488.4 224,501 226,501 226,488.4 	"/>
	<path d="M241.6,478.1c-1.6-7.4-8.2-13-16.1-13c-6.4,0-12,3.7-14.7,9c-0.3,0-0.5,0-0.8,0c-6.6,0-12,5.4-12,12c0,6.6,5.3,12,11.9,12
		v0H220v-2h-9.6l-0.4,0c-5.5,0-9.9-4.5-9.9-10c0-5.5,4.5-10,10-10c0.2,0,0.3,0,0.5,0l0.1,0l1.3,0.1l0.6-1.2
		c2.5-4.9,7.4-7.9,12.9-7.9c6.8,0,12.8,4.8,14.2,11.4l0.3,1.5l1.5,0.1c4.2,0.3,7.5,3.8,7.5,8c0,4.4-3.6,8-8,8c-0.1,0-0.1,0-0.1,0
		l-2,0H230v2h10.9v0c0,0,0.1,0,0.1,0c5.5,0,10-4.5,10-10C251,482.8,246.8,478.5,241.6,478.1z"/>
</g>
<g>
	<path d="M444.1,288.6c-1.6-7.4-8.2-13-16.1-13c-6.4,0-12,3.7-14.7,9c-0.3,0-0.5,0-0.8,0c-6.6,0-12,5.4-12,12c0,6.6,5.3,12,11.9,12
		v0h2.1v-2h-1.6l-0.4,0c-5.5,0-9.9-4.5-9.9-10c0-5.5,4.5-10,10-10c0.2,0,0.3,0,0.5,0l0.1,0l1.3,0.1l0.6-1.2
		c2.5-4.9,7.4-7.9,12.9-7.9c6.8,0,12.8,4.8,14.2,11.4l0.3,1.5l1.5,0.1c4.2,0.3,7.5,3.8,7.5,8c0,4.4-3.6,8-8,8c0,0-0.1,0-0.1,0l-2,0
		h-0.9v2h2.9v0c0,0,0.1,0,0.1,0c5.5,0,10-4.5,10-10C453.5,293.3,449.3,288.9,444.1,288.6z"/>
	<polygon points="422.5,307.6 422.5,305 424.7,306.2 425.3,305 422.9,303.6 425.3,302.2 424.7,301 422.5,302.2 422.5,299.6 
		420.5,299.6 420.5,302.2 418.2,301 417.5,302.2 420,303.6 417.5,305 418.2,306.2 420.5,304.9 420.5,307.6 	"/>
	<polygon points="427.6,312 425.5,313.2 425.5,310.6 423.5,310.6 423.5,313.2 421.2,312 420.5,313.2 423,314.6 420.5,316 
		421.2,317.2 423.5,315.9 423.5,318.6 425.5,318.6 425.5,316 427.6,317.2 428.3,316 425.9,314.6 428.3,313.2 	"/>
	<polygon points="436.7,305 434.5,306.2 434.5,303.6 432.5,303.6 432.5,306.2 430.2,305 429.5,306.2 432,307.6 429.5,309 
		430.2,310.2 432.5,308.9 432.5,311.6 434.5,311.6 434.5,309 436.7,310.2 437.3,309 434.9,307.6 437.3,306.2 	"/>
</g>
<g>
	<rect x="519.6" y="270.6" width="2" height="8"/>
	<rect x="500.6" y="289.5" width="8" height="2"/>
	<rect x="508.3" y="275.2" transform="matrix(0.7071 -0.7071 0.7071 0.7071 -48.2622 441.8918)" width="2" height="8"/>
	<rect x="527.8" y="278.2" transform="matrix(0.7071 -0.7071 0.7071 0.7071 -41.6687 457.8182)" width="8" height="2"/>
	<path d="M550.1,296.4c-1.4-6.7-7.4-11.8-14.6-11.8c-2.2,0-4.3,0.5-6.1,1.3c-1.7-3.2-5-5.4-8.9-5.4c-5.5,0-10,4.5-10,10
		c0,2.5,0.9,4.7,2.4,6.4c-1.4,1.8-2.3,4.1-2.3,6.7c0,6,4.8,10.8,10.8,10.9v0h1.2v-2h-0.7l-0.5,0c-4.9,0-8.8-4-8.8-8.9
		c0-4.9,4-8.9,8.9-8.9c0.2,0,0.3,0,0.4,0l0.1,0l1.3,0.1l0.6-1.2c2.2-4.4,6.6-7.1,11.5-7.1c6.1,0,11.4,4.3,12.6,10.2l0.3,1.5l1.5,0.1
		c3.7,0.2,6.6,3.3,6.6,7c0,3.9-3.1,7-7,7.1c0,0-0.1,0-0.1,0l-1.9,0v2h1.8v0c0,0,0.1,0,0.1,0c5,0,9.1-4.1,9.1-9.1
		C558.6,300.6,554.9,296.6,550.1,296.4z M522.2,292.7c-0.2,0-0.5,0-0.7,0c-2.8,0-5.3,1-7.2,2.7c-1.1-1.4-1.8-3.1-1.8-5
		c0-4.4,3.6-8,8-8c3.1,0,5.8,1.8,7.1,4.3C525.3,288.3,523.4,290.3,522.2,292.7z"/>
	<polygon points="529.6,313.5 529.6,310.8 531.8,312 532.5,310.8 530,309.4 532.5,308 531.8,306.8 529.6,308 529.6,305.5 
		527.6,305.5 527.6,308.1 525.4,306.8 524.7,308 527.1,309.4 524.7,310.8 525.4,312 527.6,310.8 527.6,313.5 	"/>
	<polygon points="534.8,317.8 532.6,319 532.6,316.4 530.6,316.4 530.6,319.1 528.4,317.8 527.7,319 530.1,320.4 527.7,321.8 
		528.4,323 530.6,321.8 530.6,324.4 532.6,324.4 532.6,321.8 534.8,323 535.5,321.8 533,320.4 535.5,319 	"/>
	<polygon points="543.8,310.8 541.6,312 541.6,309.5 539.6,309.5 539.6,312.1 537.4,310.8 536.7,312 539.2,313.4 536.7,314.8 
		537.4,316 539.6,314.8 539.6,317.5 541.6,317.5 541.6,314.8 543.8,316 544.5,314.8 542,313.4 544.5,312 	"/>
</g>
<g>
	<path d="M650.3,293.3c-1.4-6.7-7.4-11.8-14.6-11.8c-1.8,0-3.5,0.3-5.1,0.9c-0.9-5.1-5.4-9-10.8-9c-0.4,0-0.8,0-1.2,0.1
		c0.7,1.1,1.2,2.4,1.2,3.9c0,3.9-3.1,7-7,7c-1.4,0-2.8-0.4-3.9-1.2c0,0.4-0.1,0.8-0.1,1.2c0,3.7,1.8,7,4.7,9
		c-1.7,1.9-2.7,4.4-2.7,7.1c0,6,4.8,10.8,10.8,10.9v0h1.2v-2h-0.7l-0.5,0c-4.9,0-8.8-4-8.8-8.9c0-4.9,4-8.9,8.9-8.9
		c0.2,0,0.3,0,0.4,0l0.1,0l1.3,0.1l0.6-1.2c2.2-4.4,6.6-7.1,11.5-7.1c6.1,0,11.4,4.3,12.6,10.2l0.3,1.5l1.5,0.1
		c3.7,0.2,6.6,3.3,6.6,7c0,3.9-3.1,7-7,7.1c0,0-0.1,0-0.1,0l-1.9,0v2h1.8v0c0,0,0.1,0,0.1,0c5,0,9.1-4.1,9.1-9.1
		C658.8,297.6,655.1,293.6,650.3,293.3z M622.4,289.7c-0.2,0-0.5,0-0.7,0c-2.5,0-4.9,0.9-6.7,2.3c-2-1.3-3.5-3.4-4-5.8
		c0.6,0.1,1.2,0.2,1.8,0.2c5,0,9-4,9-9c0-0.6-0.1-1.2-0.2-1.8c3.7,0.8,6.6,3.8,7.1,7.6C626,284.7,623.8,287,622.4,289.7z"/>
	<polygon points="629.8,310.5 629.8,307.8 632,309 632.7,307.8 630.2,306.4 632.7,305 632,303.8 629.8,305 629.8,302.5 627.8,302.5 
		627.8,305.1 625.6,303.8 624.9,305 627.4,306.4 624.9,307.8 625.6,309 627.8,307.8 627.8,310.5 	"/>
	<polygon points="635,314.8 632.8,316 632.8,313.4 630.8,313.4 630.8,316.1 628.6,314.8 627.9,316 630.4,317.4 627.9,318.8 
		628.6,320 630.8,318.8 630.8,321.4 632.8,321.4 632.8,318.8 635,320 635.7,318.8 633.2,317.4 635.7,316 	"/>
	<polygon points="644,307.8 641.9,309 641.9,306.5 639.9,306.5 639.9,309.1 637.6,307.8 636.9,309 639.4,310.4 636.9,311.8 
		637.6,313 639.9,311.8 639.9,314.5 641.9,314.5 641.9,311.8 644,313 644.7,311.8 642.2,310.4 644.7,309 	"/>
</g>
<rect x="34" y="-274.4" class="st1" width="473" height="180.9"/>
<text transform="matrix(1 0 0 1 213.6001 -203.0024)" style="font-family:'Helvetica'; font-size:100px; letter-spacing:2;">60</text>
<text transform="matrix(1 0 0 1 114.3321 -143.0024)" style="font-family:'Helvetica'; font-size:48px;">Weather Icons</text>
<text transform="matrix(1 0 0 1 209.8741 -99.0024)" style="font-family:'Helvetica'; font-size:24px;">IOS 7 Style</text>
</svg>
