<?xml version="1.0" encoding="utf-8"?>
<!-- Generator: Adobe Illustrator 25.0.1, SVG Export Plug-In . SVG Version: 6.00 Build 0)  -->
<svg version="1.1" id="Layer_1" xmlns="http://www.w3.org/2000/svg" xmlns:xlink="http://www.w3.org/1999/xlink" x="0px" y="0px"
	 viewBox="0 0 58 54.4" style="enable-background:new 0 0 58 54.4;" xml:space="preserve">
<style type="text/css">
	.st0{fill:#FFFFFF;}
	.st1{fill:none;}
</style>
<path d="M547.5,383.8l-1.8,15.1l-0.3,2.2h2.3h6.9l-14.7,18.8l1.8-14.5l0.3-2.2h-2.3h-7L547.5,383.8 M550.3,376.8l-21.7,28.3h11
	l-2.7,21.7l21.7-27.7h-11L550.3,376.8L550.3,376.8z"/>
<path d="M134.4-78.4c6.8,0,12.7,4.8,14.2,11.4l0.3,1.5l1.5,0.1c4.2,0.3,7.5,3.8,7.5,8c0,4.4-3.6,8-8,8c0,0-0.1,0-0.1,0l-2,0v0h-28.3
	l-0.6,0c-5.5,0-9.9-4.5-9.9-10c0-5.5,4.5-10,10-10c0.2,0,0.3,0,0.5,0l0.1,0l1.3,0.1l0.6-1.2C124-75.4,128.9-78.4,134.4-78.4
	 M134.4-80.4c-6.4,0-12,3.7-14.7,9c-0.3,0-0.5,0-0.8,0c-6.6,0-12,5.4-12,12c0,6.6,5.3,12,11.9,12v0h30.9v0c0,0,0.1,0,0.1,0
	c5.5,0,10-4.5,10-10c0-5.3-4.1-9.6-9.4-10C148.9-74.8,142.3-80.4,134.4-80.4L134.4-80.4z"/>
<g>
	<path d="M257.4-60c-1.4-6.7-7.4-11.8-14.6-11.8c-2.2,0-4.3,0.5-6.1,1.3c-1.7-3.2-5-5.4-8.9-5.4c-5.5,0-10,4.5-10,10
		c0,2.5,0.9,4.7,2.4,6.4c-1.4,1.8-2.3,4.1-2.3,6.7c0,6,4.8,10.8,10.8,10.9v0h28v0c0,0,0.1,0,0.1,0c5,0,9.1-4.1,9.1-9.1
		C265.9-55.8,262.1-59.7,257.4-60z M227.8-73.9c3.1,0,5.8,1.8,7.1,4.3c-2.3,1.4-4.2,3.5-5.4,5.9c-0.2,0-0.5,0-0.7,0
		c-2.8,0-5.3,1-7.2,2.7c-1.1-1.4-1.8-3.1-1.8-5C219.8-70.3,223.4-73.9,227.8-73.9z M256.8-43.9c0,0-0.1,0-0.1,0l-2,0v0h-25.4l-0.6,0
		c-4.9,0-8.8-4-8.8-8.9c0-4.9,4-8.9,8.9-8.9c0.1,0,0.3,0,0.4,0l0.1,0l1.3,0.1l0.6-1.2c2.2-4.4,6.6-7.1,11.5-7.1
		c6.1,0,11.4,4.3,12.6,10.2l0.3,1.5l1.5,0.1c3.7,0.2,6.6,3.3,6.6,7C263.9-47.1,260.7-44,256.8-43.9z"/>
	<rect x="226.8" y="-85.9" width="2" height="8"/>
	<rect x="207.8" y="-66.9" width="8" height="2"/>
	<rect x="215.5" y="-81.1" transform="matrix(0.7071 -0.7071 0.7071 0.7071 117.9711 130.4997)" width="2" height="8"/>
	<rect x="235" y="-78.2" transform="matrix(0.7071 -0.7071 0.7071 0.7071 124.5648 146.4255)" width="8" height="2"/>
</g>
<path d="M353.1-64c-1.4-6.7-7.4-11.8-14.6-11.8c-1.8,0-3.5,0.3-5.1,0.9c-0.9-5.1-5.4-9-10.8-9c-0.4,0-0.8,0-1.2,0.1
	c0.7,1.1,1.2,2.4,1.2,3.9c0,3.9-3.1,7-7,7c-1.4,0-2.8-0.4-3.9-1.2c0,0.4-0.1,0.8-0.1,1.2c0,3.7,1.8,7,4.7,9
	c-1.7,1.9-2.7,4.4-2.7,7.1c0,6,4.8,10.8,10.8,10.9v0h28v0c0,0,0.1,0,0.1,0c5,0,9.1-4.1,9.1-9.1C361.6-59.8,357.8-63.7,353.1-64z
	 M313.8-71.1c0.6,0.1,1.2,0.2,1.8,0.2c5,0,9-4,9-9c0-0.6-0.1-1.2-0.2-1.8c3.7,0.8,6.6,3.8,7.1,7.6c-2.7,1.4-4.9,3.7-6.3,6.4
	c-0.2,0-0.5,0-0.7,0c-2.5,0-4.9,0.9-6.7,2.3C315.7-66.7,314.3-68.7,313.8-71.1z M352.6-48c0,0-0.1,0-0.1,0l-2,0v0H325l-0.6,0
	c-4.9,0-8.8-4-8.8-8.9c0-4.9,4-8.9,8.9-8.9c0.1,0,0.3,0,0.4,0l0.1,0l1.3,0.1l0.6-1.2c2.2-4.4,6.6-7.1,11.5-7.1
	c6.1,0,11.4,4.3,12.6,10.2l0.3,1.5L353-62c3.7,0.2,6.6,3.3,6.6,7C359.6-51.1,356.5-48,352.6-48z"/>
<g>
	<rect x="437.8" y="-55.4" width="2" height="7"/>
	<rect x="445.8" y="-59.4" width="2" height="7"/>
	<rect x="429.8" y="-59.4" width="2" height="7"/>
	<rect x="437.8" y="-45.4" width="2" height="7"/>
	<rect x="445.8" y="-49.4" width="2" height="7"/>
	<rect x="429.8" y="-49.4" width="2" height="7"/>
	<path d="M456.4-72.4c-1.6-7.4-8.2-13-16.1-13c-6.4,0-12,3.7-14.7,9c-0.3,0-0.5,0-0.8,0c-6.6,0-12,5.4-12,12c0,6.6,5.3,12,11.9,12v0
		h2.1v-2h-1.6l-0.4,0c-5.5,0-9.9-4.5-9.9-10c0-5.5,4.5-10,10-10c0.2,0,0.3,0,0.5,0l0.1,0l1.3,0.1l0.6-1.2c2.5-4.9,7.4-7.9,12.9-7.9
		c6.8,0,12.8,4.8,14.2,11.4l0.3,1.5l1.5,0.1c4.2,0.3,7.5,3.8,7.5,8c0,4.4-3.6,8-8,8c0,0-0.1,0-0.1,0l-2,0h-2.9v2h4.9v0
		c0,0,0.1,0,0.1,0c5.5,0,10-4.5,10-10C465.8-67.7,461.6-72.1,456.4-72.4z"/>
</g>
<g>
	<path d="M254,17c-1.6-7.4-8.2-13-16.1-13c-6.4,0-12,3.7-14.7,9c-0.3,0-0.5,0-0.8,0c-6.6,0-12,5.4-12,12c0,6.6,5.3,12,11.9,12v0h2.1
		v-2h-1.6l-0.4,0c-5.5,0-9.9-4.5-9.9-10c0-5.5,4.5-10,10-10c0.2,0,0.3,0,0.5,0l0.1,0l1.3,0.1l0.6-1.2c2.5-4.9,7.4-7.9,12.9-7.9
		c6.8,0,12.8,4.8,14.2,11.4l0.3,1.5l1.5,0.1c4.2,0.3,7.5,3.8,7.5,8c0,4.4-3.6,8-8,8c-0.1,0-0.1,0-0.1,0l-2,0h-2.9v2h4.9v0
		c0,0,0.1,0,0.1,0c5.5,0,10-4.5,10-10C263.3,21.6,259.2,17.3,254,17z"/>
	<polygon points="235.3,43.9 235.3,45.9 235.3,51.9 237.3,51.9 237.3,45.9 237.3,43.9 237.3,31.9 235.3,31.9 	"/>
	<polygon points="243.3,39.9 243.3,41.7 243.3,47.9 245.3,47.9 245.3,41.7 245.3,39.9 245.3,27.9 243.3,27.9 	"/>
	<polygon points="227.3,39.9 227.3,42 227.3,47.9 229.3,47.9 229.3,42 229.3,39.9 229.3,27.9 227.3,27.9 	"/>
</g>
<g>
	<polygon points="549.6,40.9 542.7,31 541.1,32.2 548,42 549.1,43.6 552.6,48.6 554.2,47.4 550.7,42.4 	"/>
	<polygon points="557.6,40.9 550.7,31 549.1,32.2 556,42 557,43.4 560.6,48.6 562.2,47.4 558.6,42.3 	"/>
	<polygon points="541.6,40.9 534.7,31 533.1,32.2 540,42 541.2,43.7 544.6,48.6 546.2,47.4 542.8,42.6 	"/>
	<path d="M560.7,17.2c-1.6-7.4-8.2-13-16.1-13c-6.4,0-12,3.7-14.7,9c-0.3,0-0.5,0-0.8,0c-6.6,0-12,5.4-12,12c0,6.6,5.3,12,11.9,12v0
		h2.1v-2h-1.6l-0.4,0c-5.5,0-9.9-4.5-9.9-10c0-5.5,4.5-10,10-10c0.2,0,0.3,0,0.5,0l0.1,0l1.3,0.1l0.6-1.2c2.5-4.9,7.4-7.9,12.9-7.9
		c6.8,0,12.8,4.8,14.2,11.4l0.3,1.5l1.5,0.1c4.2,0.3,7.5,3.8,7.5,8c0,4.4-3.6,8-8,8c0,0-0.1,0-0.1,0l-1,0h0.1v2h0.9v0
		c0,0,0.1,0,0.1,0c5.5,0,10-4.5,10-10C570.1,21.9,565.9,17.5,560.7,17.2z"/>
</g>
<g>
	<rect x="532.4" y="-91.9" width="2" height="8"/>
	<rect x="513.4" y="-72.9" width="8" height="2"/>
	<rect x="521.1" y="-87.2" transform="matrix(0.7071 -0.7071 0.7071 0.7071 211.7533 344.7834)" width="2" height="8"/>
	<rect x="540.6" y="-84.2" transform="matrix(0.7071 -0.7071 0.7071 0.7071 218.3468 360.7098)" width="8" height="2"/>
	<rect x="546.4" y="-51" width="2" height="7"/>
	<rect x="554.4" y="-55" width="2" height="7"/>
	<rect x="538.4" y="-55" width="2" height="7"/>
	<rect x="546.4" y="-41" width="2" height="7"/>
	<rect x="554.4" y="-45" width="2" height="7"/>
	<rect x="538.4" y="-45" width="2" height="7"/>
	<path d="M562.9-66.1c-1.4-6.7-7.4-11.8-14.6-11.8c-2.2,0-4.3,0.5-6.1,1.3c-1.7-3.2-5-5.4-8.9-5.4c-5.5,0-10,4.5-10,10
		c0,2.5,0.9,4.7,2.4,6.4c-1.4,1.8-2.3,4.1-2.3,6.7c0,6,4.8,10.8,10.8,10.9v0h1.2v-2h-0.7l-0.5,0c-4.9,0-8.8-4-8.8-8.9
		c0-4.9,4-8.9,8.9-8.9c0.2,0,0.3,0,0.4,0l0.1,0l1.3,0.1l0.6-1.2c2.2-4.4,6.6-7.1,11.5-7.1c6.1,0,11.4,4.3,12.6,10.2l0.3,1.5l1.5,0.1
		c3.7,0.2,6.6,3.3,6.6,7c0,3.9-3.1,7-7,7.1c0,0-0.1,0-0.1,0l-2,0h-0.8v2h2.8v0c0,0,0.1,0,0.1,0c5,0,9.1-4.1,9.1-9.1
		C571.4-61.9,567.7-65.8,562.9-66.1z M535-69.7c-0.2,0-0.5,0-0.7,0c-2.8,0-5.3,1-7.2,2.7c-1.1-1.4-1.8-3.1-1.8-5c0-4.4,3.6-8,8-8
		c3.1,0,5.8,1.8,7.1,4.3C538.1-74.2,536.2-72.1,535-69.7z"/>
</g>
<g>
	<rect x="646.8" y="-52.4" width="2" height="7"/>
	<rect x="654.8" y="-56.4" width="2" height="7"/>
	<rect x="638.8" y="-56.4" width="2" height="7"/>
	<rect x="646.8" y="-42.4" width="2" height="7"/>
	<rect x="654.8" y="-46.4" width="2" height="7"/>
	<rect x="638.8" y="-46.4" width="2" height="7"/>
	<path d="M663.3-67.5c-1.4-6.7-7.4-11.8-14.6-11.8c-1.8,0-3.5,0.3-5.1,0.9c-0.9-5.1-5.4-9-10.8-9c-0.4,0-0.8,0-1.2,0.1
		c0.7,1.1,1.2,2.4,1.2,3.9c0,3.9-3.1,7-7,7c-1.4,0-2.8-0.4-3.9-1.2c0,0.4-0.1,0.8-0.1,1.2c0,3.7,1.8,7,4.7,9
		c-1.7,1.9-2.7,4.4-2.7,7.1c0,6,4.8,10.8,10.8,10.9v0h1.2v-2h-0.7l-0.5,0c-4.9,0-8.8-4-8.8-8.9c0-4.9,4-8.9,8.9-8.9
		c0.2,0,0.3,0,0.4,0l0.1,0l1.3,0.1l0.6-1.2c2.2-4.4,6.6-7.1,11.5-7.1c6.1,0,11.4,4.3,12.6,10.2l0.3,1.5l1.5,0.1
		c3.7,0.2,6.6,3.3,6.6,7c0,3.9-3.1,7-7,7.1c0,0-0.1,0-0.1,0l-2,0h-0.8v2h2.8v0c0,0,0.1,0,0.1,0c5,0,9.1-4.1,9.1-9.1
		C671.8-63.3,668.1-67.2,663.3-67.5z M635.4-71.1c-0.2,0-0.5,0-0.7,0c-2.5,0-4.9,0.9-6.7,2.3c-2-1.3-3.5-3.4-4-5.8
		c0.6,0.1,1.2,0.2,1.8,0.2c5,0,9-4,9-9c0-0.6-0.1-1.2-0.2-1.8c3.7,0.8,6.6,3.8,7.1,7.6C639-76.1,636.8-73.9,635.4-71.1z"/>
</g>
<g>
	<polygon points="339.6,48.4 339.6,50.3 339.6,56.4 341.6,56.4 341.6,50.3 341.6,48.4 341.6,36.4 339.6,36.4 	"/>
	<polygon points="347.6,44.4 347.6,46.1 347.6,52.4 349.6,52.4 349.6,46.1 349.6,44.4 349.6,32.4 347.6,32.4 	"/>
	<polygon points="331.6,44.4 331.6,46.5 331.6,52.4 333.6,52.4 333.6,46.5 333.6,44.4 333.6,32.4 331.6,32.4 	"/>
	<rect x="325.6" y="-2.5" width="2" height="8"/>
	<rect x="306.6" y="16.4" width="8" height="2"/>
	<rect x="314.3" y="2.1" transform="matrix(0.7071 -0.7071 0.7071 0.7071 88.0011 224.7151)" width="2" height="8"/>
	<rect x="333.8" y="5.1" transform="matrix(0.7071 -0.7071 0.7071 0.7071 94.5948 240.6409)" width="8" height="2"/>
	<path d="M356.1,23.3c-1.4-6.7-7.4-11.8-14.6-11.8c-2.2,0-4.3,0.5-6.1,1.3c-1.7-3.2-5-5.4-8.9-5.4c-5.5,0-10,4.5-10,10
		c0,2.5,0.9,4.7,2.4,6.4c-1.4,1.8-2.3,4.1-2.3,6.7c0,6,4.8,10.8,10.8,10.9v0h1.2v-2h-0.7l-0.5,0c-4.9,0-8.8-4-8.8-8.9
		c0-4.9,4-8.9,8.9-8.9c0.1,0,0.3,0,0.4,0l0.1,0l1.3,0.1l0.6-1.2c2.2-4.4,6.6-7.1,11.5-7.1c6.1,0,11.4,4.3,12.6,10.2l0.3,1.5l1.5,0.1
		c3.7,0.2,6.6,3.3,6.6,7c0,3.9-3.1,7-7,7.1c0,0-0.1,0-0.1,0l-2,0h-0.8v2h2.8v0c0,0,0.1,0,0.1,0c5,0,9.1-4.1,9.1-9.1
		C364.6,27.5,360.8,23.6,356.1,23.3z M328.2,19.7c-0.2,0-0.5,0-0.7,0c-2.8,0-5.3,1-7.2,2.7c-1.1-1.4-1.8-3.1-1.8-5c0-4.4,3.6-8,8-8
		c3.1,0,5.8,1.8,7.1,4.3C331.3,15.2,329.4,17.2,328.2,19.7z"/>
</g>
<g>
	<polygon points="440,45.9 440,47.8 440,53.9 442,53.9 442,47.8 442,45.9 442,33.9 440,33.9 	"/>
	<polygon points="448,41.9 448,43.6 448,49.9 450,49.9 450,43.6 450,41.9 450,29.9 448,29.9 	"/>
	<polygon points="432,41.9 432,43.9 432,49.9 434,49.9 434,43.9 434,41.9 434,29.9 432,29.9 	"/>
	<path d="M456.5,20.8C455.1,14,449.1,9,441.9,9c-1.8,0-3.5,0.3-5.1,0.9c-0.9-5.1-5.4-9-10.8-9c-0.4,0-0.8,0-1.2,0.1
		c0.7,1.1,1.2,2.4,1.2,3.9c0,3.9-3.1,7-7,7c-1.4,0-2.8-0.4-3.9-1.2c0,0.4-0.1,0.8-0.1,1.2c0,3.7,1.8,7,4.7,9
		c-1.7,1.9-2.7,4.4-2.7,7.1c0,6,4.8,10.8,10.8,10.9v0h1.2v-2h-0.7l-0.5,0c-4.9,0-8.8-4-8.8-8.9c0-4.9,4-8.9,8.9-8.9
		c0.1,0,0.3,0,0.4,0l0.1,0l1.3,0.1l0.6-1.2c2.2-4.4,6.6-7.1,11.5-7.1c6.1,0,11.4,4.3,12.6,10.2l0.3,1.5l1.5,0.1
		c3.7,0.2,6.6,3.3,6.6,7c0,3.9-3.1,7-7,7.1c0,0-0.1,0-0.1,0l-2,0H453v2h2.8v0c0,0,0.1,0,0.1,0c5,0,9.1-4.1,9.1-9.1
		C465,25,461.2,21.1,456.5,20.8z M428.6,17.1c-0.2,0-0.5,0-0.7,0c-2.5,0-4.9,0.9-6.7,2.3c-2-1.3-3.5-3.4-4-5.8
		c0.6,0.1,1.2,0.2,1.8,0.2c5,0,9-4,9-9c0-0.6-0.1-1.2-0.2-1.8c3.7,0.8,6.6,3.8,7.1,7.6C432.2,12.1,430,14.4,428.6,17.1z"/>
</g>
<g>
	<polygon points="657,46.8 650.1,37 648.5,38.1 655.4,48 656.5,49.6 660,54.5 661.6,53.4 658.1,48.4 	"/>
	<polygon points="665,46.8 658.1,37 656.5,38.1 663.4,48 664.4,49.4 668,54.5 669.6,53.4 666,48.2 	"/>
	<polygon points="649,46.8 642.1,37 640.5,38.1 647.4,48 648.6,49.7 652,54.5 653.6,53.4 650.2,48.5 	"/>
	<rect x="636.5" y="-0.7" width="2" height="8"/>
	<rect x="617.5" y="18.2" width="8" height="2"/>
	<rect x="625.2" y="3.9" transform="matrix(0.7071 -0.7071 0.7071 0.7071 177.8067 445.0828)" width="2" height="8"/>
	<rect x="644.7" y="6.9" transform="matrix(0.7071 -0.7071 0.7071 0.7071 184.4002 461.0093)" width="8" height="2"/>
	<path d="M667,25.1c-1.4-6.7-7.4-11.8-14.6-11.8c-2.2,0-4.3,0.5-6.1,1.3c-1.7-3.2-5-5.4-8.9-5.4c-5.5,0-10,4.5-10,10
		c0,2.5,0.9,4.7,2.4,6.4c-1.4,1.8-2.3,4.1-2.3,6.7c0,6,4.8,10.8,10.8,10.9v0h1.2v-2h-0.7l-0.5,0c-4.9,0-8.8-4-8.8-8.9
		c0-4.9,4-8.9,8.9-8.9c0.2,0,0.3,0,0.4,0l0.1,0l1.3,0.1l0.6-1.2c2.2-4.4,6.6-7.1,11.5-7.1c6.1,0,11.4,4.3,12.6,10.2l0.3,1.5l1.5,0.1
		c3.7,0.2,6.6,3.3,6.6,7c0,3.9-3.1,7-7,7.1c0,0-0.1,0-0.1,0l0,0h-0.8v2h0.8v0c0,0,0.1,0,0.1,0c5,0,9.1-4.1,9.1-9.1
		C675.5,29.3,671.8,25.4,667,25.1z M639.1,21.4c-0.2,0-0.5,0-0.7,0c-2.8,0-5.3,1-7.2,2.7c-1.1-1.4-1.8-3.1-1.8-5c0-4.4,3.6-8,8-8
		c3.1,0,5.8,1.8,7.1,4.3C642.2,17,640.3,19,639.1,21.4z"/>
</g>
<g>
	<polygon points="-66.4,143.3 -73.3,133.5 -74.9,134.6 -68,144.4 -66.9,146 -63.5,151 -61.8,149.9 -65.3,144.9 	"/>
	<polygon points="-58.4,143.3 -65.3,133.5 -66.9,134.6 -60,144.4 -59,145.9 -55.4,151 -53.8,149.9 -57.4,144.7 	"/>
	<polygon points="-74.4,143.3 -81.3,133.5 -82.9,134.6 -76,144.4 -74.9,146.1 -71.4,151 -69.8,149.9 -73.2,145 	"/>
	<path d="M-56.4,121.5c-1.4-6.7-7.4-11.8-14.6-11.8c-1.8,0-3.5,0.3-5.1,0.9c-0.9-5.1-5.4-9-10.8-9c-0.4,0-0.8,0-1.2,0.1
		c0.7,1.1,1.2,2.4,1.2,3.9c0,3.9-3.1,7-7,7c-1.4,0-2.8-0.4-3.9-1.2c0,0.4-0.1,0.8-0.1,1.2c0,3.7,1.8,7,4.7,9
		c-1.7,1.9-2.7,4.4-2.7,7.1c0,6,4.8,10.8,10.8,10.9v0h1.2v-2h-0.7l-0.5,0c-4.9,0-8.8-4-8.8-8.9c0-4.9,4-8.9,8.9-8.9
		c0.2,0,0.3,0,0.4,0l0.1,0l1.3,0.1l0.6-1.2c2.2-4.4,6.6-7.1,11.5-7.1c6.1,0,11.4,4.3,12.6,10.2l0.3,1.5l1.5,0.1
		c3.7,0.2,6.6,3.3,6.6,7c0,3.9-3.1,7-7,7.1c0,0-0.1,0-0.1,0l0,0h-0.8v2h0.8v0c0,0,0.1,0,0.1,0c5,0,9.1-4.1,9.1-9.1
		C-47.9,125.8-51.7,121.8-56.4,121.5z M-84.3,117.9c-0.2,0-0.5,0-0.7,0c-2.5,0-4.9,0.9-6.7,2.3c-2-1.3-3.5-3.4-4-5.8
		c0.6,0.1,1.2,0.2,1.8,0.2c5,0,9-4,9-9c0-0.6-0.1-1.2-0.2-1.8c3.7,0.8,6.6,3.8,7.1,7.6C-80.7,112.9-82.9,115.2-84.3,117.9z"/>
</g>
<g>
	<rect x="-73.9" y="39.5" width="2" height="4"/>
	<rect x="-65.9" y="35.4" width="2" height="4"/>
	<rect x="-81.9" y="35.4" width="2" height="4"/>
	<path d="M-55.3,19.5c-1.6-7.4-8.2-13-16.1-13c-6.4,0-12,3.7-14.7,9c-0.3,0-0.5,0-0.8,0c-6.6,0-12,5.4-12,12c0,6.6,5.3,12,11.9,12v0
		h2.1v-2h-1.6l-0.4,0c-5.5,0-9.9-4.5-9.9-10c0-5.5,4.5-10,10-10c0.2,0,0.3,0,0.5,0l0.1,0l1.3,0.1l0.6-1.2c2.5-4.9,7.4-7.9,12.9-7.9
		c6.8,0,12.8,4.8,14.2,11.4l0.3,1.5l1.5,0.1c4.2,0.3,7.5,3.8,7.5,8c0,4.4-3.6,8-8,8c0,0-0.1,0-0.1,0l-2,0h-2.9v2h4.9v0
		c0,0,0.1,0,0.1,0c5.5,0,10-4.5,10-10C-45.9,24.1-50.1,19.8-55.3,19.5z"/>
	<circle cx="-64.9" cy="44.5" r="1.5"/>
	<circle cx="-72.9" cy="48.4" r="1.5"/>
	<circle cx="-80.9" cy="44.4" r="1.5"/>
</g>
<g>
	<rect x="19" class="st0" width="2" height="8"/>
	<rect y="18.9" class="st0" width="8" height="2"/>
	<rect x="7.7" y="4.7" transform="matrix(0.7071 -0.7071 0.7071 0.7071 -3.5784 8.6561)" class="st0" width="2" height="8"/>
	<rect x="27.2" y="7.7" transform="matrix(0.7071 -0.7071 0.7071 0.7071 3.015 24.5825)" class="st0" width="8" height="2"/>
	<path class="st0" d="M49.5,25.8C48.1,19,42.1,14,34.9,14c-2.2,0-4.3,0.5-6.1,1.3c-1.7-3.2-5-5.4-8.9-5.4c-5.5,0-10,4.5-10,10
		c0,2.5,0.9,4.7,2.4,6.4C10.9,28.2,10,30.5,10,33c0,6,4.8,10.8,10.8,10.9v0H22v-2h-0.7l-0.5,0c-4.9,0-8.8-4-8.8-8.9
		c0-4.9,4-8.9,8.9-8.9c0.1,0,0.3,0,0.4,0l0.1,0l1.3,0.1l0.6-1.2C25.6,18.7,30,16,34.9,16c6.1,0,11.4,4.3,12.6,10.2l0.3,1.5l1.5,0.1
		c3.7,0.2,6.6,3.3,6.6,7c0,3.9-3.1,7-7,7.1c0,0-0.1,0-0.1,0l-2,0H46v2h2.8v0c0,0,0.1,0,0.1,0c5,0,9.1-4.1,9.1-9.1
		C58,30,54.2,26.1,49.5,25.8z M21.6,22.2c-0.2,0-0.5,0-0.7,0c-2.8,0-5.3,1-7.2,2.7c-1.1-1.4-1.8-3.1-1.8-5c0-4.4,3.6-8,8-8
		c3.1,0,5.8,1.8,7.1,4.3C24.7,17.7,22.8,19.7,21.6,22.2z"/>
	<rect x="33" y="43.9" class="st0" width="2" height="4"/>
	<rect x="41" y="39.9" class="st0" width="2" height="4"/>
	<rect x="25" y="39.9" class="st0" width="2" height="4"/>
	<circle class="st0" cx="42" cy="48.9" r="1.5"/>
	<circle class="st0" cx="34" cy="52.9" r="1.5"/>
	<circle class="st0" cx="26" cy="48.9" r="1.5"/>
</g>
<g>
	<path d="M150.4,24.8C149,18.1,143,13,135.8,13c-1.8,0-3.5,0.3-5.1,0.9c-0.9-5.1-5.4-9-10.8-9c-0.4,0-0.8,0-1.2,0.1
		c0.7,1.1,1.2,2.4,1.2,3.9c0,3.9-3.1,7-7,7c-1.4,0-2.8-0.4-3.9-1.2c0,0.4-0.1,0.8-0.1,1.2c0,3.7,1.8,7,4.7,9
		c-1.7,1.9-2.7,4.4-2.7,7.1c0,6,4.8,10.8,10.8,10.9v0h1.2v-2h-0.7l-0.5,0c-4.9,0-8.8-4-8.8-8.9c0-4.9,4-8.9,8.9-8.9
		c0.2,0,0.3,0,0.4,0l0.1,0l1.3,0.1l0.6-1.2c2.2-4.4,6.6-7.1,11.5-7.1c6.1,0,11.4,4.3,12.6,10.2l0.3,1.5l1.5,0.1
		c3.7,0.2,6.6,3.3,6.6,7c0,3.9-3.1,7-7,7.1c0,0-0.1,0-0.1,0l-2,0h-0.8v2h2.8v0c0,0,0.1,0,0.1,0c5,0,9.1-4.1,9.1-9.1
		C158.9,29,155.2,25.1,150.4,24.8z M122.5,21.2c-0.2,0-0.5,0-0.7,0c-2.5,0-4.9,0.9-6.7,2.3c-2-1.3-3.5-3.4-4-5.8
		c0.6,0.1,1.2,0.2,1.8,0.2c5,0,9-4,9-9c0-0.6-0.1-1.2-0.2-1.8c3.7,0.8,6.6,3.8,7.1,7.6C126.1,16.2,123.9,18.5,122.5,21.2z"/>
	<rect x="133.9" y="42.9" width="2" height="4"/>
	<rect x="141.9" y="38.9" width="2" height="4"/>
	<rect x="125.9" y="38.9" width="2" height="4"/>
	<circle cx="142.9" cy="48" r="1.5"/>
	<circle cx="134.9" cy="51.9" r="1.5"/>
	<circle cx="126.9" cy="47.9" r="1.5"/>
</g>
<g>
	<path d="M47.1,117.9c-1.6-7.4-8.2-13-16.1-13c-6.4,0-12,3.7-14.7,9c-0.3,0-0.5,0-0.8,0c-6.6,0-12,5.4-12,12c0,6.6,5.3,12,11.9,12v0
		h6.1v-2h-5.6l-0.4,0c-5.5,0-9.9-4.5-9.9-10c0-5.5,4.5-10,10-10c0.2,0,0.3,0,0.5,0l0.1,0l1.3,0.1l0.6-1.2c2.5-4.9,7.4-7.9,12.9-7.9
		c6.8,0,12.8,4.8,14.2,11.4l0.3,1.5l1.5,0.1c4.2,0.3,7.5,3.8,7.5,8c0,4.4-3.6,8-8,8c0,0-0.1,0-0.1,0l-5,0h0.1v2h4.9v0
		c0,0,0.1,0,0.1,0c5.5,0,10-4.5,10-10C56.5,122.5,52.4,118.2,47.1,117.9z"/>
	<polygon points="31.3,137.8 33.1,137.8 33.5,137.8 35.6,137.8 29.1,128.7 27.5,129.8 31.7,135.8 29.9,135.8 27.5,135.8 28.8,137.6 
		29.9,139.2 35.9,147.8 37.5,146.7 31.5,138.1 	"/>
</g>
<g>
	<rect x="122.9" y="98.7" width="2" height="8"/>
	<rect x="103.9" y="117.6" width="8" height="2"/>
	<rect x="111.6" y="103.4" transform="matrix(0.7071 -0.7071 0.7071 0.7071 -42.9532 111.061)" width="2" height="8"/>
	<rect x="131.1" y="106.4" transform="matrix(0.7071 -0.7071 0.7071 0.7071 -36.3597 126.9873)" width="8" height="2"/>
	<path d="M153.4,124.5c-1.4-6.7-7.4-11.8-14.6-11.8c-2.2,0-4.3,0.5-6.1,1.3c-1.7-3.2-5-5.4-8.9-5.4c-5.5,0-10,4.5-10,10
		c0,2.5,0.9,4.7,2.4,6.4c-1.4,1.8-2.3,4.1-2.3,6.7c0,6,4.8,10.8,10.8,10.9v0h4.2v-2h-3.7l-0.5,0c-4.9,0-8.8-4-8.8-8.9
		c0-4.9,4-8.9,8.9-8.9c0.2,0,0.3,0,0.4,0l0.1,0l1.3,0.1l0.6-1.2c2.2-4.4,6.6-7.1,11.5-7.1c6.1,0,11.4,4.3,12.6,10.2l0.3,1.5l1.5,0.1
		c3.7,0.2,6.6,3.3,6.6,7c0,3.9-3.1,7-7,7.1c0,0-0.1,0-0.1,0l-2,0h-3.8v2h5.8v0c0,0,0.1,0,0.1,0c5,0,9.1-4.1,9.1-9.1
		C161.9,128.7,158.2,124.8,153.4,124.5z M125.5,120.9c-0.2,0-0.5,0-0.7,0c-2.8,0-5.3,1-7.2,2.7c-1.1-1.4-1.8-3.1-1.8-5
		c0-4.4,3.6-8,8-8c3.1,0,5.8,1.8,7.1,4.3C128.6,116.4,126.8,118.5,125.5,120.9z"/>
	<polygon points="137.8,142.6 139.5,142.6 140,142.6 142,142.6 135.6,133.5 133.9,134.6 138.1,140.6 136.4,140.6 133.9,140.6 
		135.2,142.4 136.3,144 142.3,152.6 143.9,151.5 137.9,142.9 	"/>
</g>
<g>
	<path d="M253,122.2c-1.4-6.7-7.4-11.8-14.6-11.8c-1.8,0-3.5,0.3-5.1,0.9c-0.9-5.1-5.4-9-10.8-9c-0.4,0-0.8,0-1.2,0.1
		c0.7,1.1,1.2,2.4,1.2,3.9c0,3.9-3.1,7-7,7c-1.4,0-2.8-0.4-3.9-1.2c0,0.4-0.1,0.8-0.1,1.2c0,3.7,1.8,7,4.7,9
		c-1.7,1.9-2.7,4.4-2.7,7.1c0,6,4.8,10.8,10.8,10.9v0h4.2v-2h-3.7l-0.5,0c-4.9,0-8.8-4-8.8-8.9c0-4.9,4-8.9,8.9-8.9
		c0.1,0,0.3,0,0.4,0l0.1,0l1.3,0.1l0.6-1.2c2.2-4.4,6.6-7.1,11.5-7.1c6.1,0,11.4,4.3,12.6,10.2l0.3,1.5l1.5,0.1
		c3.7,0.2,6.6,3.3,6.6,7c0,3.9-3.1,7-7,7.1c0,0-0.1,0-0.1,0l-2,0h-3.8v2h5.8v0c0,0,0.1,0,0.1,0c5,0,9.1-4.1,9.1-9.1
		C261.5,126.4,257.8,122.5,253,122.2z M225.1,118.6c-0.2,0-0.5,0-0.7,0c-2.5,0-4.9,0.9-6.7,2.3c-2-1.3-3.5-3.4-4-5.8
		c0.6,0.1,1.2,0.2,1.8,0.2c5,0,9-4,9-9c0-0.6-0.1-1.2-0.2-1.8c3.7,0.8,6.6,3.8,7.1,7.6C228.7,113.6,226.5,115.9,225.1,118.6z"/>
	<polygon points="237.4,140.3 239.1,140.3 239.6,140.3 241.6,140.3 235.1,131.2 233.5,132.3 237.7,138.3 236,138.3 233.5,138.3 
		234.8,140.1 235.9,141.7 241.9,150.3 243.5,149.2 237.5,140.6 	"/>
</g>
<g>
	<path d="M353.9,118.4c-1.6-7.4-8.2-13-16.1-13c-6.4,0-12,3.7-14.7,9c-0.3,0-0.5,0-0.8,0c-6.6,0-12,5.4-12,12c0,6.6,5.3,12,11.9,12
		v0h1.1v-2h-0.6l-0.4,0c-5.5,0-9.9-4.5-9.9-10c0-5.5,4.5-10,10-10c0.2,0,0.3,0,0.5,0l0.1,0l1.3,0.1l0.6-1.2
		c2.5-4.9,7.4-7.9,12.9-7.9c6.8,0,12.8,4.8,14.2,11.4l0.3,1.5l1.5,0.1c4.2,0.3,7.5,3.8,7.5,8c0,4.4-3.6,8-8,8c0,0-0.1,0-0.1,0
		l-0.9,0v2h0.9v0c0,0,0.1,0,0.1,0c5.5,0,10-4.5,10-10C363.3,123,359.1,118.7,353.9,118.4z"/>
	<rect x="327.3" y="131.7" transform="matrix(0.8191 -0.5736 0.5736 0.8191 -19.3934 213.1684)" width="2" height="11.2"/>
	<rect x="345.3" y="131.7" transform="matrix(0.8191 -0.5736 0.5736 0.8191 -16.1424 223.4796)" width="2" height="11.2"/>
	<polygon points="339.1,141.3 340.9,141.3 341.3,141.3 343.3,141.3 336.9,132.2 335.3,133.3 339.5,139.3 337.7,139.3 335.3,139.3 
		336.6,141.1 337.7,142.7 342.3,149.3 343.9,148.2 339.3,141.6 	"/>
</g>
<g>
	<rect x="428.8" y="98.9" width="2" height="8"/>
	<rect x="409.8" y="117.8" width="8" height="2"/>
	<rect x="417.4" y="103.6" transform="matrix(0.7071 -0.7071 0.7071 0.7071 46.5078 327.3604)" width="2" height="8"/>
	<rect x="436.9" y="106.5" transform="matrix(0.7071 -0.7071 0.7071 0.7071 53.1013 343.2868)" width="8" height="2"/>
	<path d="M459.3,124.7c-1.4-6.7-7.4-11.8-14.6-11.8c-2.2,0-4.3,0.5-6.1,1.3c-1.7-3.2-5-5.4-8.9-5.4c-5.5,0-10,4.5-10,10
		c0,2.5,0.9,4.7,2.4,6.4c-1.4,1.8-2.3,4.1-2.3,6.7c0,6,4.8,10.8,10.8,10.9v0h0.2v-2l-0.2,0c-4.9,0-8.8-4-8.8-8.9
		c0-4.9,4-8.9,8.9-8.9c0.1,0,0.3,0,0.4,0l0.1,0l1.3,0.1l0.6-1.2c2.2-4.4,6.6-7.1,11.5-7.1c6.1,0,11.4,4.3,12.6,10.2l0.3,1.5l1.5,0.1
		c3.7,0.2,6.6,3.3,6.6,7c0,3.9-3.1,7-7,7.1c0,0-0.1,0-0.1,0l-0.9,0v2h0.8v0c0,0,0.1,0,0.1,0c5,0,9.1-4.1,9.1-9.1
		C467.8,128.9,464,125,459.3,124.7z M431.3,121.1c-0.2,0-0.5,0-0.7,0c-2.8,0-5.3,1-7.2,2.7c-1.1-1.4-1.8-3.1-1.8-5c0-4.4,3.6-8,8-8
		c3.1,0,5.8,1.8,7.1,4.3C434.5,116.6,432.6,118.6,431.3,121.1z"/>
	<rect x="433.8" y="136.2" transform="matrix(0.8191 -0.5736 0.5736 0.8191 -2.6824 275.0427)" width="2" height="11.2"/>
	<rect x="451.8" y="136.2" transform="matrix(0.8191 -0.5736 0.5736 0.8191 0.5686 285.354)" width="2" height="11.2"/>
	<polygon points="445.6,145.8 447.4,145.8 447.8,145.8 449.8,145.8 443.4,136.6 441.7,137.8 446,143.8 444.2,143.8 441.7,143.8 
		443,145.6 444.1,147.2 448.7,153.8 450.4,152.6 445.8,146 	"/>
</g>
<g>
	<path d="M561.1,121.7c-1.4-6.7-7.4-11.8-14.6-11.8c-1.8,0-3.5,0.3-5.1,0.9c-0.9-5.1-5.4-9-10.8-9c-0.4,0-0.8,0-1.2,0.1
		c0.7,1.1,1.2,2.4,1.2,3.9c0,3.9-3.1,7-7,7c-1.4,0-2.8-0.4-3.9-1.2c0,0.4-0.1,0.8-0.1,1.2c0,3.7,1.8,7,4.7,9
		c-1.7,1.9-2.7,4.4-2.7,7.1c0,6,4.8,10.8,10.8,10.9v0h0.2v-2l-0.2,0c-4.9,0-8.8-4-8.8-8.9c0-4.9,4-8.9,8.9-8.9c0.2,0,0.3,0,0.4,0
		l0.1,0l1.3,0.1l0.6-1.2c2.2-4.4,6.6-7.1,11.5-7.1c6.1,0,11.4,4.3,12.6,10.2l0.3,1.5l1.5,0.1c3.7,0.2,6.6,3.3,6.6,7
		c0,3.9-3.1,7-7,7.1c0,0-0.1,0-0.1,0l-0.9,0v2h0.8v0c0,0,0.1,0,0.1,0c5,0,9.1-4.1,9.1-9.1C569.6,125.9,565.8,122,561.1,121.7z
		 M533.2,118.1c-0.2,0-0.5,0-0.7,0c-2.5,0-4.9,0.9-6.7,2.3c-2-1.3-3.5-3.4-4-5.8c0.6,0.1,1.2,0.2,1.8,0.2c5,0,9-4,9-9
		c0-0.6-0.1-1.2-0.2-1.8c3.7,0.8,6.6,3.8,7.1,7.6C536.8,113.1,534.6,115.4,533.2,118.1z"/>
	<rect x="535.6" y="133.2" transform="matrix(0.8191 -0.5736 0.5736 0.8191 17.4341 332.9259)" width="2" height="11.2"/>
	<rect x="553.6" y="133.2" transform="matrix(0.8191 -0.5736 0.5736 0.8191 20.6855 343.2367)" width="2" height="11.2"/>
	<polygon points="547.4,142.8 549.2,142.8 549.6,142.8 551.6,142.8 545.2,133.7 543.6,134.8 547.8,140.8 546,140.8 543.6,140.8 
		544.9,142.6 546,144.2 550.6,150.8 552.2,149.7 547.6,143.1 	"/>
</g>
<g>
	<g>
		<path d="M150.5,208.2c-1.6-7.4-8.2-13-16.1-13c-6.4,0-12,3.7-14.7,9c-0.3,0-0.5,0-0.8,0c-6.6,0-12,5.4-12,12c0,6.6,5.3,12,11.9,12
			v0h2.1v-2h-1.6l-0.4,0c-5.5,0-9.9-4.5-9.9-10c0-5.5,4.5-10,10-10c0.2,0,0.3,0,0.5,0l0.1,0l1.3,0.1l0.6-1.2
			c2.5-4.9,7.4-7.9,12.9-7.9c6.8,0,12.8,4.8,14.2,11.4l0.3,1.5l1.5,0.1c4.2,0.3,7.5,3.8,7.5,8c0,4.4-3.6,8-8,8c-0.1,0-0.1,0-0.1,0
			l-2,0h-2.9v2h4.9v0c0,0,0.1,0,0.1,0c5.5,0,10-4.5,10-10C159.9,212.8,155.8,208.5,150.5,208.2z"/>
	</g>
	<g>
		<circle cx="125.4" cy="221.7" r="1.5"/>
	</g>
	<g>
		<circle cx="129.4" cy="227.6" r="1.5"/>
	</g>
	<g>
		<circle cx="137.4" cy="227.6" r="1.5"/>
	</g>
	<g>
		<circle cx="133.4" cy="221.7" r="1.5"/>
	</g>
	<g>
		<circle cx="141.4" cy="221.7" r="1.5"/>
	</g>
	<g>
		<circle cx="125.4" cy="233.7" r="1.5"/>
	</g>
	<g>
		<circle cx="133.4" cy="233.7" r="1.5"/>
	</g>
	<g>
		<circle cx="141.4" cy="233.7" r="1.5"/>
	</g>
</g>
<g>
	<g>
		<rect x="226.3" y="192.7" width="2" height="8"/>
	</g>
	<g>
		<rect x="207.3" y="211.6" width="8" height="2"/>
	</g>
	<g>
		<rect x="215" y="197.4" transform="matrix(0.7071 -0.7071 0.7071 0.7071 -79.1152 211.7006)" width="2" height="8"/>
	</g>
	<g>
		<rect x="234.5" y="200.4" transform="matrix(0.7071 -0.7071 0.7071 0.7071 -72.5217 227.627)" width="8" height="2"/>
	</g>
	<g>
		<path d="M256.8,218.5c-1.4-6.7-7.4-11.8-14.6-11.8c-2.2,0-4.3,0.5-6.1,1.3c-1.7-3.2-5-5.4-8.9-5.4c-5.5,0-10,4.5-10,10
			c0,2.5,0.9,4.7,2.4,6.4c-1.4,1.8-2.3,4.1-2.3,6.7c0,6,4.8,10.8,10.8,10.9v0h1.2v-2h-0.7l-0.5,0c-4.9,0-8.8-4-8.8-8.9
			c0-4.9,4-8.9,8.9-8.9c0.1,0,0.3,0,0.4,0l0.1,0l1.3,0.1l0.6-1.2c2.2-4.4,6.6-7.1,11.5-7.1c6.1,0,11.4,4.3,12.6,10.2l0.3,1.5
			l1.5,0.1c3.7,0.2,6.6,3.3,6.6,7c0,3.9-3.1,7-7,7.1c0,0-0.1,0-0.1,0l-2,0h-1.8v2h3.8v0c0,0,0.1,0,0.1,0c5,0,9.1-4.1,9.1-9.1
			C265.3,222.7,261.6,218.8,256.8,218.5z M228.9,214.9c-0.2,0-0.5,0-0.7,0c-2.8,0-5.3,1-7.2,2.7c-1.1-1.4-1.8-3.1-1.8-5
			c0-4.4,3.6-8,8-8c3.1,0,5.8,1.8,7.1,4.3C232,210.4,230.2,212.4,228.9,214.9z"/>
	</g>
	<g>
		<circle cx="232.8" cy="230.1" r="1.5"/>
	</g>
	<g>
		<circle cx="236.8" cy="236.1" r="1.5"/>
	</g>
	<g>
		<circle cx="244.8" cy="236.1" r="1.5"/>
	</g>
	<g>
		<circle cx="240.8" cy="230.1" r="1.5"/>
	</g>
	<g>
		<circle cx="248.8" cy="230.1" r="1.5"/>
	</g>
	<g>
		<circle cx="232.8" cy="242.1" r="1.5"/>
	</g>
	<g>
		<circle cx="240.8" cy="242.1" r="1.5"/>
	</g>
	<g>
		<circle cx="248.8" cy="242.1" r="1.5"/>
	</g>
</g>
<g>
	<g>
		<path d="M352.8,214.5c-1.4-6.7-7.4-11.8-14.6-11.8c-1.8,0-3.5,0.3-5.1,0.9c-0.9-5.1-5.4-9-10.8-9c-0.4,0-0.8,0-1.2,0.1
			c0.7,1.1,1.2,2.4,1.2,3.9c0,3.9-3.1,7-7,7c-1.4,0-2.8-0.4-3.9-1.2c0,0.4-0.1,0.8-0.1,1.2c0,3.7,1.8,7,4.7,9
			c-1.7,1.9-2.7,4.4-2.7,7.1c0,6,4.8,10.8,10.8,10.9v0h1.2v-2h-0.7l-0.5,0c-4.9,0-8.8-4-8.8-8.9c0-4.9,4-8.9,8.9-8.9
			c0.1,0,0.3,0,0.4,0l0.1,0l1.3,0.1l0.6-1.2c2.2-4.4,6.6-7.1,11.5-7.1c6.1,0,11.4,4.3,12.6,10.2l0.3,1.5l1.5,0.1
			c3.7,0.2,6.6,3.3,6.6,7c0,3.9-3.1,7-7,7.1c0,0-0.1,0-0.1,0l-2,0h-1.8v2h3.8v0c0,0,0.1,0,0.1,0c5,0,9.1-4.1,9.1-9.1
			C361.3,218.8,357.5,214.8,352.8,214.5z M324.9,210.9c-0.2,0-0.5,0-0.7,0c-2.5,0-4.9,0.9-6.7,2.3c-2-1.3-3.5-3.4-4-5.8
			c0.6,0.1,1.2,0.2,1.8,0.2c5,0,9-4,9-9c0-0.6-0.1-1.2-0.2-1.8c3.7,0.8,6.6,3.8,7.1,7.6C328.5,205.9,326.3,208.2,324.9,210.9z"/>
	</g>
	<g>
		<circle cx="328.8" cy="226.1" r="1.5"/>
	</g>
	<g>
		<circle cx="332.8" cy="232.1" r="1.5"/>
	</g>
	<g>
		<circle cx="340.8" cy="232.1" r="1.5"/>
	</g>
	<g>
		<circle cx="336.8" cy="226.1" r="1.5"/>
	</g>
	<g>
		<circle cx="344.8" cy="226.1" r="1.5"/>
	</g>
	<g>
		<circle cx="328.8" cy="238.2" r="1.5"/>
	</g>
	<g>
		<circle cx="336.8" cy="238.2" r="1.5"/>
	</g>
	<g>
		<circle cx="344.8" cy="238.2" r="1.5"/>
	</g>
</g>
<g>
	<path d="M664,115.7c-1.6-7.4-8.2-13-16.1-13c-6.4,0-12,3.7-14.7,9c-0.3,0-0.5,0-0.8,0c-6.6,0-12,5.4-12,12c0,6.6,5.3,12,11.9,12v0
		h2.1v-2h-1.6l-0.4,0c-5.5,0-9.9-4.5-9.9-10c0-5.5,4.5-10,10-10c0.2,0,0.3,0,0.5,0l0.1,0l1.3,0.1l0.6-1.2c2.5-4.9,7.4-7.9,12.9-7.9
		c6.8,0,12.8,4.8,14.2,11.4l0.3,1.5l1.5,0.1c4.2,0.3,7.5,3.8,7.5,8c0,4.4-3.6,8-8,8c0,0-0.1,0-0.1,0l-2,0h-2.9v2h4.9v0
		c0,0,0.1,0,0.1,0c5.5,0,10-4.5,10-10C673.3,120.3,669.2,116,664,115.7z"/>
	<circle cx="638.3" cy="143.1" r="1.5"/>
	<circle cx="646.3" cy="149.1" r="1.5"/>
	<circle cx="654.3" cy="145.1" r="1.5"/>
	<rect x="637.3" y="126.6" width="2" height="12"/>
	<polygon points="647.3,144.6 647.3,142.6 647.3,130.6 645.3,130.6 645.3,142.6 645.3,144.6 645.3,144.6 647.3,144.6 	"/>
	<polygon points="655.3,140.4 655.3,138.6 655.3,126.6 653.3,126.6 653.3,138.6 653.3,140.4 653.3,140.6 655.3,140.6 	"/>
</g>
<g>
	<rect x="-84.4" y="187.3" width="2" height="8"/>
	<rect x="-103.4" y="206.2" width="8" height="2"/>
	<rect x="-95.8" y="191.9" transform="matrix(0.7071 -0.7071 0.7071 0.7071 -166.2864 -9.6227)" width="2" height="8"/>
	<rect x="-76.2" y="194.9" transform="matrix(0.7071 -0.7071 0.7071 0.7071 -159.693 6.3037)" width="8" height="2"/>
	<path d="M-53.9,213.1c-1.4-6.7-7.4-11.8-14.6-11.8c-2.2,0-4.3,0.5-6.1,1.3c-1.7-3.2-5-5.4-8.9-5.4c-5.5,0-10,4.5-10,10
		c0,2.5,0.9,4.7,2.4,6.4c-1.4,1.8-2.3,4.1-2.3,6.7c0,6,4.8,10.8,10.8,10.9v0h1.2v-2h-0.7l-0.5,0c-4.9,0-8.8-4-8.8-8.9
		c0-4.9,4-8.9,8.9-8.9c0.2,0,0.3,0,0.4,0l0.1,0l1.3,0.1l0.6-1.2c2.2-4.4,6.6-7.1,11.5-7.1c6.1,0,11.4,4.3,12.6,10.2l0.3,1.5l1.5,0.1
		c3.7,0.2,6.6,3.3,6.6,7c0,3.9-3.1,7-7,7.1c0,0-0.1,0-0.1,0l-2,0h-0.8v2h2.8v0c0,0,0.1,0,0.1,0c5,0,9.1-4.1,9.1-9.1
		C-45.4,217.3-49.2,213.4-53.9,213.1z M-81.8,209.4c-0.2,0-0.5,0-0.7,0c-2.8,0-5.3,1-7.2,2.7c-1.1-1.4-1.8-3.1-1.8-5
		c0-4.4,3.6-8,8-8c3.1,0,5.8,1.8,7.1,4.3C-78.7,205-80.6,207-81.8,209.4z"/>
	<circle cx="-77.4" cy="239.6" r="1.5"/>
	<circle cx="-69.4" cy="245.6" r="1.5"/>
	<circle cx="-61.4" cy="241.6" r="1.5"/>
	<rect x="-78.4" y="223.2" width="2" height="12"/>
	<polygon points="-68.4,241.1 -68.4,239.2 -68.4,227.2 -70.4,227.2 -70.4,239.2 -70.4,241.1 -70.4,241.1 -68.4,241.1 	"/>
	<polygon points="-60.4,236.9 -60.4,235.2 -60.4,223.2 -62.4,223.2 -62.4,235.2 -62.4,236.9 -62.4,237.1 -60.4,237.1 	"/>
</g>
<g>
	<path d="M46.7,210.1c-1.4-6.7-7.4-11.8-14.6-11.8c-1.8,0-3.5,0.3-5.1,0.9c-0.9-5.1-5.4-9-10.8-9c-0.4,0-0.8,0-1.2,0.1
		c0.7,1.1,1.2,2.4,1.2,3.9c0,3.9-3.1,7-7,7c-1.4,0-2.8-0.4-3.9-1.2c0,0.4-0.1,0.8-0.1,1.2c0,3.7,1.8,7,4.7,9
		c-1.7,1.9-2.7,4.4-2.7,7.1c0,6,4.8,10.8,10.8,10.9v0h1.2v-2h-0.7l-0.5,0c-4.9,0-8.8-4-8.8-8.9c0-4.9,4-8.9,8.9-8.9
		c0.1,0,0.3,0,0.4,0l0.1,0l1.3,0.1l0.6-1.2c2.2-4.4,6.6-7.1,11.5-7.1c6.1,0,11.4,4.3,12.6,10.2l0.3,1.5l1.5,0.1
		c3.7,0.2,6.6,3.3,6.6,7c0,3.9-3.1,7-7,7.1c0,0-0.1,0-0.1,0l-2,0h-0.8v2H46v0c0,0,0.1,0,0.1,0c5,0,9.1-4.1,9.1-9.1
		C55.2,214.3,51.4,210.4,46.7,210.1z M18.8,206.4c-0.2,0-0.5,0-0.7,0c-2.5,0-4.9,0.9-6.7,2.3c-2-1.3-3.5-3.4-4-5.8
		c0.6,0.1,1.2,0.2,1.8,0.2c5,0,9-4,9-9c0-0.6-0.1-1.2-0.2-1.8c3.7,0.8,6.6,3.8,7.1,7.6C22.4,201.4,20.2,203.7,18.8,206.4z"/>
	<circle cx="23.2" cy="236.6" r="1.5"/>
	<circle cx="31.2" cy="242.6" r="1.5"/>
	<circle cx="39.2" cy="238.6" r="1.5"/>
	<rect x="22.2" y="220.2" width="2" height="12"/>
	<polygon points="32.2,238.1 32.2,236.2 32.2,224.2 30.2,224.2 30.2,236.2 30.2,238.1 30.2,238.1 32.2,238.1 	"/>
	<polygon points="40.2,233.9 40.2,232.2 40.2,220.2 38.2,220.2 38.2,232.2 38.2,233.9 38.2,234.1 40.2,234.1 	"/>
</g>
<g>
	<rect x="-101.4" y="314.5" width="56" height="2"/>
	<rect x="-97.4" y="320.5" width="50" height="2"/>
	<rect x="-91.4" y="326.5" width="36" height="2"/>
	<rect x="-99.4" y="308.5" width="52" height="2"/>
	<path d="M-87.5,300.5c0.2,0,0.3,0,0.5,0l0.1,0l1.3,0.1l0.6-1.2c2.5-4.9,7.4-7.9,12.9-7.9c6.8,0,12.8,4.8,14.2,11.4l0.3,1.5l1.5,0.1
		c1.2,0.1,2.3,0.4,3.3,1h3.3c-1.7-1.7-4-2.8-6.5-3c-1.6-7.4-8.2-13-16.1-13c-6.4,0-12,3.7-14.7,9c-0.3,0-0.5,0-0.8,0
		c-4.8,0-9,2.9-10.9,7h2.3C-94.5,302.5-91.2,300.5-87.5,300.5z"/>
</g>
<g>
	<rect x="19.7" y="287" width="2" height="8"/>
	<rect x="0.7" y="305.9" width="8" height="2"/>
	<rect x="8.3" y="291.6" transform="matrix(0.7071 -0.7071 0.7071 0.7071 -206.306 93.1954)" width="2" height="8"/>
	<rect x="27.9" y="294.6" transform="matrix(0.7071 -0.7071 0.7071 0.7071 -199.7122 109.1211)" width="8" height="2"/>
	<rect x="9.7" y="320.9" width="50" height="2"/>
	<rect x="13.7" y="326.9" width="44" height="2"/>
	<rect x="19.7" y="331.9" width="30" height="2"/>
	<rect x="11.7" y="314.9" width="46" height="2"/>
	<path d="M12.6,312.9h0.8h1.9h1c1.5-1.1,3.3-1.7,5.2-1.7c0.1,0,0.3,0,0.4,0l0.1,0l1.3,0.1l0.6-1.2c2.2-4.4,6.6-7.1,11.5-7.1
		c5.9,0,11.2,4.1,12.6,9.9h2v-0.1C48.7,306,42.8,301,35.6,301c-2.2,0-4.3,0.5-6.1,1.3c-1.7-3.2-5-5.4-8.9-5.4c-5.5,0-10,4.5-10,10
		C10.6,309.1,11.3,311.2,12.6,312.9z M20.6,298.9c3.1,0,5.8,1.8,7.1,4.3c-2.3,1.4-4.2,3.5-5.4,5.9c-0.2,0-0.5,0-0.7,0
		c-2.8,0-5.3,1-7.2,2.7c-1.1-1.4-1.8-3.1-1.8-5C12.6,302.5,16.2,298.9,20.6,298.9z"/>
</g>
<g>
	<rect x="108.4" y="317.4" width="50" height="2"/>
	<rect x="112.4" y="323.4" width="44" height="2"/>
	<rect x="118.4" y="328.4" width="30" height="2"/>
	<rect x="110.4" y="311.4" width="46" height="2"/>
	<path d="M112.1,309.4L112.1,309.4h1.9h1.1c1.5-1.1,3.3-1.7,5.2-1.7c0.2,0,0.3,0,0.4,0l0.1,0l1.3,0.1l0.6-1.2
		c2.2-4.4,6.6-7.1,11.5-7.1c5.9,0,11.2,4.1,12.6,9.9h2v-0.1c-1.4-6.7-7.4-11.8-14.6-11.8c-1.8,0-3.5,0.3-5.1,0.9
		c-0.9-5.1-5.4-9-10.8-9c-0.4,0-0.8,0-1.2,0.1c0.7,1.1,1.2,2.4,1.2,3.9c0,3.9-3.1,7-7,7c-1.4,0-2.8-0.4-3.9-1.2
		c0,0.4-0.1,0.8-0.1,1.2C107.4,304.2,109.3,307.4,112.1,309.4z M111.4,302.4c5,0,9-4,9-9c0-0.6-0.1-1.2-0.2-1.8
		c3.7,0.8,6.6,3.8,7.1,7.6c-2.7,1.4-4.9,3.7-6.3,6.4c-0.2,0-0.5,0-0.7,0c-2.5,0-4.9,0.9-6.7,2.3c-2-1.3-3.5-3.4-4-5.8
		C110.2,302.4,110.8,302.4,111.4,302.4z"/>
</g>
<g>
	<path d="M240.3,320.4h-19.5l-0.6,0c-5.5,0-9.9-4.5-9.9-10c0-5.5,4.5-10,10-10c0.2,0,0.3,0,0.5,0l0.1,0l1.3,0.1l0.6-1.2
		c2.5-4.9,7.4-7.9,12.9-7.9c6.8,0,12.8,4.8,14.2,11.4l0.3,1.5l1.5,0.1c1.8,0.1,3.5,0.8,4.7,2h2.7c-1.7-2.3-4.3-3.8-7.4-4
		c-1.6-7.4-8.2-13-16.1-13c-6.4,0-12,3.7-14.7,9c-0.3,0-0.5,0-0.8,0c-6.6,0-12,5.4-12,12c0,6.6,5.3,12,11.9,12v0h20.1
		c2.2,0,4,1.8,4,4s-1.8,4-4,4v2c3.3,0,6-2.7,6-6C246.3,323.1,243.6,320.4,240.3,320.4z"/>
	<path d="M244.3,316.4h-16v2h16c3.3,0,6-2.7,6-6c0-3.3-2.7-6-6-6v2c2.2,0,4,1.8,4,4S246.5,316.4,244.3,316.4z"/>
	<path d="M257.3,310.4c1.7,0,3,1.3,3,3s-1.3,3-3,3c0,0-0.1,0-0.1,0h-4.9c0,0,0,0,0,0h0v2h5.5v-0.1c2.5-0.3,4.5-2.4,4.5-4.9
		c0-2.8-2.2-5-5-5L257.3,310.4L257.3,310.4z"/>
	<path d="M261.3,320.4h-13v2h9c0,0,0,0,0,0h3.9c0,0,0.1,0,0.1,0c1.7,0,3,1.3,3,3s-1.3,3-3,3v2c2.8,0,5-2.2,5-5
		S264.1,320.4,261.3,320.4z"/>
	<rect x="222.3" y="316.4" width="4" height="2"/>
</g>
<path d="M32.8-78.7c7,1.3,12.2,7.4,12.2,14.7c0,8.3-6.7,15-15,15c-6.8,0-12.5-4.5-14.4-10.7C17-59.2,18.5-59,20-59
	c7.7,0,14-6.3,14-14C34-74.9,33.6-76.9,32.8-78.7 M30-80.9c-0.3,0-0.7,0-1,0.1c1.9,2.1,3,4.9,3,7.9c0,6.6-5.4,12-12,12
	c-2.6,0-5-0.8-7-2.2c0.4,9,7.8,16.3,17,16.3c9.4,0,17-7.6,17-17S39.4-80.9,30-80.9L30-80.9z"/>
<g>
	<path d="M-73.4-75.9c-7.2,0-13,5.8-13,13c0,7.2,5.8,13,13,13s13-5.8,13-13C-60.4-70.1-66.2-75.9-73.4-75.9z M-73.4-51.9
		c-6.1,0-11-4.9-11-11c0-6.1,4.9-11,11-11s11,4.9,11,11C-62.4-56.9-67.3-51.9-73.4-51.9z"/>
	<rect x="-74.4" y="-88.9" width="2" height="10"/>
	<rect x="-74.4" y="-46.9" width="2" height="10"/>
	<rect x="-99.4" y="-63.9" width="10" height="2"/>
	<rect x="-57.4" y="-63.9" width="10" height="2"/>
	<rect x="-63.9" y="-78.6" transform="matrix(0.7071 -0.7071 0.7071 0.7071 37.6954 -64.2601)" width="10.4" height="2"/>
	<rect x="-93.3" y="-49.2" transform="matrix(0.7071 -0.7071 0.7071 0.7071 8.2876 -76.4421)" width="10.4" height="2"/>
	<rect x="-89.1" y="-82.8" transform="matrix(0.7071 -0.7071 0.7071 0.7071 29.0792 -85.0507)" width="2" height="10.4"/>
	<rect x="-59.7" y="-53.4" transform="matrix(0.7071 -0.7072 0.7072 0.7071 16.8949 -55.6454)" width="2" height="10.4"/>
</g>
<g>
	<rect x="324.8" y="281.9" width="2" height="8"/>
	<rect x="305.8" y="300.9" width="8" height="2"/>
	<rect x="313.5" y="286.7" transform="matrix(0.7071 -0.7071 0.7071 0.7071 -113.4439 307.5237)" width="2" height="8"/>
	<rect x="333" y="289.7" transform="matrix(0.7071 -0.7071 0.7071 0.7071 -106.8504 323.4501)" width="8" height="2"/>
	<path d="M339.8,323.9L339.8,323.9l-12.5,0l-0.6,0c-4.9,0-8.8-4-8.8-8.9c0-4.9,4-8.9,8.9-8.9c0.1,0,0.3,0,0.4,0l0.1,0l1.3,0.1
		l0.6-1.2c2.2-4.4,6.6-7.1,11.5-7.1c5.9,0,11.1,4.1,12.5,9.8h2.1c-1.4-6.7-7.4-11.8-14.6-11.8c-2.2,0-4.3,0.5-6.1,1.3
		c-1.7-3.2-5-5.4-8.9-5.4c-5.5,0-10,4.5-10,10c0,2.5,0.9,4.7,2.4,6.4c-1.4,1.8-2.3,4.1-2.3,6.7c0,6,4.8,10.8,10.8,10.9v0h13.1v0
		c2.2,0,4,1.8,4,4s-1.8,4-4,4v2c3.3,0,6-2.7,6-6C345.8,326.6,343.1,323.9,339.8,323.9z M325.7,294c3.1,0,5.8,1.8,7.1,4.3
		c-2.3,1.4-4.2,3.5-5.4,5.9c-0.2,0-0.5,0-0.7,0c-2.8,0-5.3,1-7.2,2.7c-1.1-1.4-1.8-3.1-1.8-5C317.7,297.6,321.3,294,325.7,294z"/>
	<path d="M343.8,319.9h-10v2h10c3.3,0,6-2.7,6-6c0-3.3-2.7-6-6-6v2c2.2,0,4,1.8,4,4S346,319.9,343.8,319.9z"/>
	<path d="M351.8,319.9L351.8,319.9l0,2h5.5v-0.1c2.5-0.3,4.5-2.4,4.5-4.9c0-2.8-2.2-5-5-5v2c1.7,0,3,1.3,3,3s-1.3,3-3,3
		c0,0-0.1,0-0.1,0L351.8,319.9C351.8,319.9,351.8,319.9,351.8,319.9z"/>
	<path d="M360.8,323.9h-13v2h9c0,0,0,0,0,0h3.9c0,0,0.1,0,0.1,0c1.7,0,3,1.3,3,3s-1.3,3-3,3v2c2.8,0,5-2.2,5-5
		S363.5,323.9,360.8,323.9z"/>
	<rect x="327.8" y="319.9" width="4" height="2"/>
</g>
<g>
	<path d="M439.7,321.9L439.7,321.9l-12.5,0l-0.6,0c-4.9,0-8.8-4-8.8-8.9c0-4.9,4-8.9,8.9-8.9c0.1,0,0.3,0,0.4,0l0.1,0l1.3,0.1
		l0.6-1.2c2.2-4.4,6.6-7.1,11.5-7.1c5.9,0,11.1,4.1,12.5,9.8h2.1c-1.4-6.7-7.4-11.8-14.6-11.8c-1.8,0-3.5,0.3-5.1,0.9
		c-0.9-5.1-5.4-9-10.8-9c-0.4,0-0.8,0-1.2,0.1c0.7,1.1,1.2,2.4,1.2,3.9c0,3.9-3.1,7-7,7c-1.4,0-2.8-0.4-3.9-1.2
		c0,0.4-0.1,0.8-0.1,1.2c0,3.7,1.9,7,4.7,9c-1.7,1.9-2.7,4.4-2.7,7.1c0,6,4.8,10.8,10.8,10.9v0h13.1v0c2.2,0,4,1.8,4,4s-1.8,4-4,4v2
		c3.3,0,6-2.7,6-6C445.7,324.6,443.1,321.9,439.7,321.9z M415.9,298.7c0.6,0.1,1.2,0.2,1.8,0.2c5,0,9-4,9-9c0-0.6-0.1-1.2-0.2-1.8
		c3.7,0.8,6.6,3.8,7.1,7.7c-2.7,1.4-4.9,3.7-6.3,6.4c-0.2,0-0.5,0-0.7,0c-2.5,0-4.9,0.9-6.7,2.3
		C417.9,303.2,416.4,301.2,415.9,298.7z"/>
	<path d="M443.7,317.9h-10v2h10c3.3,0,6-2.7,6-6c0-3.3-2.7-6-6-6v2c2.2,0,4,1.8,4,4S445.9,317.9,443.7,317.9z"/>
	<path d="M451.8,317.9L451.8,317.9l0,2h5.5v-0.1c2.5-0.3,4.5-2.4,4.5-4.9c0-2.8-2.2-5-5-5v2c1.7,0,3,1.3,3,3s-1.3,3-3,3
		c0,0-0.1,0-0.1,0L451.8,317.9C451.8,317.9,451.8,317.9,451.8,317.9z"/>
	<path d="M460.7,321.9h-13v2h9c0,0,0,0,0,0h3.9c0,0,0.1,0,0.1,0c1.7,0,3,1.3,3,3s-1.3,3-3,3v2c2.8,0,5-2.2,5-5
		S463.5,321.9,460.7,321.9z"/>
	<rect x="427.7" y="317.9" width="4" height="2"/>
</g>
<g>
	<rect x="540.6" y="284.5" width="2" height="10"/>
	<rect x="515.6" y="309.5" width="10" height="2"/>
	<rect x="551.1" y="294.8" transform="matrix(0.7071 -0.7071 0.7071 0.7071 -46.2057 480.0197)" width="10.4" height="2"/>
	<rect x="525.9" y="290.6" transform="matrix(0.7071 -0.7071 0.7071 0.7071 -54.822 459.2289)" width="2" height="10.4"/>
	<path d="M545.6,324.5h-24v2h24c2.2,0,4,1.8,4,4s-1.8,4-4,4v2c3.3,0,6-2.7,6-6C551.6,327.2,548.9,324.5,545.6,324.5z"/>
	<path d="M557.7,320.5L557.7,320.5l0,2h5.5v-0.1c2.5-0.3,4.5-2.4,4.5-4.9c0-2.8-2.2-5-5-5v2c1.7,0,3,1.3,3,3s-1.3,3-3,3
		c0,0-0.1,0-0.1,0L557.7,320.5C557.6,320.5,557.7,320.5,557.7,320.5z"/>
	<path d="M566.6,324.5h-13v2h9c0,0,0,0,0,0h3.9c0,0,0.1,0,0.1,0c1.7,0,3,1.3,3,3s-1.3,3-3,3v2c2.8,0,5-2.2,5-5
		S569.4,324.5,566.6,324.5z"/>
	<path d="M533.3,320.5h-11.7v2h12h0.8h15.2c3.3,0,6-2.7,6-6c0-3.3-2.7-6-6-6v2c2.2,0,4,1.8,4,4s-1.8,4-4,4h-12.5
		c-3.8-1.7-6.5-5.6-6.5-10c0-6.1,4.9-11,11-11c5.4,0,9.9,3.9,10.8,9h2c-1-6.2-6.3-11-12.8-11c-7.2,0-13,5.8-13,13
		C528.6,314.5,530.5,318.1,533.3,320.5z"/>
</g>
<g>
	<path d="M645.9,317.9h-24v2h24c2.2,0,4,1.8,4,4s-1.8,4-4,4v2c3.3,0,6-2.7,6-6C651.9,320.6,649.2,317.9,645.9,317.9z"/>
	<path d="M663.4,315.9L663.4,315.9c2.5-0.3,4.5-2.4,4.5-5c0-2.8-2.2-5-5-5v2c1.7,0,3,1.3,3,3s-1.3,3-3,3c0,0-0.1,0-0.1,0h-4.9
		c0,0,0,0,0,0h0v2H663.4z"/>
	<path d="M666.9,317.9h-13v2h9c0,0,0,0,0,0h3.9c0,0,0.1,0,0.1,0c1.7,0,3,1.3,3,3s-1.3,3-3,3v2c2.8,0,5-2.2,5-5
		S669.6,317.9,666.9,317.9z"/>
	<path d="M634.7,315.9h15.2c3.3,0,6-2.7,6-6c0-3.3-2.7-6-6-6v2c2.2,0,4,1.8,4,4s-1.8,4-4,4h-12.6c-2.6-1.2-4.7-3.3-5.7-6
		c0.8,0.2,1.7,0.3,2.6,0.3c6.2,0,11.2-5,11.2-11.2c0-1.3-0.2-2.5-0.6-3.7c4,1.1,7.2,4.5,7.9,8.6h2c-1-6.2-6.3-11-12.8-11
		c-0.3,0-0.5,0-0.8,0c1.4,1.6,2.3,3.7,2.3,6.1c0,5.1-4.1,9.2-9.2,9.2c-2,0-3.8-0.6-5.3-1.7c0.2,3.8,2,7.2,4.7,9.4h-11.7v2h12
		L634.7,315.9L634.7,315.9z"/>
</g>
<g>
	<path d="M-73.9,403.1h-20c-1.1,0-2-0.9-2-2s0.9-2,2-2h3.4h0.6v-2h-4c-2.2,0-4,1.8-4,4s1.8,4,4,4h20c2.2,0,4,1.8,4,4s-1.8,4-4,4v2
		c3.3,0,6-2.7,6-6S-70.6,403.1-73.9,403.1z"/>
	<path d="M-71.9,387.1v2c2.2,0,4,1.8,4,4s-1.8,4-4,4h-16v2h16c3.3,0,6-2.7,6-6C-65.9,389.8-68.6,387.1-71.9,387.1z"/>
	<path d="M-65.9,399.1v2h5.5v-0.1c2.5-0.3,4.5-2.4,4.5-4.9c0-2.8-2.2-5-5-5v2c1.7,0,3,1.3,3,3s-1.3,3-3,3c0,0-0.1,0-0.1,0
		L-65.9,399.1C-65.9,399.1-65.9,399.1-65.9,399.1L-65.9,399.1z"/>
	<path d="M-54.9,403.1h-11v2h7c0,0,0,0,0,0h3.9c0,0,0.1,0,0.1,0c1.7,0,3,1.3,3,3s-1.3,3-3,3v2c2.8,0,5-2.2,5-5
		S-52.2,403.1-54.9,403.1z"/>
</g>
<path d="M462.4,389.5L462.4,389.5l-38.4,0c-1.1,0-2-0.9-2-2s0.9-2,2-2h33c2.8,0,5-2.2,5-5s-2.2-5-5-5h-37.9v0c0,0-0.1,0-0.1,0
	c-2.8,0-5,2.2-5,5s2.2,5,5,5v-2c-1.7,0-3-1.3-3-3s1.3-3,3-3h0.1h3.9h34c1.7,0,3,1.3,3,3s-1.3,3-3,3h-33c-2.2,0-4,1.8-4,4s1.8,4,4,4
	h38c1.1,0,2,0.9,2,2s-0.9,2-2,2h-32c-2.2,0-4,1.8-4,4s1.8,4,4,4h22c1.1,0,2,0.9,2,2s-0.9,2-2,2h-24v0c-2.2,0-4,1.8-4,4s1.8,4,4,4v0
	h12c1.1,0,2,0.9,2,2s-0.9,2-2,2h-2c-2.2,0-4,1.8-4,4s1.8,4,4,4v-2c-1.1,0-2-0.9-2-2s0.9-2,2-2h2c2.2,0,4-1.8,4-4s-1.8-4-4-4h-12
	c-1.1,0-2-0.9-2-2s0.9-2,2-2h24c2.2,0,4-1.8,4-4c0-2.2-1.7-3.9-3.8-4v0H430c-1.1,0-2-0.9-2-2s0.9-2,2-2h32c2.2,0,4-1.8,4-4
	C466,391.4,464.4,389.7,462.4,389.5z"/>
<path d="M647.8,380.2v-2h-2v2c-13,0.5-23.5,11-24,24h1.7c1.1-1.2,2.7-2,4.6-2c2.3,0,4.2,1.2,5.3,3h1.8c1.1-1.8,3.1-3,5.3-3
	c2.2,0,4.1,1.1,5.2,2.9v15.1c0,2.2,1.8,4,4,4s4-1.8,4-4h-2c0,1.1-0.9,2-2,2s-2-0.9-2-2V405c1.1-1.7,3-2.9,5.2-2.9
	c2.3,0,4.2,1.2,5.3,3h1.8c1.1-1.8,3.1-3,5.3-3c1.8,0,3.4,0.8,4.6,2h1.7C671.2,391.1,660.8,380.7,647.8,380.2z M665.5,400.1
	c-2.5,0-4.7,1.1-6.2,2.9c-1.5-1.8-3.8-2.9-6.2-2.9s-4.7,1.1-6.2,2.9c-1.5-1.8-3.8-2.9-6.2-2.9s-4.7,1.1-6.2,2.9
	c-1.5-1.8-3.8-2.9-6.2-2.9c-1.4,0-2.7,0.4-3.9,1c1.9-10.8,11.3-19,22.6-19s20.7,8.2,22.6,19C668.3,400.5,666.9,400.1,665.5,400.1z"
	/>
<g>
	<path d="M242.5,504.4v-17.1c0-2.8-2.2-5-5-5s-5,2.2-5,5v17.1c-1.2,1.3-2,3-2,4.9c0,3.9,3.1,7,7,7s7-3.1,7-7
		C244.5,507.4,243.7,505.7,242.5,504.4z M237.5,514.3c-2.8,0-5-2.2-5-5c0-1.3,0.5-2.6,1.4-3.5l0.6-0.6v-0.8v-17.1c0-1.7,1.3-3,3-3
		s3,1.3,3,3v17.1v0.8l0.6,0.6c0.9,0.9,1.4,2.2,1.4,3.5C242.5,512.1,240.2,514.3,237.5,514.3z"/>
	<path d="M238.5,506.5v-15.2h-2v15.2c-1.2,0.4-2,1.5-2,2.8c0,1.7,1.3,3,3,3c1.7,0,3-1.3,3-3C240.5,508,239.7,506.9,238.5,506.5z
		 M237.5,510.4c-0.6,0-1-0.5-1-1s0.5-1,1-1s1,0.5,1,1S238,510.4,237.5,510.4z"/>
</g>
<g>
	<path d="M342.3,504.4v-17.1c0-2.8-2.2-5-5-5s-5,2.2-5,5v17.1c-1.2,1.3-2,3-2,4.9c0,3.9,3.1,7,7,7s7-3.1,7-7
		C344.3,507.4,343.5,505.7,342.3,504.4z M337.3,514.3c-2.8,0-5-2.2-5-5c0-1.3,0.5-2.6,1.4-3.5l0.6-0.6v-0.8v-17.1c0-1.7,1.3-3,3-3
		s3,1.3,3,3v17.1v0.8l0.6,0.6c0.9,0.9,1.4,2.2,1.4,3.5C342.3,512.1,340,514.3,337.3,514.3z"/>
	<path d="M338.3,506.5v-20.2h-2v20.2c-1.2,0.4-2,1.5-2,2.8c0,1.7,1.3,3,3,3c1.7,0,3-1.3,3-3C340.3,508,339.4,506.9,338.3,506.5z
		 M337.3,510.4c-0.6,0-1-0.5-1-1s0.5-1,1-1s1,0.5,1,1S337.8,510.4,337.3,510.4z"/>
</g>
<g>
	<path d="M139.4,504.4v-17.1c0-2.8-2.2-5-5-5s-5,2.2-5,5v17.1c-1.2,1.3-2,3-2,4.9c0,3.9,3.1,7,7,7s7-3.1,7-7
		C141.4,507.4,140.6,505.7,139.4,504.4z M134.4,514.3c-2.8,0-5-2.2-5-5c0-1.3,0.5-2.6,1.4-3.5l0.6-0.6v-0.8v-17.1c0-1.7,1.3-3,3-3
		s3,1.3,3,3v17.1v0.8l0.6,0.6c0.9,0.9,1.4,2.2,1.4,3.5C139.4,512.1,137.1,514.3,134.4,514.3z"/>
	<path d="M135.4,506.5v-10.2h-2v10.2c-1.2,0.4-2,1.5-2,2.8c0,1.7,1.3,3,3,3c1.7,0,3-1.3,3-3C137.4,508,136.6,506.9,135.4,506.5z
		 M134.4,510.4c-0.6,0-1-0.5-1-1s0.5-1,1-1s1,0.5,1,1S134.9,510.4,134.4,510.4z"/>
</g>
<g>
	<path d="M35.7,504.4v-17.1c0-2.8-2.2-5-5-5s-5,2.2-5,5v17.1c-1.2,1.3-2,3-2,4.9c0,3.9,3.1,7,7,7s7-3.1,7-7
		C37.7,507.4,37,505.7,35.7,504.4z M30.7,514.3c-2.8,0-5-2.2-5-5c0-1.3,0.5-2.6,1.4-3.5l0.6-0.6v-0.8v-17.1c0-1.7,1.3-3,3-3
		s3,1.3,3,3v17.1v0.8l0.6,0.6c0.9,0.9,1.4,2.2,1.4,3.5C35.7,512.1,33.5,514.3,30.7,514.3z"/>
	<path d="M31.7,506.5v-5.2h-2v5.2c-1.2,0.4-2,1.5-2,2.8c0,1.7,1.3,3,3,3c1.7,0,3-1.3,3-3C33.7,508,32.9,506.9,31.7,506.5z
		 M30.7,510.4c-0.6,0-1-0.5-1-1s0.5-1,1-1s1,0.5,1,1S31.3,510.4,30.7,510.4z"/>
</g>
<g>
	<path d="M-68.9,504.4v-17.1c0-2.8-2.2-5-5-5s-5,2.2-5,5v17.1c-1.2,1.3-2,3-2,4.9c0,3.9,3.1,7,7,7s7-3.1,7-7
		C-66.9,507.4-67.7,505.7-68.9,504.4z M-73.9,514.3c-2.8,0-5-2.2-5-5c0-1.3,0.5-2.6,1.4-3.5l0.6-0.6v-0.8v-17.1c0-1.7,1.3-3,3-3
		s3,1.3,3,3v17.1v0.8l0.6,0.6c0.9,0.9,1.4,2.2,1.4,3.5C-68.9,512.1-71.2,514.3-73.9,514.3z"/>
	<path d="M-73.9,506.3c-1.7,0-3,1.3-3,3c0,1.7,1.3,3,3,3c1.7,0,3-1.3,3-3C-70.9,507.7-72.3,506.3-73.9,506.3z M-73.9,510.4
		c-0.6,0-1-0.5-1-1s0.5-1,1-1s1,0.5,1,1S-73.4,510.4-73.9,510.4z"/>
</g>
<g>
	<path d="M431,484.7c-2.2,0-4,1.8-4,4c0,2.2,1.8,4,4,4c2.2,0,4-1.8,4-4C435,486.4,433.2,484.7,431,484.7z M431,490.7
		c-1.1,0-2-0.9-2-2s0.9-2,2-2s2,0.9,2,2S432.1,490.7,431,490.7z"/>
	<path d="M445,512.7c-4.4,0-8-3.6-8-8v-4c0-4.4,3.6-8,8-8c2.7,0,5.1,1.4,6.6,3.4l1.4-1.4c-1.8-2.4-4.7-4-8-4c-5.5,0-10,4.5-10,10v4
		c0,5.5,4.5,10,10,10c3.3,0,6.2-1.6,8-4l-1.4-1.4C450.1,511.3,447.7,512.7,445,512.7z"/>
</g>
<g>
	<path d="M535.7,484.5c-2.2,0-4,1.8-4,4c0,2.2,1.8,4,4,4c2.2,0,4-1.8,4-4C539.7,486.3,537.9,484.5,535.7,484.5z M535.7,490.5
		c-1.1,0-2-0.9-2-2s0.9-2,2-2s2,0.9,2,2S536.8,490.5,535.7,490.5z"/>
	<polygon points="555.6,492.7 555.6,490.7 543.6,490.7 541.6,490.7 541.6,514.7 543.6,514.7 543.6,502.7 551.6,502.7 551.6,500.7 
		543.6,500.7 543.6,492.7 	"/>
</g>
<g>
	<path d="M646.8,488.3c-7.2,0-13,5.8-13,13s5.8,13,13,13s13-5.8,13-13S654,488.3,646.8,488.3z M646.8,512.3c-6.1,0-11-4.9-11-11
		s4.9-11,11-11s11,4.9,11,11S652.9,512.3,646.8,512.3z"/>
	<path d="M642.5,505.6l6.4-2.1l2.1-6.4l-6.4,2.1L642.5,505.6z M646.2,500.8l1.6-0.5l-0.5,1.6l-1.6,0.5L646.2,500.8z"/>
</g>
<g>
	<path d="M-73.9,578.9c-7.2,0-13,5.8-13,13s5.8,13,13,13s13-5.8,13-13S-66.7,578.9-73.9,578.9z M-73.9,602.9c-6.1,0-11-4.9-11-11
		c0-6.1,4.9-11,11-11s11,4.9,11,11C-62.9,597.9-67.9,602.9-73.9,602.9z"/>
	<path d="M-71.4,590.3l-2.6-4.4l-2.5,4.3h0c-0.3,0.5-0.5,1-0.5,1.6c0,1.7,1.3,3,3,3s3-1.3,3-3C-70.9,591.2-71.1,590.7-71.4,590.3
		L-71.4,590.3z M-73.9,592.8c-0.6,0-1-0.4-1-1c0-0.2,0.1-0.4,0.2-0.5l0.9-1.4l0.8,1.4c0.1,0.2,0.1,0.3,0.1,0.5
		C-72.9,592.4-73.4,592.8-73.9,592.8z"/>
</g>
<g>
	<path d="M30.9,578.9c-7.2,0-13,5.8-13,13s5.8,13,13,13s13-5.8,13-13S38,578.9,30.9,578.9z M30.9,602.9c-6.1,0-11-4.9-11-11
		c0-6.1,4.9-11,11-11s11,4.9,11,11C41.9,597.9,36.9,602.9,30.9,602.9z"/>
	<path d="M32.5,589.3c-0.5-0.3-1-0.5-1.6-0.5c-1.7,0-3,1.3-3,3c0,1.7,1.3,3,3,3c0.6,0,1.1-0.2,1.5-0.4v0l4.4-2.6L32.5,589.3
		L32.5,589.3L32.5,589.3z M31.3,592.7c-0.2,0.1-0.3,0.1-0.5,0.1c-0.6,0-1-0.4-1-1c0-0.6,0.4-1,1-1c0.2,0,0.4,0.1,0.5,0.2l1.4,0.9
		L31.3,592.7z"/>
</g>
<g>
	<path d="M133.9,578.9c-7.2,0-13,5.8-13,13s5.8,13,13,13c7.2,0,13-5.8,13-13S141.1,578.9,133.9,578.9z M133.9,602.9
		c-6.1,0-11-4.9-11-11c0-6.1,4.9-11,11-11s11,4.9,11,11C144.9,597.9,140,602.9,133.9,602.9z"/>
	<path d="M133.9,588.8c-1.7,0-3,1.3-3,3c0,0.6,0.2,1.1,0.4,1.5h0l2.6,4.4l2.5-4.3h0c0.3-0.5,0.5-1,0.5-1.6
		C136.9,590.2,135.6,588.8,133.9,588.8z M134.8,592.3l-0.9,1.4l-0.8-1.4c-0.1-0.2-0.1-0.3-0.1-0.5c0-0.6,0.4-1,1-1s1,0.4,1,1
		C134.9,592,134.9,592.2,134.8,592.3z"/>
</g>
<g>
	<path d="M237.3,578.9c-7.2,0-13,5.8-13,13s5.8,13,13,13s13-5.8,13-13S244.5,578.9,237.3,578.9z M237.3,602.9c-6.1,0-11-4.9-11-11
		c0-6.1,4.9-11,11-11s11,4.9,11,11C248.3,597.9,243.4,602.9,237.3,602.9z"/>
	<path d="M237.3,588.8c-0.6,0-1.1,0.2-1.5,0.4v0l-4.4,2.6l4.3,2.5v0c0.5,0.3,1,0.5,1.6,0.5c1.7,0,3-1.3,3-3
		C240.3,590.2,238.9,588.8,237.3,588.8z M237.3,592.8c-0.2,0-0.4-0.1-0.5-0.2l-1.4-0.9l1.4-0.8c0.2-0.1,0.3-0.1,0.5-0.1
		c0.6,0,1,0.4,1,1C238.3,592.4,237.8,592.8,237.3,592.8z"/>
</g>
<g>
	<rect x="29.2" y="382.1" width="2" height="10"/>
	<rect x="39.7" y="392.4" transform="matrix(0.7071 -0.7071 0.7071 0.7071 -265.0486 146.9657)" width="10.4" height="2"/>
	<rect x="14.5" y="388.2" transform="matrix(0.7071 -0.7071 0.7071 0.7071 -273.6642 126.1754)" width="2" height="10.4"/>
	<polygon points="23.5,411.4 24.9,412.8 29.2,408.6 29.2,418.1 31.2,418.1 31.2,408.6 35.4,412.8 36.8,411.4 30.2,404.7 	"/>
	<path d="M43.2,408.1C43.2,408.1,43.2,408.1,43.2,408.1c0-7.2-5.8-13-13-13s-13,5.8-13,13c0,0,0,0,0,0h-13v2h18v-2h-3c0,0,0,0,0,0
		c0-6.1,4.9-11,11-11s11,4.9,11,11c0,0,0,0,0,0h-3v2h18v-2H43.2z"/>
</g>
<g>
	<rect x="132.9" y="380.9" width="2" height="10"/>
	<rect x="143.4" y="391.2" transform="matrix(0.7071 -0.7071 0.7071 0.7071 -233.822 219.9761)" width="10.4" height="2"/>
	<rect x="118.2" y="387" transform="matrix(0.7071 -0.7071 0.7071 0.7071 -242.4382 199.1855)" width="2" height="10.4"/>
	<polygon points="134.9,415.5 134.9,404.9 132.9,404.9 132.9,415.5 128.7,411.2 127.3,412.7 133.9,419.3 140.6,412.7 139.2,411.2 	
		"/>
	<path d="M146.9,406.9C146.9,406.9,146.9,406.9,146.9,406.9c0-7.2-5.8-13-13-13s-13,5.8-13,13c0,0,0,0,0,0h-13v2h22v-2h-7
		c0,0,0,0,0,0c0-6.1,4.9-11,11-11s11,4.9,11,11c0,0,0,0,0,0h-7v2h22v-2H146.9z"/>
</g>
<g>
	<polygon points="337.3,415 337.3,400.6 335.3,400.6 335.3,415 331,410.7 329.6,412.1 336.3,418.8 342.9,412.1 341.5,410.7 	"/>
	<path d="M352.9,395.6c-1.6-7.4-8.2-13-16.1-13c-6.4,0-12,3.7-14.7,9c-0.3,0-0.5,0-0.8,0c-6.6,0-12,5.4-12,12c0,6.6,5.3,12,11.9,12
		v0h6.1v-2h-5.6l-0.4,0c-5.5,0-9.9-4.5-9.9-10c0-5.5,4.5-10,10-10c0.2,0,0.3,0,0.5,0l0.1,0l1.3,0.1l0.6-1.2
		c2.5-4.9,7.4-7.9,12.9-7.9c6.8,0,12.8,4.8,14.2,11.4l0.3,1.5l1.5,0.1c4.2,0.3,7.5,3.8,7.5,8c0,4.4-3.6,8-8,8c0,0-0.1,0-0.1,0l-2,0
		h-4.9v2h6.9v0c0,0,0.1,0,0.1,0c5.5,0,10-4.5,10-10C362.3,400.3,358.1,395.9,352.9,395.6z"/>
</g>
<g>
	<polygon points="243.3,411.8 244.7,410.4 238,403.7 231.3,410.4 232.8,411.8 237,407.5 237,420.1 239,420.1 239,407.5 	"/>
	<path d="M254.6,397.2c-1.6-7.4-8.2-13-16.1-13c-6.4,0-12,3.7-14.7,9c-0.3,0-0.5,0-0.8,0c-6.6,0-12,5.4-12,12c0,6.6,5.3,12,11.9,12
		v0H233v-2h-9.6l-0.4,0c-5.5,0-9.9-4.5-9.9-10c0-5.5,4.5-10,10-10c0.2,0,0.3,0,0.5,0l0.1,0l1.3,0.1l0.6-1.2
		c2.5-4.9,7.4-7.9,12.9-7.9c6.8,0,12.8,4.8,14.2,11.4l0.3,1.5l1.5,0.1c4.2,0.3,7.5,3.8,7.5,8c0,4.4-3.6,8-8,8c-0.1,0-0.1,0-0.1,0
		l-2,0H243v2h10.9v0c0,0,0.1,0,0.1,0c5.5,0,10-4.5,10-10C264,401.9,259.9,397.5,254.6,397.2z"/>
</g>
<g>
	<path d="M457.1,207.7c-1.6-7.4-8.2-13-16.1-13c-6.4,0-12,3.7-14.7,9c-0.3,0-0.5,0-0.8,0c-6.6,0-12,5.4-12,12c0,6.6,5.3,12,11.9,12
		v0h2.1v-2h-1.6l-0.4,0c-5.5,0-9.9-4.5-9.9-10c0-5.5,4.5-10,10-10c0.2,0,0.3,0,0.5,0l0.1,0l1.3,0.1l0.6-1.2
		c2.5-4.9,7.4-7.9,12.9-7.9c6.8,0,12.8,4.8,14.2,11.4l0.3,1.5l1.5,0.1c4.2,0.3,7.5,3.8,7.5,8c0,4.4-3.6,8-8,8c0,0-0.1,0-0.1,0l-2,0
		h-0.9v2h2.9v0c0,0,0.1,0,0.1,0c5.5,0,10-4.5,10-10C466.5,212.3,462.4,208,457.1,207.7z"/>
	<polygon points="435.5,226.7 435.5,224 437.7,225.3 438.4,224 435.9,222.7 438.4,221.3 437.7,220 435.5,221.3 435.5,218.7 
		433.5,218.7 433.5,221.3 431.2,220 430.6,221.3 433,222.7 430.6,224 431.2,225.3 433.5,224 433.5,226.7 	"/>
	<polygon points="440.7,231 438.5,232.3 438.5,229.7 436.5,229.7 436.5,232.3 434.2,231 433.6,232.3 436,233.6 433.6,235 
		434.2,236.3 436.5,235 436.5,237.7 438.5,237.7 438.5,235 440.7,236.3 441.3,235 438.9,233.6 441.3,232.3 	"/>
	<polygon points="449.7,224 447.5,225.3 447.5,222.7 445.5,222.7 445.5,225.3 443.3,224 442.6,225.3 445,226.7 442.6,228 
		443.3,229.3 445.5,228 445.5,230.7 447.5,230.7 447.5,228 449.7,229.3 450.4,228 447.9,226.7 450.4,225.3 	"/>
</g>
<g>
	<rect x="532.6" y="189.6" width="2" height="8"/>
	<rect x="513.6" y="208.6" width="8" height="2"/>
	<rect x="521.3" y="194.3" transform="matrix(0.7071 -0.7071 0.7071 0.7071 12.7729 427.3951)" width="2" height="8"/>
	<rect x="540.8" y="197.3" transform="matrix(0.7071 -0.7071 0.7071 0.7071 19.3666 443.3207)" width="8" height="2"/>
	<path d="M563.2,215.4c-1.4-6.7-7.4-11.8-14.6-11.8c-2.2,0-4.3,0.5-6.1,1.3c-1.7-3.2-5-5.4-8.9-5.4c-5.5,0-10,4.5-10,10
		c0,2.5,0.9,4.7,2.4,6.4c-1.4,1.8-2.3,4.1-2.3,6.7c0,6,4.8,10.8,10.8,10.9v0h1.2v-2h-0.7l-0.5,0c-4.9,0-8.8-4-8.8-8.9
		c0-4.9,4-8.9,8.9-8.9c0.2,0,0.3,0,0.4,0l0.1,0l1.3,0.1l0.6-1.2c2.2-4.4,6.6-7.1,11.5-7.1c6.1,0,11.4,4.3,12.6,10.2l0.3,1.5l1.5,0.1
		c3.7,0.2,6.6,3.3,6.6,7c0,3.9-3.1,7-7,7.1c0,0-0.1,0-0.1,0l-1.9,0v2h1.8v0c0,0,0.1,0,0.1,0c5,0,9.1-4.1,9.1-9.1
		C571.6,219.6,567.9,215.7,563.2,215.4z M535.2,211.8c-0.2,0-0.5,0-0.7,0c-2.8,0-5.3,1-7.2,2.7c-1.1-1.4-1.8-3.1-1.8-5
		c0-4.4,3.6-8,8-8c3.1,0,5.8,1.8,7.1,4.3C538.3,207.3,536.5,209.4,535.2,211.8z"/>
	<polygon points="542.6,232.5 542.6,229.9 544.8,231.1 545.5,229.9 543,228.5 545.5,227.1 544.8,225.9 542.6,227.1 542.6,224.5 
		540.6,224.5 540.6,227.2 538.4,225.9 537.7,227.1 540.2,228.5 537.7,229.9 538.4,231.1 540.6,229.9 540.6,232.5 	"/>
	<polygon points="547.8,236.9 545.6,238.1 545.6,235.5 543.6,235.5 543.6,238.1 541.4,236.9 540.7,238.1 543.2,239.5 540.7,240.9 
		541.4,242.1 543.6,240.8 543.6,243.5 545.6,243.5 545.6,240.9 547.8,242.1 548.5,240.9 546,239.5 548.5,238.1 	"/>
	<polygon points="556.8,229.9 554.6,231.1 554.6,228.5 552.6,228.5 552.6,231.2 550.4,229.9 549.7,231.1 552.2,232.5 549.7,233.9 
		550.4,235.1 552.6,233.9 552.6,236.5 554.6,236.5 554.6,233.9 556.8,235.1 557.5,233.9 555,232.5 557.5,231.1 	"/>
</g>
<g>
	<path d="M663.3,212.4c-1.4-6.7-7.4-11.8-14.6-11.8c-1.8,0-3.5,0.3-5.1,0.9c-0.9-5.1-5.4-9-10.8-9c-0.4,0-0.8,0-1.2,0.1
		c0.7,1.1,1.2,2.4,1.2,3.9c0,3.9-3.1,7-7,7c-1.4,0-2.8-0.4-3.9-1.2c0,0.4-0.1,0.8-0.1,1.2c0,3.7,1.8,7,4.7,9
		c-1.7,1.9-2.7,4.4-2.7,7.1c0,6,4.8,10.8,10.8,10.9v0h1.2v-2h-0.7l-0.5,0c-4.9,0-8.8-4-8.8-8.9c0-4.9,4-8.9,8.9-8.9
		c0.2,0,0.3,0,0.4,0l0.1,0l1.3,0.1l0.6-1.2c2.2-4.4,6.6-7.1,11.5-7.1c6.1,0,11.4,4.3,12.6,10.2l0.3,1.5l1.5,0.1
		c3.7,0.2,6.6,3.3,6.6,7c0,3.9-3.1,7-7,7.1c0,0-0.1,0-0.1,0l-1.9,0v2h1.8v0c0,0,0.1,0,0.1,0c5,0,9.1-4.1,9.1-9.1
		C671.8,216.6,668.1,212.7,663.3,212.4z M635.4,208.8c-0.2,0-0.5,0-0.7,0c-2.5,0-4.9,0.9-6.7,2.3c-2-1.3-3.5-3.4-4-5.8
		c0.6,0.1,1.2,0.2,1.8,0.2c5,0,9-4,9-9c0-0.6-0.1-1.2-0.2-1.8c3.7,0.8,6.6,3.8,7.1,7.6C639,203.8,636.8,206.1,635.4,208.8z"/>
	<polygon points="642.9,229.5 642.9,226.9 645,228.1 645.7,226.9 643.3,225.5 645.7,224.1 645,222.9 642.9,224.1 642.9,221.5 
		640.9,221.5 640.9,224.2 638.6,222.9 637.9,224.1 640.4,225.5 637.9,226.9 638.6,228.1 640.9,226.9 640.9,229.5 	"/>
	<polygon points="648,233.9 645.9,235.1 645.9,232.5 643.9,232.5 643.9,235.1 641.6,233.9 640.9,235.1 643.4,236.5 640.9,237.9 
		641.6,239.1 643.9,237.8 643.9,240.5 645.9,240.5 645.9,237.9 648,239.1 648.7,237.9 646.2,236.5 648.7,235.1 	"/>
	<polygon points="657,226.9 654.9,228.1 654.9,225.5 652.9,225.5 652.9,228.2 650.6,226.9 649.9,228.1 652.4,229.5 649.9,230.9 
		650.6,232.1 652.9,230.9 652.9,233.5 654.9,233.5 654.9,230.9 657,232.1 657.7,230.9 655.3,229.5 657.7,228.1 	"/>
</g>
<rect x="47" y="-355.3" class="st1" width="473" height="180.9"/>
<text transform="matrix(1 0 0 1 226.6187 -283.9272)" style="font-family:'Helvetica'; font-size:100px; letter-spacing:2;">60</text>
<text transform="matrix(1 0 0 1 127.3507 -223.9272)" style="font-family:'Helvetica'; font-size:48px;">Weather Icons</text>
<text transform="matrix(1 0 0 1 222.8927 -179.9272)" style="font-family:'Helvetica'; font-size:24px;">IOS 7 Style</text>
</svg>
