<?xml version="1.0" encoding="utf-8"?>
<!-- Generator: Adobe Illustrator 25.0.1, SVG Export Plug-In . SVG Version: 6.00 Build 0)  -->
<svg version="1.1" id="Layer_1" xmlns="http://www.w3.org/2000/svg" xmlns:xlink="http://www.w3.org/1999/xlink" x="0px" y="0px"
	 viewBox="0 0 50 48.5" style="enable-background:new 0 0 50 48.5;" xml:space="preserve">
<style type="text/css">
	.st0{fill:#FFFFFF;}
	.st1{fill:none;}
</style>
<path d="M438.5,378.9l-1.8,15.1l-0.3,2.2h2.3h6.9L430.9,415l1.8-14.5l0.3-2.2h-2.3h-7L438.5,378.9 M441.4,371.9l-21.7,28.3h11
	l-2.7,21.7l21.7-27.7h-11L441.4,371.9L441.4,371.9z"/>
<path d="M25.5-83.4c6.8,0,12.7,4.8,14.2,11.4l0.3,1.5l1.5,0.1c4.2,0.3,7.5,3.8,7.5,8c0,4.4-3.6,8-8,8c0,0-0.1,0-0.1,0l-2,0v0H10.5
	l-0.6,0c-5.5,0-9.9-4.5-9.9-10c0-5.5,4.5-10,10-10c0.2,0,0.3,0,0.5,0l0.1,0l1.3,0.1l0.6-1.2C15.1-80.3,20-83.4,25.5-83.4 M25.5-85.4
	c-6.4,0-12,3.7-14.7,9c-0.3,0-0.5,0-0.8,0c-6.6,0-12,5.4-12,12c0,6.6,5.3,12,11.9,12v0h30.9v0c0,0,0.1,0,0.1,0c5.5,0,10-4.5,10-10
	c0-5.3-4.1-9.6-9.4-10C40-79.8,33.4-85.4,25.5-85.4L25.5-85.4z"/>
<g>
	<path d="M148.4-65c-1.4-6.7-7.4-11.8-14.6-11.8c-2.2,0-4.3,0.5-6.1,1.3c-1.7-3.2-5-5.4-8.9-5.4c-5.5,0-10,4.5-10,10
		c0,2.5,0.9,4.7,2.4,6.4c-1.4,1.8-2.3,4.1-2.3,6.7c0,6,4.8,10.8,10.8,10.9v0h28v0c0,0,0.1,0,0.1,0c5,0,9.1-4.1,9.1-9.1
		C156.9-60.8,153.2-64.7,148.4-65z M118.8-78.8c3.1,0,5.8,1.8,7.1,4.3c-2.3,1.4-4.2,3.5-5.4,5.9c-0.2,0-0.5,0-0.7,0
		c-2.8,0-5.3,1-7.2,2.7c-1.1-1.4-1.8-3.1-1.8-5C110.8-75.3,114.4-78.8,118.8-78.8z M147.9-48.9c0,0-0.1,0-0.1,0l-2,0v0h-25.4l-0.6,0
		c-4.9,0-8.8-4-8.8-8.9c0-4.9,4-8.9,8.9-8.9c0.2,0,0.3,0,0.4,0l0.1,0l1.3,0.1l0.6-1.2c2.2-4.4,6.6-7.1,11.5-7.1
		c6.1,0,11.4,4.3,12.6,10.2l0.3,1.5l1.5,0.1c3.7,0.2,6.6,3.3,6.6,7C154.9-52.1,151.8-48.9,147.9-48.9z"/>
	<rect x="117.8" y="-90.9" width="2" height="8"/>
	<rect x="98.9" y="-71.9" width="8" height="2"/>
	<rect x="106.6" y="-86.1" transform="matrix(0.7071 -0.7071 0.7071 0.7071 89.5723 52.0263)" width="2" height="8"/>
	<rect x="126.1" y="-83.1" transform="matrix(0.7071 -0.7071 0.7071 0.7071 96.166 67.952)" width="8" height="2"/>
</g>
<path d="M244.2-69c-1.4-6.7-7.4-11.8-14.6-11.8c-1.8,0-3.5,0.3-5.1,0.9c-0.9-5.1-5.4-9-10.8-9c-0.4,0-0.8,0-1.2,0.1
	c0.7,1.1,1.2,2.4,1.2,3.9c0,3.9-3.1,7-7,7c-1.4,0-2.8-0.4-3.9-1.2c0,0.4-0.1,0.8-0.1,1.2c0,3.7,1.8,7,4.7,9
	c-1.7,1.9-2.7,4.4-2.7,7.1c0,6,4.8,10.8,10.8,10.9v0h28v0c0,0,0.1,0,0.1,0c5,0,9.1-4.1,9.1-9.1C252.7-64.8,248.9-68.7,244.2-69z
	 M204.8-76.1c0.6,0.1,1.2,0.2,1.8,0.2c5,0,9-4,9-9c0-0.6-0.1-1.2-0.2-1.8c3.7,0.8,6.6,3.8,7.1,7.6c-2.7,1.4-4.9,3.7-6.3,6.4
	c-0.2,0-0.5,0-0.7,0c-2.5,0-4.9,0.9-6.7,2.3C206.8-71.6,205.3-73.7,204.8-76.1z M243.7-52.9c0,0-0.1,0-0.1,0l-2,0v0h-25.4l-0.6,0
	c-4.9,0-8.8-4-8.8-8.9c0-4.9,4-8.9,8.9-8.9c0.1,0,0.3,0,0.4,0l0.1,0l1.3,0.1l0.6-1.2c2.2-4.4,6.6-7.1,11.5-7.1
	c6.1,0,11.4,4.3,12.6,10.2l0.3,1.5l1.5,0.1c3.7,0.2,6.6,3.3,6.6,7C250.7-56.1,247.5-52.9,243.7-52.9z"/>
<g>
	<rect x="328.8" y="-60.4" width="2" height="7"/>
	<rect x="336.8" y="-64.4" width="2" height="7"/>
	<rect x="320.8" y="-64.4" width="2" height="7"/>
	<rect x="328.8" y="-50.4" width="2" height="7"/>
	<rect x="336.8" y="-54.4" width="2" height="7"/>
	<rect x="320.8" y="-54.4" width="2" height="7"/>
	<path d="M347.5-77.4c-1.6-7.4-8.2-13-16.1-13c-6.4,0-12,3.7-14.7,9c-0.3,0-0.5,0-0.8,0c-6.6,0-12,5.4-12,12c0,6.6,5.3,12,11.9,12v0
		h2.1v-2h-1.6l-0.4,0c-5.5,0-9.9-4.5-9.9-10c0-5.5,4.5-10,10-10c0.2,0,0.3,0,0.5,0l0.1,0l1.3,0.1l0.6-1.2c2.5-4.9,7.4-7.9,12.9-7.9
		c6.8,0,12.8,4.8,14.2,11.4l0.3,1.5l1.5,0.1c4.2,0.3,7.5,3.8,7.5,8c0,4.4-3.6,8-8,8c0,0-0.1,0-0.1,0l-2,0h-2.9v2h4.9v0
		c0,0,0.1,0,0.1,0c5.5,0,10-4.5,10-10C356.8-72.7,352.7-77,347.5-77.4z"/>
</g>
<g>
	<path d="M145,12c-1.6-7.4-8.2-13-16.1-13c-6.4,0-12,3.7-14.7,9c-0.3,0-0.5,0-0.8,0c-6.6,0-12,5.4-12,12c0,6.6,5.3,12,11.9,12v0h2.1
		v-2h-1.6l-0.4,0c-5.5,0-9.9-4.5-9.9-10c0-5.5,4.5-10,10-10c0.2,0,0.3,0,0.5,0l0.1,0l1.3,0.1l0.6-1.2C118.5,4,123.4,1,128.9,1
		c6.8,0,12.8,4.8,14.2,11.4l0.3,1.5l1.5,0.1c4.2,0.3,7.5,3.8,7.5,8c0,4.4-3.6,8-8,8c-0.1,0-0.1,0-0.1,0l-2,0h-2.9v2h4.9v0
		c0,0,0.1,0,0.1,0c5.5,0,10-4.5,10-10C154.4,16.7,150.3,12.3,145,12z"/>
	<polygon points="126.4,39 126.4,40.9 126.4,47 128.4,47 128.4,40.9 128.4,39 128.4,27 126.4,27 	"/>
	<polygon points="134.4,35 134.4,36.7 134.4,43 136.4,43 136.4,36.7 136.4,35 136.4,23 134.4,23 	"/>
	<polygon points="118.4,35 118.4,37.1 118.4,43 120.4,43 120.4,37.1 120.4,35 120.4,23 118.4,23 	"/>
</g>
<g>
	<polygon points="440.7,35.9 433.8,26.1 432.2,27.2 439,37.1 440.2,38.6 443.6,43.6 445.3,42.5 441.8,37.5 	"/>
	<polygon points="448.7,35.9 441.8,26.1 440.2,27.2 447,37 448,38.5 451.6,43.6 453.3,42.5 449.7,37.3 	"/>
	<polygon points="432.7,35.9 425.8,26.1 424.2,27.2 431,37.1 432.2,38.7 435.6,43.6 437.3,42.5 433.9,37.6 	"/>
	<path d="M451.8,12.3c-1.6-7.4-8.2-13-16.1-13c-6.4,0-12,3.7-14.7,9c-0.3,0-0.5,0-0.8,0c-6.6,0-12,5.4-12,12c0,6.6,5.3,12,11.9,12v0
		h2.1v-2h-1.6l-0.4,0c-5.5,0-9.9-4.5-9.9-10c0-5.5,4.5-10,10-10c0.2,0,0.3,0,0.5,0l0.1,0l1.3,0.1l0.6-1.2c2.5-4.9,7.4-7.9,12.9-7.9
		c6.8,0,12.8,4.8,14.2,11.4l0.3,1.5l1.5,0.1c4.2,0.3,7.5,3.8,7.5,8c0,4.4-3.6,8-8,8c0,0-0.1,0-0.1,0l-1,0h0.1v2h0.9v0
		c0,0,0.1,0,0.1,0c5.5,0,10-4.5,10-10C461.2,16.9,457,12.6,451.8,12.3z"/>
</g>
<g>
	<rect x="423.5" y="-96.8" width="2" height="8"/>
	<rect x="404.5" y="-77.9" width="8" height="2"/>
	<rect x="412.1" y="-92.2" transform="matrix(0.7071 -0.7071 0.7071 0.7071 183.3545 266.31)" width="2" height="8"/>
	<rect x="431.7" y="-89.2" transform="matrix(0.7071 -0.7071 0.7071 0.7071 189.948 282.2363)" width="8" height="2"/>
	<rect x="437.5" y="-55.9" width="2" height="7"/>
	<rect x="445.5" y="-59.9" width="2" height="7"/>
	<rect x="429.5" y="-59.9" width="2" height="7"/>
	<rect x="437.5" y="-45.9" width="2" height="7"/>
	<rect x="445.5" y="-49.9" width="2" height="7"/>
	<rect x="429.5" y="-49.9" width="2" height="7"/>
	<path d="M454-71c-1.4-6.7-7.4-11.8-14.6-11.8c-2.2,0-4.3,0.5-6.1,1.3c-1.7-3.2-5-5.4-8.9-5.4c-5.5,0-10,4.5-10,10
		c0,2.5,0.9,4.7,2.4,6.4c-1.4,1.8-2.3,4.1-2.3,6.7c0,6,4.8,10.8,10.8,10.9v0h1.2v-2h-0.7l-0.5,0c-4.9,0-8.8-4-8.8-8.9
		c0-4.9,4-8.9,8.9-8.9c0.1,0,0.3,0,0.4,0l0.1,0l1.3,0.1l0.6-1.2c2.2-4.4,6.6-7.1,11.5-7.1c6.1,0,11.4,4.3,12.6,10.2l0.3,1.5l1.5,0.1
		c3.7,0.2,6.6,3.3,6.6,7c0,3.9-3.1,7-7,7.1c0,0-0.1,0-0.1,0l-2,0h-0.8v2h2.8v0c0,0,0.1,0,0.1,0c5,0,9.1-4.1,9.1-9.1
		C462.5-66.8,458.7-70.7,454-71z M426.1-74.6c-0.2,0-0.5,0-0.7,0c-2.8,0-5.3,1-7.2,2.7c-1.1-1.4-1.8-3.1-1.8-5c0-4.4,3.6-8,8-8
		c3.1,0,5.8,1.8,7.1,4.3C429.2-79.1,427.3-77.1,426.1-74.6z"/>
</g>
<g>
	<rect x="537.9" y="-57.4" width="2" height="7"/>
	<rect x="545.9" y="-61.4" width="2" height="7"/>
	<rect x="529.9" y="-61.4" width="2" height="7"/>
	<rect x="537.9" y="-47.4" width="2" height="7"/>
	<rect x="545.9" y="-51.4" width="2" height="7"/>
	<rect x="529.9" y="-51.4" width="2" height="7"/>
	<path d="M554.4-72.5c-1.4-6.7-7.4-11.8-14.6-11.8c-1.8,0-3.5,0.3-5.1,0.9c-0.9-5.1-5.4-9-10.8-9c-0.4,0-0.8,0-1.2,0.1
		c0.7,1.1,1.2,2.4,1.2,3.9c0,3.9-3.1,7-7,7c-1.4,0-2.8-0.4-3.9-1.2c0,0.4-0.1,0.8-0.1,1.2c0,3.7,1.8,7,4.7,9
		c-1.7,1.9-2.7,4.4-2.7,7.1c0,6,4.8,10.8,10.8,10.9v0h1.2v-2h-0.7l-0.5,0c-4.9,0-8.8-4-8.8-8.9c0-4.9,4-8.9,8.9-8.9
		c0.2,0,0.3,0,0.4,0l0.1,0l1.3,0.1l0.6-1.2c2.2-4.4,6.6-7.1,11.5-7.1c6.1,0,11.4,4.3,12.6,10.2l0.3,1.5l1.5,0.1
		c3.7,0.2,6.6,3.3,6.6,7c0,3.9-3.1,7-7,7.1c0,0-0.1,0-0.1,0l-2,0h-0.8v2h2.8v0c0,0,0.1,0,0.1,0c5,0,9.1-4.1,9.1-9.1
		C562.9-68.3,559.1-72.2,554.4-72.5z M526.5-76.1c-0.2,0-0.5,0-0.7,0c-2.5,0-4.9,0.9-6.7,2.3c-2-1.3-3.5-3.4-4-5.8
		c0.6,0.1,1.2,0.2,1.8,0.2c5,0,9-4,9-9c0-0.6-0.1-1.2-0.2-1.8c3.7,0.8,6.6,3.8,7.1,7.6C530.1-81.1,527.9-78.8,526.5-76.1z"/>
</g>
<g>
	<polygon points="230.7,43.4 230.7,45.4 230.7,51.4 232.7,51.4 232.7,45.4 232.7,43.4 232.7,31.4 230.7,31.4 	"/>
	<polygon points="238.7,39.4 238.7,41.2 238.7,47.4 240.7,47.4 240.7,41.2 240.7,39.4 240.7,27.4 238.7,27.4 	"/>
	<polygon points="222.7,39.4 222.7,41.5 222.7,47.4 224.7,47.4 224.7,41.5 224.7,39.4 224.7,27.4 222.7,27.4 	"/>
	<rect x="216.7" y="-7.5" width="2" height="8"/>
	<rect x="197.7" y="11.4" width="8" height="2"/>
	<rect x="205.3" y="-2.8" transform="matrix(0.7071 -0.7071 0.7071 0.7071 59.6023 146.2417)" width="2" height="8"/>
	<rect x="224.9" y="0.2" transform="matrix(0.7071 -0.7071 0.7071 0.7071 66.1957 162.1681)" width="8" height="2"/>
	<path d="M247.2,18.3c-1.4-6.7-7.4-11.8-14.6-11.8c-2.2,0-4.3,0.5-6.1,1.3c-1.7-3.2-5-5.4-8.9-5.4c-5.5,0-10,4.5-10,10
		c0,2.5,0.9,4.7,2.4,6.4c-1.4,1.8-2.3,4.1-2.3,6.7c0,6,4.8,10.8,10.8,10.9v0h1.2v-2H219l-0.5,0c-4.9,0-8.8-4-8.8-8.9
		c0-4.9,4-8.9,8.9-8.9c0.1,0,0.3,0,0.4,0l0.1,0l1.3,0.1l0.6-1.2c2.2-4.4,6.6-7.1,11.5-7.1c6.1,0,11.4,4.3,12.6,10.2l0.3,1.5l1.5,0.1
		c3.7,0.2,6.6,3.3,6.6,7c0,3.9-3.1,7-7,7.1c0,0-0.1,0-0.1,0l-2,0h-0.8v2h2.8v0c0,0,0.1,0,0.1,0c5,0,9.1-4.1,9.1-9.1
		C255.7,22.5,251.9,18.6,247.2,18.3z M219.3,14.7c-0.2,0-0.5,0-0.7,0c-2.8,0-5.3,1-7.2,2.7c-1.1-1.4-1.8-3.1-1.8-5c0-4.4,3.6-8,8-8
		c3.1,0,5.8,1.8,7.1,4.3C222.4,10.2,220.5,12.3,219.3,14.7z"/>
</g>
<g>
	<polygon points="331.1,40.9 331.1,42.9 331.1,48.9 333.1,48.9 333.1,42.9 333.1,40.9 333.1,28.9 331.1,28.9 	"/>
	<polygon points="339.1,36.9 339.1,38.7 339.1,44.9 341.1,44.9 341.1,38.7 341.1,36.9 341.1,24.9 339.1,24.9 	"/>
	<polygon points="323.1,36.9 323.1,39 323.1,44.9 325.1,44.9 325.1,39 325.1,36.9 325.1,24.9 323.1,24.9 	"/>
	<path d="M347.6,15.8C346.1,9.1,340.1,4,333,4c-1.8,0-3.5,0.3-5.1,0.9c-0.9-5.1-5.4-9-10.8-9c-0.4,0-0.8,0-1.2,0.1
		c0.7,1.1,1.2,2.4,1.2,3.9c0,3.9-3.1,7-7,7c-1.4,0-2.8-0.4-3.9-1.2c0,0.4-0.1,0.8-0.1,1.2c0,3.7,1.8,7,4.7,9
		c-1.7,1.9-2.7,4.4-2.7,7.1c0,6,4.8,10.8,10.8,10.9v0h1.2v-2h-0.7l-0.5,0c-4.9,0-8.8-4-8.8-8.9c0-4.9,4-8.9,8.9-8.9
		c0.1,0,0.3,0,0.4,0l0.1,0l1.3,0.1l0.6-1.2C323.7,8.7,328.1,6,333,6c6.1,0,11.4,4.3,12.6,10.2l0.3,1.5l1.5,0.1
		c3.7,0.2,6.6,3.3,6.6,7c0,3.9-3.1,7-7,7.1c0,0-0.1,0-0.1,0l-2,0h-0.8v2h2.8v0c0,0,0.1,0,0.1,0c5,0,9.1-4.1,9.1-9.1
		C356.1,20,352.3,16.1,347.6,15.8z M319.7,12.2c-0.2,0-0.5,0-0.7,0c-2.5,0-4.9,0.9-6.7,2.3c-2-1.3-3.5-3.4-4-5.8
		c0.6,0.1,1.2,0.2,1.8,0.2c5,0,9-4,9-9c0-0.6-0.1-1.2-0.2-1.8c3.7,0.8,6.6,3.8,7.1,7.6C323.3,7.2,321.1,9.4,319.7,12.2z"/>
</g>
<g>
	<polygon points="548.1,41.9 541.2,32 539.6,33.2 546.5,43 547.6,44.6 551.1,49.6 552.7,48.4 549.2,43.4 	"/>
	<polygon points="556.1,41.9 549.2,32 547.6,33.2 554.5,43 555.5,44.4 559.1,49.6 560.7,48.4 557.1,43.3 	"/>
	<polygon points="540.1,41.9 533.2,32 531.6,33.2 538.5,43 539.7,44.7 543.1,49.6 544.7,48.4 541.3,43.6 	"/>
	<rect x="527.6" y="-5.7" width="2" height="8"/>
	<rect x="508.6" y="13.2" width="8" height="2"/>
	<rect x="516.2" y="-1" transform="matrix(0.7071 -0.7071 0.7071 0.7071 149.4079 366.6094)" width="2" height="8"/>
	<rect x="535.8" y="2" transform="matrix(0.7071 -0.7071 0.7071 0.7071 156.0014 382.5357)" width="8" height="2"/>
	<path d="M558.1,20.1c-1.4-6.7-7.4-11.8-14.6-11.8c-2.2,0-4.3,0.5-6.1,1.3c-1.7-3.2-5-5.4-8.9-5.4c-5.5,0-10,4.5-10,10
		c0,2.5,0.9,4.7,2.4,6.4c-1.4,1.8-2.3,4.1-2.3,6.7c0,6,4.8,10.8,10.8,10.9v0h1.2v-2h-0.7l-0.5,0c-4.9,0-8.8-4-8.8-8.9
		c0-4.9,4-8.9,8.9-8.9c0.2,0,0.3,0,0.4,0l0.1,0l1.3,0.1l0.6-1.2c2.2-4.4,6.6-7.1,11.5-7.1c6.1,0,11.4,4.3,12.6,10.2l0.3,1.5l1.5,0.1
		c3.7,0.2,6.6,3.3,6.6,7c0,3.9-3.1,7-7,7.1c0,0-0.1,0-0.1,0l0,0h-0.8v2h0.8v0c0,0,0.1,0,0.1,0c5,0,9.1-4.1,9.1-9.1
		C566.6,24.3,562.8,20.4,558.1,20.1z M530.2,16.5c-0.2,0-0.5,0-0.7,0c-2.8,0-5.3,1-7.2,2.7c-1.1-1.4-1.8-3.1-1.8-5c0-4.4,3.6-8,8-8
		c3.1,0,5.8,1.8,7.1,4.3C533.3,12,531.4,14.1,530.2,16.5z"/>
</g>
<g>
	<polygon points="-175.3,138.3 -182.2,128.5 -183.8,129.7 -177,139.5 -175.9,141.1 -172.4,146 -170.7,144.9 -174.2,139.9 	"/>
	<polygon points="-167.3,138.3 -174.2,128.5 -175.8,129.7 -169,139.5 -168,140.9 -164.4,146 -162.7,144.9 -166.3,139.8 	"/>
	<polygon points="-183.3,138.3 -190.2,128.5 -191.8,129.7 -185,139.5 -183.8,141.2 -180.4,146 -178.7,144.9 -182.1,140 	"/>
	<path d="M-165.3,116.6c-1.4-6.7-7.4-11.8-14.6-11.8c-1.8,0-3.5,0.3-5.1,0.9c-0.9-5.1-5.4-9-10.8-9c-0.4,0-0.8,0-1.2,0.1
		c0.7,1.1,1.2,2.4,1.2,3.9c0,3.9-3.1,7-7,7c-1.4,0-2.8-0.4-3.9-1.2c0,0.4-0.1,0.8-0.1,1.2c0,3.7,1.8,7,4.7,9
		c-1.7,1.9-2.7,4.4-2.7,7.1c0,6,4.8,10.8,10.8,10.9v0h1.2v-2h-0.7l-0.5,0c-4.9,0-8.8-4-8.8-8.9c0-4.9,4-8.9,8.9-8.9
		c0.1,0,0.3,0,0.4,0l0.1,0l1.3,0.1l0.6-1.2c2.2-4.4,6.6-7.1,11.5-7.1c6.1,0,11.4,4.3,12.6,10.2l0.3,1.5l1.5,0.1
		c3.7,0.2,6.6,3.3,6.6,7c0,3.9-3.1,7-7,7.1c0,0-0.1,0-0.1,0l0,0h-0.8v2h0.8v0c0,0,0.1,0,0.1,0c5,0,9.1-4.1,9.1-9.1
		C-156.8,120.8-160.6,116.9-165.3,116.6z M-193.3,113c-0.2,0-0.5,0-0.7,0c-2.5,0-4.9,0.9-6.7,2.3c-2-1.3-3.5-3.4-4-5.8
		c0.6,0.1,1.2,0.2,1.8,0.2c5,0,9-4,9-9c0-0.6-0.1-1.2-0.2-1.8c3.7,0.8,6.6,3.8,7.1,7.6C-189.6,108-191.9,110.2-193.3,113z"/>
</g>
<g>
	<rect x="-182.8" y="34.5" width="2" height="4"/>
	<rect x="-174.8" y="30.5" width="2" height="4"/>
	<rect x="-190.8" y="30.5" width="2" height="4"/>
	<path d="M-164.2,14.5c-1.6-7.4-8.2-13-16.1-13c-6.4,0-12,3.7-14.7,9c-0.3,0-0.5,0-0.8,0c-6.6,0-12,5.4-12,12c0,6.6,5.3,12,11.9,12
		v0h2.1v-2h-1.6l-0.4,0c-5.5,0-9.9-4.5-9.9-10c0-5.5,4.5-10,10-10c0.2,0,0.3,0,0.5,0l0.1,0l1.3,0.1l0.6-1.2
		c2.5-4.9,7.4-7.9,12.9-7.9c6.8,0,12.8,4.8,14.2,11.4l0.3,1.5l1.5,0.1c4.2,0.3,7.5,3.8,7.5,8c0,4.4-3.6,8-8,8c-0.1,0-0.1,0-0.1,0
		l-2,0h-2.9v2h4.9v0c0,0,0.1,0,0.1,0c5.5,0,10-4.5,10-10C-154.8,19.2-159,14.8-164.2,14.5z"/>
	<circle cx="-173.8" cy="39.5" r="1.5"/>
	<circle cx="-181.8" cy="43.5" r="1.5"/>
	<circle cx="-189.8" cy="39.5" r="1.5"/>
</g>
<g>
	<rect x="-89.9" y="-5" width="2" height="8"/>
	<rect x="-108.9" y="14" width="8" height="2"/>
	<rect x="-101.3" y="-0.3" transform="matrix(0.7071 -0.7071 0.7071 0.7071 -31.9772 -69.8173)" width="2" height="8"/>
	<rect x="-81.7" y="2.7" transform="matrix(0.7071 -0.7071 0.7071 0.7071 -25.3837 -53.8909)" width="8" height="2"/>
	<path d="M-59.4,20.8C-60.9,14.1-66.8,9-74,9c-2.2,0-4.3,0.5-6.1,1.3C-81.8,7.1-85.2,5-89,5c-5.5,0-10,4.5-10,10
		c0,2.5,0.9,4.7,2.4,6.4c-1.4,1.8-2.3,4.1-2.3,6.7c0,6,4.8,10.8,10.8,10.9v0h1.2v-2h-0.7l-0.5,0c-4.9,0-8.8-4-8.8-8.9
		c0-4.9,4-8.9,8.9-8.9c0.2,0,0.3,0,0.4,0l0.1,0l1.3,0.1l0.6-1.2c2.2-4.4,6.6-7.1,11.5-7.1c6.1,0,11.4,4.3,12.6,10.2l0.3,1.5l1.5,0.1
		c3.7,0.2,6.6,3.3,6.6,7c0,3.9-3.1,7-7,7.1c0,0-0.1,0-0.1,0l-2,0h-0.8v2h2.8v0c0,0,0.1,0,0.1,0c5,0,9.1-4.1,9.1-9.1
		C-50.9,25-54.7,21.1-59.4,20.8z M-87.3,17.2c-0.2,0-0.5,0-0.7,0c-2.8,0-5.3,1-7.2,2.7c-1.1-1.4-1.8-3.1-1.8-5c0-4.4,3.6-8,8-8
		c3.1,0,5.8,1.8,7.1,4.3C-84.2,12.7-86.1,14.8-87.3,17.2z"/>
	<rect x="-75.9" y="38.9" width="2" height="4"/>
	<rect x="-67.9" y="34.9" width="2" height="4"/>
	<rect x="-83.9" y="34.9" width="2" height="4"/>
	<circle cx="-66.9" cy="44" r="1.5"/>
	<circle cx="-74.9" cy="47.9" r="1.5"/>
	<circle cx="-82.9" cy="43.9" r="1.5"/>
</g>
<g>
	<path class="st0" d="M41.5,19.9c-1.4-6.7-7.4-11.8-14.6-11.8c-1.8,0-3.5,0.3-5.1,0.9c-1-5.1-5.4-9-10.8-9c-0.4,0-0.8,0-1.2,0.1
		C10.5,1.2,11,2.5,11,4c0,3.9-3.1,7-7,7c-1.4,0-2.8-0.4-3.9-1.2C0,10.2,0,10.6,0,11c0,3.7,1.8,7,4.7,9C3,21.9,2,24.4,2,27.1
		c0,6,4.8,10.8,10.8,10.9v0H14v-2h-0.7l-0.5,0C8,35.9,4,32,4,27.1c0-4.9,4-8.9,8.9-8.9c0.1,0,0.3,0,0.4,0l0.1,0l1.3,0.1l0.6-1.2
		c2.2-4.4,6.6-7.1,11.5-7.1c6.1,0,11.4,4.3,12.6,10.2l0.3,1.5l1.5,0.1c3.7,0.2,6.6,3.3,6.6,7c0,3.9-3.1,7-7,7.1c0,0-0.1,0-0.1,0
		l-2,0H38v2h2.8v0c0,0,0.1,0,0.1,0c5,0,9.1-4.1,9.1-9.1C50,24.1,46.2,20.2,41.5,19.9z M13.6,16.3c-0.2,0-0.5,0-0.7,0
		c-2.5,0-4.9,0.9-6.7,2.3c-2-1.3-3.5-3.4-4-5.8C2.8,12.9,3.4,13,4,13c5,0,9-4,9-9c0-0.6-0.1-1.2-0.2-1.8c3.7,0.8,6.6,3.8,7.1,7.6
		C17.2,11.3,15,13.5,13.6,16.3z"/>
	<rect x="25" y="38" class="st0" width="2" height="4"/>
	<rect x="33" y="34" class="st0" width="2" height="4"/>
	<rect x="17" y="34" class="st0" width="2" height="4"/>
	<circle class="st0" cx="34" cy="43" r="1.5"/>
	<circle class="st0" cx="26" cy="47" r="1.5"/>
	<circle class="st0" cx="18" cy="43" r="1.5"/>
</g>
<g>
	<path d="M-61.8,112.9c-1.6-7.4-8.2-13-16.1-13c-6.4,0-12,3.7-14.7,9c-0.3,0-0.5,0-0.8,0c-6.6,0-12,5.4-12,12c0,6.6,5.3,12,11.9,12
		v0h6.1v-2H-93l-0.4,0c-5.5,0-9.9-4.5-9.9-10c0-5.5,4.5-10,10-10c0.2,0,0.3,0,0.5,0l0.1,0l1.3,0.1l0.6-1.2c2.5-4.9,7.4-7.9,12.9-7.9
		c6.8,0,12.8,4.8,14.2,11.4l0.3,1.5l1.5,0.1c4.2,0.3,7.5,3.8,7.5,8c0,4.4-3.6,8-8,8c0,0-0.1,0-0.1,0l-5,0h0.1v2h4.9v0
		c0,0,0.1,0,0.1,0c5.5,0,10-4.5,10-10C-52.4,117.6-56.6,113.2-61.8,112.9z"/>
	<polygon points="-77.6,132.9 -75.8,132.9 -75.4,132.9 -73.4,132.9 -79.8,123.7 -81.4,124.9 -77.2,130.9 -79,130.9 -81.4,130.9 
		-80.2,132.7 -79,134.3 -73.1,142.9 -71.4,141.7 -77.4,133.1 	"/>
</g>
<g>
	<rect x="14" y="93.8" width="2" height="8"/>
	<rect x="-5" y="112.7" width="8" height="2"/>
	<rect x="2.7" y="98.4" transform="matrix(0.7071 -0.7071 0.7071 0.7071 -71.3519 32.5874)" width="2" height="8"/>
	<rect x="22.2" y="101.4" transform="matrix(0.7071 -0.7071 0.7071 0.7071 -64.7585 48.5139)" width="8" height="2"/>
	<path d="M44.5,119.6c-1.4-6.7-7.4-11.8-14.6-11.8c-2.2,0-4.3,0.5-6.1,1.3c-1.7-3.2-5-5.4-8.9-5.4c-5.5,0-10,4.5-10,10
		c0,2.5,0.9,4.7,2.4,6.4C5.9,122,5,124.3,5,126.8c0,6,4.8,10.8,10.8,10.9v0H20v-2h-3.7l-0.5,0c-4.9,0-8.8-4-8.8-8.9
		c0-4.9,4-8.9,8.9-8.9c0.2,0,0.3,0,0.4,0l0.1,0l1.3,0.1l0.6-1.2c2.2-4.4,6.6-7.1,11.5-7.1c6.1,0,11.4,4.3,12.6,10.2l0.3,1.5l1.5,0.1
		c3.7,0.2,6.6,3.3,6.6,7c0,3.9-3.1,7-7,7.1c0,0-0.1,0-0.1,0l-2,0H38v2h5.8v0c0,0,0.1,0,0.1,0c5,0,9.1-4.1,9.1-9.1
		C53,123.8,49.2,119.9,44.5,119.6z M16.6,115.9c-0.2,0-0.5,0-0.7,0c-2.8,0-5.3,1-7.2,2.7c-1.1-1.4-1.8-3.1-1.8-5c0-4.4,3.6-8,8-8
		c3.1,0,5.8,1.8,7.1,4.3C19.7,111.5,17.8,113.5,16.6,115.9z"/>
	<polygon points="28.8,137.7 30.6,137.7 31,137.7 33.1,137.7 26.6,128.5 25,129.6 29.2,135.7 27.4,135.7 25,135.7 26.3,137.5 
		27.4,139.1 33.4,147.7 35,146.5 29,137.9 	"/>
</g>
<g>
	<path d="M144.1,117.3c-1.4-6.7-7.4-11.8-14.6-11.8c-1.8,0-3.5,0.3-5.1,0.9c-0.9-5.1-5.4-9-10.8-9c-0.4,0-0.8,0-1.2,0.1
		c0.7,1.1,1.2,2.4,1.2,3.9c0,3.9-3.1,7-7,7c-1.4,0-2.8-0.4-3.9-1.2c0,0.4-0.1,0.8-0.1,1.2c0,3.7,1.8,7,4.7,9
		c-1.7,1.9-2.7,4.4-2.7,7.1c0,6,4.8,10.8,10.8,10.9v0h4.2v-2h-3.7l-0.5,0c-4.9,0-8.8-4-8.8-8.9c0-4.9,4-8.9,8.9-8.9
		c0.2,0,0.3,0,0.4,0l0.1,0l1.3,0.1l0.6-1.2c2.2-4.4,6.6-7.1,11.5-7.1c6.1,0,11.4,4.3,12.6,10.2l0.3,1.5l1.5,0.1
		c3.7,0.2,6.6,3.3,6.6,7c0,3.9-3.1,7-7,7.1c0,0-0.1,0-0.1,0l-2,0h-3.8v2h5.8v0c0,0,0.1,0,0.1,0c5,0,9.1-4.1,9.1-9.1
		C152.6,121.5,148.8,117.6,144.1,117.3z M116.2,113.7c-0.2,0-0.5,0-0.7,0c-2.5,0-4.9,0.9-6.7,2.3c-2-1.3-3.5-3.4-4-5.8
		c0.6,0.1,1.2,0.2,1.8,0.2c5,0,9-4,9-9c0-0.6-0.1-1.2-0.2-1.8c3.7,0.8,6.6,3.8,7.1,7.6C119.8,108.7,117.6,110.9,116.2,113.7z"/>
	<polygon points="128.4,135.4 130.2,135.4 130.6,135.4 132.6,135.4 126.2,126.2 124.6,127.3 128.8,133.4 127,133.4 124.6,133.4 
		125.9,135.2 127,136.8 132.9,145.4 134.6,144.2 128.6,135.6 	"/>
</g>
<g>
	<path d="M245,113.4c-1.6-7.4-8.2-13-16.1-13c-6.4,0-12,3.7-14.7,9c-0.3,0-0.5,0-0.8,0c-6.6,0-12,5.4-12,12c0,6.6,5.3,12,11.9,12v0
		h1.1v-2h-0.6l-0.4,0c-5.5,0-9.9-4.5-9.9-10c0-5.5,4.5-10,10-10c0.2,0,0.3,0,0.5,0l0.1,0l1.3,0.1l0.6-1.2c2.5-4.9,7.4-7.9,12.9-7.9
		c6.8,0,12.8,4.8,14.2,11.4l0.3,1.5l1.5,0.1c4.2,0.3,7.5,3.8,7.5,8c0,4.4-3.6,8-8,8c-0.1,0-0.1,0-0.1,0l-0.9,0v2h0.9v0
		c0,0,0.1,0,0.1,0c5.5,0,10-4.5,10-10C254.4,118.1,250.2,113.7,245,113.4z"/>
	<rect x="218.4" y="126.8" transform="matrix(0.8191 -0.5736 0.5736 0.8191 -36.2522 149.7877)" width="2" height="11.2"/>
	<rect x="236.4" y="126.8" transform="matrix(0.8191 -0.5736 0.5736 0.8191 -33.0012 160.0989)" width="2" height="11.2"/>
	<polygon points="230.2,136.4 232,136.4 232.4,136.4 234.4,136.4 228,127.2 226.4,128.4 230.6,134.4 228.8,134.4 226.4,134.4 
		227.6,136.2 228.7,137.8 233.4,144.4 235,143.2 230.4,136.6 	"/>
</g>
<g>
	<rect x="319.8" y="93.9" width="2" height="8"/>
	<rect x="300.8" y="112.9" width="8" height="2"/>
	<rect x="308.5" y="98.6" transform="matrix(0.7071 -0.7071 0.7071 0.7071 18.109 248.8869)" width="2" height="8"/>
	<rect x="328" y="101.6" transform="matrix(0.7071 -0.7071 0.7071 0.7071 24.7025 264.8134)" width="8" height="2"/>
	<path d="M350.3,119.7c-1.4-6.7-7.4-11.8-14.6-11.8c-2.2,0-4.3,0.5-6.1,1.3c-1.7-3.2-5-5.4-8.9-5.4c-5.5,0-10,4.5-10,10
		c0,2.5,0.9,4.7,2.4,6.4c-1.4,1.8-2.3,4.1-2.3,6.7c0,6,4.8,10.8,10.8,10.9v0h0.2v-2l-0.2,0c-4.9,0-8.8-4-8.8-8.9
		c0-4.9,4-8.9,8.9-8.9c0.1,0,0.3,0,0.4,0l0.1,0l1.3,0.1l0.6-1.2c2.2-4.4,6.6-7.1,11.5-7.1c6.1,0,11.4,4.3,12.6,10.2l0.3,1.5l1.5,0.1
		c3.7,0.2,6.6,3.3,6.6,7c0,3.9-3.1,7-7,7.1c0,0-0.1,0-0.1,0l-0.9,0v2h0.8v0c0,0,0.1,0,0.1,0c5,0,9.1-4.1,9.1-9.1
		C358.8,123.9,355.1,120,350.3,119.7z M322.4,116.1c-0.2,0-0.5,0-0.7,0c-2.8,0-5.3,1-7.2,2.7c-1.1-1.4-1.8-3.1-1.8-5
		c0-4.4,3.6-8,8-8c3.1,0,5.8,1.8,7.1,4.3C325.5,111.6,323.7,113.7,322.4,116.1z"/>
	<rect x="324.9" y="131.2" transform="matrix(0.8191 -0.5736 0.5736 0.8191 -19.5412 211.6621)" width="2" height="11.2"/>
	<rect x="342.8" y="131.2" transform="matrix(0.8191 -0.5736 0.5736 0.8191 -16.2902 221.9733)" width="2" height="11.2"/>
	<polygon points="336.7,140.8 338.4,140.8 338.9,140.8 340.9,140.8 334.5,131.7 332.8,132.8 337,138.8 335.3,138.8 332.8,138.8 
		334.1,140.6 335.2,142.2 339.8,148.8 341.5,147.7 336.8,141.1 	"/>
</g>
<g>
	<path d="M452.2,116.8c-1.4-6.7-7.4-11.8-14.6-11.8c-1.8,0-3.5,0.3-5.1,0.9c-0.9-5.1-5.4-9-10.8-9c-0.4,0-0.8,0-1.2,0.1
		c0.7,1.1,1.2,2.4,1.2,3.9c0,3.9-3.1,7-7,7c-1.4,0-2.8-0.4-3.9-1.2c0,0.4-0.1,0.8-0.1,1.2c0,3.7,1.8,7,4.7,9
		c-1.7,1.9-2.7,4.4-2.7,7.1c0,6,4.8,10.8,10.8,10.9v0h0.2v-2l-0.2,0c-4.9,0-8.8-4-8.8-8.9c0-4.9,4-8.9,8.9-8.9c0.1,0,0.3,0,0.4,0
		l0.1,0l1.3,0.1l0.6-1.2c2.2-4.4,6.6-7.1,11.5-7.1c6.1,0,11.4,4.3,12.6,10.2l0.3,1.5l1.5,0.1c3.7,0.2,6.6,3.3,6.6,7
		c0,3.9-3.1,7-7,7.1c0,0-0.1,0-0.1,0l-0.9,0v2h0.8v0c0,0,0.1,0,0.1,0c5,0,9.1-4.1,9.1-9.1C460.7,121,456.9,117.1,452.2,116.8z
		 M424.3,113.2c-0.2,0-0.5,0-0.7,0c-2.5,0-4.9,0.9-6.7,2.3c-2-1.3-3.5-3.4-4-5.8c0.6,0.1,1.2,0.2,1.8,0.2c5,0,9-4,9-9
		c0-0.6-0.1-1.2-0.2-1.8c3.7,0.8,6.6,3.8,7.1,7.6C427.9,108.2,425.7,110.4,424.3,113.2z"/>
	<rect x="426.7" y="128.3" transform="matrix(0.8191 -0.5736 0.5736 0.8191 0.5757 269.5447)" width="2" height="11.2"/>
	<rect x="444.7" y="128.3" transform="matrix(0.8191 -0.5736 0.5736 0.8191 3.8267 279.856)" width="2" height="11.2"/>
	<polygon points="438.5,137.9 440.3,137.9 440.7,137.9 442.7,137.9 436.3,128.7 434.7,129.8 438.9,135.9 437.1,135.9 434.7,135.9 
		435.9,137.7 437,139.3 441.7,145.9 443.3,144.7 438.7,138.1 	"/>
</g>
<g>
	<g>
		<path d="M41.6,203.2c-1.6-7.4-8.2-13-16.1-13c-6.4,0-12,3.7-14.7,9c-0.3,0-0.5,0-0.8,0c-6.6,0-12,5.4-12,12c0,6.6,5.3,12,11.9,12
			v0H12v-2h-1.6l-0.4,0c-5.5,0-9.9-4.5-9.9-10c0-5.5,4.5-10,10-10c0.2,0,0.3,0,0.5,0l0.1,0l1.3,0.1l0.6-1.2
			c2.5-4.9,7.4-7.9,12.9-7.9c6.8,0,12.8,4.8,14.2,11.4l0.3,1.5l1.5,0.1c4.2,0.3,7.5,3.8,7.5,8c0,4.4-3.6,8-8,8c0,0-0.1,0-0.1,0l-2,0
			H36v2h4.9v0c0,0,0.1,0,0.1,0c5.5,0,10-4.5,10-10C51,207.9,46.8,203.6,41.6,203.2z"/>
	</g>
	<g>
		<circle cx="16.5" cy="216.8" r="1.5"/>
	</g>
	<g>
		<circle cx="20.5" cy="222.7" r="1.5"/>
	</g>
	<g>
		<circle cx="28.5" cy="222.7" r="1.5"/>
	</g>
	<g>
		<circle cx="24.5" cy="216.8" r="1.5"/>
	</g>
	<g>
		<circle cx="32.5" cy="216.8" r="1.5"/>
	</g>
	<g>
		<circle cx="16.5" cy="228.7" r="1.5"/>
	</g>
	<g>
		<circle cx="24.5" cy="228.7" r="1.5"/>
	</g>
	<g>
		<circle cx="32.5" cy="228.7" r="1.5"/>
	</g>
</g>
<g>
	<g>
		<rect x="117.4" y="187.7" width="2" height="8"/>
	</g>
	<g>
		<rect x="98.4" y="206.7" width="8" height="2"/>
	</g>
	<g>
		<rect x="106.1" y="192.4" transform="matrix(0.7071 -0.7071 0.7071 0.7071 -107.514 133.2272)" width="2" height="8"/>
	</g>
	<g>
		<rect x="125.6" y="195.4" transform="matrix(0.7071 -0.7071 0.7071 0.7071 -100.9205 149.1535)" width="8" height="2"/>
	</g>
	<g>
		<path d="M147.9,213.5c-1.4-6.7-7.4-11.8-14.6-11.8c-2.2,0-4.3,0.5-6.1,1.3c-1.7-3.2-5-5.4-8.9-5.4c-5.5,0-10,4.5-10,10
			c0,2.5,0.9,4.7,2.4,6.4c-1.4,1.8-2.3,4.1-2.3,6.7c0,6,4.8,10.8,10.8,10.9v0h1.2v-2h-0.7l-0.5,0c-4.9,0-8.8-4-8.8-8.9
			c0-4.9,4-8.9,8.9-8.9c0.2,0,0.3,0,0.4,0l0.1,0l1.3,0.1l0.6-1.2c2.2-4.4,6.6-7.1,11.5-7.1c6.1,0,11.4,4.3,12.6,10.2l0.3,1.5
			l1.5,0.1c3.7,0.2,6.6,3.3,6.6,7c0,3.9-3.1,7-7,7.1c0,0-0.1,0-0.1,0l-2,0h-1.8v2h3.8v0c0,0,0.1,0,0.1,0c5,0,9.1-4.1,9.1-9.1
			C156.4,217.8,152.6,213.8,147.9,213.5z M120,209.9c-0.2,0-0.5,0-0.7,0c-2.8,0-5.3,1-7.2,2.7c-1.1-1.4-1.8-3.1-1.8-5
			c0-4.4,3.6-8,8-8c3.1,0,5.8,1.8,7.1,4.3C123.1,205.4,121.2,207.5,120,209.9z"/>
	</g>
	<g>
		<circle cx="123.9" cy="225.1" r="1.5"/>
	</g>
	<g>
		<circle cx="127.9" cy="231.1" r="1.5"/>
	</g>
	<g>
		<circle cx="135.9" cy="231.1" r="1.5"/>
	</g>
	<g>
		<circle cx="131.9" cy="225.1" r="1.5"/>
	</g>
	<g>
		<circle cx="139.9" cy="225.1" r="1.5"/>
	</g>
	<g>
		<circle cx="123.9" cy="237.2" r="1.5"/>
	</g>
	<g>
		<circle cx="131.9" cy="237.2" r="1.5"/>
	</g>
	<g>
		<circle cx="139.9" cy="237.2" r="1.5"/>
	</g>
</g>
<g>
	<g>
		<path d="M243.9,209.6c-1.4-6.7-7.4-11.8-14.6-11.8c-1.8,0-3.5,0.3-5.1,0.9c-0.9-5.1-5.4-9-10.8-9c-0.4,0-0.8,0-1.2,0.1
			c0.7,1.1,1.2,2.4,1.2,3.9c0,3.9-3.1,7-7,7c-1.4,0-2.8-0.4-3.9-1.2c0,0.4-0.1,0.8-0.1,1.2c0,3.7,1.8,7,4.7,9
			c-1.7,1.9-2.7,4.4-2.7,7.1c0,6,4.8,10.8,10.8,10.9v0h1.2v-2h-0.7l-0.5,0c-4.9,0-8.8-4-8.8-8.9c0-4.9,4-8.9,8.9-8.9
			c0.1,0,0.3,0,0.4,0l0.1,0l1.3,0.1l0.6-1.2c2.2-4.4,6.6-7.1,11.5-7.1c6.1,0,11.4,4.3,12.6,10.2l0.3,1.5l1.5,0.1
			c3.7,0.2,6.6,3.3,6.6,7c0,3.9-3.1,7-7,7.1c0,0-0.1,0-0.1,0l-2,0h-1.8v2h3.8v0c0,0,0.1,0,0.1,0c5,0,9.1-4.1,9.1-9.1
			C252.4,213.8,248.6,209.9,243.9,209.6z M215.9,206c-0.2,0-0.5,0-0.7,0c-2.5,0-4.9,0.9-6.7,2.3c-2-1.3-3.5-3.4-4-5.8
			c0.6,0.1,1.2,0.2,1.8,0.2c5,0,9-4,9-9c0-0.6-0.1-1.2-0.2-1.8c3.7,0.8,6.6,3.8,7.1,7.6C219.6,201,217.3,203.2,215.9,206z"/>
	</g>
	<g>
		<circle cx="219.9" cy="221.2" r="1.5"/>
	</g>
	<g>
		<circle cx="223.9" cy="227.2" r="1.5"/>
	</g>
	<g>
		<circle cx="231.9" cy="227.2" r="1.5"/>
	</g>
	<g>
		<circle cx="227.9" cy="221.2" r="1.5"/>
	</g>
	<g>
		<circle cx="235.9" cy="221.2" r="1.5"/>
	</g>
	<g>
		<circle cx="219.9" cy="233.2" r="1.5"/>
	</g>
	<g>
		<circle cx="227.9" cy="233.2" r="1.5"/>
	</g>
	<g>
		<circle cx="235.9" cy="233.2" r="1.5"/>
	</g>
</g>
<g>
	<path d="M555,110.7c-1.6-7.4-8.2-13-16.1-13c-6.4,0-12,3.7-14.7,9c-0.3,0-0.5,0-0.8,0c-6.6,0-12,5.4-12,12c0,6.6,5.3,12,11.9,12v0
		h2.1v-2h-1.6l-0.4,0c-5.5,0-9.9-4.5-9.9-10c0-5.5,4.5-10,10-10c0.2,0,0.3,0,0.5,0l0.1,0l1.3,0.1l0.6-1.2c2.5-4.9,7.4-7.9,12.9-7.9
		c6.8,0,12.8,4.8,14.2,11.4l0.3,1.5l1.5,0.1c4.2,0.3,7.5,3.8,7.5,8c0,4.4-3.6,8-8,8c0,0-0.1,0-0.1,0l-2,0h-2.9v2h4.9v0
		c0,0,0.1,0,0.1,0c5.5,0,10-4.5,10-10C564.4,115.4,560.3,111,555,110.7z"/>
	<circle cx="529.4" cy="138.2" r="1.5"/>
	<circle cx="537.4" cy="144.2" r="1.5"/>
	<circle cx="545.4" cy="140.2" r="1.5"/>
	<rect x="528.4" y="121.7" width="2" height="12"/>
	<polygon points="538.4,139.6 538.4,137.7 538.4,125.7 536.4,125.7 536.4,137.7 536.4,139.6 536.4,139.7 538.4,139.7 	"/>
	<polygon points="546.4,135.4 546.4,133.7 546.4,121.7 544.4,121.7 544.4,133.7 544.4,135.4 544.4,135.7 546.4,135.7 	"/>
</g>
<g>
	<rect x="-193.3" y="182.3" width="2" height="8"/>
	<rect x="-212.3" y="201.2" width="8" height="2"/>
	<rect x="-204.7" y="187" transform="matrix(0.7071 -0.7071 0.7071 0.7071 -194.6852 -88.0962)" width="2" height="8"/>
	<rect x="-185.1" y="190" transform="matrix(0.7071 -0.7071 0.7071 0.7071 -188.0918 -72.1698)" width="8" height="2"/>
	<path d="M-162.8,208.1c-1.4-6.7-7.4-11.8-14.6-11.8c-2.2,0-4.3,0.5-6.1,1.3c-1.7-3.2-5-5.4-8.9-5.4c-5.5,0-10,4.5-10,10
		c0,2.5,0.9,4.7,2.4,6.4c-1.4,1.8-2.3,4.1-2.3,6.7c0,6,4.8,10.8,10.8,10.9v0h1.2v-2h-0.7l-0.5,0c-4.9,0-8.8-4-8.8-8.9
		c0-4.9,4-8.9,8.9-8.9c0.1,0,0.3,0,0.4,0l0.1,0l1.3,0.1l0.6-1.2c2.2-4.4,6.6-7.1,11.5-7.1c6.1,0,11.4,4.3,12.6,10.2l0.3,1.5l1.5,0.1
		c3.7,0.2,6.6,3.3,6.6,7c0,3.9-3.1,7-7,7.1c0,0-0.1,0-0.1,0l-2,0h-0.8v2h2.8v0c0,0,0.1,0,0.1,0c5,0,9.1-4.1,9.1-9.1
		C-154.3,212.3-158.1,208.4-162.8,208.1z M-190.8,204.5c-0.2,0-0.5,0-0.7,0c-2.8,0-5.3,1-7.2,2.7c-1.1-1.4-1.8-3.1-1.8-5
		c0-4.4,3.6-8,8-8c3.1,0,5.8,1.8,7.1,4.3C-187.6,200-189.5,202.1-190.8,204.5z"/>
	<circle cx="-186.4" cy="234.7" r="1.5"/>
	<circle cx="-178.4" cy="240.7" r="1.5"/>
	<circle cx="-170.4" cy="236.7" r="1.5"/>
	<rect x="-187.4" y="218.2" width="2" height="12"/>
	<polygon points="-177.4,236.1 -177.4,234.2 -177.4,222.2 -179.4,222.2 -179.4,234.2 -179.4,236.1 -179.4,236.2 -177.4,236.2 	"/>
	<polygon points="-169.4,231.9 -169.4,230.2 -169.4,218.2 -171.4,218.2 -171.4,230.2 -171.4,231.9 -171.4,232.2 -169.4,232.2 	"/>
</g>
<g>
	<path d="M-62.2,205.1c-1.4-6.7-7.4-11.8-14.6-11.8c-1.8,0-3.5,0.3-5.1,0.9c-0.9-5.1-5.4-9-10.8-9c-0.4,0-0.8,0-1.2,0.1
		c0.7,1.1,1.2,2.4,1.2,3.9c0,3.9-3.1,7-7,7c-1.4,0-2.8-0.4-3.9-1.2c0,0.4-0.1,0.8-0.1,1.2c0,3.7,1.8,7,4.7,9
		c-1.7,1.9-2.7,4.4-2.7,7.1c0,6,4.8,10.8,10.8,10.9v0h1.2v-2h-0.7l-0.5,0c-4.9,0-8.8-4-8.8-8.9c0-4.9,4-8.9,8.9-8.9
		c0.2,0,0.3,0,0.4,0l0.1,0l1.3,0.1l0.6-1.2c2.2-4.4,6.6-7.1,11.5-7.1c6.1,0,11.4,4.3,12.6,10.2l0.3,1.5l1.5,0.1
		c3.7,0.2,6.6,3.3,6.6,7c0,3.9-3.1,7-7,7.1c0,0-0.1,0-0.1,0l-2,0h-0.8v2h2.8v0c0,0,0.1,0,0.1,0c5,0,9.1-4.1,9.1-9.1
		C-53.7,209.3-57.5,205.4-62.2,205.1z M-90.2,201.5c-0.2,0-0.5,0-0.7,0c-2.5,0-4.9,0.9-6.7,2.3c-2-1.3-3.5-3.4-4-5.8
		c0.6,0.1,1.2,0.2,1.8,0.2c5,0,9-4,9-9c0-0.6-0.1-1.2-0.2-1.8c3.7,0.8,6.6,3.8,7.1,7.6C-86.5,196.5-88.8,198.7-90.2,201.5z"/>
	<circle cx="-85.7" cy="231.7" r="1.5"/>
	<circle cx="-77.7" cy="237.7" r="1.5"/>
	<circle cx="-69.7" cy="233.7" r="1.5"/>
	<rect x="-86.7" y="215.2" width="2" height="12"/>
	<polygon points="-76.7,233.1 -76.7,231.2 -76.7,219.2 -78.7,219.2 -78.7,231.2 -78.7,233.1 -78.7,233.2 -76.7,233.2 	"/>
	<polygon points="-68.7,229 -68.7,227.2 -68.7,215.2 -70.7,215.2 -70.7,227.2 -70.7,229 -70.7,229.2 -68.7,229.2 	"/>
</g>
<g>
	<rect x="-210.3" y="309.5" width="56" height="2"/>
	<rect x="-206.3" y="315.5" width="50" height="2"/>
	<rect x="-200.3" y="321.5" width="36" height="2"/>
	<rect x="-208.3" y="303.5" width="52" height="2"/>
	<path d="M-196.5,295.5c0.2,0,0.3,0,0.5,0l0.1,0l1.3,0.1l0.6-1.2c2.5-4.9,7.4-7.9,12.9-7.9c6.8,0,12.8,4.8,14.2,11.4l0.3,1.5
		l1.5,0.1c1.2,0.1,2.3,0.4,3.3,1h3.3c-1.7-1.7-4-2.8-6.5-3c-1.6-7.4-8.2-13-16.1-13c-6.4,0-12,3.7-14.7,9c-0.3,0-0.5,0-0.8,0
		c-4.8,0-9,2.9-10.9,7h2.3C-203.4,297.6-200.2,295.5-196.5,295.5z"/>
</g>
<g>
	<rect x="-89.2" y="282" width="2" height="8"/>
	<rect x="-108.2" y="300.9" width="8" height="2"/>
	<rect x="-100.6" y="286.7" transform="matrix(0.7071 -0.7071 0.7071 0.7071 -234.7048 14.7219)" width="2" height="8"/>
	<rect x="-81" y="289.7" transform="matrix(0.7071 -0.7071 0.7071 0.7071 -228.1113 30.6483)" width="8" height="2"/>
	<rect x="-99.2" y="315.9" width="50" height="2"/>
	<rect x="-95.2" y="321.9" width="44" height="2"/>
	<rect x="-89.2" y="326.9" width="30" height="2"/>
	<rect x="-97.2" y="309.9" width="46" height="2"/>
	<path d="M-96.3,307.9h0.8h1.9h1c1.5-1.1,3.3-1.7,5.2-1.7c0.2,0,0.3,0,0.4,0l0.1,0l1.3,0.1l0.6-1.2c2.2-4.4,6.6-7.1,11.5-7.1
		c5.9,0,11.2,4.1,12.6,9.9h2v-0.1c-1.4-6.7-7.4-11.8-14.6-11.8c-2.2,0-4.3,0.5-6.1,1.3c-1.7-3.2-5-5.4-8.9-5.4c-5.5,0-10,4.5-10,10
		C-98.3,304.2-97.6,306.2-96.3,307.9z M-88.3,293.9c3.1,0,5.8,1.8,7.1,4.3c-2.3,1.4-4.2,3.5-5.4,5.9c-0.2,0-0.5,0-0.7,0
		c-2.8,0-5.3,1-7.2,2.7c-1.1-1.4-1.8-3.1-1.8-5C-96.3,297.5-92.7,293.9-88.3,293.9z"/>
</g>
<g>
	<rect x="-0.5" y="312.5" width="50" height="2"/>
	<rect x="3.5" y="318.5" width="44" height="2"/>
	<rect x="9.5" y="323.5" width="30" height="2"/>
	<rect x="1.5" y="306.5" width="46" height="2"/>
	<path d="M3.1,304.5L3.1,304.5h1.9h1.1c1.5-1.1,3.3-1.7,5.2-1.7c0.1,0,0.3,0,0.4,0l0.1,0l1.3,0.1l0.6-1.2c2.2-4.4,6.6-7.1,11.5-7.1
		c5.9,0,11.2,4.1,12.6,9.9h2v-0.1c-1.4-6.7-7.4-11.8-14.6-11.8c-1.8,0-3.5,0.3-5.1,0.9c-0.9-5.1-5.4-9-10.8-9c-0.4,0-0.8,0-1.2,0.1
		c0.7,1.1,1.2,2.4,1.2,3.9c0,3.9-3.1,7-7,7c-1.4,0-2.8-0.4-3.9-1.2c0,0.4-0.1,0.8-0.1,1.2C-1.5,299.2,0.3,302.5,3.1,304.5z
		 M2.5,297.5c5,0,9-4,9-9c0-0.6-0.1-1.2-0.2-1.8c3.7,0.8,6.6,3.8,7.1,7.6c-2.7,1.4-4.9,3.7-6.3,6.4c-0.2,0-0.5,0-0.7,0
		c-2.5,0-4.9,0.9-6.7,2.3c-2-1.3-3.5-3.4-4-5.8C1.3,297.4,1.9,297.5,2.5,297.5z"/>
</g>
<g>
	<path d="M131.4,315.5h-19.5l-0.6,0c-5.5,0-9.9-4.5-9.9-10c0-5.5,4.5-10,10-10c0.2,0,0.3,0,0.5,0l0.1,0l1.3,0.1l0.6-1.2
		c2.5-4.9,7.4-7.9,12.9-7.9c6.8,0,12.8,4.8,14.2,11.4l0.3,1.5l1.5,0.1c1.8,0.1,3.5,0.8,4.7,2h2.7c-1.7-2.3-4.3-3.8-7.4-4
		c-1.6-7.4-8.2-13-16.1-13c-6.4,0-12,3.7-14.7,9c-0.3,0-0.5,0-0.8,0c-6.6,0-12,5.4-12,12c0,6.6,5.3,12,11.9,12v0h20.1
		c2.2,0,4,1.8,4,4s-1.8,4-4,4v2c3.3,0,6-2.7,6-6C137.4,318.2,134.7,315.5,131.4,315.5z"/>
	<path d="M135.4,311.5h-16v2h16c3.3,0,6-2.7,6-6c0-3.3-2.7-6-6-6v2c2.2,0,4,1.8,4,4S137.6,311.5,135.4,311.5z"/>
	<path d="M148.4,305.5c1.7,0,3,1.3,3,3s-1.3,3-3,3c0,0-0.1,0-0.1,0h-4.9c0,0,0,0,0,0h0v2h5.5v-0.1c2.5-0.3,4.5-2.4,4.5-4.9
		c0-2.8-2.2-5-5-5L148.4,305.5L148.4,305.5z"/>
	<path d="M152.4,315.5h-13v2h9c0,0,0,0,0,0h3.9c0,0,0.1,0,0.1,0c1.7,0,3,1.3,3,3s-1.3,3-3,3v2c2.8,0,5-2.2,5-5
		S155.2,315.5,152.4,315.5z"/>
	<rect x="113.4" y="311.5" width="4" height="2"/>
</g>
<path d="M-76.2-83.6c6.9,1.3,12.2,7.4,12.2,14.7c0,8.3-6.7,15-15,15c-6.8,0-12.5-4.5-14.4-10.7c1.4,0.5,2.9,0.7,4.4,0.7
	c7.7,0,14-6.3,14-14C-74.9-79.9-75.4-81.8-76.2-83.6 M-78.9-85.9c-0.3,0-0.7,0-1,0.1c1.9,2.1,3,4.9,3,7.9c0,6.6-5.4,12-12,12
	c-2.6,0-5-0.8-7-2.2c0.4,9,7.8,16.3,17,16.3c9.4,0,17-7.6,17-17S-69.6-85.9-78.9-85.9L-78.9-85.9z"/>
<g>
	<path d="M-182.3-80.9c-7.2,0-13,5.8-13,13c0,7.2,5.8,13,13,13s13-5.8,13-13C-169.3-75.1-175.2-80.9-182.3-80.9z M-182.3-56.9
		c-6.1,0-11-4.9-11-11c0-6.1,4.9-11,11-11s11,4.9,11,11C-171.3-61.8-176.3-56.9-182.3-56.9z"/>
	<rect x="-183.3" y="-93.9" width="2" height="10"/>
	<rect x="-183.3" y="-51.9" width="2" height="10"/>
	<rect x="-208.3" y="-68.9" width="10" height="2"/>
	<rect x="-166.3" y="-68.9" width="10" height="2"/>
	<rect x="-172.9" y="-83.6" transform="matrix(0.7071 -0.7071 0.7071 0.7071 9.2966 -142.7335)" width="10.4" height="2"/>
	<rect x="-202.3" y="-54.2" transform="matrix(0.7071 -0.7071 0.7071 0.7071 -20.1106 -154.9167)" width="10.4" height="2"/>
	<rect x="-198.1" y="-87.8" transform="matrix(0.7071 -0.7071 0.7071 0.7071 0.6804 -163.5242)" width="2" height="10.4"/>
	<rect x="-168.6" y="-58.4" transform="matrix(0.7071 -0.7072 0.7072 0.7071 -11.5103 -134.1208)" width="2" height="10.4"/>
</g>
<g>
	<rect x="215.8" y="277" width="2" height="8"/>
	<rect x="196.9" y="296" width="8" height="2"/>
	<rect x="204.6" y="281.8" transform="matrix(0.7071 -0.7071 0.7071 0.7071 -141.8427 229.0502)" width="2" height="8"/>
	<rect x="224.1" y="284.7" transform="matrix(0.7071 -0.7071 0.7071 0.7071 -135.2492 244.9766)" width="8" height="2"/>
	<path d="M230.9,319L230.9,319l-12.5,0l-0.6,0c-4.9,0-8.8-4-8.8-8.9c0-4.9,4-8.9,8.9-8.9c0.1,0,0.3,0,0.4,0l0.1,0l1.3,0.1l0.6-1.2
		c2.2-4.4,6.6-7.1,11.5-7.1c5.9,0,11.1,4.1,12.5,9.8h2.1c-1.4-6.7-7.4-11.8-14.6-11.8c-2.2,0-4.3,0.5-6.1,1.3
		c-1.7-3.2-5-5.4-8.9-5.4c-5.5,0-10,4.5-10,10c0,2.5,0.9,4.7,2.4,6.4c-1.4,1.8-2.3,4.1-2.3,6.7c0,6,4.8,10.8,10.8,10.9v0h13.1v0
		c2.2,0,4,1.8,4,4s-1.8,4-4,4v2c3.3,0,6-2.7,6-6C236.9,321.7,234.2,319,230.9,319z M216.8,289c3.1,0,5.8,1.8,7.1,4.3
		c-2.3,1.4-4.2,3.5-5.4,5.9c-0.2,0-0.5,0-0.7,0c-2.8,0-5.3,1-7.2,2.7c-1.1-1.4-1.8-3.1-1.8-5C208.8,292.6,212.4,289,216.8,289z"/>
	<path d="M234.9,315h-10v2h10c3.3,0,6-2.7,6-6c0-3.3-2.7-6-6-6v2c2.2,0,4,1.8,4,4S237.1,315,234.9,315z"/>
	<path d="M242.9,315L242.9,315l0,2h5.5v-0.1c2.5-0.3,4.5-2.4,4.5-4.9c0-2.8-2.2-5-5-5v2c1.7,0,3,1.3,3,3s-1.3,3-3,3c0,0-0.1,0-0.1,0
		L242.9,315C242.9,315,242.9,315,242.9,315z"/>
	<path d="M251.9,319h-13v2h9c0,0,0,0,0,0h3.9c0,0,0.1,0,0.1,0c1.7,0,3,1.3,3,3s-1.3,3-3,3v2c2.8,0,5-2.2,5-5S254.6,319,251.9,319z"
		/>
	<rect x="218.9" y="315" width="4" height="2"/>
</g>
<g>
	<path d="M330.8,317L330.8,317l-12.5,0l-0.6,0c-4.9,0-8.8-4-8.8-8.9c0-4.9,4-8.9,8.9-8.9c0.1,0,0.3,0,0.4,0l0.1,0l1.3,0.1l0.6-1.2
		c2.2-4.4,6.6-7.1,11.5-7.1c5.9,0,11.1,4.1,12.5,9.8h2.1c-1.4-6.7-7.4-11.8-14.6-11.8c-1.8,0-3.5,0.3-5.1,0.9c-0.9-5.1-5.4-9-10.8-9
		c-0.4,0-0.8,0-1.2,0.1c0.7,1.1,1.2,2.4,1.2,3.9c0,3.9-3.1,7-7,7c-1.4,0-2.8-0.4-3.9-1.2c0,0.4-0.1,0.8-0.1,1.2c0,3.7,1.9,7,4.7,9
		c-1.7,1.9-2.7,4.4-2.7,7.1c0,6,4.8,10.8,10.8,10.9v0h13.1v0c2.2,0,4,1.8,4,4s-1.8,4-4,4v2c3.3,0,6-2.7,6-6
		C336.8,319.7,334.1,317,330.8,317z M307,293.8c0.6,0.1,1.2,0.2,1.8,0.2c5,0,9-4,9-9c0-0.6-0.1-1.2-0.2-1.8c3.7,0.8,6.6,3.8,7.1,7.7
		c-2.7,1.4-4.9,3.7-6.3,6.4c-0.2,0-0.5,0-0.7,0c-2.5,0-4.9,0.9-6.7,2.3C309,298.3,307.5,296.2,307,293.8z"/>
	<path d="M334.8,313h-10v2h10c3.3,0,6-2.7,6-6c0-3.3-2.7-6-6-6v2c2.2,0,4,1.8,4,4S337,313,334.8,313z"/>
	<path d="M342.8,313L342.8,313l0,2h5.5v-0.1c2.5-0.3,4.5-2.4,4.5-4.9c0-2.8-2.2-5-5-5v2c1.7,0,3,1.3,3,3s-1.3,3-3,3c0,0-0.1,0-0.1,0
		L342.8,313C342.8,313,342.8,313,342.8,313z"/>
	<path d="M351.8,317h-13v2h9c0,0,0,0,0,0h3.9c0,0,0.1,0,0.1,0c1.7,0,3,1.3,3,3s-1.3,3-3,3v2c2.8,0,5-2.2,5-5S354.6,317,351.8,317z"
		/>
	<rect x="318.8" y="313" width="4" height="2"/>
</g>
<g>
	<rect x="431.7" y="279.5" width="2" height="10"/>
	<rect x="406.7" y="304.5" width="10" height="2"/>
	<rect x="442.2" y="289.8" transform="matrix(0.7071 -0.7071 0.7071 0.7071 -74.6045 401.5461)" width="10.4" height="2"/>
	<rect x="417" y="285.6" transform="matrix(0.7071 -0.7071 0.7071 0.7071 -83.2207 380.7555)" width="2" height="10.4"/>
	<path d="M436.7,319.5h-24v2h24c2.2,0,4,1.8,4,4s-1.8,4-4,4v2c3.3,0,6-2.7,6-6S440,319.5,436.7,319.5z"/>
	<path d="M448.7,315.5L448.7,315.5l0,2h5.5v-0.1c2.5-0.3,4.5-2.4,4.5-4.9c0-2.8-2.2-5-5-5v2c1.7,0,3,1.3,3,3s-1.3,3-3,3
		c0,0-0.1,0-0.1,0L448.7,315.5C448.7,315.5,448.7,315.5,448.7,315.5z"/>
	<path d="M457.7,319.5h-13v2h9c0,0,0,0,0,0h3.9c0,0,0.1,0,0.1,0c1.7,0,3,1.3,3,3s-1.3,3-3,3v2c2.8,0,5-2.2,5-5
		S460.5,319.5,457.7,319.5z"/>
	<path d="M424.4,315.5h-11.7v2h12h0.8h15.2c3.3,0,6-2.7,6-6c0-3.3-2.7-6-6-6v2c2.2,0,4,1.8,4,4s-1.8,4-4,4h-12.5
		c-3.8-1.7-6.5-5.6-6.5-10c0-6.1,4.9-11,11-11c5.4,0,9.9,3.9,10.8,9h2c-1-6.2-6.3-11-12.8-11c-7.2,0-13,5.8-13,13
		C419.7,309.6,421.5,313.2,424.4,315.5z"/>
</g>
<g>
	<path d="M536.9,313h-24v2h24c2.2,0,4,1.8,4,4s-1.8,4-4,4v2c3.3,0,6-2.7,6-6C542.9,315.7,540.2,313,536.9,313z"/>
	<path d="M554.4,311L554.4,311c2.5-0.3,4.5-2.4,4.5-5c0-2.8-2.2-5-5-5v2c1.7,0,3,1.3,3,3s-1.3,3-3,3c0,0-0.1,0-0.1,0h-4.9
		c0,0,0,0,0,0h0v2H554.4z"/>
	<path d="M557.9,313h-13v2h9c0,0,0,0,0,0h3.9c0,0,0.1,0,0.1,0c1.7,0,3,1.3,3,3s-1.3,3-3,3v2c2.8,0,5-2.2,5-5S560.7,313,557.9,313z"
		/>
	<path d="M525.8,311h15.2c3.3,0,6-2.7,6-6c0-3.3-2.7-6-6-6v2c2.2,0,4,1.8,4,4s-1.8,4-4,4h-12.6c-2.6-1.2-4.7-3.3-5.7-6
		c0.8,0.2,1.7,0.3,2.6,0.3c6.2,0,11.2-5,11.2-11.2c0-1.3-0.2-2.5-0.6-3.7c4,1.1,7.2,4.5,7.9,8.6h2c-1-6.2-6.3-11-12.8-11
		c-0.3,0-0.5,0-0.8,0c1.4,1.6,2.3,3.7,2.3,6.1c0,5.1-4.1,9.2-9.2,9.2c-2,0-3.8-0.6-5.3-1.7c0.2,3.8,2,7.2,4.7,9.4h-11.7v2h12
		L525.8,311L525.8,311z"/>
</g>
<g>
	<path d="M-182.8,398.2h-20c-1.1,0-2-0.9-2-2s0.9-2,2-2h3.4h0.6v-2h-4c-2.2,0-4,1.8-4,4s1.8,4,4,4h20c2.2,0,4,1.8,4,4s-1.8,4-4,4v2
		c3.3,0,6-2.7,6-6S-179.5,398.2-182.8,398.2z"/>
	<path d="M-180.8,382.2v2c2.2,0,4,1.8,4,4s-1.8,4-4,4h-16v2h16c3.3,0,6-2.7,6-6C-174.8,384.9-177.5,382.2-180.8,382.2z"/>
	<path d="M-174.8,394.2v2h5.5v-0.1c2.5-0.3,4.5-2.4,4.5-4.9c0-2.8-2.2-5-5-5v2c1.7,0,3,1.3,3,3s-1.3,3-3,3c0,0-0.1,0-0.1,0
		L-174.8,394.2C-174.8,394.2-174.8,394.2-174.8,394.2L-174.8,394.2z"/>
	<path d="M-163.8,398.2h-11v2h7c0,0,0,0,0,0h3.9c0,0,0.1,0,0.1,0c1.7,0,3,1.3,3,3s-1.3,3-3,3v2c2.8,0,5-2.2,5-5
		S-161.1,398.2-163.8,398.2z"/>
</g>
<path d="M353.4,384.5L353.4,384.5l-38.4,0c-1.1,0-2-0.9-2-2s0.9-2,2-2h33c2.8,0,5-2.2,5-5s-2.2-5-5-5h-37.9v0c0,0-0.1,0-0.1,0
	c-2.8,0-5,2.2-5,5s2.2,5,5,5v-2c-1.7,0-3-1.3-3-3s1.3-3,3-3h0.1h3.9h34c1.7,0,3,1.3,3,3s-1.3,3-3,3h-33c-2.2,0-4,1.8-4,4s1.8,4,4,4
	h38c1.1,0,2,0.9,2,2s-0.9,2-2,2h-32c-2.2,0-4,1.8-4,4s1.8,4,4,4h22c1.1,0,2,0.9,2,2s-0.9,2-2,2h-24v0c-2.2,0-4,1.8-4,4s1.8,4,4,4v0
	h12c1.1,0,2,0.9,2,2s-0.9,2-2,2h-2c-2.2,0-4,1.8-4,4s1.8,4,4,4v-2c-1.1,0-2-0.9-2-2s0.9-2,2-2h2c2.2,0,4-1.8,4-4s-1.8-4-4-4h-12
	c-1.1,0-2-0.9-2-2s0.9-2,2-2h24c2.2,0,4-1.8,4-4c0-2.2-1.7-3.9-3.8-4v0h-22.2c-1.1,0-2-0.9-2-2s0.9-2,2-2h32c2.2,0,4-1.8,4-4
	C357.1,386.4,355.5,384.7,353.4,384.5z"/>
<path d="M538.9,375.2v-2h-2v2c-13,0.5-23.5,11-24,24h1.7c1.1-1.2,2.7-2,4.6-2c2.3,0,4.2,1.2,5.3,3h1.8c1.1-1.8,3.1-3,5.3-3
	c2.2,0,4.1,1.1,5.2,2.9v15.1c0,2.2,1.8,4,4,4s4-1.8,4-4h-2c0,1.1-0.9,2-2,2s-2-0.9-2-2V400c1.1-1.7,3-2.9,5.2-2.9
	c2.3,0,4.2,1.2,5.3,3h1.8c1.1-1.8,3.1-3,5.3-3c1.8,0,3.4,0.8,4.6,2h1.7C562.3,386.2,551.9,375.7,538.9,375.2z M556.6,395.2
	c-2.5,0-4.7,1.1-6.2,2.9c-1.5-1.8-3.8-2.9-6.2-2.9s-4.7,1.1-6.2,2.9c-1.5-1.8-3.8-2.9-6.2-2.9s-4.7,1.1-6.2,2.9
	c-1.5-1.8-3.8-2.9-6.2-2.9c-1.4,0-2.7,0.4-3.9,1c1.9-10.8,11.3-19,22.6-19s20.7,8.2,22.6,19C559.3,395.5,558,395.2,556.6,395.2z"/>
<g>
	<path d="M133.6,499.5v-17.1c0-2.8-2.2-5-5-5s-5,2.2-5,5v17.1c-1.2,1.3-2,3-2,4.9c0,3.9,3.1,7,7,7s7-3.1,7-7
		C135.6,502.5,134.8,500.8,133.6,499.5z M128.6,509.4c-2.8,0-5-2.2-5-5c0-1.3,0.5-2.6,1.4-3.5l0.6-0.6v-0.8v-17.1c0-1.7,1.3-3,3-3
		c1.7,0,3,1.3,3,3v17.1v0.8l0.6,0.6c0.9,0.9,1.4,2.2,1.4,3.5C133.6,507.1,131.3,509.4,128.6,509.4z"/>
	<path d="M129.6,501.6v-15.2h-2v15.2c-1.2,0.4-2,1.5-2,2.8c0,1.7,1.3,3,3,3c1.7,0,3-1.3,3-3C131.6,503.1,130.7,502,129.6,501.6z
		 M128.6,505.4c-0.6,0-1-0.5-1-1s0.5-1,1-1s1,0.5,1,1S129.1,505.4,128.6,505.4z"/>
</g>
<g>
	<path d="M233.4,499.5v-17.1c0-2.8-2.2-5-5-5s-5,2.2-5,5v17.1c-1.2,1.3-2,3-2,4.9c0,3.9,3.1,7,7,7s7-3.1,7-7
		C235.4,502.5,234.6,500.8,233.4,499.5z M228.4,509.4c-2.8,0-5-2.2-5-5c0-1.3,0.5-2.6,1.4-3.5l0.6-0.6v-0.8v-17.1c0-1.7,1.3-3,3-3
		s3,1.3,3,3v17.1v0.8l0.6,0.6c0.9,0.9,1.4,2.2,1.4,3.5C233.4,507.1,231.1,509.4,228.4,509.4z"/>
	<path d="M229.4,501.6v-20.2h-2v20.2c-1.2,0.4-2,1.5-2,2.8c0,1.7,1.3,3,3,3c1.7,0,3-1.3,3-3C231.4,503.1,230.5,502,229.4,501.6z
		 M228.4,505.4c-0.6,0-1-0.5-1-1s0.5-1,1-1s1,0.5,1,1S228.9,505.4,228.4,505.4z"/>
</g>
<g>
	<path d="M30.5,499.5v-17.1c0-2.8-2.2-5-5-5s-5,2.2-5,5v17.1c-1.2,1.3-2,3-2,4.9c0,3.9,3.1,7,7,7s7-3.1,7-7
		C32.5,502.5,31.7,500.8,30.5,499.5z M25.5,509.4c-2.8,0-5-2.2-5-5c0-1.3,0.5-2.6,1.4-3.5l0.6-0.6v-0.8v-17.1c0-1.7,1.3-3,3-3
		s3,1.3,3,3v17.1v0.8l0.6,0.6c0.9,0.9,1.4,2.2,1.4,3.5C30.5,507.1,28.2,509.4,25.5,509.4z"/>
	<path d="M26.5,501.6v-10.2h-2v10.2c-1.2,0.4-2,1.5-2,2.8c0,1.7,1.3,3,3,3c1.7,0,3-1.3,3-3C28.5,503.1,27.6,502,26.5,501.6z
		 M25.5,505.4c-0.6,0-1-0.5-1-1s0.5-1,1-1s1,0.5,1,1S26,505.4,25.5,505.4z"/>
</g>
<g>
	<path d="M-73.2,499.5v-17.1c0-2.8-2.2-5-5-5s-5,2.2-5,5v17.1c-1.2,1.3-2,3-2,4.9c0,3.9,3.1,7,7,7s7-3.1,7-7
		C-71.2,502.5-72,500.8-73.2,499.5z M-78.2,509.4c-2.8,0-5-2.2-5-5c0-1.3,0.5-2.6,1.4-3.5l0.6-0.6v-0.8v-17.1c0-1.7,1.3-3,3-3
		s3,1.3,3,3v17.1v0.8l0.6,0.6c0.9,0.9,1.4,2.2,1.4,3.5C-73.2,507.1-75.4,509.4-78.2,509.4z"/>
	<path d="M-77.2,501.6v-5.2h-2v5.2c-1.2,0.4-2,1.5-2,2.8c0,1.7,1.3,3,3,3c1.7,0,3-1.3,3-3C-75.2,503.1-76,502-77.2,501.6z
		 M-78.2,505.4c-0.6,0-1-0.5-1-1s0.5-1,1-1s1,0.5,1,1S-77.6,505.4-78.2,505.4z"/>
</g>
<g>
	<path d="M-177.8,499.5v-17.1c0-2.8-2.2-5-5-5s-5,2.2-5,5v17.1c-1.2,1.3-2,3-2,4.9c0,3.9,3.1,7,7,7s7-3.1,7-7
		C-175.8,502.5-176.6,500.8-177.8,499.5z M-182.8,509.4c-2.8,0-5-2.2-5-5c0-1.3,0.5-2.6,1.4-3.5l0.6-0.6v-0.8v-17.1c0-1.7,1.3-3,3-3
		s3,1.3,3,3v17.1v0.8l0.6,0.6c0.9,0.9,1.4,2.2,1.4,3.5C-177.8,507.1-180.1,509.4-182.8,509.4z"/>
	<path d="M-182.8,501.4c-1.7,0-3,1.3-3,3c0,1.7,1.3,3,3,3c1.7,0,3-1.3,3-3C-179.8,502.7-181.2,501.4-182.8,501.4z M-182.8,505.4
		c-0.6,0-1-0.5-1-1s0.5-1,1-1s1,0.5,1,1S-182.3,505.4-182.8,505.4z"/>
</g>
<g>
	<path d="M322.1,479.7c-2.2,0-4,1.8-4,4c0,2.2,1.8,4,4,4c2.2,0,4-1.8,4-4C326.1,481.5,324.3,479.7,322.1,479.7z M322.1,485.7
		c-1.1,0-2-0.9-2-2s0.9-2,2-2s2,0.9,2,2S323.2,485.7,322.1,485.7z"/>
	<path d="M336.1,507.7c-4.4,0-8-3.6-8-8v-4c0-4.4,3.6-8,8-8c2.7,0,5.1,1.4,6.6,3.4l1.4-1.4c-1.8-2.4-4.7-4-8-4c-5.5,0-10,4.5-10,10
		v4c0,5.5,4.5,10,10,10c3.3,0,6.2-1.6,8-4l-1.4-1.4C341.2,506.3,338.8,507.7,336.1,507.7z"/>
</g>
<g>
	<path d="M426.8,479.6c-2.2,0-4,1.8-4,4c0,2.2,1.8,4,4,4c2.2,0,4-1.8,4-4C430.8,481.4,429,479.6,426.8,479.6z M426.8,485.6
		c-1.1,0-2-0.9-2-2s0.9-2,2-2s2,0.9,2,2S427.9,485.6,426.8,485.6z"/>
	<polygon points="446.6,487.7 446.6,485.7 434.6,485.7 432.6,485.7 432.6,509.7 434.6,509.7 434.6,497.7 442.6,497.7 442.6,495.7 
		434.6,495.7 434.6,487.7 	"/>
</g>
<g>
	<path d="M537.9,483.4c-7.2,0-13,5.8-13,13s5.8,13,13,13s13-5.8,13-13S545,483.4,537.9,483.4z M537.9,507.4c-6.1,0-11-4.9-11-11
		s4.9-11,11-11s11,4.9,11,11S543.9,507.4,537.9,507.4z"/>
	<path d="M533.6,500.6l6.4-2.1l2.1-6.4l-6.4,2.1L533.6,500.6z M537.3,495.9l1.6-0.5l-0.5,1.6l-1.6,0.5L537.3,495.9z"/>
</g>
<g>
	<path d="M-182.8,573.9c-7.2,0-13,5.8-13,13s5.8,13,13,13s13-5.8,13-13S-175.7,573.9-182.8,573.9z M-182.8,597.9
		c-6.1,0-11-4.9-11-11c0-6.1,4.9-11,11-11s11,4.9,11,11C-171.8,593-176.8,597.9-182.8,597.9z"/>
	<path d="M-180.3,585.3l-2.6-4.4l-2.5,4.3h0c-0.3,0.5-0.5,1-0.5,1.6c0,1.7,1.3,3,3,3s3-1.3,3-3C-179.9,586.3-180,585.8-180.3,585.3
		L-180.3,585.3z M-182.9,587.9c-0.6,0-1-0.4-1-1c0-0.2,0.1-0.4,0.2-0.5l0.9-1.4l0.8,1.4c0.1,0.2,0.1,0.3,0.1,0.5
		C-181.9,587.4-182.3,587.9-182.9,587.9z"/>
</g>
<g>
	<path d="M-78.1,573.9c-7.2,0-13,5.8-13,13s5.8,13,13,13s13-5.8,13-13S-70.9,573.9-78.1,573.9z M-78.1,597.9c-6.1,0-11-4.9-11-11
		c0-6.1,4.9-11,11-11s11,4.9,11,11C-67.1,593-72,597.9-78.1,597.9z"/>
	<path d="M-76.5,584.3c-0.5-0.3-1-0.5-1.6-0.5c-1.7,0-3,1.3-3,3c0,1.7,1.3,3,3,3c0.6,0,1.1-0.2,1.5-0.4v0l4.4-2.6L-76.5,584.3
		L-76.5,584.3L-76.5,584.3z M-77.6,587.7c-0.2,0.1-0.3,0.1-0.5,0.1c-0.6,0-1-0.4-1-1c0-0.6,0.4-1,1-1c0.2,0,0.4,0.1,0.5,0.2l1.4,0.9
		L-77.6,587.7z"/>
</g>
<g>
	<path d="M25,573.9c-7.2,0-13,5.8-13,13s5.8,13,13,13s13-5.8,13-13S32.2,573.9,25,573.9z M25,597.9c-6.1,0-11-4.9-11-11
		c0-6.1,4.9-11,11-11s11,4.9,11,11C36,593,31.1,597.9,25,597.9z"/>
	<path d="M25,583.9c-1.7,0-3,1.3-3,3c0,0.6,0.2,1.1,0.4,1.5h0l2.6,4.4l2.5-4.3h0c0.3-0.5,0.5-1,0.5-1.6
		C28,585.2,26.6,583.9,25,583.9z M25.8,587.4l-0.9,1.4l-0.8-1.4c-0.1-0.2-0.1-0.3-0.1-0.5c0-0.6,0.4-1,1-1s1,0.4,1,1
		C26,587,25.9,587.2,25.8,587.4z"/>
</g>
<g>
	<path d="M128.4,573.9c-7.2,0-13,5.8-13,13s5.8,13,13,13s13-5.8,13-13S135.6,573.9,128.4,573.9z M128.4,597.9c-6.1,0-11-4.9-11-11
		c0-6.1,4.9-11,11-11s11,4.9,11,11C139.4,593,134.5,597.9,128.4,597.9z"/>
	<path d="M128.4,583.9c-0.6,0-1.1,0.2-1.5,0.4v0l-4.4,2.6l4.3,2.5v0c0.5,0.3,1,0.5,1.6,0.5c1.7,0,3-1.3,3-3
		C131.4,585.2,130,583.9,128.4,583.9z M128.4,587.9c-0.2,0-0.4-0.1-0.5-0.2l-1.4-0.9l1.4-0.8c0.2-0.1,0.3-0.1,0.5-0.1
		c0.6,0,1,0.4,1,1C129.4,587.4,128.9,587.9,128.4,587.9z"/>
</g>
<g>
	<rect x="-79.7" y="377.2" width="2" height="10"/>
	<rect x="-69.3" y="387.5" transform="matrix(0.7071 -0.7071 0.7071 0.7071 -293.4474 68.4922)" width="10.4" height="2"/>
	<rect x="-94.5" y="383.3" transform="matrix(0.7071 -0.7071 0.7071 0.7071 -302.0629 47.7018)" width="2" height="10.4"/>
	<polygon points="-85.4,406.4 -84,407.8 -79.7,403.6 -79.7,413.2 -77.7,413.2 -77.7,403.6 -73.5,407.8 -72.1,406.4 -78.7,399.8 	"/>
	<path d="M-65.7,403.2C-65.7,403.2-65.7,403.2-65.7,403.2c0-7.2-5.8-13-13-13s-13,5.8-13,13c0,0,0,0,0,0h-13v2h18v-2h-3c0,0,0,0,0,0
		c0-6.1,4.9-11,11-11s11,4.9,11,11c0,0,0,0,0,0h-3v2h18v-2H-65.7z"/>
</g>
<g>
	<rect x="24" y="376" width="2" height="10"/>
	<rect x="34.5" y="386.3" transform="matrix(0.7071 -0.7071 0.7071 0.7071 -262.2207 141.5027)" width="10.4" height="2"/>
	<rect x="9.3" y="382.1" transform="matrix(0.7071 -0.7071 0.7071 0.7071 -270.837 120.712)" width="2" height="10.4"/>
	<polygon points="26,410.5 26,400 24,400 24,410.5 19.7,406.3 18.3,407.7 25,414.4 31.7,407.7 30.2,406.3 	"/>
	<path d="M38,402C38,402,38,402,38,402c0-7.2-5.8-13-13-13s-13,5.8-13,13c0,0,0,0,0,0H-1v2h22v-2h-7c0,0,0,0,0,0c0-6.1,4.9-11,11-11
		s11,4.9,11,11c0,0,0,0,0,0h-7v2h22v-2H38z"/>
</g>
<g>
	<polygon points="228.4,410 228.4,395.6 226.4,395.6 226.4,410 222.1,405.8 220.7,407.2 227.4,413.8 234,407.2 232.6,405.8 	"/>
	<path d="M244,390.7c-1.6-7.4-8.2-13-16.1-13c-6.4,0-12,3.7-14.7,9c-0.3,0-0.5,0-0.8,0c-6.6,0-12,5.4-12,12c0,6.6,5.3,12,11.9,12v0
		h6.1v-2h-5.6l-0.4,0c-5.5,0-9.9-4.5-9.9-10c0-5.5,4.5-10,10-10c0.2,0,0.3,0,0.5,0l0.1,0l1.3,0.1l0.6-1.2c2.5-4.9,7.4-7.9,12.9-7.9
		c6.8,0,12.8,4.8,14.2,11.4l0.3,1.5l1.5,0.1c4.2,0.3,7.5,3.8,7.5,8c0,4.4-3.6,8-8,8c-0.1,0-0.1,0-0.1,0l-2,0h-4.9v2h6.9v0
		c0,0,0.1,0,0.1,0c5.5,0,10-4.5,10-10C253.4,395.3,249.2,391,244,390.7z"/>
</g>
<g>
	<polygon points="134.3,406.8 135.8,405.4 129.1,398.7 122.4,405.4 123.8,406.8 128.1,402.6 128.1,415.1 130.1,415.1 130.1,402.6 	
		"/>
	<path d="M145.7,392.2c-1.6-7.4-8.2-13-16.1-13c-6.4,0-12,3.7-14.7,9c-0.3,0-0.5,0-0.8,0c-6.6,0-12,5.4-12,12c0,6.6,5.3,12,11.9,12
		v0h10.1v-2h-9.6l-0.4,0c-5.5,0-9.9-4.5-9.9-10c0-5.5,4.5-10,10-10c0.2,0,0.3,0,0.5,0l0.1,0l1.3,0.1l0.6-1.2
		c2.5-4.9,7.4-7.9,12.9-7.9c6.8,0,12.8,4.8,14.2,11.4l0.3,1.5l1.5,0.1c4.2,0.3,7.5,3.8,7.5,8c0,4.4-3.6,8-8,8c-0.1,0-0.1,0-0.1,0
		l-2,0h-8.9v2h10.9v0c0,0,0.1,0,0.1,0c5.5,0,10-4.5,10-10C155.1,396.9,150.9,392.6,145.7,392.2z"/>
</g>
<g>
	<path d="M348.2,202.7c-1.6-7.4-8.2-13-16.1-13c-6.4,0-12,3.7-14.7,9c-0.3,0-0.5,0-0.8,0c-6.6,0-12,5.4-12,12c0,6.6,5.3,12,11.9,12
		v0h2.1v-2H317l-0.4,0c-5.5,0-9.9-4.5-9.9-10c0-5.5,4.5-10,10-10c0.2,0,0.3,0,0.5,0l0.1,0l1.3,0.1l0.6-1.2c2.5-4.9,7.4-7.9,12.9-7.9
		c6.8,0,12.8,4.8,14.2,11.4l0.3,1.5l1.5,0.1c4.2,0.3,7.5,3.8,7.5,8c0,4.4-3.6,8-8,8c0,0-0.1,0-0.1,0l-2,0h-0.9v2h2.9v0
		c0,0,0.1,0,0.1,0c5.5,0,10-4.5,10-10C357.6,207.4,353.4,203.1,348.2,202.7z"/>
	<polygon points="326.6,221.7 326.6,219.1 328.7,220.3 329.4,219.1 327,217.7 329.4,216.3 328.7,215.1 326.6,216.3 326.6,213.7 
		324.6,213.7 324.6,216.4 322.3,215.1 321.6,216.3 324.1,217.7 321.6,219.1 322.3,220.3 324.6,219 324.6,221.7 	"/>
	<polygon points="331.7,226.1 329.6,227.3 329.6,224.7 327.6,224.7 327.6,227.3 325.3,226.1 324.6,227.3 327.1,228.7 324.6,230.1 
		325.3,231.3 327.6,230 327.6,232.7 329.6,232.7 329.6,230.1 331.7,231.3 332.4,230.1 330,228.7 332.4,227.3 	"/>
	<polygon points="340.8,219.1 338.6,220.3 338.6,217.7 336.6,217.7 336.6,220.4 334.3,219.1 333.6,220.3 336.1,221.7 333.6,223.1 
		334.3,224.3 336.6,223 336.6,225.7 338.6,225.7 338.6,223.1 340.8,224.3 341.4,223.1 339,221.7 341.4,220.3 	"/>
</g>
<g>
	<rect x="423.7" y="184.7" width="2" height="8"/>
	<rect x="404.7" y="203.6" width="8" height="2"/>
	<rect x="412.4" y="189.3" transform="matrix(0.7071 -0.7071 0.7071 0.7071 -15.6259 348.9215)" width="2" height="8"/>
	<rect x="431.9" y="192.3" transform="matrix(0.7071 -0.7071 0.7071 0.7071 -9.0324 364.8479)" width="8" height="2"/>
	<path d="M454.2,210.5c-1.4-6.7-7.4-11.8-14.6-11.8c-2.2,0-4.3,0.5-6.1,1.3c-1.7-3.2-5-5.4-8.9-5.4c-5.5,0-10,4.5-10,10
		c0,2.5,0.9,4.7,2.4,6.4c-1.4,1.8-2.3,4.1-2.3,6.7c0,6,4.8,10.8,10.8,10.9v0h1.2v-2H426l-0.5,0c-4.9,0-8.8-4-8.8-8.9
		c0-4.9,4-8.9,8.9-8.9c0.1,0,0.3,0,0.4,0l0.1,0l1.3,0.1l0.6-1.2c2.2-4.4,6.6-7.1,11.5-7.1c6.1,0,11.4,4.3,12.6,10.2l0.3,1.5l1.5,0.1
		c3.7,0.2,6.6,3.3,6.6,7c0,3.9-3.1,7-7,7.1c0,0-0.1,0-0.1,0l-1.9,0v2h1.8v0c0,0,0.1,0,0.1,0c5,0,9.1-4.1,9.1-9.1
		C462.7,214.7,459,210.8,454.2,210.5z M426.3,206.9c-0.2,0-0.5,0-0.7,0c-2.8,0-5.3,1-7.2,2.7c-1.1-1.4-1.8-3.1-1.8-5
		c0-4.4,3.6-8,8-8c3.1,0,5.8,1.8,7.1,4.3C429.4,202.4,427.5,204.4,426.3,206.9z"/>
	<polygon points="433.7,227.6 433.7,224.9 435.9,226.2 436.6,224.9 434.1,223.6 436.6,222.2 435.9,220.9 433.7,222.2 433.7,219.6 
		431.7,219.6 431.7,222.2 429.5,220.9 428.8,222.2 431.2,223.6 428.8,224.9 429.5,226.2 431.7,224.9 431.7,227.6 	"/>
	<polygon points="438.9,231.9 436.7,233.1 436.7,230.6 434.7,230.6 434.7,233.2 432.4,231.9 431.8,233.1 434.2,234.5 431.8,235.9 
		432.4,237.1 434.7,235.9 434.7,238.6 436.7,238.6 436.7,235.9 438.9,237.1 439.6,235.9 437.1,234.5 439.6,233.1 	"/>
	<polygon points="447.9,224.9 445.7,226.2 445.7,223.6 443.7,223.6 443.7,226.2 441.5,224.9 440.8,226.2 443.2,227.6 440.8,228.9 
		441.5,230.2 443.7,228.9 443.7,231.6 445.7,231.6 445.7,228.9 447.9,230.2 448.6,228.9 446.1,227.6 448.6,226.2 	"/>
</g>
<g>
	<path d="M554.4,207.5c-1.4-6.7-7.4-11.8-14.6-11.8c-1.8,0-3.5,0.3-5.1,0.9c-0.9-5.1-5.4-9-10.8-9c-0.4,0-0.8,0-1.2,0.1
		c0.7,1.1,1.2,2.4,1.2,3.9c0,3.9-3.1,7-7,7c-1.4,0-2.8-0.4-3.9-1.2c0,0.4-0.1,0.8-0.1,1.2c0,3.7,1.8,7,4.7,9
		c-1.7,1.9-2.7,4.4-2.7,7.1c0,6,4.8,10.8,10.8,10.9v0h1.2v-2h-0.7l-0.5,0c-4.9,0-8.8-4-8.8-8.9c0-4.9,4-8.9,8.9-8.9
		c0.2,0,0.3,0,0.4,0l0.1,0l1.3,0.1l0.6-1.2c2.2-4.4,6.6-7.1,11.5-7.1c6.1,0,11.4,4.3,12.6,10.2l0.3,1.5l1.5,0.1
		c3.7,0.2,6.6,3.3,6.6,7c0,3.9-3.1,7-7,7.1c0,0-0.1,0-0.1,0l-1.9,0v2h1.8v0c0,0,0.1,0,0.1,0c5,0,9.1-4.1,9.1-9.1
		C562.9,211.7,559.1,207.8,554.4,207.5z M526.5,203.9c-0.2,0-0.5,0-0.7,0c-2.5,0-4.9,0.9-6.7,2.3c-2-1.3-3.5-3.4-4-5.8
		c0.6,0.1,1.2,0.2,1.8,0.2c5,0,9-4,9-9c0-0.6-0.1-1.2-0.2-1.8c3.7,0.8,6.6,3.8,7.1,7.6C530.1,198.9,527.9,201.1,526.5,203.9z"/>
	<polygon points="533.9,224.6 533.9,221.9 536.1,223.2 536.8,221.9 534.3,220.6 536.8,219.2 536.1,217.9 533.9,219.2 533.9,216.6 
		531.9,216.6 531.9,219.2 529.7,217.9 529,219.2 531.5,220.6 529,221.9 529.7,223.2 531.9,221.9 531.9,224.6 	"/>
	<polygon points="539.1,228.9 536.9,230.1 536.9,227.6 534.9,227.6 534.9,230.2 532.7,228.9 532,230.1 534.5,231.5 532,232.9 
		532.7,234.1 534.9,232.9 534.9,235.6 536.9,235.6 536.9,232.9 539.1,234.1 539.8,232.9 537.3,231.5 539.8,230.1 	"/>
	<polygon points="548.1,221.9 545.9,223.2 545.9,220.6 543.9,220.6 543.9,223.2 541.7,221.9 541,223.2 543.5,224.6 541,225.9 
		541.7,227.2 543.9,225.9 543.9,228.6 545.9,228.6 545.9,225.9 548.1,227.2 548.8,225.9 546.3,224.6 548.8,223.2 	"/>
</g>
<rect x="-61.9" y="-360.3" class="st1" width="473" height="180.9"/>
<text transform="matrix(1 0 0 1 117.6929 -288.8843)" style="font-family:'Helvetica'; font-size:100px; letter-spacing:2;">60</text>
<text transform="matrix(1 0 0 1 18.4249 -228.8843)" style="font-family:'Helvetica'; font-size:48px;">Weather Icons</text>
<text transform="matrix(1 0 0 1 113.9669 -184.8843)" style="font-family:'Helvetica'; font-size:24px;">IOS 7 Style</text>
</svg>
