<?xml version="1.0" encoding="utf-8"?>
<!-- Generator: Adobe Illustrator 25.0.1, SVG Export Plug-In . SVG Version: 6.00 Build 0)  -->
<svg version="1.1" id="Layer_1" xmlns="http://www.w3.org/2000/svg" xmlns:xlink="http://www.w3.org/1999/xlink" x="0px" y="0px"
	 viewBox="0 0 53 44" style="enable-background:new 0 0 53 44;" xml:space="preserve">
<style type="text/css">
	.st0{fill:#FFFFFF;}
	.st1{fill:none;}
</style>
<path d="M237.2,278.5l-1.8,15.1l-0.3,2.2h2.3h6.9l-14.7,18.8l1.8-14.5l0.3-2.2h-2.3h-7L237.2,278.5 M240,271.5l-21.7,28.3h11
	l-2.7,21.7l21.7-27.7h-11L240,271.5L240,271.5z"/>
<path d="M-175.9-183.8c6.8,0,12.7,4.8,14.2,11.4l0.3,1.5l1.5,0.1c4.2,0.3,7.5,3.8,7.5,8c0,4.4-3.6,8-8,8c0,0-0.1,0-0.1,0l-2,0v0
	h-28.3l-0.6,0c-5.5,0-9.9-4.5-9.9-10c0-5.5,4.5-10,10-10c0.2,0,0.3,0,0.5,0l0.1,0l1.3,0.1l0.6-1.2
	C-186.3-180.7-181.3-183.8-175.9-183.8 M-175.9-185.8c-6.4,0-12,3.7-14.7,9c-0.3,0-0.5,0-0.8,0c-6.6,0-12,5.4-12,12
	c0,6.6,5.3,12,11.9,12v0h30.9v0c0,0,0.1,0,0.1,0c5.5,0,10-4.5,10-10c0-5.3-4.1-9.6-9.4-10C-161.3-180.2-167.9-185.8-175.9-185.8
	L-175.9-185.8z"/>
<g>
	<path d="M-52.9-165.3c-1.4-6.7-7.4-11.8-14.6-11.8c-2.2,0-4.3,0.5-6.1,1.3c-1.7-3.2-5-5.4-8.9-5.4c-5.5,0-10,4.5-10,10
		c0,2.5,0.9,4.7,2.4,6.4c-1.4,1.8-2.3,4.1-2.3,6.7c0,6,4.8,10.8,10.8,10.9v0h28v0c0,0,0.1,0,0.1,0c5,0,9.1-4.1,9.1-9.1
		C-44.4-161.1-48.2-165.1-52.9-165.3z M-82.5-179.2c3.1,0,5.8,1.8,7.1,4.3c-2.3,1.4-4.2,3.5-5.4,5.9c-0.2,0-0.5,0-0.7,0
		c-2.8,0-5.3,1-7.2,2.7c-1.1-1.4-1.8-3.1-1.8-5C-90.5-175.6-86.9-179.2-82.5-179.2z M-53.4-149.3c0,0-0.1,0-0.1,0l-2,0v0H-81l-0.6,0
		c-4.9,0-8.8-4-8.8-8.9c0-4.9,4-8.9,8.9-8.9c0.2,0,0.3,0,0.4,0l0.1,0l1.3,0.1l0.6-1.2c2.2-4.4,6.6-7.1,11.5-7.1
		c6.1,0,11.4,4.3,12.7,10.2l0.3,1.5l1.5,0.1c3.7,0.2,6.6,3.3,6.6,7C-46.4-152.4-49.6-149.3-53.4-149.3z"/>
	<rect x="-83.5" y="-191.3" width="2" height="8"/>
	<rect x="-102.5" y="-172.3" width="8" height="2"/>
	<rect x="-94.8" y="-186.5" transform="matrix(0.7071 -0.7071 0.7071 0.7071 101.5734 -119.7511)" width="2" height="8"/>
	<rect x="-75.2" y="-183.5" transform="matrix(0.7071 -0.7071 0.7071 0.7071 108.1668 -103.8247)" width="8" height="2"/>
</g>
<path d="M42.8-169.4c-1.4-6.7-7.4-11.8-14.6-11.8c-1.8,0-3.5,0.3-5.1,0.9c-0.9-5.1-5.4-9-10.8-9c-0.4,0-0.8,0-1.2,0.1
	c0.7,1.1,1.2,2.4,1.2,3.9c0,3.9-3.1,7-7,7c-1.4,0-2.8-0.4-3.9-1.2c0,0.4-0.1,0.8-0.1,1.2c0,3.7,1.8,7,4.7,9
	c-1.7,1.9-2.7,4.4-2.7,7.1c0,6,4.8,10.8,10.8,10.9v0h28v0c0,0,0.1,0,0.1,0c5,0,9.1-4.1,9.1-9.1C51.3-165.2,47.6-169.1,42.8-169.4z
	 M3.5-176.5c0.6,0.1,1.2,0.2,1.8,0.2c5,0,9-4,9-9c0-0.6-0.1-1.2-0.2-1.8c3.7,0.8,6.6,3.8,7.1,7.6c-2.7,1.4-4.9,3.7-6.3,6.4
	c-0.2,0-0.5,0-0.7,0c-2.5,0-4.9,0.9-6.7,2.3C5.5-172,4-174,3.5-176.5z M42.3-153.3c0,0-0.1,0-0.1,0l-2,0v0H14.7l-0.6,0
	c-4.9,0-8.8-4-8.8-8.9c0-4.9,4-8.9,8.9-8.9c0.1,0,0.3,0,0.4,0l0.1,0l1.3,0.1l0.6-1.2c2.2-4.4,6.6-7.1,11.5-7.1
	c6.1,0,11.4,4.3,12.7,10.2l0.3,1.5l1.5,0.1c3.7,0.2,6.6,3.3,6.6,7C49.3-156.5,46.2-153.3,42.3-153.3z"/>
<g>
	<rect x="127.5" y="-160.7" width="2" height="7"/>
	<rect x="135.5" y="-164.7" width="2" height="7"/>
	<rect x="119.5" y="-164.7" width="2" height="7"/>
	<rect x="127.5" y="-150.7" width="2" height="7"/>
	<rect x="135.5" y="-154.7" width="2" height="7"/>
	<rect x="119.5" y="-154.7" width="2" height="7"/>
	<path d="M146.1-177.7c-1.6-7.4-8.2-13-16.1-13c-6.4,0-12,3.7-14.7,9c-0.3,0-0.5,0-0.8,0c-6.6,0-12,5.4-12,12c0,6.6,5.3,12,11.9,12
		v0h2.1v-2h-1.6l-0.4,0c-5.5,0-9.9-4.5-9.9-10c0-5.5,4.5-10,10-10c0.2,0,0.3,0,0.5,0l0.1,0l1.3,0.1l0.6-1.2
		c2.5-4.9,7.4-7.9,12.9-7.9c6.8,0,12.8,4.8,14.2,11.4l0.3,1.5l1.5,0.1c4.2,0.3,7.5,3.8,7.5,8c0,4.4-3.6,8-8,8c-0.1,0-0.1,0-0.1,0
		l-2,0h-2.9v2h4.9v0c0,0,0.1,0,0.1,0c5.5,0,10-4.5,10-10C155.5-173.1,151.3-177.4,146.1-177.7z"/>
</g>
<g>
	<path d="M-56.3-88.4c-1.6-7.4-8.2-13-16.1-13c-6.4,0-12,3.7-14.7,9c-0.3,0-0.5,0-0.8,0c-6.6,0-12,5.4-12,12c0,6.6,5.3,12,11.9,12v0
		h2.1v-2h-1.6l-0.4,0c-5.5,0-9.9-4.5-9.9-10c0-5.5,4.5-10,10-10c0.2,0,0.3,0,0.5,0l0.1,0l1.3,0.1l0.6-1.2c2.5-4.9,7.4-7.9,12.9-7.9
		c6.8,0,12.8,4.8,14.2,11.4l0.3,1.5l1.5,0.1c4.2,0.3,7.5,3.8,7.5,8c0,4.4-3.6,8-8,8c0,0-0.1,0-0.1,0l-2,0H-62v2h4.9v0
		c0,0,0.1,0,0.1,0c5.5,0,10-4.5,10-10C-47-83.7-51.1-88.1-56.3-88.4z"/>
	<polygon points="-75,-61.4 -75,-59.4 -75,-53.4 -73,-53.4 -73,-59.4 -73,-61.4 -73,-73.4 -75,-73.4 	"/>
	<polygon points="-67,-65.4 -67,-63.6 -67,-57.4 -65,-57.4 -65,-63.6 -65,-65.4 -65,-77.4 -67,-77.4 	"/>
	<polygon points="-83,-65.4 -83,-63.3 -83,-57.4 -81,-57.4 -81,-63.3 -81,-65.4 -81,-77.4 -83,-77.4 	"/>
</g>
<g>
	<polygon points="239.3,-64.5 232.4,-74.3 230.8,-73.2 237.7,-63.3 238.8,-61.7 242.3,-56.8 243.9,-57.9 240.4,-62.9 	"/>
	<polygon points="247.3,-64.5 240.4,-74.3 238.8,-73.2 245.7,-63.3 246.7,-61.9 250.3,-56.8 251.9,-57.9 248.3,-63 	"/>
	<polygon points="231.3,-64.5 224.4,-74.3 222.8,-73.2 229.7,-63.3 230.9,-61.6 234.3,-56.8 235.9,-57.9 232.5,-62.8 	"/>
	<path d="M250.4-88.1c-1.6-7.4-8.2-13-16.1-13c-6.4,0-12,3.7-14.7,9c-0.3,0-0.5,0-0.8,0c-6.6,0-12,5.4-12,12c0,6.6,5.3,12,11.9,12v0
		h2.1v-2h-1.6l-0.4,0c-5.5,0-9.9-4.5-9.9-10c0-5.5,4.5-10,10-10c0.2,0,0.3,0,0.5,0l0.1,0l1.3,0.1l0.6-1.2c2.5-4.9,7.4-7.9,12.9-7.9
		c6.8,0,12.8,4.8,14.2,11.4l0.3,1.5l1.5,0.1c4.2,0.3,7.5,3.8,7.5,8c0,4.4-3.6,8-8,8c-0.1,0-0.1,0-0.1,0l-1,0h0.1v2h0.9v0
		c0,0,0.1,0,0.1,0c5.5,0,10-4.5,10-10C259.8-83.5,255.7-87.8,250.4-88.1z"/>
</g>
<g>
	<rect x="222.1" y="-197.2" width="2" height="8"/>
	<rect x="203.1" y="-178.3" width="8" height="2"/>
	<rect x="210.8" y="-192.5" transform="matrix(0.7071 -0.7071 0.7071 0.7071 195.3553 94.5333)" width="2" height="8"/>
	<rect x="230.3" y="-189.5" transform="matrix(0.7071 -0.7071 0.7071 0.7071 201.9488 110.4596)" width="8" height="2"/>
	<rect x="236.1" y="-156.3" width="2" height="7"/>
	<rect x="244.1" y="-160.3" width="2" height="7"/>
	<rect x="228.1" y="-160.3" width="2" height="7"/>
	<rect x="236.1" y="-146.3" width="2" height="7"/>
	<rect x="244.1" y="-150.3" width="2" height="7"/>
	<rect x="228.1" y="-150.3" width="2" height="7"/>
	<path d="M252.6-171.4c-1.4-6.7-7.4-11.8-14.6-11.8c-2.2,0-4.3,0.5-6.1,1.3c-1.7-3.2-5-5.4-8.9-5.4c-5.5,0-10,4.5-10,10
		c0,2.5,0.9,4.7,2.4,6.4c-1.4,1.8-2.3,4.1-2.3,6.7c0,6,4.8,10.8,10.8,10.9v0h1.2v-2h-0.7l-0.5,0c-4.9,0-8.8-4-8.8-8.9
		c0-4.9,4-8.9,8.9-8.9c0.1,0,0.3,0,0.4,0l0.1,0l1.3,0.1l0.6-1.2c2.2-4.4,6.6-7.1,11.5-7.1c6.1,0,11.4,4.3,12.6,10.2l0.3,1.5l1.5,0.1
		c3.7,0.2,6.6,3.3,6.6,7c0,3.9-3.1,7-7,7.1c0,0-0.1,0-0.1,0l-2,0h-0.8v2h2.8v0c0,0,0.1,0,0.1,0c5,0,9.1-4.1,9.1-9.1
		C261.1-167.2,257.4-171.1,252.6-171.4z M224.7-175c-0.2,0-0.5,0-0.7,0c-2.8,0-5.3,1-7.2,2.7c-1.1-1.4-1.8-3.1-1.8-5
		c0-4.4,3.6-8,8-8c3.1,0,5.8,1.8,7.1,4.3C227.8-179.5,226-177.5,224.7-175z"/>
</g>
<g>
	<rect x="336.5" y="-157.8" width="2" height="7"/>
	<rect x="344.5" y="-161.8" width="2" height="7"/>
	<rect x="328.5" y="-161.8" width="2" height="7"/>
	<rect x="336.5" y="-147.8" width="2" height="7"/>
	<rect x="344.5" y="-151.8" width="2" height="7"/>
	<rect x="328.5" y="-151.8" width="2" height="7"/>
	<path d="M353.1-172.9c-1.4-6.7-7.4-11.8-14.6-11.8c-1.8,0-3.5,0.3-5.1,0.9c-0.9-5.1-5.4-9-10.8-9c-0.4,0-0.8,0-1.2,0.1
		c0.7,1.1,1.2,2.4,1.2,3.9c0,3.9-3.1,7-7,7c-1.4,0-2.8-0.4-3.9-1.2c0,0.4-0.1,0.8-0.1,1.2c0,3.7,1.8,7,4.7,9
		c-1.7,1.9-2.7,4.4-2.7,7.1c0,6,4.8,10.8,10.8,10.9v0h1.2v-2h-0.7l-0.5,0c-4.9,0-8.8-4-8.8-8.9c0-4.9,4-8.9,8.9-8.9
		c0.1,0,0.3,0,0.4,0l0.1,0l1.3,0.1l0.6-1.2c2.2-4.4,6.6-7.1,11.5-7.1c6.1,0,11.4,4.3,12.6,10.2l0.3,1.5l1.5,0.1
		c3.7,0.2,6.6,3.3,6.6,7c0,3.9-3.1,7-7,7.1c0,0-0.1,0-0.1,0l-2,0h-0.8v2h2.8v0c0,0,0.1,0,0.1,0c5,0,9.1-4.1,9.1-9.1
		C361.5-168.6,357.8-172.6,353.1-172.9z M325.1-176.5c-0.2,0-0.5,0-0.7,0c-2.5,0-4.9,0.9-6.7,2.3c-2-1.3-3.5-3.4-4-5.8
		c0.6,0.1,1.2,0.2,1.8,0.2c5,0,9-4,9-9c0-0.6-0.1-1.2-0.2-1.8c3.7,0.8,6.6,3.8,7.1,7.6C328.8-181.5,326.5-179.2,325.1-176.5z"/>
</g>
<g>
	<polygon points="29.3,-56.9 29.3,-55 29.3,-48.9 31.3,-48.9 31.3,-55 31.3,-56.9 31.3,-68.9 29.3,-68.9 	"/>
	<polygon points="37.3,-60.9 37.3,-59.2 37.3,-52.9 39.3,-52.9 39.3,-59.2 39.3,-60.9 39.3,-72.9 37.3,-72.9 	"/>
	<polygon points="21.3,-60.9 21.3,-58.9 21.3,-52.9 23.3,-52.9 23.3,-58.9 23.3,-60.9 23.3,-72.9 21.3,-72.9 	"/>
	<rect x="15.3" y="-107.8" width="2" height="8"/>
	<rect x="-3.7" y="-88.9" width="8" height="2"/>
	<rect x="4" y="-103.2" transform="matrix(0.7071 -0.7071 0.7071 0.7071 71.6034 -25.5357)" width="2" height="8"/>
	<rect x="23.5" y="-100.2" transform="matrix(0.7071 -0.7071 0.7071 0.7071 78.1968 -9.6093)" width="8" height="2"/>
	<path d="M45.8-82.1c-1.4-6.7-7.4-11.8-14.6-11.8c-2.2,0-4.3,0.5-6.1,1.3c-1.7-3.2-5-5.4-8.9-5.4c-5.5,0-10,4.5-10,10
		c0,2.5,0.9,4.7,2.4,6.4c-1.4,1.8-2.3,4.1-2.3,6.7c0,6,4.8,10.8,10.8,10.9v0h1.2v-2h-0.7l-0.5,0c-4.9,0-8.8-4-8.8-8.9
		c0-4.9,4-8.9,8.9-8.9c0.1,0,0.3,0,0.4,0l0.1,0l1.3,0.1l0.6-1.2c2.2-4.4,6.6-7.1,11.5-7.1c6.1,0,11.4,4.3,12.6,10.2l0.3,1.5l1.5,0.1
		c3.7,0.2,6.6,3.3,6.6,7c0,3.9-3.1,7-7,7.1c0,0-0.1,0-0.1,0l-2,0h-0.8v2h2.8v0c0,0,0.1,0,0.1,0c5,0,9.1-4.1,9.1-9.1
		C54.3-77.8,50.6-81.8,45.8-82.1z M17.9-85.7c-0.2,0-0.5,0-0.7,0c-2.8,0-5.3,1-7.2,2.7c-1.1-1.4-1.8-3.1-1.8-5c0-4.4,3.6-8,8-8
		c3.1,0,5.8,1.8,7.1,4.3C21-90.2,19.1-88.1,17.9-85.7z"/>
</g>
<g>
	<polygon points="129.7,-59.5 129.7,-57.5 129.7,-51.5 131.7,-51.5 131.7,-57.5 131.7,-59.5 131.7,-71.5 129.7,-71.5 	"/>
	<polygon points="137.7,-63.5 137.7,-61.7 137.7,-55.5 139.7,-55.5 139.7,-61.7 139.7,-63.5 139.7,-75.5 137.7,-75.5 	"/>
	<polygon points="121.7,-63.5 121.7,-61.4 121.7,-55.5 123.7,-55.5 123.7,-61.4 123.7,-63.5 123.7,-75.5 121.7,-75.5 	"/>
	<path d="M146.2-84.6c-1.4-6.7-7.4-11.8-14.6-11.8c-1.8,0-3.5,0.3-5.1,0.9c-0.9-5.1-5.4-9-10.8-9c-0.4,0-0.8,0-1.2,0.1
		c0.7,1.1,1.2,2.4,1.2,3.9c0,3.9-3.1,7-7,7c-1.4,0-2.8-0.4-3.9-1.2c0,0.4-0.1,0.8-0.1,1.2c0,3.7,1.8,7,4.7,9
		c-1.7,1.9-2.7,4.4-2.7,7.1c0,6,4.8,10.8,10.8,10.9v0h1.2v-2H118l-0.5,0c-4.9,0-8.8-4-8.8-8.9c0-4.9,4-8.9,8.9-8.9
		c0.2,0,0.3,0,0.4,0l0.1,0l1.3,0.1l0.6-1.2c2.2-4.4,6.6-7.1,11.5-7.1c6.1,0,11.4,4.3,12.6,10.2l0.3,1.5l1.5,0.1
		c3.7,0.2,6.6,3.3,6.6,7c0,3.9-3.1,7-7,7.1c0,0-0.1,0-0.1,0l-2,0h-0.8v2h2.8v0c0,0,0.1,0,0.1,0c5,0,9.1-4.1,9.1-9.1
		C154.7-80.4,151-84.3,146.2-84.6z M118.3-88.2c-0.2,0-0.5,0-0.7,0c-2.5,0-4.9,0.9-6.7,2.3c-2-1.3-3.5-3.4-4-5.8
		c0.6,0.1,1.2,0.2,1.8,0.2c5,0,9-4,9-9c0-0.6-0.1-1.2-0.2-1.8c3.7,0.8,6.6,3.8,7.1,7.6C121.9-93.2,119.7-90.9,118.3-88.2z"/>
</g>
<g>
	<polygon points="346.8,-58.5 339.9,-68.3 338.2,-67.2 345.1,-57.4 346.2,-55.8 349.7,-50.8 351.3,-52 347.9,-56.9 	"/>
	<polygon points="354.8,-58.5 347.9,-68.3 346.2,-67.2 353.1,-57.4 354.1,-55.9 357.7,-50.8 359.3,-52 355.8,-57.1 	"/>
	<polygon points="338.8,-58.5 331.9,-68.3 330.2,-67.2 337.1,-57.4 338.3,-55.7 341.7,-50.8 343.3,-52 339.9,-56.8 	"/>
	<rect x="326.2" y="-106.1" width="2" height="8"/>
	<rect x="307.2" y="-87.2" width="8" height="2"/>
	<rect x="314.9" y="-101.4" transform="matrix(0.7071 -0.7071 0.7071 0.7071 161.409 194.832)" width="2" height="8"/>
	<rect x="334.4" y="-98.4" transform="matrix(0.7071 -0.7071 0.7071 0.7071 168.0025 210.7583)" width="8" height="2"/>
	<path d="M356.7-80.3c-1.4-6.7-7.4-11.8-14.6-11.8c-2.2,0-4.3,0.5-6.1,1.3c-1.7-3.2-5-5.4-8.9-5.4c-5.5,0-10,4.5-10,10
		c0,2.5,0.9,4.7,2.4,6.4c-1.4,1.8-2.3,4.1-2.3,6.7c0,6,4.8,10.8,10.8,10.9v0h1.2v-2h-0.7l-0.5,0c-4.9,0-8.8-4-8.8-8.9
		c0-4.9,4-8.9,8.9-8.9c0.1,0,0.3,0,0.4,0l0.1,0l1.3,0.1l0.6-1.2c2.2-4.4,6.6-7.1,11.5-7.1c6.1,0,11.4,4.3,12.6,10.2l0.3,1.5l1.5,0.1
		c3.7,0.2,6.6,3.3,6.6,7c0,3.9-3.1,7-7,7.1c0,0-0.1,0-0.1,0l0,0h-0.8v2h0.8v0c0,0,0.1,0,0.1,0c5,0,9.1-4.1,9.1-9.1
		C365.2-76.1,361.5-80,356.7-80.3z M328.8-83.9c-0.2,0-0.5,0-0.7,0c-2.8,0-5.3,1-7.2,2.7c-1.1-1.4-1.8-3.1-1.8-5c0-4.4,3.6-8,8-8
		c3.1,0,5.8,1.8,7.1,4.3C331.9-88.4,330.1-86.3,328.8-83.9z"/>
</g>
<g>
	<polygon points="-376.7,38 -383.6,28.1 -385.2,29.3 -378.3,39.1 -377.2,40.7 -373.7,45.7 -372.1,44.5 -375.6,39.6 	"/>
	<polygon points="-368.7,38 -375.6,28.1 -377.2,29.3 -370.3,39.1 -369.3,40.5 -365.7,45.7 -364.1,44.5 -367.7,39.4 	"/>
	<polygon points="-384.7,38 -391.6,28.1 -393.2,29.3 -386.3,39.1 -385.1,40.8 -381.7,45.7 -380.1,44.5 -383.5,39.7 	"/>
	<path d="M-366.7,16.2c-1.4-6.7-7.4-11.8-14.6-11.8c-1.8,0-3.5,0.3-5.1,0.9c-0.9-5.1-5.4-9-10.8-9c-0.4,0-0.8,0-1.2,0.1
		c0.7,1.1,1.2,2.4,1.2,3.9c0,3.9-3.1,7-7,7c-1.4,0-2.8-0.4-3.9-1.2c0,0.4-0.1,0.8-0.1,1.2c0,3.7,1.8,7,4.7,9
		c-1.7,1.9-2.7,4.4-2.7,7.1c0,6,4.8,10.8,10.8,10.9v0h1.2v-2h-0.7l-0.5,0c-4.9,0-8.8-4-8.8-8.9c0-4.9,4-8.9,8.9-8.9
		c0.1,0,0.3,0,0.4,0l0.1,0l1.3,0.1l0.6-1.2c2.2-4.4,6.6-7.1,11.5-7.1c6.1,0,11.4,4.3,12.6,10.2l0.3,1.5l1.5,0.1
		c3.7,0.2,6.6,3.3,6.6,7c0,3.9-3.1,7-7,7.1c0,0-0.1,0-0.1,0l0,0h-0.8v2h0.8v0c0,0,0.1,0,0.1,0c5,0,9.1-4.1,9.1-9.1
		C-358.2,20.4-362,16.5-366.7,16.2z M-394.6,12.6c-0.2,0-0.5,0-0.7,0c-2.5,0-4.9,0.9-6.7,2.3c-2-1.3-3.5-3.4-4-5.8
		c0.6,0.1,1.2,0.2,1.8,0.2c5,0,9-4,9-9c0-0.6-0.1-1.2-0.2-1.8c3.7,0.8,6.6,3.8,7.1,7.6C-391,7.6-393.2,9.8-394.6,12.6z"/>
</g>
<g>
	<rect x="-384.2" y="-65.9" width="2" height="4"/>
	<rect x="-376.2" y="-69.9" width="2" height="4"/>
	<rect x="-392.2" y="-69.9" width="2" height="4"/>
	<path d="M-365.6-85.9c-1.6-7.4-8.2-13-16.1-13c-6.4,0-12,3.7-14.7,9c-0.3,0-0.5,0-0.8,0c-6.6,0-12,5.4-12,12c0,6.6,5.3,12,11.9,12
		v0h2.1v-2h-1.6l-0.4,0c-5.5,0-9.9-4.5-9.9-10c0-5.5,4.5-10,10-10c0.2,0,0.3,0,0.5,0l0.1,0l1.3,0.1l0.6-1.2
		c2.5-4.9,7.4-7.9,12.9-7.9c6.8,0,12.8,4.8,14.2,11.4l0.3,1.5l1.5,0.1c4.2,0.3,7.5,3.8,7.5,8c0,4.4-3.6,8-8,8c0,0-0.1,0-0.1,0l-2,0
		h-2.9v2h4.9v0c0,0,0.1,0,0.1,0c5.5,0,10-4.5,10-10C-356.2-81.2-360.3-85.5-365.6-85.9z"/>
	<circle cx="-375.2" cy="-60.9" r="1.5"/>
	<circle cx="-383.2" cy="-56.9" r="1.5"/>
	<circle cx="-391.2" cy="-60.9" r="1.5"/>
</g>
<g>
	<rect x="-291.3" y="-105.3" width="2" height="8"/>
	<rect x="-310.3" y="-86.4" width="8" height="2"/>
	<rect x="-302.6" y="-100.7" transform="matrix(0.7071 -0.7071 0.7071 0.7071 -19.9764 -241.594)" width="2" height="8"/>
	<rect x="-283.1" y="-97.7" transform="matrix(0.7071 -0.7071 0.7071 0.7071 -13.3826 -225.6683)" width="8" height="2"/>
	<path d="M-260.8-79.5c-1.4-6.7-7.4-11.8-14.6-11.8c-2.2,0-4.3,0.5-6.1,1.3c-1.7-3.2-5-5.4-8.9-5.4c-5.5,0-10,4.5-10,10
		c0,2.5,0.9,4.7,2.4,6.4c-1.4,1.8-2.3,4.1-2.3,6.7c0,6,4.8,10.8,10.8,10.9v0h1.2v-2h-0.7l-0.5,0c-4.9,0-8.8-4-8.8-8.9
		c0-4.9,4-8.9,8.9-8.9c0.1,0,0.3,0,0.4,0l0.1,0l1.3,0.1l0.6-1.2c2.2-4.4,6.6-7.1,11.5-7.1c6.1,0,11.4,4.3,12.6,10.2l0.3,1.5l1.5,0.1
		c3.7,0.2,6.6,3.3,6.6,7c0,3.9-3.1,7-7,7.1c0,0-0.1,0-0.1,0l-2,0h-0.8v2h2.8v0c0,0,0.1,0,0.1,0c5,0,9.1-4.1,9.1-9.1
		C-252.3-75.3-256-79.2-260.8-79.5z M-288.7-83.2c-0.2,0-0.5,0-0.7,0c-2.8,0-5.3,1-7.2,2.7c-1.1-1.4-1.8-3.1-1.8-5c0-4.4,3.6-8,8-8
		c3.1,0,5.8,1.8,7.1,4.3C-285.6-87.6-287.5-85.6-288.7-83.2z"/>
	<rect x="-277.3" y="-61.4" width="2" height="4"/>
	<rect x="-269.3" y="-65.5" width="2" height="4"/>
	<rect x="-285.3" y="-65.5" width="2" height="4"/>
	<circle cx="-268.3" cy="-56.4" r="1.5"/>
	<circle cx="-276.3" cy="-52.5" r="1.5"/>
	<circle cx="-284.3" cy="-56.5" r="1.5"/>
</g>
<g>
	<path d="M-159.8-80.5c-1.4-6.7-7.4-11.8-14.6-11.8c-1.8,0-3.5,0.3-5.1,0.9c-0.9-5.1-5.4-9-10.8-9c-0.4,0-0.8,0-1.2,0.1
		c0.7,1.1,1.2,2.4,1.2,3.9c0,3.9-3.1,7-7,7c-1.4,0-2.8-0.4-3.9-1.2c0,0.4-0.1,0.8-0.1,1.2c0,3.7,1.8,7,4.7,9
		c-1.7,1.9-2.7,4.4-2.7,7.1c0,6,4.8,10.8,10.8,10.9v0h1.2v-2h-0.7l-0.5,0c-4.9,0-8.8-4-8.8-8.9c0-4.9,4-8.9,8.9-8.9
		c0.1,0,0.3,0,0.4,0l0.1,0l1.3,0.1l0.6-1.2c2.2-4.4,6.6-7.1,11.5-7.1c6.1,0,11.4,4.3,12.6,10.2l0.3,1.5l1.5,0.1
		c3.7,0.2,6.6,3.3,6.6,7c0,3.9-3.1,7-7,7.1c0,0-0.1,0-0.1,0l-2,0h-0.8v2h2.8v0c0,0,0.1,0,0.1,0c5,0,9.1-4.1,9.1-9.1
		C-151.4-76.3-155.1-80.2-159.8-80.5z M-187.8-84.1c-0.2,0-0.5,0-0.7,0c-2.5,0-4.9,0.9-6.7,2.3c-2-1.3-3.5-3.4-4-5.8
		c0.6,0.1,1.2,0.2,1.8,0.2c5,0,9-4,9-9c0-0.6-0.1-1.2-0.2-1.8c3.7,0.8,6.6,3.8,7.1,7.6C-184.2-89.1-186.4-86.9-187.8-84.1z"/>
	<rect x="-176.4" y="-62.4" width="2" height="4"/>
	<rect x="-168.4" y="-66.4" width="2" height="4"/>
	<rect x="-184.4" y="-66.4" width="2" height="4"/>
	<circle cx="-167.4" cy="-57.4" r="1.5"/>
	<circle cx="-175.4" cy="-53.4" r="1.5"/>
	<circle cx="-183.4" cy="-57.4" r="1.5"/>
</g>
<g>
	<path d="M-263.2,12.5c-1.6-7.4-8.2-13-16.1-13c-6.4,0-12,3.7-14.7,9c-0.3,0-0.5,0-0.8,0c-6.6,0-12,5.4-12,12c0,6.6,5.3,12,11.9,12
		v0h6.1v-2h-5.6l-0.4,0c-5.5,0-9.9-4.5-9.9-10c0-5.5,4.5-10,10-10c0.2,0,0.3,0,0.5,0l0.1,0l1.3,0.1l0.6-1.2
		c2.5-4.9,7.4-7.9,12.9-7.9c6.8,0,12.8,4.8,14.2,11.4l0.3,1.5l1.5,0.1c4.2,0.3,7.5,3.8,7.5,8c0,4.4-3.6,8-8,8c0,0-0.1,0-0.1,0l-5,0
		h0.1v2h4.9v0c0,0,0.1,0,0.1,0c5.5,0,10-4.5,10-10C-253.8,17.2-257.9,12.9-263.2,12.5z"/>
	<polygon points="-278.9,32.5 -277.2,32.5 -276.7,32.5 -274.7,32.5 -281.1,23.3 -282.8,24.5 -278.6,30.5 -280.3,30.5 -282.8,30.5 
		-281.5,32.3 -280.4,33.9 -274.4,42.5 -272.8,41.4 -278.8,32.8 	"/>
</g>
<g>
	<rect x="-187.4" y="-6.6" width="2" height="8"/>
	<rect x="-206.4" y="12.3" width="8" height="2"/>
	<rect x="-198.7" y="-1.9" transform="matrix(0.7071 -0.7071 0.7071 0.7071 -59.3511 -139.1892)" width="2" height="8"/>
	<rect x="-179.2" y="1.1" transform="matrix(0.7071 -0.7071 0.7071 0.7071 -52.7574 -123.2635)" width="8" height="2"/>
	<path d="M-156.8,19.2c-1.4-6.7-7.4-11.8-14.6-11.8c-2.2,0-4.3,0.5-6.1,1.3c-1.7-3.2-5-5.4-8.9-5.4c-5.5,0-10,4.5-10,10
		c0,2.5,0.9,4.7,2.4,6.4c-1.4,1.8-2.3,4.1-2.3,6.7c0,6,4.8,10.8,10.8,10.9v0h4.2v-2h-3.7l-0.5,0c-4.9,0-8.8-4-8.8-8.9
		c0-4.9,4-8.9,8.9-8.9c0.1,0,0.3,0,0.4,0l0.1,0l1.3,0.1l0.6-1.2c2.2-4.4,6.6-7.1,11.5-7.1c6.1,0,11.4,4.3,12.6,10.2l0.3,1.5l1.5,0.1
		c3.7,0.2,6.6,3.3,6.6,7c0,3.9-3.1,7-7,7.1c0,0-0.1,0-0.1,0l-2,0h-3.8v2h5.8v0c0,0,0.1,0,0.1,0c5,0,9.1-4.1,9.1-9.1
		C-148.4,23.4-152.1,19.5-156.8,19.2z M-184.8,15.6c-0.2,0-0.5,0-0.7,0c-2.8,0-5.3,1-7.2,2.7c-1.1-1.4-1.8-3.1-1.8-5
		c0-4.4,3.6-8,8-8c3.1,0,5.8,1.8,7.1,4.3C-181.6,11.1-183.5,13.1-184.8,15.6z"/>
	<polygon points="-172.5,37.3 -170.7,37.3 -170.3,37.3 -168.3,37.3 -174.7,28.1 -176.4,29.3 -172.1,35.3 -173.9,35.3 -176.4,35.3 
		-175.1,37.1 -174,38.7 -168,47.3 -166.4,46.1 -172.3,37.5 	"/>
</g>
<g>
	<path d="M-57.3,16.9c-1.4-6.7-7.4-11.8-14.6-11.8c-1.8,0-3.5,0.3-5.1,0.9c-0.9-5.1-5.4-9-10.8-9c-0.4,0-0.8,0-1.2,0.1
		c0.7,1.1,1.2,2.4,1.2,3.9c0,3.9-3.1,7-7,7c-1.4,0-2.8-0.4-3.9-1.2c0,0.4-0.1,0.8-0.1,1.2c0,3.7,1.8,7,4.7,9
		c-1.7,1.9-2.7,4.4-2.7,7.1c0,6,4.8,10.8,10.8,10.9v0h4.2v-2h-3.7l-0.5,0c-4.9,0-8.8-4-8.8-8.9c0-4.9,4-8.9,8.9-8.9
		c0.2,0,0.3,0,0.4,0l0.1,0l1.3,0.1l0.6-1.2c2.2-4.4,6.6-7.1,11.5-7.1c6.1,0,11.4,4.3,12.6,10.2l0.3,1.5l1.5,0.1
		c3.7,0.2,6.6,3.3,6.6,7c0,3.9-3.1,7-7,7.1c0,0-0.1,0-0.1,0l-2,0h-3.8v2h5.8v0c0,0,0.1,0,0.1,0c5,0,9.1-4.1,9.1-9.1
		C-48.8,21.1-52.5,17.2-57.3,16.9z M-85.2,13.3c-0.2,0-0.5,0-0.7,0c-2.5,0-4.9,0.9-6.7,2.3c-2-1.3-3.5-3.4-4-5.8
		c0.6,0.1,1.2,0.2,1.8,0.2c5,0,9-4,9-9c0-0.6-0.1-1.2-0.2-1.8c3.7,0.8,6.6,3.8,7.1,7.6C-81.6,8.3-83.8,10.5-85.2,13.3z"/>
	<polygon points="-72.9,35 -71.2,35 -70.7,35 -68.7,35 -75.1,25.8 -76.8,27 -72.6,33 -74.3,33 -76.8,33 -75.5,34.8 -74.4,36.4 
		-68.4,45 -66.8,43.8 -72.7,35.2 	"/>
</g>
<g>
	<path class="st0" d="M43.6,13C42,5.6,35.4,0,27.5,0c-6.4,0-12,3.7-14.7,9c-0.3,0-0.5,0-0.8,0C5.4,9,0,14.4,0,21
		c0,6.6,5.3,12,11.9,12v0H13v-2h-0.6l-0.4,0C6.5,31,2,26.5,2,21c0-5.5,4.5-10,10-10c0.2,0,0.3,0,0.5,0l0.1,0l1.3,0.1l0.6-1.2
		C17.1,5,22,2,27.5,2c6.8,0,12.8,4.8,14.2,11.4l0.3,1.5l1.5,0.1c4.2,0.3,7.5,3.8,7.5,8c0,4.4-3.6,8-8,8c0,0-0.1,0-0.1,0L42,31v2h0.9
		v0c0,0,0.1,0,0.1,0c5.5,0,10-4.5,10-10C53,17.7,48.9,13.4,43.6,13z"/>
	<rect x="17" y="26.4" transform="matrix(0.8191 -0.5736 0.5736 0.8191 -15.0926 16.1274)" class="st0" width="2" height="11.2"/>
	<rect x="35" y="26.4" transform="matrix(0.8191 -0.5736 0.5736 0.8191 -11.8412 26.4382)" class="st0" width="2" height="11.2"/>
	<polygon class="st0" points="28.8,36 30.6,36 31,36 33.1,36 26.6,26.8 25,28 29.2,34 27.4,34 25,34 26.3,35.8 27.4,37.4 32,44 
		33.6,42.9 29,36.3 	"/>
</g>
<g>
	<rect x="118.5" y="-6.4" width="2" height="8"/>
	<rect x="99.5" y="12.5" width="8" height="2"/>
	<rect x="107.1" y="-1.8" transform="matrix(0.7071 -0.7071 0.7071 0.7071 30.1097 77.1103)" width="2" height="8"/>
	<rect x="126.7" y="1.2" transform="matrix(0.7071 -0.7071 0.7071 0.7071 36.7036 93.036)" width="8" height="2"/>
	<path d="M149,19.4c-1.4-6.7-7.4-11.8-14.6-11.8c-2.2,0-4.3,0.5-6.1,1.3c-1.7-3.2-5-5.4-8.9-5.4c-5.5,0-10,4.5-10,10
		c0,2.5,0.9,4.7,2.4,6.4c-1.4,1.8-2.3,4.1-2.3,6.7c0,6,4.8,10.8,10.8,10.9v0h0.2v-2l-0.2,0c-4.9,0-8.8-4-8.8-8.9
		c0-4.9,4-8.9,8.9-8.9c0.2,0,0.3,0,0.4,0l0.1,0l1.3,0.1l0.6-1.2c2.2-4.4,6.6-7.1,11.5-7.1c6.1,0,11.4,4.3,12.6,10.2l0.3,1.5l1.5,0.1
		c3.7,0.2,6.6,3.3,6.6,7c0,3.9-3.1,7-7,7.1c0,0-0.1,0-0.1,0l-0.9,0v2h0.8v0c0,0,0.1,0,0.1,0c5,0,9.1-4.1,9.1-9.1
		C157.5,23.6,153.7,19.6,149,19.4z M121.1,15.7c-0.2,0-0.5,0-0.7,0c-2.8,0-5.3,1-7.2,2.7c-1.1-1.4-1.8-3.1-1.8-5c0-4.4,3.6-8,8-8
		c3.1,0,5.8,1.8,7.1,4.3C124.2,11.3,122.3,13.3,121.1,15.7z"/>
	<rect x="123.5" y="30.8" transform="matrix(0.8191 -0.5736 0.5736 0.8191 1.6184 78.0018)" width="2" height="11.2"/>
	<rect x="141.5" y="30.8" transform="matrix(0.8191 -0.5736 0.5736 0.8191 4.8698 88.3126)" width="2" height="11.2"/>
	<polygon points="135.3,40.4 137.1,40.4 137.5,40.4 139.5,40.4 133.1,31.3 131.5,32.4 135.7,38.4 133.9,38.4 131.5,38.4 132.7,40.3 
		133.8,41.8 138.5,48.4 140.1,47.3 135.5,40.7 	"/>
</g>
<g>
	<path d="M250.8,16.4c-1.4-6.7-7.4-11.8-14.6-11.8c-1.8,0-3.5,0.3-5.1,0.9c-0.9-5.1-5.4-9-10.8-9c-0.4,0-0.8,0-1.2,0.1
		c0.7,1.1,1.2,2.4,1.2,3.9c0,3.9-3.1,7-7,7c-1.4,0-2.8-0.4-3.9-1.2c0,0.4-0.1,0.8-0.1,1.2c0,3.7,1.8,7,4.7,9
		c-1.7,1.9-2.7,4.4-2.7,7.1c0,6,4.8,10.8,10.8,10.9v0h0.2v-2l-0.2,0c-4.9,0-8.8-4-8.8-8.9c0-4.9,4-8.9,8.9-8.9c0.1,0,0.3,0,0.4,0
		l0.1,0l1.3,0.1l0.6-1.2c2.2-4.4,6.6-7.1,11.5-7.1c6.1,0,11.4,4.3,12.6,10.2l0.3,1.5l1.5,0.1c3.7,0.2,6.6,3.3,6.6,7
		c0,3.9-3.1,7-7,7.1c0,0-0.1,0-0.1,0l-0.9,0v2h0.8v0c0,0,0.1,0,0.1,0c5,0,9.1-4.1,9.1-9.1C259.3,20.6,255.6,16.7,250.8,16.4z
		 M222.9,12.8c-0.2,0-0.5,0-0.7,0c-2.5,0-4.9,0.9-6.7,2.3c-2-1.3-3.5-3.4-4-5.8c0.6,0.1,1.2,0.2,1.8,0.2c5,0,9-4,9-9
		c0-0.6-0.1-1.2-0.2-1.8c3.7,0.8,6.6,3.8,7.1,7.6C226.5,7.8,224.3,10,222.9,12.8z"/>
	<rect x="225.3" y="27.9" transform="matrix(0.8191 -0.5736 0.5736 0.8191 21.7354 135.8845)" width="2" height="11.2"/>
	<rect x="243.3" y="27.9" transform="matrix(0.8191 -0.5736 0.5736 0.8191 24.9867 146.1952)" width="2" height="11.2"/>
	<polygon points="237.1,37.5 238.9,37.5 239.3,37.5 241.4,37.5 234.9,28.3 233.3,29.5 237.5,35.5 235.7,35.5 233.3,35.5 234.6,37.3 
		235.7,38.9 240.3,45.5 241.9,44.3 237.3,37.7 	"/>
</g>
<g>
	<g>
		<path d="M-159.7,102.8c-1.6-7.4-8.2-13-16.1-13c-6.4,0-12,3.7-14.7,9c-0.3,0-0.5,0-0.8,0c-6.6,0-12,5.4-12,12
			c0,6.6,5.3,12,11.9,12v0h2.1v-2h-1.6l-0.4,0c-5.5,0-9.9-4.5-9.9-10c0-5.5,4.5-10,10-10c0.2,0,0.3,0,0.5,0l0.1,0l1.3,0.1l0.6-1.2
			c2.5-4.9,7.4-7.9,12.9-7.9c6.8,0,12.8,4.8,14.2,11.4l0.3,1.5l1.5,0.1c4.2,0.3,7.5,3.8,7.5,8c0,4.4-3.6,8-8,8c-0.1,0-0.1,0-0.1,0
			l-2,0h-2.9v2h4.9v0c0,0,0.1,0,0.1,0c5.5,0,10-4.5,10-10C-150.4,107.5-154.5,103.2-159.7,102.8z"/>
	</g>
	<g>
		<circle cx="-184.9" cy="116.4" r="1.5"/>
	</g>
	<g>
		<circle cx="-180.9" cy="122.3" r="1.5"/>
	</g>
	<g>
		<circle cx="-172.9" cy="122.3" r="1.5"/>
	</g>
	<g>
		<circle cx="-176.9" cy="116.4" r="1.5"/>
	</g>
	<g>
		<circle cx="-168.9" cy="116.4" r="1.5"/>
	</g>
	<g>
		<circle cx="-184.9" cy="128.3" r="1.5"/>
	</g>
	<g>
		<circle cx="-176.9" cy="128.3" r="1.5"/>
	</g>
	<g>
		<circle cx="-168.9" cy="128.3" r="1.5"/>
	</g>
</g>
<g>
	<g>
		<rect x="-84" y="87.4" width="2" height="8"/>
	</g>
	<g>
		<rect x="-103" y="106.3" width="8" height="2"/>
	</g>
	<g>
		<rect x="-95.3" y="92" transform="matrix(0.7071 -0.7071 0.7071 0.7071 -95.5132 -38.5495)" width="2" height="8"/>
	</g>
	<g>
		<rect x="-75.8" y="95" transform="matrix(0.7071 -0.7071 0.7071 0.7071 -88.9197 -22.6232)" width="8" height="2"/>
	</g>
	<g>
		<path d="M-53.4,113.2c-1.4-6.7-7.4-11.8-14.6-11.8c-2.2,0-4.3,0.5-6.1,1.3c-1.7-3.2-5-5.4-8.9-5.4c-5.5,0-10,4.5-10,10
			c0,2.5,0.9,4.7,2.4,6.4c-1.4,1.8-2.3,4.1-2.3,6.7c0,6,4.8,10.8,10.8,10.9v0h1.2v-2h-0.7l-0.5,0c-4.9,0-8.8-4-8.8-8.9
			c0-4.9,4-8.9,8.9-8.9c0.2,0,0.3,0,0.4,0l0.1,0l1.3,0.1l0.6-1.2c2.2-4.4,6.6-7.1,11.5-7.1c6.1,0,11.4,4.3,12.6,10.2l0.3,1.5
			l1.5,0.1c3.7,0.2,6.6,3.3,6.6,7c0,3.9-3.1,7-7,7.1c0,0-0.1,0-0.1,0l-2,0H-58v2h3.8v0c0,0,0.1,0,0.1,0c5,0,9.1-4.1,9.1-9.1
			C-45,117.4-48.7,113.5-53.4,113.2z M-81.4,109.5c-0.2,0-0.5,0-0.7,0c-2.8,0-5.3,1-7.2,2.7c-1.1-1.4-1.8-3.1-1.8-5c0-4.4,3.6-8,8-8
			c3.1,0,5.8,1.8,7.1,4.3C-78.2,105.1-80.1,107.1-81.4,109.5z"/>
	</g>
	<g>
		<circle cx="-77.5" cy="124.8" r="1.5"/>
	</g>
	<g>
		<circle cx="-73.5" cy="130.8" r="1.5"/>
	</g>
	<g>
		<circle cx="-65.5" cy="130.8" r="1.5"/>
	</g>
	<g>
		<circle cx="-69.5" cy="124.8" r="1.5"/>
	</g>
	<g>
		<circle cx="-61.5" cy="124.8" r="1.5"/>
	</g>
	<g>
		<circle cx="-77.5" cy="136.8" r="1.5"/>
	</g>
	<g>
		<circle cx="-69.5" cy="136.8" r="1.5"/>
	</g>
	<g>
		<circle cx="-61.5" cy="136.8" r="1.5"/>
	</g>
</g>
<g>
	<g>
		<path d="M42.5,109.2c-1.4-6.7-7.4-11.8-14.6-11.8c-1.8,0-3.5,0.3-5.1,0.9c-0.9-5.1-5.4-9-10.8-9c-0.4,0-0.8,0-1.2,0.1
			c0.7,1.1,1.2,2.4,1.2,3.9c0,3.9-3.1,7-7,7c-1.4,0-2.8-0.4-3.9-1.2c0,0.4-0.1,0.8-0.1,1.2c0,3.7,1.8,7,4.7,9
			C4,111.2,3,113.7,3,116.4c0,6,4.8,10.8,10.8,10.9v0H15v-2h-0.7l-0.5,0c-4.9,0-8.8-4-8.8-8.9c0-4.9,4-8.9,8.9-8.9
			c0.1,0,0.3,0,0.4,0l0.1,0l1.3,0.1l0.6-1.2c2.2-4.4,6.6-7.1,11.5-7.1c6.1,0,11.4,4.3,12.6,10.2l0.3,1.5l1.5,0.1
			c3.7,0.2,6.6,3.3,6.6,7c0,3.9-3.1,7-7,7.1c0,0-0.1,0-0.1,0l-2,0H38v2h3.8v0c0,0,0.1,0,0.1,0c5,0,9.1-4.1,9.1-9.1
			C51,113.4,47.2,109.5,42.5,109.2z M14.6,105.6c-0.2,0-0.5,0-0.7,0c-2.5,0-4.9,0.9-6.7,2.3c-2-1.3-3.5-3.4-4-5.8
			c0.6,0.1,1.2,0.2,1.8,0.2c5,0,9-4,9-9c0-0.6-0.1-1.2-0.2-1.8c3.7,0.8,6.6,3.8,7.1,7.6C18.2,100.6,16,102.8,14.6,105.6z"/>
	</g>
	<g>
		<circle cx="18.5" cy="120.8" r="1.5"/>
	</g>
	<g>
		<circle cx="22.5" cy="126.8" r="1.5"/>
	</g>
	<g>
		<circle cx="30.5" cy="126.8" r="1.5"/>
	</g>
	<g>
		<circle cx="26.5" cy="120.8" r="1.5"/>
	</g>
	<g>
		<circle cx="34.5" cy="120.8" r="1.5"/>
	</g>
	<g>
		<circle cx="18.5" cy="132.8" r="1.5"/>
	</g>
	<g>
		<circle cx="26.5" cy="132.8" r="1.5"/>
	</g>
	<g>
		<circle cx="34.5" cy="132.8" r="1.5"/>
	</g>
</g>
<g>
	<path d="M353.7,10.3c-1.6-7.4-8.2-13-16.1-13c-6.4,0-12,3.7-14.7,9c-0.3,0-0.5,0-0.8,0c-6.6,0-12,5.4-12,12c0,6.6,5.3,12,11.9,12v0
		h2.1v-2h-1.6l-0.4,0c-5.5,0-9.9-4.5-9.9-10c0-5.5,4.5-10,10-10c0.2,0,0.3,0,0.5,0l0.1,0l1.3,0.1l0.6-1.2c2.5-4.9,7.4-7.9,12.9-7.9
		c6.8,0,12.8,4.8,14.2,11.4l0.3,1.5l1.5,0.1c4.2,0.3,7.5,3.8,7.5,8c0,4.4-3.6,8-8,8c0,0-0.1,0-0.1,0l-2,0h-2.9v2h4.9v0
		c0,0,0.1,0,0.1,0c5.5,0,10-4.5,10-10C363,15,358.9,10.6,353.7,10.3z"/>
	<circle cx="328" cy="37.8" r="1.5"/>
	<circle cx="336" cy="43.8" r="1.5"/>
	<circle cx="344" cy="39.8" r="1.5"/>
	<rect x="327" y="21.3" width="2" height="12"/>
	<polygon points="337,39.3 337,37.3 337,25.3 335,25.3 335,37.3 335,39.3 335,39.3 337,39.3 	"/>
	<polygon points="345,35.1 345,33.3 345,21.3 343,21.3 343,33.3 343,35.1 343,35.3 345,35.3 	"/>
</g>
<g>
	<rect x="-394.7" y="81.9" width="2" height="8"/>
	<rect x="-413.7" y="100.8" width="8" height="2"/>
	<rect x="-406" y="86.6" transform="matrix(0.7071 -0.7071 0.7071 0.7071 -182.6844 -259.8729)" width="2" height="8"/>
	<rect x="-386.5" y="89.6" transform="matrix(0.7071 -0.7071 0.7071 0.7071 -176.091 -243.9465)" width="8" height="2"/>
	<path d="M-364.2,107.7c-1.4-6.7-7.4-11.8-14.6-11.8c-2.2,0-4.3,0.5-6.1,1.3c-1.7-3.2-5-5.4-8.9-5.4c-5.5,0-10,4.5-10,10
		c0,2.5,0.9,4.7,2.4,6.4c-1.4,1.8-2.3,4.1-2.3,6.7c0,6,4.8,10.8,10.8,10.9v0h1.2v-2h-0.7l-0.5,0c-4.9,0-8.8-4-8.8-8.9
		c0-4.9,4-8.9,8.9-8.9c0.1,0,0.3,0,0.4,0l0.1,0l1.3,0.1l0.6-1.2c2.2-4.4,6.6-7.1,11.5-7.1c6.1,0,11.4,4.3,12.6,10.2l0.3,1.5l1.5,0.1
		c3.7,0.2,6.6,3.3,6.6,7c0,3.9-3.1,7-7,7.1c0,0-0.1,0-0.1,0l-2,0h-0.8v2h2.8v0c0,0,0.1,0,0.1,0c5,0,9.1-4.1,9.1-9.1
		C-355.7,111.9-359.5,108-364.2,107.7z M-392.1,104.1c-0.2,0-0.5,0-0.7,0c-2.8,0-5.3,1-7.2,2.7c-1.1-1.4-1.8-3.1-1.8-5
		c0-4.4,3.6-8,8-8c3.1,0,5.8,1.8,7.1,4.3C-389,99.6-390.9,101.7-392.1,104.1z"/>
	<circle cx="-387.7" cy="134.3" r="1.5"/>
	<circle cx="-379.7" cy="140.3" r="1.5"/>
	<circle cx="-371.7" cy="136.3" r="1.5"/>
	<rect x="-388.7" y="117.8" width="2" height="12"/>
	<polygon points="-378.7,135.8 -378.7,133.8 -378.7,121.8 -380.7,121.8 -380.7,133.8 -380.7,135.8 -380.7,135.8 -378.7,135.8 	"/>
	<polygon points="-370.7,131.6 -370.7,129.8 -370.7,117.8 -372.7,117.8 -372.7,129.8 -372.7,131.6 -372.7,131.8 -370.7,131.8 	"/>
</g>
<g>
	<path d="M-263.6,104.7c-1.4-6.7-7.4-11.8-14.6-11.8c-1.8,0-3.5,0.3-5.1,0.9c-0.9-5.1-5.4-9-10.8-9c-0.4,0-0.8,0-1.2,0.1
		c0.7,1.1,1.2,2.4,1.2,3.9c0,3.9-3.1,7-7,7c-1.4,0-2.8-0.4-3.9-1.2c0,0.4-0.1,0.8-0.1,1.2c0,3.7,1.8,7,4.7,9
		c-1.7,1.9-2.7,4.4-2.7,7.1c0,6,4.8,10.8,10.8,10.9v0h1.2v-2h-0.7l-0.5,0c-4.9,0-8.8-4-8.8-8.9c0-4.9,4-8.9,8.9-8.9
		c0.1,0,0.3,0,0.4,0l0.1,0l1.3,0.1l0.6-1.2c2.2-4.4,6.6-7.1,11.5-7.1c6.1,0,11.4,4.3,12.6,10.2l0.3,1.5l1.5,0.1
		c3.7,0.2,6.6,3.3,6.6,7c0,3.9-3.1,7-7,7.1c0,0-0.1,0-0.1,0l-2,0h-0.8v2h2.8v0c0,0,0.1,0,0.1,0c5,0,9.1-4.1,9.1-9.1
		C-255.1,108.9-258.9,105-263.6,104.7z M-291.5,101.1c-0.2,0-0.5,0-0.7,0c-2.5,0-4.9,0.9-6.7,2.3c-2-1.3-3.5-3.4-4-5.8
		c0.6,0.1,1.2,0.2,1.8,0.2c5,0,9-4,9-9c0-0.6-0.1-1.2-0.2-1.8c3.7,0.8,6.6,3.8,7.1,7.6C-287.9,96.1-290.1,98.4-291.5,101.1z"/>
	<circle cx="-287.1" cy="131.3" r="1.5"/>
	<circle cx="-279.1" cy="137.3" r="1.5"/>
	<circle cx="-271.1" cy="133.3" r="1.5"/>
	<rect x="-288.1" y="114.8" width="2" height="12"/>
	<polygon points="-278.1,132.8 -278.1,130.8 -278.1,118.8 -280.1,118.8 -280.1,130.8 -280.1,132.8 -280.1,132.8 -278.1,132.8 	"/>
	<polygon points="-270.1,128.6 -270.1,126.8 -270.1,114.8 -272.1,114.8 -272.1,126.8 -272.1,128.6 -272.1,128.8 -270.1,128.8 	"/>
</g>
<g>
	<rect x="-411.7" y="209.2" width="56" height="2"/>
	<rect x="-407.7" y="215.2" width="50" height="2"/>
	<rect x="-401.7" y="221.2" width="36" height="2"/>
	<rect x="-409.7" y="203.2" width="52" height="2"/>
	<path d="M-397.8,195.2c0.2,0,0.3,0,0.5,0l0.1,0l1.3,0.1l0.6-1.2c2.5-4.9,7.4-7.9,12.9-7.9c6.8,0,12.8,4.8,14.2,11.4l0.3,1.5
		l1.5,0.1c1.2,0.1,2.3,0.4,3.3,1h3.3c-1.7-1.7-4-2.8-6.5-3c-1.6-7.4-8.2-13-16.1-13c-6.4,0-12,3.7-14.7,9c-0.3,0-0.5,0-0.8,0
		c-4.8,0-9,2.9-10.9,7h2.3C-404.7,197.2-401.5,195.2-397.8,195.2z"/>
</g>
<g>
	<rect x="-290.6" y="181.7" width="2" height="8"/>
	<rect x="-309.6" y="200.6" width="8" height="2"/>
	<rect x="-301.9" y="186.3" transform="matrix(0.7071 -0.7071 0.7071 0.7071 -222.7037 -157.0555)" width="2" height="8"/>
	<rect x="-282.4" y="189.3" transform="matrix(0.7071 -0.7071 0.7071 0.7071 -216.1102 -141.1291)" width="8" height="2"/>
	<rect x="-300.6" y="215.5" width="50" height="2"/>
	<rect x="-296.6" y="221.5" width="44" height="2"/>
	<rect x="-290.6" y="226.5" width="30" height="2"/>
	<rect x="-298.6" y="209.5" width="46" height="2"/>
	<path d="M-297.7,207.5h0.8h1.9h1c1.5-1.1,3.3-1.7,5.2-1.7c0.1,0,0.3,0,0.4,0l0.1,0l1.3,0.1l0.6-1.2c2.2-4.4,6.6-7.1,11.5-7.1
		c5.9,0,11.2,4.1,12.6,9.9h2v-0.1c-1.4-6.7-7.4-11.8-14.6-11.8c-2.2,0-4.3,0.5-6.1,1.3c-1.7-3.2-5-5.4-8.9-5.4c-5.5,0-10,4.5-10,10
		C-299.7,203.8-298.9,205.9-297.7,207.5z M-289.7,193.6c3.1,0,5.8,1.8,7.1,4.3c-2.3,1.4-4.2,3.5-5.4,5.9c-0.2,0-0.5,0-0.7,0
		c-2.8,0-5.3,1-7.2,2.7c-1.1-1.4-1.8-3.1-1.8-5C-297.7,197.1-294.1,193.6-289.7,193.6z"/>
</g>
<g>
	<rect x="-201.9" y="212.1" width="50" height="2"/>
	<rect x="-197.9" y="218.1" width="44" height="2"/>
	<rect x="-191.9" y="223.1" width="30" height="2"/>
	<rect x="-199.9" y="206.1" width="46" height="2"/>
	<path d="M-198.2,204.1L-198.2,204.1h1.9h1.1c1.5-1.1,3.3-1.7,5.2-1.7c0.1,0,0.3,0,0.4,0l0.1,0l1.3,0.1l0.6-1.2
		c2.2-4.4,6.6-7.1,11.5-7.1c5.9,0,11.2,4.1,12.6,9.9h2V204c-1.4-6.7-7.4-11.8-14.6-11.8c-1.8,0-3.5,0.3-5.1,0.9
		c-0.9-5.1-5.4-9-10.8-9c-0.4,0-0.8,0-1.2,0.1c0.7,1.1,1.2,2.4,1.2,3.9c0,3.9-3.1,7-7,7c-1.4,0-2.8-0.4-3.9-1.2
		c0,0.4-0.1,0.8-0.1,1.2C-202.9,198.8-201,202.1-198.2,204.1z M-198.9,197.1c5,0,9-4,9-9c0-0.6-0.1-1.2-0.2-1.8
		c3.7,0.8,6.6,3.8,7.1,7.6c-2.7,1.4-4.9,3.7-6.3,6.4c-0.2,0-0.5,0-0.7,0c-2.5,0-4.9,0.9-6.7,2.3c-2-1.3-3.5-3.4-4-5.8
		C-200.1,197-199.5,197.1-198.9,197.1z"/>
</g>
<g>
	<path d="M-70,215.1h-19.5l-0.6,0c-5.5,0-9.9-4.5-9.9-10c0-5.5,4.5-10,10-10c0.2,0,0.3,0,0.5,0l0.1,0l1.3,0.1l0.6-1.2
		c2.5-4.9,7.4-7.9,12.9-7.9c6.8,0,12.8,4.8,14.2,11.4l0.3,1.5l1.5,0.1c1.8,0.1,3.5,0.8,4.7,2h2.7c-1.7-2.3-4.3-3.8-7.4-4
		c-1.6-7.4-8.2-13-16.1-13c-6.4,0-12,3.7-14.7,9c-0.3,0-0.5,0-0.8,0c-6.6,0-12,5.4-12,12c0,6.6,5.3,12,11.9,12v0H-70
		c2.2,0,4,1.8,4,4s-1.8,4-4,4v2c3.3,0,6-2.7,6-6C-64,217.8-66.6,215.1-70,215.1z"/>
	<path d="M-66,211.1h-16v2h16c3.3,0,6-2.7,6-6c0-3.3-2.7-6-6-6v2c2.2,0,4,1.8,4,4S-63.8,211.1-66,211.1z"/>
	<path d="M-53,205.1c1.7,0,3,1.3,3,3s-1.3,3-3,3c0,0-0.1,0-0.1,0H-58c0,0,0,0,0,0h0v2h5.5v-0.1c2.5-0.3,4.5-2.4,4.5-4.9
		c0-2.8-2.2-5-5-5L-53,205.1L-53,205.1z"/>
	<path d="M-49,215.1h-13v2h9c0,0,0,0,0,0h3.9c0,0,0.1,0,0.1,0c1.7,0,3,1.3,3,3s-1.3,3-3,3v2c2.8,0,5-2.2,5-5S-46.2,215.1-49,215.1z"
		/>
	<rect x="-88" y="211.1" width="4" height="2"/>
</g>
<path d="M-277.5-184c7,1.3,12.2,7.4,12.2,14.7c0,8.3-6.7,15-15,15c-6.8,0-12.5-4.5-14.4-10.7c1.4,0.5,2.9,0.7,4.4,0.7
	c7.7,0,14-6.3,14-14C-276.3-180.3-276.7-182.2-277.5-184 M-280.3-186.3c-0.3,0-0.7,0-1,0.1c1.9,2.1,3,4.9,3,7.9c0,6.6-5.4,12-12,12
	c-2.6,0-5-0.8-7-2.2c0.4,9,7.8,16.3,17,16.3c9.4,0,17-7.6,17-17S-270.9-186.3-280.3-186.3L-280.3-186.3z"/>
<g>
	<path d="M-383.7-181.3c-7.2,0-13,5.8-13,13c0,7.2,5.8,13,13,13s13-5.8,13-13C-370.7-175.4-376.5-181.3-383.7-181.3z M-383.7-157.3
		c-6.1,0-11-4.9-11-11c0-6.1,4.9-11,11-11s11,4.9,11,11C-372.7-162.2-377.6-157.3-383.7-157.3z"/>
	<rect x="-384.7" y="-194.3" width="2" height="10"/>
	<rect x="-384.7" y="-152.3" width="2" height="10"/>
	<rect x="-409.7" y="-169.3" width="10" height="2"/>
	<rect x="-367.7" y="-169.3" width="10" height="2"/>
	<rect x="-374.2" y="-184" transform="matrix(0.7071 -0.7071 0.7071 0.7071 21.2974 -314.5103)" width="10.4" height="2"/>
	<rect x="-403.6" y="-154.6" transform="matrix(0.7071 -0.7071 0.7071 0.7071 -8.1071 -326.6963)" width="10.4" height="2"/>
	<rect x="-399.4" y="-188.2" transform="matrix(0.7071 -0.7071 0.7071 0.7071 12.6812 -335.3009)" width="2" height="10.4"/>
	<rect x="-370" y="-158.7" transform="matrix(0.7071 -0.7072 0.7072 0.7071 0.4792 -305.9063)" width="2" height="10.4"/>
</g>
<g>
	<rect x="14.5" y="176.6" width="2" height="8"/>
	<rect x="-4.5" y="195.6" width="8" height="2"/>
	<rect x="3.2" y="181.4" transform="matrix(0.7071 -0.7071 0.7071 0.7071 -129.8419 57.2735)" width="2" height="8"/>
	<rect x="22.7" y="184.4" transform="matrix(0.7071 -0.7071 0.7071 0.7071 -123.2482 73.1992)" width="8" height="2"/>
	<path d="M29.5,218.6L29.5,218.6l-12.5,0l-0.6,0c-4.9,0-8.8-4-8.8-8.9c0-4.9,4-8.9,8.9-8.9c0.1,0,0.3,0,0.4,0l0.1,0l1.3,0.1l0.6-1.2
		c2.2-4.4,6.6-7.1,11.5-7.1c5.9,0,11.1,4.1,12.5,9.8h2.1c-1.4-6.7-7.4-11.8-14.6-11.8c-2.2,0-4.3,0.5-6.1,1.3
		c-1.7-3.2-5-5.4-8.9-5.4c-5.5,0-10,4.5-10,10c0,2.5,0.9,4.7,2.4,6.4c-1.4,1.8-2.3,4.1-2.3,6.7c0,6,4.8,10.8,10.8,10.9v0h13.1v0
		c2.2,0,4,1.8,4,4s-1.8,4-4,4v2c3.3,0,6-2.7,6-6C35.5,221.3,32.8,218.6,29.5,218.6z M15.5,188.6c3.1,0,5.8,1.8,7.1,4.3
		c-2.3,1.4-4.2,3.5-5.4,5.9c-0.2,0-0.5,0-0.7,0c-2.8,0-5.3,1-7.2,2.7c-1.1-1.4-1.8-3.1-1.8-5C7.5,192.2,11.1,188.6,15.5,188.6z"/>
	<path d="M33.5,214.6h-10v2h10c3.3,0,6-2.7,6-6c0-3.3-2.7-6-6-6v2c2.2,0,4,1.8,4,4S35.7,214.6,33.5,214.6z"/>
	<path d="M41.5,214.6L41.5,214.6l0,2H47v-0.1c2.5-0.3,4.5-2.4,4.5-4.9c0-2.8-2.2-5-5-5v2c1.7,0,3,1.3,3,3s-1.3,3-3,3
		c0,0-0.1,0-0.1,0L41.5,214.6C41.5,214.6,41.5,214.6,41.5,214.6z"/>
	<path d="M50.5,218.6h-13v2h9c0,0,0,0,0,0h3.9c0,0,0.1,0,0.1,0c1.7,0,3,1.3,3,3s-1.3,3-3,3v2c2.8,0,5-2.2,5-5S53.3,218.6,50.5,218.6
		z"/>
	<rect x="17.5" y="214.6" width="4" height="2"/>
</g>
<g>
	<path d="M129.5,216.6L129.5,216.6l-12.5,0l-0.6,0c-4.9,0-8.8-4-8.8-8.9c0-4.9,4-8.9,8.9-8.9c0.2,0,0.3,0,0.4,0l0.1,0l1.3,0.1
		l0.6-1.2c2.2-4.4,6.6-7.1,11.5-7.1c5.9,0,11.1,4.1,12.5,9.8h2.1c-1.4-6.7-7.4-11.8-14.6-11.8c-1.8,0-3.5,0.3-5.1,0.9
		c-0.9-5.1-5.4-9-10.8-9c-0.4,0-0.8,0-1.2,0.1c0.7,1.1,1.2,2.4,1.2,3.9c0,3.9-3.1,7-7,7c-1.4,0-2.8-0.4-3.9-1.2
		c0,0.4-0.1,0.8-0.1,1.2c0,3.7,1.9,7,4.7,9c-1.7,1.9-2.7,4.4-2.7,7.1c0,6,4.8,10.8,10.8,10.9v0h13.1v0c2.2,0,4,1.8,4,4s-1.8,4-4,4v2
		c3.3,0,6-2.7,6-6C135.5,219.3,132.8,216.6,129.5,216.6z M105.7,193.4c0.6,0.1,1.2,0.2,1.8,0.2c5,0,9-4,9-9c0-0.6-0.1-1.2-0.2-1.8
		c3.7,0.8,6.6,3.8,7.1,7.7c-2.7,1.4-4.9,3.7-6.3,6.4c-0.2,0-0.5,0-0.7,0c-2.5,0-4.9,0.9-6.7,2.3
		C107.6,197.9,106.2,195.8,105.7,193.4z"/>
	<path d="M133.5,212.6h-10v2h10c3.3,0,6-2.7,6-6c0-3.3-2.7-6-6-6v2c2.2,0,4,1.8,4,4S135.7,212.6,133.5,212.6z"/>
	<path d="M141.5,212.6L141.5,212.6l0,2h5.5v-0.1c2.5-0.3,4.5-2.4,4.5-4.9c0-2.8-2.2-5-5-5v2c1.7,0,3,1.3,3,3s-1.3,3-3,3
		c0,0-0.1,0-0.1,0L141.5,212.6C141.5,212.6,141.5,212.6,141.5,212.6z"/>
	<path d="M150.5,216.6h-13v2h9c0,0,0,0,0,0h3.9c0,0,0.1,0,0.1,0c1.7,0,3,1.3,3,3s-1.3,3-3,3v2c2.8,0,5-2.2,5-5
		S153.2,216.6,150.5,216.6z"/>
	<rect x="117.5" y="212.6" width="4" height="2"/>
</g>
<g>
	<rect x="230.4" y="179.2" width="2" height="10"/>
	<rect x="205.4" y="204.2" width="10" height="2"/>
	<rect x="240.8" y="189.5" transform="matrix(0.7071 -0.7071 0.7071 0.7071 -62.6034 229.7687)" width="10.4" height="2"/>
	<rect x="215.6" y="185.3" transform="matrix(0.7071 -0.7071 0.7071 0.7071 -71.2197 208.9781)" width="2" height="10.4"/>
	<path d="M235.4,219.2h-24v2h24c2.2,0,4,1.8,4,4s-1.8,4-4,4v2c3.3,0,6-2.7,6-6C241.4,221.9,238.7,219.2,235.4,219.2z"/>
	<path d="M247.4,215.2L247.4,215.2l0,2h5.5v-0.1c2.5-0.3,4.5-2.4,4.5-4.9c0-2.8-2.2-5-5-5v2c1.7,0,3,1.3,3,3s-1.3,3-3,3
		c0,0-0.1,0-0.1,0L247.4,215.2C247.4,215.2,247.4,215.2,247.4,215.2z"/>
	<path d="M256.4,219.2h-13v2h9c0,0,0,0,0,0h3.9c0,0,0.1,0,0.1,0c1.7,0,3,1.3,3,3s-1.3,3-3,3v2c2.8,0,5-2.2,5-5
		S259.1,219.2,256.4,219.2z"/>
	<path d="M223.1,215.2h-11.7v2h12h0.8h15.2c3.3,0,6-2.7,6-6c0-3.3-2.7-6-6-6v2c2.2,0,4,1.8,4,4s-1.8,4-4,4h-12.5
		c-3.8-1.7-6.5-5.6-6.5-10c0-6.1,4.9-11,11-11c5.4,0,9.9,3.9,10.8,9h2c-1-6.2-6.3-11-12.8-11c-7.2,0-13,5.8-13,13
		C218.4,209.2,220.2,212.8,223.1,215.2z"/>
</g>
<g>
	<path d="M335.6,212.6h-24v2h24c2.2,0,4,1.8,4,4s-1.8,4-4,4v2c3.3,0,6-2.7,6-6C341.6,215.3,338.9,212.6,335.6,212.6z"/>
	<path d="M353.1,210.6L353.1,210.6c2.5-0.3,4.5-2.4,4.5-5c0-2.8-2.2-5-5-5v2c1.7,0,3,1.3,3,3s-1.3,3-3,3c0,0-0.1,0-0.1,0h-4.9
		c0,0,0,0,0,0h0v2H353.1z"/>
	<path d="M356.6,212.6h-13v2h9c0,0,0,0,0,0h3.9c0,0,0.1,0,0.1,0c1.7,0,3,1.3,3,3s-1.3,3-3,3v2c2.8,0,5-2.2,5-5
		S359.3,212.6,356.6,212.6z"/>
	<path d="M324.4,210.6h15.2c3.3,0,6-2.7,6-6c0-3.3-2.7-6-6-6v2c2.2,0,4,1.8,4,4s-1.8,4-4,4H327c-2.6-1.2-4.7-3.3-5.7-6
		c0.8,0.2,1.7,0.3,2.6,0.3c6.2,0,11.2-5,11.2-11.2c0-1.3-0.2-2.5-0.6-3.7c4,1.1,7.2,4.5,7.9,8.6h2c-1-6.2-6.3-11-12.8-11
		c-0.3,0-0.5,0-0.8,0c1.4,1.6,2.3,3.7,2.3,6.1c0,5.1-4.1,9.2-9.2,9.2c-2,0-3.8-0.6-5.3-1.7c0.2,3.8,2,7.2,4.7,9.4h-11.7v2h12
		L324.4,210.6L324.4,210.6z"/>
</g>
<g>
	<path d="M-384.2,297.8h-20c-1.1,0-2-0.9-2-2s0.9-2,2-2h3.4h0.6v-2h-4c-2.2,0-4,1.8-4,4s1.8,4,4,4h20c2.2,0,4,1.8,4,4s-1.8,4-4,4v2
		c3.3,0,6-2.7,6-6S-380.9,297.8-384.2,297.8z"/>
	<path d="M-382.2,281.8v2c2.2,0,4,1.8,4,4s-1.8,4-4,4h-16v2h16c3.3,0,6-2.7,6-6C-376.2,284.5-378.9,281.8-382.2,281.8z"/>
	<path d="M-376.2,293.8v2h5.5v-0.1c2.5-0.3,4.5-2.4,4.5-4.9c0-2.8-2.2-5-5-5v2c1.7,0,3,1.3,3,3s-1.3,3-3,3c0,0-0.1,0-0.1,0
		L-376.2,293.8C-376.2,293.8-376.2,293.8-376.2,293.8L-376.2,293.8z"/>
	<path d="M-365.2,297.8h-11v2h7c0,0,0,0,0,0h3.9c0,0,0.1,0,0.1,0c1.7,0,3,1.3,3,3s-1.3,3-3,3v2c2.8,0,5-2.2,5-5
		S-362.4,297.8-365.2,297.8z"/>
</g>
<path d="M152.1,284.1L152.1,284.1l-38.4,0c-1.1,0-2-0.9-2-2s0.9-2,2-2h33c2.8,0,5-2.2,5-5s-2.2-5-5-5h-37.9v0c0,0-0.1,0-0.1,0
	c-2.8,0-5,2.2-5,5s2.2,5,5,5v-2c-1.7,0-3-1.3-3-3s1.3-3,3-3h0.1h3.9h34c1.7,0,3,1.3,3,3s-1.3,3-3,3h-33c-2.2,0-4,1.8-4,4s1.8,4,4,4
	h38c1.1,0,2,0.9,2,2s-0.9,2-2,2h-32c-2.2,0-4,1.8-4,4s1.8,4,4,4h22c1.1,0,2,0.9,2,2s-0.9,2-2,2h-24v0c-2.2,0-4,1.8-4,4s1.8,4,4,4v0
	h12c1.1,0,2,0.9,2,2s-0.9,2-2,2h-2c-2.2,0-4,1.8-4,4s1.8,4,4,4v-2c-1.1,0-2-0.9-2-2s0.9-2,2-2h2c2.2,0,4-1.8,4-4s-1.8-4-4-4h-12
	c-1.1,0-2-0.9-2-2s0.9-2,2-2h24c2.2,0,4-1.8,4-4c0-2.2-1.7-3.9-3.8-4v0h-22.2c-1.1,0-2-0.9-2-2s0.9-2,2-2h32c2.2,0,4-1.8,4-4
	C155.7,286,154.1,284.3,152.1,284.1z"/>
<path d="M337.5,274.8v-2h-2v2c-13,0.5-23.5,11-24,24h1.7c1.1-1.2,2.7-2,4.6-2c2.3,0,4.2,1.2,5.3,3h1.8c1.1-1.8,3.1-3,5.3-3
	c2.2,0,4.1,1.1,5.2,2.9v15.1c0,2.2,1.8,4,4,4s4-1.8,4-4h-2c0,1.1-0.9,2-2,2s-2-0.9-2-2v-15.1c1.1-1.7,3-2.9,5.2-2.9
	c2.3,0,4.2,1.2,5.3,3h1.8c1.1-1.8,3.1-3,5.3-3c1.8,0,3.4,0.8,4.6,2h1.7C361,285.8,350.5,275.3,337.5,274.8z M355.3,294.8
	c-2.5,0-4.7,1.1-6.2,2.9c-1.5-1.8-3.8-2.9-6.2-2.9s-4.7,1.1-6.2,2.9c-1.5-1.8-3.8-2.9-6.2-2.9s-4.7,1.1-6.2,2.9
	c-1.5-1.8-3.8-2.9-6.2-2.9c-1.4,0-2.7,0.4-3.9,1c1.9-10.8,11.3-19,22.6-19s20.7,8.2,22.6,19C358,295.2,356.7,294.8,355.3,294.8z"/>
<g>
	<path d="M-67.8,399.1V382c0-2.8-2.2-5-5-5s-5,2.2-5,5v17.1c-1.2,1.3-2,3-2,4.9c0,3.9,3.1,7,7,7s7-3.1,7-7
		C-65.8,402.1-66.6,400.4-67.8,399.1z M-72.8,409c-2.8,0-5-2.2-5-5c0-1.3,0.5-2.6,1.4-3.5l0.6-0.6v-0.8V382c0-1.7,1.3-3,3-3
		s3,1.3,3,3v17.1v0.8l0.6,0.6c0.9,0.9,1.4,2.2,1.4,3.5C-67.8,406.8-70,409-72.8,409z"/>
	<path d="M-71.8,401.2V386h-2v15.2c-1.2,0.4-2,1.5-2,2.8c0,1.7,1.3,3,3,3c1.7,0,3-1.3,3-3C-69.8,402.7-70.6,401.6-71.8,401.2z
		 M-72.8,405c-0.6,0-1-0.5-1-1s0.5-1,1-1s1,0.5,1,1S-72.2,405-72.8,405z"/>
</g>
<g>
	<path d="M32,399.1V382c0-2.8-2.2-5-5-5s-5,2.2-5,5v17.1c-1.2,1.3-2,3-2,4.9c0,3.9,3.1,7,7,7s7-3.1,7-7
		C34,402.1,33.2,400.4,32,399.1z M27,409c-2.8,0-5-2.2-5-5c0-1.3,0.5-2.6,1.4-3.5l0.6-0.6v-0.8V382c0-1.7,1.3-3,3-3s3,1.3,3,3v17.1
		v0.8l0.6,0.6c0.9,0.9,1.4,2.2,1.4,3.5C32,406.8,29.8,409,27,409z"/>
	<path d="M28,401.2V381h-2v20.2c-1.2,0.4-2,1.5-2,2.8c0,1.7,1.3,3,3,3c1.7,0,3-1.3,3-3C30,402.7,29.2,401.6,28,401.2z M27,405
		c-0.6,0-1-0.5-1-1s0.5-1,1-1s1,0.5,1,1S27.6,405,27,405z"/>
</g>
<g>
	<path d="M-170.9,399.1V382c0-2.8-2.2-5-5-5s-5,2.2-5,5v17.1c-1.2,1.3-2,3-2,4.9c0,3.9,3.1,7,7,7s7-3.1,7-7
		C-168.9,402.1-169.7,400.4-170.9,399.1z M-175.9,409c-2.8,0-5-2.2-5-5c0-1.3,0.5-2.6,1.4-3.5l0.6-0.6v-0.8V382c0-1.7,1.3-3,3-3
		s3,1.3,3,3v17.1v0.8l0.6,0.6c0.9,0.9,1.4,2.2,1.4,3.5C-170.9,406.8-173.1,409-175.9,409z"/>
	<path d="M-174.9,401.2V391h-2v10.2c-1.2,0.4-2,1.5-2,2.8c0,1.7,1.3,3,3,3c1.7,0,3-1.3,3-3C-172.9,402.7-173.7,401.6-174.9,401.2z
		 M-175.9,405c-0.6,0-1-0.5-1-1s0.5-1,1-1s1,0.5,1,1S-175.3,405-175.9,405z"/>
</g>
<g>
	<path d="M-274.5,399.1V382c0-2.8-2.2-5-5-5s-5,2.2-5,5v17.1c-1.2,1.3-2,3-2,4.9c0,3.9,3.1,7,7,7s7-3.1,7-7
		C-272.5,402.1-273.3,400.4-274.5,399.1z M-279.5,409c-2.8,0-5-2.2-5-5c0-1.3,0.5-2.6,1.4-3.5l0.6-0.6v-0.8V382c0-1.7,1.3-3,3-3
		s3,1.3,3,3v17.1v0.8l0.6,0.6c0.9,0.9,1.4,2.2,1.4,3.5C-274.5,406.8-276.8,409-279.5,409z"/>
	<path d="M-278.5,401.2V396h-2v5.2c-1.2,0.4-2,1.5-2,2.8c0,1.7,1.3,3,3,3c1.7,0,3-1.3,3-3C-276.5,402.7-277.4,401.6-278.5,401.2z
		 M-279.5,405c-0.6,0-1-0.5-1-1s0.5-1,1-1s1,0.5,1,1S-279,405-279.5,405z"/>
</g>
<g>
	<path d="M-379.2,399.1V382c0-2.8-2.2-5-5-5s-5,2.2-5,5v17.1c-1.2,1.3-2,3-2,4.9c0,3.9,3.1,7,7,7s7-3.1,7-7
		C-377.2,402.1-378,400.4-379.2,399.1z M-384.2,409c-2.8,0-5-2.2-5-5c0-1.3,0.5-2.6,1.4-3.5l0.6-0.6v-0.8V382c0-1.7,1.3-3,3-3
		s3,1.3,3,3v17.1v0.8l0.6,0.6c0.9,0.9,1.4,2.2,1.4,3.5C-379.2,406.8-381.4,409-384.2,409z"/>
	<path d="M-384.2,401c-1.7,0-3,1.3-3,3c0,1.7,1.3,3,3,3c1.7,0,3-1.3,3-3C-381.2,402.3-382.5,401-384.2,401z M-384.2,405
		c-0.6,0-1-0.5-1-1s0.5-1,1-1s1,0.5,1,1S-383.6,405-384.2,405z"/>
</g>
<g>
	<path d="M120.7,379.3c-2.2,0-4,1.8-4,4c0,2.2,1.8,4,4,4c2.2,0,4-1.8,4-4C124.7,381.1,122.9,379.3,120.7,379.3z M120.7,385.3
		c-1.1,0-2-0.9-2-2s0.9-2,2-2s2,0.9,2,2S121.8,385.3,120.7,385.3z"/>
	<path d="M134.7,407.3c-4.4,0-8-3.6-8-8v-4c0-4.4,3.6-8,8-8c2.7,0,5.1,1.4,6.6,3.4l1.4-1.4c-1.8-2.4-4.7-4-8-4c-5.5,0-10,4.5-10,10
		v4c0,5.5,4.5,10,10,10c3.3,0,6.2-1.6,8-4l-1.4-1.4C139.8,406,137.4,407.3,134.7,407.3z"/>
</g>
<g>
	<path d="M225.4,379.2c-2.2,0-4,1.8-4,4c0,2.2,1.8,4,4,4c2.2,0,4-1.8,4-4C229.4,381,227.6,379.2,225.4,379.2z M225.4,385.2
		c-1.1,0-2-0.9-2-2s0.9-2,2-2s2,0.9,2,2S226.5,385.2,225.4,385.2z"/>
	<polygon points="245.3,387.3 245.3,385.3 233.3,385.3 231.3,385.3 231.3,409.3 233.3,409.3 233.3,397.3 241.3,397.3 241.3,395.3 
		233.3,395.3 233.3,387.3 	"/>
</g>
<g>
	<path d="M336.5,383c-7.2,0-13,5.8-13,13s5.8,13,13,13s13-5.8,13-13S343.7,383,336.5,383z M336.5,407c-6.1,0-11-4.9-11-11
		s4.9-11,11-11s11,4.9,11,11S342.6,407,336.5,407z"/>
	<path d="M332.2,400.3l6.4-2.1l2.1-6.4l-6.4,2.1L332.2,400.3z M335.9,395.5l1.6-0.5l-0.5,1.6l-1.6,0.5L335.9,395.5z"/>
</g>
<g>
	<path d="M-384.2,473.5c-7.2,0-13,5.8-13,13s5.8,13,13,13s13-5.8,13-13S-377,473.5-384.2,473.5z M-384.2,497.5c-6.1,0-11-4.9-11-11
		c0-6.1,4.9-11,11-11s11,4.9,11,11C-373.2,492.6-378.1,497.5-384.2,497.5z"/>
	<path d="M-381.6,485l-2.6-4.4l-2.5,4.3h0c-0.3,0.5-0.5,1-0.5,1.6c0,1.7,1.3,3,3,3s3-1.3,3-3C-381.2,485.9-381.4,485.4-381.6,485
		L-381.6,485z M-384.2,487.5c-0.6,0-1-0.4-1-1c0-0.2,0.1-0.4,0.2-0.5l0.9-1.4l0.8,1.4c0.1,0.2,0.1,0.3,0.1,0.5
		C-383.2,487-383.7,487.5-384.2,487.5z"/>
</g>
<g>
	<path d="M-279.4,473.5c-7.2,0-13,5.8-13,13s5.8,13,13,13s13-5.8,13-13S-272.2,473.5-279.4,473.5z M-279.4,497.5
		c-6.1,0-11-4.9-11-11c0-6.1,4.9-11,11-11s11,4.9,11,11C-268.4,492.6-273.4,497.5-279.4,497.5z"/>
	<path d="M-277.8,484c-0.5-0.3-1-0.5-1.6-0.5c-1.7,0-3,1.3-3,3c0,1.7,1.3,3,3,3c0.6,0,1.1-0.2,1.5-0.4v0l4.4-2.6L-277.8,484
		L-277.8,484L-277.8,484z M-278.9,487.3c-0.2,0.1-0.3,0.1-0.5,0.1c-0.6,0-1-0.4-1-1c0-0.6,0.4-1,1-1c0.2,0,0.4,0.1,0.5,0.2l1.4,0.9
		L-278.9,487.3z"/>
</g>
<g>
	<path d="M-176.4,473.5c-7.2,0-13,5.8-13,13s5.8,13,13,13s13-5.8,13-13S-169.2,473.5-176.4,473.5z M-176.4,497.5
		c-6.1,0-11-4.9-11-11c0-6.1,4.9-11,11-11s11,4.9,11,11C-165.4,492.6-170.3,497.5-176.4,497.5z"/>
	<path d="M-176.4,483.5c-1.7,0-3,1.3-3,3c0,0.6,0.2,1.1,0.4,1.5h0l2.6,4.4l2.5-4.3h0c0.3-0.5,0.5-1,0.5-1.6
		C-173.4,484.8-174.7,483.5-176.4,483.5z M-175.5,487l-0.9,1.4l-0.8-1.4c-0.1-0.2-0.1-0.3-0.1-0.5c0-0.6,0.4-1,1-1s1,0.4,1,1
		C-175.4,486.7-175.4,486.8-175.5,487z"/>
</g>
<g>
	<path d="M-73,473.5c-7.2,0-13,5.8-13,13s5.8,13,13,13s13-5.8,13-13S-65.8,473.5-73,473.5z M-73,497.5c-6.1,0-11-4.9-11-11
		c0-6.1,4.9-11,11-11s11,4.9,11,11C-62,492.6-66.9,497.5-73,497.5z"/>
	<path d="M-73,483.5c-0.6,0-1.1,0.2-1.5,0.4v0l-4.4,2.6l4.3,2.5v0c0.5,0.3,1,0.5,1.6,0.5c1.7,0,3-1.3,3-3
		C-70,484.8-71.3,483.5-73,483.5z M-73,487.5c-0.2,0-0.4-0.1-0.5-0.2l-1.4-0.9l1.4-0.8c0.2-0.1,0.3-0.1,0.5-0.1c0.6,0,1,0.4,1,1
		C-72,487-72.4,487.5-73,487.5z"/>
</g>
<g>
	<rect x="-281.1" y="276.8" width="2" height="10"/>
	<rect x="-270.6" y="287.1" transform="matrix(0.7071 -0.7071 0.7071 0.7071 -281.4463 -103.2852)" width="10.4" height="2"/>
	<rect x="-295.8" y="282.9" transform="matrix(0.7071 -0.7071 0.7071 0.7071 -290.0618 -124.0756)" width="2" height="10.4"/>
	<polygon points="-286.8,306.1 -285.4,307.5 -281.1,303.2 -281.1,312.8 -279.1,312.8 -279.1,303.2 -274.9,307.5 -273.4,306.1 
		-280.1,299.4 	"/>
	<path d="M-267.1,302.8C-267.1,302.8-267.1,302.8-267.1,302.8c0-7.2-5.8-13-13-13s-13,5.8-13,13c0,0,0,0,0,0h-13v2h18v-2h-3
		c0,0,0,0,0,0c0-6.1,4.9-11,11-11s11,4.9,11,11c0,0,0,0,0,0h-3v2h18v-2H-267.1z"/>
</g>
<g>
	<rect x="-177.4" y="275.6" width="2" height="10"/>
	<rect x="-166.9" y="285.9" transform="matrix(0.7071 -0.7071 0.7071 0.7071 -250.2197 -30.2748)" width="10.4" height="2"/>
	<rect x="-192.1" y="281.7" transform="matrix(0.7071 -0.7071 0.7071 0.7071 -258.8359 -51.0654)" width="2" height="10.4"/>
	<polygon points="-175.4,310.2 -175.4,299.6 -177.4,299.6 -177.4,310.2 -181.6,305.9 -183,307.3 -176.4,314 -169.7,307.3 
		-171.1,305.9 	"/>
	<path d="M-163.4,301.6C-163.4,301.6-163.4,301.6-163.4,301.6c0-7.2-5.8-13-13-13s-13,5.8-13,13c0,0,0,0,0,0h-13v2h22v-2h-7
		c0,0,0,0,0,0c0-6.1,4.9-11,11-11s11,4.9,11,11c0,0,0,0,0,0h-7v2h22v-2H-163.4z"/>
</g>
<g>
	<polygon points="27,309.6 27,295.2 25,295.2 25,309.6 20.7,305.4 19.3,306.8 26,313.5 32.7,306.8 31.3,305.4 	"/>
	<path d="M42.6,290.3c-1.6-7.4-8.2-13-16.1-13c-6.4,0-12,3.7-14.7,9c-0.3,0-0.5,0-0.8,0c-6.6,0-12,5.4-12,12c0,6.6,5.3,12,11.9,12v0
		H17v-2h-5.6l-0.4,0c-5.5,0-9.9-4.5-9.9-10c0-5.5,4.5-10,10-10c0.2,0,0.3,0,0.5,0l0.1,0l1.3,0.1l0.6-1.2c2.5-4.9,7.4-7.9,12.9-7.9
		c6.8,0,12.8,4.8,14.2,11.4l0.3,1.5l1.5,0.1c4.2,0.3,7.5,3.8,7.5,8c0,4.4-3.6,8-8,8c0,0-0.1,0-0.1,0l-2,0H35v2h6.9v0
		c0,0,0.1,0,0.1,0c5.5,0,10-4.5,10-10C52,294.9,47.9,290.6,42.6,290.3z"/>
</g>
<g>
	<polygon points="-67,306.4 -65.6,305 -72.3,298.4 -78.9,305 -77.5,306.4 -73.3,302.2 -73.3,314.8 -71.3,314.8 -71.3,302.2 	"/>
	<path d="M-55.6,291.9c-1.6-7.4-8.2-13-16.1-13c-6.4,0-12,3.7-14.7,9c-0.3,0-0.5,0-0.8,0c-6.6,0-12,5.4-12,12c0,6.6,5.3,12,11.9,12
		v0h10.1v-2h-9.6l-0.4,0c-5.5,0-9.9-4.5-9.9-10c0-5.5,4.5-10,10-10c0.2,0,0.3,0,0.5,0l0.1,0l1.3,0.1l0.6-1.2
		c2.5-4.9,7.4-7.9,12.9-7.9c6.8,0,12.8,4.8,14.2,11.4l0.3,1.5l1.5,0.1c4.2,0.3,7.5,3.8,7.5,8c0,4.4-3.6,8-8,8c0,0-0.1,0-0.1,0l-2,0
		h-8.9v2h10.9v0c0,0,0.1,0,0.1,0c5.5,0,10-4.5,10-10C-46.3,296.5-50.4,292.2-55.6,291.9z"/>
</g>
<g>
	<path d="M146.8,102.4c-1.6-7.4-8.2-13-16.1-13c-6.4,0-12,3.7-14.7,9c-0.3,0-0.5,0-0.8,0c-6.6,0-12,5.4-12,12c0,6.6,5.3,12,11.9,12
		v0h2.1v-2h-1.6l-0.4,0c-5.5,0-9.9-4.5-9.9-10c0-5.5,4.5-10,10-10c0.2,0,0.3,0,0.5,0l0.1,0l1.3,0.1l0.6-1.2
		c2.5-4.9,7.4-7.9,12.9-7.9c6.8,0,12.8,4.8,14.2,11.4l0.3,1.5l1.5,0.1c4.2,0.3,7.5,3.8,7.5,8c0,4.4-3.6,8-8,8c-0.1,0-0.1,0-0.1,0
		l-2,0h-0.9v2h2.9v0c0,0,0.1,0,0.1,0c5.5,0,10-4.5,10-10C156.2,107,152.1,102.7,146.8,102.4z"/>
	<polygon points="125.2,121.3 125.2,118.7 127.4,119.9 128.1,118.7 125.6,117.3 128.1,115.9 127.4,114.7 125.2,115.9 125.2,113.3 
		123.2,113.3 123.2,116 121,114.7 120.3,115.9 122.8,117.3 120.3,118.7 121,119.9 123.2,118.7 123.2,121.3 	"/>
	<polygon points="130.4,125.7 128.2,126.9 128.2,124.3 126.2,124.3 126.2,127 124,125.7 123.3,126.9 125.7,128.3 123.3,129.7 
		124,130.9 126.2,129.7 126.2,132.3 128.2,132.3 128.2,129.7 130.4,130.9 131.1,129.7 128.6,128.3 131.1,126.9 	"/>
	<polygon points="139.4,118.7 137.2,119.9 137.2,117.3 135.2,117.3 135.2,120 133,118.7 132.3,119.9 134.8,121.3 132.3,122.7 
		133,123.9 135.2,122.7 135.2,125.3 137.2,125.3 137.2,122.7 139.4,123.9 140.1,122.7 137.6,121.3 140.1,119.9 	"/>
</g>
<g>
	<rect x="222.4" y="84.3" width="2" height="8"/>
	<rect x="203.4" y="103.2" width="8" height="2"/>
	<rect x="211" y="89" transform="matrix(0.7071 -0.7071 0.7071 0.7071 -3.6248 177.1441)" width="2" height="8"/>
	<rect x="230.6" y="92" transform="matrix(0.7071 -0.7071 0.7071 0.7071 2.9686 193.0705)" width="8" height="2"/>
	<path d="M252.9,110.1c-1.4-6.7-7.4-11.8-14.6-11.8c-2.2,0-4.3,0.5-6.1,1.3c-1.7-3.2-5-5.4-8.9-5.4c-5.5,0-10,4.5-10,10
		c0,2.5,0.9,4.7,2.4,6.4c-1.4,1.8-2.3,4.1-2.3,6.7c0,6,4.8,10.8,10.8,10.9v0h1.2v-2h-0.7l-0.5,0c-4.9,0-8.8-4-8.8-8.9
		c0-4.9,4-8.9,8.9-8.9c0.1,0,0.3,0,0.4,0l0.1,0l1.3,0.1l0.6-1.2c2.2-4.4,6.6-7.1,11.5-7.1c6.1,0,11.4,4.3,12.6,10.2l0.3,1.5l1.5,0.1
		c3.7,0.2,6.6,3.3,6.6,7c0,3.9-3.1,7-7,7.1c0,0-0.1,0-0.1,0l-1.9,0v2h1.8v0c0,0,0.1,0,0.1,0c5,0,9.1-4.1,9.1-9.1
		C261.4,114.3,257.6,110.4,252.9,110.1z M225,106.5c-0.2,0-0.5,0-0.7,0c-2.8,0-5.3,1-7.2,2.7c-1.1-1.4-1.8-3.1-1.8-5
		c0-4.4,3.6-8,8-8c3.1,0,5.8,1.8,7.1,4.3C228.1,102,226.2,104,225,106.5z"/>
	<polygon points="232.4,127.2 232.4,124.6 234.5,125.8 235.2,124.6 232.7,123.2 235.2,121.8 234.5,120.6 232.4,121.8 232.4,119.2 
		230.4,119.2 230.4,121.8 228.1,120.6 227.4,121.8 229.9,123.2 227.4,124.6 228.1,125.8 230.4,124.5 230.4,127.2 	"/>
	<polygon points="237.5,131.6 235.3,132.8 235.3,130.2 233.3,130.2 233.3,132.8 231.1,131.6 230.4,132.8 232.9,134.2 230.4,135.6 
		231.1,136.8 233.3,135.5 233.3,138.2 235.3,138.2 235.3,135.5 237.5,136.8 238.2,135.6 235.7,134.2 238.2,132.8 	"/>
	<polygon points="246.5,124.6 244.4,125.8 244.4,123.2 242.4,123.2 242.4,125.8 240.1,124.6 239.4,125.8 241.9,127.2 239.4,128.6 
		240.1,129.8 242.4,128.5 242.4,131.2 244.4,131.2 244.4,128.6 246.5,129.8 247.2,128.6 244.7,127.2 247.2,125.8 	"/>
</g>
<g>
	<path d="M353.1,107.1c-1.4-6.7-7.4-11.8-14.6-11.8c-1.8,0-3.5,0.3-5.1,0.9c-0.9-5.1-5.4-9-10.8-9c-0.4,0-0.8,0-1.2,0.1
		c0.7,1.1,1.2,2.4,1.2,3.9c0,3.9-3.1,7-7,7c-1.4,0-2.8-0.4-3.9-1.2c0,0.4-0.1,0.8-0.1,1.2c0,3.7,1.8,7,4.7,9
		c-1.7,1.9-2.7,4.4-2.7,7.1c0,6,4.8,10.8,10.8,10.9v0h1.2v-2h-0.7l-0.5,0c-4.9,0-8.8-4-8.8-8.9c0-4.9,4-8.9,8.9-8.9
		c0.1,0,0.3,0,0.4,0l0.1,0l1.3,0.1l0.6-1.2c2.2-4.4,6.6-7.1,11.5-7.1c6.1,0,11.4,4.3,12.6,10.2l0.3,1.5l1.5,0.1
		c3.7,0.2,6.6,3.3,6.6,7c0,3.9-3.1,7-7,7.1c0,0-0.1,0-0.1,0l-1.9,0v2h1.8v0c0,0,0.1,0,0.1,0c5,0,9.1-4.1,9.1-9.1
		C361.5,111.3,357.8,107.4,353.1,107.1z M325.1,103.5c-0.2,0-0.5,0-0.7,0c-2.5,0-4.9,0.9-6.7,2.3c-2-1.3-3.5-3.4-4-5.8
		c0.6,0.1,1.2,0.2,1.8,0.2c5,0,9-4,9-9c0-0.6-0.1-1.2-0.2-1.8c3.7,0.8,6.6,3.8,7.1,7.6C328.8,98.5,326.5,100.7,325.1,103.5z"/>
	<polygon points="332.6,124.2 332.6,121.6 334.8,122.8 335.4,121.6 333,120.2 335.4,118.8 334.8,117.6 332.6,118.8 332.6,116.2 
		330.6,116.2 330.6,118.8 328.3,117.6 327.6,118.8 330.1,120.2 327.6,121.6 328.3,122.8 330.6,121.5 330.6,124.2 	"/>
	<polygon points="337.7,128.5 335.6,129.8 335.6,127.2 333.6,127.2 333.6,129.8 331.3,128.5 330.6,129.8 333.1,131.2 330.6,132.5 
		331.3,133.8 333.6,132.5 333.6,135.2 335.6,135.2 335.6,132.5 337.7,133.8 338.4,132.5 336,131.2 338.4,129.8 	"/>
	<polygon points="346.8,121.6 344.6,122.8 344.6,120.2 342.6,120.2 342.6,122.8 340.3,121.6 339.7,122.8 342.1,124.2 339.7,125.6 
		340.3,126.8 342.6,125.5 342.6,128.2 344.6,128.2 344.6,125.6 346.8,126.8 347.4,125.6 345,124.2 347.4,122.8 	"/>
</g>
<rect x="-263.3" y="-460.7" class="st1" width="473" height="180.9"/>
<text transform="matrix(1 0 0 1 -83.6606 -389.2612)" style="font-family:'Helvetica'; font-size:100px; letter-spacing:2;">60</text>
<text transform="matrix(1 0 0 1 -182.9286 -329.2612)" style="font-family:'Helvetica'; font-size:48px;">Weather Icons</text>
<text transform="matrix(1 0 0 1 -87.3866 -285.2612)" style="font-family:'Helvetica'; font-size:24px;">IOS 7 Style</text>
</svg>
