<?xml version="1.0" encoding="utf-8"?>
<!-- Generator: Adobe Illustrator 25.0.1, SVG Export Plug-In . SVG Version: 6.00 Build 0)  -->
<svg version="1.1" id="Layer_1" xmlns="http://www.w3.org/2000/svg" xmlns:xlink="http://www.w3.org/1999/xlink" x="0px" y="0px"
	 viewBox="0 0 50 45" style="enable-background:new 0 0 50 45;" xml:space="preserve">
<style type="text/css">
	.st0{fill:#FFFFFF;}
	.st1{fill:none;}
</style>
<path d="M236.2,189.2l-1.8,15.1l-0.3,2.2h2.3h6.9l-14.7,18.8l1.8-14.5l0.3-2.2h-2.3h-7L236.2,189.2 M239,182.1l-21.7,28.3h11
	l-2.7,21.7l21.7-27.7h-11L239,182.1L239,182.1z"/>
<path d="M-176.9-273.1c6.8,0,12.7,4.8,14.2,11.4l0.3,1.5l1.5,0.1c4.2,0.3,7.5,3.8,7.5,8c0,4.4-3.6,8-8,8c0,0-0.1,0-0.1,0l-2,0v0
	h-28.3l-0.6,0c-5.5,0-9.9-4.5-9.9-10c0-5.5,4.5-10,10-10c0.2,0,0.3,0,0.5,0l0.1,0l1.3,0.1l0.6-1.2
	C-187.3-270-182.3-273.1-176.9-273.1 M-176.9-275.1c-6.4,0-12,3.7-14.7,9c-0.3,0-0.5,0-0.8,0c-6.6,0-12,5.4-12,12
	c0,6.6,5.3,12,11.9,12v0h30.9v0c0,0,0.1,0,0.1,0c5.5,0,10-4.5,10-10c0-5.3-4.1-9.6-9.4-10C-162.3-269.5-168.9-275.1-176.9-275.1
	L-176.9-275.1z"/>
<g>
	<path d="M-53.9-254.7c-1.4-6.7-7.4-11.8-14.6-11.8c-2.2,0-4.3,0.5-6.1,1.3c-1.7-3.2-5-5.4-8.9-5.4c-5.5,0-10,4.5-10,10
		c0,2.5,0.9,4.7,2.4,6.4c-1.4,1.8-2.3,4.1-2.3,6.7c0,6,4.8,10.8,10.8,10.9v0h28v0c0,0,0.1,0,0.1,0c5,0,9.1-4.1,9.1-9.1
		C-45.4-250.5-49.2-254.4-53.9-254.7z M-83.5-268.6c3.1,0,5.8,1.8,7.1,4.3c-2.3,1.4-4.2,3.5-5.4,5.9c-0.2,0-0.5,0-0.7,0
		c-2.8,0-5.3,1-7.2,2.7c-1.1-1.4-1.8-3.1-1.8-5C-91.5-265-87.9-268.6-83.5-268.6z M-54.4-238.6c0,0-0.1,0-0.1,0l-2,0v0H-82l-0.6,0
		c-4.9,0-8.8-4-8.8-8.9c0-4.9,4-8.9,8.9-8.9c0.2,0,0.3,0,0.4,0l0.1,0l1.3,0.1l0.6-1.2c2.2-4.4,6.6-7.1,11.5-7.1
		c6.1,0,11.4,4.3,12.7,10.2l0.3,1.5l1.5,0.1c3.7,0.2,6.6,3.3,6.6,7C-47.4-241.8-50.6-238.6-54.4-238.6z"/>
	<rect x="-84.5" y="-280.6" width="2" height="8"/>
	<rect x="-103.5" y="-261.6" width="8" height="2"/>
	<rect x="-95.8" y="-275.8" transform="matrix(0.7071 -0.7071 0.7071 0.7071 164.4457 -146.6226)" width="2" height="8"/>
	<rect x="-76.2" y="-272.8" transform="matrix(0.7071 -0.7071 0.7071 0.7071 171.0392 -130.6963)" width="8" height="2"/>
</g>
<path d="M41.8-258.7c-1.4-6.7-7.4-11.8-14.6-11.8c-1.8,0-3.5,0.3-5.1,0.9c-0.9-5.1-5.4-9-10.8-9c-0.4,0-0.8,0-1.2,0.1
	c0.7,1.1,1.2,2.4,1.2,3.9c0,3.9-3.1,7-7,7c-1.4,0-2.8-0.4-3.9-1.2c0,0.4-0.1,0.8-0.1,1.2c0,3.7,1.8,7,4.7,9
	c-1.7,1.9-2.7,4.4-2.7,7.1c0,6,4.8,10.8,10.8,10.9v0h28v0c0,0,0.1,0,0.1,0c5,0,9.1-4.1,9.1-9.1C50.3-254.5,46.6-258.4,41.8-258.7z
	 M2.5-265.8c0.6,0.1,1.2,0.2,1.8,0.2c5,0,9-4,9-9c0-0.6-0.1-1.2-0.2-1.8c3.7,0.8,6.6,3.8,7.1,7.6c-2.7,1.4-4.9,3.7-6.3,6.4
	c-0.2,0-0.5,0-0.7,0c-2.5,0-4.9,0.9-6.7,2.3C4.5-261.3,3-263.4,2.5-265.8z M41.3-242.6c0,0-0.1,0-0.1,0l-2,0v0H13.7l-0.6,0
	c-4.9,0-8.8-4-8.8-8.9c0-4.9,4-8.9,8.9-8.9c0.1,0,0.3,0,0.4,0l0.1,0l1.3,0.1l0.6-1.2c2.2-4.4,6.6-7.1,11.5-7.1
	c6.1,0,11.4,4.3,12.7,10.2l0.3,1.5l1.5,0.1c3.7,0.2,6.6,3.3,6.6,7C48.3-245.8,45.2-242.6,41.3-242.6z"/>
<g>
	<rect x="126.5" y="-250.1" width="2" height="7"/>
	<rect x="134.5" y="-254.1" width="2" height="7"/>
	<rect x="118.5" y="-254.1" width="2" height="7"/>
	<rect x="126.5" y="-240.1" width="2" height="7"/>
	<rect x="134.5" y="-244.1" width="2" height="7"/>
	<rect x="118.5" y="-244.1" width="2" height="7"/>
	<path d="M145.1-267.1c-1.6-7.4-8.2-13-16.1-13c-6.4,0-12,3.7-14.7,9c-0.3,0-0.5,0-0.8,0c-6.6,0-12,5.4-12,12c0,6.6,5.3,12,11.9,12
		v0h2.1v-2h-1.6l-0.4,0c-5.5,0-9.9-4.5-9.9-10c0-5.5,4.5-10,10-10c0.2,0,0.3,0,0.5,0l0.1,0l1.3,0.1l0.6-1.2
		c2.5-4.9,7.4-7.9,12.9-7.9c6.8,0,12.8,4.8,14.2,11.4l0.3,1.5l1.5,0.1c4.2,0.3,7.5,3.8,7.5,8c0,4.4-3.6,8-8,8c-0.1,0-0.1,0-0.1,0
		l-2,0h-2.9v2h4.9v0c0,0,0.1,0,0.1,0c5.5,0,10-4.5,10-10C154.5-262.4,150.3-266.7,145.1-267.1z"/>
</g>
<g>
	<path d="M-57.3-177.7c-1.6-7.4-8.2-13-16.1-13c-6.4,0-12,3.7-14.7,9c-0.3,0-0.5,0-0.8,0c-6.6,0-12,5.4-12,12c0,6.6,5.3,12,11.9,12
		v0h2.1v-2h-1.6l-0.4,0c-5.5,0-9.9-4.5-9.9-10c0-5.5,4.5-10,10-10c0.2,0,0.3,0,0.5,0l0.1,0l1.3,0.1l0.6-1.2
		c2.5-4.9,7.4-7.9,12.9-7.9c6.8,0,12.8,4.8,14.2,11.4l0.3,1.5l1.5,0.1c4.2,0.3,7.5,3.8,7.5,8c0,4.4-3.6,8-8,8c0,0-0.1,0-0.1,0l-2,0
		H-63v2h4.9v0c0,0,0.1,0,0.1,0c5.5,0,10-4.5,10-10C-48-173.1-52.1-177.4-57.3-177.7z"/>
	<polygon points="-76,-150.7 -76,-148.8 -76,-142.7 -74,-142.7 -74,-148.8 -74,-150.7 -74,-162.7 -76,-162.7 	"/>
	<polygon points="-68,-154.7 -68,-153 -68,-146.7 -66,-146.7 -66,-153 -66,-154.7 -66,-166.7 -68,-166.7 	"/>
	<polygon points="-84,-154.7 -84,-152.6 -84,-146.7 -82,-146.7 -82,-152.6 -82,-154.7 -82,-166.7 -84,-166.7 	"/>
</g>
<g>
	<polygon points="238.3,-153.8 231.4,-163.6 229.8,-162.5 236.7,-152.7 237.8,-151.1 241.3,-146.1 242.9,-147.2 239.4,-152.2 	"/>
	<polygon points="246.3,-153.8 239.4,-163.6 237.8,-162.5 244.7,-152.7 245.7,-151.2 249.3,-146.1 250.9,-147.3 247.3,-152.4 	"/>
	<polygon points="230.3,-153.8 223.4,-163.6 221.8,-162.5 228.7,-152.7 229.9,-151 233.3,-146.1 234.9,-147.2 231.5,-152.1 	"/>
	<path d="M249.4-177.4c-1.6-7.4-8.2-13-16.1-13c-6.4,0-12,3.7-14.7,9c-0.3,0-0.5,0-0.8,0c-6.6,0-12,5.4-12,12c0,6.6,5.3,12,11.9,12
		v0h2.1v-2h-1.6l-0.4,0c-5.5,0-9.9-4.5-9.9-10c0-5.5,4.5-10,10-10c0.2,0,0.3,0,0.5,0l0.1,0l1.3,0.1l0.6-1.2
		c2.5-4.9,7.4-7.9,12.9-7.9c6.8,0,12.8,4.8,14.2,11.4l0.3,1.5l1.5,0.1c4.2,0.3,7.5,3.8,7.5,8c0,4.4-3.6,8-8,8c-0.1,0-0.1,0-0.1,0
		l-1,0h0.1v2h0.9v0c0,0,0.1,0,0.1,0c5.5,0,10-4.5,10-10C258.8-172.8,254.7-177.1,249.4-177.4z"/>
</g>
<g>
	<rect x="221.1" y="-286.5" width="2" height="8"/>
	<rect x="202.1" y="-267.6" width="8" height="2"/>
	<rect x="209.8" y="-281.9" transform="matrix(0.7071 -0.7071 0.7071 0.7071 258.2277 67.6617)" width="2" height="8"/>
	<rect x="229.3" y="-278.9" transform="matrix(0.7071 -0.7071 0.7071 0.7071 264.8212 83.5881)" width="8" height="2"/>
	<rect x="235.1" y="-245.7" width="2" height="7"/>
	<rect x="243.1" y="-249.7" width="2" height="7"/>
	<rect x="227.1" y="-249.7" width="2" height="7"/>
	<rect x="235.1" y="-235.7" width="2" height="7"/>
	<rect x="243.1" y="-239.7" width="2" height="7"/>
	<rect x="227.1" y="-239.7" width="2" height="7"/>
	<path d="M251.6-260.7c-1.4-6.7-7.4-11.8-14.6-11.8c-2.2,0-4.3,0.5-6.1,1.3c-1.7-3.2-5-5.4-8.9-5.4c-5.5,0-10,4.5-10,10
		c0,2.5,0.9,4.7,2.4,6.4c-1.4,1.8-2.3,4.1-2.3,6.7c0,6,4.8,10.8,10.8,10.9v0h1.2v-2h-0.7l-0.5,0c-4.9,0-8.8-4-8.8-8.9
		c0-4.9,4-8.9,8.9-8.9c0.1,0,0.3,0,0.4,0l0.1,0l1.3,0.1l0.6-1.2c2.2-4.4,6.6-7.1,11.5-7.1c6.1,0,11.4,4.3,12.6,10.2l0.3,1.5l1.5,0.1
		c3.7,0.2,6.6,3.3,6.6,7c0,3.9-3.1,7-7,7.1c0,0-0.1,0-0.1,0l-2,0h-0.8v2h2.8v0c0,0,0.1,0,0.1,0c5,0,9.1-4.1,9.1-9.1
		C260.1-256.5,256.4-260.4,251.6-260.7z M223.7-264.4c-0.2,0-0.5,0-0.7,0c-2.8,0-5.3,1-7.2,2.7c-1.1-1.4-1.8-3.1-1.8-5
		c0-4.4,3.6-8,8-8c3.1,0,5.8,1.8,7.1,4.3C226.8-268.8,225-266.8,223.7-264.4z"/>
</g>
<g>
	<rect x="335.5" y="-247.1" width="2" height="7"/>
	<rect x="343.5" y="-251.1" width="2" height="7"/>
	<rect x="327.5" y="-251.1" width="2" height="7"/>
	<rect x="335.5" y="-237.1" width="2" height="7"/>
	<rect x="343.5" y="-241.1" width="2" height="7"/>
	<rect x="327.5" y="-241.1" width="2" height="7"/>
	<path d="M352.1-262.2c-1.4-6.7-7.4-11.8-14.6-11.8c-1.8,0-3.5,0.3-5.1,0.9c-0.9-5.1-5.4-9-10.8-9c-0.4,0-0.8,0-1.2,0.1
		c0.7,1.1,1.2,2.4,1.2,3.9c0,3.9-3.1,7-7,7c-1.4,0-2.8-0.4-3.9-1.2c0,0.4-0.1,0.8-0.1,1.2c0,3.7,1.8,7,4.7,9
		c-1.7,1.9-2.7,4.4-2.7,7.1c0,6,4.8,10.8,10.8,10.9v0h1.2v-2h-0.7l-0.5,0c-4.9,0-8.8-4-8.8-8.9c0-4.9,4-8.9,8.9-8.9
		c0.1,0,0.3,0,0.4,0l0.1,0l1.3,0.1l0.6-1.2c2.2-4.4,6.6-7.1,11.5-7.1c6.1,0,11.4,4.3,12.6,10.2l0.3,1.5l1.5,0.1
		c3.7,0.2,6.6,3.3,6.6,7c0,3.9-3.1,7-7,7.1c0,0-0.1,0-0.1,0l-2,0h-0.8v2h2.8v0c0,0,0.1,0,0.1,0c5,0,9.1-4.1,9.1-9.1
		C360.5-258,356.8-261.9,352.1-262.2z M324.1-265.8c-0.2,0-0.5,0-0.7,0c-2.5,0-4.9,0.9-6.7,2.3c-2-1.3-3.5-3.4-4-5.8
		c0.6,0.1,1.2,0.2,1.8,0.2c5,0,9-4,9-9c0-0.6-0.1-1.2-0.2-1.8c3.7,0.8,6.6,3.8,7.1,7.6C327.8-270.8,325.5-268.5,324.1-265.8z"/>
</g>
<g>
	<polygon points="28.3,-146.3 28.3,-144.3 28.3,-138.3 30.3,-138.3 30.3,-144.3 30.3,-146.3 30.3,-158.3 28.3,-158.3 	"/>
	<polygon points="36.3,-150.3 36.3,-148.5 36.3,-142.3 38.3,-142.3 38.3,-148.5 38.3,-150.3 38.3,-162.3 36.3,-162.3 	"/>
	<polygon points="20.3,-150.3 20.3,-148.2 20.3,-142.3 22.3,-142.3 22.3,-148.2 22.3,-150.3 22.3,-162.3 20.3,-162.3 	"/>
	<rect x="14.3" y="-197.2" width="2" height="8"/>
	<rect x="-4.7" y="-178.3" width="8" height="2"/>
	<rect x="3" y="-192.5" transform="matrix(0.7071 -0.7071 0.7071 0.7071 134.4758 -52.4073)" width="2" height="8"/>
	<rect x="22.5" y="-189.5" transform="matrix(0.7071 -0.7071 0.7071 0.7071 141.0692 -36.4809)" width="8" height="2"/>
	<path d="M44.8-171.4c-1.4-6.7-7.4-11.8-14.6-11.8c-2.2,0-4.3,0.5-6.1,1.3c-1.7-3.2-5-5.4-8.9-5.4c-5.5,0-10,4.5-10,10
		c0,2.5,0.9,4.7,2.4,6.4c-1.4,1.8-2.3,4.1-2.3,6.7c0,6,4.8,10.8,10.8,10.9v0h1.2v-2h-0.7l-0.5,0c-4.9,0-8.8-4-8.8-8.9
		c0-4.9,4-8.9,8.9-8.9c0.1,0,0.3,0,0.4,0l0.1,0l1.3,0.1l0.6-1.2c2.2-4.4,6.6-7.1,11.5-7.1c6.1,0,11.4,4.3,12.6,10.2l0.3,1.5l1.5,0.1
		c3.7,0.2,6.6,3.3,6.6,7c0,3.9-3.1,7-7,7.1c0,0-0.1,0-0.1,0l-2,0h-0.8v2h2.8v0c0,0,0.1,0,0.1,0c5,0,9.1-4.1,9.1-9.1
		C53.3-167.2,49.6-171.1,44.8-171.4z M16.9-175c-0.2,0-0.5,0-0.7,0c-2.8,0-5.3,1-7.2,2.7c-1.1-1.4-1.8-3.1-1.8-5c0-4.4,3.6-8,8-8
		c3.1,0,5.8,1.8,7.1,4.3C20-179.5,18.1-177.4,16.9-175z"/>
</g>
<g>
	<polygon points="128.7,-148.8 128.7,-146.9 128.7,-140.8 130.7,-140.8 130.7,-146.9 130.7,-148.8 130.7,-160.8 128.7,-160.8 	"/>
	<polygon points="136.7,-152.8 136.7,-151 136.7,-144.8 138.7,-144.8 138.7,-151 138.7,-152.8 138.7,-164.8 136.7,-164.8 	"/>
	<polygon points="120.7,-152.8 120.7,-150.7 120.7,-144.8 122.7,-144.8 122.7,-150.7 122.7,-152.8 122.7,-164.8 120.7,-164.8 	"/>
	<path d="M145.2-173.9c-1.4-6.7-7.4-11.8-14.6-11.8c-1.8,0-3.5,0.3-5.1,0.9c-0.9-5.1-5.4-9-10.8-9c-0.4,0-0.8,0-1.2,0.1
		c0.7,1.1,1.2,2.4,1.2,3.9c0,3.9-3.1,7-7,7c-1.4,0-2.8-0.4-3.9-1.2c0,0.4-0.1,0.8-0.1,1.2c0,3.7,1.8,7,4.7,9
		c-1.7,1.9-2.7,4.4-2.7,7.1c0,6,4.8,10.8,10.8,10.9v0h1.2v-2H117l-0.5,0c-4.9,0-8.8-4-8.8-8.9c0-4.9,4-8.9,8.9-8.9
		c0.2,0,0.3,0,0.4,0l0.1,0l1.3,0.1l0.6-1.2c2.2-4.4,6.6-7.1,11.5-7.1c6.1,0,11.4,4.3,12.6,10.2l0.3,1.5l1.5,0.1
		c3.7,0.2,6.6,3.3,6.6,7c0,3.9-3.1,7-7,7.1c0,0-0.1,0-0.1,0l-2,0h-0.8v2h2.8v0c0,0,0.1,0,0.1,0c5,0,9.1-4.1,9.1-9.1
		C153.7-169.7,150-173.6,145.2-173.9z M117.3-177.5c-0.2,0-0.5,0-0.7,0c-2.5,0-4.9,0.9-6.7,2.3c-2-1.3-3.5-3.4-4-5.8
		c0.6,0.1,1.2,0.2,1.8,0.2c5,0,9-4,9-9c0-0.6-0.1-1.2-0.2-1.8c3.7,0.8,6.6,3.8,7.1,7.6C120.9-182.5,118.7-180.3,117.3-177.5z"/>
</g>
<g>
	<polygon points="345.8,-147.8 338.9,-157.7 337.2,-156.5 344.1,-146.7 345.2,-145.1 348.7,-140.1 350.3,-141.3 346.9,-146.3 	"/>
	<polygon points="353.8,-147.9 346.9,-157.7 345.2,-156.5 352.1,-146.7 353.1,-145.3 356.7,-140.2 358.3,-141.3 354.8,-146.4 	"/>
	<polygon points="337.8,-147.8 330.9,-157.7 329.2,-156.5 336.1,-146.7 337.3,-145 340.7,-140.1 342.3,-141.3 338.9,-146.2 	"/>
	<rect x="325.2" y="-195.4" width="2" height="8"/>
	<rect x="306.2" y="-176.5" width="8" height="2"/>
	<rect x="313.9" y="-190.7" transform="matrix(0.7071 -0.7071 0.7071 0.7071 224.2813 167.9604)" width="2" height="8"/>
	<rect x="333.4" y="-187.7" transform="matrix(0.7071 -0.7071 0.7071 0.7071 230.8748 183.8868)" width="8" height="2"/>
	<path d="M355.7-169.6c-1.4-6.7-7.4-11.8-14.6-11.8c-2.2,0-4.3,0.5-6.1,1.3c-1.7-3.2-5-5.4-8.9-5.4c-5.5,0-10,4.5-10,10
		c0,2.5,0.9,4.7,2.4,6.4c-1.4,1.8-2.3,4.1-2.3,6.7c0,6,4.8,10.8,10.8,10.9v0h1.2v-2h-0.7l-0.5,0c-4.9,0-8.8-4-8.8-8.9
		c0-4.9,4-8.9,8.9-8.9c0.1,0,0.3,0,0.4,0l0.1,0l1.3,0.1l0.6-1.2c2.2-4.4,6.6-7.1,11.5-7.1c6.1,0,11.4,4.3,12.6,10.2l0.3,1.5l1.5,0.1
		c3.7,0.2,6.6,3.3,6.6,7c0,3.9-3.1,7-7,7.1c0,0-0.1,0-0.1,0l0,0h-0.8v2h0.8v0c0,0,0.1,0,0.1,0c5,0,9.1-4.1,9.1-9.1
		C364.2-165.4,360.5-169.3,355.7-169.6z M327.8-173.2c-0.2,0-0.5,0-0.7,0c-2.8,0-5.3,1-7.2,2.7c-1.1-1.4-1.8-3.1-1.8-5
		c0-4.4,3.6-8,8-8c3.1,0,5.8,1.8,7.1,4.3C330.9-177.7,329.1-175.7,327.8-173.2z"/>
</g>
<g>
	<polygon points="-377.7,-51.4 -384.6,-61.2 -386.2,-60 -379.3,-50.2 -378.2,-48.6 -374.7,-43.7 -373.1,-44.8 -376.6,-49.8 	"/>
	<polygon points="-369.7,-51.4 -376.6,-61.2 -378.2,-60 -371.3,-50.2 -370.3,-48.8 -366.7,-43.7 -365.1,-44.8 -368.7,-49.9 	"/>
	<polygon points="-385.7,-51.4 -392.6,-61.2 -394.2,-60 -387.3,-50.2 -386.1,-48.5 -382.7,-43.7 -381.1,-44.8 -384.5,-49.7 	"/>
	<path d="M-367.7-73.1c-1.4-6.7-7.4-11.8-14.6-11.8c-1.8,0-3.5,0.3-5.1,0.9c-0.9-5.1-5.4-9-10.8-9c-0.4,0-0.8,0-1.2,0.1
		c0.7,1.1,1.2,2.4,1.2,3.9c0,3.9-3.1,7-7,7c-1.4,0-2.8-0.4-3.9-1.2c0,0.4-0.1,0.8-0.1,1.2c0,3.7,1.8,7,4.7,9
		c-1.7,1.9-2.7,4.4-2.7,7.1c0,6,4.8,10.8,10.8,10.9v0h1.2v-2h-0.7l-0.5,0c-4.9,0-8.8-4-8.8-8.9c0-4.9,4-8.9,8.9-8.9
		c0.1,0,0.3,0,0.4,0l0.1,0l1.3,0.1l0.6-1.2c2.2-4.4,6.6-7.1,11.5-7.1c6.1,0,11.4,4.3,12.6,10.2l0.3,1.5l1.5,0.1
		c3.7,0.2,6.6,3.3,6.6,7c0,3.9-3.1,7-7,7.1c0,0-0.1,0-0.1,0l0,0h-0.8v2h0.8v0c0,0,0.1,0,0.1,0c5,0,9.1-4.1,9.1-9.1
		C-359.2-68.9-363-72.8-367.7-73.1z M-395.6-76.7c-0.2,0-0.5,0-0.7,0c-2.5,0-4.9,0.9-6.7,2.3c-2-1.3-3.5-3.4-4-5.8
		c0.6,0.1,1.2,0.2,1.8,0.2c5,0,9-4,9-9c0-0.6-0.1-1.2-0.2-1.8c3.7,0.8,6.6,3.8,7.1,7.6C-392-81.7-394.2-79.5-395.6-76.7z"/>
</g>
<g>
	<rect x="-385.2" y="-155.2" width="2" height="4"/>
	<rect x="-377.2" y="-159.2" width="2" height="4"/>
	<rect x="-393.2" y="-159.2" width="2" height="4"/>
	<path d="M-366.6-175.2c-1.6-7.4-8.2-13-16.1-13c-6.4,0-12,3.7-14.7,9c-0.3,0-0.5,0-0.8,0c-6.6,0-12,5.4-12,12c0,6.6,5.3,12,11.9,12
		v0h2.1v-2h-1.6l-0.4,0c-5.5,0-9.9-4.5-9.9-10c0-5.5,4.5-10,10-10c0.2,0,0.3,0,0.5,0l0.1,0l1.3,0.1l0.6-1.2
		c2.5-4.9,7.4-7.9,12.9-7.9c6.8,0,12.8,4.8,14.2,11.4l0.3,1.5l1.5,0.1c4.2,0.3,7.5,3.8,7.5,8c0,4.4-3.6,8-8,8c0,0-0.1,0-0.1,0l-2,0
		h-2.9v2h4.9v0c0,0,0.1,0,0.1,0c5.5,0,10-4.5,10-10C-357.2-170.5-361.3-174.9-366.6-175.2z"/>
	<circle cx="-376.2" cy="-150.2" r="1.5"/>
	<circle cx="-384.2" cy="-146.2" r="1.5"/>
	<circle cx="-392.2" cy="-150.2" r="1.5"/>
</g>
<g>
	<rect x="-292.3" y="-194.7" width="2" height="8"/>
	<rect x="-311.3" y="-175.8" width="8" height="2"/>
	<rect x="-303.6" y="-190" transform="matrix(0.7071 -0.7071 0.7071 0.7071 42.8959 -268.4656)" width="2" height="8"/>
	<rect x="-284.1" y="-187" transform="matrix(0.7071 -0.7071 0.7071 0.7071 49.4897 -252.5398)" width="8" height="2"/>
	<path d="M-261.8-168.9c-1.4-6.7-7.4-11.8-14.6-11.8c-2.2,0-4.3,0.5-6.1,1.3c-1.7-3.2-5-5.4-8.9-5.4c-5.5,0-10,4.5-10,10
		c0,2.5,0.9,4.7,2.4,6.4c-1.4,1.8-2.3,4.1-2.3,6.7c0,6,4.8,10.8,10.8,10.9v0h1.2v-2h-0.7l-0.5,0c-4.9,0-8.8-4-8.8-8.9
		c0-4.9,4-8.9,8.9-8.9c0.1,0,0.3,0,0.4,0l0.1,0l1.3,0.1l0.6-1.2c2.2-4.4,6.6-7.1,11.5-7.1c6.1,0,11.4,4.3,12.6,10.2l0.3,1.5l1.5,0.1
		c3.7,0.2,6.6,3.3,6.6,7c0,3.9-3.1,7-7,7.1c0,0-0.1,0-0.1,0l-2,0h-0.8v2h2.8v0c0,0,0.1,0,0.1,0c5,0,9.1-4.1,9.1-9.1
		C-253.3-164.7-257-168.6-261.8-168.9z M-289.7-172.5c-0.2,0-0.5,0-0.7,0c-2.8,0-5.3,1-7.2,2.7c-1.1-1.4-1.8-3.1-1.8-5
		c0-4.4,3.6-8,8-8c3.1,0,5.8,1.8,7.1,4.3C-286.6-177-288.5-174.9-289.7-172.5z"/>
	<rect x="-278.3" y="-150.8" width="2" height="4"/>
	<rect x="-270.3" y="-154.8" width="2" height="4"/>
	<rect x="-286.3" y="-154.8" width="2" height="4"/>
	<circle cx="-269.3" cy="-145.8" r="1.5"/>
	<circle cx="-277.3" cy="-141.8" r="1.5"/>
	<circle cx="-285.3" cy="-145.8" r="1.5"/>
</g>
<g>
	<path d="M-160.8-169.8c-1.4-6.7-7.4-11.8-14.6-11.8c-1.8,0-3.5,0.3-5.1,0.9c-0.9-5.1-5.4-9-10.8-9c-0.4,0-0.8,0-1.2,0.1
		c0.7,1.1,1.2,2.4,1.2,3.9c0,3.9-3.1,7-7,7c-1.4,0-2.8-0.4-3.9-1.2c0,0.4-0.1,0.8-0.1,1.2c0,3.7,1.8,7,4.7,9
		c-1.7,1.9-2.7,4.4-2.7,7.1c0,6,4.8,10.8,10.8,10.9v0h1.2v-2h-0.7l-0.5,0c-4.9,0-8.8-4-8.8-8.9c0-4.9,4-8.9,8.9-8.9
		c0.1,0,0.3,0,0.4,0l0.1,0l1.3,0.1l0.6-1.2c2.2-4.4,6.6-7.1,11.5-7.1c6.1,0,11.4,4.3,12.6,10.2l0.3,1.5l1.5,0.1
		c3.7,0.2,6.6,3.3,6.6,7c0,3.9-3.1,7-7,7.1c0,0-0.1,0-0.1,0l-2,0h-0.8v2h2.8v0c0,0,0.1,0,0.1,0c5,0,9.1-4.1,9.1-9.1
		C-152.4-165.6-156.1-169.5-160.8-169.8z M-188.8-173.4c-0.2,0-0.5,0-0.7,0c-2.5,0-4.9,0.9-6.7,2.3c-2-1.3-3.5-3.4-4-5.8
		c0.6,0.1,1.2,0.2,1.8,0.2c5,0,9-4,9-9c0-0.6-0.1-1.2-0.2-1.8c3.7,0.8,6.6,3.8,7.1,7.6C-185.2-178.4-187.4-176.2-188.8-173.4z"/>
	<rect x="-177.4" y="-151.7" width="2" height="4"/>
	<rect x="-169.4" y="-155.8" width="2" height="4"/>
	<rect x="-185.4" y="-155.8" width="2" height="4"/>
	<circle cx="-168.4" cy="-146.7" r="1.5"/>
	<circle cx="-176.4" cy="-142.7" r="1.5"/>
	<circle cx="-184.4" cy="-146.8" r="1.5"/>
</g>
<g>
	<path d="M-264.2-76.8c-1.6-7.4-8.2-13-16.1-13c-6.4,0-12,3.7-14.7,9c-0.3,0-0.5,0-0.8,0c-6.6,0-12,5.4-12,12c0,6.6,5.3,12,11.9,12
		v0h6.1v-2h-5.6l-0.4,0c-5.5,0-9.9-4.5-9.9-10c0-5.5,4.5-10,10-10c0.2,0,0.3,0,0.5,0l0.1,0l1.3,0.1l0.6-1.2
		c2.5-4.9,7.4-7.9,12.9-7.9c6.8,0,12.8,4.8,14.2,11.4l0.3,1.5l1.5,0.1c4.2,0.3,7.5,3.8,7.5,8c0,4.4-3.6,8-8,8c0,0-0.1,0-0.1,0l-5,0
		h0.1v2h4.9v0c0,0,0.1,0,0.1,0c5.5,0,10-4.5,10-10C-254.8-72.1-258.9-76.5-264.2-76.8z"/>
	<polygon points="-279.9,-56.8 -278.2,-56.8 -277.7,-56.8 -275.7,-56.8 -282.1,-66 -283.8,-64.8 -279.6,-58.8 -281.3,-58.8 
		-283.8,-58.8 -282.5,-57 -281.4,-55.4 -275.4,-46.8 -273.8,-48 -279.8,-56.6 	"/>
</g>
<g>
	<rect x="-188.4" y="-95.9" width="2" height="8"/>
	<rect x="-207.4" y="-77" width="8" height="2"/>
	<rect x="-199.7" y="-91.3" transform="matrix(0.7071 -0.7071 0.7071 0.7071 3.5212 -166.0608)" width="2" height="8"/>
	<rect x="-180.2" y="-88.3" transform="matrix(0.7071 -0.7071 0.7071 0.7071 10.115 -150.135)" width="8" height="2"/>
	<path d="M-157.8-70.1c-1.4-6.7-7.4-11.8-14.6-11.8c-2.2,0-4.3,0.5-6.1,1.3c-1.7-3.2-5-5.4-8.9-5.4c-5.5,0-10,4.5-10,10
		c0,2.5,0.9,4.7,2.4,6.4c-1.4,1.8-2.3,4.1-2.3,6.7c0,6,4.8,10.8,10.8,10.9v0h4.2v-2h-3.7l-0.5,0c-4.9,0-8.8-4-8.8-8.9
		c0-4.9,4-8.9,8.9-8.9c0.1,0,0.3,0,0.4,0l0.1,0l1.3,0.1l0.6-1.2c2.2-4.4,6.6-7.1,11.5-7.1c6.1,0,11.4,4.3,12.6,10.2l0.3,1.5l1.5,0.1
		c3.7,0.2,6.6,3.3,6.6,7c0,3.9-3.1,7-7,7.1c0,0-0.1,0-0.1,0l-2,0h-3.8v2h5.8v0c0,0,0.1,0,0.1,0c5,0,9.1-4.1,9.1-9.1
		C-149.4-65.9-153.1-69.8-157.8-70.1z M-185.8-73.8c-0.2,0-0.5,0-0.7,0c-2.8,0-5.3,1-7.2,2.7c-1.1-1.4-1.8-3.1-1.8-5
		c0-4.4,3.6-8,8-8c3.1,0,5.8,1.8,7.1,4.3C-182.6-78.2-184.5-76.2-185.8-73.8z"/>
	<polygon points="-173.5,-52.1 -171.7,-52.1 -171.3,-52.1 -169.3,-52.1 -175.7,-61.2 -177.4,-60.1 -173.1,-54.1 -174.9,-54.1 
		-177.4,-54.1 -176.1,-52.2 -175,-50.6 -169,-42.1 -167.4,-43.2 -173.3,-51.8 	"/>
</g>
<g>
	<path d="M-58.3-72.4c-1.4-6.7-7.4-11.8-14.6-11.8c-1.8,0-3.5,0.3-5.1,0.9c-0.9-5.1-5.4-9-10.8-9c-0.4,0-0.8,0-1.2,0.1
		c0.7,1.1,1.2,2.4,1.2,3.9c0,3.9-3.1,7-7,7c-1.4,0-2.8-0.4-3.9-1.2c0,0.4-0.1,0.8-0.1,1.2c0,3.7,1.8,7,4.7,9
		c-1.7,1.9-2.7,4.4-2.7,7.1c0,6,4.8,10.8,10.8,10.9v0h4.2v-2h-3.7l-0.5,0c-4.9,0-8.8-4-8.8-8.9c0-4.9,4-8.9,8.9-8.9
		c0.2,0,0.3,0,0.4,0l0.1,0L-85-74l0.6-1.2c2.2-4.4,6.6-7.1,11.5-7.1c6.1,0,11.4,4.3,12.6,10.2l0.3,1.5l1.5,0.1
		c3.7,0.2,6.6,3.3,6.6,7c0,3.9-3.1,7-7,7.1c0,0-0.1,0-0.1,0l-2,0h-3.8v2h5.8v0c0,0,0.1,0,0.1,0c5,0,9.1-4.1,9.1-9.1
		C-49.8-68.2-53.5-72.1-58.3-72.4z M-86.2-76.1c-0.2,0-0.5,0-0.7,0c-2.5,0-4.9,0.9-6.7,2.3c-2-1.3-3.5-3.4-4-5.8
		c0.6,0.1,1.2,0.2,1.8,0.2c5,0,9-4,9-9c0-0.6-0.1-1.2-0.2-1.8c3.7,0.8,6.6,3.8,7.1,7.6C-82.6-81.1-84.8-78.8-86.2-76.1z"/>
	<polygon points="-73.9,-54.3 -72.2,-54.3 -71.7,-54.3 -69.7,-54.3 -76.1,-63.5 -77.8,-62.4 -73.6,-56.3 -75.3,-56.3 -77.8,-56.3 
		-76.5,-54.5 -75.4,-52.9 -69.4,-44.3 -67.8,-45.5 -73.7,-54.1 	"/>
</g>
<g>
	<path d="M42.6-76.3c-1.6-7.4-8.2-13-16.1-13c-6.4,0-12,3.7-14.7,9c-0.3,0-0.5,0-0.8,0c-6.6,0-12,5.4-12,12c0,6.6,5.3,12,11.9,12v0
		H12v-2h-0.6l-0.4,0c-5.5,0-9.9-4.5-9.9-10c0-5.5,4.5-10,10-10c0.2,0,0.3,0,0.5,0l0.1,0l1.3,0.1l0.6-1.2c2.5-4.9,7.4-7.9,12.9-7.9
		c6.8,0,12.8,4.8,14.2,11.4l0.3,1.5l1.5,0.1c4.2,0.3,7.5,3.8,7.5,8c0,4.4-3.6,8-8,8c0,0-0.1,0-0.1,0l-0.9,0v2h0.9v0c0,0,0.1,0,0.1,0
		c5.5,0,10-4.5,10-10C52-71.6,47.9-76,42.6-76.3z"/>
	<rect x="16" y="-62.9" transform="matrix(0.8191 -0.5736 0.5736 0.8191 35.9699 -0.604)" width="2" height="11.2"/>
	<rect x="34" y="-62.9" transform="matrix(0.8191 -0.5736 0.5736 0.8191 39.2213 9.7068)" width="2" height="11.2"/>
	<polygon points="27.8,-53.3 29.6,-53.3 30,-53.3 32.1,-53.3 25.6,-62.5 24,-61.3 28.2,-55.3 26.4,-55.3 24,-55.3 25.3,-53.5 
		26.4,-51.9 31,-45.3 32.6,-46.5 28,-53.1 	"/>
</g>
<g>
	<rect x="117.5" y="-95.8" width="2" height="8"/>
	<rect x="98.5" y="-76.9" width="8" height="2"/>
	<rect x="106.1" y="-91.1" transform="matrix(0.7071 -0.7071 0.7071 0.7071 92.9821 50.2387)" width="2" height="8"/>
	<rect x="125.7" y="-88.1" transform="matrix(0.7071 -0.7071 0.7071 0.7071 99.5759 66.1644)" width="8" height="2"/>
	<path d="M148-70c-1.4-6.7-7.4-11.8-14.6-11.8c-2.2,0-4.3,0.5-6.1,1.3c-1.7-3.2-5-5.4-8.9-5.4c-5.5,0-10,4.5-10,10
		c0,2.5,0.9,4.7,2.4,6.4c-1.4,1.8-2.3,4.1-2.3,6.7c0,6,4.8,10.8,10.8,10.9v0h0.2v-2l-0.2,0c-4.9,0-8.8-4-8.8-8.9
		c0-4.9,4-8.9,8.9-8.9c0.2,0,0.3,0,0.4,0l0.1,0l1.3,0.1l0.6-1.2c2.2-4.4,6.6-7.1,11.5-7.1c6.1,0,11.4,4.3,12.6,10.2l0.3,1.5l1.5,0.1
		c3.7,0.2,6.6,3.3,6.6,7c0,3.9-3.1,7-7,7.1c0,0-0.1,0-0.1,0l-0.9,0v2h0.8v0c0,0,0.1,0,0.1,0c5,0,9.1-4.1,9.1-9.1
		C156.5-65.8,152.7-69.7,148-70z M120.1-73.6c-0.2,0-0.5,0-0.7,0c-2.8,0-5.3,1-7.2,2.7c-1.1-1.4-1.8-3.1-1.8-5c0-4.4,3.6-8,8-8
		c3.1,0,5.8,1.8,7.1,4.3C123.2-78.1,121.3-76,120.1-73.6z"/>
	<rect x="122.5" y="-58.5" transform="matrix(0.8191 -0.5736 0.5736 0.8191 52.6809 61.2703)" width="2" height="11.2"/>
	<rect x="140.5" y="-58.5" transform="matrix(0.8191 -0.5736 0.5736 0.8191 55.9322 71.5811)" width="2" height="11.2"/>
	<polygon points="134.3,-48.9 136.1,-48.9 136.5,-48.9 138.5,-48.9 132.1,-58.1 130.5,-56.9 134.7,-50.9 132.9,-50.9 130.5,-50.9 
		131.7,-49.1 132.8,-47.5 137.5,-40.9 139.1,-42 134.5,-48.6 	"/>
</g>
<g>
	<path d="M249.8-72.9c-1.4-6.7-7.4-11.8-14.6-11.8c-1.8,0-3.5,0.3-5.1,0.9c-0.9-5.1-5.4-9-10.8-9c-0.4,0-0.8,0-1.2,0.1
		c0.7,1.1,1.2,2.4,1.2,3.9c0,3.9-3.1,7-7,7c-1.4,0-2.8-0.4-3.9-1.2c0,0.4-0.1,0.8-0.1,1.2c0,3.7,1.8,7,4.7,9
		c-1.7,1.9-2.7,4.4-2.7,7.1c0,6,4.8,10.8,10.8,10.9v0h0.2v-2l-0.2,0c-4.9,0-8.8-4-8.8-8.9c0-4.9,4-8.9,8.9-8.9c0.1,0,0.3,0,0.4,0
		l0.1,0l1.3,0.1l0.6-1.2c2.2-4.4,6.6-7.1,11.5-7.1c6.1,0,11.4,4.3,12.6,10.2l0.3,1.5l1.5,0.1c3.7,0.2,6.6,3.3,6.6,7
		c0,3.9-3.1,7-7,7.1c0,0-0.1,0-0.1,0l-0.9,0v2h0.8v0c0,0,0.1,0,0.1,0c5,0,9.1-4.1,9.1-9.1C258.3-68.7,254.6-72.6,249.8-72.9z
		 M221.9-76.6c-0.2,0-0.5,0-0.7,0c-2.5,0-4.9,0.9-6.7,2.3c-2-1.3-3.5-3.4-4-5.8c0.6,0.1,1.2,0.2,1.8,0.2c5,0,9-4,9-9
		c0-0.6-0.1-1.2-0.2-1.8c3.7,0.8,6.6,3.8,7.1,7.6C225.5-81.6,223.3-79.3,221.9-76.6z"/>
	<rect x="224.3" y="-61.4" transform="matrix(0.8191 -0.5736 0.5736 0.8191 72.7978 119.153)" width="2" height="11.2"/>
	<rect x="242.3" y="-61.4" transform="matrix(0.8191 -0.5736 0.5736 0.8191 76.0492 129.4638)" width="2" height="11.2"/>
	<polygon points="236.1,-51.8 237.9,-51.8 238.3,-51.8 240.4,-51.8 233.9,-61 232.3,-59.9 236.5,-53.8 234.7,-53.8 232.3,-53.8 
		233.6,-52 234.7,-50.4 239.3,-43.8 240.9,-45 236.3,-51.6 	"/>
</g>
<g>
	<g>
		<path d="M-160.7,13.5c-1.6-7.4-8.2-13-16.1-13c-6.4,0-12,3.7-14.7,9c-0.3,0-0.5,0-0.8,0c-6.6,0-12,5.4-12,12c0,6.6,5.3,12,11.9,12
			v0h2.1v-2h-1.6l-0.4,0c-5.5,0-9.9-4.5-9.9-10c0-5.5,4.5-10,10-10c0.2,0,0.3,0,0.5,0l0.1,0l1.3,0.1l0.6-1.2
			c2.5-4.9,7.4-7.9,12.9-7.9c6.8,0,12.8,4.8,14.2,11.4l0.3,1.5l1.5,0.1c4.2,0.3,7.5,3.8,7.5,8c0,4.4-3.6,8-8,8c-0.1,0-0.1,0-0.1,0
			l-2,0h-2.9v2h4.9v0c0,0,0.1,0,0.1,0c5.5,0,10-4.5,10-10C-151.4,18.2-155.5,13.8-160.7,13.5z"/>
	</g>
	<g>
		<circle cx="-185.9" cy="27.1" r="1.5"/>
	</g>
	<g>
		<circle cx="-181.9" cy="33" r="1.5"/>
	</g>
	<g>
		<circle cx="-173.9" cy="33" r="1.5"/>
	</g>
	<g>
		<circle cx="-177.9" cy="27.1" r="1.5"/>
	</g>
	<g>
		<circle cx="-169.9" cy="27.1" r="1.5"/>
	</g>
	<g>
		<circle cx="-185.9" cy="39" r="1.5"/>
	</g>
	<g>
		<circle cx="-177.9" cy="39" r="1.5"/>
	</g>
	<g>
		<circle cx="-169.9" cy="39" r="1.5"/>
	</g>
</g>
<g>
	<g>
		<rect x="-85" y="-2" width="2" height="8"/>
	</g>
	<g>
		<rect x="-104" y="17" width="8" height="2"/>
	</g>
	<g>
		<rect x="-96.3" y="2.7" transform="matrix(0.7071 -0.7071 0.7071 0.7071 -32.6408 -65.4211)" width="2" height="8"/>
	</g>
	<g>
		<rect x="-76.8" y="5.7" transform="matrix(0.7071 -0.7071 0.7071 0.7071 -26.0474 -49.4947)" width="8" height="2"/>
	</g>
	<g>
		<path d="M-54.4,23.8C-55.9,17.1-61.9,12-69,12c-2.2,0-4.3,0.5-6.1,1.3c-1.7-3.2-5-5.4-8.9-5.4c-5.5,0-10,4.5-10,10
			c0,2.5,0.9,4.7,2.4,6.4c-1.4,1.8-2.3,4.1-2.3,6.7c0,6,4.8,10.8,10.8,10.9v0h1.2v-2h-0.7l-0.5,0c-4.9,0-8.8-4-8.8-8.9
			c0-4.9,4-8.9,8.9-8.9c0.2,0,0.3,0,0.4,0l0.1,0l1.3,0.1l0.6-1.2c2.2-4.4,6.6-7.1,11.5-7.1c6.1,0,11.4,4.3,12.6,10.2l0.3,1.5
			l1.5,0.1c3.7,0.2,6.6,3.3,6.6,7c0,3.9-3.1,7-7,7.1c0,0-0.1,0-0.1,0l-2,0H-59v2h3.8v0c0,0,0.1,0,0.1,0c5,0,9.1-4.1,9.1-9.1
			C-46,28-49.7,24.1-54.4,23.8z M-82.4,20.2c-0.2,0-0.5,0-0.7,0c-2.8,0-5.3,1-7.2,2.7c-1.1-1.4-1.8-3.1-1.8-5c0-4.4,3.6-8,8-8
			c3.1,0,5.8,1.8,7.1,4.3C-79.2,15.7-81.1,17.8-82.4,20.2z"/>
	</g>
	<g>
		<circle cx="-78.5" cy="35.4" r="1.5"/>
	</g>
	<g>
		<circle cx="-74.5" cy="41.4" r="1.5"/>
	</g>
	<g>
		<circle cx="-66.5" cy="41.4" r="1.5"/>
	</g>
	<g>
		<circle cx="-70.5" cy="35.4" r="1.5"/>
	</g>
	<g>
		<circle cx="-62.5" cy="35.4" r="1.5"/>
	</g>
	<g>
		<circle cx="-78.5" cy="47.4" r="1.5"/>
	</g>
	<g>
		<circle cx="-70.5" cy="47.4" r="1.5"/>
	</g>
	<g>
		<circle cx="-62.5" cy="47.4" r="1.5"/>
	</g>
</g>
<g>
	<g>
		<path class="st0" d="M41.5,19.9c-1.4-6.7-7.4-11.8-14.6-11.8c-1.8,0-3.5,0.3-5.1,0.9c-1-5.1-5.4-9-10.8-9c-0.4,0-0.8,0-1.2,0.1
			C10.5,1.2,11,2.5,11,4c0,3.9-3.1,7-7,7c-1.4,0-2.8-0.4-3.9-1.2C0,10.2,0,10.6,0,11c0,3.7,1.8,7,4.7,9C3,21.9,2,24.4,2,27.1
			c0,6,4.8,10.8,10.8,10.9v0H14v-2h-0.7l-0.5,0C8,35.9,4,32,4,27.1c0-4.9,4-8.9,8.9-8.9c0.1,0,0.3,0,0.4,0l0.1,0l1.3,0.1l0.6-1.2
			c2.2-4.4,6.6-7.1,11.5-7.1c6.1,0,11.4,4.3,12.6,10.2l0.3,1.5l1.5,0.1c3.7,0.2,6.6,3.3,6.6,7c0,3.9-3.1,7-7,7.1c0,0-0.1,0-0.1,0
			l-2,0H37v2h3.8v0c0,0,0.1,0,0.1,0c5,0,9.1-4.1,9.1-9.1C50,24.1,46.2,20.2,41.5,19.9z M13.6,16.3c-0.2,0-0.5,0-0.7,0
			c-2.5,0-4.9,0.9-6.7,2.3c-2-1.3-3.5-3.4-4-5.8C2.8,12.9,3.4,13,4,13c5,0,9-4,9-9c0-0.6-0.1-1.2-0.2-1.8c3.7,0.8,6.6,3.8,7.1,7.6
			C17.2,11.3,15,13.5,13.6,16.3z"/>
	</g>
	<g>
		<circle class="st0" cx="17.5" cy="31.5" r="1.5"/>
	</g>
	<g>
		<circle class="st0" cx="21.5" cy="37.5" r="1.5"/>
	</g>
	<g>
		<circle class="st0" cx="29.5" cy="37.5" r="1.5"/>
	</g>
	<g>
		<circle class="st0" cx="25.5" cy="31.5" r="1.5"/>
	</g>
	<g>
		<circle class="st0" cx="33.5" cy="31.5" r="1.5"/>
	</g>
	<g>
		<circle class="st0" cx="17.5" cy="43.5" r="1.5"/>
	</g>
	<g>
		<circle class="st0" cx="25.5" cy="43.5" r="1.5"/>
	</g>
	<g>
		<circle class="st0" cx="33.5" cy="43.5" r="1.5"/>
	</g>
</g>
<g>
	<path d="M352.7-79c-1.6-7.4-8.2-13-16.1-13c-6.4,0-12,3.7-14.7,9c-0.3,0-0.5,0-0.8,0c-6.6,0-12,5.4-12,12c0,6.6,5.3,12,11.9,12v0
		h2.1v-2h-1.6l-0.4,0c-5.5,0-9.9-4.5-9.9-10c0-5.5,4.5-10,10-10c0.2,0,0.3,0,0.5,0l0.1,0l1.3,0.1l0.6-1.2c2.5-4.9,7.4-7.9,12.9-7.9
		c6.8,0,12.8,4.8,14.2,11.4l0.3,1.5l1.5,0.1c4.2,0.3,7.5,3.8,7.5,8c0,4.4-3.6,8-8,8c0,0-0.1,0-0.1,0l-2,0h-2.9v2h4.9v0
		c0,0,0.1,0,0.1,0c5.5,0,10-4.5,10-10C362-74.4,357.9-78.7,352.7-79z"/>
	<circle cx="327" cy="-51.5" r="1.5"/>
	<circle cx="335" cy="-45.5" r="1.5"/>
	<circle cx="343" cy="-49.5" r="1.5"/>
	<rect x="326" y="-68" width="2" height="12"/>
	<polygon points="336,-50.1 336,-52 336,-64 334,-64 334,-52 334,-50.1 334,-50 336,-50 	"/>
	<polygon points="344,-54.3 344,-56 344,-68 342,-68 342,-56 342,-54.3 342,-54 344,-54 	"/>
</g>
<g>
	<rect x="-395.7" y="-7.4" width="2" height="8"/>
	<rect x="-414.7" y="11.5" width="8" height="2"/>
	<rect x="-407" y="-2.7" transform="matrix(0.7071 -0.7071 0.7071 0.7071 -119.8121 -286.7445)" width="2" height="8"/>
	<rect x="-387.5" y="0.3" transform="matrix(0.7071 -0.7071 0.7071 0.7071 -113.2186 -270.8181)" width="8" height="2"/>
	<path d="M-365.2,18.4c-1.4-6.7-7.4-11.8-14.6-11.8c-2.2,0-4.3,0.5-6.1,1.3c-1.7-3.2-5-5.4-8.9-5.4c-5.5,0-10,4.5-10,10
		c0,2.5,0.9,4.7,2.4,6.4c-1.4,1.8-2.3,4.1-2.3,6.7c0,6,4.8,10.8,10.8,10.9v0h1.2v-2h-0.7l-0.5,0c-4.9,0-8.8-4-8.8-8.9
		c0-4.9,4-8.9,8.9-8.9c0.1,0,0.3,0,0.4,0l0.1,0l1.3,0.1l0.6-1.2c2.2-4.4,6.6-7.1,11.5-7.1c6.1,0,11.4,4.3,12.6,10.2l0.3,1.5l1.5,0.1
		c3.7,0.2,6.6,3.3,6.6,7c0,3.9-3.1,7-7,7.1c0,0-0.1,0-0.1,0l-2,0h-0.8v2h2.8v0c0,0,0.1,0,0.1,0c5,0,9.1-4.1,9.1-9.1
		C-356.7,22.6-360.5,18.7-365.2,18.4z M-393.1,14.8c-0.2,0-0.5,0-0.7,0c-2.8,0-5.3,1-7.2,2.7c-1.1-1.4-1.8-3.1-1.8-5
		c0-4.4,3.6-8,8-8c3.1,0,5.8,1.8,7.1,4.3C-390,10.3-391.9,12.3-393.1,14.8z"/>
	<circle cx="-388.7" cy="45" r="1.5"/>
	<circle cx="-380.7" cy="51" r="1.5"/>
	<circle cx="-372.7" cy="47" r="1.5"/>
	<rect x="-389.7" y="28.5" width="2" height="12"/>
	<polygon points="-379.7,46.4 -379.7,44.5 -379.7,32.5 -381.7,32.5 -381.7,44.5 -381.7,46.4 -381.7,46.5 -379.7,46.5 	"/>
	<polygon points="-371.7,42.2 -371.7,40.5 -371.7,28.5 -373.7,28.5 -373.7,40.5 -373.7,42.2 -373.7,42.5 -371.7,42.5 	"/>
</g>
<g>
	<path d="M-264.6,15.4C-266,8.7-272,3.6-279.2,3.6c-1.8,0-3.5,0.3-5.1,0.9c-0.9-5.1-5.4-9-10.8-9c-0.4,0-0.8,0-1.2,0.1
		c0.7,1.1,1.2,2.4,1.2,3.9c0,3.9-3.1,7-7,7c-1.4,0-2.8-0.4-3.9-1.2c0,0.4-0.1,0.8-0.1,1.2c0,3.7,1.8,7,4.7,9
		c-1.7,1.9-2.7,4.4-2.7,7.1c0,6,4.8,10.8,10.8,10.9v0h1.2v-2h-0.7l-0.5,0c-4.9,0-8.8-4-8.8-8.9c0-4.9,4-8.9,8.9-8.9
		c0.1,0,0.3,0,0.4,0l0.1,0l1.3,0.1l0.6-1.2c2.2-4.4,6.6-7.1,11.5-7.1c6.1,0,11.4,4.3,12.6,10.2l0.3,1.5l1.5,0.1
		c3.7,0.2,6.6,3.3,6.6,7c0,3.9-3.1,7-7,7.1c0,0-0.1,0-0.1,0l-2,0h-0.8v2h2.8v0c0,0,0.1,0,0.1,0c5,0,9.1-4.1,9.1-9.1
		C-256.1,19.6-259.9,15.7-264.6,15.4z M-292.5,11.8c-0.2,0-0.5,0-0.7,0c-2.5,0-4.9,0.9-6.7,2.3c-2-1.3-3.5-3.4-4-5.8
		c0.6,0.1,1.2,0.2,1.8,0.2c5,0,9-4,9-9c0-0.6-0.1-1.2-0.2-1.8c3.7,0.8,6.6,3.8,7.1,7.6C-288.9,6.8-291.1,9-292.5,11.8z"/>
	<circle cx="-288.1" cy="42" r="1.5"/>
	<circle cx="-280.1" cy="48" r="1.5"/>
	<circle cx="-272.1" cy="44" r="1.5"/>
	<rect x="-289.1" y="25.5" width="2" height="12"/>
	<polygon points="-279.1,43.4 -279.1,41.5 -279.1,29.5 -281.1,29.5 -281.1,41.5 -281.1,43.4 -281.1,43.5 -279.1,43.5 	"/>
	<polygon points="-271.1,39.2 -271.1,37.5 -271.1,25.5 -273.1,25.5 -273.1,37.5 -273.1,39.2 -273.1,39.5 -271.1,39.5 	"/>
</g>
<g>
	<rect x="-412.7" y="119.8" width="56" height="2"/>
	<rect x="-408.7" y="125.8" width="50" height="2"/>
	<rect x="-402.7" y="131.8" width="36" height="2"/>
	<rect x="-410.7" y="113.8" width="52" height="2"/>
	<path d="M-398.8,105.8c0.2,0,0.3,0,0.5,0l0.1,0l1.3,0.1l0.6-1.2c2.5-4.9,7.4-7.9,12.9-7.9c6.8,0,12.8,4.8,14.2,11.4l0.3,1.5
		l1.5,0.1c1.2,0.1,2.3,0.4,3.3,1h3.3c-1.7-1.7-4-2.8-6.5-3c-1.6-7.4-8.2-13-16.1-13c-6.4,0-12,3.7-14.7,9c-0.3,0-0.5,0-0.8,0
		c-4.8,0-9,2.9-10.9,7h2.3C-405.7,107.8-402.5,105.8-398.8,105.8z"/>
</g>
<g>
	<rect x="-291.6" y="92.3" width="2" height="8"/>
	<rect x="-310.6" y="111.2" width="8" height="2"/>
	<rect x="-302.9" y="97" transform="matrix(0.7071 -0.7071 0.7071 0.7071 -159.8313 -183.9271)" width="2" height="8"/>
	<rect x="-283.4" y="100" transform="matrix(0.7071 -0.7071 0.7071 0.7071 -153.2379 -168.0006)" width="8" height="2"/>
	<rect x="-301.6" y="126.2" width="50" height="2"/>
	<rect x="-297.6" y="132.2" width="44" height="2"/>
	<rect x="-291.6" y="137.2" width="30" height="2"/>
	<rect x="-299.6" y="120.2" width="46" height="2"/>
	<path d="M-298.7,118.2h0.8h1.9h1c1.5-1.1,3.3-1.7,5.2-1.7c0.1,0,0.3,0,0.4,0l0.1,0l1.3,0.1l0.6-1.2c2.2-4.4,6.6-7.1,11.5-7.1
		c5.9,0,11.2,4.1,12.6,9.9h2v-0.1c-1.4-6.7-7.4-11.8-14.6-11.8c-2.2,0-4.3,0.5-6.1,1.3c-1.7-3.2-5-5.4-8.9-5.4c-5.5,0-10,4.5-10,10
		C-300.7,114.5-299.9,116.5-298.7,118.2z M-290.7,104.2c3.1,0,5.8,1.8,7.1,4.3c-2.3,1.4-4.2,3.5-5.4,5.9c-0.2,0-0.5,0-0.7,0
		c-2.8,0-5.3,1-7.2,2.7c-1.1-1.4-1.8-3.1-1.8-5C-298.7,107.8-295.1,104.2-290.7,104.2z"/>
</g>
<g>
	<rect x="-202.9" y="122.8" width="50" height="2"/>
	<rect x="-198.9" y="128.8" width="44" height="2"/>
	<rect x="-192.9" y="133.8" width="30" height="2"/>
	<rect x="-200.9" y="116.8" width="46" height="2"/>
	<path d="M-199.2,114.8L-199.2,114.8h1.9h1.1c1.5-1.1,3.3-1.7,5.2-1.7c0.1,0,0.3,0,0.4,0l0.1,0l1.3,0.1l0.6-1.2
		c2.2-4.4,6.6-7.1,11.5-7.1c5.9,0,11.2,4.1,12.6,9.9h2v-0.1c-1.4-6.7-7.4-11.8-14.6-11.8c-1.8,0-3.5,0.3-5.1,0.9
		c-0.9-5.1-5.4-9-10.8-9c-0.4,0-0.8,0-1.2,0.1c0.7,1.1,1.2,2.4,1.2,3.9c0,3.9-3.1,7-7,7c-1.4,0-2.8-0.4-3.9-1.2
		c0,0.4-0.1,0.8-0.1,1.2C-203.9,109.5-202,112.8-199.2,114.8z M-199.9,107.7c5,0,9-4,9-9c0-0.6-0.1-1.2-0.2-1.8
		c3.7,0.8,6.6,3.8,7.1,7.6c-2.7,1.4-4.9,3.7-6.3,6.4c-0.2,0-0.5,0-0.7,0c-2.5,0-4.9,0.9-6.7,2.3c-2-1.3-3.5-3.4-4-5.8
		C-201.1,107.7-200.5,107.7-199.9,107.7z"/>
</g>
<g>
	<path d="M-71,125.8h-19.5l-0.6,0c-5.5,0-9.9-4.5-9.9-10c0-5.5,4.5-10,10-10c0.2,0,0.3,0,0.5,0l0.1,0l1.3,0.1l0.6-1.2
		c2.5-4.9,7.4-7.9,12.9-7.9c6.8,0,12.8,4.8,14.2,11.4l0.3,1.5l1.5,0.1c1.8,0.1,3.5,0.8,4.7,2h2.7c-1.7-2.3-4.3-3.8-7.4-4
		c-1.6-7.4-8.2-13-16.1-13c-6.4,0-12,3.7-14.7,9c-0.3,0-0.5,0-0.8,0c-6.6,0-12,5.4-12,12c0,6.6,5.3,12,11.9,12v0H-71
		c2.2,0,4,1.8,4,4s-1.8,4-4,4v2c3.3,0,6-2.7,6-6C-65,128.5-67.6,125.8-71,125.8z"/>
	<path d="M-67,121.8h-16v2h16c3.3,0,6-2.7,6-6c0-3.3-2.7-6-6-6v2c2.2,0,4,1.8,4,4S-64.8,121.8-67,121.8z"/>
	<path d="M-54,115.8c1.7,0,3,1.3,3,3s-1.3,3-3,3c0,0-0.1,0-0.1,0H-59c0,0,0,0,0,0h0v2h5.5v-0.1c2.5-0.3,4.5-2.4,4.5-4.9
		c0-2.8-2.2-5-5-5L-54,115.8L-54,115.8z"/>
	<path d="M-50,125.8h-13v2h9c0,0,0,0,0,0h3.9c0,0,0.1,0,0.1,0c1.7,0,3,1.3,3,3s-1.3,3-3,3v2c2.8,0,5-2.2,5-5S-47.2,125.8-50,125.8z"
		/>
	<rect x="-89" y="121.8" width="4" height="2"/>
</g>
<path d="M-278.5-273.3c7,1.3,12.2,7.4,12.2,14.7c0,8.3-6.7,15-15,15c-6.8,0-12.5-4.5-14.4-10.7c1.4,0.5,2.9,0.7,4.4,0.7
	c7.7,0,14-6.3,14-14C-277.3-269.6-277.7-271.5-278.5-273.3 M-281.3-275.6c-0.3,0-0.7,0-1,0.1c1.9,2.1,3,4.9,3,7.9
	c0,6.6-5.4,12-12,12c-2.6,0-5-0.8-7-2.2c0.4,9,7.8,16.3,17,16.3c9.4,0,17-7.6,17-17C-264.3-268-271.9-275.6-281.3-275.6
	L-281.3-275.6z"/>
<g>
	<path d="M-384.7-270.6c-7.2,0-13,5.8-13,13c0,7.2,5.8,13,13,13s13-5.8,13-13C-371.7-264.8-377.5-270.6-384.7-270.6z M-384.7-246.6
		c-6.1,0-11-4.9-11-11c0-6.1,4.9-11,11-11s11,4.9,11,11C-373.7-251.5-378.6-246.6-384.7-246.6z"/>
	<rect x="-385.7" y="-283.6" width="2" height="10"/>
	<rect x="-385.7" y="-241.6" width="2" height="10"/>
	<rect x="-410.7" y="-258.6" width="10" height="2"/>
	<rect x="-368.7" y="-258.6" width="10" height="2"/>
	<rect x="-375.2" y="-273.3" transform="matrix(0.7071 -0.7071 0.7071 0.7071 84.1698 -341.3817)" width="10.4" height="2"/>
	<rect x="-404.6" y="-243.9" transform="matrix(0.7071 -0.7071 0.7071 0.7071 54.7666 -353.5673)" width="10.4" height="2"/>
	<rect x="-400.4" y="-277.5" transform="matrix(0.7071 -0.7071 0.7071 0.7071 75.5535 -362.1725)" width="2" height="10.4"/>
	<rect x="-371" y="-248.1" transform="matrix(0.7071 -0.7072 0.7072 0.7071 63.3527 -332.7834)" width="2" height="10.4"/>
</g>
<g>
	<rect x="13.5" y="87.3" width="2" height="8"/>
	<rect x="-5.5" y="106.3" width="8" height="2"/>
	<rect x="2.2" y="92.1" transform="matrix(0.7071 -0.7071 0.7071 0.7071 -66.9696 30.402)" width="2" height="8"/>
	<rect x="21.7" y="95" transform="matrix(0.7071 -0.7071 0.7071 0.7071 -60.3759 46.3277)" width="8" height="2"/>
	<path d="M28.5,129.3L28.5,129.3l-12.5,0l-0.6,0c-4.9,0-8.8-4-8.8-8.9c0-4.9,4-8.9,8.9-8.9c0.1,0,0.3,0,0.4,0l0.1,0l1.3,0.1l0.6-1.2
		c2.2-4.4,6.6-7.1,11.5-7.1c5.9,0,11.1,4.1,12.5,9.8h2.1c-1.4-6.7-7.4-11.8-14.6-11.8c-2.2,0-4.3,0.5-6.1,1.3
		c-1.7-3.2-5-5.4-8.9-5.4c-5.5,0-10,4.5-10,10c0,2.5,0.9,4.7,2.4,6.4c-1.4,1.8-2.3,4.1-2.3,6.7c0,6,4.8,10.8,10.8,10.9v0h13.1v0
		c2.2,0,4,1.8,4,4s-1.8,4-4,4v2c3.3,0,6-2.7,6-6C34.5,132,31.8,129.3,28.5,129.3z M14.5,99.3c3.1,0,5.8,1.8,7.1,4.3
		c-2.3,1.4-4.2,3.5-5.4,5.9c-0.2,0-0.5,0-0.7,0c-2.8,0-5.3,1-7.2,2.7c-1.1-1.4-1.8-3.1-1.8-5C6.5,102.9,10.1,99.3,14.5,99.3z"/>
	<path d="M32.5,125.3h-10v2h10c3.3,0,6-2.7,6-6c0-3.3-2.7-6-6-6v2c2.2,0,4,1.8,4,4S34.7,125.3,32.5,125.3z"/>
	<path d="M40.5,125.3L40.5,125.3l0,2H46v-0.1c2.5-0.3,4.5-2.4,4.5-4.9c0-2.8-2.2-5-5-5v2c1.7,0,3,1.3,3,3s-1.3,3-3,3
		c0,0-0.1,0-0.1,0L40.5,125.3C40.5,125.3,40.5,125.3,40.5,125.3z"/>
	<path d="M49.5,129.3h-13v2h9c0,0,0,0,0,0h3.9c0,0,0.1,0,0.1,0c1.7,0,3,1.3,3,3s-1.3,3-3,3v2c2.8,0,5-2.2,5-5S52.3,129.3,49.5,129.3
		z"/>
	<rect x="16.5" y="125.3" width="4" height="2"/>
</g>
<g>
	<path d="M128.5,127.3L128.5,127.3l-12.5,0l-0.6,0c-4.9,0-8.8-4-8.8-8.9c0-4.9,4-8.9,8.9-8.9c0.2,0,0.3,0,0.4,0l0.1,0l1.3,0.1
		l0.6-1.2c2.2-4.4,6.6-7.1,11.5-7.1c5.9,0,11.1,4.1,12.5,9.8h2.1c-1.4-6.7-7.4-11.8-14.6-11.8c-1.8,0-3.5,0.3-5.1,0.9
		c-0.9-5.1-5.4-9-10.8-9c-0.4,0-0.8,0-1.2,0.1c0.7,1.1,1.2,2.4,1.2,3.9c0,3.9-3.1,7-7,7c-1.4,0-2.8-0.4-3.9-1.2
		c0,0.4-0.1,0.8-0.1,1.2c0,3.7,1.9,7,4.7,9c-1.7,1.9-2.7,4.4-2.7,7.1c0,6,4.8,10.8,10.8,10.9v0h13.1v0c2.2,0,4,1.8,4,4s-1.8,4-4,4v2
		c3.3,0,6-2.7,6-6C134.5,130,131.8,127.3,128.5,127.3z M104.7,104.1c0.6,0.1,1.2,0.2,1.8,0.2c5,0,9-4,9-9c0-0.6-0.1-1.2-0.2-1.8
		c3.7,0.8,6.6,3.8,7.1,7.7c-2.7,1.4-4.9,3.7-6.3,6.4c-0.2,0-0.5,0-0.7,0c-2.5,0-4.9,0.9-6.7,2.3
		C106.6,108.6,105.2,106.5,104.7,104.1z"/>
	<path d="M132.5,123.3h-10v2h10c3.3,0,6-2.7,6-6c0-3.3-2.7-6-6-6v2c2.2,0,4,1.8,4,4S134.7,123.3,132.5,123.3z"/>
	<path d="M140.5,123.3L140.5,123.3l0,2h5.5v-0.1c2.5-0.3,4.5-2.4,4.5-4.9c0-2.8-2.2-5-5-5v2c1.7,0,3,1.3,3,3s-1.3,3-3,3
		c0,0-0.1,0-0.1,0L140.5,123.3C140.5,123.3,140.5,123.3,140.5,123.3z"/>
	<path d="M149.5,127.3h-13v2h9c0,0,0,0,0,0h3.9c0,0,0.1,0,0.1,0c1.7,0,3,1.3,3,3s-1.3,3-3,3v2c2.8,0,5-2.2,5-5
		S152.2,127.3,149.5,127.3z"/>
	<rect x="116.5" y="123.3" width="4" height="2"/>
</g>
<g>
	<rect x="229.4" y="89.8" width="2" height="10"/>
	<rect x="204.4" y="114.8" width="10" height="2"/>
	<rect x="239.8" y="100.1" transform="matrix(0.7071 -0.7071 0.7071 0.7071 0.2689 202.8972)" width="10.4" height="2"/>
	<rect x="214.6" y="95.9" transform="matrix(0.7071 -0.7071 0.7071 0.7071 -8.3466 182.1069)" width="2" height="10.4"/>
	<path d="M234.4,129.8h-24v2h24c2.2,0,4,1.8,4,4s-1.8,4-4,4v2c3.3,0,6-2.7,6-6S237.7,129.8,234.4,129.8z"/>
	<path d="M246.4,125.8L246.4,125.8l0,2h5.5v-0.1c2.5-0.3,4.5-2.4,4.5-4.9c0-2.8-2.2-5-5-5v2c1.7,0,3,1.3,3,3s-1.3,3-3,3
		c0,0-0.1,0-0.1,0L246.4,125.8C246.4,125.8,246.4,125.8,246.4,125.8z"/>
	<path d="M255.4,129.8h-13v2h9c0,0,0,0,0,0h3.9c0,0,0.1,0,0.1,0c1.7,0,3,1.3,3,3s-1.3,3-3,3v2c2.8,0,5-2.2,5-5
		S258.1,129.8,255.4,129.8z"/>
	<path d="M222.1,125.8h-11.7v2h12h0.8h15.2c3.3,0,6-2.7,6-6c0-3.3-2.7-6-6-6v2c2.2,0,4,1.8,4,4s-1.8,4-4,4h-12.5
		c-3.8-1.7-6.5-5.6-6.5-10c0-6.1,4.9-11,11-11c5.4,0,9.9,3.9,10.8,9h2c-1-6.2-6.3-11-12.8-11c-7.2,0-13,5.8-13,13
		C217.4,119.9,219.2,123.5,222.1,125.8z"/>
</g>
<g>
	<path d="M334.6,123.3h-24v2h24c2.2,0,4,1.8,4,4s-1.8,4-4,4v2c3.3,0,6-2.7,6-6C340.6,126,337.9,123.3,334.6,123.3z"/>
	<path d="M352.1,121.3L352.1,121.3c2.5-0.3,4.5-2.4,4.5-5c0-2.8-2.2-5-5-5v2c1.7,0,3,1.3,3,3s-1.3,3-3,3c0,0-0.1,0-0.1,0h-4.9
		c0,0,0,0,0,0h0v2H352.1z"/>
	<path d="M355.6,123.3h-13v2h9c0,0,0,0,0,0h3.9c0,0,0.1,0,0.1,0c1.7,0,3,1.3,3,3s-1.3,3-3,3v2c2.8,0,5-2.2,5-5
		S358.3,123.3,355.6,123.3z"/>
	<path d="M323.4,121.3h15.2c3.3,0,6-2.7,6-6c0-3.3-2.7-6-6-6v2c2.2,0,4,1.8,4,4s-1.8,4-4,4H326c-2.6-1.2-4.7-3.3-5.7-6
		c0.8,0.2,1.7,0.3,2.6,0.3c6.2,0,11.2-5,11.2-11.2c0-1.3-0.2-2.5-0.6-3.7c4,1.1,7.2,4.5,7.9,8.6h2c-1-6.2-6.3-11-12.8-11
		c-0.3,0-0.5,0-0.8,0c1.4,1.6,2.3,3.7,2.3,6.1c0,5.1-4.1,9.2-9.2,9.2c-2,0-3.8-0.6-5.3-1.7c0.2,3.8,2,7.2,4.7,9.4h-11.7v2h12
		L323.4,121.3L323.4,121.3z"/>
</g>
<g>
	<path d="M-385.2,208.5h-20c-1.1,0-2-0.9-2-2s0.9-2,2-2h3.4h0.6v-2h-4c-2.2,0-4,1.8-4,4s1.8,4,4,4h20c2.2,0,4,1.8,4,4s-1.8,4-4,4v2
		c3.3,0,6-2.7,6-6C-379.2,211.2-381.9,208.5-385.2,208.5z"/>
	<path d="M-383.2,192.5v2c2.2,0,4,1.8,4,4s-1.8,4-4,4h-16v2h16c3.3,0,6-2.7,6-6C-377.2,195.2-379.9,192.5-383.2,192.5z"/>
	<path d="M-377.2,204.5v2h5.5v-0.1c2.5-0.3,4.5-2.4,4.5-4.9c0-2.8-2.2-5-5-5v2c1.7,0,3,1.3,3,3s-1.3,3-3,3c0,0-0.1,0-0.1,0
		L-377.2,204.5C-377.2,204.5-377.2,204.5-377.2,204.5L-377.2,204.5z"/>
	<path d="M-366.2,208.5h-11v2h7c0,0,0,0,0,0h3.9c0,0,0.1,0,0.1,0c1.7,0,3,1.3,3,3s-1.3,3-3,3v2c2.8,0,5-2.2,5-5
		S-363.4,208.5-366.2,208.5z"/>
</g>
<path d="M151.1,194.8L151.1,194.8l-38.4,0c-1.1,0-2-0.9-2-2s0.9-2,2-2h33c2.8,0,5-2.2,5-5s-2.2-5-5-5h-37.9v0c0,0-0.1,0-0.1,0
	c-2.8,0-5,2.2-5,5s2.2,5,5,5v-2c-1.7,0-3-1.3-3-3s1.3-3,3-3h0.1h3.9h34c1.7,0,3,1.3,3,3s-1.3,3-3,3h-33c-2.2,0-4,1.8-4,4s1.8,4,4,4
	h38c1.1,0,2,0.9,2,2s-0.9,2-2,2h-32c-2.2,0-4,1.8-4,4s1.8,4,4,4h22c1.1,0,2,0.9,2,2s-0.9,2-2,2h-24v0c-2.2,0-4,1.8-4,4s1.8,4,4,4v0
	h12c1.1,0,2,0.9,2,2s-0.9,2-2,2h-2c-2.2,0-4,1.8-4,4s1.8,4,4,4v-2c-1.1,0-2-0.9-2-2s0.9-2,2-2h2c2.2,0,4-1.8,4-4s-1.8-4-4-4h-12
	c-1.1,0-2-0.9-2-2s0.9-2,2-2h24c2.2,0,4-1.8,4-4c0-2.2-1.7-3.9-3.8-4v0h-22.2c-1.1,0-2-0.9-2-2s0.9-2,2-2h32c2.2,0,4-1.8,4-4
	C154.7,196.7,153.1,195,151.1,194.8z"/>
<path d="M336.5,185.5v-2h-2v2c-13,0.5-23.5,11-24,24h1.7c1.1-1.2,2.7-2,4.6-2c2.3,0,4.2,1.2,5.3,3h1.8c1.1-1.8,3.1-3,5.3-3
	c2.2,0,4.1,1.1,5.2,2.9v15.1c0,2.2,1.8,4,4,4s4-1.8,4-4h-2c0,1.1-0.9,2-2,2s-2-0.9-2-2v-15.1c1.1-1.7,3-2.9,5.2-2.9
	c2.3,0,4.2,1.2,5.3,3h1.8c1.1-1.8,3.1-3,5.3-3c1.8,0,3.4,0.8,4.6,2h1.7C360,196.5,349.5,186,336.5,185.5z M354.3,205.5
	c-2.5,0-4.7,1.1-6.2,2.9c-1.5-1.8-3.8-2.9-6.2-2.9s-4.7,1.1-6.2,2.9c-1.5-1.8-3.8-2.9-6.2-2.9s-4.7,1.1-6.2,2.9
	c-1.5-1.8-3.8-2.9-6.2-2.9c-1.4,0-2.7,0.4-3.9,1c1.9-10.8,11.3-19,22.6-19s20.7,8.2,22.6,19C357,205.8,355.7,205.5,354.3,205.5z"/>
<g>
	<path d="M-68.8,309.8v-17.1c0-2.8-2.2-5-5-5s-5,2.2-5,5v17.1c-1.2,1.3-2,3-2,4.9c0,3.9,3.1,7,7,7s7-3.1,7-7
		C-66.8,312.8-67.6,311-68.8,309.8z M-73.8,319.7c-2.8,0-5-2.2-5-5c0-1.3,0.5-2.6,1.4-3.5l0.6-0.6v-0.8v-17.1c0-1.7,1.3-3,3-3
		s3,1.3,3,3v17.1v0.8l0.6,0.6c0.9,0.9,1.4,2.2,1.4,3.5C-68.8,317.4-71,319.7-73.8,319.7z"/>
	<path d="M-72.8,311.9v-15.2h-2v15.2c-1.2,0.4-2,1.5-2,2.8c0,1.7,1.3,3,3,3c1.7,0,3-1.3,3-3C-70.8,313.4-71.6,312.3-72.8,311.9z
		 M-73.8,315.7c-0.6,0-1-0.5-1-1s0.5-1,1-1s1,0.5,1,1S-73.2,315.7-73.8,315.7z"/>
</g>
<g>
	<path d="M31,309.8v-17.1c0-2.8-2.2-5-5-5s-5,2.2-5,5v17.1c-1.2,1.3-2,3-2,4.9c0,3.9,3.1,7,7,7s7-3.1,7-7
		C33,312.8,32.2,311,31,309.8z M26,319.7c-2.8,0-5-2.2-5-5c0-1.3,0.5-2.6,1.4-3.5l0.6-0.6v-0.8v-17.1c0-1.7,1.3-3,3-3s3,1.3,3,3
		v17.1v0.8l0.6,0.6c0.9,0.9,1.4,2.2,1.4,3.5C31,317.4,28.8,319.7,26,319.7z"/>
	<path d="M27,311.9v-20.2h-2v20.2c-1.2,0.4-2,1.5-2,2.8c0,1.7,1.3,3,3,3c1.7,0,3-1.3,3-3C29,313.4,28.2,312.3,27,311.9z M26,315.7
		c-0.6,0-1-0.5-1-1s0.5-1,1-1s1,0.5,1,1S26.6,315.7,26,315.7z"/>
</g>
<g>
	<path d="M-171.9,309.8v-17.1c0-2.8-2.2-5-5-5s-5,2.2-5,5v17.1c-1.2,1.3-2,3-2,4.9c0,3.9,3.1,7,7,7s7-3.1,7-7
		C-169.9,312.8-170.7,311-171.9,309.8z M-176.9,319.7c-2.8,0-5-2.2-5-5c0-1.3,0.5-2.6,1.4-3.5l0.6-0.6v-0.8v-17.1c0-1.7,1.3-3,3-3
		s3,1.3,3,3v17.1v0.8l0.6,0.6c0.9,0.9,1.4,2.2,1.4,3.5C-171.9,317.4-174.1,319.7-176.9,319.7z"/>
	<path d="M-175.9,311.9v-10.2h-2v10.2c-1.2,0.4-2,1.5-2,2.8c0,1.7,1.3,3,3,3c1.7,0,3-1.3,3-3C-173.9,313.4-174.7,312.3-175.9,311.9z
		 M-176.9,315.7c-0.6,0-1-0.5-1-1s0.5-1,1-1s1,0.5,1,1S-176.3,315.7-176.9,315.7z"/>
</g>
<g>
	<path d="M-275.5,309.8v-17.1c0-2.8-2.2-5-5-5s-5,2.2-5,5v17.1c-1.2,1.3-2,3-2,4.9c0,3.9,3.1,7,7,7s7-3.1,7-7
		C-273.5,312.8-274.3,311-275.5,309.8z M-280.5,319.7c-2.8,0-5-2.2-5-5c0-1.3,0.5-2.6,1.4-3.5l0.6-0.6v-0.8v-17.1c0-1.7,1.3-3,3-3
		s3,1.3,3,3v17.1v0.8l0.6,0.6c0.9,0.9,1.4,2.2,1.4,3.5C-275.5,317.4-277.8,319.7-280.5,319.7z"/>
	<path d="M-279.5,311.9v-5.2h-2v5.2c-1.2,0.4-2,1.5-2,2.8c0,1.7,1.3,3,3,3c1.7,0,3-1.3,3-3C-277.5,313.4-278.4,312.3-279.5,311.9z
		 M-280.5,315.7c-0.6,0-1-0.5-1-1s0.5-1,1-1s1,0.5,1,1S-280,315.7-280.5,315.7z"/>
</g>
<g>
	<path d="M-380.2,309.8v-17.1c0-2.8-2.2-5-5-5s-5,2.2-5,5v17.1c-1.2,1.3-2,3-2,4.9c0,3.9,3.1,7,7,7s7-3.1,7-7
		C-378.2,312.8-379,311-380.2,309.8z M-385.2,319.7c-2.8,0-5-2.2-5-5c0-1.3,0.5-2.6,1.4-3.5l0.6-0.6v-0.8v-17.1c0-1.7,1.3-3,3-3
		s3,1.3,3,3v17.1v0.8l0.6,0.6c0.9,0.9,1.4,2.2,1.4,3.5C-380.2,317.4-382.4,319.7-385.2,319.7z"/>
	<path d="M-385.2,311.7c-1.7,0-3,1.3-3,3c0,1.7,1.3,3,3,3c1.7,0,3-1.3,3-3C-382.2,313-383.5,311.7-385.2,311.7z M-385.2,315.7
		c-0.6,0-1-0.5-1-1s0.5-1,1-1s1,0.5,1,1S-384.6,315.7-385.2,315.7z"/>
</g>
<g>
	<path d="M119.7,290c-2.2,0-4,1.8-4,4c0,2.2,1.8,4,4,4c2.2,0,4-1.8,4-4C123.7,291.8,121.9,290,119.7,290z M119.7,296
		c-1.1,0-2-0.9-2-2s0.9-2,2-2s2,0.9,2,2S120.8,296,119.7,296z"/>
	<path d="M133.7,318c-4.4,0-8-3.6-8-8v-4c0-4.4,3.6-8,8-8c2.7,0,5.1,1.4,6.6,3.4l1.4-1.4c-1.8-2.4-4.7-4-8-4c-5.5,0-10,4.5-10,10v4
		c0,5.5,4.5,10,10,10c3.3,0,6.2-1.6,8-4l-1.4-1.4C138.8,316.6,136.4,318,133.7,318z"/>
</g>
<g>
	<path d="M224.4,289.9c-2.2,0-4,1.8-4,4c0,2.2,1.8,4,4,4c2.2,0,4-1.8,4-4C228.4,291.7,226.6,289.9,224.4,289.9z M224.4,295.9
		c-1.1,0-2-0.9-2-2s0.9-2,2-2s2,0.9,2,2S225.5,295.9,224.4,295.9z"/>
	<polygon points="244.3,298 244.3,296 232.3,296 230.3,296 230.3,320 232.3,320 232.3,308 240.3,308 240.3,306 232.3,306 232.3,298 
			"/>
</g>
<g>
	<path d="M335.5,293.7c-7.2,0-13,5.8-13,13s5.8,13,13,13s13-5.8,13-13S342.7,293.7,335.5,293.7z M335.5,317.7c-6.1,0-11-4.9-11-11
		s4.9-11,11-11s11,4.9,11,11S341.6,317.7,335.5,317.7z"/>
	<path d="M331.2,310.9l6.4-2.1l2.1-6.4l-6.4,2.1L331.2,310.9z M334.9,306.1l1.6-0.5l-0.5,1.6l-1.6,0.5L334.9,306.1z"/>
</g>
<g>
	<path d="M-385.2,384.2c-7.2,0-13,5.8-13,13s5.8,13,13,13s13-5.8,13-13S-378,384.2-385.2,384.2z M-385.2,408.2c-6.1,0-11-4.9-11-11
		c0-6.1,4.9-11,11-11s11,4.9,11,11C-374.2,403.3-379.1,408.2-385.2,408.2z"/>
	<path d="M-382.6,395.6l-2.6-4.4l-2.5,4.3h0c-0.3,0.5-0.5,1-0.5,1.6c0,1.7,1.3,3,3,3s3-1.3,3-3
		C-382.2,396.6-382.4,396.1-382.6,395.6L-382.6,395.6z M-385.2,398.1c-0.6,0-1-0.4-1-1c0-0.2,0.1-0.4,0.2-0.5l0.9-1.4l0.8,1.4
		c0.1,0.2,0.1,0.3,0.1,0.5C-384.2,397.7-384.7,398.1-385.2,398.1z"/>
</g>
<g>
	<path d="M-280.4,384.2c-7.2,0-13,5.8-13,13s5.8,13,13,13s13-5.8,13-13S-273.2,384.2-280.4,384.2z M-280.4,408.2
		c-6.1,0-11-4.9-11-11c0-6.1,4.9-11,11-11s11,4.9,11,11C-269.4,403.3-274.4,408.2-280.4,408.2z"/>
	<path d="M-278.8,394.6c-0.5-0.3-1-0.5-1.6-0.5c-1.7,0-3,1.3-3,3c0,1.7,1.3,3,3,3c0.6,0,1.1-0.2,1.5-0.4v0l4.4-2.6L-278.8,394.6
		L-278.8,394.6L-278.8,394.6z M-279.9,398c-0.2,0.1-0.3,0.1-0.5,0.1c-0.6,0-1-0.4-1-1c0-0.6,0.4-1,1-1c0.2,0,0.4,0.1,0.5,0.2
		l1.4,0.9L-279.9,398z"/>
</g>
<g>
	<path d="M-177.4,384.2c-7.2,0-13,5.8-13,13s5.8,13,13,13s13-5.8,13-13S-170.2,384.2-177.4,384.2z M-177.4,408.2
		c-6.1,0-11-4.9-11-11c0-6.1,4.9-11,11-11s11,4.9,11,11C-166.4,403.3-171.3,408.2-177.4,408.2z"/>
	<path d="M-177.4,394.1c-1.7,0-3,1.3-3,3c0,0.6,0.2,1.1,0.4,1.5h0l2.6,4.4l2.5-4.3h0c0.3-0.5,0.5-1,0.5-1.6
		C-174.4,395.5-175.7,394.1-177.4,394.1z M-176.5,397.7l-0.9,1.4l-0.8-1.4c-0.1-0.2-0.1-0.3-0.1-0.5c0-0.6,0.4-1,1-1s1,0.4,1,1
		C-176.4,397.3-176.4,397.5-176.5,397.7z"/>
</g>
<g>
	<path d="M-74,384.2c-7.2,0-13,5.8-13,13s5.8,13,13,13s13-5.8,13-13S-66.8,384.2-74,384.2z M-74,408.2c-6.1,0-11-4.9-11-11
		c0-6.1,4.9-11,11-11s11,4.9,11,11C-63,403.3-67.9,408.2-74,408.2z"/>
	<path d="M-74,394.1c-0.6,0-1.1,0.2-1.5,0.4v0l-4.4,2.6l4.3,2.5v0c0.5,0.3,1,0.5,1.6,0.5c1.7,0,3-1.3,3-3
		C-71,395.5-72.3,394.1-74,394.1z M-74,398.1c-0.2,0-0.4-0.1-0.5-0.2l-1.4-0.9l1.4-0.8c0.2-0.1,0.3-0.1,0.5-0.1c0.6,0,1,0.4,1,1
		C-73,397.7-73.4,398.1-74,398.1z"/>
</g>
<g>
	<rect x="-282.1" y="187.5" width="2" height="10"/>
	<rect x="-271.6" y="197.8" transform="matrix(0.7071 -0.7071 0.7071 0.7071 -218.5739 -130.1567)" width="10.4" height="2"/>
	<rect x="-296.8" y="193.6" transform="matrix(0.7071 -0.7071 0.7071 0.7071 -227.1895 -150.9471)" width="2" height="10.4"/>
	<polygon points="-287.8,216.7 -286.4,218.1 -282.1,213.9 -282.1,223.5 -280.1,223.5 -280.1,213.9 -275.9,218.1 -274.4,216.7 
		-281.1,210.1 	"/>
	<path d="M-268.1,213.5C-268.1,213.5-268.1,213.5-268.1,213.5c0-7.2-5.8-13-13-13s-13,5.8-13,13c0,0,0,0,0,0h-13v2h18v-2h-3
		c0,0,0,0,0,0c0-6.1,4.9-11,11-11s11,4.9,11,11c0,0,0,0,0,0h-3v2h18v-2H-268.1z"/>
</g>
<g>
	<rect x="-178.4" y="186.3" width="2" height="10"/>
	<rect x="-167.9" y="196.6" transform="matrix(0.7071 -0.7071 0.7071 0.7071 -187.3473 -57.1463)" width="10.4" height="2"/>
	<rect x="-193.1" y="192.4" transform="matrix(0.7071 -0.7071 0.7071 0.7071 -195.9636 -77.9369)" width="2" height="10.4"/>
	<polygon points="-176.4,220.8 -176.4,210.3 -178.4,210.3 -178.4,220.8 -182.6,216.6 -184,218 -177.4,224.7 -170.7,218 
		-172.1,216.6 	"/>
	<path d="M-164.4,212.3C-164.4,212.3-164.4,212.3-164.4,212.3c0-7.2-5.8-13-13-13s-13,5.8-13,13c0,0,0,0,0,0h-13v2h22v-2h-7
		c0,0,0,0,0,0c0-6.1,4.9-11,11-11s11,4.9,11,11c0,0,0,0,0,0h-7v2h22v-2H-164.4z"/>
</g>
<g>
	<polygon points="26,220.3 26,205.9 24,205.9 24,220.3 19.7,216 18.3,217.5 25,224.1 31.7,217.5 30.3,216 	"/>
	<path d="M41.6,200.9c-1.6-7.4-8.2-13-16.1-13c-6.4,0-12,3.7-14.7,9c-0.3,0-0.5,0-0.8,0c-6.6,0-12,5.4-12,12c0,6.6,5.3,12,11.9,12v0
		H16v-2h-5.6l-0.4,0c-5.5,0-9.9-4.5-9.9-10c0-5.5,4.5-10,10-10c0.2,0,0.3,0,0.5,0l0.1,0L12,199l0.6-1.2c2.5-4.9,7.4-7.9,12.9-7.9
		c6.8,0,12.8,4.8,14.2,11.4l0.3,1.5l1.5,0.1c4.2,0.3,7.5,3.8,7.5,8c0,4.4-3.6,8-8,8c0,0-0.1,0-0.1,0l-2,0H34v2h6.9v0
		c0,0,0.1,0,0.1,0c5.5,0,10-4.5,10-10C51,205.6,46.9,201.3,41.6,200.9z"/>
</g>
<g>
	<polygon points="-68,217.1 -66.6,215.7 -73.3,209 -79.9,215.7 -78.5,217.1 -74.3,212.8 -74.3,225.4 -72.3,225.4 -72.3,212.8 	"/>
	<path d="M-56.6,202.5c-1.6-7.4-8.2-13-16.1-13c-6.4,0-12,3.7-14.7,9c-0.3,0-0.5,0-0.8,0c-6.6,0-12,5.4-12,12c0,6.6,5.3,12,11.9,12
		v0h10.1v-2h-9.6l-0.4,0c-5.5,0-9.9-4.5-9.9-10c0-5.5,4.5-10,10-10c0.2,0,0.3,0,0.5,0l0.1,0l1.3,0.1l0.6-1.2
		c2.5-4.9,7.4-7.9,12.9-7.9c6.8,0,12.8,4.8,14.2,11.4l0.3,1.5l1.5,0.1c4.2,0.3,7.5,3.8,7.5,8c0,4.4-3.6,8-8,8c0,0-0.1,0-0.1,0l-2,0
		h-8.9v2h10.9v0c0,0,0.1,0,0.1,0c5.5,0,10-4.5,10-10C-47.3,207.2-51.4,202.9-56.6,202.5z"/>
</g>
<g>
	<path d="M145.8,13c-1.6-7.4-8.2-13-16.1-13c-6.4,0-12,3.7-14.7,9c-0.3,0-0.5,0-0.8,0c-6.6,0-12,5.4-12,12c0,6.6,5.3,12,11.9,12v0
		h2.1v-2h-1.6l-0.4,0c-5.5,0-9.9-4.5-9.9-10c0-5.5,4.5-10,10-10c0.2,0,0.3,0,0.5,0l0.1,0l1.3,0.1l0.6-1.2C119.3,5,124.2,2,129.7,2
		c6.8,0,12.8,4.8,14.2,11.4l0.3,1.5l1.5,0.1c4.2,0.3,7.5,3.8,7.5,8c0,4.4-3.6,8-8,8c-0.1,0-0.1,0-0.1,0l-2,0h-0.9v2h2.9v0
		c0,0,0.1,0,0.1,0c5.5,0,10-4.5,10-10C155.2,17.7,151.1,13.4,145.8,13z"/>
	<polygon points="124.2,32 124.2,29.4 126.4,30.6 127.1,29.4 124.6,28 127.1,26.6 126.4,25.4 124.2,26.6 124.2,24 122.2,24 
		122.2,26.7 120,25.4 119.3,26.6 121.8,28 119.3,29.4 120,30.6 122.2,29.3 122.2,32 	"/>
	<polygon points="129.4,36.4 127.2,37.6 127.2,35 125.2,35 125.2,37.6 123,36.4 122.3,37.6 124.7,39 122.3,40.4 123,41.6 
		125.2,40.3 125.2,43 127.2,43 127.2,40.4 129.4,41.6 130.1,40.4 127.6,39 130.1,37.6 	"/>
	<polygon points="138.4,29.4 136.2,30.6 136.2,28 134.2,28 134.2,30.7 132,29.4 131.3,30.6 133.8,32 131.3,33.4 132,34.6 
		134.2,33.3 134.2,36 136.2,36 136.2,33.4 138.4,34.6 139.1,33.4 136.6,32 139.1,30.6 	"/>
</g>
<g>
	<rect x="221.4" y="-5" width="2" height="8"/>
	<rect x="202.4" y="13.9" width="8" height="2"/>
	<rect x="210" y="-0.4" transform="matrix(0.7071 -0.7071 0.7071 0.7071 59.2475 150.2726)" width="2" height="8"/>
	<rect x="229.6" y="2.6" transform="matrix(0.7071 -0.7071 0.7071 0.7071 65.841 166.199)" width="8" height="2"/>
	<path d="M251.9,20.8C250.4,14,244.4,9,237.3,9c-2.2,0-4.3,0.5-6.1,1.3c-1.7-3.2-5-5.4-8.9-5.4c-5.5,0-10,4.5-10,10
		c0,2.5,0.9,4.7,2.4,6.4c-1.4,1.8-2.3,4.1-2.3,6.7c0,6,4.8,10.8,10.8,10.9v0h1.2v-2h-0.7l-0.5,0c-4.9,0-8.8-4-8.8-8.9
		c0-4.9,4-8.9,8.9-8.9c0.1,0,0.3,0,0.4,0l0.1,0l1.3,0.1l0.6-1.2c2.2-4.4,6.6-7.1,11.5-7.1c6.1,0,11.4,4.3,12.6,10.2l0.3,1.5l1.5,0.1
		c3.7,0.2,6.6,3.3,6.6,7c0,3.9-3.1,7-7,7.1c0,0-0.1,0-0.1,0l-1.9,0v2h1.8v0c0,0,0.1,0,0.1,0c5,0,9.1-4.1,9.1-9.1
		C260.4,25,256.6,21.1,251.9,20.8z M224,17.1c-0.2,0-0.5,0-0.7,0c-2.8,0-5.3,1-7.2,2.7c-1.1-1.4-1.8-3.1-1.8-5c0-4.4,3.6-8,8-8
		c3.1,0,5.8,1.8,7.1,4.3C227.1,12.7,225.2,14.7,224,17.1z"/>
	<polygon points="231.4,37.9 231.4,35.2 233.5,36.5 234.2,35.2 231.7,33.8 234.2,32.5 233.5,31.2 231.4,32.5 231.4,29.9 229.4,29.9 
		229.4,32.5 227.1,31.2 226.4,32.5 228.9,33.8 226.4,35.2 227.1,36.5 229.4,35.2 229.4,37.9 	"/>
	<polygon points="236.5,42.2 234.3,43.4 234.3,40.8 232.3,40.8 232.3,43.5 230.1,42.2 229.4,43.4 231.9,44.8 229.4,46.2 230.1,47.4 
		232.3,46.2 232.3,48.8 234.3,48.8 234.3,46.2 236.5,47.4 237.2,46.2 234.7,44.8 237.2,43.4 	"/>
	<polygon points="245.5,35.2 243.4,36.5 243.4,33.9 241.4,33.9 241.4,36.5 239.1,35.2 238.4,36.5 240.9,37.8 238.4,39.2 239.1,40.5 
		241.4,39.2 241.4,41.9 243.4,41.9 243.4,39.2 245.5,40.5 246.2,39.2 243.7,37.8 246.2,36.5 	"/>
</g>
<g>
	<path d="M352.1,17.8C350.6,11,344.6,6,337.5,6c-1.8,0-3.5,0.3-5.1,0.9c-0.9-5.1-5.4-9-10.8-9c-0.4,0-0.8,0-1.2,0.1
		c0.7,1.1,1.2,2.4,1.2,3.9c0,3.9-3.1,7-7,7c-1.4,0-2.8-0.4-3.9-1.2c0,0.4-0.1,0.8-0.1,1.2c0,3.7,1.8,7,4.7,9
		c-1.7,1.9-2.7,4.4-2.7,7.1c0,6,4.8,10.8,10.8,10.9v0h1.2v-2h-0.7l-0.5,0c-4.9,0-8.8-4-8.8-8.9c0-4.9,4-8.9,8.9-8.9
		c0.1,0,0.3,0,0.4,0l0.1,0l1.3,0.1l0.6-1.2c2.2-4.4,6.6-7.1,11.5-7.1c6.1,0,11.4,4.3,12.6,10.2l0.3,1.5l1.5,0.1
		c3.7,0.2,6.6,3.3,6.6,7c0,3.9-3.1,7-7,7.1c0,0-0.1,0-0.1,0l-1.9,0v2h1.8v0c0,0,0.1,0,0.1,0c5,0,9.1-4.1,9.1-9.1
		C360.5,22,356.8,18.1,352.1,17.8z M324.1,14.1c-0.2,0-0.5,0-0.7,0c-2.5,0-4.9,0.9-6.7,2.3c-2-1.3-3.5-3.4-4-5.8
		c0.6,0.1,1.2,0.2,1.8,0.2c5,0,9-4,9-9c0-0.6-0.1-1.2-0.2-1.8c3.7,0.8,6.6,3.8,7.1,7.6C327.8,9.1,325.5,11.4,324.1,14.1z"/>
	<polygon points="331.6,34.9 331.6,32.2 333.8,33.5 334.4,32.2 332,30.8 334.4,29.5 333.8,28.2 331.6,29.5 331.6,26.9 329.6,26.9 
		329.6,29.5 327.3,28.2 326.6,29.5 329.1,30.8 326.6,32.2 327.3,33.5 329.6,32.2 329.6,34.9 	"/>
	<polygon points="336.7,39.2 334.6,40.4 334.6,37.8 332.6,37.8 332.6,40.5 330.3,39.2 329.6,40.4 332.1,41.8 329.6,43.2 330.3,44.4 
		332.6,43.2 332.6,45.8 334.6,45.8 334.6,43.2 336.7,44.4 337.4,43.2 335,41.8 337.4,40.4 	"/>
	<polygon points="345.8,32.2 343.6,33.5 343.6,30.9 341.6,30.9 341.6,33.5 339.3,32.2 338.7,33.5 341.1,34.8 338.7,36.2 339.3,37.5 
		341.6,36.2 341.6,38.9 343.6,38.9 343.6,36.2 345.8,37.5 346.4,36.2 344,34.8 346.4,33.5 	"/>
</g>
<rect x="-264.3" y="-550" class="st1" width="473" height="180.9"/>
<text transform="matrix(1 0 0 1 -84.6606 -478.5913)" style="font-family:'Helvetica'; font-size:100px; letter-spacing:2;">60</text>
<text transform="matrix(1 0 0 1 -183.9286 -418.5913)" style="font-family:'Helvetica'; font-size:48px;">Weather Icons</text>
<text transform="matrix(1 0 0 1 -88.3866 -374.5913)" style="font-family:'Helvetica'; font-size:24px;">IOS 7 Style</text>
</svg>
