<?xml version="1.0" encoding="utf-8"?>
<!-- Generator: Adobe Illustrator 25.0.1, SVG Export Plug-In . SVG Version: 6.00 Build 0)  -->
<svg version="1.1" id="Layer_1" xmlns="http://www.w3.org/2000/svg" xmlns:xlink="http://www.w3.org/1999/xlink" x="0px" y="0px"
	 viewBox="0 0 56 52" style="enable-background:new 0 0 56 52;" xml:space="preserve">
<style type="text/css">
	.st0{fill:#FFFFFF;}
	.st1{fill:none;}
</style>
<path d="M31.8,99.3L30,114.4l-0.3,2.2H32h6.9l-14.7,18.8l1.8-14.5l0.3-2.2H24h-7L31.8,99.3 M34.7,92.3L13,120.6h11l-2.7,21.7
	L43,114.7H32L34.7,92.3L34.7,92.3z"/>
<path d="M-381.2-362.9c6.8,0,12.7,4.8,14.2,11.4l0.3,1.5l1.5,0.1c4.2,0.3,7.5,3.8,7.5,8c0,4.4-3.6,8-8,8c0,0-0.1,0-0.1,0l-2,0v0
	h-28.3l-0.6,0c-5.5,0-9.9-4.5-9.9-10c0-5.5,4.5-10,10-10c0.2,0,0.3,0,0.5,0l0.1,0l1.3,0.1l0.6-1.2
	C-391.7-359.9-386.7-362.9-381.2-362.9 M-381.2-364.9c-6.4,0-12,3.7-14.7,9c-0.3,0-0.5,0-0.8,0c-6.6,0-12,5.4-12,12
	c0,6.6,5.3,12,11.9,12v0h30.9v0c0,0,0.1,0,0.1,0c5.5,0,10-4.5,10-10c0-5.3-4.1-9.6-9.4-10C-366.7-359.3-373.3-364.9-381.2-364.9
	L-381.2-364.9z"/>
<g>
	<path d="M-258.3-344.5c-1.4-6.7-7.4-11.8-14.6-11.8c-2.2,0-4.3,0.5-6.1,1.3c-1.7-3.2-5-5.4-8.9-5.4c-5.5,0-10,4.5-10,10
		c0,2.5,0.9,4.7,2.4,6.4c-1.4,1.8-2.3,4.1-2.3,6.7c0,6,4.8,10.8,10.8,10.9v0h28v0c0,0,0.1,0,0.1,0c5,0,9.1-4.1,9.1-9.1
		C-249.8-340.3-253.5-344.2-258.3-344.5z M-287.9-358.4c3.1,0,5.8,1.8,7.1,4.3c-2.3,1.4-4.2,3.5-5.4,5.9c-0.2,0-0.5,0-0.7,0
		c-2.8,0-5.3,1-7.2,2.7c-1.1-1.4-1.8-3.1-1.8-5C-295.9-354.8-292.3-358.4-287.9-358.4z M-258.8-328.4c0,0-0.1,0-0.1,0l-2,0v0h-25.4
		l-0.6,0c-4.9,0-8.8-4-8.8-8.9c0-4.9,4-8.9,8.9-8.9c0.1,0,0.3,0,0.4,0l0.1,0l1.3,0.1l0.6-1.2c2.2-4.4,6.6-7.1,11.5-7.1
		c6.1,0,11.4,4.3,12.6,10.2l0.3,1.5l1.5,0.1c3.7,0.2,6.6,3.3,6.6,7C-251.8-331.6-254.9-328.5-258.8-328.4z"/>
	<rect x="-288.9" y="-370.4" width="2" height="8"/>
	<rect x="-307.8" y="-351.4" width="8" height="2"/>
	<rect x="-300.1" y="-365.6" transform="matrix(0.7071 -0.7071 0.7071 0.7071 168.112 -317.4389)" width="2" height="8"/>
	<rect x="-280.6" y="-362.6" transform="matrix(0.7071 -0.7071 0.7071 0.7071 174.7056 -301.5125)" width="8" height="2"/>
</g>
<path d="M-162.5-348.5c-1.4-6.7-7.4-11.8-14.6-11.8c-1.8,0-3.5,0.3-5.1,0.9c-0.9-5.1-5.4-9-10.8-9c-0.4,0-0.8,0-1.2,0.1
	c0.7,1.1,1.2,2.4,1.2,3.9c0,3.9-3.1,7-7,7c-1.4,0-2.8-0.4-3.9-1.2c0,0.4-0.1,0.8-0.1,1.2c0,3.7,1.8,7,4.7,9
	c-1.7,1.9-2.7,4.4-2.7,7.1c0,6,4.8,10.8,10.8,10.9v0h28v0c0,0,0.1,0,0.1,0c5,0,9.1-4.1,9.1-9.1C-154-344.3-157.8-348.2-162.5-348.5z
	 M-201.9-355.6c0.6,0.1,1.2,0.2,1.8,0.2c5,0,9-4,9-9c0-0.6-0.1-1.2-0.2-1.8c3.7,0.8,6.6,3.8,7.1,7.6c-2.7,1.4-4.9,3.7-6.3,6.4
	c-0.2,0-0.5,0-0.7,0c-2.5,0-4.9,0.9-6.7,2.3C-199.9-351.2-201.4-353.2-201.9-355.6z M-163.1-332.5c0,0-0.1,0-0.1,0l-2,0v0h-25.4
	l-0.6,0c-4.9,0-8.8-4-8.8-8.9c0-4.9,4-8.9,8.9-8.9c0.1,0,0.3,0,0.4,0l0.1,0l1.3,0.1l0.6-1.2c2.2-4.4,6.6-7.1,11.5-7.1
	c6.1,0,11.4,4.3,12.6,10.2l0.3,1.5l1.5,0.1c3.7,0.2,6.6,3.3,6.6,7C-156-335.6-159.2-332.5-163.1-332.5z"/>
<g>
	<rect x="-77.9" y="-339.9" width="2" height="7"/>
	<rect x="-69.9" y="-343.9" width="2" height="7"/>
	<rect x="-85.9" y="-343.9" width="2" height="7"/>
	<rect x="-77.9" y="-329.9" width="2" height="7"/>
	<rect x="-69.9" y="-333.9" width="2" height="7"/>
	<rect x="-85.9" y="-333.9" width="2" height="7"/>
	<path d="M-59.3-356.9c-1.6-7.4-8.2-13-16.1-13c-6.4,0-12,3.7-14.7,9c-0.3,0-0.5,0-0.8,0c-6.6,0-12,5.4-12,12c0,6.6,5.3,12,11.9,12
		v0h2.1v-2h-1.6l-0.4,0c-5.5,0-9.9-4.5-9.9-10c0-5.5,4.5-10,10-10c0.2,0,0.3,0,0.5,0l0.1,0l1.3,0.1l0.6-1.2
		c2.5-4.9,7.4-7.9,12.9-7.9c6.8,0,12.8,4.8,14.2,11.4l0.3,1.5l1.5,0.1c4.2,0.3,7.5,3.8,7.5,8c0,4.4-3.6,8-8,8c0,0-0.1,0-0.1,0l-2,0
		h-2.9v2h4.9v0c0,0,0.1,0,0.1,0c5.5,0,10-4.5,10-10C-49.9-352.2-54-356.6-59.3-356.9z"/>
</g>
<g>
	<path d="M-261.7-267.5c-1.6-7.4-8.2-13-16.1-13c-6.4,0-12,3.7-14.7,9c-0.3,0-0.5,0-0.8,0c-6.6,0-12,5.4-12,12c0,6.6,5.3,12,11.9,12
		v0h2.1v-2h-1.6l-0.4,0c-5.5,0-9.9-4.5-9.9-10c0-5.5,4.5-10,10-10c0.2,0,0.3,0,0.5,0l0.1,0l1.3,0.1l0.6-1.2
		c2.5-4.9,7.4-7.9,12.9-7.9c6.8,0,12.8,4.8,14.2,11.4l0.3,1.5l1.5,0.1c4.2,0.3,7.5,3.8,7.5,8c0,4.4-3.6,8-8,8c0,0-0.1,0-0.1,0l-2,0
		h-2.9v2h4.9v0c0,0,0.1,0,0.1,0c5.5,0,10-4.5,10-10C-252.3-262.9-256.5-267.2-261.7-267.5z"/>
	<polygon points="-280.3,-240.6 -280.3,-238.6 -280.3,-232.6 -278.3,-232.6 -278.3,-238.6 -278.3,-240.6 -278.3,-252.6 
		-280.3,-252.6 	"/>
	<polygon points="-272.3,-244.6 -272.3,-242.8 -272.3,-236.6 -270.3,-236.6 -270.3,-242.8 -270.3,-244.6 -270.3,-256.6 
		-272.3,-256.6 	"/>
	<polygon points="-288.3,-244.6 -288.3,-242.5 -288.3,-236.6 -286.3,-236.6 -286.3,-242.5 -286.3,-244.6 -286.3,-256.6 
		-288.3,-256.6 	"/>
</g>
<g>
	<polygon points="34,-243.6 27.1,-253.5 25.4,-252.3 32.3,-242.5 33.4,-240.9 36.9,-235.9 38.6,-237.1 35.1,-242.1 	"/>
	<polygon points="42,-243.6 35.1,-253.5 33.4,-252.3 40.3,-242.5 41.3,-241.1 44.9,-235.9 46.6,-237.1 43,-242.2 	"/>
	<polygon points="26,-243.6 19.1,-253.5 17.4,-252.3 24.3,-242.5 25.5,-240.8 28.9,-235.9 30.6,-237.1 27.1,-241.9 	"/>
	<path d="M45.1-267.3c-1.6-7.4-8.2-13-16.1-13c-6.4,0-12,3.7-14.7,9c-0.3,0-0.5,0-0.8,0c-6.6,0-12,5.4-12,12c0,6.6,5.3,12,11.9,12v0
		h2.1v-2h-1.6l-0.4,0c-5.5,0-9.9-4.5-9.9-10c0-5.5,4.5-10,10-10c0.2,0,0.3,0,0.5,0l0.1,0l1.3,0.1l0.6-1.2c2.5-4.9,7.4-7.9,12.9-7.9
		c6.8,0,12.7,4.8,14.2,11.4l0.3,1.5l1.5,0.1c4.2,0.3,7.5,3.8,7.5,8c0,4.4-3.6,8-8,8c0,0-0.1,0-0.1,0l-1,0h0.1v2h0.9v0
		c0,0,0.1,0,0.1,0c5.5,0,10-4.5,10-10C54.4-262.6,50.3-267,45.1-267.3z"/>
</g>
<g>
	<rect x="16.8" y="-376.4" width="2" height="8"/>
	<rect x="-2.2" y="-357.4" width="8" height="2"/>
	<rect x="5.4" y="-371.7" transform="matrix(0.7071 -0.7071 0.7071 0.7071 261.894 -103.1546)" width="2" height="8"/>
	<rect x="25" y="-368.7" transform="matrix(0.7071 -0.7071 0.7071 0.7071 268.4877 -87.2288)" width="8" height="2"/>
	<rect x="30.8" y="-335.5" width="2" height="7"/>
	<rect x="38.8" y="-339.5" width="2" height="7"/>
	<rect x="22.8" y="-339.5" width="2" height="7"/>
	<rect x="30.8" y="-325.5" width="2" height="7"/>
	<rect x="38.8" y="-329.5" width="2" height="7"/>
	<rect x="22.8" y="-329.5" width="2" height="7"/>
	<path d="M47.3-350.6c-1.4-6.7-7.4-11.8-14.6-11.8c-2.2,0-4.3,0.5-6.1,1.3c-1.7-3.2-5-5.4-8.9-5.4c-5.5,0-10,4.5-10,10
		c0,2.5,0.9,4.7,2.4,6.4c-1.4,1.8-2.3,4.1-2.3,6.7c0,6,4.8,10.8,10.8,10.9v0h1.2v-2H19l-0.5,0c-4.9,0-8.8-4-8.8-8.9
		c0-4.9,4-8.9,8.9-8.9c0.1,0,0.3,0,0.4,0l0.1,0l1.3,0.1l0.6-1.2c2.2-4.4,6.6-7.1,11.5-7.1c6.1,0,11.4,4.3,12.6,10.2l0.3,1.5l1.5,0.1
		c3.7,0.2,6.6,3.3,6.6,7c0,3.9-3.1,7-7,7.1c0,0-0.1,0-0.1,0l-2,0h-0.8v2h2.8v0c0,0,0.1,0,0.1,0c5,0,9.1-4.1,9.1-9.1
		C55.8-346.4,52-350.3,47.3-350.6z M19.4-354.2c-0.2,0-0.5,0-0.7,0c-2.8,0-5.3,1-7.2,2.7c-1.1-1.4-1.8-3.1-1.8-5c0-4.4,3.6-8,8-8
		c3.1,0,5.8,1.8,7.1,4.3C22.5-358.7,20.6-356.6,19.4-354.2z"/>
</g>
<g>
	<rect x="131.2" y="-336.9" width="2" height="7"/>
	<rect x="139.2" y="-340.9" width="2" height="7"/>
	<rect x="123.2" y="-340.9" width="2" height="7"/>
	<rect x="131.2" y="-326.9" width="2" height="7"/>
	<rect x="139.2" y="-330.9" width="2" height="7"/>
	<rect x="123.2" y="-330.9" width="2" height="7"/>
	<path d="M147.7-352c-1.4-6.7-7.4-11.8-14.6-11.8c-1.8,0-3.5,0.3-5.1,0.9c-0.9-5.1-5.4-9-10.8-9c-0.4,0-0.8,0-1.2,0.1
		c0.7,1.1,1.2,2.4,1.2,3.9c0,3.9-3.1,7-7,7c-1.4,0-2.8-0.4-3.9-1.2c0,0.4-0.1,0.8-0.1,1.2c0,3.7,1.8,7,4.7,9
		c-1.7,1.9-2.7,4.4-2.7,7.1c0,6,4.8,10.8,10.8,10.9v0h1.2v-2h-0.7l-0.5,0c-4.9,0-8.8-4-8.8-8.9c0-4.9,4-8.9,8.9-8.9
		c0.2,0,0.3,0,0.4,0l0.1,0l1.3,0.1l0.6-1.2c2.2-4.4,6.6-7.1,11.5-7.1c6.1,0,11.4,4.3,12.6,10.2l0.3,1.5l1.5,0.1
		c3.7,0.2,6.6,3.3,6.6,7c0,3.9-3.1,7-7,7.1c0,0-0.1,0-0.1,0l-2,0h-0.8v2h2.8v0c0,0,0.1,0,0.1,0c5,0,9.1-4.1,9.1-9.1
		C156.2-347.8,152.4-351.7,147.7-352z M119.8-355.6c-0.2,0-0.5,0-0.7,0c-2.5,0-4.9,0.9-6.7,2.3c-2-1.3-3.5-3.4-4-5.8
		c0.6,0.1,1.2,0.2,1.8,0.2c5,0,9-4,9-9c0-0.6-0.1-1.2-0.2-1.8c3.7,0.8,6.6,3.8,7.1,7.6C123.4-360.6,121.2-358.4,119.8-355.6z"/>
</g>
<g>
	<polygon points="-176,-236.1 -176,-234.2 -176,-228.1 -174,-228.1 -174,-234.2 -174,-236.1 -174,-248.1 -176,-248.1 	"/>
	<polygon points="-168,-240.1 -168,-238.4 -168,-232.1 -166,-232.1 -166,-238.4 -166,-240.1 -166,-252.1 -168,-252.1 	"/>
	<polygon points="-184,-240.1 -184,-238 -184,-232.1 -182,-232.1 -182,-238 -182,-240.1 -182,-252.1 -184,-252.1 	"/>
	<rect x="-190" y="-287" width="2" height="8"/>
	<rect x="-209" y="-268.1" width="8" height="2"/>
	<rect x="-201.4" y="-282.4" transform="matrix(0.7071 -0.7071 0.7071 0.7071 138.142 -223.2235)" width="2" height="8"/>
	<rect x="-181.8" y="-279.4" transform="matrix(0.7071 -0.7071 0.7071 0.7071 144.7355 -207.2971)" width="8" height="2"/>
	<path d="M-159.5-261.2C-161-268-167-273-174.1-273c-2.2,0-4.3,0.5-6.1,1.3c-1.7-3.2-5-5.4-8.9-5.4c-5.5,0-10,4.5-10,10
		c0,2.5,0.9,4.7,2.4,6.4c-1.4,1.8-2.3,4.1-2.3,6.7c0,6,4.8,10.8,10.8,10.9v0h1.2v-2h-0.7l-0.5,0c-4.9,0-8.8-4-8.8-8.9
		c0-4.9,4-8.9,8.9-8.9c0.1,0,0.3,0,0.4,0l0.1,0l1.3,0.1l0.6-1.2c2.2-4.4,6.6-7.1,11.5-7.1c6.1,0,11.4,4.3,12.6,10.2l0.3,1.5l1.5,0.1
		c3.7,0.2,6.6,3.3,6.6,7c0,3.9-3.1,7-7,7.1c0,0-0.1,0-0.1,0l-2,0h-0.8v2h2.8v0c0,0,0.1,0,0.1,0c5,0,9.1-4.1,9.1-9.1
		C-151-257-154.8-260.9-159.5-261.2z M-187.5-264.8c-0.2,0-0.5,0-0.7,0c-2.8,0-5.3,1-7.2,2.7c-1.1-1.4-1.8-3.1-1.8-5
		c0-4.4,3.6-8,8-8c3.1,0,5.8,1.8,7.1,4.3C-184.3-269.3-186.2-267.3-187.5-264.8z"/>
</g>
<g>
	<polygon points="-75.6,-238.6 -75.6,-236.7 -75.6,-230.6 -73.6,-230.6 -73.6,-236.7 -73.6,-238.6 -73.6,-250.6 -75.6,-250.6 	"/>
	<polygon points="-67.6,-242.6 -67.6,-240.9 -67.6,-234.6 -65.6,-234.6 -65.6,-240.9 -65.6,-242.6 -65.6,-254.6 -67.6,-254.6 	"/>
	<polygon points="-83.6,-242.6 -83.6,-240.6 -83.6,-234.6 -81.6,-234.6 -81.6,-240.6 -81.6,-242.6 -81.6,-254.6 -83.6,-254.6 	"/>
	<path d="M-59.1-263.7c-1.4-6.7-7.4-11.8-14.6-11.8c-1.8,0-3.5,0.3-5.1,0.9c-0.9-5.1-5.4-9-10.8-9c-0.4,0-0.8,0-1.2,0.1
		c0.7,1.1,1.2,2.4,1.2,3.9c0,3.9-3.1,7-7,7c-1.4,0-2.8-0.4-3.9-1.2c0,0.4-0.1,0.8-0.1,1.2c0,3.7,1.8,7,4.7,9
		c-1.7,1.9-2.7,4.4-2.7,7.1c0,6,4.8,10.8,10.8,10.9v0h1.2v-2h-0.7l-0.5,0c-4.9,0-8.8-4-8.8-8.9c0-4.9,4-8.9,8.9-8.9
		c0.2,0,0.3,0,0.4,0l0.1,0l1.3,0.1l0.6-1.2c2.2-4.4,6.6-7.1,11.5-7.1c6.1,0,11.4,4.3,12.6,10.2l0.3,1.5l1.5,0.1
		c3.7,0.2,6.6,3.3,6.6,7c0,3.9-3.1,7-7,7.1c0,0-0.1,0-0.1,0l-2,0h-0.8v2h2.8v0c0,0,0.1,0,0.1,0c5,0,9.1-4.1,9.1-9.1
		C-50.6-259.5-54.4-263.4-59.1-263.7z M-87.1-267.4c-0.2,0-0.5,0-0.7,0c-2.5,0-4.9,0.9-6.7,2.3c-2-1.3-3.5-3.4-4-5.8
		c0.6,0.1,1.2,0.2,1.8,0.2c5,0,9-4,9-9c0-0.6-0.1-1.2-0.2-1.8c3.7,0.8,6.6,3.8,7.1,7.6C-83.4-272.4-85.7-270.1-87.1-267.4z"/>
</g>
<g>
	<polygon points="141.4,-237.7 134.5,-247.5 132.9,-246.4 139.8,-236.5 140.9,-234.9 144.3,-230 146,-231.1 142.5,-236.1 	"/>
	<polygon points="149.4,-237.7 142.5,-247.5 140.9,-246.4 147.8,-236.5 148.8,-235.1 152.3,-230 154,-231.1 150.4,-236.2 	"/>
	<polygon points="133.4,-237.7 126.5,-247.5 124.9,-246.4 131.8,-236.5 132.9,-234.8 136.3,-230 138,-231.1 134.6,-236 	"/>
	<rect x="120.9" y="-285.2" width="2" height="8"/>
	<rect x="101.9" y="-266.3" width="8" height="2"/>
	<rect x="109.5" y="-280.6" transform="matrix(0.7071 -0.7071 0.7071 0.7071 227.9477 -2.8559)" width="2" height="8"/>
	<rect x="129.1" y="-277.6" transform="matrix(0.7071 -0.7071 0.7071 0.7071 234.5411 13.0705)" width="8" height="2"/>
	<path d="M151.4-259.4c-1.4-6.7-7.4-11.8-14.6-11.8c-2.2,0-4.3,0.5-6.1,1.3c-1.7-3.2-5-5.4-8.9-5.4c-5.5,0-10,4.5-10,10
		c0,2.5,0.9,4.7,2.4,6.4c-1.4,1.8-2.3,4.1-2.3,6.7c0,6,4.8,10.8,10.8,10.9v0h1.2v-2h-0.7l-0.5,0c-4.9,0-8.8-4-8.8-8.9
		c0-4.9,4-8.9,8.9-8.9c0.2,0,0.3,0,0.4,0l0.1,0l1.3,0.1l0.6-1.2c2.2-4.4,6.6-7.1,11.5-7.1c6.1,0,11.4,4.3,12.6,10.2l0.3,1.5l1.5,0.1
		c3.7,0.2,6.6,3.3,6.6,7c0,3.9-3.1,7-7,7.1c0,0-0.1,0-0.1,0l0,0h-0.8v2h0.8v0c0,0,0.1,0,0.1,0c5,0,9.1-4.1,9.1-9.1
		C159.9-255.2,156.1-259.1,151.4-259.4z M123.5-263.1c-0.2,0-0.5,0-0.7,0c-2.8,0-5.3,1-7.2,2.7c-1.1-1.4-1.8-3.1-1.8-5
		c0-4.4,3.6-8,8-8c3.1,0,5.8,1.8,7.1,4.3C126.6-267.5,124.7-265.5,123.5-263.1z"/>
</g>
<g>
	<polygon points="-582,-141.2 -588.9,-151 -590.6,-149.9 -583.7,-140.1 -582.6,-138.5 -579.1,-133.5 -577.5,-134.6 -580.9,-139.6 	
		"/>
	<polygon points="-574,-141.2 -580.9,-151 -582.6,-149.9 -575.7,-140.1 -574.7,-138.6 -571.1,-133.5 -569.4,-134.6 -573,-139.8 	"/>
	<polygon points="-590,-141.2 -596.9,-151 -598.6,-149.9 -591.7,-140.1 -590.5,-138.4 -587.1,-133.5 -585.5,-134.6 -588.9,-139.5 	
		"/>
	<path d="M-572-163c-1.4-6.7-7.4-11.8-14.6-11.8c-1.8,0-3.5,0.3-5.1,0.9c-0.9-5.1-5.4-9-10.8-9c-0.4,0-0.8,0-1.2,0.1
		c0.7,1.1,1.2,2.4,1.2,3.9c0,3.9-3.1,7-7,7c-1.4,0-2.8-0.4-3.9-1.2c0,0.4-0.1,0.8-0.1,1.2c0,3.7,1.8,7,4.7,9
		c-1.7,1.9-2.7,4.4-2.7,7.1c0,6,4.8,10.8,10.8,10.9v0h1.2v-2h-0.7l-0.5,0c-4.9,0-8.8-4-8.8-8.9c0-4.9,4-8.9,8.9-8.9
		c0.2,0,0.3,0,0.4,0l0.1,0l1.3,0.1l0.6-1.2c2.2-4.4,6.6-7.1,11.5-7.1c6.1,0,11.4,4.3,12.6,10.2l0.3,1.5l1.5,0.1
		c3.7,0.2,6.6,3.3,6.6,7c0,3.9-3.1,7-7,7.1c0,0-0.1,0-0.1,0l0,0h-0.8v2h0.8v0c0,0,0.1,0,0.1,0c5,0,9.1-4.1,9.1-9.1
		C-563.6-158.7-567.3-162.7-572-163z M-600-166.6c-0.2,0-0.5,0-0.7,0c-2.5,0-4.9,0.9-6.7,2.3c-2-1.3-3.5-3.4-4-5.8
		c0.6,0.1,1.2,0.2,1.8,0.2c5,0,9-4,9-9c0-0.6-0.1-1.2-0.2-1.8c3.7,0.8,6.6,3.8,7.1,7.6C-596.4-171.6-598.6-169.3-600-166.6z"/>
</g>
<g>
	<rect x="-589.6" y="-245" width="2" height="4"/>
	<rect x="-581.6" y="-249.1" width="2" height="4"/>
	<rect x="-597.6" y="-249.1" width="2" height="4"/>
	<path d="M-570.9-265c-1.6-7.4-8.2-13-16.1-13c-6.4,0-12,3.7-14.7,9c-0.3,0-0.5,0-0.8,0c-6.6,0-12,5.4-12,12c0,6.6,5.3,12,11.9,12v0
		h2.1v-2h-1.6l-0.4,0c-5.5,0-9.9-4.5-9.9-10c0-5.5,4.5-10,10-10c0.2,0,0.3,0,0.5,0l0.1,0l1.3,0.1l0.6-1.2c2.5-4.9,7.4-7.9,12.9-7.9
		c6.8,0,12.8,4.8,14.2,11.4l0.3,1.5l1.5,0.1c4.2,0.3,7.5,3.8,7.5,8c0,4.4-3.6,8-8,8c0,0-0.1,0-0.1,0l-2,0h-2.9v2h4.9v0
		c0,0,0.1,0,0.1,0c5.5,0,10-4.5,10-10C-561.6-260.4-565.7-264.7-570.9-265z"/>
	<circle cx="-580.6" cy="-240" r="1.5"/>
	<circle cx="-588.6" cy="-236.1" r="1.5"/>
	<circle cx="-596.6" cy="-240.1" r="1.5"/>
</g>
<g>
	<rect x="-496.6" y="-284.5" width="2" height="8"/>
	<rect x="-515.6" y="-265.6" width="8" height="2"/>
	<rect x="-508" y="-279.8" transform="matrix(0.7071 -0.7071 0.7071 0.7071 46.5625 -439.2825)" width="2" height="8"/>
	<rect x="-488.4" y="-276.8" transform="matrix(0.7071 -0.7071 0.7071 0.7071 53.156 -423.3561)" width="8" height="2"/>
	<path d="M-466.1-258.7c-1.4-6.7-7.4-11.8-14.6-11.8c-2.2,0-4.3,0.5-6.1,1.3c-1.7-3.2-5-5.4-8.9-5.4c-5.5,0-10,4.5-10,10
		c0,2.5,0.9,4.7,2.4,6.4c-1.4,1.8-2.3,4.1-2.3,6.7c0,6,4.8,10.8,10.8,10.9v0h1.2v-2h-0.7l-0.5,0c-4.9,0-8.8-4-8.8-8.9
		c0-4.9,4-8.9,8.9-8.9c0.1,0,0.3,0,0.4,0l0.1,0l1.3,0.1l0.6-1.2c2.2-4.4,6.6-7.1,11.5-7.1c6.1,0,11.4,4.3,12.6,10.2l0.3,1.5l1.5,0.1
		c3.7,0.2,6.6,3.3,6.6,7c0,3.9-3.1,7-7,7.1c0,0-0.1,0-0.1,0l-2,0h-0.8v2h2.8v0c0,0,0.1,0,0.1,0c5,0,9.1-4.1,9.1-9.1
		C-457.6-254.5-461.4-258.4-466.1-258.7z M-494-262.3c-0.2,0-0.5,0-0.7,0c-2.8,0-5.3,1-7.2,2.7c-1.1-1.4-1.8-3.1-1.8-5
		c0-4.4,3.6-8,8-8c3.1,0,5.8,1.8,7.1,4.3C-490.9-266.8-492.8-264.8-494-262.3z"/>
	<rect x="-482.6" y="-240.6" width="2" height="4"/>
	<rect x="-474.6" y="-244.6" width="2" height="4"/>
	<rect x="-490.6" y="-244.6" width="2" height="4"/>
	<circle cx="-473.6" cy="-235.6" r="1.5"/>
	<circle cx="-481.6" cy="-231.6" r="1.5"/>
	<circle cx="-489.6" cy="-235.6" r="1.5"/>
</g>
<g>
	<path d="M-365.2-259.7c-1.4-6.7-7.4-11.8-14.6-11.8c-1.8,0-3.5,0.3-5.1,0.9c-0.9-5.1-5.4-9-10.8-9c-0.4,0-0.8,0-1.2,0.1
		c0.7,1.1,1.2,2.4,1.2,3.9c0,3.9-3.1,7-7,7c-1.4,0-2.8-0.4-3.9-1.2c0,0.4-0.1,0.8-0.1,1.2c0,3.7,1.8,7,4.7,9
		c-1.7,1.9-2.7,4.4-2.7,7.1c0,6,4.8,10.8,10.8,10.9v0h1.2v-2h-0.7l-0.5,0c-4.9,0-8.8-4-8.8-8.9c0-4.9,4-8.9,8.9-8.9
		c0.1,0,0.3,0,0.4,0l0.1,0l1.3,0.1l0.6-1.2c2.2-4.4,6.6-7.1,11.5-7.1c6.1,0,11.4,4.3,12.6,10.2l0.3,1.5l1.5,0.1
		c3.7,0.2,6.6,3.3,6.6,7c0,3.9-3.1,7-7,7.1c0,0-0.1,0-0.1,0l-2,0h-0.8v2h2.8v0c0,0,0.1,0,0.1,0c5,0,9.1-4.1,9.1-9.1
		C-356.7-255.4-360.5-259.4-365.2-259.7z M-393.1-263.3c-0.2,0-0.5,0-0.7,0c-2.5,0-4.9,0.9-6.7,2.3c-2-1.3-3.5-3.4-4-5.8
		c0.6,0.1,1.2,0.2,1.8,0.2c5,0,9-4,9-9c0-0.6-0.1-1.2-0.2-1.8c3.7,0.8,6.6,3.8,7.1,7.6C-389.5-268.3-391.7-266-393.1-263.3z"/>
	<rect x="-381.7" y="-241.6" width="2" height="4"/>
	<rect x="-373.7" y="-245.6" width="2" height="4"/>
	<rect x="-389.7" y="-245.6" width="2" height="4"/>
	<circle cx="-372.7" cy="-236.5" r="1.5"/>
	<circle cx="-380.7" cy="-232.6" r="1.5"/>
	<circle cx="-388.7" cy="-236.6" r="1.5"/>
</g>
<g>
	<path d="M-468.5-166.6c-1.6-7.4-8.2-13-16.1-13c-6.4,0-12,3.7-14.7,9c-0.3,0-0.5,0-0.8,0c-6.6,0-12,5.4-12,12c0,6.6,5.3,12,11.9,12
		v0h6.1v-2h-5.6l-0.4,0c-5.5,0-9.9-4.5-9.9-10c0-5.5,4.5-10,10-10c0.2,0,0.3,0,0.5,0l0.1,0l1.3,0.1l0.6-1.2
		c2.5-4.9,7.4-7.9,12.9-7.9c6.8,0,12.8,4.8,14.2,11.4l0.3,1.5l1.5,0.1c4.2,0.3,7.5,3.8,7.5,8c0,4.4-3.6,8-8,8c0,0-0.1,0-0.1,0l-5,0
		h0.1v2h4.9v0c0,0,0.1,0,0.1,0c5.5,0,10-4.5,10-10C-459.1-162-463.3-166.3-468.5-166.6z"/>
	<polygon points="-484.3,-146.7 -482.5,-146.7 -482.1,-146.7 -480.1,-146.7 -486.5,-155.8 -488.1,-154.7 -483.9,-148.7 
		-485.7,-148.7 -488.1,-148.7 -486.9,-146.9 -485.8,-145.3 -479.8,-136.7 -478.1,-137.8 -484.1,-146.4 	"/>
</g>
<g>
	<rect x="-392.7" y="-185.8" width="2" height="8"/>
	<rect x="-411.7" y="-166.9" width="8" height="2"/>
	<rect x="-404.1" y="-181.1" transform="matrix(0.7071 -0.7071 0.7071 0.7071 7.1878 -336.8777)" width="2" height="8"/>
	<rect x="-384.5" y="-178.1" transform="matrix(0.7071 -0.7071 0.7071 0.7071 13.7812 -320.9513)" width="8" height="2"/>
	<path d="M-362.2-160c-1.4-6.7-7.4-11.8-14.6-11.8c-2.2,0-4.3,0.5-6.1,1.3c-1.7-3.2-5-5.4-8.9-5.4c-5.5,0-10,4.5-10,10
		c0,2.5,0.9,4.7,2.4,6.4c-1.4,1.8-2.3,4.1-2.3,6.7c0,6,4.8,10.8,10.8,10.9v0h4.2v-2h-3.7l-0.5,0c-4.9,0-8.8-4-8.8-8.9
		c0-4.9,4-8.9,8.9-8.9c0.1,0,0.3,0,0.4,0l0.1,0l1.3,0.1l0.6-1.2c2.2-4.4,6.6-7.1,11.5-7.1c6.1,0,11.4,4.3,12.6,10.2l0.3,1.5l1.5,0.1
		c3.7,0.2,6.6,3.3,6.6,7c0,3.9-3.1,7-7,7.1c0,0-0.1,0-0.1,0l-2,0h-3.8v2h5.8v0c0,0,0.1,0,0.1,0c5,0,9.1-4.1,9.1-9.1
		C-353.7-155.8-357.5-159.7-362.2-160z M-390.1-163.6c-0.2,0-0.5,0-0.7,0c-2.8,0-5.3,1-7.2,2.7c-1.1-1.4-1.8-3.1-1.8-5
		c0-4.4,3.6-8,8-8c3.1,0,5.8,1.8,7.1,4.3C-387-168.1-388.9-166-390.1-163.6z"/>
	<polygon points="-377.9,-141.9 -376.1,-141.9 -375.7,-141.9 -373.7,-141.9 -380.1,-151 -381.7,-149.9 -377.5,-143.9 -379.3,-143.9 
		-381.7,-143.9 -380.4,-142.1 -379.3,-140.5 -373.4,-131.9 -371.7,-133 -377.7,-141.6 	"/>
</g>
<g>
	<path d="M-262.6-162.3c-1.4-6.7-7.4-11.8-14.6-11.8c-1.8,0-3.5,0.3-5.1,0.9c-0.9-5.1-5.4-9-10.8-9c-0.4,0-0.8,0-1.2,0.1
		c0.7,1.1,1.2,2.4,1.2,3.9c0,3.9-3.1,7-7,7c-1.4,0-2.8-0.4-3.9-1.2c0,0.4-0.1,0.8-0.1,1.2c0,3.7,1.8,7,4.7,9
		c-1.7,1.9-2.7,4.4-2.7,7.1c0,6,4.8,10.8,10.8,10.9v0h4.2v-2h-3.7l-0.5,0c-4.9,0-8.8-4-8.8-8.9c0-4.9,4-8.9,8.9-8.9
		c0.1,0,0.3,0,0.4,0l0.1,0l1.3,0.1l0.6-1.2c2.2-4.4,6.6-7.1,11.5-7.1c6.1,0,11.4,4.3,12.6,10.2l0.3,1.5l1.5,0.1
		c3.7,0.2,6.6,3.3,6.6,7c0,3.9-3.1,7-7,7.1c0,0-0.1,0-0.1,0l-2,0h-3.8v2h5.8v0c0,0,0.1,0,0.1,0c5,0,9.1-4.1,9.1-9.1
		C-254.1-158.1-257.9-162-262.6-162.3z M-290.5-165.9c-0.2,0-0.5,0-0.7,0c-2.5,0-4.9,0.9-6.7,2.3c-2-1.3-3.5-3.4-4-5.8
		c0.6,0.1,1.2,0.2,1.8,0.2c5,0,9-4,9-9c0-0.6-0.1-1.2-0.2-1.8c3.7,0.8,6.6,3.8,7.1,7.6C-286.9-170.9-289.1-168.6-290.5-165.9z"/>
	<polygon points="-278.3,-144.2 -276.5,-144.2 -276.1,-144.2 -274.1,-144.2 -280.5,-153.3 -282.1,-152.2 -277.9,-146.2 
		-279.7,-146.2 -282.1,-146.2 -280.9,-144.4 -279.7,-142.8 -273.8,-134.2 -272.1,-135.3 -278.1,-143.9 	"/>
</g>
<g>
	<path d="M-161.7-166.1c-1.6-7.4-8.2-13-16.1-13c-6.4,0-12,3.7-14.7,9c-0.3,0-0.5,0-0.8,0c-6.6,0-12,5.4-12,12c0,6.6,5.3,12,11.9,12
		v0h1.1v-2h-0.6l-0.4,0c-5.5,0-9.9-4.5-9.9-10c0-5.5,4.5-10,10-10c0.2,0,0.3,0,0.5,0l0.1,0l1.3,0.1l0.6-1.2
		c2.5-4.9,7.4-7.9,12.9-7.9c6.8,0,12.8,4.8,14.2,11.4l0.3,1.5l1.5,0.1c4.2,0.3,7.5,3.8,7.5,8c0,4.4-3.6,8-8,8c-0.1,0-0.1,0-0.1,0
		l-0.9,0v2h0.9v0c0,0,0.1,0,0.1,0c5.5,0,10-4.5,10-10C-152.4-161.5-156.5-165.8-161.7-166.1z"/>
	<rect x="-188.3" y="-152.8" transform="matrix(0.8191 -0.5736 0.5736 0.8191 50.5391 -134.0834)" width="2" height="11.2"/>
	<rect x="-170.4" y="-152.8" transform="matrix(0.8191 -0.5736 0.5736 0.8191 53.7904 -123.7726)" width="2" height="11.2"/>
	<polygon points="-176.5,-143.2 -174.8,-143.2 -174.3,-143.2 -172.3,-143.2 -178.7,-152.3 -180.4,-151.2 -176.1,-145.2 
		-177.9,-145.2 -180.4,-145.2 -179.1,-143.4 -178,-141.8 -173.4,-135.2 -171.7,-136.3 -176.3,-142.9 	"/>
</g>
<g>
	<rect x="-86.9" y="-185.6" width="2" height="8"/>
	<rect x="-105.9" y="-166.7" width="8" height="2"/>
	<rect x="-98.2" y="-180.9" transform="matrix(0.7071 -0.7071 0.7071 0.7071 96.6488 -120.5782)" width="2" height="8"/>
	<rect x="-78.7" y="-178" transform="matrix(0.7071 -0.7071 0.7071 0.7071 103.2422 -104.6518)" width="8" height="2"/>
	<path d="M-56.4-159.8c-1.4-6.7-7.4-11.8-14.6-11.8c-2.2,0-4.3,0.5-6.1,1.3c-1.7-3.2-5-5.4-8.9-5.4c-5.5,0-10,4.5-10,10
		c0,2.5,0.9,4.7,2.4,6.4c-1.4,1.8-2.3,4.1-2.3,6.7c0,6,4.8,10.8,10.8,10.9v0h0.2v-2l-0.2,0c-4.9,0-8.8-4-8.8-8.9
		c0-4.9,4-8.9,8.9-8.9c0.2,0,0.3,0,0.4,0l0.1,0l1.3,0.1l0.6-1.2c2.2-4.4,6.6-7.1,11.5-7.1c6.1,0,11.4,4.3,12.6,10.2l0.3,1.5l1.5,0.1
		c3.7,0.2,6.6,3.3,6.6,7c0,3.9-3.1,7-7,7.1c0,0-0.1,0-0.1,0l-0.9,0v2h0.8v0c0,0,0.1,0,0.1,0c5,0,9.1-4.1,9.1-9.1
		C-47.9-155.6-51.6-159.5-56.4-159.8z M-84.3-163.4c-0.2,0-0.5,0-0.7,0c-2.8,0-5.3,1-7.2,2.7c-1.1-1.4-1.8-3.1-1.8-5
		c0-4.4,3.6-8,8-8c3.1,0,5.8,1.8,7.1,4.3C-81.2-167.9-83.1-165.9-84.3-163.4z"/>
	<rect x="-81.9" y="-148.3" transform="matrix(0.8191 -0.5736 0.5736 0.8191 67.25 -72.2091)" width="2" height="11.2"/>
	<rect x="-63.9" y="-148.3" transform="matrix(0.8191 -0.5736 0.5736 0.8191 70.5014 -61.8983)" width="2" height="11.2"/>
	<polygon points="-70.1,-138.7 -68.3,-138.7 -67.9,-138.7 -65.8,-138.7 -72.3,-147.9 -73.9,-146.7 -69.7,-140.7 -71.5,-140.7 
		-73.9,-140.7 -72.6,-138.9 -71.5,-137.3 -66.9,-130.7 -65.3,-131.9 -69.9,-138.5 	"/>
</g>
<g>
	<path d="M45.5-162.8c-1.4-6.7-7.4-11.8-14.6-11.8c-1.8,0-3.5,0.3-5.1,0.9c-0.9-5.1-5.4-9-10.8-9c-0.4,0-0.8,0-1.2,0.1
		c0.7,1.1,1.2,2.4,1.2,3.9c0,3.9-3.1,7-7,7c-1.4,0-2.8-0.4-3.9-1.2c0,0.4-0.1,0.8-0.1,1.2c0,3.7,1.8,7,4.7,9
		C7-160.8,6-158.3,6-155.6c0,6,4.8,10.8,10.8,10.9v0H17v-2l-0.2,0c-4.9,0-8.8-4-8.8-8.9c0-4.9,4-8.9,8.9-8.9c0.1,0,0.3,0,0.4,0
		l0.1,0l1.3,0.1l0.6-1.2c2.2-4.4,6.6-7.1,11.5-7.1c6.1,0,11.4,4.3,12.6,10.2l0.3,1.5l1.5,0.1c3.7,0.2,6.6,3.3,6.6,7
		c0,3.9-3.1,7-7,7.1c0,0-0.1,0-0.1,0l-0.9,0v2h0.8v0c0,0,0.1,0,0.1,0c5,0,9.1-4.1,9.1-9.1C54-158.6,50.2-162.5,45.5-162.8z
		 M17.5-166.4c-0.2,0-0.5,0-0.7,0c-2.5,0-4.9,0.9-6.7,2.3c-2-1.3-3.5-3.4-4-5.8c0.6,0.1,1.2,0.2,1.8,0.2c5,0,9-4,9-9
		c0-0.6-0.1-1.2-0.2-1.8c3.7,0.8,6.6,3.8,7.1,7.6C21.2-171.4,18.9-169.1,17.5-166.4z"/>
	<rect x="20" y="-151.3" transform="matrix(0.8191 -0.5736 0.5736 0.8191 87.3669 -14.3264)" width="2" height="11.2"/>
	<rect x="37.9" y="-151.3" transform="matrix(0.8191 -0.5736 0.5736 0.8191 90.618 -4.0151)" width="2" height="11.2"/>
	<polygon points="31.8,-141.7 33.5,-141.7 34,-141.7 36,-141.7 29.6,-150.8 27.9,-149.7 32.1,-143.7 30.4,-143.7 27.9,-143.7 
		29.2,-141.9 30.3,-140.3 34.9,-133.7 36.6,-134.8 32,-141.4 	"/>
</g>
<g>
	<g>
		<path d="M-365.1-76.3c-1.6-7.4-8.2-13-16.1-13c-6.4,0-12,3.7-14.7,9c-0.3,0-0.5,0-0.8,0c-6.6,0-12,5.4-12,12c0,6.6,5.3,12,11.9,12
			v0h2.1v-2h-1.6l-0.4,0c-5.5,0-9.9-4.5-9.9-10c0-5.5,4.5-10,10-10c0.2,0,0.3,0,0.5,0l0.1,0l1.3,0.1l0.6-1.2
			c2.5-4.9,7.4-7.9,12.9-7.9c6.8,0,12.8,4.8,14.2,11.4l0.3,1.5l1.5,0.1c4.2,0.3,7.5,3.8,7.5,8c0,4.4-3.6,8-8,8c0,0-0.1,0-0.1,0l-2,0
			h-2.9v2h4.9v0c0,0,0.1,0,0.1,0c5.5,0,10-4.5,10-10C-355.7-71.7-359.9-76-365.1-76.3z"/>
	</g>
	<g>
		<circle cx="-390.2" cy="-62.8" r="1.5"/>
	</g>
	<g>
		<circle cx="-386.2" cy="-56.8" r="1.5"/>
	</g>
	<g>
		<circle cx="-378.2" cy="-56.8" r="1.5"/>
	</g>
	<g>
		<circle cx="-382.2" cy="-62.8" r="1.5"/>
	</g>
	<g>
		<circle cx="-374.2" cy="-62.8" r="1.5"/>
	</g>
	<g>
		<circle cx="-390.2" cy="-50.8" r="1.5"/>
	</g>
	<g>
		<circle cx="-382.2" cy="-50.8" r="1.5"/>
	</g>
	<g>
		<circle cx="-374.2" cy="-50.8" r="1.5"/>
	</g>
</g>
<g>
	<g>
		<rect x="-289.3" y="-91.8" width="2" height="8"/>
	</g>
	<g>
		<rect x="-308.3" y="-72.9" width="8" height="2"/>
	</g>
	<g>
		<rect x="-300.7" y="-87.1" transform="matrix(0.7071 -0.7071 0.7071 0.7071 -28.9745 -236.2374)" width="2" height="8"/>
	</g>
	<g>
		<rect x="-281.1" y="-84.1" transform="matrix(0.7071 -0.7071 0.7071 0.7071 -22.3808 -220.3116)" width="8" height="2"/>
	</g>
	<g>
		<path d="M-258.8-66c-1.4-6.7-7.4-11.8-14.6-11.8c-2.2,0-4.3,0.5-6.1,1.3c-1.7-3.2-5-5.4-8.9-5.4c-5.5,0-10,4.5-10,10
			c0,2.5,0.9,4.7,2.4,6.4c-1.4,1.8-2.3,4.1-2.3,6.7c0,6,4.8,10.8,10.8,10.9v0h1.2v-2h-0.7l-0.5,0c-4.9,0-8.8-4-8.8-8.9
			c0-4.9,4-8.9,8.9-8.9c0.1,0,0.3,0,0.4,0l0.1,0l1.3,0.1l0.6-1.2c2.2-4.4,6.6-7.1,11.5-7.1c6.1,0,11.4,4.3,12.6,10.2l0.3,1.5
			l1.5,0.1c3.7,0.2,6.6,3.3,6.6,7c0,3.9-3.1,7-7,7.1c0,0-0.1,0-0.1,0l-2,0h-1.8v2h3.8v0c0,0,0.1,0,0.1,0c5,0,9.1-4.1,9.1-9.1
			C-250.3-61.8-254.1-65.7-258.8-66z M-286.7-69.6c-0.2,0-0.5,0-0.7,0c-2.8,0-5.3,1-7.2,2.7c-1.1-1.4-1.8-3.1-1.8-5c0-4.4,3.6-8,8-8
			c3.1,0,5.8,1.8,7.1,4.3C-283.6-74.1-285.5-72.1-286.7-69.6z"/>
	</g>
	<g>
		<circle cx="-282.8" cy="-54.4" r="1.5"/>
	</g>
	<g>
		<circle cx="-278.8" cy="-48.4" r="1.5"/>
	</g>
	<g>
		<circle cx="-270.8" cy="-48.4" r="1.5"/>
	</g>
	<g>
		<circle cx="-274.8" cy="-54.4" r="1.5"/>
	</g>
	<g>
		<circle cx="-266.8" cy="-54.4" r="1.5"/>
	</g>
	<g>
		<circle cx="-282.8" cy="-42.4" r="1.5"/>
	</g>
	<g>
		<circle cx="-274.8" cy="-42.4" r="1.5"/>
	</g>
	<g>
		<circle cx="-266.8" cy="-42.4" r="1.5"/>
	</g>
</g>
<g>
	<g>
		<path d="M-162.9-70c-1.4-6.7-7.4-11.8-14.6-11.8c-1.8,0-3.5,0.3-5.1,0.9c-0.9-5.1-5.4-9-10.8-9c-0.4,0-0.8,0-1.2,0.1
			c0.7,1.1,1.2,2.4,1.2,3.9c0,3.9-3.1,7-7,7c-1.4,0-2.8-0.4-3.9-1.2c0,0.4-0.1,0.8-0.1,1.2c0,3.7,1.8,7,4.7,9
			c-1.7,1.9-2.7,4.4-2.7,7.1c0,6,4.8,10.8,10.8,10.9v0h1.2v-2h-0.7l-0.5,0c-4.9,0-8.8-4-8.8-8.9c0-4.9,4-8.9,8.9-8.9
			c0.1,0,0.3,0,0.4,0l0.1,0l1.3,0.1l0.6-1.2c2.2-4.4,6.6-7.1,11.5-7.1c6.1,0,11.4,4.3,12.6,10.2l0.3,1.5l1.5,0.1
			c3.7,0.2,6.6,3.3,6.6,7c0,3.9-3.1,7-7,7.1c0,0-0.1,0-0.1,0l-2,0h-1.8v2h3.8v0c0,0,0.1,0,0.1,0c5,0,9.1-4.1,9.1-9.1
			C-154.4-65.7-158.1-69.7-162.9-70z M-190.8-73.6c-0.2,0-0.5,0-0.7,0c-2.5,0-4.9,0.9-6.7,2.3c-2-1.3-3.5-3.4-4-5.8
			c0.6,0.1,1.2,0.2,1.8,0.2c5,0,9-4,9-9c0-0.6-0.1-1.2-0.2-1.8c3.7,0.8,6.6,3.8,7.1,7.6C-187.2-78.6-189.4-76.3-190.8-73.6z"/>
	</g>
	<g>
		<circle cx="-186.9" cy="-58.4" r="1.5"/>
	</g>
	<g>
		<circle cx="-182.9" cy="-52.4" r="1.5"/>
	</g>
	<g>
		<circle cx="-174.9" cy="-52.4" r="1.5"/>
	</g>
	<g>
		<circle cx="-178.9" cy="-58.4" r="1.5"/>
	</g>
	<g>
		<circle cx="-170.9" cy="-58.4" r="1.5"/>
	</g>
	<g>
		<circle cx="-186.9" cy="-46.3" r="1.5"/>
	</g>
	<g>
		<circle cx="-178.9" cy="-46.3" r="1.5"/>
	</g>
	<g>
		<circle cx="-170.9" cy="-46.3" r="1.5"/>
	</g>
</g>
<g>
	<path d="M148.3-168.8c-1.6-7.4-8.2-13-16.1-13c-6.4,0-12,3.7-14.7,9c-0.3,0-0.5,0-0.8,0c-6.6,0-12,5.4-12,12c0,6.6,5.3,12,11.9,12
		v0h2.1v-2h-1.6l-0.4,0c-5.5,0-9.9-4.5-9.9-10c0-5.5,4.5-10,10-10c0.2,0,0.3,0,0.5,0l0.1,0l1.3,0.1l0.6-1.2
		c2.5-4.9,7.4-7.9,12.9-7.9c6.8,0,12.8,4.8,14.2,11.4l0.3,1.5l1.5,0.1c4.2,0.3,7.5,3.8,7.5,8c0,4.4-3.6,8-8,8c-0.1,0-0.1,0-0.1,0
		l-2,0h-2.9v2h4.9v0c0,0,0.1,0,0.1,0c5.5,0,10-4.5,10-10C157.7-164.2,153.5-168.5,148.3-168.8z"/>
	<circle cx="122.7" cy="-141.4" r="1.5"/>
	<circle cx="130.7" cy="-135.4" r="1.5"/>
	<circle cx="138.7" cy="-139.4" r="1.5"/>
	<rect x="121.7" y="-157.9" width="2" height="12"/>
	<polygon points="131.7,-139.9 131.7,-141.9 131.7,-153.9 129.7,-153.9 129.7,-141.9 129.7,-139.9 129.7,-139.9 131.7,-139.9 	"/>
	<polygon points="139.7,-144.1 139.7,-145.9 139.7,-157.9 137.7,-157.9 137.7,-145.9 137.7,-144.1 137.7,-143.9 139.7,-143.9 	"/>
</g>
<g>
	<rect x="-600.1" y="-97.2" width="2" height="8"/>
	<rect x="-619.1" y="-78.3" width="8" height="2"/>
	<rect x="-611.4" y="-92.6" transform="matrix(0.7071 -0.7071 0.7071 0.7071 -116.1458 -457.5607)" width="2" height="8"/>
	<rect x="-591.9" y="-89.6" transform="matrix(0.7071 -0.7071 0.7071 0.7071 -109.5521 -441.635)" width="8" height="2"/>
	<path d="M-569.5-71.4c-1.4-6.7-7.4-11.8-14.6-11.8c-2.2,0-4.3,0.5-6.1,1.3c-1.7-3.2-5-5.4-8.9-5.4c-5.5,0-10,4.5-10,10
		c0,2.5,0.9,4.7,2.4,6.4c-1.4,1.8-2.3,4.1-2.3,6.7c0,6,4.8,10.8,10.8,10.9v0h1.2v-2h-0.7l-0.5,0c-4.9,0-8.8-4-8.8-8.9
		c0-4.9,4-8.9,8.9-8.9c0.2,0,0.3,0,0.4,0l0.1,0l1.3,0.1l0.6-1.2c2.2-4.4,6.6-7.1,11.5-7.1c6.1,0,11.4,4.3,12.6,10.2l0.3,1.5l1.5,0.1
		c3.7,0.2,6.6,3.3,6.6,7c0,3.9-3.1,7-7,7.1c0,0-0.1,0-0.1,0l-2,0h-0.8v2h2.8v0c0,0,0.1,0,0.1,0c5,0,9.1-4.1,9.1-9.1
		C-561.1-67.2-564.8-71.1-569.5-71.4z M-597.5-75.1c-0.2,0-0.5,0-0.7,0c-2.8,0-5.3,1-7.2,2.7c-1.1-1.4-1.8-3.1-1.8-5
		c0-4.4,3.6-8,8-8c3.1,0,5.8,1.8,7.1,4.3C-594.4-79.5-596.2-77.5-597.5-75.1z"/>
	<circle cx="-593.1" cy="-44.9" r="1.5"/>
	<circle cx="-585.1" cy="-38.9" r="1.5"/>
	<circle cx="-577.1" cy="-42.9" r="1.5"/>
	<rect x="-594.1" y="-61.3" width="2" height="12"/>
	<polygon points="-584.1,-43.4 -584.1,-45.3 -584.1,-57.3 -586.1,-57.3 -586.1,-45.3 -586.1,-43.4 -586.1,-43.4 -584.1,-43.4 	"/>
	<polygon points="-576.1,-47.6 -576.1,-49.3 -576.1,-61.3 -578.1,-61.3 -578.1,-49.3 -578.1,-47.6 -578.1,-47.4 -576.1,-47.4 	"/>
</g>
<g>
	<path d="M-468.9-74.4c-1.4-6.7-7.4-11.8-14.6-11.8c-1.8,0-3.5,0.3-5.1,0.9c-0.9-5.1-5.4-9-10.8-9c-0.4,0-0.8,0-1.2,0.1
		c0.7,1.1,1.2,2.4,1.2,3.9c0,3.9-3.1,7-7,7c-1.4,0-2.8-0.4-3.9-1.2c0,0.4-0.1,0.8-0.1,1.2c0,3.7,1.8,7,4.7,9
		c-1.7,1.9-2.7,4.4-2.7,7.1c0,6,4.8,10.8,10.8,10.9v0h1.2v-2h-0.7l-0.5,0c-4.9,0-8.8-4-8.8-8.9c0-4.9,4-8.9,8.9-8.9
		c0.1,0,0.3,0,0.4,0l0.1,0l1.3,0.1l0.6-1.2c2.2-4.4,6.6-7.1,11.5-7.1c6.1,0,11.4,4.3,12.6,10.2l0.3,1.5l1.5,0.1
		c3.7,0.2,6.6,3.3,6.6,7c0,3.9-3.1,7-7,7.1c0,0-0.1,0-0.1,0l-2,0h-0.8v2h2.8v0c0,0,0.1,0,0.1,0c5,0,9.1-4.1,9.1-9.1
		C-460.5-70.2-464.2-74.1-468.9-74.4z M-496.9-78.1c-0.2,0-0.5,0-0.7,0c-2.5,0-4.9,0.9-6.7,2.3c-2-1.3-3.5-3.4-4-5.8
		c0.6,0.1,1.2,0.2,1.8,0.2c5,0,9-4,9-9c0-0.6-0.1-1.2-0.2-1.8c3.7,0.8,6.6,3.8,7.1,7.6C-493.3-83.1-495.5-80.8-496.9-78.1z"/>
	<circle cx="-492.5" cy="-47.9" r="1.5"/>
	<circle cx="-484.5" cy="-41.9" r="1.5"/>
	<circle cx="-476.5" cy="-45.9" r="1.5"/>
	<rect x="-493.5" y="-64.3" width="2" height="12"/>
	<polygon points="-483.5,-46.4 -483.5,-48.3 -483.5,-60.3 -485.5,-60.3 -485.5,-48.3 -485.5,-46.4 -485.5,-46.4 -483.5,-46.4 	"/>
	<polygon points="-475.5,-50.6 -475.5,-52.3 -475.5,-64.3 -477.5,-64.3 -477.5,-52.3 -477.5,-50.6 -477.5,-50.4 -475.5,-50.4 	"/>
</g>
<g>
	<rect x="-617.1" y="30" width="56" height="2"/>
	<rect x="-613.1" y="36" width="50" height="2"/>
	<rect x="-607.1" y="42" width="36" height="2"/>
	<rect x="-615.1" y="24" width="52" height="2"/>
	<path d="M-603.2,16c0.2,0,0.3,0,0.5,0l0.1,0l1.3,0.1l0.6-1.2c2.5-4.9,7.4-7.9,12.9-7.9c6.8,0,12.8,4.8,14.2,11.4l0.3,1.5l1.5,0.1
		c1.2,0.1,2.3,0.4,3.3,1h3.3c-1.7-1.7-4-2.8-6.5-3c-1.6-7.4-8.2-13-16.1-13c-6.4,0-12,3.7-14.7,9c-0.3,0-0.5,0-0.8,0
		c-4.8,0-9,2.9-10.9,7h2.3C-610.1,18-606.9,16-603.2,16z"/>
</g>
<g>
	<rect x="-496" y="2.5" width="2" height="8"/>
	<rect x="-515" y="21.4" width="8" height="2"/>
	<rect x="-507.3" y="7.1" transform="matrix(0.7071 -0.7071 0.7071 0.7071 -156.165 -354.7433)" width="2" height="8"/>
	<rect x="-487.8" y="10.1" transform="matrix(0.7071 -0.7071 0.7071 0.7071 -149.5715 -338.8169)" width="8" height="2"/>
	<rect x="-506" y="36.4" width="50" height="2"/>
	<rect x="-502" y="42.4" width="44" height="2"/>
	<rect x="-496" y="47.4" width="30" height="2"/>
	<rect x="-504" y="30.4" width="46" height="2"/>
	<path d="M-503.1,28.4h0.8h1.9h1c1.5-1.1,3.3-1.7,5.2-1.7c0.1,0,0.3,0,0.4,0l0.1,0l1.3,0.1l0.6-1.2c2.2-4.4,6.6-7.1,11.5-7.1
		c5.9,0,11.2,4.1,12.6,9.9h2v-0.1c-1.4-6.7-7.4-11.8-14.6-11.8c-2.2,0-4.3,0.5-6.1,1.3c-1.7-3.2-5-5.4-8.9-5.4c-5.5,0-10,4.5-10,10
		C-505,24.6-504.3,26.7-503.1,28.4z M-495,14.4c3.1,0,5.8,1.8,7.1,4.3c-2.3,1.4-4.2,3.5-5.4,5.9c-0.2,0-0.5,0-0.7,0
		c-2.8,0-5.3,1-7.2,2.7c-1.1-1.4-1.8-3.1-1.8-5C-503,18-499.5,14.4-495,14.4z"/>
</g>
<g>
	<rect x="-407.2" y="32.9" width="50" height="2"/>
	<rect x="-403.2" y="38.9" width="44" height="2"/>
	<rect x="-397.2" y="43.9" width="30" height="2"/>
	<rect x="-405.2" y="26.9" width="46" height="2"/>
	<path d="M-403.6,24.9L-403.6,24.9h1.9h1.1c1.5-1.1,3.3-1.7,5.2-1.7c0.1,0,0.3,0,0.4,0l0.1,0l1.3,0.1l0.6-1.2
		c2.2-4.4,6.6-7.1,11.5-7.1c5.9,0,11.2,4.1,12.6,9.9h2v-0.1c-1.4-6.7-7.4-11.8-14.6-11.8c-1.8,0-3.5,0.3-5.1,0.9
		c-0.9-5.1-5.4-9-10.8-9c-0.4,0-0.8,0-1.2,0.1c0.7,1.1,1.2,2.4,1.2,3.9c0,3.9-3.1,7-7,7c-1.4,0-2.8-0.4-3.9-1.2
		c0,0.4-0.1,0.8-0.1,1.2C-408.2,19.7-406.4,22.9-403.6,24.9z M-404.3,17.9c5,0,9-4,9-9c0-0.6-0.1-1.2-0.2-1.8
		c3.7,0.8,6.6,3.8,7.1,7.6c-2.7,1.4-4.9,3.7-6.3,6.4c-0.2,0-0.5,0-0.7,0c-2.5,0-4.9,0.9-6.7,2.3c-2-1.3-3.5-3.4-4-5.8
		C-405.5,17.9-404.9,17.9-404.3,17.9z"/>
</g>
<g>
	<path d="M-275.3,35.9h-19.5l-0.6,0c-5.5,0-9.9-4.5-9.9-10c0-5.5,4.5-10,10-10c0.2,0,0.3,0,0.5,0l0.1,0l1.3,0.1l0.6-1.2
		c2.5-4.9,7.4-7.9,12.9-7.9c6.8,0,12.8,4.8,14.2,11.4l0.3,1.5l1.5,0.1c1.8,0.1,3.5,0.8,4.7,2h2.7c-1.7-2.3-4.3-3.8-7.4-4
		c-1.6-7.4-8.2-13-16.1-13c-6.4,0-12,3.7-14.7,9c-0.3,0-0.5,0-0.8,0c-6.6,0-12,5.4-12,12c0,6.6,5.3,12,11.9,12v0h20.1
		c2.2,0,4,1.8,4,4s-1.8,4-4,4v2c3.3,0,6-2.7,6-6S-272,35.9-275.3,35.9z"/>
	<path d="M-271.3,31.9h-16v2h16c3.3,0,6-2.7,6-6c0-3.3-2.7-6-6-6v2c2.2,0,4,1.8,4,4S-269.1,31.9-271.3,31.9z"/>
	<path d="M-258.3,25.9c1.7,0,3,1.3,3,3s-1.3,3-3,3c0,0-0.1,0-0.1,0h-4.9c0,0,0,0,0,0h0v2h5.5v-0.1c2.5-0.3,4.5-2.4,4.5-4.9
		c0-2.8-2.2-5-5-5L-258.3,25.9L-258.3,25.9z"/>
	<path d="M-254.3,35.9h-13v2h9c0,0,0,0,0,0h3.9c0,0,0.1,0,0.1,0c1.7,0,3,1.3,3,3s-1.3,3-3,3v2c2.8,0,5-2.2,5-5
		S-251.6,35.9-254.3,35.9z"/>
	<rect x="-293.3" y="31.9" width="4" height="2"/>
</g>
<path d="M-482.9-363.2c7,1.3,12.2,7.4,12.2,14.7c0,8.3-6.7,15-15,15c-6.8,0-12.5-4.5-14.4-10.7c1.4,0.5,2.9,0.7,4.4,0.7
	c7.7,0,14-6.3,14-14C-481.7-359.4-482.1-361.4-482.9-363.2 M-485.7-365.4c-0.3,0-0.7,0-1,0.1c1.9,2.1,3,4.9,3,7.9
	c0,6.6-5.4,12-12,12c-2.6,0-5-0.8-7-2.2c0.4,9,7.8,16.3,17,16.3c9.4,0,17-7.6,17-17S-476.3-365.4-485.7-365.4L-485.7-365.4z"/>
<g>
	<path d="M-589.1-360.4c-7.2,0-13,5.8-13,13c0,7.2,5.8,13,13,13s13-5.8,13-13C-576.1-354.6-581.9-360.4-589.1-360.4z M-589.1-336.4
		c-6.1,0-11-4.9-11-11c0-6.1,4.9-11,11-11s11,4.9,11,11C-578.1-341.4-583-336.4-589.1-336.4z"/>
	<rect x="-590.1" y="-373.4" width="2" height="10"/>
	<rect x="-590.1" y="-331.4" width="2" height="10"/>
	<rect x="-615.1" y="-348.4" width="10" height="2"/>
	<rect x="-573.1" y="-348.4" width="10" height="2"/>
	<rect x="-579.6" y="-363.1" transform="matrix(0.7071 -0.7071 0.7071 0.7071 87.8364 -512.1987)" width="10.4" height="2"/>
	<rect x="-609" y="-333.7" transform="matrix(0.7071 -0.7071 0.7071 0.7071 58.4354 -524.3863)" width="10.4" height="2"/>
	<rect x="-604.8" y="-367.3" transform="matrix(0.7071 -0.7071 0.7071 0.7071 79.2201 -532.9894)" width="2" height="10.4"/>
	<rect x="-575.3" y="-337.9" transform="matrix(0.7071 -0.7072 0.7072 0.7071 67.0076 -503.6081)" width="2" height="10.4"/>
</g>
<g>
	<rect x="-190.9" y="-2.6" width="2" height="8"/>
	<rect x="-209.9" y="16.4" width="8" height="2"/>
	<rect x="-202.1" y="2.2" transform="matrix(0.7071 -0.7071 0.7071 0.7071 -63.303 -140.415)" width="2" height="8"/>
	<rect x="-182.6" y="5.2" transform="matrix(0.7071 -0.7071 0.7071 0.7071 -56.7095 -124.4886)" width="8" height="2"/>
	<path d="M-175.9,39.4L-175.9,39.4l-12.5,0l-0.6,0c-4.9,0-8.8-4-8.8-8.9c0-4.9,4-8.9,8.9-8.9c0.1,0,0.3,0,0.4,0l0.1,0l1.3,0.1
		l0.6-1.2c2.2-4.4,6.6-7.1,11.5-7.1c5.9,0,11.1,4.1,12.5,9.8h2.1c-1.4-6.7-7.4-11.8-14.6-11.8c-2.2,0-4.3,0.5-6.1,1.3
		c-1.7-3.2-5-5.4-8.9-5.4c-5.5,0-10,4.5-10,10c0,2.5,0.9,4.7,2.4,6.4c-1.4,1.8-2.3,4.1-2.3,6.7c0,6,4.8,10.8,10.8,10.9v0h13.1v0
		c2.2,0,4,1.8,4,4s-1.8,4-4,4v2c3.3,0,6-2.7,6-6C-169.9,42.1-172.5,39.4-175.9,39.4z M-189.9,9.5c3.1,0,5.8,1.8,7.1,4.3
		c-2.3,1.4-4.2,3.5-5.4,5.9c-0.2,0-0.5,0-0.7,0c-2.8,0-5.3,1-7.2,2.7c-1.1-1.4-1.8-3.1-1.8-5C-197.9,13.1-194.3,9.5-189.9,9.5z"/>
	<path d="M-171.9,35.4h-10v2h10c3.3,0,6-2.7,6-6c0-3.3-2.7-6-6-6v2c2.2,0,4,1.8,4,4S-169.7,35.4-171.9,35.4z"/>
	<path d="M-163.8,35.4L-163.8,35.4l0,2h5.5v-0.1c2.5-0.3,4.5-2.4,4.5-4.9c0-2.8-2.2-5-5-5v2c1.7,0,3,1.3,3,3s-1.3,3-3,3
		c0,0-0.1,0-0.1,0L-163.8,35.4C-163.8,35.4-163.8,35.4-163.8,35.4z"/>
	<path d="M-154.9,39.4h-13v2h9c0,0,0,0,0,0h3.9c0,0,0.1,0,0.1,0c1.7,0,3,1.3,3,3s-1.3,3-3,3v2c2.8,0,5-2.2,5-5
		S-152.1,39.4-154.9,39.4z"/>
	<rect x="-187.9" y="35.4" width="4" height="2"/>
</g>
<g>
	<path d="M-75.9,37.4L-75.9,37.4l-12.5,0l-0.6,0c-4.9,0-8.8-4-8.8-8.9c0-4.9,4-8.9,8.9-8.9c0.2,0,0.3,0,0.4,0l0.1,0l1.3,0.1l0.6-1.2
		c2.2-4.4,6.6-7.1,11.5-7.1c5.9,0,11.1,4.1,12.5,9.8h2.1c-1.4-6.7-7.4-11.8-14.6-11.8c-1.8,0-3.5,0.3-5.1,0.9c-0.9-5.1-5.4-9-10.8-9
		c-0.4,0-0.8,0-1.2,0.1c0.7,1.1,1.2,2.4,1.2,3.9c0,3.9-3.1,7-7,7c-1.4,0-2.8-0.4-3.9-1.2c0,0.4-0.1,0.8-0.1,1.2c0,3.7,1.9,7,4.7,9
		c-1.7,1.9-2.7,4.4-2.7,7.1c0,6,4.8,10.8,10.8,10.9v0h13.1v0c2.2,0,4,1.8,4,4s-1.8,4-4,4v2c3.3,0,6-2.7,6-6
		C-69.9,40.1-72.6,37.4-75.9,37.4z M-99.7,14.2c0.6,0.1,1.2,0.2,1.8,0.2c5,0,9-4,9-9c0-0.6-0.1-1.2-0.2-1.8c3.7,0.8,6.6,3.8,7.1,7.7
		c-2.7,1.4-4.9,3.7-6.3,6.4c-0.2,0-0.5,0-0.7,0c-2.5,0-4.9,0.9-6.7,2.3C-97.7,18.7-99.2,16.7-99.7,14.2z"/>
	<path d="M-71.9,33.4h-10v2h10c3.3,0,6-2.7,6-6c0-3.3-2.7-6-6-6v2c2.2,0,4,1.8,4,4S-69.7,33.4-71.9,33.4z"/>
	<path d="M-63.9,33.4L-63.9,33.4l0,2h5.5v-0.1c2.5-0.3,4.5-2.4,4.5-4.9c0-2.8-2.2-5-5-5v2c1.7,0,3,1.3,3,3c0,1.7-1.3,3-3,3
		c0,0-0.1,0-0.1,0L-63.9,33.4C-63.9,33.4-63.9,33.4-63.9,33.4z"/>
	<path d="M-54.9,37.4h-13v2h9c0,0,0,0,0,0h3.9c0,0,0.1,0,0.1,0c1.7,0,3,1.3,3,3s-1.3,3-3,3v2c2.8,0,5-2.2,5-5S-52.1,37.4-54.9,37.4z
		"/>
	<rect x="-87.9" y="33.4" width="4" height="2"/>
</g>
<g>
	<rect x="25" class="st0" width="2" height="10"/>
	<rect y="25" class="st0" width="10" height="2"/>
	<rect x="35.5" y="10.3" transform="matrix(0.7071 -0.7071 0.7071 0.7071 3.9352 32.081)" class="st0" width="10.4" height="2"/>
	<rect x="10.3" y="6.1" transform="matrix(0.7071 -0.7071 0.7071 0.7071 -4.681 11.2903)" class="st0" width="2" height="10.4"/>
	<path class="st0" d="M30,40H6v2h24c2.2,0,4,1.8,4,4s-1.8,4-4,4v2c3.3,0,6-2.7,6-6C36,42.7,33.3,40,30,40z"/>
	<path class="st0" d="M42,36L42,36l0,2h5.5v-0.1C50,37.7,52,35.6,52,33c0-2.8-2.2-5-5-5v2c1.7,0,3,1.3,3,3s-1.3,3-3,3
		c0,0-0.1,0-0.1,0L42,36C42,36,42,36,42,36z"/>
	<path class="st0" d="M51,40H38v2h9c0,0,0,0,0,0h3.9c0,0,0.1,0,0.1,0c1.7,0,3,1.3,3,3s-1.3,3-3,3v2c2.8,0,5-2.2,5-5S53.8,40,51,40z"
		/>
	<path class="st0" d="M17.7,36H6v2h12h0.8H34c3.3,0,6-2.7,6-6c0-3.3-2.7-6-6-6v2c2.2,0,4,1.8,4,4s-1.8,4-4,4H21.5
		c-3.8-1.7-6.5-5.6-6.5-10c0-6.1,4.9-11,11-11c5.4,0,9.9,3.9,10.8,9h2c-1-6.2-6.3-11-12.8-11c-7.2,0-13,5.8-13,13
		C13,30,14.8,33.6,17.7,36z"/>
</g>
<g>
	<path d="M130.2,33.4h-24v2h24c2.2,0,4,1.8,4,4s-1.8,4-4,4v2c3.3,0,6-2.7,6-6C136.2,36.1,133.5,33.4,130.2,33.4z"/>
	<path d="M147.7,31.4L147.7,31.4c2.5-0.3,4.5-2.4,4.5-5c0-2.8-2.2-5-5-5v2c1.7,0,3,1.3,3,3s-1.3,3-3,3c0,0-0.1,0-0.1,0h-4.9
		c0,0,0,0,0,0h0v2H147.7z"/>
	<path d="M151.2,33.4h-13v2h9c0,0,0,0,0,0h3.9c0,0,0.1,0,0.1,0c1.7,0,3,1.3,3,3s-1.3,3-3,3v2c2.8,0,5-2.2,5-5S154,33.4,151.2,33.4z"
		/>
	<path d="M119.1,31.4h15.2c3.3,0,6-2.7,6-6c0-3.3-2.7-6-6-6v2c2.2,0,4,1.8,4,4s-1.8,4-4,4h-12.6c-2.6-1.2-4.7-3.3-5.7-6
		c0.8,0.2,1.7,0.3,2.6,0.3c6.2,0,11.2-5,11.2-11.2c0-1.3-0.2-2.5-0.6-3.7c4,1.1,7.2,4.5,7.9,8.6h2c-1-6.2-6.3-11-12.8-11
		c-0.3,0-0.5,0-0.8,0c1.4,1.6,2.3,3.7,2.3,6.1c0,5.1-4.1,9.2-9.2,9.2c-2,0-3.8-0.6-5.3-1.7c0.2,3.8,2,7.2,4.7,9.4h-11.7v2h12
		L119.1,31.4L119.1,31.4z"/>
</g>
<g>
	<path d="M-589.6,118.6h-20c-1.1,0-2-0.9-2-2s0.9-2,2-2h3.4h0.6v-2h-4c-2.2,0-4,1.8-4,4s1.8,4,4,4h20c2.2,0,4,1.8,4,4s-1.8,4-4,4v2
		c3.3,0,6-2.7,6-6C-583.6,121.3-586.2,118.6-589.6,118.6z"/>
	<path d="M-587.6,102.6v2c2.2,0,4,1.8,4,4s-1.8,4-4,4h-16v2h16c3.3,0,6-2.7,6-6C-581.6,105.3-584.2,102.6-587.6,102.6z"/>
	<path d="M-581.6,114.6v2h5.5v-0.1c2.5-0.3,4.5-2.4,4.5-4.9c0-2.8-2.2-5-5-5v2c1.7,0,3,1.3,3,3s-1.3,3-3,3c0,0-0.1,0-0.1,0
		L-581.6,114.6C-581.5,114.6-581.5,114.6-581.6,114.6L-581.6,114.6z"/>
	<path d="M-570.6,118.6h-11v2h7c0,0,0,0,0,0h3.9c0,0,0.1,0,0.1,0c1.7,0,3,1.3,3,3s-1.3,3-3,3v2c2.8,0,5-2.2,5-5
		S-567.8,118.6-570.6,118.6z"/>
</g>
<path d="M-53.3,105L-53.3,105l-38.4,0c-1.1,0-2-0.9-2-2s0.9-2,2-2h33c2.8,0,5-2.2,5-5s-2.2-5-5-5h-37.9v0c0,0-0.1,0-0.1,0
	c-2.8,0-5,2.2-5,5s2.2,5,5,5v-2c-1.7,0-3-1.3-3-3s1.3-3,3-3h0.1h3.9h34c1.7,0,3,1.3,3,3s-1.3,3-3,3h-33c-2.2,0-4,1.8-4,4s1.8,4,4,4
	h38c1.1,0,2,0.9,2,2s-0.9,2-2,2h-32c-2.2,0-4,1.8-4,4s1.8,4,4,4h22c1.1,0,2,0.9,2,2s-0.9,2-2,2h-24v0c-2.2,0-4,1.8-4,4s1.8,4,4,4v0
	h12c1.1,0,2,0.9,2,2s-0.9,2-2,2h-2c-2.2,0-4,1.8-4,4s1.8,4,4,4v-2c-1.1,0-2-0.9-2-2s0.9-2,2-2h2c2.2,0,4-1.8,4-4s-1.8-4-4-4h-12
	c-1.1,0-2-0.9-2-2s0.9-2,2-2h24c2.2,0,4-1.8,4-4c0-2.2-1.7-3.9-3.8-4v0h-22.2c-1.1,0-2-0.9-2-2s0.9-2,2-2h32c2.2,0,4-1.8,4-4
	C-49.6,106.9-51.2,105.2-53.3,105z"/>
<path d="M132.1,95.7v-2h-2v2c-13,0.5-23.5,11-24,24h1.7c1.1-1.2,2.7-2,4.6-2c2.3,0,4.2,1.2,5.3,3h1.8c1.1-1.8,3.1-3,5.3-3
	c2.2,0,4.1,1.1,5.2,2.9v15.1c0,2.2,1.8,4,4,4s4-1.8,4-4h-2c0,1.1-0.9,2-2,2s-2-0.9-2-2v-15.1c1.1-1.7,3-2.9,5.2-2.9
	c2.3,0,4.2,1.2,5.3,3h1.8c1.1-1.8,3.1-3,5.3-3c1.8,0,3.4,0.8,4.6,2h1.7C155.6,106.6,145.2,96.2,132.1,95.7z M149.9,115.6
	c-2.5,0-4.7,1.1-6.2,2.9c-1.5-1.8-3.8-2.9-6.2-2.9s-4.7,1.1-6.2,2.9c-1.5-1.8-3.8-2.9-6.2-2.9s-4.7,1.1-6.2,2.9
	c-1.5-1.8-3.8-2.9-6.2-2.9c-1.4,0-2.7,0.4-3.9,1c1.9-10.8,11.3-19,22.6-19s20.7,8.2,22.6,19C152.6,116,151.3,115.6,149.9,115.6z"/>
<g>
	<path d="M-273.1,219.9v-17.1c0-2.8-2.2-5-5-5s-5,2.2-5,5v17.1c-1.2,1.3-2,3-2,4.9c0,3.9,3.1,7,7,7s7-3.1,7-7
		C-271.1,222.9-271.9,221.2-273.1,219.9z M-278.1,229.8c-2.8,0-5-2.2-5-5c0-1.3,0.5-2.6,1.4-3.5l0.6-0.6V220v-17.1c0-1.7,1.3-3,3-3
		s3,1.3,3,3V220v0.8l0.6,0.6c0.9,0.9,1.4,2.2,1.4,3.5C-273.1,227.6-275.4,229.8-278.1,229.8z"/>
	<path d="M-277.1,222v-15.2h-2V222c-1.2,0.4-2,1.5-2,2.8c0,1.7,1.3,3,3,3c1.7,0,3-1.3,3-3C-275.1,223.5-276,222.4-277.1,222z
		 M-278.1,225.9c-0.6,0-1-0.5-1-1s0.5-1,1-1s1,0.5,1,1S-277.6,225.9-278.1,225.9z"/>
</g>
<g>
	<path d="M-173.4,219.9v-17.1c0-2.8-2.2-5-5-5s-5,2.2-5,5v17.1c-1.2,1.3-2,3-2,4.9c0,3.9,3.1,7,7,7s7-3.1,7-7
		C-171.4,222.9-172.1,221.2-173.4,219.9z M-178.4,229.8c-2.8,0-5-2.2-5-5c0-1.3,0.5-2.6,1.4-3.5l0.6-0.6V220v-17.1c0-1.7,1.3-3,3-3
		s3,1.3,3,3V220v0.8l0.6,0.6c0.9,0.9,1.4,2.2,1.4,3.5C-173.4,227.6-175.6,229.8-178.4,229.8z"/>
	<path d="M-177.4,222v-20.2h-2V222c-1.2,0.4-2,1.5-2,2.8c0,1.7,1.3,3,3,3c1.7,0,3-1.3,3-3C-175.4,223.5-176.2,222.4-177.4,222z
		 M-178.4,225.9c-0.6,0-1-0.5-1-1s0.5-1,1-1s1,0.5,1,1S-177.8,225.9-178.4,225.9z"/>
</g>
<g>
	<path d="M-376.3,219.9v-17.1c0-2.8-2.2-5-5-5s-5,2.2-5,5v17.1c-1.2,1.3-2,3-2,4.9c0,3.9,3.1,7,7,7s7-3.1,7-7
		C-374.3,222.9-375,221.2-376.3,219.9z M-381.3,229.8c-2.8,0-5-2.2-5-5c0-1.3,0.5-2.6,1.4-3.5l0.6-0.6V220v-17.1c0-1.7,1.3-3,3-3
		s3,1.3,3,3V220v0.8l0.6,0.6c0.9,0.9,1.4,2.2,1.4,3.5C-376.3,227.6-378.5,229.8-381.3,229.8z"/>
	<path d="M-380.3,222v-10.2h-2V222c-1.2,0.4-2,1.5-2,2.8c0,1.7,1.3,3,3,3c1.7,0,3-1.3,3-3C-378.3,223.5-379.1,222.4-380.3,222z
		 M-381.3,225.9c-0.6,0-1-0.5-1-1s0.5-1,1-1s1,0.5,1,1S-380.7,225.9-381.3,225.9z"/>
</g>
<g>
	<path d="M-479.9,219.9v-17.1c0-2.8-2.2-5-5-5s-5,2.2-5,5v17.1c-1.2,1.3-2,3-2,4.9c0,3.9,3.1,7,7,7s7-3.1,7-7
		C-477.9,222.9-478.7,221.2-479.9,219.9z M-484.9,229.8c-2.8,0-5-2.2-5-5c0-1.3,0.5-2.6,1.4-3.5l0.6-0.6V220v-17.1c0-1.7,1.3-3,3-3
		s3,1.3,3,3V220v0.8l0.6,0.6c0.9,0.9,1.4,2.2,1.4,3.5C-479.9,227.6-482.1,229.8-484.9,229.8z"/>
	<path d="M-483.9,222v-5.2h-2v5.2c-1.2,0.4-2,1.5-2,2.8c0,1.7,1.3,3,3,3c1.7,0,3-1.3,3-3C-481.9,223.5-482.7,222.4-483.9,222z
		 M-484.9,225.9c-0.6,0-1-0.5-1-1s0.5-1,1-1s1,0.5,1,1S-484.3,225.9-484.9,225.9z"/>
</g>
<g>
	<path d="M-584.6,219.9v-17.1c0-2.8-2.2-5-5-5s-5,2.2-5,5v17.1c-1.2,1.3-2,3-2,4.9c0,3.9,3.1,7,7,7s7-3.1,7-7
		C-582.6,222.9-583.3,221.2-584.6,219.9z M-589.6,229.8c-2.8,0-5-2.2-5-5c0-1.3,0.5-2.6,1.4-3.5l0.6-0.6V220v-17.1c0-1.7,1.3-3,3-3
		s3,1.3,3,3V220v0.8l0.6,0.6c0.9,0.9,1.4,2.2,1.4,3.5C-584.6,227.6-586.8,229.8-589.6,229.8z"/>
	<path d="M-589.6,221.8c-1.7,0-3,1.3-3,3c0,1.7,1.3,3,3,3c1.7,0,3-1.3,3-3C-586.6,223.2-587.9,221.8-589.6,221.8z M-589.6,225.9
		c-0.6,0-1-0.5-1-1s0.5-1,1-1s1,0.5,1,1S-589,225.9-589.6,225.9z"/>
</g>
<g>
	<path d="M-84.6,200.2c-2.2,0-4,1.8-4,4c0,2.2,1.8,4,4,4c2.2,0,4-1.8,4-4C-80.6,201.9-82.4,200.2-84.6,200.2z M-84.6,206.2
		c-1.1,0-2-0.9-2-2s0.9-2,2-2s2,0.9,2,2S-83.5,206.2-84.6,206.2z"/>
	<path d="M-70.6,228.2c-4.4,0-8-3.6-8-8v-4c0-4.4,3.6-8,8-8c2.7,0,5.1,1.4,6.6,3.4l1.4-1.4c-1.8-2.4-4.7-4-8-4c-5.5,0-10,4.5-10,10
		v4c0,5.5,4.5,10,10,10c3.3,0,6.2-1.6,8-4l-1.4-1.4C-65.5,226.8-67.9,228.2-70.6,228.2z"/>
</g>
<g>
	<path d="M20.1,200c-2.2,0-4,1.8-4,4c0,2.2,1.8,4,4,4c2.2,0,4-1.8,4-4C24.1,201.8,22.3,200,20.1,200z M20.1,206c-1.1,0-2-0.9-2-2
		s0.9-2,2-2s2,0.9,2,2S21.2,206,20.1,206z"/>
	<polygon points="39.9,208.2 39.9,206.2 27.9,206.2 25.9,206.2 25.9,230.2 27.9,230.2 27.9,218.2 35.9,218.2 35.9,216.2 27.9,216.2 
		27.9,208.2 	"/>
</g>
<g>
	<path d="M131.1,203.8c-7.2,0-13,5.8-13,13s5.8,13,13,13s13-5.8,13-13S138.3,203.8,131.1,203.8z M131.1,227.8c-6.1,0-11-4.9-11-11
		s4.9-11,11-11s11,4.9,11,11S137.2,227.8,131.1,227.8z"/>
	<path d="M126.9,221.1l6.4-2.1l2.1-6.4l-6.4,2.1L126.9,221.1z M130.6,216.3l1.6-0.5l-0.5,1.6l-1.6,0.5L130.6,216.3z"/>
</g>
<g>
	<path d="M-589.6,294.4c-7.2,0-13,5.8-13,13s5.8,13,13,13s13-5.8,13-13S-582.4,294.4-589.6,294.4z M-589.6,318.4
		c-6.1,0-11-4.9-11-11c0-6.1,4.9-11,11-11s11,4.9,11,11C-578.6,313.4-583.5,318.4-589.6,318.4z"/>
	<path d="M-587,305.8l-2.6-4.4l-2.5,4.3h0c-0.3,0.5-0.5,1-0.5,1.6c0,1.7,1.3,3,3,3s3-1.3,3-3C-586.6,306.7-586.7,306.2-587,305.8
		L-587,305.8z M-589.6,308.3c-0.6,0-1-0.4-1-1c0-0.2,0.1-0.4,0.2-0.5l0.9-1.4l0.8,1.4c0.1,0.2,0.1,0.3,0.1,0.5
		C-588.6,307.9-589,308.3-589.6,308.3z"/>
</g>
<g>
	<path d="M-484.8,294.4c-7.2,0-13,5.8-13,13s5.8,13,13,13s13-5.8,13-13S-477.6,294.4-484.8,294.4z M-484.8,318.4
		c-6.1,0-11-4.9-11-11c0-6.1,4.9-11,11-11s11,4.9,11,11C-473.8,313.4-478.7,318.4-484.8,318.4z"/>
	<path d="M-483.2,304.8c-0.5-0.3-1-0.5-1.6-0.5c-1.7,0-3,1.3-3,3c0,1.7,1.3,3,3,3c0.6,0,1.1-0.2,1.5-0.4v0l4.4-2.6L-483.2,304.8
		L-483.2,304.8L-483.2,304.8z M-484.3,308.2c-0.2,0.1-0.3,0.1-0.5,0.1c-0.6,0-1-0.4-1-1c0-0.6,0.4-1,1-1c0.2,0,0.4,0.1,0.5,0.2
		l1.4,0.9L-484.3,308.2z"/>
</g>
<g>
	<path d="M-381.7,294.4c-7.2,0-13,5.8-13,13s5.8,13,13,13s13-5.8,13-13S-374.5,294.4-381.7,294.4z M-381.7,318.4
		c-6.1,0-11-4.9-11-11c0-6.1,4.9-11,11-11s11,4.9,11,11C-370.7,313.4-375.7,318.4-381.7,318.4z"/>
	<path d="M-381.7,304.3c-1.7,0-3,1.3-3,3c0,0.6,0.2,1.1,0.4,1.5h0l2.6,4.4l2.5-4.3h0c0.3-0.5,0.5-1,0.5-1.6
		C-378.7,305.6-380.1,304.3-381.7,304.3z M-380.9,307.8l-0.9,1.4l-0.8-1.4c-0.1-0.2-0.1-0.3-0.1-0.5c0-0.6,0.4-1,1-1s1,0.4,1,1
		C-380.7,307.5-380.8,307.7-380.9,307.8z"/>
</g>
<g>
	<path d="M-278.3,294.4c-7.2,0-13,5.8-13,13s5.8,13,13,13s13-5.8,13-13S-271.1,294.4-278.3,294.4z M-278.3,318.4
		c-6.1,0-11-4.9-11-11c0-6.1,4.9-11,11-11s11,4.9,11,11C-267.3,313.4-272.2,318.4-278.3,318.4z"/>
	<path d="M-278.4,304.3c-0.6,0-1.1,0.2-1.5,0.4v0l-4.4,2.6l4.3,2.5v0c0.5,0.3,1,0.5,1.6,0.5c1.7,0,3-1.3,3-3
		C-275.4,305.7-276.7,304.3-278.4,304.3z M-278.4,308.3c-0.2,0-0.4-0.1-0.5-0.2l-1.4-0.9l1.4-0.8c0.2-0.1,0.3-0.1,0.5-0.1
		c0.6,0,1,0.4,1,1C-277.4,307.9-277.8,308.3-278.4,308.3z"/>
</g>
<g>
	<rect x="-486.5" y="97.6" width="2" height="10"/>
	<rect x="-476" y="107.9" transform="matrix(0.7071 -0.7071 0.7071 0.7071 -214.9076 -300.9729)" width="10.4" height="2"/>
	<rect x="-501.2" y="103.7" transform="matrix(0.7071 -0.7071 0.7071 0.7071 -223.5232 -321.7633)" width="2" height="10.4"/>
	<polygon points="-492.1,126.9 -490.7,128.3 -486.5,124.1 -486.5,133.6 -484.5,133.6 -484.5,124.1 -480.2,128.3 -478.8,126.9 
		-485.5,120.2 	"/>
	<path d="M-472.5,123.6C-472.5,123.6-472.5,123.6-472.5,123.6c0-7.2-5.8-13-13-13s-13,5.8-13,13c0,0,0,0,0,0h-13v2h18v-2h-3
		c0,0,0,0,0,0c0-6.1,4.9-11,11-11s11,4.9,11,11c0,0,0,0,0,0h-3v2h18v-2H-472.5z"/>
</g>
<g>
	<rect x="-382.7" y="96.4" width="2" height="10"/>
	<rect x="-372.2" y="106.7" transform="matrix(0.7071 -0.7071 0.7071 0.7071 -183.681 -227.9625)" width="10.4" height="2"/>
	<rect x="-397.4" y="102.5" transform="matrix(0.7071 -0.7071 0.7071 0.7071 -192.2973 -248.7532)" width="2" height="10.4"/>
	<polygon points="-380.7,131 -380.7,120.4 -382.7,120.4 -382.7,131 -387,126.7 -388.4,128.2 -381.7,134.8 -375.1,128.2 
		-376.5,126.7 	"/>
	<path d="M-368.7,122.4C-368.7,122.4-368.7,122.4-368.7,122.4c0-7.2-5.8-13-13-13s-13,5.8-13,13c0,0,0,0,0,0h-13v2h22v-2h-7
		c0,0,0,0,0,0c0-6.1,4.9-11,11-11s11,4.9,11,11c0,0,0,0,0,0h-7v2h22v-2H-368.7z"/>
</g>
<g>
	<polygon points="-178.4,130.5 -178.4,116.1 -180.4,116.1 -180.4,130.5 -184.6,126.2 -186,127.6 -179.4,134.3 -172.7,127.6 
		-174.1,126.2 	"/>
	<path d="M-162.7,111.1c-1.6-7.4-8.2-13-16.1-13c-6.4,0-12,3.7-14.7,9c-0.3,0-0.5,0-0.8,0c-6.6,0-12,5.4-12,12c0,6.6,5.3,12,11.9,12
		v0h6.1v-2h-5.6l-0.4,0c-5.5,0-9.9-4.5-9.9-10c0-5.5,4.5-10,10-10c0.2,0,0.3,0,0.5,0l0.1,0l1.3,0.1l0.6-1.2
		c2.5-4.9,7.4-7.9,12.9-7.9c6.8,0,12.8,4.8,14.2,11.4l0.3,1.5l1.5,0.1c4.2,0.3,7.5,3.8,7.5,8c0,4.4-3.6,8-8,8c-0.1,0-0.1,0-0.1,0
		l-2,0h-4.9v2h6.9v0c0,0,0.1,0,0.1,0c5.5,0,10-4.5,10-10C-153.4,115.8-157.5,111.4-162.7,111.1z"/>
</g>
<g>
	<polygon points="-272.4,127.3 -271,125.9 -277.6,119.2 -284.3,125.9 -282.9,127.3 -278.6,123 -278.6,135.6 -276.6,135.6 
		-276.6,123 	"/>
	<path d="M-261,112.7c-1.6-7.4-8.2-13-16.1-13c-6.4,0-12,3.7-14.7,9c-0.3,0-0.5,0-0.8,0c-6.6,0-12,5.4-12,12c0,6.6,5.3,12,11.9,12v0
		h10.1v-2h-9.6l-0.4,0c-5.5,0-9.9-4.5-9.9-10c0-5.5,4.5-10,10-10c0.2,0,0.3,0,0.5,0l0.1,0l1.3,0.1l0.6-1.2c2.5-4.9,7.4-7.9,12.9-7.9
		c6.8,0,12.8,4.8,14.2,11.4l0.3,1.5l1.5,0.1c4.2,0.3,7.5,3.8,7.5,8c0,4.4-3.6,8-8,8c0,0-0.1,0-0.1,0l-2,0h-8.9v2h10.9v0
		c0,0,0.1,0,0.1,0c5.5,0,10-4.5,10-10C-251.6,117.4-255.8,113-261,112.7z"/>
</g>
<g>
	<path d="M-58.5-76.8c-1.6-7.4-8.2-13-16.1-13c-6.4,0-12,3.7-14.7,9c-0.3,0-0.5,0-0.8,0c-6.6,0-12,5.4-12,12c0,6.6,5.3,12,11.9,12v0
		h2.1v-2h-1.6l-0.4,0c-5.5,0-9.9-4.5-9.9-10c0-5.5,4.5-10,10-10c0.2,0,0.3,0,0.5,0l0.1,0l1.3,0.1l0.6-1.2c2.5-4.9,7.4-7.9,12.9-7.9
		c6.8,0,12.8,4.8,14.2,11.4l0.3,1.5l1.5,0.1c4.2,0.3,7.5,3.8,7.5,8c0,4.4-3.6,8-8,8c0,0-0.1,0-0.1,0l-2,0h-0.9v2h2.9v0
		c0,0,0.1,0,0.1,0c5.5,0,10-4.5,10-10C-49.1-72.2-53.3-76.5-58.5-76.8z"/>
	<polygon points="-80.1,-57.8 -80.1,-60.5 -78,-59.2 -77.3,-60.5 -79.8,-61.8 -77.3,-63.2 -78,-64.5 -80.1,-63.2 -80.1,-65.8 
		-82.1,-65.8 -82.1,-63.2 -84.4,-64.5 -85.1,-63.2 -82.6,-61.8 -85.1,-60.5 -84.4,-59.2 -82.1,-60.5 -82.1,-57.8 	"/>
	<polygon points="-75,-53.5 -77.2,-52.2 -77.2,-54.8 -79.2,-54.8 -79.2,-52.2 -81.4,-53.5 -82.1,-52.2 -79.6,-50.9 -82.1,-49.5 
		-81.4,-48.2 -79.2,-49.5 -79.2,-46.8 -77.2,-46.8 -77.2,-49.5 -75,-48.2 -74.3,-49.5 -76.8,-50.9 -74.3,-52.2 	"/>
	<polygon points="-66,-60.5 -68.1,-59.2 -68.1,-61.8 -70.1,-61.8 -70.1,-59.2 -72.4,-60.5 -73.1,-59.2 -70.6,-57.8 -73.1,-56.5 
		-72.4,-55.2 -70.1,-56.5 -70.1,-53.8 -68.1,-53.8 -68.1,-56.5 -66,-55.2 -65.3,-56.5 -67.7,-57.8 -65.3,-59.2 	"/>
</g>
<g>
	<rect x="17" y="-94.9" width="2" height="8"/>
	<rect x="-2" y="-75.9" width="8" height="2"/>
	<rect x="5.7" y="-90.2" transform="matrix(0.7071 -0.7071 0.7071 0.7071 62.9138 -20.5437)" width="2" height="8"/>
	<rect x="25.2" y="-87.2" transform="matrix(0.7071 -0.7071 0.7071 0.7071 69.5073 -4.6172)" width="8" height="2"/>
	<path d="M47.5-69.1c-1.4-6.7-7.4-11.8-14.6-11.8c-2.2,0-4.3,0.5-6.1,1.3c-1.7-3.2-5-5.4-8.9-5.4c-5.5,0-10,4.5-10,10
		c0,2.5,0.9,4.7,2.4,6.4C8.9-66.7,8-64.4,8-61.9c0,6,4.8,10.8,10.8,10.9v0H20v-2h-0.7l-0.5,0C14-53,10-57,10-61.9
		c0-4.9,4-8.9,8.9-8.9c0.1,0,0.3,0,0.4,0l0.1,0l1.3,0.1l0.6-1.2c2.2-4.4,6.6-7.1,11.5-7.1c6.1,0,11.4,4.3,12.6,10.2l0.3,1.5l1.5,0.1
		c3.7,0.2,6.6,3.3,6.6,7c0,3.9-3.1,7-7,7.1c0,0-0.1,0-0.1,0L45-53v2h1.8v0c0,0,0.1,0,0.1,0c5,0,9.1-4.1,9.1-9.1
		C56-64.9,52.2-68.8,47.5-69.1z M19.6-72.7c-0.2,0-0.5,0-0.7,0c-2.8,0-5.3,1-7.2,2.7c-1.1-1.4-1.8-3.1-1.8-5c0-4.4,3.6-8,8-8
		c3.1,0,5.8,1.8,7.1,4.3C22.7-77.2,20.8-75.1,19.6-72.7z"/>
	<polygon points="27,-52 27,-54.6 29.2,-53.4 29.9,-54.6 27.4,-56 29.9,-57.4 29.2,-58.6 27,-57.4 27,-60 25,-60 25,-57.3 
		22.7,-58.6 22.1,-57.4 24.5,-56 22.1,-54.6 22.7,-53.4 25,-54.6 25,-52 	"/>
	<polygon points="32.2,-47.6 30,-46.4 30,-49 28,-49 28,-46.3 25.7,-47.6 25,-46.4 27.5,-45 25,-43.6 25.7,-42.4 28,-43.7 28,-41 
		30,-41 30,-43.6 32.2,-42.4 32.8,-43.6 30.4,-45 32.8,-46.4 	"/>
	<polygon points="41.2,-54.6 39,-53.4 39,-56 37,-56 37,-53.3 34.7,-54.6 34.1,-53.4 36.5,-52 34.1,-50.6 34.7,-49.4 37,-50.6 
		37,-48 39,-48 39,-50.6 41.2,-49.4 41.9,-50.6 39.4,-52 41.9,-53.4 	"/>
</g>
<g>
	<path d="M147.7-72.1c-1.4-6.7-7.4-11.8-14.6-11.8c-1.8,0-3.5,0.3-5.1,0.9c-0.9-5.1-5.4-9-10.8-9c-0.4,0-0.8,0-1.2,0.1
		c0.7,1.1,1.2,2.4,1.2,3.9c0,3.9-3.1,7-7,7c-1.4,0-2.8-0.4-3.9-1.2c0,0.4-0.1,0.8-0.1,1.2c0,3.7,1.8,7,4.7,9
		c-1.7,1.9-2.7,4.4-2.7,7.1c0,6,4.8,10.8,10.8,10.9v0h1.2v-2h-0.7l-0.5,0c-4.9,0-8.8-4-8.8-8.9c0-4.9,4-8.9,8.9-8.9
		c0.2,0,0.3,0,0.4,0l0.1,0l1.3,0.1l0.6-1.2c2.2-4.4,6.6-7.1,11.5-7.1c6.1,0,11.4,4.3,12.6,10.2l0.3,1.5l1.5,0.1
		c3.7,0.2,6.6,3.3,6.6,7c0,3.9-3.1,7-7,7.1c0,0-0.1,0-0.1,0l-1.9,0v2h1.8v0c0,0,0.1,0,0.1,0c5,0,9.1-4.1,9.1-9.1
		C156.2-67.9,152.4-71.8,147.7-72.1z M119.8-75.7c-0.2,0-0.5,0-0.7,0c-2.5,0-4.9,0.9-6.7,2.3c-2-1.3-3.5-3.4-4-5.8
		c0.6,0.1,1.2,0.2,1.8,0.2c5,0,9-4,9-9c0-0.6-0.1-1.2-0.2-1.8c3.7,0.8,6.6,3.8,7.1,7.6C123.4-80.7,121.2-78.4,119.8-75.7z"/>
	<polygon points="127.2,-55 127.2,-57.6 129.4,-56.4 130.1,-57.6 127.6,-59 130.1,-60.4 129.4,-61.6 127.2,-60.4 127.2,-63 
		125.2,-63 125.2,-60.3 123,-61.6 122.3,-60.4 124.8,-59 122.3,-57.6 123,-56.4 125.2,-57.6 125.2,-55 	"/>
	<polygon points="132.4,-50.6 130.2,-49.4 130.2,-52 128.2,-52 128.2,-49.4 126,-50.6 125.3,-49.4 127.7,-48 125.3,-46.6 126,-45.4 
		128.2,-46.7 128.2,-44 130.2,-44 130.2,-46.6 132.4,-45.4 133.1,-46.6 130.6,-48 133.1,-49.4 	"/>
	<polygon points="141.4,-57.6 139.2,-56.4 139.2,-59 137.2,-59 137.2,-56.3 135,-57.6 134.3,-56.4 136.8,-55 134.3,-53.6 135,-52.4 
		137.2,-53.6 137.2,-51 139.2,-51 139.2,-53.6 141.4,-52.4 142.1,-53.6 139.6,-55 142.1,-56.4 	"/>
</g>
<rect x="-468.7" y="-639.8" class="st1" width="473" height="180.9"/>
<text transform="matrix(1 0 0 1 -289.022 -568.4272)" style="font-family:'Helvetica'; font-size:100px; letter-spacing:2;">60</text>
<text transform="matrix(1 0 0 1 -388.29 -508.4272)" style="font-family:'Helvetica'; font-size:48px;">Weather Icons</text>
<text transform="matrix(1 0 0 1 -292.748 -464.4272)" style="font-family:'Helvetica'; font-size:24px;">IOS 7 Style</text>
</svg>
