<?xml version="1.0" encoding="utf-8"?>
<!-- Generator: Adobe Illustrator 25.0.1, SVG Export Plug-In . SVG Version: 6.00 Build 0)  -->
<svg version="1.1" id="Layer_1" xmlns="http://www.w3.org/2000/svg" xmlns:xlink="http://www.w3.org/1999/xlink" x="0px" y="0px"
	 viewBox="0 0 53 35.9" style="enable-background:new 0 0 53 35.9;" xml:space="preserve">
<style type="text/css">
	.st0{fill:#FFFFFF;}
	.st1{fill:none;}
</style>
<path d="M336.4-0.3l-1.8,15.1l-0.3,2.2h2.3h6.9l-14.7,18.8l1.8-14.5l0.3-2.2h-2.3h-7L336.4-0.3 M339.3-7.4L317.6,21h11L326,42.6
	L347.6,15h-11L339.3-7.4L339.3-7.4z"/>
<path d="M-76.6-462.6c6.8,0,12.7,4.8,14.2,11.4l0.3,1.5l1.5,0.1c4.2,0.3,7.5,3.8,7.5,8c0,4.4-3.6,8-8,8c0,0-0.1,0-0.1,0l-2,0v0
	h-28.3l-0.6,0c-5.5,0-9.9-4.5-9.9-10c0-5.5,4.5-10,10-10c0.2,0,0.3,0,0.5,0l0.1,0l1.3,0.1l0.6-1.2C-87-459.6-82.1-462.6-76.6-462.6
	 M-76.6-464.6c-6.4,0-12,3.7-14.7,9c-0.3,0-0.5,0-0.8,0c-6.6,0-12,5.4-12,12c0,6.6,5.3,12,11.9,12v0h30.9v0c0,0,0.1,0,0.1,0
	c5.5,0,10-4.5,10-10c0-5.3-4.1-9.6-9.4-10C-62.1-459-68.7-464.6-76.6-464.6L-76.6-464.6z"/>
<g>
	<path d="M46.4-444.2c-1.4-6.7-7.4-11.8-14.6-11.8c-2.2,0-4.3,0.5-6.1,1.3c-1.7-3.2-5-5.4-8.9-5.4c-5.5,0-10,4.5-10,10
		c0,2.5,0.9,4.7,2.4,6.4c-1.4,1.8-2.3,4.1-2.3,6.7c0,6,4.8,10.8,10.8,10.9v0h28v0c0,0,0.1,0,0.1,0c5,0,9.1-4.1,9.1-9.1
		C54.8-440,51.1-443.9,46.4-444.2z M16.8-458.1c3.1,0,5.8,1.8,7.1,4.3c-2.3,1.4-4.2,3.5-5.4,5.9c-0.2,0-0.5,0-0.7,0
		c-2.8,0-5.3,1-7.2,2.7c-1.1-1.4-1.8-3.1-1.8-5C8.8-454.5,12.3-458.1,16.8-458.1z M45.8-428.1c0,0-0.1,0-0.1,0l-2,0v0H18.3l-0.6,0
		c-4.9,0-8.8-4-8.8-8.9c0-4.9,4-8.9,8.9-8.9c0.1,0,0.3,0,0.4,0l0.1,0l1.3,0.1l0.6-1.2c2.2-4.4,6.6-7.1,11.5-7.1
		c6.1,0,11.4,4.3,12.7,10.2l0.3,1.5l1.5,0.1c3.7,0.2,6.6,3.3,6.6,7C52.8-431.3,49.7-428.1,45.8-428.1z"/>
	<rect x="15.8" y="-470.1" width="2" height="8"/>
	<rect x="-3.2" y="-451.1" width="8" height="2"/>
	<rect x="4.5" y="-465.3" transform="matrix(0.7071 -0.7071 0.7071 0.7071 327.817 -131.2293)" width="2" height="8"/>
	<rect x="24" y="-462.3" transform="matrix(0.7071 -0.7071 0.7071 0.7071 334.4109 -115.3036)" width="8" height="2"/>
</g>
<path d="M142.1-448.2c-1.4-6.7-7.4-11.8-14.6-11.8c-1.8,0-3.5,0.3-5.1,0.9c-0.9-5.1-5.4-9-10.8-9c-0.4,0-0.8,0-1.2,0.1
	c0.7,1.1,1.2,2.4,1.2,3.9c0,3.9-3.1,7-7,7c-1.4,0-2.8-0.4-3.9-1.2c0,0.4-0.1,0.8-0.1,1.2c0,3.7,1.8,7,4.7,9
	c-1.7,1.9-2.7,4.4-2.7,7.1c0,6,4.8,10.8,10.8,10.9v0h28v0c0,0,0.1,0,0.1,0c5,0,9.1-4.1,9.1-9.1C150.6-444,146.8-447.9,142.1-448.2z
	 M102.8-455.3c0.6,0.1,1.2,0.2,1.8,0.2c5,0,9-4,9-9c0-0.6-0.1-1.2-0.2-1.8c3.7,0.8,6.6,3.8,7.1,7.6c-2.7,1.4-4.9,3.7-6.3,6.4
	c-0.2,0-0.5,0-0.7,0c-2.5,0-4.9,0.9-6.7,2.3C104.7-450.8,103.3-452.9,102.8-455.3z M141.6-432.1c0,0-0.1,0-0.1,0l-2,0v0H114l-0.6,0
	c-4.9,0-8.8-4-8.8-8.9c0-4.9,4-8.9,8.9-8.9c0.2,0,0.3,0,0.4,0l0.1,0l1.3,0.1l0.6-1.2c2.2-4.4,6.6-7.1,11.5-7.1
	c6.1,0,11.4,4.3,12.6,10.2l0.3,1.5l1.5,0.1c3.7,0.2,6.6,3.3,6.6,7C148.6-435.3,145.4-432.2,141.6-432.1z"/>
<g>
	<rect x="226.7" y="-439.6" width="2" height="7"/>
	<rect x="234.7" y="-443.6" width="2" height="7"/>
	<rect x="218.7" y="-443.6" width="2" height="7"/>
	<rect x="226.7" y="-429.6" width="2" height="7"/>
	<rect x="234.7" y="-433.6" width="2" height="7"/>
	<rect x="218.7" y="-433.6" width="2" height="7"/>
	<path d="M245.4-456.6c-1.6-7.4-8.2-13-16.1-13c-6.4,0-12,3.7-14.7,9c-0.3,0-0.5,0-0.8,0c-6.6,0-12,5.4-12,12c0,6.6,5.3,12,11.9,12
		v0h2.1v-2h-1.6l-0.4,0c-5.5,0-9.9-4.5-9.9-10c0-5.5,4.5-10,10-10c0.2,0,0.3,0,0.5,0l0.1,0l1.3,0.1l0.6-1.2
		c2.5-4.9,7.4-7.9,12.9-7.9c6.8,0,12.8,4.8,14.2,11.4l0.3,1.5l1.5,0.1c4.2,0.3,7.5,3.8,7.5,8c0,4.4-3.6,8-8,8c-0.1,0-0.1,0-0.1,0
		l-2,0h-2.9v2h4.9v0c0,0,0.1,0,0.1,0c5.5,0,10-4.5,10-10C254.7-451.9,250.6-456.3,245.4-456.6z"/>
</g>
<g>
	<path d="M42.9-367.2c-1.6-7.4-8.2-13-16.1-13c-6.4,0-12,3.7-14.7,9c-0.3,0-0.5,0-0.8,0c-6.6,0-12,5.4-12,12c0,6.6,5.3,12,11.9,12v0
		h2.1v-2h-1.6l-0.4,0c-5.5,0-9.9-4.5-9.9-10c0-5.5,4.5-10,10-10c0.2,0,0.3,0,0.5,0l0.1,0l1.3,0.1l0.6-1.2c2.5-4.9,7.4-7.9,12.9-7.9
		c6.8,0,12.8,4.8,14.2,11.4l0.3,1.5l1.5,0.1c4.2,0.3,7.5,3.8,7.5,8c0,4.4-3.6,8-8,8c0,0-0.1,0-0.1,0l-2,0h-2.9v2h4.9v0
		c0,0,0.1,0,0.1,0c5.5,0,10-4.5,10-10C52.3-362.6,48.2-366.9,42.9-367.2z"/>
	<polygon points="24.3,-340.2 24.3,-338.3 24.3,-332.2 26.3,-332.2 26.3,-338.3 26.3,-340.2 26.3,-352.2 24.3,-352.2 	"/>
	<polygon points="32.3,-344.2 32.3,-342.5 32.3,-336.2 34.3,-336.2 34.3,-342.5 34.3,-344.2 34.3,-356.2 32.3,-356.2 	"/>
	<polygon points="16.3,-344.2 16.3,-342.2 16.3,-336.2 18.3,-336.2 18.3,-342.2 18.3,-344.2 18.3,-356.2 16.3,-356.2 	"/>
</g>
<g>
	<polygon points="338.6,-343.3 331.7,-353.1 330.1,-352 337,-342.2 338.1,-340.6 341.5,-335.6 343.2,-336.8 339.7,-341.7 	"/>
	<polygon points="346.6,-343.3 339.7,-353.1 338.1,-352 345,-342.2 346,-340.7 349.5,-335.6 351.2,-336.8 347.6,-341.9 	"/>
	<polygon points="330.6,-343.3 323.7,-353.1 322.1,-352 329,-342.2 330.1,-340.5 333.5,-335.6 335.2,-336.8 331.8,-341.6 	"/>
	<path d="M349.7-367c-1.6-7.4-8.2-13-16.1-13c-6.4,0-12,3.7-14.7,9c-0.3,0-0.5,0-0.8,0c-6.6,0-12,5.4-12,12c0,6.6,5.3,12,11.9,12v0
		h2.1v-2h-1.6l-0.4,0c-5.5,0-9.9-4.5-9.9-10c0-5.5,4.5-10,10-10c0.2,0,0.3,0,0.5,0l0.1,0l1.3,0.1l0.6-1.2c2.5-4.9,7.4-7.9,12.9-7.9
		c6.8,0,12.8,4.8,14.2,11.4l0.3,1.5l1.5,0.1c4.2,0.3,7.5,3.8,7.5,8c0,4.4-3.6,8-8,8c0,0-0.1,0-0.1,0l-1,0h0.1v2h0.9v0
		c0,0,0.1,0,0.1,0c5.5,0,10-4.5,10-10C359.1-362.3,354.9-366.6,349.7-367z"/>
</g>
<g>
	<rect x="321.4" y="-476" width="2" height="8"/>
	<rect x="302.4" y="-457.1" width="8" height="2"/>
	<rect x="310.1" y="-471.4" transform="matrix(0.7071 -0.7071 0.7071 0.7071 421.5993 83.0543)" width="2" height="8"/>
	<rect x="329.6" y="-468.4" transform="matrix(0.7071 -0.7071 0.7071 0.7071 428.1927 98.9808)" width="8" height="2"/>
	<rect x="335.4" y="-435.2" width="2" height="7"/>
	<rect x="343.4" y="-439.2" width="2" height="7"/>
	<rect x="327.4" y="-439.2" width="2" height="7"/>
	<rect x="335.4" y="-425.2" width="2" height="7"/>
	<rect x="343.4" y="-429.2" width="2" height="7"/>
	<rect x="327.4" y="-429.2" width="2" height="7"/>
	<path d="M351.9-450.2c-1.4-6.7-7.4-11.8-14.6-11.8c-2.2,0-4.3,0.5-6.1,1.3c-1.7-3.2-5-5.4-8.9-5.4c-5.5,0-10,4.5-10,10
		c0,2.5,0.9,4.7,2.4,6.4c-1.4,1.8-2.3,4.1-2.3,6.7c0,6,4.8,10.8,10.8,10.9v0h1.2v-2h-0.7l-0.5,0c-4.9,0-8.8-4-8.8-8.9
		c0-4.9,4-8.9,8.9-8.9c0.1,0,0.3,0,0.4,0l0.1,0l1.3,0.1l0.6-1.2c2.2-4.4,6.6-7.1,11.5-7.1c6.1,0,11.4,4.3,12.6,10.2l0.3,1.5l1.5,0.1
		c3.7,0.2,6.6,3.3,6.6,7c0,3.9-3.1,7-7,7.1c0,0-0.1,0-0.1,0l-2,0h-0.8v2h2.8v0c0,0,0.1,0,0.1,0c5,0,9.1-4.1,9.1-9.1
		C360.4-446,356.6-450,351.9-450.2z M324-453.9c-0.2,0-0.5,0-0.7,0c-2.8,0-5.3,1-7.2,2.7c-1.1-1.4-1.8-3.1-1.8-5c0-4.4,3.6-8,8-8
		c3.1,0,5.8,1.8,7.1,4.3C327.1-458.3,325.2-456.3,324-453.9z"/>
</g>
<g>
	<rect x="435.8" y="-436.6" width="2" height="7"/>
	<rect x="443.8" y="-440.6" width="2" height="7"/>
	<rect x="427.8" y="-440.6" width="2" height="7"/>
	<rect x="435.8" y="-426.6" width="2" height="7"/>
	<rect x="443.8" y="-430.6" width="2" height="7"/>
	<rect x="427.8" y="-430.6" width="2" height="7"/>
	<path d="M452.3-451.7c-1.4-6.7-7.4-11.8-14.6-11.8c-1.8,0-3.5,0.3-5.1,0.9c-0.9-5.1-5.4-9-10.8-9c-0.4,0-0.8,0-1.2,0.1
		c0.7,1.1,1.2,2.4,1.2,3.9c0,3.9-3.1,7-7,7c-1.4,0-2.8-0.4-3.9-1.2c0,0.4-0.1,0.8-0.1,1.2c0,3.7,1.8,7,4.7,9
		c-1.7,1.9-2.7,4.4-2.7,7.1c0,6,4.8,10.8,10.8,10.9v0h1.2v-2h-0.7l-0.5,0c-4.9,0-8.8-4-8.8-8.9c0-4.9,4-8.9,8.9-8.9
		c0.1,0,0.3,0,0.4,0l0.1,0l1.3,0.1l0.6-1.2c2.2-4.4,6.6-7.1,11.5-7.1c6.1,0,11.4,4.3,12.6,10.2l0.3,1.5l1.5,0.1
		c3.7,0.2,6.6,3.3,6.6,7c0,3.9-3.1,7-7,7.1c0,0-0.1,0-0.1,0l-2,0h-0.8v2h2.8v0c0,0,0.1,0,0.1,0c5,0,9.1-4.1,9.1-9.1
		C460.8-447.5,457.1-451.4,452.3-451.7z M424.4-455.3c-0.2,0-0.5,0-0.7,0c-2.5,0-4.9,0.9-6.7,2.3c-2-1.3-3.5-3.4-4-5.8
		c0.6,0.1,1.2,0.2,1.8,0.2c5,0,9-4,9-9c0-0.6-0.1-1.2-0.2-1.8c3.7,0.8,6.6,3.8,7.1,7.6C428-460.3,425.8-458.1,424.4-455.3z"/>
</g>
<g>
	<polygon points="128.6,-335.8 128.6,-333.8 128.6,-327.8 130.6,-327.8 130.6,-333.8 130.6,-335.8 130.6,-347.8 128.6,-347.8 	"/>
	<polygon points="136.6,-339.8 136.6,-338 136.6,-331.8 138.6,-331.8 138.6,-338 138.6,-339.8 138.6,-351.8 136.6,-351.8 	"/>
	<polygon points="120.6,-339.8 120.6,-337.7 120.6,-331.8 122.6,-331.8 122.6,-337.7 122.6,-339.8 122.6,-351.8 120.6,-351.8 	"/>
	<rect x="114.6" y="-386.7" width="2" height="8"/>
	<rect x="95.6" y="-367.8" width="8" height="2"/>
	<rect x="103.2" y="-382" transform="matrix(0.7071 -0.7071 0.7071 0.7071 297.8471 -37.014)" width="2" height="8"/>
	<rect x="122.8" y="-379" transform="matrix(0.7071 -0.7071 0.7071 0.7071 304.4405 -21.0876)" width="8" height="2"/>
	<path d="M145.1-360.9c-1.4-6.7-7.4-11.8-14.6-11.8c-2.2,0-4.3,0.5-6.1,1.3c-1.7-3.2-5-5.4-8.9-5.4c-5.5,0-10,4.5-10,10
		c0,2.5,0.9,4.7,2.4,6.4c-1.4,1.8-2.3,4.1-2.3,6.7c0,6,4.8,10.8,10.8,10.9v0h1.2v-2h-0.7l-0.5,0c-4.9,0-8.8-4-8.8-8.9
		c0-4.9,4-8.9,8.9-8.9c0.2,0,0.3,0,0.4,0l0.1,0l1.3,0.1l0.6-1.2c2.2-4.4,6.6-7.1,11.5-7.1c6.1,0,11.4,4.3,12.6,10.2l0.3,1.5l1.5,0.1
		c3.7,0.2,6.6,3.3,6.6,7c0,3.9-3.1,7-7,7.1c0,0-0.1,0-0.1,0l-2,0h-0.8v2h2.8v0c0,0,0.1,0,0.1,0c5,0,9.1-4.1,9.1-9.1
		C153.6-356.7,149.8-360.6,145.1-360.9z M117.2-364.5c-0.2,0-0.5,0-0.7,0c-2.8,0-5.3,1-7.2,2.7c-1.1-1.4-1.8-3.1-1.8-5
		c0-4.4,3.6-8,8-8c3.1,0,5.8,1.8,7.1,4.3C120.3-369,118.4-366.9,117.2-364.5z"/>
</g>
<g>
	<polygon points="229,-338.3 229,-336.4 229,-330.3 231,-330.3 231,-336.4 231,-338.3 231,-350.3 229,-350.3 	"/>
	<polygon points="237,-342.3 237,-340.6 237,-334.3 239,-334.3 239,-340.6 239,-342.3 239,-354.3 237,-354.3 	"/>
	<polygon points="221,-342.3 221,-340.2 221,-334.3 223,-334.3 223,-340.2 223,-342.3 223,-354.3 221,-354.3 	"/>
	<path d="M245.5-363.4c-1.4-6.7-7.4-11.8-14.6-11.8c-1.8,0-3.5,0.3-5.1,0.9c-0.9-5.1-5.4-9-10.8-9c-0.4,0-0.8,0-1.2,0.1
		c0.7,1.1,1.2,2.4,1.2,3.9c0,3.9-3.1,7-7,7c-1.4,0-2.8-0.4-3.9-1.2c0,0.4-0.1,0.8-0.1,1.2c0,3.7,1.8,7,4.7,9
		c-1.7,1.9-2.7,4.4-2.7,7.1c0,6,4.8,10.8,10.8,10.9v0h1.2v-2h-0.7l-0.5,0c-4.9,0-8.8-4-8.8-8.9c0-4.9,4-8.9,8.9-8.9
		c0.1,0,0.3,0,0.4,0l0.1,0l1.3,0.1l0.6-1.2c2.2-4.4,6.6-7.1,11.5-7.1c6.1,0,11.4,4.3,12.6,10.2l0.3,1.5l1.5,0.1
		c3.7,0.2,6.6,3.3,6.6,7c0,3.9-3.1,7-7,7.1c0,0-0.1,0-0.1,0l-2,0H242v2h2.8v0c0,0,0.1,0,0.1,0c5,0,9.1-4.1,9.1-9.1
		C254-359.2,250.2-363.1,245.5-363.4z M217.6-367c-0.2,0-0.5,0-0.7,0c-2.5,0-4.9,0.9-6.7,2.3c-2-1.3-3.5-3.4-4-5.8
		c0.6,0.1,1.2,0.2,1.8,0.2c5,0,9-4,9-9c0-0.6-0.1-1.2-0.2-1.8c3.7,0.8,6.6,3.8,7.1,7.6C221.2-372,219-369.8,217.6-367z"/>
</g>
<g>
	<polygon points="446,-337.4 439.1,-347.2 437.5,-346 444.4,-336.2 445.5,-334.6 449,-329.7 450.6,-330.8 447.1,-335.8 	"/>
	<polygon points="454,-337.4 447.1,-347.2 445.5,-346 452.4,-336.2 453.4,-334.8 457,-329.7 458.6,-330.8 455,-335.9 	"/>
	<polygon points="438,-337.4 431.1,-347.2 429.5,-346 436.4,-336.2 437.6,-334.5 441,-329.7 442.6,-330.8 439.2,-335.7 	"/>
	<rect x="425.5" y="-384.9" width="2" height="8"/>
	<rect x="406.5" y="-366" width="8" height="2"/>
	<rect x="414.2" y="-380.2" transform="matrix(0.7071 -0.7071 0.7071 0.7071 387.6527 183.3537)" width="2" height="8"/>
	<rect x="433.7" y="-377.3" transform="matrix(0.7071 -0.7071 0.7071 0.7071 394.2462 199.2802)" width="8" height="2"/>
	<path d="M456-359.1c-1.4-6.7-7.4-11.8-14.6-11.8c-2.2,0-4.3,0.5-6.1,1.3c-1.7-3.2-5-5.4-8.9-5.4c-5.5,0-10,4.5-10,10
		c0,2.5,0.9,4.7,2.4,6.4c-1.4,1.8-2.3,4.1-2.3,6.7c0,6,4.8,10.8,10.8,10.9v0h1.2v-2h-0.7l-0.5,0c-4.9,0-8.8-4-8.8-8.9
		c0-4.9,4-8.9,8.9-8.9c0.1,0,0.3,0,0.4,0l0.1,0l1.3,0.1l0.6-1.2c2.2-4.4,6.6-7.1,11.5-7.1c6.1,0,11.4,4.3,12.6,10.2l0.3,1.5l1.5,0.1
		c3.7,0.2,6.6,3.3,6.6,7c0,3.9-3.1,7-7,7.1c0,0-0.1,0-0.1,0l0,0h-0.8v2h0.8v0c0,0,0.1,0,0.1,0c5,0,9.1-4.1,9.1-9.1
		C464.5-354.9,460.7-358.8,456-359.1z M428.1-362.7c-0.2,0-0.5,0-0.7,0c-2.8,0-5.3,1-7.2,2.7c-1.1-1.4-1.8-3.1-1.8-5
		c0-4.4,3.6-8,8-8c3.1,0,5.8,1.8,7.1,4.3C431.2-367.2,429.3-365.2,428.1-362.7z"/>
</g>
<g>
	<polygon points="-277.4,-240.9 -284.3,-250.7 -285.9,-249.6 -279,-239.7 -277.9,-238.1 -274.5,-233.2 -272.8,-234.3 -276.3,-239.3 
			"/>
	<polygon points="-269.4,-240.9 -276.3,-250.7 -277.9,-249.6 -271,-239.7 -270,-238.3 -266.5,-233.2 -264.8,-234.3 -268.4,-239.4 	
		"/>
	<polygon points="-285.4,-240.9 -292.3,-250.7 -293.9,-249.6 -287,-239.7 -285.9,-238 -282.5,-233.2 -280.8,-234.3 -284.2,-239.2 	
		"/>
	<path d="M-267.4-262.6c-1.4-6.7-7.4-11.8-14.6-11.8c-1.8,0-3.5,0.3-5.1,0.9c-0.9-5.1-5.4-9-10.8-9c-0.4,0-0.8,0-1.2,0.1
		c0.7,1.1,1.2,2.4,1.2,3.9c0,3.9-3.1,7-7,7c-1.4,0-2.8-0.4-3.9-1.2c0,0.4-0.1,0.8-0.1,1.2c0,3.7,1.8,7,4.7,9
		c-1.7,1.9-2.7,4.4-2.7,7.1c0,6,4.8,10.8,10.8,10.9v0h1.2v-2h-0.7l-0.5,0c-4.9,0-8.8-4-8.8-8.9c0-4.9,4-8.9,8.9-8.9
		c0.1,0,0.3,0,0.4,0l0.1,0l1.3,0.1l0.6-1.2c2.2-4.4,6.6-7.1,11.5-7.1c6.1,0,11.4,4.3,12.6,10.2l0.3,1.5l1.5,0.1
		c3.7,0.2,6.6,3.3,6.6,7c0,3.9-3.1,7-7,7.1c0,0-0.1,0-0.1,0l0,0h-0.8v2h0.8v0c0,0,0.1,0,0.1,0c5,0,9.1-4.1,9.1-9.1
		C-258.9-258.4-262.7-262.3-267.4-262.6z M-295.3-266.2c-0.2,0-0.5,0-0.7,0c-2.5,0-4.9,0.9-6.7,2.3c-2-1.3-3.5-3.4-4-5.8
		c0.6,0.1,1.2,0.2,1.8,0.2c5,0,9-4,9-9c0-0.6-0.1-1.2-0.2-1.8c3.7,0.8,6.6,3.8,7.1,7.6C-291.7-271.2-293.9-269-295.3-266.2z"/>
</g>
<g>
	<rect x="-284.9" y="-344.7" width="2" height="4"/>
	<rect x="-276.9" y="-348.7" width="2" height="4"/>
	<rect x="-292.9" y="-348.7" width="2" height="4"/>
	<path d="M-266.3-364.7c-1.6-7.4-8.2-13-16.1-13c-6.4,0-12,3.7-14.7,9c-0.3,0-0.5,0-0.8,0c-6.6,0-12,5.4-12,12c0,6.6,5.3,12,11.9,12
		v0h2.1v-2h-1.6l-0.4,0c-5.5,0-9.9-4.5-9.9-10c0-5.5,4.5-10,10-10c0.2,0,0.3,0,0.5,0l0.1,0l1.3,0.1l0.6-1.2
		c2.5-4.9,7.4-7.9,12.9-7.9c6.8,0,12.8,4.8,14.2,11.4l0.3,1.5l1.5,0.1c4.2,0.3,7.5,3.8,7.5,8c0,4.4-3.6,8-8,8c0,0-0.1,0-0.1,0l-2,0
		h-2.9v2h4.9v0c0,0,0.1,0,0.1,0c5.5,0,10-4.5,10-10C-256.9-360.1-261.1-364.4-266.3-364.7z"/>
	<circle cx="-275.9" cy="-339.7" r="1.5"/>
	<circle cx="-283.9" cy="-335.7" r="1.5"/>
	<circle cx="-291.9" cy="-339.7" r="1.5"/>
</g>
<g>
	<rect x="-192" y="-384.2" width="2" height="8"/>
	<rect x="-211" y="-365.3" width="8" height="2"/>
	<rect x="-203.4" y="-379.5" transform="matrix(0.7071 -0.7071 0.7071 0.7071 206.2675 -253.073)" width="2" height="8"/>
	<rect x="-183.8" y="-376.5" transform="matrix(0.7071 -0.7071 0.7071 0.7071 212.861 -237.1465)" width="8" height="2"/>
	<path d="M-161.5-358.4c-1.4-6.7-7.4-11.8-14.6-11.8c-2.2,0-4.3,0.5-6.1,1.3c-1.7-3.2-5-5.4-8.9-5.4c-5.5,0-10,4.5-10,10
		c0,2.5,0.9,4.7,2.4,6.4c-1.4,1.8-2.3,4.1-2.3,6.7c0,6,4.8,10.8,10.8,10.9v0h1.2v-2h-0.7l-0.5,0c-4.9,0-8.8-4-8.8-8.9
		c0-4.9,4-8.9,8.9-8.9c0.1,0,0.3,0,0.4,0l0.1,0l1.3,0.1l0.6-1.2c2.2-4.4,6.6-7.1,11.5-7.1c6.1,0,11.4,4.3,12.6,10.2l0.3,1.5l1.5,0.1
		c3.7,0.2,6.6,3.3,6.6,7c0,3.9-3.1,7-7,7.1c0,0-0.1,0-0.1,0l-2,0h-0.8v2h2.8v0c0,0,0.1,0,0.1,0c5,0,9.1-4.1,9.1-9.1
		C-153-354.2-156.8-358.1-161.5-358.4z M-189.4-362c-0.2,0-0.5,0-0.7,0c-2.8,0-5.3,1-7.2,2.7c-1.1-1.4-1.8-3.1-1.8-5
		c0-4.4,3.6-8,8-8c3.1,0,5.8,1.8,7.1,4.3C-186.3-366.5-188.2-364.4-189.4-362z"/>
	<rect x="-178" y="-340.3" width="2" height="4"/>
	<rect x="-170" y="-344.3" width="2" height="4"/>
	<rect x="-186" y="-344.3" width="2" height="4"/>
	<circle cx="-169" cy="-335.3" r="1.5"/>
	<circle cx="-177" cy="-331.3" r="1.5"/>
	<circle cx="-185" cy="-335.3" r="1.5"/>
</g>
<g>
	<path d="M-60.6-359.3c-1.4-6.7-7.4-11.8-14.6-11.8c-1.8,0-3.5,0.3-5.1,0.9c-0.9-5.1-5.4-9-10.8-9c-0.4,0-0.8,0-1.2,0.1
		c0.7,1.1,1.2,2.4,1.2,3.9c0,3.9-3.1,7-7,7c-1.4,0-2.8-0.4-3.9-1.2c0,0.4-0.1,0.8-0.1,1.2c0,3.7,1.8,7,4.7,9
		c-1.7,1.9-2.7,4.4-2.7,7.1c0,6,4.8,10.8,10.8,10.9v0h1.2v-2h-0.7l-0.5,0c-4.9,0-8.8-4-8.8-8.9c0-4.9,4-8.9,8.9-8.9
		c0.2,0,0.3,0,0.4,0l0.1,0l1.3,0.1l0.6-1.2c2.2-4.4,6.6-7.1,11.5-7.1c6.1,0,11.4,4.3,12.6,10.2l0.3,1.5l1.5,0.1
		c3.7,0.2,6.6,3.3,6.6,7c0,3.9-3.1,7-7,7.1c0,0-0.1,0-0.1,0l-2,0h-0.8v2h2.8v0c0,0,0.1,0,0.1,0c5,0,9.1-4.1,9.1-9.1
		C-52.1-355.1-55.8-359-60.6-359.3z M-88.5-363c-0.2,0-0.5,0-0.7,0c-2.5,0-4.9,0.9-6.7,2.3c-2-1.3-3.5-3.4-4-5.8
		c0.6,0.1,1.2,0.2,1.8,0.2c5,0,9-4,9-9c0-0.6-0.1-1.2-0.2-1.8c3.7,0.8,6.6,3.8,7.1,7.6C-84.9-368-87.1-365.7-88.5-363z"/>
	<rect x="-77.1" y="-341.2" width="2" height="4"/>
	<rect x="-69.1" y="-345.3" width="2" height="4"/>
	<rect x="-85.1" y="-345.3" width="2" height="4"/>
	<circle cx="-68.1" cy="-336.2" r="1.5"/>
	<circle cx="-76.1" cy="-332.3" r="1.5"/>
	<circle cx="-84.1" cy="-336.3" r="1.5"/>
</g>
<g>
	<path d="M-163.9-266.3c-1.6-7.4-8.2-13-16.1-13c-6.4,0-12,3.7-14.7,9c-0.3,0-0.5,0-0.8,0c-6.6,0-12,5.4-12,12c0,6.6,5.3,12,11.9,12
		v0h6.1v-2h-5.6l-0.4,0c-5.5,0-9.9-4.5-9.9-10c0-5.5,4.5-10,10-10c0.2,0,0.3,0,0.5,0l0.1,0l1.3,0.1l0.6-1.2
		c2.5-4.9,7.4-7.9,12.9-7.9c6.8,0,12.8,4.8,14.2,11.4l0.3,1.5l1.5,0.1c4.2,0.3,7.5,3.8,7.5,8c0,4.4-3.6,8-8,8c-0.1,0-0.1,0-0.1,0
		l-5,0h0.1v2h4.9v0c0,0,0.1,0,0.1,0c5.5,0,10-4.5,10-10C-154.5-261.7-158.7-266-163.9-266.3z"/>
	<polygon points="-179.7,-246.3 -177.9,-246.3 -177.5,-246.3 -175.5,-246.3 -181.9,-255.5 -183.5,-254.4 -179.3,-248.3 
		-181.1,-248.3 -183.5,-248.3 -182.2,-246.5 -181.1,-244.9 -175.1,-236.3 -173.5,-237.5 -179.5,-246.1 	"/>
</g>
<g>
	<rect x="-88.1" y="-285.4" width="2" height="8"/>
	<rect x="-107.1" y="-266.5" width="8" height="2"/>
	<rect x="-99.4" y="-280.8" transform="matrix(0.7071 -0.7071 0.7071 0.7071 166.8929 -150.6681)" width="2" height="8"/>
	<rect x="-79.9" y="-277.8" transform="matrix(0.7071 -0.7071 0.7071 0.7071 173.4863 -134.7417)" width="8" height="2"/>
	<path d="M-57.6-259.7c-1.4-6.7-7.4-11.8-14.6-11.8c-2.2,0-4.3,0.5-6.1,1.3c-1.7-3.2-5-5.4-8.9-5.4c-5.5,0-10,4.5-10,10
		c0,2.5,0.9,4.7,2.4,6.4c-1.4,1.8-2.3,4.1-2.3,6.7c0,6,4.8,10.8,10.8,10.9v0h4.2v-2h-3.7l-0.5,0c-4.9,0-8.8-4-8.8-8.9
		c0-4.9,4-8.9,8.9-8.9c0.2,0,0.3,0,0.4,0l0.1,0l1.3,0.1l0.6-1.2c2.2-4.4,6.6-7.1,11.5-7.1c6.1,0,11.4,4.3,12.6,10.2l0.3,1.5l1.5,0.1
		c3.7,0.2,6.6,3.3,6.6,7c0,3.9-3.1,7-7,7.1c0,0-0.1,0-0.1,0l-2,0h-3.8v2h5.8v0c0,0,0.1,0,0.1,0c5,0,9.1-4.1,9.1-9.1
		C-49.1-255.4-52.8-259.4-57.6-259.7z M-85.5-263.3c-0.2,0-0.5,0-0.7,0c-2.8,0-5.3,1-7.2,2.7c-1.1-1.4-1.8-3.1-1.8-5
		c0-4.4,3.6-8,8-8c3.1,0,5.8,1.8,7.1,4.3C-82.4-267.7-84.3-265.7-85.5-263.3z"/>
	<polygon points="-73.2,-241.6 -71.5,-241.6 -71,-241.6 -69,-241.6 -75.4,-250.7 -77.1,-249.6 -72.9,-243.6 -74.6,-243.6 
		-77.1,-243.6 -75.8,-241.7 -74.7,-240.2 -68.7,-231.6 -67.1,-232.7 -73.1,-241.3 	"/>
</g>
<g>
	<path d="M42-261.9c-1.4-6.7-7.4-11.8-14.6-11.8c-1.8,0-3.5,0.3-5.1,0.9c-0.9-5.1-5.4-9-10.8-9c-0.4,0-0.8,0-1.2,0.1
		c0.7,1.1,1.2,2.4,1.2,3.9c0,3.9-3.1,7-7,7c-1.4,0-2.8-0.4-3.9-1.2c0,0.4-0.1,0.8-0.1,1.2c0,3.7,1.8,7,4.7,9
		c-1.7,1.9-2.7,4.4-2.7,7.1c0,6,4.8,10.8,10.8,10.9v0h4.2v-2h-3.7l-0.5,0c-4.9,0-8.8-4-8.8-8.9c0-4.9,4-8.9,8.9-8.9
		c0.1,0,0.3,0,0.4,0l0.1,0l1.3,0.1l0.6-1.2c2.2-4.4,6.6-7.1,11.5-7.1c6.1,0,11.4,4.3,12.6,10.2l0.3,1.5l1.5,0.1
		c3.7,0.2,6.6,3.3,6.6,7c0,3.9-3.1,7-7,7.1c0,0-0.1,0-0.1,0l-2,0h-3.8v2h5.8v0c0,0,0.1,0,0.1,0c5,0,9.1-4.1,9.1-9.1
		C50.5-257.7,46.7-261.7,42-261.9z M14.1-265.6c-0.2,0-0.5,0-0.7,0c-2.5,0-4.9,0.9-6.7,2.3c-2-1.3-3.5-3.4-4-5.8
		c0.6,0.1,1.2,0.2,1.8,0.2c5,0,9-4,9-9c0-0.6-0.1-1.2-0.2-1.8c3.7,0.8,6.6,3.8,7.1,7.6C17.7-270.6,15.5-268.3,14.1-265.6z"/>
	<polygon points="26.3,-243.9 28.1,-243.9 28.5,-243.9 30.6,-243.9 24.1,-253 22.5,-251.9 26.7,-245.9 24.9,-245.9 22.5,-245.9 
		23.8,-244 24.9,-242.5 30.9,-233.9 32.5,-235 26.5,-243.6 	"/>
</g>
<g>
	<path d="M142.9-265.8c-1.6-7.4-8.2-13-16.1-13c-6.4,0-12,3.7-14.7,9c-0.3,0-0.5,0-0.8,0c-6.6,0-12,5.4-12,12c0,6.6,5.3,12,11.9,12
		v0h1.1v-2h-0.6l-0.4,0c-5.5,0-9.9-4.5-9.9-10c0-5.5,4.5-10,10-10c0.2,0,0.3,0,0.5,0l0.1,0l1.3,0.1l0.6-1.2
		c2.5-4.9,7.4-7.9,12.9-7.9c6.8,0,12.7,4.8,14.2,11.4l0.3,1.5l1.5,0.1c4.2,0.3,7.5,3.8,7.5,8c0,4.4-3.6,8-8,8c-0.1,0-0.1,0-0.1,0
		l-0.9,0v2h0.9v0c0,0,0.1,0,0.1,0c5.5,0,10-4.5,10-10C152.3-261.2,148.1-265.5,142.9-265.8z"/>
	<rect x="116.3" y="-252.4" transform="matrix(0.8191 -0.5736 0.5736 0.8191 162.8173 22.6354)" width="2" height="11.2"/>
	<rect x="134.3" y="-252.4" transform="matrix(0.8191 -0.5736 0.5736 0.8191 166.0687 32.9462)" width="2" height="11.2"/>
	<polygon points="128.1,-242.8 129.9,-242.8 130.3,-242.8 132.3,-242.8 125.9,-252 124.3,-250.9 128.5,-244.8 126.7,-244.8 
		124.3,-244.8 125.5,-243 126.7,-241.4 131.3,-234.8 132.9,-236 128.3,-242.6 	"/>
</g>
<g>
	<rect x="217.7" y="-285.3" width="2" height="8"/>
	<rect x="198.7" y="-266.4" width="8" height="2"/>
	<rect x="206.4" y="-280.6" transform="matrix(0.7071 -0.7071 0.7071 0.7071 256.3538 65.6314)" width="2" height="8"/>
	<rect x="225.9" y="-277.6" transform="matrix(0.7071 -0.7071 0.7071 0.7071 262.9472 81.5577)" width="8" height="2"/>
	<path d="M248.3-259.5c-1.4-6.7-7.4-11.8-14.6-11.8c-2.2,0-4.3,0.5-6.1,1.3c-1.7-3.2-5-5.4-8.9-5.4c-5.5,0-10,4.5-10,10
		c0,2.5,0.9,4.7,2.4,6.4c-1.4,1.8-2.3,4.1-2.3,6.7c0,6,4.8,10.8,10.8,10.9v0h0.2v-2l-0.2,0c-4.9,0-8.8-4-8.8-8.9
		c0-4.9,4-8.9,8.9-8.9c0.1,0,0.3,0,0.4,0l0.1,0l1.3,0.1l0.6-1.2c2.2-4.4,6.6-7.1,11.5-7.1c6.1,0,11.4,4.3,12.6,10.2l0.3,1.5l1.5,0.1
		c3.7,0.2,6.6,3.3,6.6,7c0,3.9-3.1,7-7,7.1c0,0-0.1,0-0.1,0l-0.9,0v2h0.8v0c0,0,0.1,0,0.1,0c5,0,9.1-4.1,9.1-9.1
		C256.7-255.3,253-259.2,248.3-259.5z M220.3-263.1c-0.2,0-0.5,0-0.7,0c-2.8,0-5.3,1-7.2,2.7c-1.1-1.4-1.8-3.1-1.8-5
		c0-4.4,3.6-8,8-8c3.1,0,5.8,1.8,7.1,4.3C223.5-267.6,221.6-265.5,220.3-263.1z"/>
	<rect x="222.8" y="-248" transform="matrix(0.8191 -0.5736 0.5736 0.8191 179.5283 84.5097)" width="2" height="11.2"/>
	<rect x="240.7" y="-248" transform="matrix(0.8191 -0.5736 0.5736 0.8191 182.7793 94.821)" width="2" height="11.2"/>
	<polygon points="234.6,-238.4 236.3,-238.4 236.8,-238.4 238.8,-238.4 232.4,-247.6 230.7,-246.4 234.9,-240.4 233.2,-240.4 
		230.7,-240.4 232,-238.6 233.1,-237 237.7,-230.4 239.4,-231.5 234.8,-238.1 	"/>
</g>
<g>
	<path d="M350.1-262.4c-1.4-6.7-7.4-11.8-14.6-11.8c-1.8,0-3.5,0.3-5.1,0.9c-0.9-5.1-5.4-9-10.8-9c-0.4,0-0.8,0-1.2,0.1
		c0.7,1.1,1.2,2.4,1.2,3.9c0,3.9-3.1,7-7,7c-1.4,0-2.8-0.4-3.9-1.2c0,0.4-0.1,0.8-0.1,1.2c0,3.7,1.8,7,4.7,9
		c-1.7,1.9-2.7,4.4-2.7,7.1c0,6,4.8,10.8,10.8,10.9v0h0.2v-2l-0.2,0c-4.9,0-8.8-4-8.8-8.9c0-4.9,4-8.9,8.9-8.9c0.1,0,0.3,0,0.4,0
		l0.1,0l1.3,0.1l0.6-1.2c2.2-4.4,6.6-7.1,11.5-7.1c6.1,0,11.4,4.3,12.6,10.2l0.3,1.5l1.5,0.1c3.7,0.2,6.6,3.3,6.6,7
		c0,3.9-3.1,7-7,7.1c0,0-0.1,0-0.1,0l-0.9,0v2h0.8v0c0,0,0.1,0,0.1,0c5,0,9.1-4.1,9.1-9.1C358.6-258.2,354.8-262.2,350.1-262.4z
		 M322.2-266.1c-0.2,0-0.5,0-0.7,0c-2.5,0-4.9,0.9-6.7,2.3c-2-1.3-3.5-3.4-4-5.8c0.6,0.1,1.2,0.2,1.8,0.2c5,0,9-4,9-9
		c0-0.6-0.1-1.2-0.2-1.8c3.7,0.8,6.6,3.8,7.1,7.6C325.8-271.1,323.6-268.8,322.2-266.1z"/>
	<rect x="324.6" y="-251" transform="matrix(0.8191 -0.5736 0.5736 0.8191 199.6452 142.3924)" width="2" height="11.2"/>
	<rect x="342.6" y="-251" transform="matrix(0.8191 -0.5736 0.5736 0.8191 202.8962 152.7037)" width="2" height="11.2"/>
	<polygon points="336.4,-241.4 338.2,-241.4 338.6,-241.4 340.6,-241.4 334.2,-250.5 332.6,-249.4 336.8,-243.4 335,-243.4 
		332.6,-243.4 333.8,-241.5 335,-240 339.6,-233.4 341.2,-234.5 336.6,-241.1 	"/>
</g>
<g>
	<g>
		<path d="M-60.5-176c-1.6-7.4-8.2-13-16.1-13c-6.4,0-12,3.7-14.7,9c-0.3,0-0.5,0-0.8,0c-6.6,0-12,5.4-12,12c0,6.6,5.3,12,11.9,12v0
			h2.1v-2h-1.6l-0.4,0c-5.5,0-9.9-4.5-9.9-10c0-5.5,4.5-10,10-10c0.2,0,0.3,0,0.5,0l0.1,0l1.3,0.1l0.6-1.2c2.5-4.9,7.4-7.9,12.9-7.9
			c6.8,0,12.8,4.8,14.2,11.4l0.3,1.5l1.5,0.1c4.2,0.3,7.5,3.8,7.5,8c0,4.4-3.6,8-8,8c0,0-0.1,0-0.1,0l-2,0h-2.9v2h4.9v0
			c0,0,0.1,0,0.1,0c5.5,0,10-4.5,10-10C-51.1-171.3-55.2-175.7-60.5-176z"/>
	</g>
	<g>
		<circle cx="-85.6" cy="-162.4" r="1.5"/>
	</g>
	<g>
		<circle cx="-81.6" cy="-156.5" r="1.5"/>
	</g>
	<g>
		<circle cx="-73.6" cy="-156.5" r="1.5"/>
	</g>
	<g>
		<circle cx="-77.6" cy="-162.4" r="1.5"/>
	</g>
	<g>
		<circle cx="-69.6" cy="-162.4" r="1.5"/>
	</g>
	<g>
		<circle cx="-85.6" cy="-150.5" r="1.5"/>
	</g>
	<g>
		<circle cx="-77.6" cy="-150.5" r="1.5"/>
	</g>
	<g>
		<circle cx="-69.6" cy="-150.5" r="1.5"/>
	</g>
</g>
<g>
	<g>
		<rect x="15.3" y="-191.5" width="2" height="8"/>
	</g>
	<g>
		<rect x="-3.7" y="-172.6" width="8" height="2"/>
	</g>
	<g>
		<rect x="4" y="-186.8" transform="matrix(0.7071 -0.7071 0.7071 0.7071 130.7308 -50.0285)" width="2" height="8"/>
	</g>
	<g>
		<rect x="23.5" y="-183.8" transform="matrix(0.7071 -0.7071 0.7071 0.7071 137.3242 -34.102)" width="8" height="2"/>
	</g>
	<g>
		<path d="M45.8-165.7c-1.4-6.7-7.4-11.8-14.6-11.8c-2.2,0-4.3,0.5-6.1,1.3c-1.7-3.2-5-5.4-8.9-5.4c-5.5,0-10,4.5-10,10
			c0,2.5,0.9,4.7,2.4,6.4c-1.4,1.8-2.3,4.1-2.3,6.7c0,6,4.8,10.8,10.8,10.9v0h1.2v-2h-0.7l-0.5,0c-4.9,0-8.8-4-8.8-8.9
			c0-4.9,4-8.9,8.9-8.9c0.1,0,0.3,0,0.4,0l0.1,0l1.3,0.1l0.6-1.2c2.2-4.4,6.6-7.1,11.5-7.1c6.1,0,11.4,4.3,12.6,10.2l0.3,1.5
			l1.5,0.1c3.7,0.2,6.6,3.3,6.6,7c0,3.9-3.1,7-7,7.1c0,0-0.1,0-0.1,0l-2,0h-1.8v2h3.8v0c0,0,0.1,0,0.1,0c5,0,9.1-4.1,9.1-9.1
			C54.3-161.5,50.6-165.4,45.8-165.7z M17.9-169.3c-0.2,0-0.5,0-0.7,0c-2.8,0-5.3,1-7.2,2.7c-1.1-1.4-1.8-3.1-1.8-5c0-4.4,3.6-8,8-8
			c3.1,0,5.8,1.8,7.1,4.3C21-173.8,19.1-171.7,17.9-169.3z"/>
	</g>
	<g>
		<circle cx="21.8" cy="-154.1" r="1.5"/>
	</g>
	<g>
		<circle cx="25.8" cy="-148.1" r="1.5"/>
	</g>
	<g>
		<circle cx="33.8" cy="-148.1" r="1.5"/>
	</g>
	<g>
		<circle cx="29.8" cy="-154.1" r="1.5"/>
	</g>
	<g>
		<circle cx="37.8" cy="-154.1" r="1.5"/>
	</g>
	<g>
		<circle cx="21.8" cy="-142.1" r="1.5"/>
	</g>
	<g>
		<circle cx="29.8" cy="-142.1" r="1.5"/>
	</g>
	<g>
		<circle cx="37.8" cy="-142.1" r="1.5"/>
	</g>
</g>
<g>
	<g>
		<path d="M141.8-169.6c-1.4-6.7-7.4-11.8-14.6-11.8c-1.8,0-3.5,0.3-5.1,0.9c-0.9-5.1-5.4-9-10.8-9c-0.4,0-0.8,0-1.2,0.1
			c0.7,1.1,1.2,2.4,1.2,3.9c0,3.9-3.1,7-7,7c-1.4,0-2.8-0.4-3.9-1.2c0,0.4-0.1,0.8-0.1,1.2c0,3.7,1.8,7,4.7,9
			c-1.7,1.9-2.7,4.4-2.7,7.1c0,6,4.8,10.8,10.8,10.9v0h1.2v-2h-0.7l-0.5,0c-4.9,0-8.8-4-8.8-8.9c0-4.9,4-8.9,8.9-8.9
			c0.2,0,0.3,0,0.4,0l0.1,0l1.3,0.1l0.6-1.2c2.2-4.4,6.6-7.1,11.5-7.1c6.1,0,11.4,4.3,12.6,10.2l0.3,1.5l1.5,0.1
			c3.7,0.2,6.6,3.3,6.6,7c0,3.9-3.1,7-7,7.1c0,0-0.1,0-0.1,0l-2,0h-1.8v2h3.8v0c0,0,0.1,0,0.1,0c5,0,9.1-4.1,9.1-9.1
			C150.3-165.4,146.5-169.3,141.8-169.6z M113.9-173.3c-0.2,0-0.5,0-0.7,0c-2.5,0-4.9,0.9-6.7,2.3c-2-1.3-3.5-3.4-4-5.8
			c0.6,0.1,1.2,0.2,1.8,0.2c5,0,9-4,9-9c0-0.6-0.1-1.2-0.2-1.8c3.7,0.8,6.6,3.8,7.1,7.6C117.5-178.2,115.3-176,113.9-173.3z"/>
	</g>
	<g>
		<circle cx="117.8" cy="-158" r="1.5"/>
	</g>
	<g>
		<circle cx="121.8" cy="-152" r="1.5"/>
	</g>
	<g>
		<circle cx="129.8" cy="-152" r="1.5"/>
	</g>
	<g>
		<circle cx="125.8" cy="-158" r="1.5"/>
	</g>
	<g>
		<circle cx="133.8" cy="-158" r="1.5"/>
	</g>
	<g>
		<circle cx="117.8" cy="-146" r="1.5"/>
	</g>
	<g>
		<circle cx="125.8" cy="-146" r="1.5"/>
	</g>
	<g>
		<circle cx="133.8" cy="-146" r="1.5"/>
	</g>
</g>
<g>
	<path d="M452.9-268.5c-1.6-7.4-8.2-13-16.1-13c-6.4,0-12,3.7-14.7,9c-0.3,0-0.5,0-0.8,0c-6.6,0-12,5.4-12,12c0,6.6,5.3,12,11.9,12
		v0h2.1v-2h-1.6l-0.4,0c-5.5,0-9.9-4.5-9.9-10c0-5.5,4.5-10,10-10c0.2,0,0.3,0,0.5,0l0.1,0l1.3,0.1l0.6-1.2
		c2.5-4.9,7.4-7.9,12.9-7.9c6.8,0,12.8,4.8,14.2,11.4l0.3,1.5l1.5,0.1c4.2,0.3,7.5,3.8,7.5,8c0,4.4-3.6,8-8,8c0,0-0.1,0-0.1,0l-2,0
		h-2.9v2h4.9v0c0,0,0.1,0,0.1,0c5.5,0,10-4.5,10-10C462.3-263.9,458.2-268.2,452.9-268.5z"/>
	<circle cx="427.3" cy="-241.1" r="1.5"/>
	<circle cx="435.3" cy="-235.1" r="1.5"/>
	<circle cx="443.3" cy="-239.1" r="1.5"/>
	<rect x="426.3" y="-257.5" width="2" height="12"/>
	<polygon points="436.3,-239.6 436.3,-241.5 436.3,-253.5 434.3,-253.5 434.3,-241.5 434.3,-239.6 434.3,-239.6 436.3,-239.6 	"/>
	<polygon points="444.3,-243.8 444.3,-245.5 444.3,-257.5 442.3,-257.5 442.3,-245.5 442.3,-243.8 442.3,-243.6 444.3,-243.6 	"/>
</g>
<g>
	<rect x="-295.4" y="-196.9" width="2" height="8"/>
	<rect x="-314.4" y="-178" width="8" height="2"/>
	<rect x="-306.8" y="-192.2" transform="matrix(0.7071 -0.7071 0.7071 0.7071 43.5595 -271.3518)" width="2" height="8"/>
	<rect x="-287.2" y="-189.3" transform="matrix(0.7071 -0.7071 0.7071 0.7071 50.153 -255.4254)" width="8" height="2"/>
	<path d="M-264.9-171.1c-1.4-6.7-7.4-11.8-14.6-11.8c-2.2,0-4.3,0.5-6.1,1.3c-1.7-3.2-5-5.4-8.9-5.4c-5.5,0-10,4.5-10,10
		c0,2.5,0.9,4.7,2.4,6.4c-1.4,1.8-2.3,4.1-2.3,6.7c0,6,4.8,10.8,10.8,10.9v0h1.2v-2h-0.7l-0.5,0c-4.9,0-8.8-4-8.8-8.9
		c0-4.9,4-8.9,8.9-8.9c0.1,0,0.3,0,0.4,0l0.1,0l1.3,0.1l0.6-1.2c2.2-4.4,6.6-7.1,11.5-7.1c6.1,0,11.4,4.3,12.6,10.2l0.3,1.5l1.5,0.1
		c3.7,0.2,6.6,3.3,6.6,7c0,3.9-3.1,7-7,7.1c0,0-0.1,0-0.1,0l-2,0h-0.8v2h2.8v0c0,0,0.1,0,0.1,0c5,0,9.1-4.1,9.1-9.1
		C-256.4-166.9-260.2-170.8-264.9-171.1z M-292.8-174.7c-0.2,0-0.5,0-0.7,0c-2.8,0-5.3,1-7.2,2.7c-1.1-1.4-1.8-3.1-1.8-5
		c0-4.4,3.6-8,8-8c3.1,0,5.8,1.8,7.1,4.3C-289.7-179.2-291.6-177.2-292.8-174.7z"/>
	<circle cx="-288.4" cy="-144.5" r="1.5"/>
	<circle cx="-280.4" cy="-138.5" r="1.5"/>
	<circle cx="-272.4" cy="-142.5" r="1.5"/>
	<rect x="-289.4" y="-161" width="2" height="12"/>
	<polygon points="-279.4,-143.1 -279.4,-145 -279.4,-157 -281.4,-157 -281.4,-145 -281.4,-143.1 -281.4,-143 -279.4,-143 	"/>
	<polygon points="-271.4,-147.3 -271.4,-149 -271.4,-161 -273.4,-161 -273.4,-149 -273.4,-147.3 -273.4,-147 -271.4,-147 	"/>
</g>
<g>
	<path d="M-164.3-174.1c-1.4-6.7-7.4-11.8-14.6-11.8c-1.8,0-3.5,0.3-5.1,0.9c-0.9-5.1-5.4-9-10.8-9c-0.4,0-0.8,0-1.2,0.1
		c0.7,1.1,1.2,2.4,1.2,3.9c0,3.9-3.1,7-7,7c-1.4,0-2.8-0.4-3.9-1.2c0,0.4-0.1,0.8-0.1,1.2c0,3.7,1.8,7,4.7,9
		c-1.7,1.9-2.7,4.4-2.7,7.1c0,6,4.8,10.8,10.8,10.9v0h1.2v-2h-0.7l-0.5,0c-4.9,0-8.8-4-8.8-8.9c0-4.9,4-8.9,8.9-8.9
		c0.1,0,0.3,0,0.4,0l0.1,0l1.3,0.1l0.6-1.2c2.2-4.4,6.6-7.1,11.5-7.1c6.1,0,11.4,4.3,12.6,10.2l0.3,1.5l1.5,0.1
		c3.7,0.2,6.6,3.3,6.6,7c0,3.9-3.1,7-7,7.1c0,0-0.1,0-0.1,0l-2,0h-0.8v2h2.8v0c0,0,0.1,0,0.1,0c5,0,9.1-4.1,9.1-9.1
		C-155.8-169.9-159.6-173.8-164.3-174.1z M-192.2-177.7c-0.2,0-0.5,0-0.7,0c-2.5,0-4.9,0.9-6.7,2.3c-2-1.3-3.5-3.4-4-5.8
		c0.6,0.1,1.2,0.2,1.8,0.2c5,0,9-4,9-9c0-0.6-0.1-1.2-0.2-1.8c3.7,0.8,6.6,3.8,7.1,7.6C-188.6-182.7-190.8-180.5-192.2-177.7z"/>
	<circle cx="-187.8" cy="-147.5" r="1.5"/>
	<circle cx="-179.8" cy="-141.5" r="1.5"/>
	<circle cx="-171.8" cy="-145.5" r="1.5"/>
	<rect x="-188.8" y="-164" width="2" height="12"/>
	<polygon points="-178.8,-146.1 -178.8,-148 -178.8,-160 -180.8,-160 -180.8,-148 -180.8,-146.1 -180.8,-146 -178.8,-146 	"/>
	<polygon points="-170.8,-150.3 -170.8,-152 -170.8,-164 -172.8,-164 -172.8,-152 -172.8,-150.3 -172.8,-150 -170.8,-150 	"/>
</g>
<g>
	<rect x="-312.4" y="-69.7" width="56" height="2"/>
	<rect x="-308.4" y="-63.7" width="50" height="2"/>
	<rect x="-302.4" y="-57.7" width="36" height="2"/>
	<rect x="-310.4" y="-75.7" width="52" height="2"/>
	<path d="M-298.6-83.7c0.2,0,0.3,0,0.5,0l0.1,0l1.3,0.1l0.6-1.2c2.5-4.9,7.4-7.9,12.9-7.9c6.8,0,12.8,4.8,14.2,11.4l0.3,1.5l1.5,0.1
		c1.2,0.1,2.3,0.4,3.3,1h3.3c-1.7-1.7-4-2.8-6.5-3c-1.6-7.4-8.2-13-16.1-13c-6.4,0-12,3.7-14.7,9c-0.3,0-0.5,0-0.8,0
		c-4.8,0-9,2.9-10.9,7h2.3C-305.5-81.7-302.3-83.7-298.6-83.7z"/>
</g>
<g>
	<rect x="-191.3" y="-97.2" width="2" height="8"/>
	<rect x="-210.3" y="-78.3" width="8" height="2"/>
	<rect x="-202.7" y="-92.5" transform="matrix(0.7071 -0.7071 0.7071 0.7071 3.5401 -168.5338)" width="2" height="8"/>
	<rect x="-183.1" y="-89.5" transform="matrix(0.7071 -0.7071 0.7071 0.7071 10.1335 -152.6073)" width="8" height="2"/>
	<rect x="-201.3" y="-63.3" width="50" height="2"/>
	<rect x="-197.3" y="-57.3" width="44" height="2"/>
	<rect x="-191.3" y="-52.3" width="30" height="2"/>
	<rect x="-199.3" y="-69.3" width="46" height="2"/>
	<path d="M-198.4-71.3h0.8h1.9h1c1.5-1.1,3.3-1.7,5.2-1.7c0.1,0,0.3,0,0.4,0l0.1,0l1.3,0.1l0.6-1.2c2.2-4.4,6.6-7.1,11.5-7.1
		c5.9,0,11.2,4.1,12.6,9.9h2v-0.1c-1.4-6.7-7.4-11.8-14.6-11.8c-2.2,0-4.3,0.5-6.1,1.3c-1.7-3.2-5-5.4-8.9-5.4c-5.5,0-10,4.5-10,10
		C-200.4-75-199.7-73-198.4-71.3z M-190.4-85.3c3.1,0,5.8,1.8,7.1,4.3c-2.3,1.4-4.2,3.5-5.4,5.9c-0.2,0-0.5,0-0.7,0
		c-2.8,0-5.3,1-7.2,2.7c-1.1-1.4-1.8-3.1-1.8-5C-198.4-81.7-194.8-85.3-190.4-85.3z"/>
</g>
<g>
	<rect x="-102.6" y="-66.8" width="50" height="2"/>
	<rect x="-98.6" y="-60.8" width="44" height="2"/>
	<rect x="-92.6" y="-55.8" width="30" height="2"/>
	<rect x="-100.6" y="-72.8" width="46" height="2"/>
	<path d="M-98.9-74.8L-98.9-74.8h1.9h1.1c1.5-1.1,3.3-1.7,5.2-1.7c0.2,0,0.3,0,0.4,0l0.1,0l1.3,0.1l0.6-1.2
		c2.2-4.4,6.6-7.1,11.5-7.1c5.9,0,11.2,4.1,12.6,9.9h2v-0.1c-1.4-6.7-7.4-11.8-14.6-11.8c-1.8,0-3.5,0.3-5.1,0.9
		c-0.9-5.1-5.4-9-10.8-9c-0.4,0-0.8,0-1.2,0.1c0.7,1.1,1.2,2.4,1.2,3.9c0,3.9-3.1,7-7,7c-1.4,0-2.8-0.4-3.9-1.2
		c0,0.4-0.1,0.8-0.1,1.2C-103.6-80-101.7-76.7-98.9-74.8z M-99.6-81.8c5,0,9-4,9-9c0-0.6-0.1-1.2-0.2-1.8c3.7,0.8,6.6,3.8,7.1,7.6
		c-2.7,1.4-4.9,3.7-6.3,6.4c-0.2,0-0.5,0-0.7,0c-2.5,0-4.9,0.9-6.7,2.3c-2-1.3-3.5-3.4-4-5.8C-100.8-81.8-100.2-81.8-99.6-81.8z"/>
</g>
<g>
	<path d="M29.3-63.7H9.8l-0.6,0c-5.5,0-9.9-4.5-9.9-10c0-5.5,4.5-10,10-10c0.2,0,0.3,0,0.5,0l0.1,0l1.3,0.1l0.6-1.2
		c2.5-4.9,7.4-7.9,12.9-7.9c6.8,0,12.8,4.8,14.2,11.4l0.3,1.5l1.5,0.1c1.8,0.1,3.5,0.8,4.7,2h2.7c-1.7-2.3-4.3-3.8-7.4-4
		c-1.6-7.4-8.2-13-16.1-13c-6.4,0-12,3.7-14.7,9c-0.3,0-0.5,0-0.8,0c-6.6,0-12,5.4-12,12c0,6.6,5.3,12,11.9,12v0h20.1
		c2.2,0,4,1.8,4,4s-1.8,4-4,4v2c3.3,0,6-2.7,6-6C35.3-61.1,32.6-63.7,29.3-63.7z"/>
	<path d="M33.3-67.7h-16v2h16c3.3,0,6-2.7,6-6c0-3.3-2.7-6-6-6v2c2.2,0,4,1.8,4,4S35.5-67.7,33.3-67.7z"/>
	<path d="M46.3-73.7c1.7,0,3,1.3,3,3s-1.3,3-3,3c0,0-0.1,0-0.1,0h-4.9c0,0,0,0,0,0h0v2h5.5v-0.1c2.5-0.3,4.5-2.4,4.5-4.9
		c0-2.8-2.2-5-5-5L46.3-73.7L46.3-73.7z"/>
	<path d="M50.3-63.7h-13v2h9c0,0,0,0,0,0h3.9c0,0,0.1,0,0.1,0c1.7,0,3,1.3,3,3s-1.3,3-3,3v2c2.8,0,5-2.2,5-5S53.1-63.7,50.3-63.7z"
		/>
	<rect x="11.3" y="-67.7" width="4" height="2"/>
</g>
<path d="M-178.3-462.8c6.9,1.3,12.2,7.4,12.2,14.7c0,8.3-6.7,15-15,15c-6.8,0-12.5-4.5-14.4-10.7c1.4,0.5,2.9,0.7,4.4,0.7
	c7.7,0,14-6.3,14-14C-177-459.1-177.5-461.1-178.3-462.8 M-181-465.1c-0.3,0-0.7,0-1,0.1c1.9,2.1,3,4.9,3,7.9c0,6.6-5.4,12-12,12
	c-2.6,0-5-0.8-7-2.2c0.4,9,7.8,16.3,17,16.3c9.4,0,17-7.6,17-17S-171.6-465.1-181-465.1L-181-465.1z"/>
<g>
	<path d="M-284.4-460.1c-7.2,0-13,5.8-13,13c0,7.2,5.8,13,13,13s13-5.8,13-13C-271.4-454.3-277.2-460.1-284.4-460.1z M-284.4-436.1
		c-6.1,0-11-4.9-11-11c0-6.1,4.9-11,11-11s11,4.9,11,11C-273.4-441-278.4-436.1-284.4-436.1z"/>
	<rect x="-285.4" y="-473.1" width="2" height="10"/>
	<rect x="-285.4" y="-431.1" width="2" height="10"/>
	<rect x="-310.4" y="-448.1" width="10" height="2"/>
	<rect x="-268.4" y="-448.1" width="10" height="2"/>
	<rect x="-274.9" y="-462.8" transform="matrix(0.7071 -0.7071 0.7071 0.7071 247.5414 -325.9891)" width="10.4" height="2"/>
	<rect x="-304.3" y="-433.4" transform="matrix(0.7071 -0.7071 0.7071 0.7071 218.1396 -338.1717)" width="10.4" height="2"/>
	<rect x="-300.1" y="-467" transform="matrix(0.7071 -0.7071 0.7071 0.7071 238.9252 -346.7798)" width="2" height="10.4"/>
	<rect x="-270.7" y="-437.6" transform="matrix(0.7071 -0.7072 0.7072 0.7071 226.7325 -317.4013)" width="2" height="10.4"/>
</g>
<g>
	<rect x="113.7" y="-102.2" width="2" height="8"/>
	<rect x="94.8" y="-83.3" width="8" height="2"/>
	<rect x="102.5" y="-97.5" transform="matrix(0.7071 -0.7071 0.7071 0.7071 96.4021 45.7946)" width="2" height="8"/>
	<rect x="122" y="-94.5" transform="matrix(0.7071 -0.7071 0.7071 0.7071 102.9955 61.721)" width="8" height="2"/>
	<path d="M128.8-60.2L128.8-60.2l-12.5,0l-0.6,0c-4.9,0-8.8-4-8.8-8.9c0-4.9,4-8.9,8.9-8.9c0.2,0,0.3,0,0.4,0l0.1,0l1.3,0.1l0.6-1.2
		c2.2-4.4,6.6-7.1,11.5-7.1c5.9,0,11.1,4.1,12.5,9.8h2.1c-1.4-6.7-7.4-11.8-14.6-11.8c-2.2,0-4.3,0.5-6.1,1.3
		c-1.7-3.2-5-5.4-8.9-5.4c-5.5,0-10,4.5-10,10c0,2.5,0.9,4.7,2.4,6.4c-1.4,1.8-2.3,4.1-2.3,6.7c0,6,4.8,10.8,10.8,10.9v0h13.1v0
		c2.2,0,4,1.8,4,4s-1.8,4-4,4v2c3.3,0,6-2.7,6-6C134.8-57.6,132.1-60.2,128.8-60.2z M114.7-90.2c3.1,0,5.8,1.8,7.1,4.3
		c-2.3,1.4-4.2,3.5-5.4,5.9c-0.2,0-0.5,0-0.7,0c-2.8,0-5.3,1-7.2,2.7c-1.1-1.4-1.8-3.1-1.8-5C106.7-86.6,110.3-90.2,114.7-90.2z"/>
	<path d="M132.8-64.2h-10v2h10c3.3,0,6-2.7,6-6c0-3.3-2.7-6-6-6v2c2.2,0,4,1.8,4,4S135-64.2,132.8-64.2z"/>
	<path d="M140.8-64.2L140.8-64.2l0,2h5.5v-0.1c2.5-0.3,4.5-2.4,4.5-4.9c0-2.8-2.2-5-5-5v2c1.7,0,3,1.3,3,3s-1.3,3-3,3
		c0,0-0.1,0-0.1,0L140.8-64.2C140.8-64.2,140.8-64.2,140.8-64.2z"/>
	<path d="M149.8-60.2h-13v2h9c0,0,0,0,0,0h3.9c0,0,0.1,0,0.1,0c1.7,0,3,1.3,3,3s-1.3,3-3,3v2c2.8,0,5-2.2,5-5S152.5-60.2,149.8-60.2
		z"/>
	<rect x="116.8" y="-64.2" width="4" height="2"/>
</g>
<g>
	<path d="M228.7-62.2L228.7-62.2l-12.5,0l-0.6,0c-4.9,0-8.8-4-8.8-8.9c0-4.9,4-8.9,8.9-8.9c0.1,0,0.3,0,0.4,0l0.1,0l1.3,0.1l0.6-1.2
		c2.2-4.4,6.6-7.1,11.5-7.1c5.9,0,11.1,4.1,12.5,9.8h2.1c-1.4-6.7-7.4-11.8-14.6-11.8c-1.8,0-3.5,0.3-5.1,0.9c-0.9-5.1-5.4-9-10.8-9
		c-0.4,0-0.8,0-1.2,0.1c0.7,1.1,1.2,2.4,1.2,3.9c0,3.9-3.1,7-7,7c-1.4,0-2.8-0.4-3.9-1.2c0,0.4-0.1,0.8-0.1,1.2c0,3.7,1.9,7,4.7,9
		c-1.7,1.9-2.7,4.4-2.7,7.1c0,6,4.8,10.8,10.8,10.9v0h13.1v0c2.2,0,4,1.8,4,4s-1.8,4-4,4v2c3.3,0,6-2.7,6-6
		C234.7-59.6,232-62.2,228.7-62.2z M204.9-85.5c0.6,0.1,1.2,0.2,1.8,0.2c5,0,9-4,9-9c0-0.6-0.1-1.2-0.2-1.8c3.7,0.8,6.6,3.8,7.1,7.7
		c-2.7,1.4-4.9,3.7-6.3,6.4c-0.2,0-0.5,0-0.7,0c-2.5,0-4.9,0.9-6.7,2.3C206.9-80.9,205.4-83,204.9-85.5z"/>
	<path d="M232.7-66.2h-10v2h10c3.3,0,6-2.7,6-6c0-3.3-2.7-6-6-6v2c2.2,0,4,1.8,4,4S234.9-66.2,232.7-66.2z"/>
	<path d="M240.8-66.2L240.8-66.2l0,2h5.5v-0.1c2.5-0.3,4.5-2.4,4.5-4.9c0-2.8-2.2-5-5-5v2c1.7,0,3,1.3,3,3s-1.3,3-3,3
		c0,0-0.1,0-0.1,0L240.8-66.2C240.7-66.3,240.8-66.2,240.8-66.2z"/>
	<path d="M249.7-62.2h-13v2h9c0,0,0,0,0,0h3.9c0,0,0.1,0,0.1,0c1.7,0,3,1.3,3,3s-1.3,3-3,3v2c2.8,0,5-2.2,5-5S252.5-62.2,249.7-62.2
		z"/>
	<rect x="216.7" y="-66.2" width="4" height="2"/>
</g>
<g>
	<rect x="329.6" y="-99.7" width="2" height="10"/>
	<rect x="304.6" y="-74.7" width="10" height="2"/>
	<rect x="340.1" y="-89.4" transform="matrix(0.7071 -0.7071 0.7071 0.7071 163.6403 218.2906)" width="10.4" height="2"/>
	<rect x="314.9" y="-93.6" transform="matrix(0.7071 -0.7071 0.7071 0.7071 155.024 197.4999)" width="2" height="10.4"/>
	<path d="M334.6-59.7h-24v2h24c2.2,0,4,1.8,4,4s-1.8,4-4,4v2c3.3,0,6-2.7,6-6C340.6-57,337.9-59.7,334.6-59.7z"/>
	<path d="M346.6-63.7L346.6-63.7l0,2h5.5v-0.1c2.5-0.3,4.5-2.4,4.5-4.9c0-2.8-2.2-5-5-5v2c1.7,0,3,1.3,3,3s-1.3,3-3,3
		c0,0-0.1,0-0.1,0L346.6-63.7C346.6-63.7,346.6-63.7,346.6-63.7z"/>
	<path d="M355.6-59.7h-13v2h9c0,0,0,0,0,0h3.9c0,0,0.1,0,0.1,0c1.7,0,3,1.3,3,3s-1.3,3-3,3v2c2.8,0,5-2.2,5-5S358.4-59.7,355.6-59.7
		z"/>
	<path d="M322.3-63.7h-11.7v2h12h0.8h15.2c3.3,0,6-2.7,6-6c0-3.3-2.7-6-6-6v2c2.2,0,4,1.8,4,4s-1.8,4-4,4h-12.5
		c-3.8-1.7-6.5-5.6-6.5-10c0-6.1,4.9-11,11-11c5.4,0,9.9,3.9,10.8,9h2c-1-6.2-6.3-11-12.8-11c-7.2,0-13,5.8-13,13
		C317.6-69.7,319.5-66.1,322.3-63.7z"/>
</g>
<g>
	<path d="M434.9-66.2h-24v2h24c2.2,0,4,1.8,4,4s-1.8,4-4,4v2c3.3,0,6-2.7,6-6C440.9-63.5,438.2-66.2,434.9-66.2z"/>
	<path d="M452.4-68.2L452.4-68.2c2.5-0.3,4.5-2.4,4.5-5c0-2.8-2.2-5-5-5v2c1.7,0,3,1.3,3,3s-1.3,3-3,3c0,0-0.1,0-0.1,0h-4.9
		c0,0,0,0,0,0h0v2H452.4z"/>
	<path d="M455.9-66.2h-13v2h9c0,0,0,0,0,0h3.9c0,0,0.1,0,0.1,0c1.7,0,3,1.3,3,3s-1.3,3-3,3v2c2.8,0,5-2.2,5-5S458.6-66.2,455.9-66.2
		z"/>
	<path d="M423.7-68.2h15.2c3.3,0,6-2.7,6-6c0-3.3-2.7-6-6-6v2c2.2,0,4,1.8,4,4s-1.8,4-4,4h-12.6c-2.6-1.2-4.7-3.3-5.7-6
		c0.8,0.2,1.7,0.3,2.6,0.3c6.2,0,11.2-5,11.2-11.2c0-1.3-0.2-2.5-0.6-3.7c4,1.1,7.2,4.5,7.9,8.6h2c-1-6.2-6.3-11-12.8-11
		c-0.3,0-0.5,0-0.8,0c1.4,1.6,2.3,3.7,2.3,6.1c0,5.1-4.1,9.2-9.2,9.2c-2,0-3.8-0.6-5.3-1.7c0.2,3.8,2,7.2,4.7,9.4h-11.7v2h12
		L423.7-68.2L423.7-68.2z"/>
</g>
<g>
	<path d="M-284.9,19h-20c-1.1,0-2-0.9-2-2s0.9-2,2-2h3.4h0.6v-2h-4c-2.2,0-4,1.8-4,4s1.8,4,4,4h20c2.2,0,4,1.8,4,4s-1.8,4-4,4v2
		c3.3,0,6-2.7,6-6S-281.6,19-284.9,19z"/>
	<path d="M-282.9,3v2c2.2,0,4,1.8,4,4s-1.8,4-4,4h-16v2h16c3.3,0,6-2.7,6-6C-276.9,5.6-279.6,3-282.9,3z"/>
	<path d="M-276.9,15v2h5.5v-0.1c2.5-0.3,4.5-2.4,4.5-4.9c0-2.8-2.2-5-5-5v2c1.7,0,3,1.3,3,3s-1.3,3-3,3c0,0-0.1,0-0.1,0L-276.9,15
		C-276.9,15-276.9,15-276.9,15L-276.9,15z"/>
	<path d="M-265.9,19h-11v2h7c0,0,0,0,0,0h3.9c0,0,0.1,0,0.1,0c1.7,0,3,1.3,3,3s-1.3,3-3,3v2c2.8,0,5-2.2,5-5S-263.2,19-265.9,19z"/>
</g>
<path d="M251.4,5.3L251.4,5.3l-38.4,0c-1.1,0-2-0.9-2-2s0.9-2,2-2h33c2.8,0,5-2.2,5-5s-2.2-5-5-5h-37.9v0c0,0-0.1,0-0.1,0
	c-2.8,0-5,2.2-5,5s2.2,5,5,5v-2c-1.7,0-3-1.3-3-3s1.3-3,3-3h0.1h3.9h34c1.7,0,3,1.3,3,3s-1.3,3-3,3h-33c-2.2,0-4,1.8-4,4s1.8,4,4,4
	h38c1.1,0,2,0.9,2,2s-0.9,2-2,2h-32c-2.2,0-4,1.8-4,4s1.8,4,4,4h22c1.1,0,2,0.9,2,2s-0.9,2-2,2h-24v0c-2.2,0-4,1.8-4,4s1.8,4,4,4v0
	h12c1.1,0,2,0.9,2,2s-0.9,2-2,2h-2c-2.2,0-4,1.8-4,4s1.8,4,4,4v-2c-1.1,0-2-0.9-2-2s0.9-2,2-2h2c2.2,0,4-1.8,4-4s-1.8-4-4-4h-12
	c-1.1,0-2-0.9-2-2s0.9-2,2-2h24c2.2,0,4-1.8,4-4c0-2.2-1.7-3.9-3.8-4v0H219c-1.1,0-2-0.9-2-2s0.9-2,2-2h32c2.2,0,4-1.8,4-4
	C255,7.2,253.4,5.5,251.4,5.3z"/>
<path d="M436.8-4v-2h-2v2c-13,0.5-23.5,11-24,24h1.7c1.1-1.2,2.7-2,4.6-2c2.3,0,4.2,1.2,5.3,3h1.8c1.1-1.8,3.1-3,5.3-3
	c2.2,0,4.1,1.1,5.2,2.9V36c0,2.2,1.8,4,4,4s4-1.8,4-4h-2c0,1.1-0.9,2-2,2s-2-0.9-2-2V20.8c1.1-1.7,3-2.9,5.2-2.9
	c2.3,0,4.2,1.2,5.3,3h1.8c1.1-1.8,3.1-3,5.3-3c1.8,0,3.4,0.8,4.6,2h1.7C460.2,7,449.8-3.5,436.8-4z M454.5,16
	c-2.5,0-4.7,1.1-6.2,2.9c-1.5-1.8-3.8-2.9-6.2-2.9s-4.7,1.1-6.2,2.9c-1.5-1.8-3.8-2.9-6.2-2.9s-4.7,1.1-6.2,2.9
	c-1.5-1.8-3.8-2.9-6.2-2.9c-1.4,0-2.7,0.4-3.9,1C415,6.2,424.5-2,435.8-2s20.7,8.2,22.6,19C457.3,16.3,455.9,16,454.5,16z"/>
<g>
	<path d="M31.5,120.3v-17.1c0-2.8-2.2-5-5-5s-5,2.2-5,5v17.1c-1.2,1.3-2,3-2,4.9c0,3.9,3.1,7,7,7s7-3.1,7-7
		C33.5,123.3,32.7,121.5,31.5,120.3z M26.5,130.2c-2.8,0-5-2.2-5-5c0-1.3,0.5-2.6,1.4-3.5l0.6-0.6v-0.8v-17.1c0-1.7,1.3-3,3-3
		s3,1.3,3,3v17.1v0.8l0.6,0.6c0.9,0.9,1.4,2.2,1.4,3.5C31.5,127.9,29.2,130.2,26.5,130.2z"/>
	<path d="M27.5,122.3v-15.2h-2v15.2c-1.2,0.4-2,1.5-2,2.8c0,1.7,1.3,3,3,3c1.7,0,3-1.3,3-3C29.5,123.9,28.6,122.8,27.5,122.3z
		 M26.5,126.2c-0.6,0-1-0.5-1-1s0.5-1,1-1s1,0.5,1,1S27,126.2,26.5,126.2z"/>
</g>
<g>
	<path d="M131.3,120.3v-17.1c0-2.8-2.2-5-5-5s-5,2.2-5,5v17.1c-1.2,1.3-2,3-2,4.9c0,3.9,3.1,7,7,7s7-3.1,7-7
		C133.3,123.3,132.5,121.5,131.3,120.3z M126.3,130.2c-2.8,0-5-2.2-5-5c0-1.3,0.5-2.6,1.4-3.5l0.6-0.6v-0.8v-17.1c0-1.7,1.3-3,3-3
		s3,1.3,3,3v17.1v0.8l0.6,0.6c0.9,0.9,1.4,2.2,1.4,3.5C131.3,127.9,129,130.2,126.3,130.2z"/>
	<path d="M127.3,122.3v-20.2h-2v20.2c-1.2,0.4-2,1.5-2,2.8c0,1.7,1.3,3,3,3c1.7,0,3-1.3,3-3C129.3,123.9,128.4,122.8,127.3,122.3z
		 M126.3,126.2c-0.6,0-1-0.5-1-1s0.5-1,1-1s1,0.5,1,1S126.8,126.2,126.3,126.2z"/>
</g>
<g>
	<path d="M-71.6,120.3v-17.1c0-2.8-2.2-5-5-5s-5,2.2-5,5v17.1c-1.2,1.3-2,3-2,4.9c0,3.9,3.1,7,7,7s7-3.1,7-7
		C-69.6,123.3-70.4,121.5-71.6,120.3z M-76.6,130.2c-2.8,0-5-2.2-5-5c0-1.3,0.5-2.6,1.4-3.5l0.6-0.6v-0.8v-17.1c0-1.7,1.3-3,3-3
		s3,1.3,3,3v17.1v0.8l0.6,0.6c0.9,0.9,1.4,2.2,1.4,3.5C-71.6,127.9-73.9,130.2-76.6,130.2z"/>
	<path d="M-75.6,122.3v-10.2h-2v10.2c-1.2,0.4-2,1.5-2,2.8c0,1.7,1.3,3,3,3c1.7,0,3-1.3,3-3C-73.6,123.9-74.5,122.8-75.6,122.3z
		 M-76.6,126.2c-0.6,0-1-0.5-1-1s0.5-1,1-1s1,0.5,1,1S-76.1,126.2-76.6,126.2z"/>
</g>
<g>
	<path d="M-175.3,120.3v-17.1c0-2.8-2.2-5-5-5s-5,2.2-5,5v17.1c-1.2,1.3-2,3-2,4.9c0,3.9,3.1,7,7,7s7-3.1,7-7
		C-173.3,123.3-174,121.5-175.3,120.3z M-180.3,130.2c-2.8,0-5-2.2-5-5c0-1.3,0.5-2.6,1.4-3.5l0.6-0.6v-0.8v-17.1c0-1.7,1.3-3,3-3
		s3,1.3,3,3v17.1v0.8l0.6,0.6c0.9,0.9,1.4,2.2,1.4,3.5C-175.3,127.9-177.5,130.2-180.3,130.2z"/>
	<path d="M-179.3,122.3v-5.2h-2v5.2c-1.2,0.4-2,1.5-2,2.8c0,1.7,1.3,3,3,3c1.7,0,3-1.3,3-3C-177.3,123.9-178.1,122.8-179.3,122.3z
		 M-180.3,126.2c-0.6,0-1-0.5-1-1s0.5-1,1-1s1,0.5,1,1S-179.7,126.2-180.3,126.2z"/>
</g>
<g>
	<path d="M-279.9,120.3v-17.1c0-2.8-2.2-5-5-5s-5,2.2-5,5v17.1c-1.2,1.3-2,3-2,4.9c0,3.9,3.1,7,7,7s7-3.1,7-7
		C-277.9,123.3-278.7,121.5-279.9,120.3z M-284.9,130.2c-2.8,0-5-2.2-5-5c0-1.3,0.5-2.6,1.4-3.5l0.6-0.6v-0.8v-17.1c0-1.7,1.3-3,3-3
		s3,1.3,3,3v17.1v0.8l0.6,0.6c0.9,0.9,1.4,2.2,1.4,3.5C-279.9,127.9-282.2,130.2-284.9,130.2z"/>
	<path d="M-284.9,122.2c-1.7,0-3,1.3-3,3c0,1.7,1.3,3,3,3c1.7,0,3-1.3,3-3C-281.9,123.5-283.3,122.2-284.9,122.2z M-284.9,126.2
		c-0.6,0-1-0.5-1-1s0.5-1,1-1s1,0.5,1,1S-284.4,126.2-284.9,126.2z"/>
</g>
<g>
	<path d="M220,100.5c-2.2,0-4,1.8-4,4c0,2.2,1.8,4,4,4c2.2,0,4-1.8,4-4C224,102.3,222.2,100.5,220,100.5z M220,106.5
		c-1.1,0-2-0.9-2-2s0.9-2,2-2s2,0.9,2,2S221.1,106.5,220,106.5z"/>
	<path d="M234,128.5c-4.4,0-8-3.6-8-8v-4c0-4.4,3.6-8,8-8c2.7,0,5.1,1.4,6.6,3.4l1.4-1.4c-1.8-2.4-4.7-4-8-4c-5.5,0-10,4.5-10,10v4
		c0,5.5,4.5,10,10,10c3.3,0,6.2-1.6,8-4l-1.4-1.4C239.1,127.1,236.7,128.5,234,128.5z"/>
</g>
<g>
	<path d="M324.7,100.4c-2.2,0-4,1.8-4,4c0,2.2,1.8,4,4,4c2.2,0,4-1.8,4-4C328.7,102.2,326.9,100.4,324.7,100.4z M324.7,106.4
		c-1.1,0-2-0.9-2-2s0.9-2,2-2s2,0.9,2,2S325.8,106.4,324.7,106.4z"/>
	<polygon points="344.6,108.5 344.6,106.5 332.6,106.5 330.6,106.5 330.6,130.5 332.6,130.5 332.6,118.5 340.6,118.5 340.6,116.5 
		332.6,116.5 332.6,108.5 	"/>
</g>
<g>
	<path d="M435.8,104.2c-7.2,0-13,5.8-13,13s5.8,13,13,13s13-5.8,13-13S443,104.2,435.8,104.2z M435.8,128.2c-6.1,0-11-4.9-11-11
		s4.9-11,11-11s11,4.9,11,11S441.8,128.2,435.8,128.2z"/>
	<path d="M431.5,121.4l6.4-2.1l2.1-6.4l-6.4,2.1L431.5,121.4z M435.2,116.6l1.6-0.5l-0.5,1.6l-1.6,0.5L435.2,116.6z"/>
</g>
<g>
	<path d="M-284.9,194.7c-7.2,0-13,5.8-13,13s5.8,13,13,13s13-5.8,13-13S-277.8,194.7-284.9,194.7z M-284.9,218.7
		c-6.1,0-11-4.9-11-11c0-6.1,4.9-11,11-11s11,4.9,11,11C-273.9,213.8-278.9,218.7-284.9,218.7z"/>
	<path d="M-282.4,206.1l-2.6-4.4l-2.5,4.3h0c-0.3,0.5-0.5,1-0.5,1.6c0,1.7,1.3,3,3,3s3-1.3,3-3C-282,207.1-282.1,206.6-282.4,206.1
		L-282.4,206.1L-282.4,206.1z M-285,208.6c-0.6,0-1-0.4-1-1c0-0.2,0.1-0.4,0.2-0.5l0.9-1.4l0.8,1.4c0.1,0.2,0.1,0.3,0.1,0.5
		C-284,208.2-284.4,208.6-285,208.6z"/>
</g>
<g>
	<path d="M-180.1,194.7c-7.2,0-13,5.8-13,13s5.8,13,13,13s13-5.8,13-13S-173,194.7-180.1,194.7z M-180.1,218.7c-6.1,0-11-4.9-11-11
		c0-6.1,4.9-11,11-11s11,4.9,11,11C-169.1,213.8-174.1,218.7-180.1,218.7z"/>
	<path d="M-178.6,205.1c-0.5-0.3-1-0.5-1.6-0.5c-1.7,0-3,1.3-3,3c0,1.7,1.3,3,3,3c0.6,0,1.1-0.2,1.5-0.4v0l4.4-2.6L-178.6,205.1
		L-178.6,205.1L-178.6,205.1z M-179.7,208.5c-0.2,0.1-0.3,0.1-0.5,0.1c-0.6,0-1-0.4-1-1c0-0.6,0.4-1,1-1c0.2,0,0.4,0.1,0.5,0.2
		l1.4,0.9L-179.7,208.5z"/>
</g>
<g>
	<path d="M-77.1,194.7c-7.2,0-13,5.8-13,13s5.8,13,13,13s13-5.8,13-13S-69.9,194.7-77.1,194.7z M-77.1,218.7c-6.1,0-11-4.9-11-11
		c0-6.1,4.9-11,11-11s11,4.9,11,11C-66.1,213.8-71,218.7-77.1,218.7z"/>
	<path d="M-77.1,204.6c-1.7,0-3,1.3-3,3c0,0.6,0.2,1.1,0.4,1.5h0l2.6,4.4l2.5-4.3h0c0.3-0.5,0.5-1,0.5-1.6
		C-74.1,206-75.4,204.6-77.1,204.6z M-76.3,208.2l-0.9,1.4l-0.8-1.4c-0.1-0.2-0.1-0.3-0.1-0.5c0-0.6,0.4-1,1-1s1,0.4,1,1
		C-76.1,207.8-76.2,208-76.3,208.2z"/>
</g>
<g>
	<path d="M26.3,194.7c-7.2,0-13,5.8-13,13s5.8,13,13,13s13-5.8,13-13S33.5,194.7,26.3,194.7z M26.3,218.7c-6.1,0-11-4.9-11-11
		c0-6.1,4.9-11,11-11s11,4.9,11,11C37.3,213.8,32.4,218.7,26.3,218.7z"/>
	<path d="M26.3,204.6c-0.6,0-1.1,0.2-1.5,0.4v0l-4.4,2.6l4.3,2.5v0c0.5,0.3,1,0.5,1.6,0.5c1.7,0,3-1.3,3-3
		C29.3,206,27.9,204.6,26.3,204.6z M26.3,208.6c-0.2,0-0.4-0.1-0.5-0.2l-1.4-0.9l1.4-0.8c0.2-0.1,0.3-0.1,0.5-0.1c0.6,0,1,0.4,1,1
		C27.3,208.2,26.8,208.6,26.3,208.6z"/>
</g>
<g>
	<rect x="-181.8" y="-2" width="2" height="10"/>
	<rect x="-171.3" y="8.3" transform="matrix(0.7071 -0.7071 0.7071 0.7071 -55.2025 -114.7634)" width="10.4" height="2"/>
	<rect x="-196.5" y="4.1" transform="matrix(0.7071 -0.7071 0.7071 0.7071 -63.8181 -135.5537)" width="2" height="10.4"/>
	<polygon points="-187.5,27.2 -186.1,28.6 -181.8,24.4 -181.8,34 -179.8,34 -179.8,24.4 -175.6,28.6 -174.2,27.2 -180.8,20.5 	"/>
	<path d="M-167.8,24C-167.8,24-167.8,24-167.8,24c0-7.2-5.8-13-13-13s-13,5.8-13,13c0,0,0,0,0,0h-13v2h18v-2h-3c0,0,0,0,0,0
		c0-6.1,4.9-11,11-11s11,4.9,11,11c0,0,0,0,0,0h-3v2h18v-2H-167.8z"/>
</g>
<g>
	<rect x="-78.1" y="-3.2" width="2" height="10"/>
	<rect x="-67.6" y="7.1" transform="matrix(0.7071 -0.7071 0.7071 0.7071 -23.976 -41.7529)" width="10.4" height="2"/>
	<rect x="-92.8" y="2.9" transform="matrix(0.7071 -0.7071 0.7071 0.7071 -32.5923 -62.5436)" width="2" height="10.4"/>
	<polygon points="-76.1,31.3 -76.1,20.8 -78.1,20.8 -78.1,31.3 -82.3,27.1 -83.8,28.5 -77.1,35.1 -70.4,28.5 -71.8,27.1 	"/>
	<path d="M-64.1,22.8C-64.1,22.8-64.1,22.8-64.1,22.8c0-7.2-5.8-13-13-13s-13,5.8-13,13c0,0,0,0,0,0h-13v2h22v-2h-7c0,0,0,0,0,0
		c0-6.1,4.9-11,11-11s11,4.9,11,11c0,0,0,0,0,0h-7v2h22v-2H-64.1z"/>
</g>
<g>
	<polygon points="126.3,30.8 126.3,16.4 124.3,16.4 124.3,30.8 120,26.5 118.6,27.9 125.3,34.6 131.9,27.9 130.5,26.5 	"/>
	<path d="M141.9,11.4c-1.6-7.4-8.2-13-16.1-13c-6.4,0-12,3.7-14.7,9c-0.3,0-0.5,0-0.8,0c-6.6,0-12,5.4-12,12c0,6.6,5.3,12,11.9,12v0
		h6.1v-2h-5.6l-0.4,0c-5.5,0-9.9-4.5-9.9-10c0-5.5,4.5-10,10-10c0.2,0,0.3,0,0.5,0l0.1,0l1.3,0.1l0.6-1.2c2.5-4.9,7.4-7.9,12.9-7.9
		c6.8,0,12.8,4.8,14.2,11.4l0.3,1.5l1.5,0.1c4.2,0.3,7.5,3.8,7.5,8c0,4.4-3.6,8-8,8c-0.1,0-0.1,0-0.1,0l-2,0h-4.9v2h6.9v0
		c0,0,0.1,0,0.1,0c5.5,0,10-4.5,10-10C151.3,16.1,147.1,11.8,141.9,11.4z"/>
</g>
<g>
	<polygon class="st0" points="32.3,27.6 33.7,26.2 27,19.5 20.3,26.2 21.7,27.6 26,23.3 26,35.9 28,35.9 28,23.3 	"/>
	<path class="st0" d="M43.6,13C42,5.6,35.4,0,27.5,0c-6.4,0-12,3.7-14.7,9c-0.3,0-0.5,0-0.8,0C5.4,9,0,14.4,0,21
		c0,6.6,5.3,12,11.9,12v0H22v-2h-9.6l-0.4,0C6.5,31,2,26.5,2,21c0-5.5,4.5-10,10-10c0.2,0,0.3,0,0.5,0l0.1,0l1.3,0.1l0.6-1.2
		C17.1,5,22,2,27.5,2c6.8,0,12.8,4.8,14.2,11.4l0.3,1.5l1.5,0.1c4.2,0.3,7.5,3.8,7.5,8c0,4.4-3.6,8-8,8c0,0-0.1,0-0.1,0l-2,0H32v2
		h10.9v0c0,0,0.1,0,0.1,0c5.5,0,10-4.5,10-10C53,17.7,48.9,13.4,43.6,13z"/>
</g>
<g>
	<path d="M246.1-176.5c-1.6-7.4-8.2-13-16.1-13c-6.4,0-12,3.7-14.7,9c-0.3,0-0.5,0-0.8,0c-6.6,0-12,5.4-12,12c0,6.6,5.3,12,11.9,12
		v0h2.1v-2h-1.6l-0.4,0c-5.5,0-9.9-4.5-9.9-10c0-5.5,4.5-10,10-10c0.2,0,0.3,0,0.5,0l0.1,0l1.3,0.1l0.6-1.2
		c2.5-4.9,7.4-7.9,12.9-7.9c6.8,0,12.8,4.8,14.2,11.4l0.3,1.5l1.5,0.1c4.2,0.3,7.5,3.8,7.5,8c0,4.4-3.6,8-8,8c-0.1,0-0.1,0-0.1,0
		l-2,0h-0.9v2h2.9v0c0,0,0.1,0,0.1,0c5.5,0,10-4.5,10-10C255.5-171.8,251.3-176.2,246.1-176.5z"/>
	<polygon points="224.5,-157.5 224.5,-160.1 226.7,-158.9 227.3,-160.1 224.9,-161.5 227.3,-162.9 226.7,-164.1 224.5,-162.9 
		224.5,-165.5 222.5,-165.5 222.5,-162.9 220.2,-164.1 219.6,-162.9 222,-161.5 219.6,-160.1 220.2,-158.9 222.5,-160.2 
		222.5,-157.5 	"/>
	<polygon points="229.7,-153.1 227.5,-151.9 227.5,-154.5 225.5,-154.5 225.5,-151.9 223.2,-153.1 222.5,-151.9 225,-150.5 
		222.5,-149.1 223.2,-147.9 225.5,-149.2 225.5,-146.5 227.5,-146.5 227.5,-149.1 229.7,-147.9 230.3,-149.1 227.9,-150.5 
		230.3,-151.9 	"/>
	<polygon points="238.7,-160.1 236.5,-158.9 236.5,-161.5 234.5,-161.5 234.5,-158.9 232.2,-160.1 231.6,-158.9 234,-157.5 
		231.6,-156.1 232.2,-154.9 234.5,-156.2 234.5,-153.5 236.5,-153.5 236.5,-156.1 238.7,-154.9 239.4,-156.1 236.9,-157.5 
		239.4,-158.9 	"/>
</g>
<g>
	<rect x="321.6" y="-194.5" width="2" height="8"/>
	<rect x="302.6" y="-175.6" width="8" height="2"/>
	<rect x="310.3" y="-189.9" transform="matrix(0.7071 -0.7071 0.7071 0.7071 222.6189 165.6659)" width="2" height="8"/>
	<rect x="329.8" y="-186.9" transform="matrix(0.7071 -0.7071 0.7071 0.7071 229.2117 181.5921)" width="8" height="2"/>
	<path d="M352.1-168.7c-1.4-6.7-7.4-11.8-14.6-11.8c-2.2,0-4.3,0.5-6.1,1.3c-1.7-3.2-5-5.4-8.9-5.4c-5.5,0-10,4.5-10,10
		c0,2.5,0.9,4.7,2.4,6.4c-1.4,1.8-2.3,4.1-2.3,6.7c0,6,4.8,10.8,10.8,10.9v0h1.2v-2h-0.7l-0.5,0c-4.9,0-8.8-4-8.8-8.9
		c0-4.9,4-8.9,8.9-8.9c0.1,0,0.3,0,0.4,0l0.1,0l1.3,0.1l0.6-1.2c2.2-4.4,6.6-7.1,11.5-7.1c6.1,0,11.4,4.3,12.6,10.2l0.3,1.5l1.5,0.1
		c3.7,0.2,6.6,3.3,6.6,7c0,3.9-3.1,7-7,7.1c0,0-0.1,0-0.1,0l-1.9,0v2h1.8v0c0,0,0.1,0,0.1,0c5,0,9.1-4.1,9.1-9.1
		C360.6-164.5,356.9-168.5,352.1-168.7z M324.2-172.4c-0.2,0-0.5,0-0.7,0c-2.8,0-5.3,1-7.2,2.7c-1.1-1.4-1.8-3.1-1.8-5
		c0-4.4,3.6-8,8-8c3.1,0,5.8,1.8,7.1,4.3C327.3-176.8,325.5-174.8,324.2-172.4z"/>
	<polygon points="331.6,-151.6 331.6,-154.3 333.8,-153.1 334.5,-154.3 332,-155.7 334.5,-157.1 333.8,-158.3 331.6,-157.1 
		331.6,-159.6 329.6,-159.6 329.6,-157 327.4,-158.3 326.7,-157.1 329.2,-155.7 326.7,-154.3 327.4,-153.1 329.6,-154.3 
		329.6,-151.6 	"/>
	<polygon points="336.8,-147.3 334.6,-146.1 334.6,-148.7 332.6,-148.7 332.6,-146 330.4,-147.3 329.7,-146.1 332.1,-144.7 
		329.7,-143.3 330.4,-142.1 332.6,-143.3 332.6,-140.7 334.6,-140.7 334.6,-143.3 336.8,-142.1 337.5,-143.3 335,-144.7 
		337.5,-146.1 	"/>
	<polygon points="345.8,-154.3 343.6,-153.1 343.6,-155.6 341.6,-155.6 341.6,-153 339.4,-154.3 338.7,-153.1 341.2,-151.7 
		338.7,-150.3 339.4,-149.1 341.6,-150.3 341.6,-147.6 343.6,-147.6 343.6,-150.3 345.8,-149.1 346.5,-150.3 344,-151.7 
		346.5,-153.1 	"/>
</g>
<g>
	<path d="M452.3-171.8c-1.4-6.7-7.4-11.8-14.6-11.8c-1.8,0-3.5,0.3-5.1,0.9c-0.9-5.1-5.4-9-10.8-9c-0.4,0-0.8,0-1.2,0.1
		c0.7,1.1,1.2,2.4,1.2,3.9c0,3.9-3.1,7-7,7c-1.4,0-2.8-0.4-3.9-1.2c0,0.4-0.1,0.8-0.1,1.2c0,3.7,1.8,7,4.7,9
		c-1.7,1.9-2.7,4.4-2.7,7.1c0,6,4.8,10.8,10.8,10.9v0h1.2v-2h-0.7l-0.5,0c-4.9,0-8.8-4-8.8-8.9c0-4.9,4-8.9,8.9-8.9
		c0.1,0,0.3,0,0.4,0l0.1,0l1.3,0.1l0.6-1.2c2.2-4.4,6.6-7.1,11.5-7.1c6.1,0,11.4,4.3,12.6,10.2l0.3,1.5l1.5,0.1
		c3.7,0.2,6.6,3.3,6.6,7c0,3.9-3.1,7-7,7.1c0,0-0.1,0-0.1,0l-1.9,0v2h1.8v0c0,0,0.1,0,0.1,0c5,0,9.1-4.1,9.1-9.1
		C460.8-167.5,457.1-171.5,452.3-171.8z M424.4-175.4c-0.2,0-0.5,0-0.7,0c-2.5,0-4.9,0.9-6.7,2.3c-2-1.3-3.5-3.4-4-5.8
		c0.6,0.1,1.2,0.2,1.8,0.2c5,0,9-4,9-9c0-0.6-0.1-1.2-0.2-1.8c3.7,0.8,6.6,3.8,7.1,7.6C428-180.4,425.8-178.1,424.4-175.4z"/>
	<polygon points="431.9,-154.6 431.9,-157.3 434,-156.1 434.7,-157.3 432.2,-158.7 434.7,-160.1 434,-161.3 431.9,-160.1 
		431.9,-162.6 429.9,-162.6 429.9,-160 427.6,-161.3 426.9,-160.1 429.4,-158.7 426.9,-157.3 427.6,-156.1 429.9,-157.3 
		429.9,-154.6 	"/>
	<polygon points="437,-150.3 434.8,-149.1 434.8,-151.7 432.8,-151.7 432.8,-149 430.6,-150.3 429.9,-149.1 432.4,-147.7 
		429.9,-146.3 430.6,-145.1 432.8,-146.3 432.8,-143.7 434.8,-143.7 434.8,-146.3 437,-145.1 437.7,-146.3 435.2,-147.7 
		437.7,-149.1 	"/>
	<polygon points="446,-157.3 443.9,-156.1 443.9,-158.6 441.9,-158.6 441.9,-156 439.6,-157.3 438.9,-156.1 441.4,-154.7 
		438.9,-153.3 439.6,-152.1 441.9,-153.3 441.9,-150.6 443.9,-150.6 443.9,-153.3 446,-152.1 446.7,-153.3 444.2,-154.7 
		446.7,-156.1 	"/>
</g>
<rect x="-164" y="-739.5" class="st1" width="473" height="180.9"/>
<text transform="matrix(1 0 0 1 15.6079 -668.1021)" style="font-family:'Helvetica'; font-size:100px; letter-spacing:2;">60</text>
<text transform="matrix(1 0 0 1 -83.6601 -608.1021)" style="font-family:'Helvetica'; font-size:48px;">Weather Icons</text>
<text transform="matrix(1 0 0 1 11.8819 -564.1021)" style="font-family:'Helvetica'; font-size:24px;">IOS 7 Style</text>
</svg>
