<?xml version="1.0" encoding="utf-8"?>
<!-- Generator: Adobe Illustrator 25.0.1, SVG Export Plug-In . SVG Version: 6.00 Build 0)  -->
<svg version="1.1" id="Layer_1" xmlns="http://www.w3.org/2000/svg" xmlns:xlink="http://www.w3.org/1999/xlink" x="0px" y="0px"
	 viewBox="0 0 58.1 44" style="enable-background:new 0 0 58.1 44;" xml:space="preserve">
<style type="text/css">
	.st0{fill:none;}
</style>
<path d="M339.6,469.8l-1.8,15.1l-0.3,2.2h2.3h6.9L332,505.8l1.8-14.5l0.3-2.2h-2.3h-7L339.6,469.8 M342.5,462.7L320.8,491h11
	l-2.7,21.7l21.7-27.7h-11L342.5,462.7L342.5,462.7z"/>
<path d="M-73.4,7.5c6.8,0,12.7,4.8,14.2,11.4l0.3,1.5l1.5,0.1c4.2,0.3,7.5,3.8,7.5,8c0,4.4-3.6,8-8,8H-58h-2l0,0h-28.3h-0.6
	c-5.5,0-9.9-4.5-9.9-10s4.5-10,10-10c0.2,0,0.3,0,0.5,0h0.1l1.3,0.1l0.6-1.2C-83.8,10.5-78.9,7.5-73.4,7.5 M-73.4,5.5
	c-6.4,0-12,3.7-14.7,9c-0.3,0-0.5,0-0.8,0c-6.6,0-12,5.4-12,12s5.3,12,11.9,12l0,0h31l0,0h0.1c5.5,0,10-4.5,10-10
	c0-5.3-4.1-9.6-9.4-10C-58.9,11.1-65.5,5.5-73.4,5.5L-73.4,5.5z"/>
<g>
	<path d="M49.6,25.9c-1.4-6.7-7.4-11.8-14.6-11.8c-2.2,0-4.3,0.5-6.1,1.3c-1.7-3.2-5-5.4-8.9-5.4c-5.5,0-10,4.5-10,10
		c0,2.5,0.9,4.7,2.4,6.4c-1.4,1.8-2.3,4.1-2.3,6.7c0,6,4.8,10.8,10.8,10.9l0,0h28l0,0H49c5,0,9.1-4.1,9.1-9.1
		C58.1,30.1,54.3,26.2,49.6,25.9z M20,12c3.1,0,5.8,1.8,7.1,4.3c-2.3,1.4-4.2,3.5-5.4,5.9c-0.2,0-0.5,0-0.7,0c-2.8,0-5.3,1-7.2,2.7
		c-1.1-1.4-1.8-3.1-1.8-5C12,15.6,15.6,12,20,12z M49,42L49,42h-2.1l0,0H21.5h-0.6c-4.9,0-8.8-4-8.8-8.9s4-8.9,8.9-8.9
		c0.1,0,0.3,0,0.4,0h0.1l1.3,0.1l0.6-1.2C25.6,18.7,30,16,34.9,16c6.1,0,11.4,4.3,12.7,10.2l0.3,1.5l1.5,0.1c3.7,0.2,6.6,3.3,6.6,7
		C56.1,38.8,52.9,42,49,42z"/>
	<rect x="19" width="2" height="8"/>
	<rect y="19" width="8" height="2"/>
	<rect x="7.7" y="4.8" transform="matrix(0.7071 -0.7071 0.7071 0.7071 -3.6663 8.7478)" width="2" height="8"/>
	<rect x="27.2" y="7.8" transform="matrix(0.7071 -0.7071 0.7071 0.7071 2.9135 24.6648)" width="8" height="2"/>
</g>
<path d="M145.3,21.9c-1.4-6.7-7.4-11.8-14.6-11.8c-1.8,0-3.5,0.3-5.1,0.9c-0.9-5.1-5.4-9-10.8-9c-0.4,0-0.8,0-1.2,0.1
	c0.7,1.1,1.2,2.4,1.2,3.9c0,3.9-3.1,7-7,7c-1.4,0-2.8-0.4-3.9-1.2c0,0.4-0.1,0.8-0.1,1.2c0,3.7,1.8,7,4.7,9
	c-1.7,1.9-2.7,4.4-2.7,7.1c0,6,4.8,10.8,10.8,10.9l0,0h28l0,0h0.1c5,0,9.1-4.1,9.1-9.1C153.8,26.1,150,22.2,145.3,21.9z M106,14.8
	c0.6,0.1,1.2,0.2,1.8,0.2c5,0,9-4,9-9c0-0.6-0.1-1.2-0.2-1.8c3.7,0.8,6.6,3.8,7.1,7.6c-2.7,1.4-4.9,3.7-6.3,6.4c-0.2,0-0.5,0-0.7,0
	c-2.5,0-4.9,0.9-6.7,2.3C107.9,19.3,106.5,17.2,106,14.8z M144.8,38h-0.1h-2l0,0h-25.4h-0.6c-4.9,0-8.8-4-8.8-8.9s4-8.9,8.9-8.9
	c0.2,0,0.3,0,0.4,0h0.1l1.3,0.1l0.6-1.2c2.2-4.4,6.6-7.1,11.5-7.1c6.1,0,11.4,4.3,12.6,10.2l0.3,1.5l1.5,0.1c3.7,0.2,6.6,3.3,6.6,7
	C151.8,34.8,148.7,37.9,144.8,38z"/>
<g>
	<rect x="230" y="30.5" width="2" height="7"/>
	<rect x="238" y="26.5" width="2" height="7"/>
	<rect x="222" y="26.5" width="2" height="7"/>
	<rect x="230" y="40.5" width="2" height="7"/>
	<rect x="238" y="36.5" width="2" height="7"/>
	<rect x="222" y="36.5" width="2" height="7"/>
	<path d="M248.6,13.5c-1.6-7.4-8.2-13-16.1-13c-6.4,0-12,3.7-14.7,9c-0.3,0-0.5,0-0.8,0c-6.6,0-12,5.4-12,12s5.3,12,11.9,12l0,0h2.1
		v-2h-1.6H217c-5.5,0-9.9-4.5-9.9-10s4.5-10,10-10c0.2,0,0.3,0,0.5,0h0.1l1.3,0.1l0.6-1.2c2.5-4.9,7.4-7.9,12.9-7.9
		c6.8,0,12.8,4.8,14.2,11.4l0.3,1.5l1.5,0.1c4.2,0.3,7.5,3.8,7.5,8c0,4.4-3.6,8-8,8c-0.1,0-0.1,0-0.1,0h-2H243v2h4.9l0,0h0.1
		c5.5,0,10-4.5,10-10C258,18.2,253.8,13.8,248.6,13.5z"/>
</g>
<g>
	<path d="M46.2,102.9c-1.6-7.4-8.2-13-16.1-13c-6.4,0-12,3.7-14.7,9c-0.3,0-0.5,0-0.8,0c-6.6,0-12,5.4-12,12s5.3,12,11.9,12l0,0h2.1
		v-2H15h-0.4c-5.5,0-9.9-4.5-9.9-10s4.5-10,10-10c0.2,0,0.3,0,0.5,0h0.1l1.3,0.1l0.6-1.2c2.5-4.9,7.4-7.9,12.9-7.9
		c6.8,0,12.8,4.8,14.2,11.4l0.3,1.5l1.5,0.1c4.2,0.3,7.5,3.8,7.5,8c0,4.4-3.6,8-8,8h-0.1h-2h-2.9v2h4.9l0,0h0.1c5.5,0,10-4.5,10-10
		C55.5,107.5,51.4,103.2,46.2,102.9z"/>
	<polygon points="27.5,129.9 27.5,131.8 27.5,137.9 29.5,137.9 29.5,131.8 29.5,129.9 29.5,117.9 27.5,117.9 	"/>
	<polygon points="35.5,125.9 35.5,127.6 35.5,133.9 37.5,133.9 37.5,127.6 37.5,125.9 37.5,113.9 35.5,113.9 	"/>
	<polygon points="19.5,125.9 19.5,127.9 19.5,133.9 21.5,133.9 21.5,127.9 21.5,125.9 21.5,113.9 19.5,113.9 	"/>
</g>
<g>
	<polygon points="341.8,126.8 334.9,117 333.3,118.1 340.2,127.9 341.3,129.5 344.8,134.5 346.4,133.3 342.9,128.4 	"/>
	<polygon points="349.8,126.8 342.9,117 341.3,118.1 348.2,127.9 349.2,129.4 352.8,134.5 354.4,133.3 350.8,128.2 	"/>
	<polygon points="333.8,126.8 326.9,117 325.3,118.1 332.2,127.9 333.4,129.6 336.8,134.5 338.4,133.3 335,128.5 	"/>
	<path d="M352.9,103.1c-1.6-7.4-8.2-13-16.1-13c-6.4,0-12,3.7-14.7,9c-0.3,0-0.5,0-0.8,0c-6.6,0-12,5.4-12,12s5.3,12,11.9,12l0,0
		h2.1v-2h-1.6h-0.4c-5.5,0-9.9-4.5-9.9-10s4.5-10,10-10c0.2,0,0.3,0,0.5,0h0.1l1.3,0.1l0.6-1.2c2.5-4.9,7.4-7.9,12.9-7.9
		c6.8,0,12.8,4.8,14.2,11.4l0.3,1.5l1.5,0.1c4.2,0.3,7.5,3.8,7.5,8c0,4.4-3.6,8-8,8h-0.1h-1h0.1v2h0.9l0,0h0.1c5.5,0,10-4.5,10-10
		C362.3,107.8,358.1,103.5,352.9,103.1z"/>
</g>
<g>
	<rect x="324.6" y="-5.9" width="2" height="8"/>
	<rect x="305.6" y="13" width="8" height="2"/>
	<rect x="313.3" y="-1.3" transform="matrix(0.7071 -0.7071 0.7071 0.7071 90.1568 223.018)" width="2" height="8"/>
	<rect x="332.8" y="1.7" transform="matrix(0.7071 -0.7071 0.7071 0.7071 96.7361 238.9351)" width="8" height="2"/>
	<rect x="338.6" y="34.9" width="2" height="7"/>
	<rect x="346.6" y="30.9" width="2" height="7"/>
	<rect x="330.6" y="30.9" width="2" height="7"/>
	<rect x="338.6" y="44.9" width="2" height="7"/>
	<rect x="346.6" y="40.9" width="2" height="7"/>
	<rect x="330.6" y="40.9" width="2" height="7"/>
	<path d="M355.1,19.9c-1.4-6.7-7.4-11.8-14.6-11.8c-2.2,0-4.3,0.5-6.1,1.3c-1.7-3.2-5-5.4-8.9-5.4c-5.5,0-10,4.5-10,10
		c0,2.5,0.9,4.7,2.4,6.4c-1.4,1.8-2.3,4.1-2.3,6.7c0,6,4.8,10.8,10.8,10.9l0,0h1.2v-2h-0.7h-0.5c-4.9,0-8.8-4-8.8-8.9s4-8.9,8.9-8.9
		c0.1,0,0.3,0,0.4,0h0.1l1.3,0.1l0.6-1.2c2.2-4.4,6.6-7.1,11.5-7.1c6.1,0,11.4,4.3,12.6,10.2l0.3,1.5l1.5,0.1c3.7,0.2,6.6,3.3,6.6,7
		c0,3.9-3.1,7-7,7.1h-0.1h-2h-0.8v2h2.8l0,0h0.1c5,0,9.1-4.1,9.1-9.1C363.6,24.1,359.9,20.1,355.1,19.9z M327.2,16.2
		c-0.2,0-0.5,0-0.7,0c-2.8,0-5.3,1-7.2,2.7c-1.1-1.4-1.8-3.1-1.8-5c0-4.4,3.6-8,8-8c3.1,0,5.8,1.8,7.1,4.3
		C330.3,11.8,328.4,13.8,327.2,16.2z"/>
</g>
<g>
	<rect x="439" y="33.5" width="2" height="7"/>
	<rect x="447" y="29.5" width="2" height="7"/>
	<rect x="431" y="29.5" width="2" height="7"/>
	<rect x="439" y="43.5" width="2" height="7"/>
	<rect x="447" y="39.5" width="2" height="7"/>
	<rect x="431" y="39.5" width="2" height="7"/>
	<path d="M455.5,18.4c-1.4-6.7-7.4-11.8-14.6-11.8c-1.8,0-3.5,0.3-5.1,0.9c-0.9-5.1-5.4-9-10.8-9c-0.4,0-0.8,0-1.2,0.1
		c0.7,1.1,1.2,2.4,1.2,3.9c0,3.9-3.1,7-7,7c-1.4,0-2.8-0.4-3.9-1.2c0,0.4-0.1,0.8-0.1,1.2c0,3.7,1.8,7,4.7,9
		c-1.7,1.9-2.7,4.4-2.7,7.1c0,6,4.8,10.8,10.8,10.9l0,0h1.2v-2h-0.7h-0.5c-4.9,0-8.8-4-8.8-8.9s4-8.9,8.9-8.9c0.1,0,0.3,0,0.4,0h0.1
		l1.3,0.1l0.6-1.2c2.2-4.4,6.6-7.1,11.5-7.1c6.1,0,11.4,4.3,12.6,10.2l0.3,1.5l1.5,0.1c3.7,0.2,6.6,3.3,6.6,7c0,3.9-3.1,7-7,7.1
		h-0.1h-2H452v2h2.8l0,0h0.1c5,0,9.1-4.1,9.1-9.1C464,22.6,460.3,18.7,455.5,18.4z M427.6,14.8c-0.2,0-0.5,0-0.7,0
		c-2.5,0-4.9,0.9-6.7,2.3c-2-1.3-3.5-3.4-4-5.8c0.6,0.1,1.2,0.2,1.8,0.2c5,0,9-4,9-9c0-0.6-0.1-1.2-0.2-1.8c3.7,0.8,6.6,3.8,7.1,7.6
		C431.2,9.8,429,12,427.6,14.8z"/>
</g>
<g>
	<polygon points="131.8,134.3 131.8,136.2 131.8,142.3 133.8,142.3 133.8,136.2 133.8,134.3 133.8,122.3 131.8,122.3 	"/>
	<polygon points="139.8,130.3 139.8,132.1 139.8,138.3 141.8,138.3 141.8,132.1 141.8,130.3 141.8,118.3 139.8,118.3 	"/>
	<polygon points="123.8,130.3 123.8,132.4 123.8,138.3 125.8,138.3 125.8,132.4 125.8,130.3 125.8,118.3 123.8,118.3 	"/>
	<rect x="117.8" y="83.4" width="2" height="8"/>
	<rect x="98.8" y="102.3" width="8" height="2"/>
	<rect x="106.5" y="88.1" transform="matrix(0.7071 -0.7071 0.7071 0.7071 -33.601 102.9899)" width="2" height="8"/>
	<rect x="126" y="91.1" transform="matrix(0.7071 -0.7071 0.7071 0.7071 -27.0218 118.9069)" width="8" height="2"/>
	<path d="M148.3,109.2c-1.4-6.7-7.4-11.8-14.6-11.8c-2.2,0-4.3,0.5-6.1,1.3c-1.7-3.2-5-5.4-8.9-5.4c-5.5,0-10,4.5-10,10
		c0,2.5,0.9,4.7,2.4,6.4c-1.4,1.8-2.3,4.1-2.3,6.7c0,6,4.8,10.8,10.8,10.9l0,0h1.2v-2h-0.7h-0.5c-4.9,0-8.8-4-8.8-8.9s4-8.9,8.9-8.9
		c0.2,0,0.3,0,0.4,0h0.1l1.3,0.1l0.6-1.2c2.2-4.4,6.6-7.1,11.5-7.1c6.1,0,11.4,4.3,12.6,10.2l0.3,1.5l1.5,0.1c3.7,0.2,6.6,3.3,6.6,7
		c0,3.9-3.1,7-7,7.1h-0.1h-2h-0.8v2h2.8l0,0h0.1c5,0,9.1-4.1,9.1-9.1C156.8,113.4,153,109.5,148.3,109.2z M120.4,105.6
		c-0.2,0-0.5,0-0.7,0c-2.8,0-5.3,1-7.2,2.7c-1.1-1.4-1.8-3.1-1.8-5c0-4.4,3.6-8,8-8c3.1,0,5.8,1.8,7.1,4.3
		C123.5,101.1,121.6,103.1,120.4,105.6z"/>
</g>
<g>
	<polygon points="232.2,131.8 232.2,133.7 232.2,139.8 234.2,139.8 234.2,133.7 234.2,131.8 234.2,119.8 232.2,119.8 	"/>
	<polygon points="240.2,127.8 240.2,129.5 240.2,135.8 242.2,135.8 242.2,129.5 242.2,127.8 242.2,115.8 240.2,115.8 	"/>
	<polygon points="224.2,127.8 224.2,129.9 224.2,135.8 226.2,135.8 226.2,129.9 226.2,127.8 226.2,115.8 224.2,115.8 	"/>
	<path d="M248.7,106.7c-1.4-6.7-7.4-11.8-14.6-11.8c-1.8,0-3.5,0.3-5.1,0.9c-0.9-5.1-5.4-9-10.8-9c-0.4,0-0.8,0-1.2,0.1
		c0.7,1.1,1.2,2.4,1.2,3.9c0,3.9-3.1,7-7,7c-1.4,0-2.8-0.4-3.9-1.2c0,0.4-0.1,0.8-0.1,1.2c0,3.7,1.8,7,4.7,9
		c-1.7,1.9-2.7,4.4-2.7,7.1c0,6,4.8,10.8,10.8,10.9l0,0h1.2v-2h-0.7H220c-4.9,0-8.8-4-8.8-8.9s4-8.9,8.9-8.9c0.1,0,0.3,0,0.4,0h0.1
		l1.3,0.1l0.6-1.2c2.2-4.4,6.6-7.1,11.5-7.1c6.1,0,11.4,4.3,12.6,10.2l0.3,1.5l1.5,0.1c3.7,0.2,6.6,3.3,6.6,7c0,3.9-3.1,7-7,7.1
		h-0.1h-2h-0.8v2h2.8l0,0h0.1c5,0,9.1-4.1,9.1-9.1C257.2,110.9,253.4,107,248.7,106.7z M220.8,103.1c-0.2,0-0.5,0-0.7,0
		c-2.5,0-4.9,0.9-6.7,2.3c-2-1.3-3.5-3.4-4-5.8c0.6,0.1,1.2,0.2,1.8,0.2c5,0,9-4,9-9c0-0.6-0.1-1.2-0.2-1.8c3.7,0.8,6.6,3.8,7.1,7.6
		C224.4,98.1,222.2,100.3,220.8,103.1z"/>
</g>
<g>
	<polygon points="449.2,132.7 442.3,122.9 440.7,124.1 447.6,133.9 448.7,135.5 452.2,140.4 453.8,139.3 450.3,134.3 	"/>
	<polygon points="457.2,132.7 450.3,122.9 448.7,124.1 455.6,133.9 456.6,135.3 460.2,140.4 461.8,139.3 458.2,134.2 	"/>
	<polygon points="441.2,132.7 434.3,122.9 432.7,124.1 439.6,133.9 440.8,135.6 444.2,140.4 445.8,139.3 442.4,134.4 	"/>
	<rect x="428.7" y="85.2" width="2" height="8"/>
	<rect x="409.7" y="104.1" width="8" height="2"/>
	<rect x="417.4" y="89.8" transform="matrix(0.7071 -0.7071 0.7071 0.7071 56.2185 323.2979)" width="2" height="8"/>
	<rect x="436.9" y="92.8" transform="matrix(0.7071 -0.7071 0.7071 0.7071 62.7977 339.215)" width="8" height="2"/>
	<path d="M459.2,111c-1.4-6.7-7.4-11.8-14.6-11.8c-2.2,0-4.3,0.5-6.1,1.3c-1.7-3.2-5-5.4-8.9-5.4c-5.5,0-10,4.5-10,10
		c0,2.5,0.9,4.7,2.4,6.4c-1.4,1.8-2.3,4.1-2.3,6.7c0,6,4.8,10.8,10.8,10.9l0,0h1.2v-2H431h-0.5c-4.9,0-8.8-4-8.8-8.9s4-8.9,8.9-8.9
		c0.1,0,0.3,0,0.4,0h0.1l1.3,0.1l0.6-1.2c2.2-4.4,6.6-7.1,11.5-7.1c6.1,0,11.4,4.3,12.6,10.2l0.3,1.5l1.5,0.1c3.7,0.2,6.6,3.3,6.6,7
		c0,3.9-3.1,7-7,7.1h-0.1l0,0h-0.8v2h0.8l0,0h0.1c5,0,9.1-4.1,9.1-9.1C467.7,115.2,464,111.3,459.2,111z M431.3,107.4
		c-0.2,0-0.5,0-0.7,0c-2.8,0-5.3,1-7.2,2.7c-1.1-1.4-1.8-3.1-1.8-5c0-4.4,3.6-8,8-8c3.1,0,5.8,1.8,7.1,4.3
		C434.4,102.9,432.5,104.9,431.3,107.4z"/>
</g>
<g>
	<polygon points="-274.2,229.2 -281.1,219.4 -282.7,220.5 -275.8,230.4 -274.7,232 -271.3,236.9 -269.6,235.8 -273.1,230.8 	"/>
	<polygon points="-266.2,229.2 -273.1,219.4 -274.7,220.5 -267.8,230.4 -266.8,231.8 -263.2,236.9 -261.6,235.8 -265.2,230.7 	"/>
	<polygon points="-282.2,229.2 -289.1,219.4 -290.7,220.5 -283.8,230.4 -282.7,232.1 -279.3,236.9 -277.6,235.8 -281,230.9 	"/>
	<path d="M-264.2,207.5c-1.4-6.7-7.4-11.8-14.6-11.8c-1.8,0-3.5,0.3-5.1,0.9c-0.9-5.1-5.4-9-10.8-9c-0.4,0-0.8,0-1.2,0.1
		c0.7,1.1,1.2,2.4,1.2,3.9c0,3.9-3.1,7-7,7c-1.4,0-2.8-0.4-3.9-1.2c0,0.4-0.1,0.8-0.1,1.2c0,3.7,1.8,7,4.7,9
		c-1.7,1.9-2.7,4.4-2.7,7.1c0,6,4.8,10.8,10.8,10.9l0,0h1.2v-2h-0.7h-0.5c-4.9,0-8.8-4-8.8-8.9s4-8.9,8.9-8.9c0.1,0,0.3,0,0.4,0h0.1
		l1.3,0.1l0.6-1.2c2.2-4.4,6.6-7.1,11.5-7.1c6.1,0,11.4,4.3,12.6,10.2l0.3,1.5l1.5,0.1c3.7,0.2,6.6,3.3,6.6,7c0,3.9-3.1,7-7,7.1
		h-0.1l0,0h-0.8v2h0.8l0,0h0.1c5,0,9.1-4.1,9.1-9.1C-255.7,211.7-259.5,207.8-264.2,207.5z M-292.1,203.8c-0.2,0-0.5,0-0.7,0
		c-2.5,0-4.9,0.9-6.7,2.3c-2-1.3-3.5-3.4-4-5.8c0.6,0.1,1.2,0.2,1.8,0.2c5,0,9-4,9-9c0-0.6-0.1-1.2-0.2-1.8c3.7,0.8,6.6,3.8,7.1,7.6
		C-288.5,198.8-290.7,201.1-292.1,203.8z"/>
</g>
<g>
	<rect x="-281.7" y="125.4" width="2" height="4"/>
	<rect x="-273.7" y="121.4" width="2" height="4"/>
	<rect x="-289.7" y="121.4" width="2" height="4"/>
	<path d="M-263.1,105.4c-1.6-7.4-8.2-13-16.1-13c-6.4,0-12,3.7-14.7,9c-0.3,0-0.5,0-0.8,0c-6.6,0-12,5.4-12,12s5.3,12,11.9,12l0,0
		h2.1v-2h-1.6h-0.4c-5.5,0-9.9-4.5-9.9-10s4.5-10,10-10c0.2,0,0.3,0,0.5,0h0.1l1.3,0.1l0.6-1.2c2.5-4.9,7.4-7.9,12.9-7.9
		c6.8,0,12.8,4.8,14.2,11.4l0.3,1.5l1.5,0.1c4.2,0.3,7.5,3.8,7.5,8c0,4.4-3.6,8-8,8h-0.1h-2h-2.9v2h4.9l0,0h0.1c5.5,0,10-4.5,10-10
		C-253.7,110-257.9,105.7-263.1,105.4z"/>
	<circle cx="-272.7" cy="130.4" r="1.5"/>
	<circle cx="-280.7" cy="134.4" r="1.5"/>
	<circle cx="-288.7" cy="130.4" r="1.5"/>
</g>
<g>
	<rect x="-188.8" y="85.9" width="2" height="8"/>
	<rect x="-207.8" y="104.8" width="8" height="2"/>
	<rect x="-200.1" y="90.6" transform="matrix(0.7071 -0.7071 0.7071 0.7071 -125.1763 -113.0807)" width="2" height="8"/>
	<rect x="-180.6" y="93.6" transform="matrix(0.7071 -0.7071 0.7071 0.7071 -118.597 -97.1643)" width="8" height="2"/>
	<path d="M-158.3,111.7c-1.4-6.7-7.4-11.8-14.6-11.8c-2.2,0-4.3,0.5-6.1,1.3c-1.7-3.2-5-5.4-8.9-5.4c-5.5,0-10,4.5-10,10
		c0,2.5,0.9,4.7,2.4,6.4c-1.4,1.8-2.3,4.1-2.3,6.7c0,6,4.8,10.8,10.8,10.9l0,0h1.2v-2h-0.7h-0.5c-4.9,0-8.8-4-8.8-8.9s4-8.9,8.9-8.9
		c0.1,0,0.3,0,0.4,0h0.1l1.3,0.1l0.6-1.2c2.2-4.4,6.6-7.1,11.5-7.1c6.1,0,11.4,4.3,12.6,10.2l0.3,1.5l1.5,0.1c3.7,0.2,6.6,3.3,6.6,7
		c0,3.9-3.1,7-7,7.1h-0.1h-2h-0.8v2h2.8l0,0h0.1c5,0,9.1-4.1,9.1-9.1C-149.8,115.9-153.6,112-158.3,111.7z M-186.2,108.1
		c-0.2,0-0.5,0-0.7,0c-2.8,0-5.3,1-7.2,2.7c-1.1-1.4-1.8-3.1-1.8-5c0-4.4,3.6-8,8-8c3.1,0,5.8,1.8,7.1,4.3
		C-183.1,103.6-185,105.7-186.2,108.1z"/>
	<rect x="-174.8" y="129.8" width="2" height="4"/>
	<rect x="-166.8" y="125.8" width="2" height="4"/>
	<rect x="-182.8" y="125.8" width="2" height="4"/>
	<circle cx="-165.8" cy="134.8" r="1.5"/>
	<circle cx="-173.8" cy="138.8" r="1.5"/>
	<circle cx="-181.8" cy="134.8" r="1.5"/>
</g>
<g>
	<path d="M-57.4,110.8C-58.8,104-64.8,99-72,99c-1.8,0-3.5,0.3-5.1,0.9c-0.9-5.1-5.4-9-10.8-9c-0.4,0-0.8,0-1.2,0.1
		c0.7,1.1,1.2,2.4,1.2,3.9c0,3.9-3.1,7-7,7c-1.4,0-2.8-0.4-3.9-1.2c0,0.4-0.1,0.8-0.1,1.2c0,3.7,1.8,7,4.7,9
		c-1.7,1.9-2.7,4.4-2.7,7.1c0,6,4.8,10.8,10.8,10.9l0,0h1.2v-2h-0.7h-0.5c-4.9,0-8.8-4-8.8-8.9s4-8.9,8.9-8.9c0.2,0,0.3,0,0.4,0h0.1
		l1.3,0.1l0.6-1.2c2.2-4.4,6.6-7.1,11.5-7.1c6.1,0,11.4,4.3,12.6,10.2l0.3,1.5l1.5,0.1c3.7,0.2,6.6,3.3,6.6,7c0,3.9-3.1,7-7,7.1
		h-0.1h-2H-61v2h2.8l0,0h0.1c5,0,9.1-4.1,9.1-9.1C-48.9,115-52.6,111-57.4,110.8z M-85.3,107.1c-0.2,0-0.5,0-0.7,0
		c-2.5,0-4.9,0.9-6.7,2.3c-2-1.3-3.5-3.4-4-5.8c0.6,0.1,1.2,0.2,1.8,0.2c5,0,9-4,9-9c0-0.6-0.1-1.2-0.2-1.8c3.7,0.8,6.6,3.8,7.1,7.6
		C-81.7,102.1-83.9,104.4-85.3,107.1z"/>
	<rect x="-73.9" y="128.9" width="2" height="4"/>
	<rect x="-65.9" y="124.8" width="2" height="4"/>
	<rect x="-81.9" y="124.8" width="2" height="4"/>
	<circle cx="-64.9" cy="133.9" r="1.5"/>
	<circle cx="-72.9" cy="137.8" r="1.5"/>
	<circle cx="-80.9" cy="133.8" r="1.5"/>
</g>
<g>
	<path d="M-160.7,203.8c-1.6-7.4-8.2-13-16.1-13c-6.4,0-12,3.7-14.7,9c-0.3,0-0.5,0-0.8,0c-6.6,0-12,5.4-12,12s5.3,12,11.9,12l0,0
		h6.1v-2h-5.6h-0.4c-5.5,0-9.9-4.5-9.9-10s4.5-10,10-10c0.2,0,0.3,0,0.5,0h0.1l1.3,0.1l0.6-1.2c2.5-4.9,7.4-7.9,12.9-7.9
		c6.8,0,12.8,4.8,14.2,11.4l0.3,1.5l1.5,0.1c4.2,0.3,7.5,3.8,7.5,8c0,4.4-3.6,8-8,8c-0.1,0-0.1,0-0.1,0h-5h0.1v2h4.9l0,0h0.1
		c5.5,0,10-4.5,10-10C-151.3,208.4-155.4,204.1-160.7,203.8z"/>
	<polygon points="-176.5,223.8 -174.7,223.8 -174.3,223.8 -172.2,223.8 -178.7,214.6 -180.3,215.7 -176.1,221.8 -177.9,221.8 
		-180.3,221.8 -179,223.6 -177.9,225.2 -171.9,233.8 -170.3,232.6 -176.3,224 	"/>
</g>
<g>
	<rect x="-84.9" y="184.7" width="2" height="8"/>
	<rect x="-103.9" y="203.6" width="8" height="2"/>
	<rect x="-96.2" y="189.3" transform="matrix(0.7071 -0.7071 0.7071 0.7071 -164.5606 -10.7077)" width="2" height="8"/>
	<rect x="-76.7" y="192.3" transform="matrix(0.7071 -0.7071 0.7071 0.7071 -157.9814 5.2094)" width="8" height="2"/>
	<path d="M-54.4,210.4c-1.4-6.7-7.4-11.8-14.6-11.8c-2.2,0-4.3,0.5-6.1,1.3c-1.7-3.2-5-5.4-8.9-5.4c-5.5,0-10,4.5-10,10
		c0,2.5,0.9,4.7,2.4,6.4c-1.4,1.8-2.3,4.1-2.3,6.7c0,6,4.8,10.8,10.8,10.9l0,0h4.2v-2h-3.7h-0.5c-4.9,0-8.8-4-8.8-8.9s4-8.9,8.9-8.9
		c0.2,0,0.3,0,0.4,0h0.1l1.3,0.1l0.6-1.2c2.2-4.4,6.6-7.1,11.5-7.1c6.1,0,11.4,4.3,12.6,10.2l0.3,1.5l1.5,0.1c3.7,0.2,6.6,3.3,6.6,7
		c0,3.9-3.1,7-7,7.1h-0.1h-2H-61v2h5.8l0,0h0.1c5,0,9.1-4.1,9.1-9.1C-45.9,214.7-49.6,210.7-54.4,210.4z M-82.3,206.8
		c-0.2,0-0.5,0-0.7,0c-2.8,0-5.3,1-7.2,2.7c-1.1-1.4-1.8-3.1-1.8-5c0-4.4,3.6-8,8-8c3.1,0,5.8,1.8,7.1,4.3
		C-79.2,202.4-81,204.4-82.3,206.8z"/>
	<polygon points="-70,228.5 -68.3,228.5 -67.8,228.5 -65.8,228.5 -72.2,219.4 -73.9,220.5 -69.7,226.5 -71.4,226.5 -73.9,226.5 
		-72.6,228.4 -71.5,229.9 -65.5,238.5 -63.9,237.4 -69.9,228.8 	"/>
</g>
<g>
	<path d="M45.2,208.1c-1.4-6.7-7.4-11.8-14.6-11.8c-1.8,0-3.5,0.3-5.1,0.9c-0.9-5.1-5.4-9-10.8-9c-0.4,0-0.8,0-1.2,0.1
		c0.7,1.1,1.2,2.4,1.2,3.9c0,3.9-3.1,7-7,7c-1.4,0-2.8-0.4-3.9-1.2c0,0.4-0.1,0.8-0.1,1.2c0,3.7,1.8,7,4.7,9
		c-1.7,1.9-2.7,4.4-2.7,7.1c0,6,4.8,10.8,10.8,10.9l0,0h4.2v-2H17h-0.5c-4.9,0-8.8-4-8.8-8.9s4-8.9,8.9-8.9c0.1,0,0.3,0,0.4,0h0.1
		l1.3,0.1l0.6-1.2c2.2-4.4,6.6-7.1,11.5-7.1c6.1,0,11.4,4.3,12.6,10.2l0.3,1.5l1.5,0.1c3.7,0.2,6.6,3.3,6.6,7c0,3.9-3.1,7-7,7.1
		h-0.1h-2h-3.8v2h5.8l0,0h0.1c5,0,9.1-4.1,9.1-9.1C53.7,212.4,50,208.4,45.2,208.1z M17.3,204.5c-0.2,0-0.5,0-0.7,0
		c-2.5,0-4.9,0.9-6.7,2.3c-2-1.3-3.5-3.4-4-5.8c0.6,0.1,1.2,0.2,1.8,0.2c5,0,9-4,9-9c0-0.6-0.1-1.2-0.2-1.8c3.7,0.8,6.6,3.8,7.1,7.6
		C20.9,199.5,18.7,201.8,17.3,204.5z"/>
	<polygon points="29.6,226.2 31.3,226.2 31.8,226.2 33.8,226.2 27.3,217.1 25.7,218.2 29.9,224.2 28.1,224.2 25.7,224.2 27,226.1 
		28.1,227.6 34.1,236.2 35.7,235.1 29.7,226.5 	"/>
</g>
<g>
	<path d="M146.1,204.3c-1.6-7.4-8.2-13-16.1-13c-6.4,0-12,3.7-14.7,9c-0.3,0-0.5,0-0.8,0c-6.6,0-12,5.4-12,12s5.3,12,11.9,12l0,0
		h1.1v-2h-0.6h-0.4c-5.5,0-9.9-4.5-9.9-10s4.5-10,10-10c0.2,0,0.3,0,0.5,0h0.1l1.3,0.1l0.6-1.2c2.5-4.9,7.4-7.9,12.9-7.9
		c6.8,0,12.8,4.8,14.2,11.4l0.3,1.5l1.5,0.1c4.2,0.3,7.5,3.8,7.5,8c0,4.4-3.6,8-8,8c-0.1,0-0.1,0-0.1,0h-0.9v2h0.9l0,0h0.1
		c5.5,0,10-4.5,10-10C155.5,208.9,151.3,204.6,146.1,204.3z"/>
	<rect x="119.5" y="217.7" transform="matrix(0.8191 -0.5736 0.5736 0.8191 -106.2854 109.5197)" width="2" height="11.2"/>
	<rect x="137.5" y="217.7" transform="matrix(0.8191 -0.5736 0.5736 0.8191 -103.0228 119.8394)" width="2" height="11.2"/>
	<polygon points="131.3,227.3 133.1,227.3 133.5,227.3 135.5,227.3 129.1,218.1 127.5,219.2 131.7,225.3 129.9,225.3 127.5,225.3 
		128.7,227.1 129.9,228.7 134.5,235.3 136.1,234.1 131.5,227.5 	"/>
</g>
<g>
	<rect x="221" y="184.8" width="2" height="8"/>
	<rect x="202" y="203.7" width="8" height="2"/>
	<rect x="209.6" y="189.5" transform="matrix(0.7071 -0.7071 0.7071 0.7071 -75.1323 205.6107)" width="2" height="8"/>
	<rect x="229.1" y="192.5" transform="matrix(0.7071 -0.7071 0.7071 0.7071 -68.553 221.5278)" width="8" height="2"/>
	<path d="M251.5,210.6c-1.4-6.7-7.4-11.8-14.6-11.8c-2.2,0-4.3,0.5-6.1,1.3c-1.7-3.2-5-5.4-8.9-5.4c-5.5,0-10,4.5-10,10
		c0,2.5,0.9,4.7,2.4,6.4c-1.4,1.8-2.3,4.1-2.3,6.7c0,6,4.8,10.8,10.8,10.9l0,0h0.2v-2h-0.2c-4.9,0-8.8-4-8.8-8.9s4-8.9,8.9-8.9
		c0.1,0,0.3,0,0.4,0h0.1l1.3,0.1l0.6-1.2c2.2-4.4,6.6-7.1,11.5-7.1c6.1,0,11.4,4.3,12.6,10.2l0.3,1.5l1.5,0.1c3.7,0.2,6.6,3.3,6.6,7
		c0,3.9-3.1,7-7,7.1h-0.1h-0.9v2h0.8l0,0h0.1c5,0,9.1-4.1,9.1-9.1C260,214.8,256.2,210.9,251.5,210.6z M223.5,207
		c-0.2,0-0.5,0-0.7,0c-2.8,0-5.3,1-7.2,2.7c-1.1-1.4-1.8-3.1-1.8-5c0-4.4,3.6-8,8-8c3.1,0,5.8,1.8,7.1,4.3
		C226.7,202.5,224.8,204.6,223.5,207z"/>
	<rect x="226" y="222.1" transform="matrix(0.8191 -0.5736 0.5736 0.8191 -89.5458 171.3862)" width="2" height="11.2"/>
	<rect x="243.9" y="222.1" transform="matrix(0.8191 -0.5736 0.5736 0.8191 -86.331 181.6692)" width="2" height="11.2"/>
	<polygon points="237.8,231.7 239.6,231.7 240,231.7 242,231.7 235.6,222.5 233.9,223.7 238.2,229.7 236.4,229.7 233.9,229.7 
		235.2,231.5 236.3,233.1 240.9,239.7 242.6,238.5 238,232 	"/>
</g>
<g>
	<path d="M353.3,207.6c-1.4-6.7-7.4-11.8-14.6-11.8c-1.8,0-3.5,0.3-5.1,0.9c-0.9-5.1-5.4-9-10.8-9c-0.4,0-0.8,0-1.2,0.1
		c0.7,1.1,1.2,2.4,1.2,3.9c0,3.9-3.1,7-7,7c-1.4,0-2.8-0.4-3.9-1.2c0,0.4-0.1,0.8-0.1,1.2c0,3.7,1.8,7,4.7,9
		c-1.7,1.9-2.7,4.4-2.7,7.1c0,6,4.8,10.8,10.8,10.9l0,0h0.2v-2h-0.2c-4.9,0-8.8-4-8.8-8.9s4-8.9,8.9-8.9c0.1,0,0.3,0,0.4,0h0.1
		l1.3,0.1l0.6-1.2c2.2-4.4,6.6-7.1,11.5-7.1c6.1,0,11.4,4.3,12.6,10.2l0.3,1.5l1.5,0.1c3.7,0.2,6.6,3.3,6.6,7c0,3.9-3.1,7-7,7.1
		h-0.1h-0.9v2h0.8l0,0h0.1c5,0,9.1-4.1,9.1-9.1C361.8,211.9,358,207.9,353.3,207.6z M325.4,204c-0.2,0-0.5,0-0.7,0
		c-2.5,0-4.9,0.9-6.7,2.3c-2-1.3-3.5-3.4-4-5.8c0.6,0.1,1.2,0.2,1.8,0.2c5,0,9-4,9-9c0-0.6-0.1-1.2-0.2-1.8c3.7,0.8,6.6,3.8,7.1,7.6
		C329,199,326.8,201.3,325.4,204z"/>
	<rect x="327.8" y="219.1" transform="matrix(0.8191 -0.5736 0.5736 0.8191 -69.4342 229.2325)" width="2" height="11.2"/>
	<rect x="345.8" y="219.1" transform="matrix(0.8191 -0.5736 0.5736 0.8191 -66.1716 239.5521)" width="2" height="11.2"/>
	<polygon points="339.6,228.7 341.4,228.7 341.8,228.7 343.8,228.7 337.4,219.6 335.8,220.7 340,226.7 338.2,226.7 335.8,226.7 
		337,228.6 338.2,230.1 342.8,236.7 344.4,235.6 339.8,229 	"/>
</g>
<g>
	<g>
		<path d="M-57.3,294.1c-1.6-7.4-8.2-13-16.1-13c-6.4,0-12,3.7-14.7,9c-0.3,0-0.5,0-0.8,0c-6.6,0-12,5.4-12,12s5.3,12,11.9,12l0,0
			h2.1v-2h-1.6h-0.4c-5.5,0-9.9-4.5-9.9-10s4.5-10,10-10c0.2,0,0.3,0,0.5,0h0.1l1.3,0.1l0.6-1.2c2.5-4.9,7.4-7.9,12.9-7.9
			c6.8,0,12.8,4.8,14.2,11.4l0.3,1.5l1.5,0.1c4.2,0.3,7.5,3.8,7.5,8c0,4.4-3.6,8-8,8H-58h-2h-2.9v2h4.9l0,0h0.1c5.5,0,10-4.5,10-10
			C-47.9,298.8-52,294.4-57.3,294.1z"/>
	</g>
	<g>
		<circle cx="-82.4" cy="307.6" r="1.5"/>
	</g>
	<g>
		<circle cx="-78.4" cy="313.6" r="1.5"/>
	</g>
	<g>
		<circle cx="-70.4" cy="313.6" r="1.5"/>
	</g>
	<g>
		<circle cx="-74.4" cy="307.6" r="1.5"/>
	</g>
	<g>
		<circle cx="-66.4" cy="307.6" r="1.5"/>
	</g>
	<g>
		<circle cx="-82.4" cy="319.6" r="1.5"/>
	</g>
	<g>
		<circle cx="-74.4" cy="319.6" r="1.5"/>
	</g>
	<g>
		<circle cx="-66.4" cy="319.6" r="1.5"/>
	</g>
</g>
<g>
	<g>
		<rect x="18.5" y="278.6" width="2" height="8"/>
	</g>
	<g>
		<rect x="-0.5" y="297.5" width="8" height="2"/>
	</g>
	<g>
		<rect x="7.2" y="283.3" transform="matrix(0.7071 -0.7071 0.7071 0.7071 -200.7328 89.9508)" width="2" height="8"/>
	</g>
	<g>
		<rect x="26.7" y="286.3" transform="matrix(0.7071 -0.7071 0.7071 0.7071 -194.1535 105.8679)" width="8" height="2"/>
	</g>
	<g>
		<path d="M49,304.4c-1.4-6.7-7.4-11.8-14.6-11.8c-2.2,0-4.3,0.5-6.1,1.3c-1.7-3.2-5-5.4-8.9-5.4c-5.5,0-10,4.5-10,10
			c0,2.5,0.9,4.7,2.4,6.4c-1.4,1.8-2.3,4.1-2.3,6.7c0,6,4.8,10.8,10.8,10.9l0,0h1.2v-2h-0.7h-0.5c-4.9,0-8.8-4-8.8-8.9
			s4-8.9,8.9-8.9c0.1,0,0.3,0,0.4,0h0.1l1.3,0.1l0.6-1.2c2.2-4.4,6.6-7.1,11.5-7.1c6.1,0,11.4,4.3,12.6,10.2l0.3,1.5l1.5,0.1
			c3.7,0.2,6.6,3.3,6.6,7c0,3.9-3.1,7-7,7.1h-0.1h-2h-1.8v2h3.8l0,0h0.1c5,0,9.1-4.1,9.1-9.1C57.5,308.6,53.8,304.7,49,304.4z
			 M21.1,300.8c-0.2,0-0.5,0-0.7,0c-2.8,0-5.3,1-7.2,2.7c-1.1-1.4-1.8-3.1-1.8-5c0-4.4,3.6-8,8-8c3.1,0,5.8,1.8,7.1,4.3
			C24.2,296.3,22.4,298.4,21.1,300.8z"/>
	</g>
	<g>
		<circle cx="25" cy="316" r="1.5"/>
	</g>
	<g>
		<circle cx="29" cy="322" r="1.5"/>
	</g>
	<g>
		<circle cx="37" cy="322" r="1.5"/>
	</g>
	<g>
		<circle cx="33" cy="316" r="1.5"/>
	</g>
	<g>
		<circle cx="41" cy="316" r="1.5"/>
	</g>
	<g>
		<circle cx="25" cy="328" r="1.5"/>
	</g>
	<g>
		<circle cx="33" cy="328" r="1.5"/>
	</g>
	<g>
		<circle cx="41" cy="328" r="1.5"/>
	</g>
</g>
<g>
	<g>
		<path d="M145,300.5c-1.4-6.7-7.4-11.8-14.6-11.8c-1.8,0-3.5,0.3-5.1,0.9c-0.9-5.1-5.4-9-10.8-9c-0.4,0-0.8,0-1.2,0.1
			c0.7,1.1,1.2,2.4,1.2,3.9c0,3.9-3.1,7-7,7c-1.4,0-2.8-0.4-3.9-1.2c0,0.4-0.1,0.8-0.1,1.2c0,3.7,1.8,7,4.7,9
			c-1.7,1.9-2.7,4.4-2.7,7.1c0,6,4.8,10.8,10.8,10.9l0,0h1.2v-2h-0.7h-0.5c-4.9,0-8.8-4-8.8-8.9s4-8.9,8.9-8.9c0.2,0,0.3,0,0.4,0
			h0.1l1.3,0.1l0.6-1.2c2.2-4.4,6.6-7.1,11.5-7.1c6.1,0,11.4,4.3,12.6,10.2l0.3,1.5l1.5,0.1c3.7,0.2,6.6,3.3,6.6,7
			c0,3.9-3.1,7-7,7.1h-0.1h-2h-1.8v2h3.8l0,0h0.1c5,0,9.1-4.1,9.1-9.1C153.5,304.7,149.7,300.8,145,300.5z M117.1,296.8
			c-0.2,0-0.5,0-0.7,0c-2.5,0-4.9,0.9-6.7,2.3c-2-1.3-3.5-3.4-4-5.8c0.6,0.1,1.2,0.2,1.8,0.2c5,0,9-4,9-9c0-0.6-0.1-1.2-0.2-1.8
			c3.7,0.8,6.6,3.8,7.1,7.6C120.7,291.8,118.5,294.1,117.1,296.8z"/>
	</g>
	<g>
		<circle cx="121" cy="312.1" r="1.5"/>
	</g>
	<g>
		<circle cx="125" cy="318.1" r="1.5"/>
	</g>
	<g>
		<circle cx="133" cy="318.1" r="1.5"/>
	</g>
	<g>
		<circle cx="129" cy="312.1" r="1.5"/>
	</g>
	<g>
		<circle cx="137" cy="312.1" r="1.5"/>
	</g>
	<g>
		<circle cx="121" cy="324.1" r="1.5"/>
	</g>
	<g>
		<circle cx="129" cy="324.1" r="1.5"/>
	</g>
	<g>
		<circle cx="137" cy="324.1" r="1.5"/>
	</g>
</g>
<g>
	<path d="M456.2,201.6c-1.6-7.4-8.2-13-16.1-13c-6.4,0-12,3.7-14.7,9c-0.3,0-0.5,0-0.8,0c-6.6,0-12,5.4-12,12s5.3,12,11.9,12l0,0
		h2.1v-2H425h-0.4c-5.5,0-9.9-4.5-9.9-10s4.5-10,10-10c0.2,0,0.3,0,0.5,0h0.1l1.3,0.1l0.6-1.2c2.5-4.9,7.4-7.9,12.9-7.9
		c6.8,0,12.8,4.8,14.2,11.4l0.3,1.5l1.5,0.1c4.2,0.3,7.5,3.8,7.5,8c0,4.4-3.6,8-8,8h-0.1h-2h-2.9v2h4.9l0,0h0.1c5.5,0,10-4.5,10-10
		C465.5,206.2,461.4,201.9,456.2,201.6z"/>
	<circle cx="430.5" cy="229" r="1.5"/>
	<circle cx="438.5" cy="235" r="1.5"/>
	<circle cx="446.5" cy="231" r="1.5"/>
	<rect x="429.5" y="212.6" width="2" height="12"/>
	<polygon points="439.5,230.5 439.5,228.6 439.5,216.6 437.5,216.6 437.5,228.6 437.5,230.5 437.5,230.5 	"/>
	<polygon points="447.5,226.3 447.5,224.6 447.5,212.6 445.5,212.6 445.5,224.6 445.5,226.3 445.5,226.5 447.5,226.5 	"/>
</g>
<g>
	<rect x="-292.2" y="273.2" width="2" height="8"/>
	<rect x="-311.2" y="292.1" width="8" height="2"/>
	<rect x="-303.6" y="277.8" transform="matrix(0.7071 -0.7071 0.7071 0.7071 -287.9211 -131.4321)" width="2" height="8"/>
	<rect x="-284" y="280.8" transform="matrix(0.7071 -0.7071 0.7071 0.7071 -281.2712 -115.4858)" width="8" height="2"/>
	<path d="M-261.7,299c-1.4-6.7-7.4-11.8-14.6-11.8c-2.2,0-4.3,0.5-6.1,1.3c-1.7-3.2-5-5.4-8.9-5.4c-5.5,0-10,4.5-10,10
		c0,2.5,0.9,4.7,2.4,6.4c-1.4,1.8-2.3,4.1-2.3,6.7c0,6,4.8,10.8,10.8,10.9l0,0h1.2v-2h-0.7h-0.5c-4.9,0-8.8-4-8.8-8.9s4-8.9,8.9-8.9
		c0.1,0,0.3,0,0.4,0h0.1l1.3,0.1l0.6-1.2c2.2-4.4,6.6-7.1,11.5-7.1c6.1,0,11.4,4.3,12.6,10.2l0.3,1.5l1.5,0.1c3.7,0.2,6.6,3.3,6.6,7
		c0,3.9-3.1,7-7,7.1h-0.1h-2h-0.8v2h2.8l0,0h0.1c5,0,9.1-4.1,9.1-9.1C-253.2,303.2-257,299.3-261.7,299z M-289.6,295.4
		c-0.2,0-0.5,0-0.7,0c-2.8,0-5.3,1-7.2,2.7c-1.1-1.4-1.8-3.1-1.8-5c0-4.4,3.6-8,8-8c3.1,0,5.8,1.8,7.1,4.3
		C-286.5,290.9-288.4,292.9-289.6,295.4z"/>
	<circle cx="-285.2" cy="325.5" r="1.5"/>
	<circle cx="-277.2" cy="331.5" r="1.5"/>
	<circle cx="-269.2" cy="327.5" r="1.5"/>
	<rect x="-286.2" y="309.1" width="2" height="12"/>
	<polygon points="-276.2,327 -276.2,325.1 -276.2,313.1 -278.2,313.1 -278.2,325.1 -278.2,327 -278.2,327 	"/>
	<polygon points="-268.2,322.8 -268.2,321.1 -268.2,309.1 -270.2,309.1 -270.2,321.1 -270.2,322.8 -270.2,323 -268.2,323 	"/>
</g>
<g>
	<path d="M-161.1,296c-1.4-6.7-7.4-11.8-14.6-11.8c-1.8,0-3.5,0.3-5.1,0.9c-0.9-5.1-5.4-9-10.8-9c-0.4,0-0.8,0-1.2,0.1
		c0.7,1.1,1.2,2.4,1.2,3.9c0,3.9-3.1,7-7,7c-1.4,0-2.8-0.4-3.9-1.2c0,0.4-0.1,0.8-0.1,1.2c0,3.7,1.8,7,4.7,9
		c-1.7,1.9-2.7,4.4-2.7,7.1c0,6,4.8,10.8,10.8,10.9l0,0h1.2v-2h-0.7h-0.5c-4.9,0-8.8-4-8.8-8.9s4-8.9,8.9-8.9c0.1,0,0.3,0,0.4,0h0.1
		l1.3,0.1l0.6-1.2c2.2-4.4,6.6-7.1,11.5-7.1c6.1,0,11.4,4.3,12.6,10.2l0.3,1.5l1.5,0.1c3.7,0.2,6.6,3.3,6.6,7c0,3.9-3.1,7-7,7.1
		h-0.1h-2h-0.8v2h2.8l0,0h0.1c5,0,9.1-4.1,9.1-9.1C-152.6,300.2-156.4,296.3-161.1,296z M-189,292.4c-0.2,0-0.5,0-0.7,0
		c-2.5,0-4.9,0.9-6.7,2.3c-2-1.3-3.5-3.4-4-5.8c0.6,0.1,1.2,0.2,1.8,0.2c5,0,9-4,9-9c0-0.6-0.1-1.2-0.2-1.8c3.7,0.8,6.6,3.8,7.1,7.6
		C-185.4,287.4-187.6,289.6-189,292.4z"/>
	<circle cx="-184.6" cy="322.6" r="1.5"/>
	<circle cx="-176.6" cy="328.6" r="1.5"/>
	<circle cx="-168.6" cy="324.6" r="1.5"/>
	<rect x="-185.6" y="306.1" width="2" height="12"/>
	<polygon points="-175.6,324 -175.6,322.1 -175.6,310.1 -177.6,310.1 -177.6,322.1 -177.6,324 -177.6,324.1 -175.6,324.1 	"/>
	<polygon points="-167.6,319.8 -167.6,318.1 -167.6,306.1 -169.6,306.1 -169.6,318.1 -169.6,319.8 -169.6,320.1 -167.6,320.1 	"/>
</g>
<g>
	<rect x="-309.2" y="400.4" width="56" height="2"/>
	<rect x="-305.2" y="406.4" width="50" height="2"/>
	<rect x="-299.2" y="412.4" width="36" height="2"/>
	<rect x="-307.2" y="394.4" width="52" height="2"/>
	<path d="M-295.3,386.4c0.2,0,0.3,0,0.5,0h0.1l1.3,0.1l0.6-1.2c2.5-4.9,7.4-7.9,12.9-7.9c6.8,0,12.8,4.8,14.2,11.4l0.3,1.5l1.5,0.1
		c1.2,0.1,2.3,0.4,3.3,1h3.3c-1.7-1.7-4-2.8-6.5-3c-1.6-7.4-8.2-13-16.1-13c-6.4,0-12,3.7-14.7,9c-0.3,0-0.5,0-0.8,0
		c-4.8,0-9,2.9-10.9,7h2.3C-302.3,388.4-299,386.4-295.3,386.4z"/>
</g>
<g>
	<rect x="-188.1" y="372.9" width="2" height="8"/>
	<rect x="-207.1" y="391.8" width="8" height="2"/>
	<rect x="-199.5" y="377.6" transform="matrix(0.7071 -0.7071 0.7071 0.7071 -327.9673 -28.557)" width="2" height="8"/>
	<rect x="-179.9" y="380.6" transform="matrix(0.7071 -0.7071 0.7071 0.7071 -321.3174 -12.6106)" width="8" height="2"/>
	<rect x="-198.1" y="406.8" width="50" height="2"/>
	<rect x="-194.1" y="412.8" width="44" height="2"/>
	<rect x="-188.1" y="417.8" width="30" height="2"/>
	<rect x="-196.1" y="400.8" width="46" height="2"/>
	<path d="M-195.2,398.8h0.8h1.9h1c1.5-1.1,3.3-1.7,5.2-1.7c0.1,0,0.3,0,0.4,0h0.1l1.3,0.1l0.6-1.2c2.2-4.4,6.6-7.1,11.5-7.1
		c5.9,0,11.2,4.1,12.6,9.9h2v-0.1c-1.4-6.7-7.4-11.8-14.6-11.8c-2.2,0-4.3,0.5-6.1,1.3c-1.7-3.2-5-5.4-8.9-5.4c-5.5,0-10,4.5-10,10
		C-197.2,395.1-196.5,397.1-195.2,398.8z M-187.2,384.8c3.1,0,5.8,1.8,7.1,4.3c-2.3,1.4-4.2,3.5-5.4,5.9c-0.2,0-0.5,0-0.7,0
		c-2.8,0-5.3,1-7.2,2.7c-1.1-1.4-1.8-3.1-1.8-5C-195.2,388.4-191.6,384.8-187.2,384.8z"/>
</g>
<g>
	<rect x="-99.4" y="403.3" width="50" height="2"/>
	<rect x="-95.4" y="409.3" width="44" height="2"/>
	<rect x="-89.4" y="414.3" width="30" height="2"/>
	<rect x="-97.4" y="397.3" width="46" height="2"/>
	<path d="M-95.7,395.3L-95.7,395.3h1.9h1.1c1.5-1.1,3.3-1.7,5.2-1.7c0.2,0,0.3,0,0.4,0h0.1l1.3,0.1l0.6-1.2
		c2.2-4.4,6.6-7.1,11.5-7.1c5.9,0,11.2,4.1,12.6,9.9h2v-0.1c-1.4-6.7-7.4-11.8-14.6-11.8c-1.8,0-3.5,0.3-5.1,0.9
		c-0.9-5.1-5.4-9-10.8-9c-0.4,0-0.8,0-1.2,0.1c0.7,1.1,1.2,2.4,1.2,3.9c0,3.9-3.1,7-7,7c-1.4,0-2.8-0.4-3.9-1.2
		c0,0.4-0.1,0.8-0.1,1.2C-100.4,390.1-98.5,393.4-95.7,395.3z M-96.4,388.3c5,0,9-4,9-9c0-0.6-0.1-1.2-0.2-1.8
		c3.7,0.8,6.6,3.8,7.1,7.6c-2.7,1.4-4.9,3.7-6.3,6.4c-0.2,0-0.5,0-0.7,0c-2.5,0-4.9,0.9-6.7,2.3c-2-1.3-3.5-3.4-4-5.8
		C-97.6,388.3-97,388.3-96.4,388.3z"/>
</g>
<g>
	<path d="M32.5,406.4H13h-0.6c-5.5,0-9.9-4.5-9.9-10s4.5-10,10-10c0.2,0,0.3,0,0.5,0h0.1l1.3,0.1l0.6-1.2c2.5-4.9,7.4-7.9,12.9-7.9
		c6.8,0,12.8,4.8,14.2,11.4l0.3,1.5l1.5,0.1c1.8,0.1,3.5,0.8,4.7,2h2.7c-1.7-2.3-4.3-3.8-7.4-4c-1.6-7.4-8.2-13-16.1-13
		c-6.4,0-12,3.7-14.7,9c-0.3,0-0.5,0-0.8,0c-6.6,0-12,5.4-12,12s5.3,12,11.9,12l0,0h20.1c2.2,0,4,1.8,4,4s-1.8,4-4,4v2
		c3.3,0,6-2.7,6-6C38.5,409,35.8,406.4,32.5,406.4z"/>
	<path d="M36.5,402.4h-16v2h16c3.3,0,6-2.7,6-6s-2.7-6-6-6v2c2.2,0,4,1.8,4,4S38.7,402.4,36.5,402.4z"/>
	<path d="M49.5,396.4c1.7,0,3,1.3,3,3s-1.3,3-3,3h-0.1h-4.9l0,0l0,0v2H50v-0.1c2.5-0.3,4.5-2.4,4.5-4.9c0-2.8-2.2-5-5-5V396.4
		L49.5,396.4z"/>
	<path d="M53.5,406.4h-13v2h9l0,0h3.9h0.1c1.7,0,3,1.3,3,3s-1.3,3-3,3v2c2.8,0,5-2.2,5-5S56.3,406.4,53.5,406.4z"/>
	<rect x="14.5" y="402.4" width="4" height="2"/>
</g>
<path d="M-175,7.3c6.9,1.3,12.2,7.4,12.2,14.7c0,8.3-6.7,15-15,15c-6.8,0-12.5-4.5-14.4-10.7c1.4,0.5,2.9,0.7,4.4,0.7
	c7.7,0,14-6.3,14-14C-173.8,11-174.2,9-175,7.3 M-177.8,5c-0.3,0-0.7,0-1,0.1c1.9,2.1,3,4.9,3,7.9c0,6.6-5.4,12-12,12
	c-2.6,0-5-0.8-7-2.2c0.4,9,7.8,16.3,17,16.3c9.4,0,17-7.6,17-17S-168.4,5-177.8,5L-177.8,5z"/>
<g>
	<path d="M-281.2,10c-7.2,0-13,5.8-13,13s5.8,13,13,13s13-5.8,13-13S-274,10-281.2,10z M-281.2,34c-6.1,0-11-4.9-11-11s4.9-11,11-11
		s11,4.9,11,11S-275.1,34-281.2,34z"/>
	<rect x="-282.2" y="-3" width="2" height="10"/>
	<rect x="-282.2" y="39" width="2" height="10"/>
	<rect x="-307.2" y="22" width="10" height="2"/>
	<rect x="-265.2" y="22" width="10" height="2"/>
	<rect x="-271.7" y="7.3" transform="matrix(0.7071 -0.7071 0.7071 0.7071 -83.91 -186.0165)" width="10.4" height="2"/>
	<rect x="-301.1" y="36.7" transform="matrix(0.7071 -0.7071 0.7071 0.7071 -113.3071 -198.2021)" width="10.4" height="2"/>
	<rect x="-296.9" y="3.1" transform="matrix(0.7071 -0.7071 0.7071 0.7071 -92.5212 -206.8095)" width="2" height="10.4"/>
	<rect x="-267.5" y="32.5" transform="matrix(0.7071 -0.7072 0.7072 0.7071 -104.7435 -177.4226)" width="2" height="10.4"/>
</g>
<g>
	<rect x="116.9" y="367.9" width="2" height="8"/>
	<rect x="98" y="386.8" width="8" height="2"/>
	<rect x="105.7" y="372.6" transform="matrix(0.7071 -0.7071 0.7071 0.7071 -235.0504 185.7364)" width="2" height="8"/>
	<rect x="125.2" y="375.6" transform="matrix(0.7071 -0.7071 0.7071 0.7071 -228.471 201.6535)" width="8" height="2"/>
	<path d="M132,409.9L132,409.9h-12.5h-0.6c-4.9,0-8.8-4-8.8-8.9s4-8.9,8.9-8.9c0.2,0,0.3,0,0.4,0h0.1l1.3,0.1l0.6-1.2
		c2.2-4.4,6.6-7.1,11.5-7.1c5.9,0,11.1,4.1,12.5,9.8h2.1c-1.4-6.7-7.4-11.8-14.6-11.8c-2.2,0-4.3,0.5-6.1,1.3
		c-1.7-3.2-5-5.4-8.9-5.4c-5.5,0-10,4.5-10,10c0,2.5,0.9,4.7,2.4,6.4c-1.4,1.8-2.3,4.1-2.3,6.7c0,6,4.8,10.8,10.8,10.9l0,0H132l0,0
		c2.2,0,4,1.8,4,4s-1.8,4-4,4v2c3.3,0,6-2.7,6-6S135.3,409.9,132,409.9z M117.9,379.9c3.1,0,5.8,1.8,7.1,4.3
		c-2.3,1.4-4.2,3.5-5.4,5.9c-0.2,0-0.5,0-0.7,0c-2.8,0-5.3,1-7.2,2.7c-1.1-1.4-1.8-3.1-1.8-5C109.9,383.5,113.5,379.9,117.9,379.9z"
		/>
	<path d="M136,405.9h-10v2h10c3.3,0,6-2.7,6-6s-2.7-6-6-6v2c2.2,0,4,1.8,4,4S138.2,405.9,136,405.9z"/>
	<path d="M144,405.9L144,405.9v2h5.5v-0.1c2.5-0.3,4.5-2.4,4.5-4.9c0-2.8-2.2-5-5-5v2c1.7,0,3,1.3,3,3s-1.3,3-3,3h-0.1H144
		L144,405.9z"/>
	<path d="M153,409.9h-13v2h9l0,0h3.9h0.1c1.7,0,3,1.3,3,3s-1.3,3-3,3v2c2.8,0,5-2.2,5-5S155.7,409.9,153,409.9z"/>
	<rect x="120" y="405.9" width="4" height="2"/>
</g>
<g>
	<path d="M231.9,407.9L231.9,407.9h-12.5h-0.6c-4.9,0-8.8-4-8.8-8.9s4-8.9,8.9-8.9c0.1,0,0.3,0,0.4,0h0.1l1.3,0.1l0.6-1.2
		c2.2-4.4,6.6-7.1,11.5-7.1c5.9,0,11.1,4.1,12.5,9.8h2.1c-1.4-6.7-7.4-11.8-14.6-11.8c-1.8,0-3.5,0.3-5.1,0.9c-0.9-5.1-5.4-9-10.8-9
		c-0.4,0-0.8,0-1.2,0.1c0.7,1.1,1.2,2.4,1.2,3.9c0,3.9-3.1,7-7,7c-1.4,0-2.8-0.4-3.9-1.2c0,0.4-0.1,0.8-0.1,1.2c0,3.7,1.9,7,4.7,9
		c-1.7,1.9-2.7,4.4-2.7,7.1c0,6,4.8,10.8,10.8,10.9l0,0h13.1l0,0c2.2,0,4,1.8,4,4s-1.8,4-4,4v2c3.3,0,6-2.7,6-6
		C237.9,410.5,235.3,407.9,231.9,407.9z M208.1,384.6c0.6,0.1,1.2,0.2,1.8,0.2c5,0,9-4,9-9c0-0.6-0.1-1.2-0.2-1.8
		c3.7,0.8,6.6,3.8,7.1,7.7c-2.7,1.4-4.9,3.7-6.3,6.4c-0.2,0-0.5,0-0.7,0c-2.5,0-4.9,0.9-6.7,2.3
		C210.1,389.1,208.6,387.1,208.1,384.6z"/>
	<path d="M235.9,403.9h-10v2h10c3.3,0,6-2.7,6-6s-2.7-6-6-6v2c2.2,0,4,1.8,4,4S238.1,403.9,235.9,403.9z"/>
	<path d="M244,403.9L244,403.9v2h5.5v-0.1c2.5-0.3,4.5-2.4,4.5-4.9c0-2.8-2.2-5-5-5v2c1.7,0,3,1.3,3,3s-1.3,3-3,3h-0.1H244
		C244,403.8,244,403.8,244,403.9z"/>
	<path d="M252.9,407.9h-13v2h9l0,0h3.9h0.1c1.7,0,3,1.3,3,3s-1.3,3-3,3v2c2.8,0,5-2.2,5-5S255.7,407.9,252.9,407.9z"/>
	<rect x="219.9" y="403.9" width="4" height="2"/>
</g>
<g>
	<rect x="332.8" y="370.4" width="2" height="10"/>
	<rect x="307.8" y="395.4" width="10" height="2"/>
	<rect x="343.3" y="380.7" transform="matrix(0.7071 -0.7071 0.7071 0.7071 -167.8468 358.2309)" width="10.4" height="2"/>
	<rect x="318.1" y="376.5" transform="matrix(0.7071 -0.7071 0.7071 0.7071 -176.4579 337.4385)" width="2" height="10.4"/>
	<path d="M337.8,410.4h-24v2h24c2.2,0,4,1.8,4,4s-1.8,4-4,4v2c3.3,0,6-2.7,6-6S341.1,410.4,337.8,410.4z"/>
	<path d="M349.9,406.4L349.9,406.4v2h5.5v-0.1c2.5-0.3,4.5-2.4,4.5-4.9c0-2.8-2.2-5-5-5v2c1.7,0,3,1.3,3,3s-1.3,3-3,3h-0.1H349.9
		C349.8,406.4,349.9,406.4,349.9,406.4z"/>
	<path d="M358.8,410.4h-13v2h9l0,0h3.9h0.1c1.7,0,3,1.3,3,3s-1.3,3-3,3v2c2.8,0,5-2.2,5-5S361.6,410.4,358.8,410.4z"/>
	<path d="M325.5,406.4h-11.7v2h12h0.8h15.2c3.3,0,6-2.7,6-6s-2.7-6-6-6v2c2.2,0,4,1.8,4,4s-1.8,4-4,4h-12.5c-3.8-1.7-6.5-5.6-6.5-10
		c0-6.1,4.9-11,11-11c5.4,0,9.9,3.9,10.8,9h2c-1-6.2-6.3-11-12.8-11c-7.2,0-13,5.8-13,13C320.8,400.4,322.7,404,325.5,406.4z"/>
</g>
<g>
	<path d="M438.1,403.9h-24v2h24c2.2,0,4,1.8,4,4s-1.8,4-4,4v2c3.3,0,6-2.7,6-6S441.4,403.9,438.1,403.9z"/>
	<path d="M455.6,401.9L455.6,401.9c2.5-0.3,4.5-2.4,4.5-5c0-2.8-2.2-5-5-5v2c1.7,0,3,1.3,3,3s-1.3,3-3,3H455h-4.9l0,0l0,0v2H455.6z"
		/>
	<path d="M459.1,403.9h-13v2h9l0,0h3.9h0.1c1.7,0,3,1.3,3,3s-1.3,3-3,3v2c2.8,0,5-2.2,5-5S461.8,403.9,459.1,403.9z"/>
	<path d="M426.9,401.9h15.2c3.3,0,6-2.7,6-6s-2.7-6-6-6v2c2.2,0,4,1.8,4,4s-1.8,4-4,4h-12.6c-2.6-1.2-4.7-3.3-5.7-6
		c0.8,0.2,1.7,0.3,2.6,0.3c6.2,0,11.2-5,11.2-11.2c0-1.3-0.2-2.5-0.6-3.7c4,1.1,7.2,4.5,7.9,8.6h2c-1-6.2-6.3-11-12.8-11
		c-0.3,0-0.5,0-0.8,0c1.4,1.6,2.3,3.7,2.3,6.1c0,5.1-4.1,9.2-9.2,9.2c-2,0-3.8-0.6-5.3-1.7c0.2,3.8,2,7.2,4.7,9.4h-11.7v2h12
		L426.9,401.9L426.9,401.9z"/>
</g>
<g>
	<path d="M-281.7,489.1h-20c-1.1,0-2-0.9-2-2s0.9-2,2-2h3.4h0.6v-2h-4c-2.2,0-4,1.8-4,4s1.8,4,4,4h20c2.2,0,4,1.8,4,4s-1.8,4-4,4v2
		c3.3,0,6-2.7,6-6C-275.7,491.7-278.4,489.1-281.7,489.1z"/>
	<path d="M-279.7,473.1v2c2.2,0,4,1.8,4,4s-1.8,4-4,4h-16v2h16c3.3,0,6-2.7,6-6C-273.7,475.7-276.4,473.1-279.7,473.1z"/>
	<path d="M-273.7,485.1v2h5.5V487c2.5-0.3,4.5-2.4,4.5-4.9c0-2.8-2.2-5-5-5v2c1.7,0,3,1.3,3,3s-1.3,3-3,3h-0.1H-273.7L-273.7,485.1
		L-273.7,485.1z"/>
	<path d="M-262.7,489.1h-11v2h7l0,0h3.9h0.1c1.7,0,3,1.3,3,3s-1.3,3-3,3v2c2.8,0,5-2.2,5-5S-260,489.1-262.7,489.1z"/>
</g>
<path d="M254.6,475.4L254.6,475.4h-38.4c-1.1,0-2-0.9-2-2s0.9-2,2-2h33c2.8,0,5-2.2,5-5s-2.2-5-5-5h-37.9l0,0h-0.1c-2.8,0-5,2.2-5,5
	s2.2,5,5,5v-2c-1.7,0-3-1.3-3-3s1.3-3,3-3h0.1h3.9h34c1.7,0,3,1.3,3,3s-1.3,3-3,3h-33c-2.2,0-4,1.8-4,4s1.8,4,4,4h38
	c1.1,0,2,0.9,2,2s-0.9,2-2,2h-32c-2.2,0-4,1.8-4,4s1.8,4,4,4h22c1.1,0,2,0.9,2,2s-0.9,2-2,2h-24l0,0c-2.2,0-4,1.8-4,4s1.8,4,4,4l0,0
	h12c1.1,0,2,0.9,2,2s-0.9,2-2,2h-2c-2.2,0-4,1.8-4,4s1.8,4,4,4v-2c-1.1,0-2-0.9-2-2s0.9-2,2-2h2c2.2,0,4-1.8,4-4s-1.8-4-4-4h-12
	c-1.1,0-2-0.9-2-2s0.9-2,2-2h24c2.2,0,4-1.8,4-4s-1.7-3.9-3.8-4l0,0h-22.2c-1.1,0-2-0.9-2-2s0.9-2,2-2h32c2.2,0,4-1.8,4-4
	C258.2,477.3,256.6,475.6,254.6,475.4z"/>
<path d="M440,466.1v-2h-2v2c-13,0.5-23.5,11-24,24h1.7c1.1-1.2,2.7-2,4.6-2c2.3,0,4.2,1.2,5.3,3h1.8c1.1-1.8,3.1-3,5.3-3
	c2.2,0,4.1,1.1,5.2,2.9v15.1c0,2.2,1.8,4,4,4s4-1.8,4-4h-2c0,1.1-0.9,2-2,2s-2-0.9-2-2V491c1.1-1.7,3-2.9,5.2-2.9
	c2.3,0,4.2,1.2,5.3,3h1.8c1.1-1.8,3.1-3,5.3-3c1.8,0,3.4,0.8,4.6,2h1.7C463.4,477,453,466.6,440,466.1z M457.7,486.1
	c-2.5,0-4.7,1.1-6.2,2.9c-1.5-1.8-3.8-2.9-6.2-2.9s-4.7,1.1-6.2,2.9c-1.5-1.8-3.8-2.9-6.2-2.9s-4.7,1.1-6.2,2.9
	c-1.5-1.8-3.8-2.9-6.2-2.9c-1.4,0-2.7,0.4-3.9,1c1.9-10.8,11.3-19,22.6-19s20.7,8.2,22.6,19C460.5,486.4,459.1,486.1,457.7,486.1z"
	/>
<g>
	<path d="M34.7,590.4v-17.1c0-2.8-2.2-5-5-5s-5,2.2-5,5v17.1c-1.2,1.3-2,3-2,4.9c0,3.9,3.1,7,7,7s7-3.1,7-7
		C36.7,593.4,35.9,591.6,34.7,590.4z M29.7,600.3c-2.8,0-5-2.2-5-5c0-1.3,0.5-2.6,1.4-3.5l0.6-0.6v-0.8v-17.1c0-1.7,1.3-3,3-3
		s3,1.3,3,3v17.1v0.8l0.6,0.6c0.9,0.9,1.4,2.2,1.4,3.5C34.7,598,32.4,600.3,29.7,600.3z"/>
	<path d="M30.7,592.4v-15.2h-2v15.2c-1.2,0.4-2,1.5-2,2.8c0,1.7,1.3,3,3,3s3-1.3,3-3C32.7,594,31.9,592.9,30.7,592.4z M29.7,596.3
		c-0.6,0-1-0.5-1-1s0.5-1,1-1s1,0.5,1,1S30.2,596.3,29.7,596.3z"/>
</g>
<g>
	<path d="M134.5,590.4v-17.1c0-2.8-2.2-5-5-5s-5,2.2-5,5v17.1c-1.2,1.3-2,3-2,4.9c0,3.9,3.1,7,7,7c3.9,0,7-3.1,7-7
		C136.5,593.4,135.7,591.6,134.5,590.4z M129.5,600.3c-2.8,0-5-2.2-5-5c0-1.3,0.5-2.6,1.4-3.5l0.6-0.6v-0.8v-17.1c0-1.7,1.3-3,3-3
		s3,1.3,3,3v17.1v0.8l0.6,0.6c0.9,0.9,1.4,2.2,1.4,3.5C134.5,598,132.2,600.3,129.5,600.3z"/>
	<path d="M130.5,592.4v-20.2h-2v20.2c-1.2,0.4-2,1.5-2,2.8c0,1.7,1.3,3,3,3s3-1.3,3-3C132.5,594,131.6,592.9,130.5,592.4z
		 M129.5,596.3c-0.6,0-1-0.5-1-1s0.5-1,1-1s1,0.5,1,1S130,596.3,129.5,596.3z"/>
</g>
<g>
	<path d="M-68.4,590.4v-17.1c0-2.8-2.2-5-5-5s-5,2.2-5,5v17.1c-1.2,1.3-2,3-2,4.9c0,3.9,3.1,7,7,7s7-3.1,7-7
		C-66.4,593.4-67.2,591.6-68.4,590.4z M-73.4,600.3c-2.8,0-5-2.2-5-5c0-1.3,0.5-2.6,1.4-3.5l0.6-0.6v-0.8v-17.1c0-1.7,1.3-3,3-3
		s3,1.3,3,3v17.1v0.8l0.6,0.6c0.9,0.9,1.4,2.2,1.4,3.5C-68.4,598-70.7,600.3-73.4,600.3z"/>
	<path d="M-72.4,592.4v-10.2h-2v10.2c-1.2,0.4-2,1.5-2,2.8c0,1.7,1.3,3,3,3s3-1.3,3-3C-70.4,594-71.3,592.9-72.4,592.4z
		 M-73.4,596.3c-0.6,0-1-0.5-1-1s0.5-1,1-1s1,0.5,1,1S-72.9,596.3-73.4,596.3z"/>
</g>
<g>
	<path d="M-172.1,590.4v-17.1c0-2.8-2.2-5-5-5s-5,2.2-5,5v17.1c-1.2,1.3-2,3-2,4.9c0,3.9,3.1,7,7,7s7-3.1,7-7
		C-170.1,593.4-170.8,591.6-172.1,590.4z M-177.1,600.3c-2.8,0-5-2.2-5-5c0-1.3,0.5-2.6,1.4-3.5l0.6-0.6v-0.8v-17.1c0-1.7,1.3-3,3-3
		s3,1.3,3,3v17.1v0.8l0.6,0.6c0.9,0.9,1.4,2.2,1.4,3.5C-172.1,598-174.3,600.3-177.1,600.3z"/>
	<path d="M-176.1,592.4v-5.2h-2v5.2c-1.2,0.4-2,1.5-2,2.8c0,1.7,1.3,3,3,3s3-1.3,3-3C-174.1,594-174.9,592.9-176.1,592.4z
		 M-177.1,596.3c-0.6,0-1-0.5-1-1s0.5-1,1-1s1,0.5,1,1S-176.5,596.3-177.1,596.3z"/>
</g>
<g>
	<path d="M-276.7,590.4v-17.1c0-2.8-2.2-5-5-5s-5,2.2-5,5v17.1c-1.2,1.3-2,3-2,4.9c0,3.9,3.1,7,7,7s7-3.1,7-7
		C-274.7,593.4-275.5,591.6-276.7,590.4z M-281.7,600.3c-2.8,0-5-2.2-5-5c0-1.3,0.5-2.6,1.4-3.5l0.6-0.6v-0.8v-17.1c0-1.7,1.3-3,3-3
		s3,1.3,3,3v17.1v0.8l0.6,0.6c0.9,0.9,1.4,2.2,1.4,3.5C-276.7,598-279,600.3-281.7,600.3z"/>
	<path d="M-281.7,592.3c-1.7,0-3,1.3-3,3s1.3,3,3,3s3-1.3,3-3S-280.1,592.3-281.7,592.3z M-281.7,596.3c-0.6,0-1-0.5-1-1s0.5-1,1-1
		s1,0.5,1,1S-281.2,596.3-281.7,596.3z"/>
</g>
<g>
	<path d="M223.2,570.6c-2.2,0-4,1.8-4,4s1.8,4,4,4s4-1.8,4-4C227.2,572.4,225.4,570.6,223.2,570.6z M223.2,576.6c-1.1,0-2-0.9-2-2
		s0.9-2,2-2s2,0.9,2,2S224.3,576.6,223.2,576.6z"/>
	<path d="M237.2,598.6c-4.4,0-8-3.6-8-8v-4c0-4.4,3.6-8,8-8c2.7,0,5.1,1.4,6.6,3.4l1.4-1.4c-1.8-2.4-4.7-4-8-4c-5.5,0-10,4.5-10,10
		v4c0,5.5,4.5,10,10,10c3.3,0,6.2-1.6,8-4l-1.4-1.4C242.3,597.2,239.9,598.6,237.2,598.6z"/>
</g>
<g>
	<path d="M327.9,570.5c-2.2,0-4,1.8-4,4s1.8,4,4,4s4-1.8,4-4C331.9,572.2,330.1,570.5,327.9,570.5z M327.9,576.5c-1.1,0-2-0.9-2-2
		s0.9-2,2-2s2,0.9,2,2S329,576.5,327.9,576.5z"/>
	<polygon points="347.8,578.6 347.8,576.6 335.8,576.6 333.8,576.6 333.8,600.6 335.8,600.6 335.8,588.6 343.8,588.6 343.8,586.6 
		335.8,586.6 335.8,578.6 	"/>
</g>
<g>
	<path d="M439,574.3c-7.2,0-13,5.8-13,13s5.8,13,13,13s13-5.8,13-13S446.2,574.3,439,574.3z M439,598.3c-6.1,0-11-4.9-11-11
		s4.9-11,11-11s11,4.9,11,11S445,598.3,439,598.3z"/>
	<path d="M434.7,591.5l6.4-2.1l2.1-6.4l-6.4,2.1L434.7,591.5z M438.4,586.7l1.6-0.5l-0.5,1.6l-1.6,0.5L438.4,586.7z"/>
</g>
<g>
	<path d="M-281.7,664.8c-7.2,0-13,5.8-13,13s5.8,13,13,13s13-5.8,13-13S-274.5,664.8-281.7,664.8z M-281.7,688.8
		c-6.1,0-11-4.9-11-11s4.9-11,11-11s11,4.9,11,11C-270.7,683.9-275.7,688.8-281.7,688.8z"/>
	<path d="M-279.2,676.2l-2.6-4.4l-2.5,4.3l0,0c-0.3,0.5-0.5,1-0.5,1.6c0,1.7,1.3,3,3,3s3-1.3,3-3
		C-278.7,677.2-278.9,676.7-279.2,676.2L-279.2,676.2z M-281.7,678.7c-0.6,0-1-0.4-1-1c0-0.2,0.1-0.4,0.2-0.5l0.9-1.4l0.8,1.4
		c0.1,0.2,0.1,0.3,0.1,0.5C-280.7,678.3-281.2,678.7-281.7,678.7z"/>
</g>
<g>
	<path d="M-176.9,664.8c-7.2,0-13,5.8-13,13s5.8,13,13,13s13-5.8,13-13S-169.8,664.8-176.9,664.8z M-176.9,688.8
		c-6.1,0-11-4.9-11-11s4.9-11,11-11s11,4.9,11,11C-165.9,683.9-170.9,688.8-176.9,688.8z"/>
	<path d="M-175.4,675.2c-0.5-0.3-1-0.5-1.6-0.5c-1.7,0-3,1.3-3,3s1.3,3,3,3c0.6,0,1.1-0.2,1.5-0.4l0,0l4.4-2.6L-175.4,675.2
		L-175.4,675.2L-175.4,675.2z M-176.5,678.6c-0.2,0.1-0.3,0.1-0.5,0.1c-0.6,0-1-0.4-1-1s0.4-1,1-1c0.2,0,0.4,0.1,0.5,0.2l1.4,0.9
		L-176.5,678.6z"/>
</g>
<g>
	<path d="M-73.9,664.8c-7.2,0-13,5.8-13,13s5.8,13,13,13s13-5.8,13-13S-66.7,664.8-73.9,664.8z M-73.9,688.8c-6.1,0-11-4.9-11-11
		s4.9-11,11-11s11,4.9,11,11C-62.9,683.9-67.8,688.8-73.9,688.8z"/>
	<path d="M-73.9,674.7c-1.7,0-3,1.3-3,3c0,0.6,0.2,1.1,0.4,1.5l0,0l2.6,4.4l2.5-4.3l0,0c0.3-0.5,0.5-1,0.5-1.6
		C-70.9,676.1-72.2,674.7-73.9,674.7z M-73,678.3l-0.9,1.4l-0.8-1.4c-0.1-0.2-0.1-0.3-0.1-0.5c0-0.6,0.4-1,1-1s1,0.4,1,1
		C-72.9,677.9-72.9,678.1-73,678.3z"/>
</g>
<g>
	<path d="M29.5,664.8c-7.2,0-13,5.8-13,13s5.8,13,13,13s13-5.8,13-13S36.7,664.8,29.5,664.8z M29.5,688.8c-6.1,0-11-4.9-11-11
		s4.9-11,11-11s11,4.9,11,11C40.5,683.9,35.6,688.8,29.5,688.8z"/>
	<path d="M29.5,674.7c-0.6,0-1.1,0.2-1.5,0.4l0,0l-4.4,2.6l4.3,2.5l0,0c0.5,0.3,1,0.5,1.6,0.5c1.7,0,3-1.3,3-3
		C32.5,676.1,31.1,674.7,29.5,674.7z M29.5,678.7c-0.2,0-0.4-0.1-0.5-0.2l-1.4-0.9l1.4-0.8c0.2-0.1,0.3-0.1,0.5-0.1c0.6,0,1,0.4,1,1
		S30,678.7,29.5,678.7z"/>
</g>
<g>
	<rect x="-178.6" y="468.1" width="2" height="10"/>
	<rect x="-168.1" y="478.3" transform="matrix(0.7071 -0.7071 0.7071 0.7071 -386.6367 25.1653)" width="10.4" height="2"/>
	<rect x="-193.3" y="474.1" transform="matrix(0.7071 -0.7071 0.7071 0.7071 -395.2478 4.3728)" width="2" height="10.4"/>
	<polygon points="-184.3,497.3 -182.9,498.7 -178.6,494.5 -178.6,504.1 -176.6,504.1 -176.6,494.5 -172.4,498.7 -171,497.3 
		-177.6,490.6 	"/>
	<path d="M-164.6,494.1L-164.6,494.1c0-7.2-5.8-13-13-13s-13,5.8-13,13l0,0h-13v2h18v-2h-3l0,0c0-6.1,4.9-11,11-11s11,4.9,11,11l0,0
		h-3v2h18v-2H-164.6z"/>
</g>
<g>
	<rect x="-74.9" y="466.9" width="2" height="10"/>
	<rect x="-64.4" y="477.2" transform="matrix(0.7071 -0.7071 0.7071 0.7071 -355.4683 98.2251)" width="10.4" height="2"/>
	<rect x="-89.6" y="473" transform="matrix(0.7071 -0.7071 0.7071 0.7071 -364.0795 77.432)" width="2" height="10.4"/>
	<polygon points="-72.9,501.4 -72.9,490.9 -74.9,490.9 -74.9,501.4 -79.1,497.2 -80.5,498.6 -73.9,505.2 -67.2,498.6 -68.6,497.2 	
		"/>
	<path d="M-60.9,492.9L-60.9,492.9c0-7.2-5.8-13-13-13s-13,5.8-13,13l0,0h-13v2h22v-2h-7l0,0c0-6.1,4.9-11,11-11s11,4.9,11,11l0,0
		h-7v2h22v-2H-60.9z"/>
</g>
<g>
	<polygon points="129.5,500.9 129.5,486.5 127.5,486.5 127.5,500.9 123.2,496.6 121.8,498 128.5,504.7 135.1,498 133.7,496.6 	"/>
	<path d="M145.1,481.5c-1.6-7.4-8.2-13-16.1-13c-6.4,0-12,3.7-14.7,9c-0.3,0-0.5,0-0.8,0c-6.6,0-12,5.4-12,12s5.3,12,11.9,12l0,0
		h6.1v-2h-5.6h-0.4c-5.5,0-9.9-4.5-9.9-10s4.5-10,10-10c0.2,0,0.3,0,0.5,0h0.1l1.3,0.1l0.6-1.2c2.5-4.9,7.4-7.9,12.9-7.9
		c6.8,0,12.8,4.8,14.2,11.4l0.3,1.5l1.5,0.1c4.2,0.3,7.5,3.8,7.5,8c0,4.4-3.6,8-8,8c-0.1,0-0.1,0-0.1,0h-2h-4.9v2h6.9l0,0h0.1
		c5.5,0,10-4.5,10-10C154.5,486.2,150.3,481.9,145.1,481.5z"/>
</g>
<g>
	<polygon points="35.5,497.7 36.9,496.3 30.2,489.6 23.5,496.3 25,497.7 29.2,493.4 29.2,506 31.2,506 31.2,493.4 	"/>
	<path d="M46.8,483.1c-1.6-7.4-8.2-13-16.1-13c-6.4,0-12,3.7-14.7,9c-0.3,0-0.5,0-0.8,0c-6.6,0-12,5.4-12,12s5.3,12,11.9,12l0,0
		h10.1v-2h-9.6h-0.4c-5.5,0-9.9-4.5-9.9-10s4.5-10,10-10c0.2,0,0.3,0,0.5,0h0.1l1.3,0.1l0.6-1.2c2.5-4.9,7.4-7.9,12.9-7.9
		c6.8,0,12.7,4.8,14.2,11.4l0.3,1.5l1.5,0.1c4.2,0.3,7.5,3.8,7.5,8c0,4.4-3.6,8-8,8h-0.1h-2h-8.9v2h10.9l0,0h0.1c5.5,0,10-4.5,10-10
		C56.2,487.8,52.1,483.5,46.8,483.1z"/>
</g>
<g>
	<path d="M249.3,293.6c-1.6-7.4-8.2-13-16.1-13c-6.4,0-12,3.7-14.7,9c-0.3,0-0.5,0-0.8,0c-6.6,0-12,5.4-12,12s5.3,12,11.9,12l0,0
		h2.1v-2h-1.6h-0.4c-5.5,0-9.9-4.5-9.9-10s4.5-10,10-10c0.2,0,0.3,0,0.5,0h0.1l1.3,0.1l0.6-1.2c2.5-4.9,7.4-7.9,12.9-7.9
		c6.8,0,12.8,4.8,14.2,11.4l0.3,1.5l1.5,0.1c4.2,0.3,7.5,3.8,7.5,8c0,4.4-3.6,8-8,8c-0.1,0-0.1,0-0.1,0h-2h-0.9v2h2.9l0,0h0.1
		c5.5,0,10-4.5,10-10C258.7,298.3,254.6,293.9,249.3,293.6z"/>
	<polygon points="227.7,312.6 227.7,310 229.9,311.2 230.6,310 228.1,308.6 230.6,307.2 229.9,306 227.7,307.2 227.7,304.6 
		225.7,304.6 225.7,307.2 223.4,306 222.8,307.2 225.2,308.6 222.8,310 223.4,311.2 225.7,309.9 225.7,312.6 	"/>
	<polygon points="232.9,317 230.7,318.2 230.7,315.6 228.7,315.6 228.7,318.2 226.4,317 225.8,318.2 228.2,319.6 225.8,321 
		226.4,322.2 228.7,320.9 228.7,323.6 230.7,323.6 230.7,321 232.9,322.2 233.5,321 231.1,319.6 233.5,318.2 	"/>
	<polygon points="241.9,310 239.7,311.2 239.7,308.6 237.7,308.6 237.7,311.2 235.5,310 234.8,311.2 237.2,312.6 234.8,314 
		235.5,315.2 237.7,313.9 237.7,316.6 239.7,316.6 239.7,314 241.9,315.2 242.6,314 240.1,312.6 242.6,311.2 	"/>
</g>
<g>
	<rect x="324.8" y="275.6" width="2" height="8"/>
	<rect x="305.8" y="294.5" width="8" height="2"/>
	<rect x="313.5" y="280.2" transform="matrix(0.7071 -0.7071 0.7071 0.7071 -108.8457 305.6213)" width="2" height="8"/>
	<rect x="333" y="283.2" transform="matrix(0.7071 -0.7071 0.7071 0.7071 -102.2664 321.5383)" width="8" height="2"/>
	<path d="M355.4,301.3c-1.4-6.7-7.4-11.8-14.6-11.8c-2.2,0-4.3,0.5-6.1,1.3c-1.7-3.2-5-5.4-8.9-5.4c-5.5,0-10,4.5-10,10
		c0,2.5,0.9,4.7,2.4,6.4c-1.4,1.8-2.3,4.1-2.3,6.7c0,6,4.8,10.8,10.8,10.9l0,0h1.2v-2h-0.7h-0.5c-4.9,0-8.8-4-8.8-8.9s4-8.9,8.9-8.9
		c0.1,0,0.3,0,0.4,0h0.1l1.3,0.1l0.6-1.2c2.2-4.4,6.6-7.1,11.5-7.1c6.1,0,11.4,4.3,12.6,10.2l0.3,1.5l1.5,0.1c3.7,0.2,6.6,3.3,6.6,7
		c0,3.9-3.1,7-7,7.1h-0.1h-1.9v2h1.8l0,0h0.1c5,0,9.1-4.1,9.1-9.1C363.8,305.6,360.1,301.6,355.4,301.3z M327.4,297.7
		c-0.2,0-0.5,0-0.7,0c-2.8,0-5.3,1-7.2,2.7c-1.1-1.4-1.8-3.1-1.8-5c0-4.4,3.6-8,8-8c3.1,0,5.8,1.8,7.1,4.3
		C330.5,293.3,328.7,295.3,327.4,297.7z"/>
	<polygon points="334.8,318.5 334.8,315.8 337,317 337.7,315.8 335.2,314.4 337.7,313 337,311.8 334.8,313 334.8,310.5 332.8,310.5 
		332.8,313.1 330.6,311.8 329.9,313 332.4,314.4 329.9,315.8 330.6,317 332.8,315.8 332.8,318.5 	"/>
	<polygon points="340,322.8 337.8,324 337.8,321.4 335.8,321.4 335.8,324.1 333.6,322.8 332.9,324 335.4,325.4 332.9,326.8 
		333.6,328 335.8,326.8 335.8,329.4 337.8,329.4 337.8,326.8 340,328 340.7,326.8 338.2,325.4 340.7,324 	"/>
	<polygon points="349,315.8 346.8,317 346.8,314.5 344.8,314.5 344.8,317.1 342.6,315.8 341.9,317 344.4,318.4 341.9,319.8 
		342.6,321 344.8,319.8 344.8,322.5 346.8,322.5 346.8,319.8 349,321 349.7,319.8 347.2,318.4 349.7,317 	"/>
</g>
<g>
	<path d="M455.5,298.3c-1.4-6.7-7.4-11.8-14.6-11.8c-1.8,0-3.5,0.3-5.1,0.9c-0.9-5.1-5.4-9-10.8-9c-0.4,0-0.8,0-1.2,0.1
		c0.7,1.1,1.2,2.4,1.2,3.9c0,3.9-3.1,7-7,7c-1.4,0-2.8-0.4-3.9-1.2c0,0.4-0.1,0.8-0.1,1.2c0,3.7,1.8,7,4.7,9
		c-1.7,1.9-2.7,4.4-2.7,7.1c0,6,4.8,10.8,10.8,10.9l0,0h1.2v-2h-0.7h-0.5c-4.9,0-8.8-4-8.8-8.9s4-8.9,8.9-8.9c0.1,0,0.3,0,0.4,0h0.1
		l1.3,0.1l0.6-1.2c2.2-4.4,6.6-7.1,11.5-7.1c6.1,0,11.4,4.3,12.6,10.2l0.3,1.5l1.5,0.1c3.7,0.2,6.6,3.3,6.6,7c0,3.9-3.1,7-7,7.1
		h-0.1h-1.9v2h1.8l0,0h0.1c5,0,9.1-4.1,9.1-9.1C464,302.6,460.3,298.6,455.5,298.3z M427.6,294.7c-0.2,0-0.5,0-0.7,0
		c-2.5,0-4.9,0.9-6.7,2.3c-2-1.3-3.5-3.4-4-5.8c0.6,0.1,1.2,0.2,1.8,0.2c5,0,9-4,9-9c0-0.6-0.1-1.2-0.2-1.8c3.7,0.8,6.6,3.8,7.1,7.6
		C431.2,289.7,429,292,427.6,294.7z"/>
	<polygon points="435.1,315.4 435.1,312.8 437.2,314 437.9,312.8 435.5,311.4 437.9,310 437.2,308.8 435.1,310 435.1,307.4 
		433.1,307.4 433.1,310.1 430.8,308.8 430.1,310 432.6,311.4 430.1,312.8 430.8,314 433.1,312.8 433.1,315.4 	"/>
	<polygon points="440.2,319.8 438.1,321 438.1,318.4 436.1,318.4 436.1,321.1 433.8,319.8 433.1,321 435.6,322.4 433.1,323.8 
		433.8,325 436.1,323.8 436.1,326.4 438.1,326.4 438.1,323.8 440.2,325 440.9,323.8 438.4,322.4 440.9,321 	"/>
	<polygon points="449.2,312.8 447.1,314 447.1,311.4 445.1,311.4 445.1,314.1 442.8,312.8 442.1,314 444.6,315.4 442.1,316.8 
		442.8,318 445.1,316.8 445.1,319.4 447.1,319.4 447.1,316.8 449.2,318 449.9,316.8 447.5,315.4 449.9,314 	"/>
</g>
<rect x="-160.8" y="-269.4" class="st0" width="473" height="180.9"/>
<text transform="matrix(1 0 0 1 18.8169 -198.0063)" style="font-family:'Helvetica'; font-size:100px; letter-spacing:2;">60</text>
<text transform="matrix(1 0 0 1 -80.4511 -138.0063)" style="font-family:'Helvetica'; font-size:48px;">Weather Icons</text>
<text transform="matrix(1 0 0 1 15.0909 -94.0063)" style="font-family:'Helvetica'; font-size:24px;">IOS 7 Style</text>
</svg>
