<?xml version="1.0" encoding="utf-8"?>
<!-- Generator: Adobe Illustrator 25.0.1, SVG Export Plug-In . SVG Version: 6.00 Build 0)  -->
<svg version="1.1" id="Layer_1" xmlns="http://www.w3.org/2000/svg" xmlns:xlink="http://www.w3.org/1999/xlink" x="0px" y="0px"
	 viewBox="0 0 53 47" style="enable-background:new 0 0 53 47;" xml:space="preserve">
<style type="text/css">
	.st0{fill:none;}
</style>
<path d="M134.7,469.3l-1.8,15.1l-0.3,2.2h2.3h6.9l-14.7,18.8l1.8-14.5l0.3-2.2h-2.3h-7L134.7,469.3 M137.6,462.2l-21.7,28.3h11
	l-2.7,21.7l21.7-27.7h-11L137.6,462.2L137.6,462.2z"/>
<path d="M-278.3,7c6.8,0,12.7,4.8,14.2,11.4l0.3,1.5l1.5,0.1c4.2,0.3,7.5,3.8,7.5,8c0,4.4-3.6,8-8,8h-0.1h-2l0,0h-28.3h-0.6
	c-5.5,0-9.9-4.5-9.9-10s4.5-10,10-10c0.2,0,0.3,0,0.5,0h0.1l1.3,0.1l0.6-1.2C-288.8,10.1-283.8,7-278.3,7 M-278.3,5
	c-6.4,0-12,3.7-14.7,9c-0.3,0-0.5,0-0.8,0c-6.6,0-12,5.4-12,12s5.3,12,11.9,12l0,0h30.9l0,0h0.1c5.5,0,10-4.5,10-10
	c0-5.3-4.1-9.6-9.4-10C-263.8,10.6-270.4,5-278.3,5L-278.3,5z"/>
<g>
	<path d="M-155.4,25.4c-1.4-6.7-7.4-11.8-14.6-11.8c-2.2,0-4.3,0.5-6.1,1.3c-1.7-3.2-5-5.4-8.9-5.4c-5.5,0-10,4.5-10,10
		c0,2.5,0.9,4.7,2.4,6.4c-1.4,1.8-2.3,4.1-2.3,6.7c0,6,4.8,10.8,10.8,10.9l0,0h28l0,0h0.1c5,0,9.1-4.1,9.1-9.1
		C-146.9,29.6-150.7,25.7-155.4,25.4z M-185,11.5c3.1,0,5.8,1.8,7.1,4.3c-2.3,1.4-4.2,3.5-5.4,5.9c-0.2,0-0.5,0-0.7,0
		c-2.8,0-5.3,1-7.2,2.7c-1.1-1.4-1.8-3.1-1.8-5C-193,15.1-189.4,11.5-185,11.5z M-155.9,41.5h-0.1h-2l0,0h-25.4h-0.6
		c-4.9,0-8.8-4-8.8-8.9s4-8.9,8.9-8.9c0.1,0,0.3,0,0.4,0h0.1l1.3,0.1l0.6-1.2c2.2-4.4,6.6-7.1,11.5-7.1c6.1,0,11.4,4.3,12.6,10.2
		l0.3,1.5l1.5,0.1c3.7,0.2,6.6,3.3,6.6,7C-148.9,38.3-152,41.5-155.9,41.5z"/>
	<rect x="-186" y="-0.5" width="2" height="8"/>
	<rect x="-205" y="18.5" width="8" height="2"/>
	<rect x="-197.2" y="4.3" transform="matrix(0.7071 -0.7071 0.7071 0.7071 -63.3093 -136.3107)" width="2" height="8"/>
	<rect x="-177.7" y="7.3" transform="matrix(0.7071 -0.7071 0.7071 0.7071 -56.7295 -120.3937)" width="8" height="2"/>
</g>
<path d="M-59.6,21.4C-61,14.7-67,9.6-74.2,9.6c-1.8,0-3.5,0.3-5.1,0.9c-0.9-5.1-5.4-9-10.8-9c-0.4,0-0.8,0-1.2,0.1
	c0.7,1.1,1.2,2.4,1.2,3.9c0,3.9-3.1,7-7,7c-1.4,0-2.8-0.4-3.9-1.2c0,0.4-0.1,0.8-0.1,1.2c0,3.7,1.8,7,4.7,9
	c-1.7,1.9-2.7,4.4-2.7,7.1c0,6,4.8,10.8,10.8,10.9l0,0h28l0,0h0.1c5,0,9.1-4.1,9.1-9.1C-51.2,25.6-54.9,21.7-59.6,21.4z M-99,14.3
	c0.6,0.1,1.2,0.2,1.8,0.2c5,0,9-4,9-9c0-0.6-0.1-1.2-0.2-1.8c3.7,0.8,6.6,3.8,7.1,7.6c-2.7,1.4-4.9,3.7-6.3,6.4c-0.2,0-0.5,0-0.7,0
	c-2.5,0-4.9,0.9-6.7,2.3C-97,18.8-98.5,16.7-99,14.3z M-60.2,37.5L-60.2,37.5h-2.1l0,0h-25.4h-0.6c-4.9,0-8.8-4-8.8-8.9
	s4-8.9,8.9-8.9c0.2,0,0.3,0,0.4,0h0.1l1.3,0.1l0.6-1.2c2.2-4.4,6.6-7.1,11.5-7.1c6.1,0,11.4,4.3,12.7,10.2l0.3,1.5l1.5,0.1
	c3.7,0.2,6.6,3.3,6.6,7C-53.2,34.3-56.3,37.5-60.2,37.5z"/>
<g>
	<rect x="25" y="30" width="2" height="7"/>
	<rect x="33" y="26" width="2" height="7"/>
	<rect x="17" y="26" width="2" height="7"/>
	<rect x="25" y="40" width="2" height="7"/>
	<rect x="33" y="36" width="2" height="7"/>
	<rect x="17" y="36" width="2" height="7"/>
	<path d="M43.6,13C42,5.6,35.4,0,27.5,0c-6.4,0-12,3.7-14.7,9c-0.3,0-0.5,0-0.8,0C5.4,9,0,14.4,0,21s5.3,12,11.9,12l0,0H14v-2h-1.6
		H12C6.5,31,2,26.5,2,21s4.5-10,10-10c0.2,0,0.3,0,0.5,0h0.1l1.3,0.1l0.6-1.2C17.1,5,22,2,27.5,2c6.8,0,12.8,4.8,14.2,11.4l0.3,1.5
		l1.5,0.1c4.2,0.3,7.5,3.8,7.5,8c0,4.4-3.6,8-8,8h-0.1h-2H38v2h4.9l0,0H43c5.5,0,10-4.5,10-10C53,17.7,48.9,13.4,43.6,13z"/>
</g>
<g>
	<path d="M-158.8,102.4c-1.6-7.4-8.2-13-16.1-13c-6.4,0-12,3.7-14.7,9c-0.3,0-0.5,0-0.8,0c-6.6,0-12,5.4-12,12s5.3,12,11.9,12l0,0
		h2.1v-2h-1.6h-0.4c-5.5,0-9.9-4.5-9.9-10s4.5-10,10-10c0.2,0,0.3,0,0.5,0h0.1l1.3,0.1l0.6-1.2c2.5-4.9,7.4-7.9,12.9-7.9
		c6.8,0,12.8,4.8,14.2,11.4l0.3,1.5l1.5,0.1c4.2,0.3,7.5,3.8,7.5,8c0,4.4-3.6,8-8,8c-0.1,0-0.1,0-0.1,0h-2h-2.9v2h4.9l0,0h0.1
		c5.5,0,10-4.5,10-10C-149.4,107-153.6,102.7-158.8,102.4z"/>
	<polygon points="-177.4,129.4 -177.4,131.3 -177.4,137.4 -175.4,137.4 -175.4,131.3 -175.4,129.4 -175.4,117.4 -177.4,117.4 	"/>
	<polygon points="-169.4,125.4 -169.4,127.1 -169.4,133.4 -167.4,133.4 -167.4,127.1 -167.4,125.4 -167.4,113.4 -169.4,113.4 	"/>
	<polygon points="-185.4,125.4 -185.4,127.4 -185.4,133.4 -183.4,133.4 -183.4,127.4 -183.4,125.4 -183.4,113.4 -185.4,113.4 	"/>
</g>
<g>
	<polygon points="136.9,126.3 130,116.5 128.3,117.6 135.2,127.4 136.3,129 139.8,134 141.4,132.8 138,127.9 	"/>
	<polygon points="144.9,126.3 138,116.5 136.3,117.6 143.2,127.4 144.2,128.9 147.8,134 149.4,132.8 145.9,127.7 	"/>
	<polygon points="128.9,126.3 122,116.5 120.3,117.6 127.2,127.4 128.4,129.1 131.8,134 133.4,132.8 130,128 	"/>
	<path d="M148,102.7c-1.6-7.4-8.2-13-16.1-13c-6.4,0-12,3.7-14.7,9c-0.3,0-0.5,0-0.8,0c-6.6,0-12,5.4-12,12s5.3,12,11.9,12l0,0h2.1
		v-2h-1.6h-0.4c-5.5,0-9.9-4.5-9.9-10s4.5-10,10-10c0.2,0,0.3,0,0.5,0h0.1l1.3,0.1l0.6-1.2c2.5-4.9,7.4-7.9,12.9-7.9
		c6.8,0,12.8,4.8,14.2,11.4l0.3,1.5l1.5,0.1c4.2,0.3,7.5,3.8,7.5,8c0,4.4-3.6,8-8,8c-0.1,0-0.1,0-0.1,0h-1h0.1v2h0.9l0,0h0.1
		c5.5,0,10-4.5,10-10C157.3,107.3,153.2,103,148,102.7z"/>
</g>
<g>
	<rect x="119.7" y="-6.4" width="2" height="8"/>
	<rect x="100.7" y="12.5" width="8" height="2"/>
	<rect x="108.3" y="-1.8" transform="matrix(0.7071 -0.7071 0.7071 0.7071 30.4432 77.9297)" width="2" height="8"/>
	<rect x="127.9" y="1.2" transform="matrix(0.7071 -0.7071 0.7071 0.7071 37.0931 93.8761)" width="8" height="2"/>
	<rect x="133.7" y="34.4" width="2" height="7"/>
	<rect x="141.7" y="30.4" width="2" height="7"/>
	<rect x="125.7" y="30.4" width="2" height="7"/>
	<rect x="133.7" y="44.4" width="2" height="7"/>
	<rect x="141.7" y="40.4" width="2" height="7"/>
	<rect x="125.7" y="40.4" width="2" height="7"/>
	<path d="M150.2,19.4c-1.4-6.7-7.4-11.8-14.6-11.8c-2.2,0-4.3,0.5-6.1,1.3c-1.7-3.2-5-5.4-8.9-5.4c-5.5,0-10,4.5-10,10
		c0,2.5,0.9,4.7,2.4,6.4c-1.4,1.8-2.3,4.1-2.3,6.7c0,6,4.8,10.8,10.8,10.9l0,0h1.2v-2H122h-0.5c-4.9,0-8.8-4-8.8-8.9s4-8.9,8.9-8.9
		c0.2,0,0.3,0,0.4,0h0.1l1.3,0.1l0.6-1.2c2.2-4.4,6.6-7.1,11.5-7.1c6.1,0,11.4,4.3,12.6,10.2l0.3,1.5l1.5,0.1c3.7,0.2,6.6,3.3,6.6,7
		c0,3.9-3.1,7-7,7.1h-0.1h-2h-0.8v2h2.8l0,0h0.1c5,0,9.1-4.1,9.1-9.1C158.7,23.6,154.9,19.7,150.2,19.4z M122.2,15.7
		c-0.2,0-0.5,0-0.7,0c-2.8,0-5.3,1-7.2,2.7c-1.1-1.4-1.8-3.1-1.8-5c0-4.4,3.6-8,8-8c3.1,0,5.8,1.8,7.1,4.3
		C125.4,11.3,123.5,13.3,122.2,15.7z"/>
</g>
<g>
	<rect x="234.1" y="33" width="2" height="7"/>
	<rect x="242.1" y="29" width="2" height="7"/>
	<rect x="226.1" y="29" width="2" height="7"/>
	<rect x="234.1" y="43" width="2" height="7"/>
	<rect x="242.1" y="39" width="2" height="7"/>
	<rect x="226.1" y="39" width="2" height="7"/>
	<path d="M250.6,17.9c-1.4-6.7-7.4-11.8-14.6-11.8c-1.8,0-3.5,0.3-5.1,0.9c-0.9-5.1-5.4-9-10.8-9c-0.4,0-0.8,0-1.2,0.1
		c0.7,1.1,1.2,2.4,1.2,3.9c0,3.9-3.1,7-7,7c-1.4,0-2.8-0.4-3.9-1.2c0,0.4-0.1,0.8-0.1,1.2c0,3.7,1.8,7,4.7,9
		c-1.7,1.9-2.7,4.4-2.7,7.1c0,6,4.8,10.8,10.8,10.9l0,0h1.2v-2h-0.7h-0.5c-4.9,0-8.8-4-8.8-8.9s4-8.9,8.9-8.9c0.1,0,0.3,0,0.4,0h0.1
		l1.3,0.1l0.6-1.2c2.2-4.4,6.6-7.1,11.5-7.1c6.1,0,11.4,4.3,12.6,10.2l0.3,1.5l1.5,0.1c3.7,0.2,6.6,3.3,6.6,7c0,3.9-3.1,7-7,7.1
		h-0.1h-2H247v2h2.8l0,0h0.1c5,0,9.1-4.1,9.1-9.1C259.1,22.1,255.3,18.2,250.6,17.9z M222.7,14.3c-0.2,0-0.5,0-0.7,0
		c-2.5,0-4.9,0.9-6.7,2.3c-2-1.3-3.5-3.4-4-5.8c0.6,0.1,1.2,0.2,1.8,0.2c5,0,9-4,9-9c0-0.6-0.1-1.2-0.2-1.8c3.7,0.8,6.6,3.8,7.1,7.6
		C226.3,9.3,224.1,11.6,222.7,14.3z"/>
</g>
<g>
	<polygon points="-73.2,133.8 -73.2,135.8 -73.2,141.8 -71.2,141.8 -71.2,135.8 -71.2,133.8 -71.2,121.8 -73.2,121.8 	"/>
	<polygon points="-65.2,129.8 -65.2,131.6 -65.2,137.8 -63.2,137.8 -63.2,131.6 -63.2,129.8 -63.2,117.8 -65.2,117.8 	"/>
	<polygon points="-81.2,129.8 -81.2,131.9 -81.2,137.8 -79.2,137.8 -79.2,131.9 -79.2,129.8 -79.2,117.8 -81.2,117.8 	"/>
	<rect x="-87.2" y="82.9" width="2" height="8"/>
	<rect x="-106.2" y="101.8" width="8" height="2"/>
	<rect x="-98.5" y="87.6" transform="matrix(0.7071 -0.7071 0.7071 0.7071 -93.3146 -42.0985)" width="2" height="8"/>
	<rect x="-79" y="90.6" transform="matrix(0.7071 -0.7071 0.7071 0.7071 -86.7354 -26.1815)" width="8" height="2"/>
	<path d="M-56.6,108.7C-58,102-64,96.9-71.2,96.9c-2.2,0-4.3,0.5-6.1,1.3c-1.7-3.2-5-5.4-8.9-5.4c-5.5,0-10,4.5-10,10
		c0,2.5,0.9,4.7,2.4,6.4c-1.4,1.8-2.3,4.1-2.3,6.7c0,6,4.8,10.8,10.8,10.9l0,0h1.2v-2h-0.7h-0.5c-4.9,0-8.8-4-8.8-8.9s4-8.9,8.9-8.9
		c0.2,0,0.3,0,0.4,0h0.1l1.3,0.1l0.6-1.2c2.2-4.4,6.6-7.1,11.5-7.1c6.1,0,11.4,4.3,12.6,10.2l0.3,1.5l1.5,0.1c3.7,0.2,6.6,3.3,6.6,7
		c0,3.9-3.1,7-7,7.1h-0.1h-2h-0.8v2h2.8l0,0h0.1c5,0,9.1-4.1,9.1-9.1C-48.2,112.9-51.9,109-56.6,108.7z M-84.6,105.1
		c-0.2,0-0.5,0-0.7,0c-2.8,0-5.3,1-7.2,2.7c-1.1-1.4-1.8-3.1-1.8-5c0-4.4,3.6-8,8-8c3.1,0,5.8,1.8,7.1,4.3
		C-81.4,100.6-83.3,102.7-84.6,105.1z"/>
</g>
<g>
	<polygon points="27.2,131.3 27.2,133.2 27.2,139.3 29.2,139.3 29.2,133.2 29.2,131.3 29.2,119.3 27.2,119.3 	"/>
	<polygon points="35.2,127.3 35.2,129.1 35.2,135.3 37.2,135.3 37.2,129.1 37.2,127.3 37.2,115.3 35.2,115.3 	"/>
	<polygon points="19.2,127.3 19.2,129.4 19.2,135.3 21.2,135.3 21.2,129.4 21.2,127.3 21.2,115.3 19.2,115.3 	"/>
	<path d="M43.8,106.2c-1.4-6.7-7.4-11.8-14.6-11.8c-1.8,0-3.5,0.3-5.1,0.9c-0.9-5.1-5.4-9-10.8-9c-0.4,0-0.8,0-1.2,0.1
		c0.7,1.1,1.2,2.4,1.2,3.9c0,3.9-3.1,7-7,7c-1.4,0-2.8-0.4-3.9-1.2c0,0.4-0.1,0.8-0.1,1.2c0,3.7,1.8,7,4.7,9
		c-1.7,1.9-2.7,4.4-2.7,7.1c0,6,4.8,10.8,10.8,10.9l0,0h1.2v-2h-0.7h-0.5c-4.9,0-8.8-4-8.8-8.9s4-8.9,8.9-8.9c0.1,0,0.3,0,0.4,0h0.1
		l1.3,0.1l0.6-1.2c2.2-4.4,6.6-7.1,11.5-7.1c6.1,0,11.4,4.3,12.6,10.2L42,108l1.5,0.1c3.7,0.2,6.6,3.3,6.6,7c0,3.9-3.1,7-7,7.1H43
		h-2h-0.8v2H43l0,0h0.1c5,0,9.1-4.1,9.1-9.1C52.2,110.4,48.5,106.5,43.8,106.2z M15.8,102.6c-0.2,0-0.5,0-0.7,0
		c-2.5,0-4.9,0.9-6.7,2.3c-2-1.3-3.5-3.4-4-5.8c0.6,0.1,1.2,0.2,1.8,0.2c5,0,9-4,9-9c0-0.6-0.1-1.2-0.2-1.8c3.7,0.8,6.6,3.8,7.1,7.6
		C19.4,97.6,17.2,99.8,15.8,102.6z"/>
</g>
<g>
	<polygon points="244.3,132.2 237.4,122.4 235.8,123.6 242.6,133.4 243.8,135 247.2,139.9 248.9,138.8 245.4,133.8 	"/>
	<polygon points="252.3,132.2 245.4,122.4 243.8,123.6 250.6,133.4 251.6,134.8 255.2,139.9 256.9,138.8 253.3,133.7 	"/>
	<polygon points="236.3,132.2 229.4,122.4 227.8,123.6 234.6,133.4 235.8,135.1 239.2,139.9 240.9,138.8 237.5,133.9 	"/>
	<rect x="223.8" y="84.7" width="2" height="8"/>
	<rect x="204.8" y="103.6" width="8" height="2"/>
	<rect x="212.4" y="89.4" transform="matrix(0.7071 -0.7071 0.7071 0.7071 -3.5245 178.2802)" width="2" height="8"/>
	<rect x="231.9" y="92.3" transform="matrix(0.7071 -0.7071 0.7071 0.7071 3.084 194.1266)" width="8" height="2"/>
	<path d="M254.3,110.5c-1.4-6.7-7.4-11.8-14.6-11.8c-2.2,0-4.3,0.5-6.1,1.3c-1.7-3.2-5-5.4-8.9-5.4c-5.5,0-10,4.5-10,10
		c0,2.5,0.9,4.7,2.4,6.4c-1.4,1.8-2.3,4.1-2.3,6.7c0,6,4.8,10.8,10.8,10.9l0,0h1.2v-2H226h-0.5c-4.9,0-8.8-4-8.8-8.9s4-8.9,8.9-8.9
		c0.1,0,0.3,0,0.4,0h0.1l1.3,0.1l0.6-1.2c2.2-4.4,6.6-7.1,11.5-7.1c6.1,0,11.4,4.3,12.6,10.2l0.3,1.5l1.5,0.1c3.7,0.2,6.6,3.3,6.6,7
		c0,3.9-3.1,7-7,7.1h-0.1l0,0h-0.8v2h0.8l0,0h0.1c5,0,9.1-4.1,9.1-9.1C262.8,114.7,259,110.8,254.3,110.5z M226.3,106.9
		c-0.2,0-0.5,0-0.7,0c-2.8,0-5.3,1-7.2,2.7c-1.1-1.4-1.8-3.1-1.8-5c0-4.4,3.6-8,8-8c3.1,0,5.8,1.8,7.1,4.3
		C229.5,102.4,227.6,104.4,226.3,106.9z"/>
</g>
<g>
	<polygon points="-479.2,228.7 -486,218.9 -487.7,220.1 -480.8,229.9 -479.7,231.5 -476.2,236.4 -474.6,235.3 -478,230.3 	"/>
	<polygon points="-471.2,228.7 -478,218.9 -479.7,220.1 -472.8,229.9 -471.8,231.3 -468.2,236.4 -466.6,235.3 -470.1,230.2 	"/>
	<polygon points="-487.2,228.7 -494,218.9 -495.7,220.1 -488.8,229.9 -487.6,231.6 -484.2,236.4 -482.6,235.3 -486,230.4 	"/>
	<path d="M-469.2,207c-1.4-6.7-7.4-11.8-14.6-11.8c-1.8,0-3.5,0.3-5.1,0.9c-0.9-5.1-5.4-9-10.8-9c-0.4,0-0.8,0-1.2,0.1
		c0.7,1.1,1.2,2.4,1.2,3.9c0,3.9-3.1,7-7,7c-1.4,0-2.8-0.4-3.9-1.2c0,0.4-0.1,0.8-0.1,1.2c0,3.7,1.8,7,4.7,9
		c-1.7,1.9-2.7,4.4-2.7,7.1c0,6,4.8,10.8,10.8,10.9l0,0h1.2v-2h-0.7h-0.5c-4.9,0-8.8-4-8.8-8.9s4-8.9,8.9-8.9c0.1,0,0.3,0,0.4,0h0.1
		l1.3,0.1l0.6-1.2c2.2-4.4,6.6-7.1,11.5-7.1c6.1,0,11.4,4.3,12.6,10.2l0.3,1.5l1.5,0.1c3.7,0.2,6.6,3.3,6.6,7c0,3.9-3.1,7-7,7.1
		h-0.1l0,0h-0.8v2h0.8l0,0h0.1c5,0,9.1-4.1,9.1-9.1C-460.7,211.2-464.4,207.3-469.2,207z M-497.1,203.4c-0.2,0-0.5,0-0.7,0
		c-2.5,0-4.9,0.9-6.7,2.3c-2-1.3-3.5-3.4-4-5.8c0.6,0.1,1.2,0.2,1.8,0.2c5,0,9-4,9-9c0-0.6-0.1-1.2-0.2-1.8c3.7,0.8,6.6,3.8,7.1,7.6
		C-493.5,198.4-495.7,200.6-497.1,203.4z"/>
</g>
<g>
	<rect x="-486.7" y="124.9" width="2" height="4"/>
	<rect x="-478.7" y="120.9" width="2" height="4"/>
	<rect x="-494.7" y="120.9" width="2" height="4"/>
	<path d="M-468,104.9c-1.6-7.4-8.2-13-16.1-13c-6.4,0-12,3.7-14.7,9c-0.3,0-0.5,0-0.8,0c-6.6,0-12,5.4-12,12s5.3,12,11.9,12l0,0h2.1
		v-2h-1.6h-0.4c-5.5,0-9.9-4.5-9.9-10s4.5-10,10-10c0.2,0,0.3,0,0.5,0h0.1l1.3,0.1l0.6-1.2c2.5-4.9,7.4-7.9,12.9-7.9
		c6.8,0,12.8,4.8,14.2,11.4l0.3,1.5l1.5,0.1c4.2,0.3,7.5,3.8,7.5,8c0,4.4-3.6,8-8,8h-0.1h-2h-2.9v2h4.9l0,0h0.1c5.5,0,10-4.5,10-10
		C-458.7,109.6-462.8,105.2-468,104.9z"/>
	<circle cx="-477.7" cy="129.9" r="1.5"/>
	<circle cx="-485.7" cy="133.9" r="1.5"/>
	<circle cx="-493.7" cy="129.9" r="1.5"/>
</g>
<g>
	<rect x="-393.8" y="85.4" width="2" height="8"/>
	<rect x="-412.8" y="104.3" width="8" height="2"/>
	<rect x="-405.1" y="90.1" transform="matrix(0.7071 -0.7071 0.7071 0.7071 -184.89 -258.1691)" width="2" height="8"/>
	<rect x="-385.6" y="93.1" transform="matrix(0.7071 -0.7071 0.7071 0.7071 -178.3107 -242.252)" width="8" height="2"/>
	<path d="M-363.2,111.2c-1.4-6.7-7.4-11.8-14.6-11.8c-2.2,0-4.3,0.5-6.1,1.3c-1.7-3.2-5-5.4-8.9-5.4c-5.5,0-10,4.5-10,10
		c0,2.5,0.9,4.7,2.4,6.4c-1.4,1.8-2.3,4.1-2.3,6.7c0,6,4.8,10.8,10.8,10.9l0,0h1.2v-2h-0.7h-0.5c-4.9,0-8.8-4-8.8-8.9s4-8.9,8.9-8.9
		c0.1,0,0.3,0,0.4,0h0.1l1.3,0.1l0.6-1.2c2.2-4.4,6.6-7.1,11.5-7.1c6.1,0,11.4,4.3,12.6,10.2l0.3,1.5l1.5,0.1c3.7,0.2,6.6,3.3,6.6,7
		c0,3.9-3.1,7-7,7.1h-0.1h-2h-0.8v2h2.8l0,0h0.1c5,0,9.1-4.1,9.1-9.1C-354.8,115.4-358.5,111.5-363.2,111.2z M-391.2,107.6
		c-0.2,0-0.5,0-0.7,0c-2.8,0-5.3,1-7.2,2.7c-1.1-1.4-1.8-3.1-1.8-5c0-4.4,3.6-8,8-8c3.1,0,5.8,1.8,7.1,4.3
		C-388,103.1-389.9,105.2-391.2,107.6z"/>
	<rect x="-379.8" y="129.3" width="2" height="4"/>
	<rect x="-371.8" y="125.3" width="2" height="4"/>
	<rect x="-387.8" y="125.3" width="2" height="4"/>
	<circle cx="-370.8" cy="134.3" r="1.5"/>
	<circle cx="-378.8" cy="138.3" r="1.5"/>
	<circle cx="-386.8" cy="134.3" r="1.5"/>
</g>
<g>
	<path d="M-262.3,110.3c-1.4-6.7-7.4-11.8-14.6-11.8c-1.8,0-3.5,0.3-5.1,0.9c-0.9-5.1-5.4-9-10.8-9c-0.4,0-0.8,0-1.2,0.1
		c0.7,1.1,1.2,2.4,1.2,3.9c0,3.9-3.1,7-7,7c-1.4,0-2.8-0.4-3.9-1.2c0,0.4-0.1,0.8-0.1,1.2c0,3.7,1.8,7,4.7,9
		c-1.7,1.9-2.7,4.4-2.7,7.1c0,6,4.8,10.8,10.8,10.9l0,0h1.2v-2h-0.7h-0.5c-4.9,0-8.8-4-8.8-8.9s4-8.9,8.9-8.9c0.1,0,0.3,0,0.4,0h0.1
		l1.3,0.1l0.6-1.2c2.2-4.4,6.6-7.1,11.5-7.1c6.1,0,11.4,4.3,12.6,10.2l0.3,1.5l1.5,0.1c3.7,0.2,6.6,3.3,6.6,7c0,3.9-3.1,7-7,7.1
		h-0.1h-2h-0.8v2h2.8l0,0h0.1c5,0,9.1-4.1,9.1-9.1C-253.8,114.5-257.6,110.6-262.3,110.3z M-290.2,106.6c-0.2,0-0.5,0-0.7,0
		c-2.5,0-4.9,0.9-6.7,2.3c-2-1.3-3.5-3.4-4-5.8c0.6,0.1,1.2,0.2,1.8,0.2c5,0,9-4,9-9c0-0.6-0.1-1.2-0.2-1.8c3.7,0.8,6.6,3.8,7.1,7.6
		C-286.6,101.7-288.8,103.9-290.2,106.6z"/>
	<rect x="-278.8" y="128.4" width="2" height="4"/>
	<rect x="-270.8" y="124.3" width="2" height="4"/>
	<rect x="-286.8" y="124.3" width="2" height="4"/>
	<circle cx="-269.8" cy="133.4" r="1.5"/>
	<circle cx="-277.8" cy="137.4" r="1.5"/>
	<circle cx="-285.8" cy="133.3" r="1.5"/>
</g>
<g>
	<path d="M-365.6,203.3c-1.6-7.4-8.2-13-16.1-13c-6.4,0-12,3.7-14.7,9c-0.3,0-0.5,0-0.8,0c-6.6,0-12,5.4-12,12s5.3,12,11.9,12l0,0
		h6.1v-2h-5.6h-0.4c-5.5,0-9.9-4.5-9.9-10s4.5-10,10-10c0.2,0,0.3,0,0.5,0h0.1l1.3,0.1l0.6-1.2c2.5-4.9,7.4-7.9,12.9-7.9
		c6.8,0,12.8,4.8,14.2,11.4l0.3,1.5l1.5,0.1c4.2,0.3,7.5,3.8,7.5,8c0,4.4-3.6,8-8,8h-0.1h-5h0.1v2h4.9l0,0h0.1c5.5,0,10-4.5,10-10
		C-356.3,208-360.4,203.6-365.6,203.3z"/>
	<polygon points="-381.4,223.3 -379.6,223.3 -379.2,223.3 -377.2,223.3 -383.6,214.1 -385.3,215.3 -381,221.3 -382.8,221.3 
		-385.3,221.3 -384,223.1 -382.9,224.7 -376.9,233.3 -375.3,232.1 -381.2,223.5 	"/>
</g>
<g>
	<rect x="-289.8" y="184.2" width="2" height="8"/>
	<rect x="-308.8" y="203.1" width="8" height="2"/>
	<rect x="-301.2" y="188.8" transform="matrix(0.7071 -0.7071 0.7071 0.7071 -224.2743 -155.7961)" width="2" height="8"/>
	<rect x="-281.6" y="191.8" transform="matrix(0.7071 -0.7071 0.7071 0.7071 -217.6243 -139.8497)" width="8" height="2"/>
	<path d="M-259.3,210c-1.4-6.7-7.4-11.8-14.6-11.8c-2.2,0-4.3,0.5-6.1,1.3c-1.7-3.2-5-5.4-8.9-5.4c-5.5,0-10,4.5-10,10
		c0,2.5,0.9,4.7,2.4,6.4c-1.4,1.8-2.3,4.1-2.3,6.7c0,6,4.8,10.8,10.8,10.9l0,0h4.2v-2h-3.7h-0.5c-4.9,0-8.8-4-8.8-8.9s4-8.9,8.9-8.9
		c0.1,0,0.3,0,0.4,0h0.1l1.3,0.1l0.6-1.2c2.2-4.4,6.6-7.1,11.5-7.1c6.1,0,11.4,4.3,12.6,10.2l0.3,1.5l1.5,0.1c3.7,0.2,6.6,3.3,6.6,7
		c0,3.9-3.1,7-7,7.1h-0.1h-2h-3.8v2h5.8l0,0h0.1c5,0,9.1-4.1,9.1-9.1C-250.8,214.2-254.6,210.3-259.3,210z M-287.2,206.3
		c-0.2,0-0.5,0-0.7,0c-2.8,0-5.3,1-7.2,2.7c-1.1-1.4-1.8-3.1-1.8-5c0-4.4,3.6-8,8-8c3.1,0,5.8,1.8,7.1,4.3
		C-284.1,201.9-286,203.9-287.2,206.3z"/>
	<polygon points="-275,228 -273.2,228 -272.8,228 -270.8,228 -277.2,218.9 -278.8,220 -274.6,226 -276.4,226 -278.8,226 
		-277.6,227.9 -276.4,229.5 -270.5,238 -268.8,236.9 -274.8,228.3 	"/>
</g>
<g>
	<path d="M-159.7,207.7c-1.4-6.7-7.4-11.8-14.6-11.8c-1.8,0-3.5,0.3-5.1,0.9c-0.9-5.1-5.4-9-10.8-9c-0.4,0-0.8,0-1.2,0.1
		c0.7,1.1,1.2,2.4,1.2,3.9c0,3.9-3.1,7-7,7c-1.4,0-2.8-0.4-3.9-1.2c0,0.4-0.1,0.8-0.1,1.2c0,3.7,1.8,7,4.7,9
		c-1.7,1.9-2.7,4.4-2.7,7.1c0,6,4.8,10.8,10.8,10.9l0,0h4.2v-2h-3.7h-0.5c-4.9,0-8.8-4-8.8-8.9s4-8.9,8.9-8.9c0.1,0,0.3,0,0.4,0h0.1
		l1.3,0.1l0.6-1.2c2.2-4.4,6.6-7.1,11.5-7.1c6.1,0,11.4,4.3,12.6,10.2l0.3,1.5l1.5,0.1c3.7,0.2,6.6,3.3,6.6,7c0,3.9-3.1,7-7,7.1
		h-0.1h-2h-3.8v2h5.8l0,0h0.1c5,0,9.1-4.1,9.1-9.1C-151.2,211.9-155,208-159.7,207.7z M-187.7,204c-0.2,0-0.5,0-0.7,0
		c-2.5,0-4.9,0.9-6.7,2.3c-2-1.3-3.5-3.4-4-5.8c0.6,0.1,1.2,0.2,1.8,0.2c5,0,9-4,9-9c0-0.6-0.1-1.2-0.2-1.8c3.7,0.8,6.6,3.8,7.1,7.6
		C-184,199-186.3,201.3-187.7,204z"/>
	<polygon points="-175.4,225.8 -173.6,225.8 -173.2,225.8 -171.2,225.8 -177.6,216.6 -179.2,217.7 -175,223.8 -176.8,223.8 
		-179.2,223.8 -178,225.6 -176.9,227.2 -170.9,235.8 -169.2,234.6 -175.2,226 	"/>
</g>
<g>
	<path d="M-58.8,203.8c-1.6-7.4-8.2-13-16.1-13c-6.4,0-12,3.7-14.7,9c-0.3,0-0.5,0-0.8,0c-6.6,0-12,5.4-12,12s5.3,12,11.9,12l0,0
		h1.1v-2H-90h-0.4c-5.5,0-9.9-4.5-9.9-10s4.5-10,10-10c0.2,0,0.3,0,0.5,0h0.1l1.3,0.1l0.6-1.2c2.5-4.9,7.4-7.9,12.9-7.9
		c6.8,0,12.8,4.8,14.2,11.4l0.3,1.5l1.5,0.1c4.2,0.3,7.5,3.8,7.5,8c0,4.4-3.6,8-8,8h-0.1h-0.9v2h0.9l0,0h0.1c5.5,0,10-4.5,10-10
		C-49.5,208.5-53.6,204.1-58.8,203.8z"/>
	<rect x="-85.5" y="217.2" transform="matrix(0.8191 -0.5736 0.5736 0.8191 -143.089 -8.1546)" width="2" height="11.2"/>
	<rect x="-67.5" y="217.2" transform="matrix(0.8191 -0.5736 0.5736 0.8191 -139.8264 2.165)" width="2" height="11.2"/>
	<polygon points="-73.6,226.8 -71.9,226.8 -71.4,226.8 -69.4,226.8 -75.8,217.6 -77.5,218.8 -73.3,224.8 -75,224.8 -77.5,224.8 
		-76.2,226.6 -75.1,228.2 -70.5,234.8 -68.8,233.6 -73.5,227 	"/>
</g>
<g>
	<rect x="16" y="184.3" width="2" height="8"/>
	<rect x="-3" y="203.2" width="8" height="2"/>
	<rect x="4.7" y="189" transform="matrix(0.7071 -0.7071 0.7071 0.7071 -134.7753 60.5517)" width="2" height="8"/>
	<rect x="24.2" y="192" transform="matrix(0.7071 -0.7071 0.7071 0.7071 -128.196 76.4687)" width="8" height="2"/>
	<path d="M46.5,210.1c-1.4-6.7-7.4-11.8-14.6-11.8c-2.2,0-4.3,0.5-6.1,1.3c-1.7-3.2-5-5.4-8.9-5.4c-5.5,0-10,4.5-10,10
		c0,2.5,0.9,4.7,2.4,6.4c-1.4,1.8-2.3,4.1-2.3,6.7c0,6,4.8,10.8,10.8,10.9l0,0H18v-2h-0.2c-4.9,0-8.8-4-8.8-8.9s4-8.9,8.9-8.9
		c0.1,0,0.3,0,0.4,0h0.1l1.3,0.1l0.6-1.2c2.2-4.4,6.6-7.1,11.5-7.1c6.1,0,11.4,4.3,12.6,10.2l0.3,1.5l1.5,0.1c3.7,0.2,6.6,3.3,6.6,7
		c0,3.9-3.1,7-7,7.1h-0.1h-0.9v2h0.8l0,0h0.1c5,0,9.1-4.1,9.1-9.1C55,214.3,51.2,210.4,46.5,210.1z M18.6,206.5c-0.2,0-0.5,0-0.7,0
		c-2.8,0-5.3,1-7.2,2.7c-1.1-1.4-1.8-3.1-1.8-5c0-4.4,3.6-8,8-8c3.1,0,5.8,1.8,7.1,4.3C21.7,202,19.8,204.1,18.6,206.5z"/>
	<rect x="21" y="221.6" transform="matrix(0.8191 -0.5736 0.5736 0.8191 -126.3493 53.7115)" width="2" height="11.2"/>
	<rect x="39" y="221.6" transform="matrix(0.8191 -0.5736 0.5736 0.8191 -123.0867 64.0311)" width="2" height="11.2"/>
	<polygon points="32.8,231.2 34.6,231.2 35,231.2 37,231.2 30.6,222 29,223.2 33.2,229.2 31.4,229.2 29,229.2 30.3,231 31.4,232.6 
		36,239.2 37.6,238.1 33,231.5 	"/>
</g>
<g>
	<path d="M148.4,207.2c-1.4-6.7-7.4-11.8-14.6-11.8c-1.8,0-3.5,0.3-5.1,0.9c-0.9-5.1-5.4-9-10.8-9c-0.4,0-0.8,0-1.2,0.1
		c0.7,1.1,1.2,2.4,1.2,3.9c0,3.9-3.1,7-7,7c-1.4,0-2.8-0.4-3.9-1.2c0,0.4-0.1,0.8-0.1,1.2c0,3.7,1.8,7,4.7,9
		c-1.7,1.9-2.7,4.4-2.7,7.1c0,6,4.8,10.8,10.8,10.9l0,0h0.2v-2h-0.2c-4.9,0-8.8-4-8.8-8.9s4-8.9,8.9-8.9c0.2,0,0.3,0,0.4,0h0.1
		l1.3,0.1l0.6-1.2c2.2-4.4,6.6-7.1,11.5-7.1c6.1,0,11.4,4.3,12.6,10.2l0.3,1.5l1.5,0.1c3.7,0.2,6.6,3.3,6.6,7c0,3.9-3.1,7-7,7.1
		h-0.1h-0.9v2h0.8l0,0h0.1c5,0,9.1-4.1,9.1-9.1C156.8,211.4,153.1,207.5,148.4,207.2z M120.4,203.5c-0.2,0-0.5,0-0.7,0
		c-2.5,0-4.9,0.9-6.7,2.3c-2-1.3-3.5-3.4-4-5.8c0.6,0.1,1.2,0.2,1.8,0.2c5,0,9-4,9-9c0-0.6-0.1-1.2-0.2-1.8c3.7,0.8,6.6,3.8,7.1,7.6
		C124,198.5,121.8,200.8,120.4,203.5z"/>
	<rect x="122.9" y="218.7" transform="matrix(0.8191 -0.5736 0.5736 0.8191 -106.2265 111.6421)" width="2" height="11.2"/>
	<rect x="140.8" y="218.7" transform="matrix(0.8191 -0.5736 0.5736 0.8191 -103.0117 121.9251)" width="2" height="11.2"/>
	<polygon points="134.7,228.2 136.4,228.2 136.9,228.2 138.9,228.2 132.5,219.1 130.8,220.2 135,226.2 133.3,226.2 130.8,226.2 
		132.1,228.1 133.2,229.7 137.8,236.2 139.5,235.1 134.8,228.5 	"/>
</g>
<g>
	<g>
		<path d="M-262.2,293.6c-1.6-7.4-8.2-13-16.1-13c-6.4,0-12,3.7-14.7,9c-0.3,0-0.5,0-0.8,0c-6.6,0-12,5.4-12,12s5.3,12,11.9,12l0,0
			h2.1v-2h-1.6h-0.4c-5.5,0-9.9-4.5-9.9-10s4.5-10,10-10c0.2,0,0.3,0,0.5,0h0.1l1.3,0.1l0.6-1.2c2.5-4.9,7.4-7.9,12.9-7.9
			c6.8,0,12.8,4.8,14.2,11.4l0.3,1.5l1.5,0.1c4.2,0.3,7.5,3.8,7.5,8c0,4.4-3.6,8-8,8h-0.1h-2h-2.9v2h4.9l0,0h0.1c5.5,0,10-4.5,10-10
			C-252.8,298.3-257,293.9-262.2,293.6z"/>
	</g>
	<g>
		<circle cx="-287.3" cy="307.2" r="1.5"/>
	</g>
	<g>
		<circle cx="-283.3" cy="313.1" r="1.5"/>
	</g>
	<g>
		<circle cx="-275.3" cy="313.1" r="1.5"/>
	</g>
	<g>
		<circle cx="-279.3" cy="307.2" r="1.5"/>
	</g>
	<g>
		<circle cx="-271.3" cy="307.2" r="1.5"/>
	</g>
	<g>
		<circle cx="-287.3" cy="319.1" r="1.5"/>
	</g>
	<g>
		<circle cx="-279.3" cy="319.1" r="1.5"/>
	</g>
	<g>
		<circle cx="-271.3" cy="319.1" r="1.5"/>
	</g>
</g>
<g>
	<g>
		<rect x="-186.4" y="278.1" width="2" height="8"/>
	</g>
	<g>
		<rect x="-205.4" y="297.1" width="8" height="2"/>
	</g>
	<g>
		<rect x="-197.8" y="282.8" transform="matrix(0.7071 -0.7071 0.7071 0.7071 -260.4464 -55.137)" width="2" height="8"/>
	</g>
	<g>
		<rect x="-178.2" y="285.8" transform="matrix(0.7071 -0.7071 0.7071 0.7071 -253.7965 -39.1906)" width="8" height="2"/>
	</g>
	<g>
		<path d="M-155.9,303.9c-1.4-6.7-7.4-11.8-14.6-11.8c-2.2,0-4.3,0.5-6.1,1.3c-1.7-3.2-5-5.4-8.9-5.4c-5.5,0-10,4.5-10,10
			c0,2.5,0.9,4.7,2.4,6.4c-1.4,1.8-2.3,4.1-2.3,6.7c0,6,4.8,10.8,10.8,10.9l0,0h1.2v-2h-0.7h-0.5c-4.9,0-8.8-4-8.8-8.9
			s4-8.9,8.9-8.9c0.1,0,0.3,0,0.4,0h0.1l1.3,0.1l0.6-1.2c2.2-4.4,6.6-7.1,11.5-7.1c6.1,0,11.4,4.3,12.6,10.2l0.3,1.5l1.5,0.1
			c3.7,0.2,6.6,3.3,6.6,7c0,3.9-3.1,7-7,7.1h-0.1h-2h-1.8v2h3.8l0,0h0.1c5,0,9.1-4.1,9.1-9.1C-147.4,308.1-151.2,304.2-155.9,303.9z
			 M-183.8,300.3c-0.2,0-0.5,0-0.7,0c-2.8,0-5.3,1-7.2,2.7c-1.1-1.4-1.8-3.1-1.8-5c0-4.4,3.6-8,8-8c3.1,0,5.8,1.8,7.1,4.3
			C-180.7,295.8-182.6,297.9-183.8,300.3z"/>
	</g>
	<g>
		<circle cx="-179.9" cy="315.5" r="1.5"/>
	</g>
	<g>
		<circle cx="-175.9" cy="321.5" r="1.5"/>
	</g>
	<g>
		<circle cx="-167.9" cy="321.5" r="1.5"/>
	</g>
	<g>
		<circle cx="-171.9" cy="315.5" r="1.5"/>
	</g>
	<g>
		<circle cx="-163.9" cy="315.5" r="1.5"/>
	</g>
	<g>
		<circle cx="-179.9" cy="327.5" r="1.5"/>
	</g>
	<g>
		<circle cx="-171.9" cy="327.5" r="1.5"/>
	</g>
	<g>
		<circle cx="-163.9" cy="327.5" r="1.5"/>
	</g>
</g>
<g>
	<g>
		<path d="M-60,300c-1.4-6.7-7.4-11.8-14.6-11.8c-1.8,0-3.5,0.3-5.1,0.9c-0.9-5.1-5.4-9-10.8-9c-0.4,0-0.8,0-1.2,0.1
			c0.7,1.1,1.2,2.4,1.2,3.9c0,3.9-3.1,7-7,7c-1.4,0-2.8-0.4-3.9-1.2c0,0.4-0.1,0.8-0.1,1.2c0,3.7,1.8,7,4.7,9
			c-1.7,1.9-2.7,4.4-2.7,7.1c0,6,4.8,10.8,10.8,10.9l0,0h1.2v-2h-0.7h-0.5c-4.9,0-8.8-4-8.8-8.9s4-8.9,8.9-8.9c0.2,0,0.3,0,0.4,0
			h0.1l1.3,0.1l0.6-1.2c2.2-4.4,6.6-7.1,11.5-7.1c6.1,0,11.4,4.3,12.6,10.2l0.3,1.5l1.5,0.1c3.7,0.2,6.6,3.3,6.6,7
			c0,3.9-3.1,7-7,7.1h-0.1h-2h-1.8v2h3.8l0,0h0.1c5,0,9.1-4.1,9.1-9.1C-51.5,304.2-55.2,300.3-60,300z M-87.9,296.4
			c-0.2,0-0.5,0-0.7,0c-2.5,0-4.9,0.9-6.7,2.3c-2-1.3-3.5-3.4-4-5.8c0.6,0.1,1.2,0.2,1.8,0.2c5,0,9-4,9-9c0-0.6-0.1-1.2-0.2-1.8
			c3.7,0.8,6.6,3.8,7.1,7.6C-84.3,291.4-86.5,293.6-87.9,296.4z"/>
	</g>
	<g>
		<circle cx="-84" cy="311.6" r="1.5"/>
	</g>
	<g>
		<circle cx="-80" cy="317.6" r="1.5"/>
	</g>
	<g>
		<circle cx="-72" cy="317.6" r="1.5"/>
	</g>
	<g>
		<circle cx="-76" cy="311.6" r="1.5"/>
	</g>
	<g>
		<circle cx="-68" cy="311.6" r="1.5"/>
	</g>
	<g>
		<circle cx="-84" cy="323.6" r="1.5"/>
	</g>
	<g>
		<circle cx="-76" cy="323.6" r="1.5"/>
	</g>
	<g>
		<circle cx="-68" cy="323.6" r="1.5"/>
	</g>
</g>
<g>
	<path d="M251.2,201.1c-1.6-7.4-8.2-13-16.1-13c-6.4,0-12,3.7-14.7,9c-0.3,0-0.5,0-0.8,0c-6.6,0-12,5.4-12,12s5.3,12,11.9,12l0,0
		h2.1v-2H220h-0.4c-5.5,0-9.9-4.5-9.9-10s4.5-10,10-10c0.2,0,0.3,0,0.5,0h0.1l1.3,0.1l0.6-1.2c2.5-4.9,7.4-7.9,12.9-7.9
		c6.8,0,12.8,4.8,14.2,11.4l0.3,1.5l1.5,0.1c4.2,0.3,7.5,3.8,7.5,8c0,4.4-3.6,8-8,8c-0.1,0-0.1,0-0.1,0h-2h-2.9v2h4.9l0,0h0.1
		c5.5,0,10-4.5,10-10C260.6,205.7,256.4,201.4,251.2,201.1z"/>
	<circle cx="225.6" cy="228.6" r="1.5"/>
	<circle cx="233.6" cy="234.6" r="1.5"/>
	<circle cx="241.6" cy="230.6" r="1.5"/>
	<rect x="224.6" y="212.1" width="2" height="12"/>
	<polygon points="234.6,230 234.6,228.1 234.6,216.1 232.6,216.1 232.6,228.1 232.6,230 232.6,230.1 234.6,230.1 	"/>
	<polygon points="242.6,225.8 242.6,224.1 242.6,212.1 240.6,212.1 240.6,224.1 240.6,225.8 240.6,226.1 242.6,226.1 	"/>
</g>
<g>
	<rect x="-497.2" y="272.7" width="2" height="8"/>
	<rect x="-516.2" y="291.6" width="8" height="2"/>
	<rect x="-508.5" y="277.4" transform="matrix(0.7071 -0.7071 0.7071 0.7071 -347.5934 -276.4204)" width="2" height="8"/>
	<rect x="-489" y="280.4" transform="matrix(0.7071 -0.7071 0.7071 0.7071 -341.0141 -260.5034)" width="8" height="2"/>
	<path d="M-466.7,298.5c-1.4-6.7-7.4-11.8-14.6-11.8c-2.2,0-4.3,0.5-6.1,1.3c-1.7-3.2-5-5.4-8.9-5.4c-5.5,0-10,4.5-10,10
		c0,2.5,0.9,4.7,2.4,6.4c-1.4,1.8-2.3,4.1-2.3,6.7c0,6,4.8,10.8,10.8,10.9l0,0h1.2v-2h-0.7h-0.5c-4.9,0-8.8-4-8.8-8.9s4-8.9,8.9-8.9
		c0.1,0,0.3,0,0.4,0h0.1l1.3,0.1l0.6-1.2c2.2-4.4,6.6-7.1,11.5-7.1c6.1,0,11.4,4.3,12.6,10.2l0.3,1.5l1.5,0.1c3.7,0.2,6.6,3.3,6.6,7
		c0,3.9-3.1,7-7,7.1h-0.1h-2h-0.8v2h2.8l0,0h0.1c5,0,9.1-4.1,9.1-9.1C-458.2,302.7-461.9,298.8-466.7,298.5z M-494.6,294.9
		c-0.2,0-0.5,0-0.7,0c-2.8,0-5.3,1-7.2,2.7c-1.1-1.4-1.8-3.1-1.8-5c0-4.4,3.6-8,8-8c3.1,0,5.8,1.8,7.1,4.3
		C-491.5,290.4-493.3,292.4-494.6,294.9z"/>
	<circle cx="-490.2" cy="325.1" r="1.5"/>
	<circle cx="-482.2" cy="331.1" r="1.5"/>
	<circle cx="-474.2" cy="327.1" r="1.5"/>
	<rect x="-491.2" y="308.6" width="2" height="12"/>
	<polygon points="-481.2,326.5 -481.2,324.6 -481.2,312.6 -483.2,312.6 -483.2,324.6 -483.2,326.5 -483.2,326.6 -481.2,326.6 	"/>
	<polygon points="-473.2,322.3 -473.2,320.6 -473.2,308.6 -475.2,308.6 -475.2,320.6 -475.2,322.3 -475.2,322.6 -473.2,322.6 	"/>
</g>
<g>
	<path d="M-366.1,295.5c-1.4-6.7-7.4-11.8-14.6-11.8c-1.8,0-3.5,0.3-5.1,0.9c-0.9-5.1-5.4-9-10.8-9c-0.4,0-0.8,0-1.2,0.1
		c0.7,1.1,1.2,2.4,1.2,3.9c0,3.9-3.1,7-7,7c-1.4,0-2.8-0.4-3.9-1.2c0,0.4-0.1,0.8-0.1,1.2c0,3.7,1.8,7,4.7,9
		c-1.7,1.9-2.7,4.4-2.7,7.1c0,6,4.8,10.8,10.8,10.9l0,0h1.2v-2h-0.7h-0.5c-4.9,0-8.8-4-8.8-8.9s4-8.9,8.9-8.9c0.1,0,0.3,0,0.4,0h0.1
		l1.3,0.1l0.6-1.2c2.2-4.4,6.6-7.1,11.5-7.1c6.1,0,11.4,4.3,12.6,10.2l0.3,1.5l1.5,0.1c3.7,0.2,6.6,3.3,6.6,7c0,3.9-3.1,7-7,7.1
		h-0.1h-2h-0.8v2h2.8l0,0h0.1c5,0,9.1-4.1,9.1-9.1C-357.6,299.7-361.3,295.8-366.1,295.5z M-394,291.9c-0.2,0-0.5,0-0.7,0
		c-2.5,0-4.9,0.9-6.7,2.3c-2-1.3-3.5-3.4-4-5.8c0.6,0.1,1.2,0.2,1.8,0.2c5,0,9-4,9-9c0-0.6-0.1-1.2-0.2-1.8c3.7,0.8,6.6,3.8,7.1,7.6
		C-390.4,286.9-392.6,289.1-394,291.9z"/>
	<circle cx="-389.6" cy="322.1" r="1.5"/>
	<circle cx="-381.6" cy="328.1" r="1.5"/>
	<circle cx="-373.6" cy="324.1" r="1.5"/>
	<rect x="-390.6" y="305.6" width="2" height="12"/>
	<polygon points="-380.6,323.5 -380.6,321.6 -380.6,309.6 -382.6,309.6 -382.6,321.6 -382.6,323.5 -382.6,323.6 -380.6,323.6 	"/>
	<polygon points="-372.6,319.3 -372.6,317.6 -372.6,305.6 -374.6,305.6 -374.6,317.6 -374.6,319.3 -374.6,319.6 -372.6,319.6 	"/>
</g>
<g>
	<rect x="-514.2" y="399.9" width="56" height="2"/>
	<rect x="-510.2" y="405.9" width="50" height="2"/>
	<rect x="-504.2" y="411.9" width="36" height="2"/>
	<rect x="-512.2" y="393.9" width="52" height="2"/>
	<path d="M-500.3,385.9c0.2,0,0.3,0,0.5,0h0.1l1.3,0.1l0.6-1.2c2.5-4.9,7.4-7.9,12.9-7.9c6.8,0,12.8,4.8,14.2,11.4l0.3,1.5l1.5,0.1
		c1.2,0.1,2.3,0.4,3.3,1h3.3c-1.7-1.7-4-2.8-6.5-3c-1.6-7.4-8.2-13-16.1-13c-6.4,0-12,3.7-14.7,9c-0.3,0-0.5,0-0.8,0
		c-4.8,0-9,2.9-10.9,7h2.3C-507.2,387.9-504,385.9-500.3,385.9z"/>
</g>
<g>
	<rect x="-393.1" y="372.4" width="2" height="8"/>
	<rect x="-412.1" y="391.3" width="8" height="2"/>
	<rect x="-404.4" y="377.1" transform="matrix(0.7071 -0.7071 0.7071 0.7071 -387.6103 -173.616)" width="2" height="8"/>
	<rect x="-384.9" y="380.1" transform="matrix(0.7071 -0.7071 0.7071 0.7071 -381.031 -157.6989)" width="8" height="2"/>
	<rect x="-403.1" y="406.3" width="50" height="2"/>
	<rect x="-399.1" y="412.3" width="44" height="2"/>
	<rect x="-393.1" y="417.3" width="30" height="2"/>
	<rect x="-401.1" y="400.3" width="46" height="2"/>
	<path d="M-400.2,398.3h0.8h1.9h1c1.5-1.1,3.3-1.7,5.2-1.7c0.1,0,0.3,0,0.4,0h0.1l1.3,0.1l0.6-1.2c2.2-4.4,6.6-7.1,11.5-7.1
		c5.9,0,11.2,4.1,12.6,9.9h2v-0.1c-1.4-6.7-7.4-11.8-14.6-11.8c-2.2,0-4.3,0.5-6.1,1.3c-1.7-3.2-5-5.4-8.9-5.4c-5.5,0-10,4.5-10,10
		C-402.2,394.6-401.4,396.6-400.2,398.3z M-392.2,384.3c3.1,0,5.8,1.8,7.1,4.3c-2.3,1.4-4.2,3.5-5.4,5.9c-0.2,0-0.5,0-0.7,0
		c-2.8,0-5.3,1-7.2,2.7c-1.1-1.4-1.8-3.1-1.8-5C-400.2,387.9-396.6,384.3-392.2,384.3z"/>
</g>
<g>
	<rect x="-304.3" y="402.9" width="50" height="2"/>
	<rect x="-300.3" y="408.9" width="44" height="2"/>
	<rect x="-294.3" y="413.9" width="30" height="2"/>
	<rect x="-302.3" y="396.9" width="46" height="2"/>
	<path d="M-300.7,394.9L-300.7,394.9h1.9h1.1c1.5-1.1,3.3-1.7,5.2-1.7c0.1,0,0.3,0,0.4,0h0.1l1.3,0.1l0.6-1.2
		c2.2-4.4,6.6-7.1,11.5-7.1c5.9,0,11.2,4.1,12.6,9.9h2v-0.1c-1.4-6.7-7.4-11.8-14.6-11.8c-1.8,0-3.5,0.3-5.1,0.9
		c-0.9-5.1-5.4-9-10.8-9c-0.4,0-0.8,0-1.2,0.1c0.7,1.1,1.2,2.4,1.2,3.9c0,3.9-3.1,7-7,7c-1.4,0-2.8-0.4-3.9-1.2
		c0,0.4-0.1,0.8-0.1,1.2C-305.3,389.6-303.5,392.9-300.7,394.9z M-301.4,387.8c5,0,9-4,9-9c0-0.6-0.1-1.2-0.2-1.8
		c3.7,0.8,6.6,3.8,7.1,7.6c-2.7,1.4-4.9,3.7-6.3,6.4c-0.2,0-0.5,0-0.7,0c-2.5,0-4.9,0.9-6.7,2.3c-2-1.3-3.5-3.4-4-5.8
		C-302.6,387.8-302,387.8-301.4,387.8z"/>
</g>
<g>
	<path d="M-172.4,405.9h-19.5h-0.6c-5.5,0-9.9-4.5-9.9-10s4.5-10,10-10c0.2,0,0.3,0,0.5,0h0.1l1.3,0.1l0.6-1.2
		c2.5-4.9,7.4-7.9,12.9-7.9c6.8,0,12.8,4.8,14.2,11.4l0.3,1.5l1.5,0.1c1.8,0.1,3.5,0.8,4.7,2h2.7c-1.7-2.3-4.3-3.8-7.4-4
		c-1.6-7.4-8.2-13-16.1-13c-6.4,0-12,3.7-14.7,9c-0.3,0-0.5,0-0.8,0c-6.6,0-12,5.4-12,12s5.3,12,11.9,12l0,0h20.1c2.2,0,4,1.8,4,4
		s-1.8,4-4,4v2c3.3,0,6-2.7,6-6C-166.4,408.6-169.1,405.9-172.4,405.9z"/>
	<path d="M-168.4,401.9h-16v2h16c3.3,0,6-2.7,6-6s-2.7-6-6-6v2c2.2,0,4,1.8,4,4S-166.2,401.9-168.4,401.9z"/>
	<path d="M-155.4,395.9c1.7,0,3,1.3,3,3s-1.3,3-3,3h-0.1h-4.9l0,0l0,0v2h5.5v-0.1c2.5-0.3,4.5-2.4,4.5-4.9c0-2.8-2.2-5-5-5V395.9
		L-155.4,395.9z"/>
	<path d="M-151.4,405.9h-13v2h9l0,0h3.9h0.1c1.7,0,3,1.3,3,3s-1.3,3-3,3v2c2.8,0,5-2.2,5-5S-148.7,405.9-151.4,405.9z"/>
	<rect x="-190.4" y="401.9" width="4" height="2"/>
</g>
<path d="M-380,6.8c7,1.3,12.2,7.4,12.2,14.7c0,8.3-6.7,15-15,15c-6.8,0-12.5-4.5-14.4-10.7c1.4,0.5,2.9,0.7,4.4,0.7
	c7.7,0,14-6.3,14-14C-378.8,10.5-379.2,8.6-380,6.8 M-382.8,4.5c-0.3,0-0.7,0-1,0.1c1.9,2.1,3,4.9,3,7.9c0,6.6-5.4,12-12,12
	c-2.6,0-5-0.8-7-2.2c0.4,9,7.8,16.3,17,16.3c9.4,0,17-7.6,17-17S-373.4,4.5-382.8,4.5L-382.8,4.5z"/>
<g>
	<path d="M-486.2,9.5c-7.2,0-13,5.8-13,13s5.8,13,13,13s13-5.8,13-13S-479,9.5-486.2,9.5z M-486.2,33.5c-6.1,0-11-4.9-11-11
		s4.9-11,11-11s11,4.9,11,11S-480.1,33.5-486.2,33.5z"/>
	<rect x="-487.2" y="-3.5" width="2" height="10"/>
	<rect x="-487.2" y="38.5" width="2" height="10"/>
	<rect x="-512.2" y="21.5" width="10" height="2"/>
	<rect x="-470.2" y="21.5" width="10" height="2"/>
	<rect x="-476.7" y="6.8" transform="matrix(0.7071 -0.7071 0.7071 0.7071 -143.6237 -331.1049)" width="10.4" height="2"/>
	<rect x="-506.1" y="36.2" transform="matrix(0.7071 -0.7071 0.7071 0.7071 -173.0182 -343.2901)" width="10.4" height="2"/>
	<rect x="-501.9" y="2.6" transform="matrix(0.7071 -0.7071 0.7071 0.7071 -152.2349 -351.8973)" width="2" height="10.4"/>
	<rect x="-472.5" y="32" transform="matrix(0.7071 -0.7072 0.7072 0.7071 -164.4135 -322.496)" width="2" height="10.4"/>
</g>
<g>
	<rect x="-88" y="367.4" width="2" height="8"/>
	<rect x="-107" y="386.4" width="8" height="2"/>
	<rect x="-99.3" y="372.1" transform="matrix(0.7071 -0.7071 0.7071 0.7071 -294.764 40.648)" width="2" height="8"/>
	<rect x="-79.7" y="375.1" transform="matrix(0.7071 -0.7071 0.7071 0.7071 -288.114 56.5944)" width="8" height="2"/>
	<path d="M-73,409.4L-73,409.4h-12.5h-0.6c-4.9,0-8.8-4-8.8-8.9s4-8.9,8.9-8.9c0.2,0,0.3,0,0.4,0h0.1l1.3,0.1l0.6-1.2
		c2.2-4.4,6.6-7.1,11.5-7.1c5.9,0,11.1,4.1,12.5,9.8h2.1c-1.4-6.7-7.4-11.8-14.6-11.8c-2.2,0-4.3,0.5-6.1,1.3
		c-1.7-3.2-5-5.4-8.9-5.4c-5.5,0-10,4.5-10,10c0,2.5,0.9,4.7,2.4,6.4c-1.4,1.8-2.3,4.1-2.3,6.7c0,6,4.8,10.8,10.8,10.9l0,0H-73l0,0
		c2.2,0,4,1.8,4,4s-1.8,4-4,4v2c3.3,0,6-2.7,6-6C-67,412.1-69.7,409.4-73,409.4z M-87,379.4c3.1,0,5.8,1.8,7.1,4.3
		c-2.3,1.4-4.2,3.5-5.4,5.9c-0.2,0-0.5,0-0.7,0c-2.8,0-5.3,1-7.2,2.7c-1.1-1.4-1.8-3.1-1.8-5C-95,383-91.4,379.4-87,379.4z"/>
	<path d="M-69,405.4h-10v2h10c3.3,0,6-2.7,6-6s-2.7-6-6-6v2c2.2,0,4,1.8,4,4S-66.8,405.4-69,405.4z"/>
	<path d="M-61,405.4L-61,405.4v2h5.5v-0.1c2.5-0.3,4.5-2.4,4.5-4.9c0-2.8-2.2-5-5-5v2c1.7,0,3,1.3,3,3s-1.3,3-3,3h-0.1H-61
		L-61,405.4z"/>
	<path d="M-52,409.4h-13v2h9l0,0h3.9h0.1c1.7,0,3,1.3,3,3s-1.3,3-3,3v2c2.8,0,5-2.2,5-5S-49.2,409.4-52,409.4z"/>
	<rect x="-85" y="405.4" width="4" height="2"/>
</g>
<g>
	<path d="M27,407.4L27,407.4H14.5h-0.6c-4.9,0-8.8-4-8.8-8.9s4-8.9,8.9-8.9c0.1,0,0.3,0,0.4,0h0.1l1.3,0.1l0.6-1.2
		c2.2-4.4,6.6-7.1,11.5-7.1c5.9,0,11.1,4.1,12.5,9.8h2.1c-1.4-6.7-7.4-11.8-14.6-11.8c-1.8,0-3.5,0.3-5.1,0.9c-0.9-5.1-5.4-9-10.8-9
		c-0.4,0-0.8,0-1.2,0.1c0.7,1.1,1.2,2.4,1.2,3.9c0,3.9-3.1,7-7,7c-1.4,0-2.8-0.4-3.9-1.2c0,0.4-0.1,0.8-0.1,1.2c0,3.7,1.9,7,4.7,9
		c-1.7,2-2.7,4.5-2.7,7.2c0,6,4.8,10.8,10.8,10.9l0,0H27l0,0c2.2,0,4,1.8,4,4s-1.8,4-4,4v2c3.3,0,6-2.7,6-6S30.3,407.4,27,407.4z
		 M3.2,384.2c0.6,0.1,1.2,0.2,1.8,0.2c5,0,9-4,9-9c0-0.6-0.1-1.2-0.2-1.8c3.7,0.8,6.6,3.8,7.1,7.7c-2.7,1.4-4.9,3.7-6.3,6.4
		c-0.2,0-0.5,0-0.7,0c-2.5,0-4.9,0.9-6.7,2.3C5.2,388.7,3.7,386.6,3.2,384.2z"/>
	<path d="M31,403.4H21v2h10c3.3,0,6-2.7,6-6s-2.7-6-6-6v2c2.2,0,4,1.8,4,4S33.2,403.4,31,403.4z"/>
	<path d="M39,403.4L39,403.4v2h5.5v-0.1c2.5-0.3,4.5-2.4,4.5-4.9c0-2.8-2.2-5-5-5v2c1.7,0,3,1.3,3,3s-1.3,3-3,3h-0.1H39L39,403.4z"
		/>
	<path d="M48,407.4H35v2h9l0,0h3.9H48c1.7,0,3,1.3,3,3s-1.3,3-3,3v2c2.8,0,5-2.2,5-5S50.7,407.4,48,407.4z"/>
	<rect x="15" y="403.4" width="4" height="2"/>
</g>
<g>
	<rect x="127.9" y="369.9" width="2" height="10"/>
	<rect x="102.9" y="394.9" width="10" height="2"/>
	<rect x="138.4" y="380.2" transform="matrix(0.7071 -0.7071 0.7071 0.7071 -227.4897 213.1719)" width="10.4" height="2"/>
	<rect x="113.2" y="376" transform="matrix(0.7071 -0.7071 0.7071 0.7071 -236.1009 192.3795)" width="2" height="10.4"/>
	<path d="M132.9,409.9h-24v2h24c2.2,0,4,1.8,4,4s-1.8,4-4,4v2c3.3,0,6-2.7,6-6S136.2,409.9,132.9,409.9z"/>
	<path d="M144.9,405.9L144.9,405.9v2h5.5v-0.1c2.5-0.3,4.5-2.4,4.5-4.9c0-2.8-2.2-5-5-5v2c1.7,0,3,1.3,3,3s-1.3,3-3,3h-0.1H144.9
		L144.9,405.9z"/>
	<path d="M153.9,409.9h-13v2h9l0,0h3.9h0.1c1.7,0,3,1.3,3,3s-1.3,3-3,3v2c2.8,0,5-2.2,5-5S156.6,409.9,153.9,409.9z"/>
	<path d="M120.6,405.9h-11.7v2h12h0.8h15.2c3.3,0,6-2.7,6-6s-2.7-6-6-6v2c2.2,0,4,1.8,4,4s-1.8,4-4,4h-12.5c-3.8-1.7-6.5-5.6-6.5-10
		c0-6.1,4.9-11,11-11c5.4,0,9.9,3.9,10.8,9h2c-1-6.2-6.3-11-12.8-11c-7.2,0-13,5.8-13,13C115.9,400,117.7,403.5,120.6,405.9z"/>
</g>
<g>
	<path d="M233.1,403.4h-24v2h24c2.2,0,4,1.8,4,4s-1.8,4-4,4v2c3.3,0,6-2.7,6-6S236.4,403.4,233.1,403.4z"/>
	<path d="M250.6,401.4L250.6,401.4c2.5-0.3,4.5-2.4,4.5-5c0-2.8-2.2-5-5-5v2c1.7,0,3,1.3,3,3s-1.3,3-3,3H250h-4.9l0,0l0,0v2H250.6z"
		/>
	<path d="M254.1,403.4h-13v2h9l0,0h3.9h0.1c1.7,0,3,1.3,3,3s-1.3,3-3,3v2c2.8,0,5-2.2,5-5S256.9,403.4,254.1,403.4z"/>
	<path d="M221.9,401.4h15.2c3.3,0,6-2.7,6-6s-2.7-6-6-6v2c2.2,0,4,1.8,4,4s-1.8,4-4,4h-12.6c-2.6-1.2-4.7-3.3-5.7-6
		c0.8,0.2,1.7,0.3,2.6,0.3c6.2,0,11.2-5,11.2-11.2c0-1.3-0.2-2.5-0.6-3.7c4,1.1,7.2,4.5,7.9,8.6h2c-1-6.2-6.3-11-12.8-11
		c-0.3,0-0.5,0-0.8,0c1.4,1.6,2.3,3.7,2.3,6.1c0,5.1-4.1,9.2-9.2,9.2c-2,0-3.8-0.6-5.3-1.7c0.2,3.8,2,7.2,4.7,9.4h-11.7v2h12
		L221.9,401.4L221.9,401.4z"/>
</g>
<g>
	<path d="M-486.7,488.6h-20c-1.1,0-2-0.9-2-2s0.9-2,2-2h3.4h0.6v-2h-4c-2.2,0-4,1.8-4,4s1.8,4,4,4h20c2.2,0,4,1.8,4,4s-1.8,4-4,4v2
		c3.3,0,6-2.7,6-6C-480.7,491.3-483.4,488.6-486.7,488.6z"/>
	<path d="M-484.7,472.6v2c2.2,0,4,1.8,4,4s-1.8,4-4,4h-16v2h16c3.3,0,6-2.7,6-6C-478.7,475.3-481.4,472.6-484.7,472.6z"/>
	<path d="M-478.7,484.6v2h5.5v-0.1c2.5-0.3,4.5-2.4,4.5-4.9c0-2.8-2.2-5-5-5v2c1.7,0,3,1.3,3,3s-1.3,3-3,3h-0.1H-478.7L-478.7,484.6
		L-478.7,484.6z"/>
	<path d="M-467.7,488.6h-11v2h7l0,0h3.9h0.1c1.7,0,3,1.3,3,3s-1.3,3-3,3v2c2.8,0,5-2.2,5-5S-464.9,488.6-467.7,488.6z"/>
</g>
<path d="M49.6,474.9L49.6,474.9H11.2c-1.1,0-2-0.9-2-2s0.9-2,2-2h33c2.8,0,5-2.2,5-5s-2.2-5-5-5H6.4l0,0H6.3c-2.8,0-5,2.2-5,5
	s2.2,5,5,5v-2c-1.7,0-3-1.3-3-3s1.3-3,3-3h0.1h3.9h34c1.7,0,3,1.3,3,3s-1.3,3-3,3h-33c-2.2,0-4,1.8-4,4s1.8,4,4,4h38
	c1.1,0,2,0.9,2,2s-0.9,2-2,2h-32c-2.2,0-4,1.8-4,4s1.8,4,4,4h22c1.1,0,2,0.9,2,2s-0.9,2-2,2h-24l0,0c-2.2,0-4,1.8-4,4s1.8,4,4,4l0,0
	h12c1.1,0,2,0.9,2,2s-0.9,2-2,2h-2c-2.2,0-4,1.8-4,4s1.8,4,4,4v-2c-1.1,0-2-0.9-2-2s0.9-2,2-2h2c2.2,0,4-1.8,4-4s-1.8-4-4-4h-12
	c-1.1,0-2-0.9-2-2s0.9-2,2-2h24c2.2,0,4-1.8,4-4s-1.7-3.9-3.8-4l0,0H17.2c-1.1,0-2-0.9-2-2s0.9-2,2-2h32c2.2,0,4-1.8,4-4
	C53.2,476.8,51.6,475.1,49.6,474.9z"/>
<path d="M235,465.6v-2h-2v2c-13,0.5-23.5,11-24,24h1.7c1.1-1.2,2.7-2,4.6-2c2.3,0,4.2,1.2,5.3,3h1.8c1.1-1.8,3.1-3,5.3-3
	s4.1,1.1,5.2,2.9v15.1c0,2.2,1.8,4,4,4s4-1.8,4-4h-2c0,1.1-0.9,2-2,2s-2-0.9-2-2v-15.1c1.1-1.7,3-2.9,5.2-2.9c2.3,0,4.2,1.2,5.3,3
	h1.8c1.1-1.8,3.1-3,5.3-3c1.8,0,3.4,0.8,4.6,2h1.7C258.5,476.6,248,466.1,235,465.6z M252.8,485.6c-2.5,0-4.7,1.1-6.2,2.9
	c-1.5-1.8-3.8-2.9-6.2-2.9s-4.7,1.1-6.2,2.9c-1.5-1.8-3.8-2.9-6.2-2.9s-4.7,1.1-6.2,2.9c-1.5-1.8-3.8-2.9-6.2-2.9
	c-1.4,0-2.7,0.4-3.9,1c1.9-10.8,11.3-19,22.6-19s20.7,8.2,22.6,19C255.5,485.9,254.2,485.6,252.8,485.6z"/>
<g>
	<path d="M-170.3,589.9v-17.1c0-2.8-2.2-5-5-5s-5,2.2-5,5v17.1c-1.2,1.3-2,3-2,4.9c0,3.9,3.1,7,7,7s7-3.1,7-7
		C-168.3,592.9-169,591.1-170.3,589.9z M-175.3,599.8c-2.8,0-5-2.2-5-5c0-1.3,0.5-2.6,1.4-3.5l0.6-0.6v-0.8v-17.1c0-1.7,1.3-3,3-3
		s3,1.3,3,3v17.1v0.8l0.6,0.6c0.9,0.9,1.4,2.2,1.4,3.5C-170.3,597.5-172.5,599.8-175.3,599.8z"/>
	<path d="M-174.3,592v-15.2h-2V592c-1.2,0.4-2,1.5-2,2.8c0,1.7,1.3,3,3,3s3-1.3,3-3C-172.3,593.5-173.1,592.4-174.3,592z
		 M-175.3,595.8c-0.6,0-1-0.5-1-1s0.5-1,1-1s1,0.5,1,1S-174.7,595.8-175.3,595.8z"/>
</g>
<g>
	<path d="M-70.5,589.9v-17.1c0-2.8-2.2-5-5-5s-5,2.2-5,5v17.1c-1.2,1.3-2,3-2,4.9c0,3.9,3.1,7,7,7s7-3.1,7-7
		C-68.5,592.9-69.2,591.1-70.5,589.9z M-75.5,599.8c-2.8,0-5-2.2-5-5c0-1.3,0.5-2.6,1.4-3.5l0.6-0.6v-0.8v-17.1c0-1.7,1.3-3,3-3
		s3,1.3,3,3v17.1v0.8l0.6,0.6c0.9,0.9,1.4,2.2,1.4,3.5C-70.5,597.5-72.7,599.8-75.5,599.8z"/>
	<path d="M-74.5,592v-20.2h-2V592c-1.2,0.4-2,1.5-2,2.8c0,1.7,1.3,3,3,3s3-1.3,3-3C-72.5,593.5-73.3,592.4-74.5,592z M-75.5,595.8
		c-0.6,0-1-0.5-1-1s0.5-1,1-1s1,0.5,1,1S-74.9,595.8-75.5,595.8z"/>
</g>
<g>
	<path d="M-273.4,589.9v-17.1c0-2.8-2.2-5-5-5s-5,2.2-5,5v17.1c-1.2,1.3-2,3-2,4.9c0,3.9,3.1,7,7,7s7-3.1,7-7
		C-271.4,592.9-272.1,591.1-273.4,589.9z M-278.4,599.8c-2.8,0-5-2.2-5-5c0-1.3,0.5-2.6,1.4-3.5l0.6-0.6v-0.8v-17.1c0-1.7,1.3-3,3-3
		s3,1.3,3,3v17.1v0.8l0.6,0.6c0.9,0.9,1.4,2.2,1.4,3.5C-273.4,597.5-275.6,599.8-278.4,599.8z"/>
	<path d="M-277.4,592v-10.2h-2V592c-1.2,0.4-2,1.5-2,2.8c0,1.7,1.3,3,3,3s3-1.3,3-3C-275.4,593.5-276.2,592.4-277.4,592z
		 M-278.4,595.8c-0.6,0-1-0.5-1-1s0.5-1,1-1s1,0.5,1,1S-277.8,595.8-278.4,595.8z"/>
</g>
<g>
	<path d="M-377,589.9v-17.1c0-2.8-2.2-5-5-5s-5,2.2-5,5v17.1c-1.2,1.3-2,3-2,4.9c0,3.9,3.1,7,7,7s7-3.1,7-7
		C-375,592.9-375.8,591.1-377,589.9z M-382,599.8c-2.8,0-5-2.2-5-5c0-1.3,0.5-2.6,1.4-3.5l0.6-0.6v-0.8v-17.1c0-1.7,1.3-3,3-3
		s3,1.3,3,3v17.1v0.8l0.6,0.6c0.9,0.9,1.4,2.2,1.4,3.5C-377,597.5-379.3,599.8-382,599.8z"/>
	<path d="M-381,592v-5.2h-2v5.2c-1.2,0.4-2,1.5-2,2.8c0,1.7,1.3,3,3,3s3-1.3,3-3C-379,593.5-379.9,592.4-381,592z M-382,595.8
		c-0.6,0-1-0.5-1-1s0.5-1,1-1s1,0.5,1,1S-381.5,595.8-382,595.8z"/>
</g>
<g>
	<path d="M-481.7,589.9v-17.1c0-2.8-2.2-5-5-5s-5,2.2-5,5v17.1c-1.2,1.3-2,3-2,4.9c0,3.9,3.1,7,7,7s7-3.1,7-7
		C-479.7,592.9-480.4,591.1-481.7,589.9z M-486.7,599.8c-2.8,0-5-2.2-5-5c0-1.3,0.5-2.6,1.4-3.5l0.6-0.6v-0.8v-17.1c0-1.7,1.3-3,3-3
		s3,1.3,3,3v17.1v0.8l0.6,0.6c0.9,0.9,1.4,2.2,1.4,3.5C-481.7,597.5-483.9,599.8-486.7,599.8z"/>
	<path d="M-486.7,591.8c-1.7,0-3,1.3-3,3s1.3,3,3,3s3-1.3,3-3S-485,591.8-486.7,591.8z M-486.7,595.8c-0.6,0-1-0.5-1-1s0.5-1,1-1
		s1,0.5,1,1S-486.1,595.8-486.7,595.8z"/>
</g>
<g>
	<path d="M18.2,570.1c-2.2,0-4,1.8-4,4s1.8,4,4,4s4-1.8,4-4C22.2,571.9,20.5,570.1,18.2,570.1z M18.2,576.1c-1.1,0-2-0.9-2-2
		s0.9-2,2-2s2,0.9,2,2S19.4,576.1,18.2,576.1z"/>
	<path d="M32.2,598.1c-4.4,0-8-3.6-8-8v-4c0-4.4,3.6-8,8-8c2.7,0,5.1,1.4,6.6,3.4l1.4-1.4c-1.8-2.4-4.7-4-8-4c-5.5,0-10,4.5-10,10v4
		c0,5.5,4.5,10,10,10c3.3,0,6.2-1.6,8-4l-1.4-1.4C37.4,596.7,35,598.1,32.2,598.1z"/>
</g>
<g>
	<path d="M122.9,570c-2.2,0-4,1.8-4,4s1.8,4,4,4s4-1.8,4-4S125.2,570,122.9,570z M122.9,576c-1.1,0-2-0.9-2-2s0.9-2,2-2s2,0.9,2,2
		S124,576,122.9,576z"/>
	<polygon points="142.8,578.1 142.8,576.1 130.8,576.1 128.8,576.1 128.8,600.1 130.8,600.1 130.8,588.1 138.8,588.1 138.8,586.1 
		130.8,586.1 130.8,578.1 	"/>
</g>
<g>
	<path d="M234,573.8c-7.2,0-13,5.8-13,13s5.8,13,13,13s13-5.8,13-13S241.2,573.8,234,573.8z M234,597.8c-6.1,0-11-4.9-11-11
		s4.9-11,11-11s11,4.9,11,11S240.1,597.8,234,597.8z"/>
	<path d="M229.8,591l6.4-2.1l2.1-6.4l-6.4,2.1L229.8,591z M233.5,586.2l1.6-0.5l-0.5,1.6l-1.6,0.5L233.5,586.2z"/>
</g>
<g>
	<path d="M-486.7,664.3c-7.2,0-13,5.8-13,13s5.8,13,13,13s13-5.8,13-13S-479.5,664.3-486.7,664.3z M-486.7,688.3
		c-6.1,0-11-4.9-11-11s4.9-11,11-11s11,4.9,11,11C-475.7,683.4-480.6,688.3-486.7,688.3z"/>
	<path d="M-484.1,675.7l-2.6-4.4l-2.5,4.3l0,0c-0.3,0.5-0.5,1-0.5,1.6c0,1.7,1.3,3,3,3s3-1.3,3-3
		C-483.7,676.7-483.9,676.2-484.1,675.7L-484.1,675.7z M-486.7,678.2c-0.6,0-1-0.4-1-1c0-0.2,0.1-0.4,0.2-0.5l0.9-1.4l0.8,1.4
		c0.1,0.2,0.1,0.3,0.1,0.5C-485.7,677.8-486.1,678.2-486.7,678.2z"/>
</g>
<g>
	<path d="M-381.9,664.3c-7.2,0-13,5.8-13,13s5.8,13,13,13s13-5.8,13-13S-374.7,664.3-381.9,664.3z M-381.9,688.3
		c-6.1,0-11-4.9-11-11s4.9-11,11-11s11,4.9,11,11C-370.9,683.4-375.8,688.3-381.9,688.3z"/>
	<path d="M-380.3,674.7c-0.5-0.3-1-0.5-1.6-0.5c-1.7,0-3,1.3-3,3s1.3,3,3,3c0.6,0,1.1-0.2,1.5-0.4l0,0l4.4-2.6L-380.3,674.7
		L-380.3,674.7L-380.3,674.7z M-381.4,678.1c-0.2,0.1-0.3,0.1-0.5,0.1c-0.6,0-1-0.4-1-1s0.4-1,1-1c0.2,0,0.4,0.1,0.5,0.2l1.4,0.9
		L-381.4,678.1z"/>
</g>
<g>
	<path d="M-278.8,664.3c-7.2,0-13,5.8-13,13s5.8,13,13,13s13-5.8,13-13S-271.7,664.3-278.8,664.3z M-278.8,688.3
		c-6.1,0-11-4.9-11-11s4.9-11,11-11s11,4.9,11,11C-267.8,683.4-272.8,688.3-278.8,688.3z"/>
	<path d="M-278.8,674.2c-1.7,0-3,1.3-3,3c0,0.6,0.2,1.1,0.4,1.5l0,0l2.6,4.4l2.5-4.3l0,0c0.3-0.5,0.5-1,0.5-1.6
		C-275.8,675.6-277.2,674.2-278.8,674.2z M-278,677.8l-0.9,1.4l-0.8-1.4c-0.1-0.2-0.1-0.3-0.1-0.5c0-0.6,0.4-1,1-1s1,0.4,1,1
		C-277.8,677.4-277.9,677.6-278,677.8z"/>
</g>
<g>
	<path d="M-175.4,664.3c-7.2,0-13,5.8-13,13s5.8,13,13,13s13-5.8,13-13S-168.2,664.3-175.4,664.3z M-175.4,688.3
		c-6.1,0-11-4.9-11-11s4.9-11,11-11s11,4.9,11,11C-164.4,683.4-169.4,688.3-175.4,688.3z"/>
	<path d="M-175.5,674.2c-0.6,0-1.1,0.2-1.5,0.4l0,0l-4.4,2.6l4.3,2.5l0,0c0.5,0.3,1,0.5,1.6,0.5c1.7,0,3-1.3,3-3
		C-172.5,675.6-173.8,674.2-175.5,674.2z M-175.5,678.2c-0.2,0-0.4-0.1-0.5-0.2l-1.4-0.9l1.4-0.8c0.2-0.1,0.3-0.1,0.5-0.1
		c0.6,0,1,0.4,1,1S-174.9,678.2-175.5,678.2z"/>
</g>
<g>
	<rect x="-383.6" y="467.6" width="2" height="10"/>
	<rect x="-373.1" y="477.9" transform="matrix(0.7071 -0.7071 0.7071 0.7071 -446.3797 -119.8518)" width="10.4" height="2"/>
	<rect x="-398.3" y="473.7" transform="matrix(0.7071 -0.7071 0.7071 0.7071 -454.9908 -140.6448)" width="2" height="10.4"/>
	<polygon points="-389.2,496.8 -387.8,498.2 -383.6,494 -383.6,503.6 -381.6,503.6 -381.6,494 -377.3,498.2 -375.9,496.8 
		-382.6,490.2 	"/>
	<path d="M-369.6,493.6L-369.6,493.6c0-7.2-5.8-13-13-13s-13,5.8-13,13l0,0h-13v2h18v-2h-3l0,0c0-6.1,4.9-11,11-11s11,4.9,11,11l0,0
		h-3v2h18v-2H-369.6z"/>
</g>
<g>
	<rect x="-279.8" y="466.4" width="2" height="10"/>
	<rect x="-269.3" y="476.7" transform="matrix(0.7071 -0.7071 0.7071 0.7071 -415.1113 -46.834)" width="10.4" height="2"/>
	<rect x="-294.5" y="472.5" transform="matrix(0.7071 -0.7071 0.7071 0.7071 -423.7224 -67.6265)" width="2" height="10.4"/>
	<polygon points="-277.8,500.9 -277.8,490.4 -279.8,490.4 -279.8,500.9 -284.1,496.7 -285.5,498.1 -278.8,504.8 -272.2,498.1 
		-273.6,496.7 	"/>
	<path d="M-265.8,492.4L-265.8,492.4c0-7.2-5.8-13-13-13s-13,5.8-13,13l0,0h-13v2h22v-2h-7l0,0c0-6.1,4.9-11,11-11s11,4.9,11,11l0,0
		h-7v2h22v-2H-265.8z"/>
</g>
<g>
	<polygon points="-75.5,500.4 -75.5,486 -77.5,486 -77.5,500.4 -81.7,496.1 -83.1,497.6 -76.5,504.2 -69.8,497.6 -71.2,496.1 	"/>
	<path d="M-59.8,481c-1.6-7.4-8.2-13-16.1-13c-6.4,0-12,3.7-14.7,9c-0.3,0-0.5,0-0.8,0c-6.6,0-12,5.4-12,12s5.3,12,11.9,12l0,0h6.1
		v-2H-91h-0.4c-5.5,0-9.9-4.5-9.9-10s4.5-10,10-10c0.2,0,0.3,0,0.5,0h0.1l1.3,0.1l0.6-1.2c2.5-4.9,7.4-7.9,12.9-7.9
		c6.8,0,12.8,4.8,14.2,11.4l0.3,1.5l1.5,0.1c4.2,0.3,7.5,3.8,7.5,8c0,4.4-3.6,8-8,8h-0.1h-2h-4.9v2h6.9l0,0h0.1c5.5,0,10-4.5,10-10
		C-50.5,485.7-54.6,481.4-59.8,481z"/>
</g>
<g>
	<polygon points="-169.5,497.2 -168.1,495.8 -174.7,489.1 -181.4,495.8 -180,497.2 -175.7,492.9 -175.7,505.5 -173.7,505.5 
		-173.7,492.9 	"/>
	<path d="M-158.1,482.6c-1.6-7.4-8.2-13-16.1-13c-6.4,0-12,3.7-14.7,9c-0.3,0-0.5,0-0.8,0c-6.6,0-12,5.4-12,12s5.3,12,11.9,12l0,0
		h10.1v-2h-9.6h-0.4c-5.5,0-9.9-4.5-9.9-10s4.5-10,10-10c0.2,0,0.3,0,0.5,0h0.1l1.3,0.1l0.6-1.2c2.5-4.9,7.4-7.9,12.9-7.9
		c6.8,0,12.8,4.8,14.2,11.4l0.3,1.5l1.5,0.1c4.2,0.3,7.5,3.8,7.5,8c0,4.4-3.6,8-8,8c-0.1,0-0.1,0-0.1,0h-2h-8.9v2h10.9l0,0h0.1
		c5.5,0,10-4.5,10-10C-148.7,487.3-152.9,483-158.1,482.6z"/>
</g>
<g>
	<path d="M44.4,293.1c-1.6-7.4-8.2-13-16.1-13c-6.4,0-12,3.7-14.7,9c-0.3,0-0.5,0-0.8,0c-6.6,0-12,5.4-12,12s5.3,12,11.9,12l0,0h2.1
		v-2h-1.6h-0.4c-5.5,0-9.9-4.5-9.9-10s4.5-10,10-10c0.2,0,0.3,0,0.5,0h0.1l1.3,0.1l0.6-1.2c2.5-4.9,7.4-7.9,12.9-7.9
		c6.8,0,12.8,4.8,14.2,11.4l0.3,1.5l1.5,0.1c4.2,0.3,7.5,3.8,7.5,8c0,4.4-3.6,8-8,8h-0.1h-2h-0.9v2h2.9l0,0h0.1c5.5,0,10-4.5,10-10
		C53.7,297.8,49.6,293.4,44.4,293.1z"/>
	<polygon points="22.7,312.1 22.7,309.5 24.9,310.7 25.6,309.5 23.1,308.1 25.6,306.7 24.9,305.5 22.7,306.7 22.7,304.1 20.7,304.1 
		20.7,306.7 18.5,305.5 17.8,306.7 20.3,308.1 17.8,309.5 18.5,310.7 20.7,309.4 20.7,312.1 	"/>
	<polygon points="27.9,316.5 25.7,317.7 25.7,315.1 23.7,315.1 23.7,317.7 21.5,316.5 20.8,317.7 23.3,319.1 20.8,320.5 21.5,321.7 
		23.7,320.4 23.7,323.1 25.7,323.1 25.7,320.5 27.9,321.7 28.6,320.5 26.1,319.1 28.6,317.7 	"/>
	<polygon points="36.9,309.5 34.8,310.7 34.8,308.1 32.8,308.1 32.8,310.7 30.5,309.5 29.8,310.7 32.3,312.1 29.8,313.5 30.5,314.7 
		32.8,313.4 32.8,316.1 34.8,316.1 34.8,313.5 36.9,314.7 37.6,313.5 35.1,312.1 37.6,310.7 	"/>
</g>
<g>
	<rect x="119.9" y="275.1" width="2" height="8"/>
	<rect x="100.9" y="294" width="8" height="2"/>
	<rect x="108.5" y="279.7" transform="matrix(0.7071 -0.7071 0.7071 0.7071 -168.5593 160.5328)" width="2" height="8"/>
	<rect x="128.1" y="282.7" transform="matrix(0.7071 -0.7071 0.7071 0.7071 -161.9094 176.4793)" width="8" height="2"/>
	<path d="M150.4,300.9c-1.4-6.7-7.4-11.8-14.6-11.8c-2.2,0-4.3,0.5-6.1,1.3c-1.7-3.2-5-5.4-8.9-5.4c-5.5,0-10,4.5-10,10
		c0,2.5,0.9,4.7,2.4,6.4c-1.4,1.8-2.3,4.1-2.3,6.7c0,6,4.8,10.8,10.8,10.9l0,0h1.2v-2h-0.7h-0.5c-4.9,0-8.8-4-8.8-8.9s4-8.9,8.9-8.9
		c0.2,0,0.3,0,0.4,0h0.1l1.3,0.1l0.6-1.2c2.2-4.4,6.6-7.1,11.5-7.1c6.1,0,11.4,4.3,12.6,10.2l0.3,1.5l1.5,0.1c3.7,0.2,6.6,3.3,6.6,7
		c0,3.9-3.1,7-7,7.1h-0.1h-1.9v2h1.8l0,0h0.1c5,0,9.1-4.1,9.1-9.1C158.9,305.1,155.1,301.2,150.4,300.9z M122.5,297.2
		c-0.2,0-0.5,0-0.7,0c-2.8,0-5.3,1-7.2,2.7c-1.1-1.4-1.8-3.1-1.8-5c0-4.4,3.6-8,8-8c3.1,0,5.8,1.8,7.1,4.3
		C125.6,292.8,123.7,294.8,122.5,297.2z"/>
	<polygon points="129.9,318 129.9,315.3 132.1,316.6 132.7,315.3 130.3,313.9 132.7,312.6 132.1,311.3 129.9,312.6 129.9,310 
		127.9,310 127.9,312.6 125.6,311.3 124.9,312.6 127.4,313.9 124.9,315.3 125.6,316.6 127.9,315.3 127.9,318 	"/>
	<polygon points="135,322.3 132.9,323.5 132.9,320.9 130.9,320.9 130.9,323.6 128.6,322.3 127.9,323.5 130.4,324.9 127.9,326.3 
		128.6,327.5 130.9,326.3 130.9,328.9 132.9,328.9 132.9,326.3 135,327.5 135.7,326.3 133.3,324.9 135.7,323.5 	"/>
	<polygon points="144.1,315.3 141.9,316.6 141.9,314 139.9,314 139.9,316.6 137.6,315.3 136.9,316.6 139.4,317.9 136.9,319.3 
		137.6,320.6 139.9,319.3 139.9,322 141.9,322 141.9,319.3 144.1,320.6 144.7,319.3 142.3,317.9 144.7,316.6 	"/>
</g>
<g>
	<path d="M250.6,297.9c-1.4-6.7-7.4-11.8-14.6-11.8c-1.8,0-3.5,0.3-5.1,0.9c-0.9-5.1-5.4-9-10.8-9c-0.4,0-0.8,0-1.2,0.1
		c0.7,1.1,1.2,2.4,1.2,3.9c0,3.9-3.1,7-7,7c-1.4,0-2.8-0.4-3.9-1.2c0,0.4-0.1,0.8-0.1,1.2c0,3.7,1.8,7,4.7,9
		c-1.7,1.9-2.7,4.4-2.7,7.1c0,6,4.8,10.8,10.8,10.9l0,0h1.2v-2h-0.7h-0.5c-4.9,0-8.8-4-8.8-8.9s4-8.9,8.9-8.9c0.1,0,0.3,0,0.4,0h0.1
		l1.3,0.1l0.6-1.2c2.2-4.4,6.6-7.1,11.5-7.1c6.1,0,11.4,4.3,12.6,10.2l0.3,1.5l1.5,0.1c3.7,0.2,6.6,3.3,6.6,7c0,3.9-3.1,7-7,7.1
		h-0.1h-1.9v2h1.8l0,0h0.1c5,0,9.1-4.1,9.1-9.1C259.1,302.1,255.3,298.2,250.6,297.9z M222.7,294.2c-0.2,0-0.5,0-0.7,0
		c-2.5,0-4.9,0.9-6.7,2.3c-2-1.3-3.5-3.4-4-5.8c0.6,0.1,1.2,0.2,1.8,0.2c5,0,9-4,9-9c0-0.6-0.1-1.2-0.2-1.8c3.7,0.8,6.6,3.8,7.1,7.6
		C226.3,289.2,224.1,291.5,222.7,294.2z"/>
	<polygon points="230.1,315 230.1,312.3 232.3,313.6 233,312.3 230.5,310.9 233,309.6 232.3,308.3 230.1,309.6 230.1,307 228.1,307 
		228.1,309.6 225.9,308.3 225.2,309.6 227.6,310.9 225.2,312.3 225.9,313.6 228.1,312.3 228.1,315 	"/>
	<polygon points="235.3,319.3 233.1,320.5 233.1,317.9 231.1,317.9 231.1,320.6 228.8,319.3 228.2,320.5 230.6,321.9 228.2,323.3 
		228.8,324.5 231.1,323.3 231.1,325.9 233.1,325.9 233.1,323.3 235.3,324.5 236,323.3 233.5,321.9 236,320.5 	"/>
	<polygon points="244.3,312.3 242.1,313.6 242.1,311 240.1,311 240.1,313.6 237.9,312.3 237.2,313.6 239.6,314.9 237.2,316.3 
		237.9,317.6 240.1,316.3 240.1,319 242.1,319 242.1,316.3 244.3,317.6 245,316.3 242.5,314.9 245,313.6 	"/>
</g>
<rect x="-365.8" y="-269.9" class="st0" width="473" height="180.9"/>
<text transform="matrix(1 0 0 1 -186.1362 -198.4946)" style="font-family:'Helvetica'; font-size:100px; letter-spacing:2;">60</text>
<text transform="matrix(1 0 0 1 -285.4042 -138.4946)" style="font-family:'Helvetica'; font-size:48px;">Weather Icons</text>
<text transform="matrix(1 0 0 1 -189.8622 -94.4946)" style="font-family:'Helvetica'; font-size:24px;">IOS 7 Style</text>
</svg>
