<?xml version="1.0" encoding="utf-8"?>
<!-- Generator: Adobe Illustrator 25.0.1, SVG Export Plug-In . SVG Version: 6.00 Build 0)  -->
<svg version="1.1" id="Layer_1" xmlns="http://www.w3.org/2000/svg" xmlns:xlink="http://www.w3.org/1999/xlink" x="0px" y="0px"
	 viewBox="0 0 53 48" style="enable-background:new 0 0 53 48;" xml:space="preserve">
<style type="text/css">
	.st0{fill:none;}
</style>
<path d="M337.1,379.9l-1.8,15.1l-0.3,2.2h2.3h6.9L329.5,416l1.8-14.5l0.3-2.2h-2.3h-7L337.1,379.9 M340,372.9l-21.7,28.3h11
	l-2.7,21.7l21.7-27.7h-11L340,372.9L340,372.9z"/>
<path d="M-75.9-82.3c6.8,0,12.7,4.8,14.2,11.4l0.3,1.5l1.5,0.1c4.2,0.3,7.5,3.8,7.5,8c0,4.4-3.6,8-8,8h-0.1h-2l0,0h-28.3h-0.6
	c-5.5,0-9.9-4.5-9.9-10s4.5-10,10-10c0.2,0,0.3,0,0.5,0h0.1l1.3,0.1l0.6-1.2C-86.3-79.3-81.4-82.3-75.9-82.3 M-75.9-84.3
	c-6.4,0-12,3.7-14.7,9c-0.3,0-0.5,0-0.8,0c-6.6,0-12,5.4-12,12s5.3,12,11.9,12l0,0h30.9l0,0h0.1c5.5,0,10-4.5,10-10
	c0-5.3-4.1-9.6-9.4-10C-61.4-78.8-68-84.3-75.9-84.3L-75.9-84.3z"/>
<g>
	<path d="M47-63.9c-1.4-6.7-7.4-11.8-14.6-11.8c-2.2,0-4.3,0.5-6.1,1.3c-1.7-3.2-5-5.4-8.9-5.4c-5.5,0-10,4.5-10,10
		c0,2.5,0.9,4.7,2.4,6.4c-1.4,1.8-2.3,4.1-2.3,6.7c0,6,4.8,10.8,10.8,10.9l0,0h28l0,0h0.1c5,0,9.1-4.1,9.1-9.1
		C55.5-59.7,51.8-63.6,47-63.9z M17.4-77.8c3.1,0,5.8,1.8,7.1,4.3c-2.3,1.4-4.2,3.5-5.4,5.9c-0.2,0-0.5,0-0.7,0
		c-2.8,0-5.3,1-7.2,2.7c-1.1-1.4-1.8-3.1-1.8-5C9.4-74.2,13-77.8,17.4-77.8z M46.5-47.9L46.5-47.9h-2.1l0,0H18.9h-0.6
		c-4.9,0-8.8-4-8.8-8.9s4-8.9,8.9-8.9c0.1,0,0.3,0,0.4,0h0.1l1.3,0.1l0.6-1.2c2.2-4.4,6.6-7.1,11.5-7.1c6.1,0,11.4,4.3,12.7,10.2
		l0.3,1.5l1.5,0.1c3.7,0.2,6.6,3.3,6.6,7C53.5-51,50.4-47.9,46.5-47.9z"/>
	<rect x="16.4" y="-89.8" width="2" height="8"/>
	<rect x="-2.5" y="-70.9" width="8" height="2"/>
	<rect x="5.2" y="-85.1" transform="matrix(0.7071 -0.7071 0.7071 0.7071 59.1589 -19.3842)" width="2" height="8"/>
	<rect x="24.7" y="-82.1" transform="matrix(0.7071 -0.7071 0.7071 0.7071 65.7381 -3.4671)" width="8" height="2"/>
</g>
<path d="M142.8-68c-1.4-6.7-7.4-11.8-14.6-11.8c-1.8,0-3.5,0.3-5.1,0.9c-0.9-5.1-5.4-9-10.8-9c-0.4,0-0.8,0-1.2,0.1
	c0.7,1.1,1.2,2.4,1.2,3.9c0,3.9-3.1,7-7,7c-1.4,0-2.8-0.4-3.9-1.2c0,0.4-0.1,0.8-0.1,1.2c0,3.7,1.8,7,4.7,9
	c-1.7,1.9-2.7,4.4-2.7,7.1c0,6,4.8,10.8,10.8,10.9l0,0h28l0,0h0.1c5,0,9.1-4.1,9.1-9.1C151.3-63.7,147.5-67.7,142.8-68z M103.4-75.1
	c0.6,0.1,1.2,0.2,1.8,0.2c5,0,9-4,9-9c0-0.6-0.1-1.2-0.2-1.8c3.7,0.8,6.6,3.8,7.1,7.6c-2.7,1.4-4.9,3.7-6.3,6.4c-0.2,0-0.5,0-0.7,0
	c-2.5,0-4.9,0.9-6.7,2.3C105.4-70.6,103.9-72.6,103.4-75.1z M142.3-51.9h-0.1h-2l0,0h-25.4h-0.6c-4.9,0-8.8-4-8.8-8.9s4-8.9,8.9-8.9
	c0.2,0,0.3,0,0.4,0h0.1l1.3,0.1l0.6-1.2c2.2-4.4,6.6-7.1,11.5-7.1c6.1,0,11.4,4.3,12.6,10.2l0.3,1.5l1.5,0.1c3.7,0.2,6.6,3.3,6.6,7
	C149.3-55.1,146.1-51.9,142.3-51.9z"/>
<g>
	<rect x="227.4" y="-59.3" width="2" height="7"/>
	<rect x="235.4" y="-63.3" width="2" height="7"/>
	<rect x="219.4" y="-63.3" width="2" height="7"/>
	<rect x="227.4" y="-49.3" width="2" height="7"/>
	<rect x="235.4" y="-53.3" width="2" height="7"/>
	<rect x="219.4" y="-53.3" width="2" height="7"/>
	<path d="M246.1-76.3c-1.6-7.4-8.2-13-16.1-13c-6.4,0-12,3.7-14.7,9c-0.3,0-0.5,0-0.8,0c-6.6,0-12,5.4-12,12s5.3,12,11.9,12l0,0h2.1
		v-2h-1.6h-0.4c-5.5,0-9.9-4.5-9.9-10s4.5-10,10-10c0.2,0,0.3,0,0.5,0h0.1l1.3,0.1l0.6-1.2c2.5-4.9,7.4-7.9,12.9-7.9
		c6.8,0,12.8,4.8,14.2,11.4l0.3,1.5l1.5,0.1c4.2,0.3,7.5,3.8,7.5,8c0,4.4-3.6,8-8,8c-0.1,0-0.1,0-0.1,0h-2h-2.9v2h4.9l0,0h0.1
		c5.5,0,10-4.5,10-10C255.4-71.7,251.3-76,246.1-76.3z"/>
</g>
<g>
	<path d="M43.6,13C42,5.6,35.4,0,27.5,0c-6.4,0-12,3.7-14.7,9c-0.3,0-0.5,0-0.8,0C5.4,9,0,14.4,0,21s5.3,12,11.9,12l0,0H14v-2h-1.6
		H12C6.5,31,2,26.5,2,21s4.5-10,10-10c0.2,0,0.3,0,0.5,0h0.1l1.3,0.1l0.6-1.2C17.1,5,22,2,27.5,2c6.8,0,12.8,4.8,14.2,11.4l0.3,1.5
		l1.5,0.1c4.2,0.3,7.5,3.8,7.5,8c0,4.4-3.6,8-8,8h-0.1h-2H38v2h4.9l0,0H43c5.5,0,10-4.5,10-10C53,17.7,48.9,13.4,43.6,13z"/>
	<polygon points="25,40 25,42 25,48 27,48 27,42 27,40 27,28 25,28 	"/>
	<polygon points="33,36 33,37.8 33,44 35,44 35,37.8 35,36 35,24 33,24 	"/>
	<polygon points="17,36 17,38.1 17,44 19,44 19,38.1 19,36 19,24 17,24 	"/>
</g>
<g>
	<polygon points="339.3,36.9 332.4,27.1 330.8,28.3 337.6,38.1 338.8,39.7 342.2,44.6 343.9,43.5 340.4,38.5 	"/>
	<polygon points="347.3,36.9 340.4,27.1 338.8,28.3 345.6,38.1 346.6,39.5 350.2,44.6 351.9,43.5 348.3,38.4 	"/>
	<polygon points="331.3,36.9 324.4,27.1 322.8,28.3 329.6,38.1 330.8,39.8 334.2,44.6 335.9,43.5 332.5,38.6 	"/>
	<path d="M350.4,13.3c-1.6-7.4-8.2-13-16.1-13c-6.4,0-12,3.7-14.7,9c-0.3,0-0.5,0-0.8,0c-6.6,0-12,5.4-12,12s5.3,12,11.9,12l0,0h2.1
		v-2h-1.6h-0.4c-5.5,0-9.9-4.5-9.9-10s4.5-10,10-10c0.2,0,0.3,0,0.5,0h0.1l1.3,0.1l0.6-1.2c2.5-4.9,7.4-7.9,12.9-7.9
		c6.8,0,12.8,4.8,14.2,11.4l0.3,1.5l1.5,0.1c4.2,0.3,7.5,3.8,7.5,8c0,4.4-3.6,8-8,8h-0.1h-1h0.1v2h0.9l0,0h0.1c5.5,0,10-4.5,10-10
		C359.8,18,355.6,13.6,350.4,13.3z"/>
</g>
<g>
	<rect x="322.1" y="-95.8" width="2" height="8"/>
	<rect x="303.1" y="-76.9" width="8" height="2"/>
	<rect x="310.7" y="-91.1" transform="matrix(0.7071 -0.7071 0.7071 0.7071 152.8814 194.9275)" width="2" height="8"/>
	<rect x="330.3" y="-88.1" transform="matrix(0.7071 -0.7071 0.7071 0.7071 159.5314 210.8739)" width="8" height="2"/>
	<rect x="336.1" y="-54.9" width="2" height="7"/>
	<rect x="344.1" y="-58.9" width="2" height="7"/>
	<rect x="328.1" y="-58.9" width="2" height="7"/>
	<rect x="336.1" y="-44.9" width="2" height="7"/>
	<rect x="344.1" y="-48.9" width="2" height="7"/>
	<rect x="328.1" y="-48.9" width="2" height="7"/>
	<path d="M352.6-70c-1.4-6.7-7.4-11.8-14.6-11.8c-2.2,0-4.3,0.5-6.1,1.3c-1.7-3.2-5-5.4-8.9-5.4c-5.5,0-10,4.5-10,10
		c0,2.5,0.9,4.7,2.4,6.4c-1.4,1.8-2.3,4.1-2.3,6.7c0,6,4.8,10.8,10.8,10.9l0,0h1.2v-2h-0.7h-0.5c-4.9,0-8.8-4-8.8-8.9s4-8.9,8.9-8.9
		c0.1,0,0.3,0,0.4,0h0.1l1.3,0.1l0.6-1.2c2.2-4.4,6.6-7.1,11.5-7.1c6.1,0,11.4,4.3,12.6,10.2l0.3,1.5l1.5,0.1c3.7,0.2,6.6,3.3,6.6,7
		c0,3.9-3.1,7-7,7.1h-0.1h-2H349v2h2.8l0,0h0.1c5,0,9.1-4.1,9.1-9.1C361.1-65.8,357.3-69.7,352.6-70z M324.7-73.6
		c-0.2,0-0.5,0-0.7,0c-2.8,0-5.3,1-7.2,2.7c-1.1-1.4-1.8-3.1-1.8-5c0-4.4,3.6-8,8-8c3.1,0,5.8,1.8,7.1,4.3
		C327.8-78.1,325.9-76,324.7-73.6z"/>
</g>
<g>
	<rect x="436.5" y="-56.4" width="2" height="7"/>
	<rect x="444.5" y="-60.4" width="2" height="7"/>
	<rect x="428.5" y="-60.4" width="2" height="7"/>
	<rect x="436.5" y="-46.4" width="2" height="7"/>
	<rect x="444.5" y="-50.4" width="2" height="7"/>
	<rect x="428.5" y="-50.4" width="2" height="7"/>
	<path d="M453-71.4c-1.4-6.7-7.4-11.8-14.6-11.8c-1.8,0-3.5,0.3-5.1,0.9c-0.9-5.1-5.4-9-10.8-9c-0.4,0-0.8,0-1.2,0.1
		c0.7,1.1,1.2,2.4,1.2,3.9c0,3.9-3.1,7-7,7c-1.4,0-2.8-0.4-3.9-1.2c0,0.4-0.1,0.8-0.1,1.2c0,3.7,1.8,7,4.7,9
		c-1.7,1.9-2.7,4.4-2.7,7.1c0,6,4.8,10.8,10.8,10.9l0,0h1.2v-2h-0.7h-0.5c-4.9,0-8.8-4-8.8-8.9s4-8.9,8.9-8.9c0.1,0,0.3,0,0.4,0h0.1
		l1.3,0.1l0.6-1.2c2.2-4.4,6.6-7.1,11.5-7.1c6.1,0,11.4,4.3,12.6,10.2l0.3,1.5l1.5,0.1c3.7,0.2,6.6,3.3,6.6,7c0,3.9-3.1,7-7,7.1
		h-0.1h-2h-0.8v2h2.8l0,0h0.1c5,0,9.1-4.1,9.1-9.1C461.5-67.2,457.7-71.1,453-71.4z M425.1-75.1c-0.2,0-0.5,0-0.7,0
		c-2.5,0-4.9,0.9-6.7,2.3c-2-1.3-3.5-3.4-4-5.8c0.6,0.1,1.2,0.2,1.8,0.2c5,0,9-4,9-9c0-0.6-0.1-1.2-0.2-1.8c3.7,0.8,6.6,3.8,7.1,7.6
		C428.7-80.1,426.5-77.8,425.1-75.1z"/>
</g>
<g>
	<polygon points="129.3,44.5 129.3,46.4 129.3,52.5 131.3,52.5 131.3,46.4 131.3,44.5 131.3,32.5 129.3,32.5 	"/>
	<polygon points="137.3,40.5 137.3,42.2 137.3,48.5 139.3,48.5 139.3,42.2 139.3,40.5 139.3,28.5 137.3,28.5 	"/>
	<polygon points="121.3,40.5 121.3,42.5 121.3,48.5 123.3,48.5 123.3,42.5 123.3,40.5 123.3,28.5 121.3,28.5 	"/>
	<rect x="115.3" y="-6.4" width="2" height="8"/>
	<rect x="96.3" y="12.5" width="8" height="2"/>
	<rect x="103.9" y="-1.8" transform="matrix(0.7071 -0.7071 0.7071 0.7071 29.153 74.8285)" width="2" height="8"/>
	<rect x="123.5" y="1.2" transform="matrix(0.7071 -0.7071 0.7071 0.7071 35.8035 90.7749)" width="8" height="2"/>
	<path d="M145.8,19.4c-1.4-6.7-7.4-11.8-14.6-11.8c-2.2,0-4.3,0.5-6.1,1.3c-1.7-3.2-5-5.4-8.9-5.4c-5.5,0-10,4.5-10,10
		c0,2.5,0.9,4.7,2.4,6.4c-1.4,1.8-2.3,4.1-2.3,6.7c0,6,4.8,10.8,10.8,10.9l0,0h1.2v-2h-0.7h-0.5c-4.9,0-8.8-4-8.8-8.9s4-8.9,8.9-8.9
		c0.2,0,0.3,0,0.4,0h0.1l1.3,0.1l0.6-1.2c2.2-4.4,6.6-7.1,11.5-7.1c6.1,0,11.4,4.3,12.6,10.2l0.3,1.5l1.5,0.1c3.7,0.2,6.6,3.3,6.6,7
		c0,3.9-3.1,7-7,7.1H145h-2h-0.8v2h2.8l0,0h0.1c5,0,9.1-4.1,9.1-9.1C154.3,23.6,150.5,19.6,145.8,19.4z M117.9,15.7
		c-0.2,0-0.5,0-0.7,0c-2.8,0-5.3,1-7.2,2.7c-1.1-1.4-1.8-3.1-1.8-5c0-4.4,3.6-8,8-8c3.1,0,5.8,1.8,7.1,4.3
		C121,11.3,119.1,13.3,117.9,15.7z"/>
</g>
<g>
	<polygon points="229.7,41.9 229.7,43.9 229.7,49.9 231.7,49.9 231.7,43.9 231.7,41.9 231.7,29.9 229.7,29.9 	"/>
	<polygon points="237.7,37.9 237.7,39.7 237.7,45.9 239.7,45.9 239.7,39.7 239.7,37.9 239.7,25.9 237.7,25.9 	"/>
	<polygon points="221.7,37.9 221.7,40 221.7,45.9 223.7,45.9 223.7,40 223.7,37.9 223.7,25.9 221.7,25.9 	"/>
	<path d="M246.2,16.8C244.7,10.1,238.7,5,231.6,5c-1.8,0-3.5,0.3-5.1,0.9c-0.9-5.1-5.4-9-10.8-9c-0.4,0-0.8,0-1.2,0.1
		c0.7,1.1,1.2,2.4,1.2,3.9c0,3.9-3.1,7-7,7c-1.4,0-2.8-0.4-3.9-1.2c0,0.4-0.1,0.8-0.1,1.2c0,3.7,1.8,7,4.7,9
		c-1.7,1.9-2.7,4.4-2.7,7.1c0,6,4.8,10.8,10.8,10.9l0,0h1.2v-2H218h-0.5c-4.9,0-8.8-4-8.8-8.9s4-8.9,8.9-8.9c0.1,0,0.3,0,0.4,0h0.1
		l1.3,0.1L220,14c2.2-4.4,6.6-7.1,11.5-7.1c6.1,0,11.4,4.3,12.6,10.2l0.3,1.5l1.5,0.1c3.7,0.2,6.6,3.3,6.6,7c0,3.9-3.1,7-7,7.1h-0.1
		h-2h-0.8v2h2.8l0,0h0.1c5,0,9.1-4.1,9.1-9.1C254.7,21.1,250.9,17.1,246.2,16.8z M218.3,13.2c-0.2,0-0.5,0-0.7,0
		c-2.5,0-4.9,0.9-6.7,2.3c-2-1.3-3.5-3.4-4-5.8c0.6,0.1,1.2,0.2,1.8,0.2c5,0,9-4,9-9c0-0.6-0.1-1.2-0.2-1.8c3.7,0.8,6.6,3.8,7.1,7.6
		C221.9,8.2,219.7,10.5,218.3,13.2z"/>
</g>
<g>
	<polygon points="446.7,42.9 439.8,33.1 438.2,34.2 445.1,44 446.2,45.6 449.7,50.6 451.3,49.4 447.8,44.5 	"/>
	<polygon points="454.7,42.9 447.8,33.1 446.2,34.2 453.1,44 454.1,45.5 457.7,50.6 459.3,49.4 455.7,44.3 	"/>
	<polygon points="438.7,42.9 431.8,33.1 430.2,34.2 437.1,44 438.2,45.7 441.7,50.6 443.3,49.4 439.9,44.6 	"/>
	<rect x="426.2" y="-4.7" width="2" height="8"/>
	<rect x="407.2" y="14.3" width="8" height="2"/>
	<rect x="414.8" y="0" transform="matrix(0.7071 -0.7071 0.7071 0.7071 118.9431 295.2073)" width="2" height="8"/>
	<rect x="434.4" y="3" transform="matrix(0.7071 -0.7071 0.7071 0.7071 125.5937 311.1537)" width="8" height="2"/>
	<path d="M456.7,21.1c-1.4-6.7-7.4-11.8-14.6-11.8c-2.2,0-4.3,0.5-6.1,1.3c-1.7-3.2-5-5.4-8.9-5.4c-5.5,0-10,4.5-10,10
		c0,2.5,0.9,4.7,2.4,6.4c-1.4,1.8-2.3,4.1-2.3,6.7c0,6,4.8,10.8,10.8,10.9l0,0h1.2v-2h-0.7H428c-4.9,0-8.8-4-8.8-8.9s4-8.9,8.9-8.9
		c0.1,0,0.3,0,0.4,0h0.1l1.3,0.1l0.6-1.2c2.2-4.4,6.6-7.1,11.5-7.1c6.1,0,11.4,4.3,12.6,10.2l0.3,1.5l1.5,0.1c3.7,0.2,6.6,3.3,6.6,7
		c0,3.9-3.1,7-7,7.1h-0.1l0,0h-0.8v2h0.8l0,0h0.1c5,0,9.1-4.1,9.1-9.1C465.2,25.3,461.4,21.4,456.7,21.1z M428.8,17.5
		c-0.2,0-0.5,0-0.7,0c-2.8,0-5.3,1-7.2,2.7c-1.1-1.4-1.8-3.1-1.8-5c0-4.4,3.6-8,8-8c3.1,0,5.8,1.8,7.1,4.3
		C431.9,13,430,15.1,428.8,17.5z"/>
</g>
<g>
	<polygon points="-276.7,139.4 -283.6,129.5 -285.2,130.7 -278.4,140.5 -277.3,142.1 -273.8,147.1 -272.1,145.9 -275.6,141 	"/>
	<polygon points="-268.7,139.4 -275.6,129.5 -277.2,130.7 -270.4,140.5 -269.4,142 -265.8,147.1 -264.1,145.9 -267.7,140.8 	"/>
	<polygon points="-284.7,139.4 -291.6,129.5 -293.2,130.7 -286.4,140.5 -285.2,142.2 -281.8,147.1 -280.1,145.9 -283.5,141.1 	"/>
	<path d="M-266.7,117.6c-1.4-6.7-7.4-11.8-14.6-11.8c-1.8,0-3.5,0.3-5.1,0.9c-0.9-5.1-5.4-9-10.8-9c-0.4,0-0.8,0-1.2,0.1
		c0.7,1.1,1.2,2.4,1.2,3.9c0,3.9-3.1,7-7,7c-1.4,0-2.8-0.4-3.9-1.2c0,0.4-0.1,0.8-0.1,1.2c0,3.7,1.8,7,4.7,9
		c-1.7,1.9-2.7,4.4-2.7,7.1c0,6,4.8,10.8,10.8,10.9l0,0h1.2v-2h-0.7h-0.5c-4.9,0-8.8-4-8.8-8.9s4-8.9,8.9-8.9c0.1,0,0.3,0,0.4,0h0.1
		l1.3,0.1l0.6-1.2c2.2-4.4,6.6-7.1,11.5-7.1c6.1,0,11.4,4.3,12.6,10.2l0.3,1.5l1.5,0.1c3.7,0.2,6.6,3.3,6.6,7c0,3.9-3.1,7-7,7.1
		h-0.1l0,0h-0.8v2h0.8l0,0h0.1c5,0,9.1-4.1,9.1-9.1C-258.2,121.8-262,117.9-266.7,117.6z M-294.7,114c-0.2,0-0.5,0-0.7,0
		c-2.5,0-4.9,0.9-6.7,2.3c-2-1.3-3.5-3.4-4-5.8c0.6,0.1,1.2,0.2,1.8,0.2c5,0,9-4,9-9c0-0.6-0.1-1.2-0.2-1.8c3.7,0.8,6.6,3.8,7.1,7.6
		C-291,109-293.3,111.3-294.7,114z"/>
</g>
<g>
	<rect x="-284.2" y="35.5" width="2" height="4"/>
	<rect x="-276.2" y="31.5" width="2" height="4"/>
	<rect x="-292.2" y="31.5" width="2" height="4"/>
	<path d="M-265.6,15.5c-1.6-7.4-8.2-13-16.1-13c-6.4,0-12,3.7-14.7,9c-0.3,0-0.5,0-0.8,0c-6.6,0-12,5.4-12,12s5.3,12,11.9,12l0,0
		h2.1v-2h-1.6h-0.4c-5.5,0-9.9-4.5-9.9-10s4.5-10,10-10c0.2,0,0.3,0,0.5,0h0.1l1.3,0.1l0.6-1.2c2.5-4.9,7.4-7.9,12.9-7.9
		c6.8,0,12.8,4.8,14.2,11.4l0.3,1.5l1.5,0.1c4.2,0.3,7.5,3.8,7.5,8c0,4.4-3.6,8-8,8h-0.1h-2h-2.9v2h4.9l0,0h0.1c5.5,0,10-4.5,10-10
		C-256.2,20.2-260.4,15.9-265.6,15.5z"/>
	<circle cx="-275.2" cy="40.5" r="1.5"/>
	<circle cx="-283.2" cy="44.5" r="1.5"/>
	<circle cx="-291.2" cy="40.5" r="1.5"/>
</g>
<g>
	<rect x="-191.3" y="-3.9" width="2" height="8"/>
	<rect x="-210.3" y="15" width="8" height="2"/>
	<rect x="-202.7" y="0.7" transform="matrix(0.7071 -0.7071 0.7071 0.7071 -62.4224 -141.2426)" width="2" height="8"/>
	<rect x="-183.1" y="3.7" transform="matrix(0.7071 -0.7071 0.7071 0.7071 -55.7724 -125.2962)" width="8" height="2"/>
	<path d="M-160.8,21.9c-1.4-6.7-7.4-11.8-14.6-11.8c-2.2,0-4.3,0.5-6.1,1.3c-1.7-3.2-5-5.4-8.9-5.4c-5.5,0-10,4.5-10,10
		c0,2.5,0.9,4.7,2.4,6.4c-1.4,1.8-2.3,4.1-2.3,6.7c0,6,4.8,10.8,10.8,10.9l0,0h1.2v-2h-0.7h-0.5c-4.9,0-8.8-4-8.8-8.9s4-8.9,8.9-8.9
		c0.1,0,0.3,0,0.4,0h0.1l1.3,0.1l0.6-1.2c2.2-4.4,6.6-7.1,11.5-7.1c6.1,0,11.4,4.3,12.6,10.2l0.3,1.5l1.5,0.1c3.7,0.2,6.6,3.3,6.6,7
		c0,3.9-3.1,7-7,7.1h-0.1h-2h-0.8v2h2.8l0,0h0.1c5,0,9.1-4.1,9.1-9.1C-152.3,26.1-156.1,22.2-160.8,21.9z M-188.7,18.2
		c-0.2,0-0.5,0-0.7,0c-2.8,0-5.3,1-7.2,2.7c-1.1-1.4-1.8-3.1-1.8-5c0-4.4,3.6-8,8-8c3.1,0,5.8,1.8,7.1,4.3
		C-185.6,13.8-187.5,15.8-188.7,18.2z"/>
	<rect x="-177.3" y="40" width="2" height="4"/>
	<rect x="-169.3" y="35.9" width="2" height="4"/>
	<rect x="-185.3" y="35.9" width="2" height="4"/>
	<circle cx="-168.3" cy="45" r="1.5"/>
	<circle cx="-176.3" cy="49" r="1.5"/>
	<circle cx="-184.3" cy="44.9" r="1.5"/>
</g>
<g>
	<path d="M-59.9,20.9c-1.4-6.7-7.4-11.8-14.6-11.8c-1.8,0-3.5,0.3-5.1,0.9c-0.9-5.1-5.4-9-10.8-9c-0.4,0-0.8,0-1.2,0.1
		c0.7,1.1,1.2,2.4,1.2,3.9c0,3.9-3.1,7-7,7c-1.4,0-2.8-0.4-3.9-1.2c0,0.4-0.1,0.8-0.1,1.2c0,3.7,1.8,7,4.7,9
		c-1.7,1.9-2.7,4.4-2.7,7.1c0,6,4.8,10.8,10.8,10.9l0,0h1.2v-2h-0.7h-0.5c-4.9,0-8.8-4-8.8-8.9s4-8.9,8.9-8.9c0.2,0,0.3,0,0.4,0h0.1
		l1.3,0.1l0.6-1.2c2.2-4.4,6.6-7.1,11.5-7.1c6.1,0,11.4,4.3,12.6,10.2l0.3,1.5l1.5,0.1c3.7,0.2,6.6,3.3,6.6,7c0,3.9-3.1,7-7,7.1
		h-0.1h-2h-0.8v2h2.8l0,0h0.1c5,0,9.1-4.1,9.1-9.1C-51.4,25.1-55.2,21.2-59.9,20.9z M-87.8,17.3c-0.2,0-0.5,0-0.7,0
		c-2.5,0-4.9,0.9-6.7,2.3c-2-1.3-3.5-3.4-4-5.8c0.6,0.1,1.2,0.2,1.8,0.2c5,0,9-4,9-9c0-0.6-0.1-1.2-0.2-1.8C-84.9,4-82,7-81.5,10.9
		C-84.2,12.3-86.4,14.5-87.8,17.3z"/>
	<rect x="-76.4" y="39" width="2" height="4"/>
	<rect x="-68.4" y="35" width="2" height="4"/>
	<rect x="-84.4" y="35" width="2" height="4"/>
	<circle cx="-67.4" cy="44" r="1.5"/>
	<circle cx="-75.4" cy="48" r="1.5"/>
	<circle cx="-83.4" cy="44" r="1.5"/>
</g>
<g>
	<path d="M-163.2,113.9c-1.6-7.4-8.2-13-16.1-13c-6.4,0-12,3.7-14.7,9c-0.3,0-0.5,0-0.8,0c-6.6,0-12,5.4-12,12s5.3,12,11.9,12l0,0
		h6.1v-2h-5.6h-0.4c-5.5,0-9.9-4.5-9.9-10s4.5-10,10-10c0.2,0,0.3,0,0.5,0h0.1l1.3,0.1l0.6-1.2c2.5-4.9,7.4-7.9,12.9-7.9
		c6.8,0,12.8,4.8,14.2,11.4l0.3,1.5l1.5,0.1c4.2,0.3,7.5,3.8,7.5,8c0,4.4-3.6,8-8,8c-0.1,0-0.1,0-0.1,0h-5h0.1v2h4.9l0,0h0.1
		c5.5,0,10-4.5,10-10C-153.8,118.6-158,114.3-163.2,113.9z"/>
	<polygon points="-179,133.9 -177.2,133.9 -176.8,133.9 -174.8,133.9 -181.2,124.7 -182.8,125.9 -178.6,131.9 -180.4,131.9 
		-182.8,131.9 -181.6,133.7 -180.4,135.3 -174.5,143.9 -172.8,142.8 -178.8,134.2 	"/>
</g>
<g>
	<rect x="-87.4" y="94.8" width="2" height="8"/>
	<rect x="-106.4" y="113.7" width="8" height="2"/>
	<rect x="-98.7" y="99.5" transform="matrix(0.7071 -0.7071 0.7071 0.7071 -101.7652 -38.769)" width="2" height="8"/>
	<rect x="-79.2" y="102.5" transform="matrix(0.7071 -0.7071 0.7071 0.7071 -95.1854 -22.8519)" width="8" height="2"/>
	<path d="M-56.9,120.6c-1.4-6.7-7.4-11.8-14.6-11.8c-2.2,0-4.3,0.5-6.1,1.3c-1.7-3.2-5-5.4-8.9-5.4c-5.5,0-10,4.5-10,10
		c0,2.5,0.9,4.7,2.4,6.4c-1.4,1.8-2.3,4.1-2.3,6.7c0,6,4.8,10.8,10.8,10.9l0,0h4.2v-2h-3.7h-0.5c-4.9,0-8.8-4-8.8-8.9s4-8.9,8.9-8.9
		c0.2,0,0.3,0,0.4,0h0.1l1.3,0.1l0.6-1.2c2.2-4.4,6.6-7.1,11.5-7.1c6.1,0,11.4,4.3,12.6,10.2l0.3,1.5l1.5,0.1c3.7,0.2,6.6,3.3,6.6,7
		c0,3.9-3.1,7-7,7.1h-0.1h-2h-3.8v2h5.8l0,0h0.1c5,0,9.1-4.1,9.1-9.1C-48.4,124.8-52.2,120.9-56.9,120.6z M-84.8,117
		c-0.2,0-0.5,0-0.7,0c-2.8,0-5.3,1-7.2,2.7c-1.1-1.4-1.8-3.1-1.8-5c0-4.4,3.6-8,8-8c3.1,0,5.8,1.8,7.1,4.3
		C-81.7,112.5-83.6,114.6-84.8,117z"/>
	<polygon points="-72.6,138.7 -70.8,138.7 -70.4,138.7 -68.4,138.7 -74.8,129.5 -76.4,130.7 -72.2,136.7 -74,136.7 -76.4,136.7 
		-75.1,138.5 -74,140.1 -68,148.7 -66.4,147.5 -72.4,138.9 	"/>
</g>
<g>
	<path d="M42.7,118.3c-1.4-6.7-7.4-11.8-14.6-11.8c-1.8,0-3.5,0.3-5.1,0.9c-0.9-5.1-5.4-9-10.8-9c-0.4,0-0.8,0-1.2,0.1
		c0.7,1.1,1.2,2.4,1.2,3.9c0,3.9-3.1,7-7,7c-1.4,0-2.8-0.4-3.9-1.2c0,0.4-0.1,0.8-0.1,1.2c0,3.7,1.8,7,4.7,9
		c-1.7,1.9-2.7,4.4-2.7,7.1c0,6,4.8,10.8,10.8,10.9l0,0h4.2v-2h-3.7H14c-4.9,0-8.8-4-8.8-8.9s4-8.9,8.9-8.9c0.1,0,0.3,0,0.4,0h0.1
		l1.3,0.1l0.6-1.2c2.2-4.4,6.6-7.1,11.5-7.1c6.1,0,11.4,4.3,12.6,10.2l0.3,1.5l1.5,0.1c3.7,0.2,6.6,3.3,6.6,7c0,3.9-3.1,7-7,7.1
		h-0.1h-2h-3.8v2H42l0,0h0.1c5,0,9.1-4.1,9.1-9.1C51.2,122.5,47.4,118.6,42.7,118.3z M14.8,114.7c-0.2,0-0.5,0-0.7,0
		c-2.5,0-4.9,0.9-6.7,2.3c-2-1.3-3.5-3.4-4-5.8c0.6,0.1,1.2,0.2,1.8,0.2c5,0,9-4,9-9c0-0.6-0.1-1.2-0.2-1.8c3.7,0.8,6.6,3.8,7.1,7.6
		C18.4,109.7,16.2,111.9,14.8,114.7z"/>
	<polygon points="27,136.4 28.8,136.4 29.2,136.4 31.2,136.4 24.8,127.2 23.2,128.4 27.4,134.4 25.6,134.4 23.2,134.4 24.5,136.2 
		25.6,137.8 31.5,146.4 33.2,145.2 27.2,136.6 	"/>
</g>
<g>
	<path d="M143.6,114.4c-1.6-7.4-8.2-13-16.1-13c-6.4,0-12,3.7-14.7,9c-0.3,0-0.5,0-0.8,0c-6.6,0-12,5.4-12,12s5.3,12,11.9,12l0,0
		h1.1v-2h-0.6H112c-5.5,0-9.9-4.5-9.9-10s4.5-10,10-10c0.2,0,0.3,0,0.5,0h0.1l1.3,0.1l0.6-1.2c2.5-4.9,7.4-7.9,12.9-7.9
		c6.8,0,12.8,4.8,14.2,11.4l0.3,1.5l1.5,0.1c4.2,0.3,7.5,3.8,7.5,8c0,4.4-3.6,8-8,8c-0.1,0-0.1,0-0.1,0H142v2h0.9l0,0h0.1
		c5.5,0,10-4.5,10-10C153,119.1,148.8,114.8,143.6,114.4z"/>
	<rect x="117" y="127.8" transform="matrix(0.8191 -0.5736 0.5736 0.8191 -55.1732 91.8058)" width="2" height="11.2"/>
	<rect x="135" y="127.8" transform="matrix(0.8191 -0.5736 0.5736 0.8191 -51.9105 102.1254)" width="2" height="11.2"/>
	<polygon points="128.8,137.4 130.6,137.4 131,137.4 133,137.4 126.6,128.2 125,129.4 129.2,135.4 127.4,135.4 125,135.4 
		126.2,137.2 127.3,138.8 132,145.4 133.6,144.3 129,137.7 	"/>
</g>
<g>
	<rect x="218.4" y="95" width="2" height="8"/>
	<rect x="199.4" y="113.9" width="8" height="2"/>
	<rect x="207.1" y="99.6" transform="matrix(0.7071 -0.7071 0.7071 0.7071 -12.3077 177.4787)" width="2" height="8"/>
	<rect x="226.6" y="102.6" transform="matrix(0.7071 -0.7071 0.7071 0.7071 -5.7284 193.3958)" width="8" height="2"/>
	<path d="M248.9,120.8c-1.4-6.7-7.4-11.8-14.6-11.8c-2.2,0-4.3,0.5-6.1,1.3c-1.7-3.2-5-5.4-8.9-5.4c-5.5,0-10,4.5-10,10
		c0,2.5,0.9,4.7,2.4,6.4c-1.4,1.8-2.3,4.1-2.3,6.7c0,6,4.8,10.8,10.8,10.9l0,0h0.2v-2h-0.2c-4.9,0-8.8-4-8.8-8.9s4-8.9,8.9-8.9
		c0.1,0,0.3,0,0.4,0h0.1l1.3,0.1l0.6-1.2c2.2-4.4,6.6-7.1,11.5-7.1c6.1,0,11.4,4.3,12.6,10.2l0.3,1.5l1.5,0.1c3.7,0.2,6.6,3.3,6.6,7
		c0,3.9-3.1,7-7,7.1h-0.1h-0.9v2h0.8l0,0h0.1c5,0,9.1-4.1,9.1-9.1C257.4,125,253.7,121.1,248.9,120.8z M221,117.1
		c-0.2,0-0.5,0-0.7,0c-2.8,0-5.3,1-7.2,2.7c-1.1-1.4-1.8-3.1-1.8-5c0-4.4,3.6-8,8-8c3.1,0,5.8,1.8,7.1,4.3
		C224.1,112.7,222.3,114.7,221,117.1z"/>
	<rect x="223.4" y="132.3" transform="matrix(0.8191 -0.5736 0.5736 0.8191 -38.5183 153.6831)" width="2" height="11.2"/>
	<rect x="241.4" y="132.3" transform="matrix(0.8191 -0.5736 0.5736 0.8191 -35.2554 164.0029)" width="2" height="11.2"/>
	<polygon points="235.3,141.8 237,141.8 237.5,141.8 239.5,141.8 233.1,132.7 231.4,133.8 235.6,139.8 233.9,139.8 231.4,139.8 
		232.7,141.7 233.8,143.3 238.4,149.8 240.1,148.7 235.4,142.1 	"/>
</g>
<g>
	<path d="M350.8,117.8c-1.4-6.7-7.4-11.8-14.6-11.8c-1.8,0-3.5,0.3-5.1,0.9c-0.9-5.1-5.4-9-10.8-9c-0.4,0-0.8,0-1.2,0.1
		c0.7,1.1,1.2,2.4,1.2,3.9c0,3.9-3.1,7-7,7c-1.4,0-2.8-0.4-3.9-1.2c0,0.4-0.1,0.8-0.1,1.2c0,3.7,1.8,7,4.7,9
		c-1.7,1.9-2.7,4.4-2.7,7.1c0,6,4.8,10.8,10.8,10.9l0,0h0.2v-2h-0.2c-4.9,0-8.8-4-8.8-8.9s4-8.9,8.9-8.9c0.1,0,0.3,0,0.4,0h0.1
		l1.3,0.1l0.6-1.2c2.2-4.4,6.6-7.1,11.5-7.1c6.1,0,11.4,4.3,12.6,10.2l0.3,1.5l1.5,0.1c3.7,0.2,6.6,3.3,6.6,7c0,3.9-3.1,7-7,7.1H350
		h-0.9v2h0.8l0,0h0.1c5,0,9.1-4.1,9.1-9.1C359.3,122,355.5,118.1,350.8,117.8z M322.9,114.2c-0.2,0-0.5,0-0.7,0
		c-2.5,0-4.9,0.9-6.7,2.3c-2-1.3-3.5-3.4-4-5.8c0.6,0.1,1.2,0.2,1.8,0.2c5,0,9-4,9-9c0-0.6-0.1-1.2-0.2-1.8c3.7,0.8,6.6,3.8,7.1,7.6
		C326.5,109.2,324.3,111.4,322.9,114.2z"/>
	<rect x="325.3" y="129.3" transform="matrix(0.8191 -0.5736 0.5736 0.8191 -18.3589 211.5661)" width="2" height="11.2"/>
	<rect x="343.3" y="129.3" transform="matrix(0.8191 -0.5736 0.5736 0.8191 -15.096 221.8859)" width="2" height="11.2"/>
	<polygon points="337.1,138.9 338.9,138.9 339.3,138.9 341.3,138.9 334.9,129.7 333.3,130.9 337.5,136.9 335.7,136.9 333.3,136.9 
		334.5,138.7 335.6,140.3 340.3,146.9 341.9,145.7 337.3,139.1 	"/>
</g>
<g>
	<g>
		<path d="M-59.8,204.3c-1.6-7.4-8.2-13-16.1-13c-6.4,0-12,3.7-14.7,9c-0.3,0-0.5,0-0.8,0c-6.6,0-12,5.4-12,12s5.3,12,11.9,12l0,0
			h2.1v-2H-91h-0.4c-5.5,0-9.9-4.5-9.9-10s4.5-10,10-10c0.2,0,0.3,0,0.5,0h0.1l1.3,0.1l0.6-1.2c2.5-4.9,7.4-7.9,12.9-7.9
			c6.8,0,12.8,4.8,14.2,11.4l0.3,1.5l1.5,0.1c4.2,0.3,7.5,3.8,7.5,8c0,4.4-3.6,8-8,8h-0.1h-2h-2.9v2h4.9l0,0h0.1c5.5,0,10-4.5,10-10
			C-50.4,208.9-54.6,204.6-59.8,204.3z"/>
	</g>
	<g>
		<circle cx="-84.9" cy="217.8" r="1.5"/>
	</g>
	<g>
		<circle cx="-80.9" cy="223.7" r="1.5"/>
	</g>
	<g>
		<circle cx="-72.9" cy="223.7" r="1.5"/>
	</g>
	<g>
		<circle cx="-76.9" cy="217.8" r="1.5"/>
	</g>
	<g>
		<circle cx="-68.9" cy="217.8" r="1.5"/>
	</g>
	<g>
		<circle cx="-84.9" cy="229.7" r="1.5"/>
	</g>
	<g>
		<circle cx="-76.9" cy="229.7" r="1.5"/>
	</g>
	<g>
		<circle cx="-68.9" cy="229.7" r="1.5"/>
	</g>
</g>
<g>
	<g>
		<rect x="16" y="188.8" width="2" height="8"/>
	</g>
	<g>
		<rect x="-3" y="207.7" width="8" height="2"/>
	</g>
	<g>
		<rect x="4.7" y="193.4" transform="matrix(0.7071 -0.7071 0.7071 0.7071 -137.9082 61.8188)" width="2" height="8"/>
	</g>
	<g>
		<rect x="24.2" y="196.4" transform="matrix(0.7071 -0.7071 0.7071 0.7071 -131.3288 77.7359)" width="8" height="2"/>
	</g>
	<g>
		<path d="M46.5,214.6c-1.4-6.7-7.4-11.8-14.6-11.8c-2.2,0-4.3,0.5-6.1,1.3c-1.7-3.2-5-5.4-8.9-5.4c-5.5,0-10,4.5-10,10
			c0,2.5,0.9,4.7,2.4,6.4C7.9,217,7,219.3,7,221.8c0,6,4.8,10.8,10.8,10.9l0,0H19v-2h-0.7h-0.5c-4.9,0-8.8-4-8.8-8.9s4-8.9,8.9-8.9
			c0.1,0,0.3,0,0.4,0h0.1l1.3,0.1l0.6-1.2c2.2-4.4,6.6-7.1,11.5-7.1c6.1,0,11.4,4.3,12.6,10.2l0.3,1.5l1.5,0.1
			c3.7,0.2,6.6,3.3,6.6,7c0,3.9-3.1,7-7,7.1h-0.1h-2H42v2h3.8l0,0h0.1c5,0,9.1-4.1,9.1-9.1C55,218.8,51.2,214.9,46.5,214.6z
			 M18.6,211c-0.2,0-0.5,0-0.7,0c-2.8,0-5.3,1-7.2,2.7c-1.1-1.4-1.8-3.1-1.8-5c0-4.4,3.6-8,8-8c3.1,0,5.8,1.8,7.1,4.3
			C21.7,206.5,19.8,208.5,18.6,211z"/>
	</g>
	<g>
		<circle cx="22.5" cy="226.2" r="1.5"/>
	</g>
	<g>
		<circle cx="26.5" cy="232.2" r="1.5"/>
	</g>
	<g>
		<circle cx="34.5" cy="232.2" r="1.5"/>
	</g>
	<g>
		<circle cx="30.5" cy="226.2" r="1.5"/>
	</g>
	<g>
		<circle cx="38.5" cy="226.2" r="1.5"/>
	</g>
	<g>
		<circle cx="22.5" cy="238.2" r="1.5"/>
	</g>
	<g>
		<circle cx="30.5" cy="238.2" r="1.5"/>
	</g>
	<g>
		<circle cx="38.5" cy="238.2" r="1.5"/>
	</g>
</g>
<g>
	<g>
		<path d="M142.5,210.6c-1.4-6.7-7.4-11.8-14.6-11.8c-1.8,0-3.5,0.3-5.1,0.9c-0.9-5.1-5.4-9-10.8-9c-0.4,0-0.8,0-1.2,0.1
			c0.7,1.1,1.2,2.4,1.2,3.9c0,3.9-3.1,7-7,7c-1.4,0-2.8-0.4-3.9-1.2c0,0.4-0.1,0.8-0.1,1.2c0,3.7,1.8,7,4.7,9
			c-1.7,1.9-2.7,4.4-2.7,7.1c0,6,4.8,10.8,10.8,10.9l0,0h1.2v-2h-0.7h-0.5c-4.9,0-8.8-4-8.8-8.9s4-8.9,8.9-8.9c0.2,0,0.3,0,0.4,0
			h0.1l1.3,0.1l0.6-1.2c2.2-4.4,6.6-7.1,11.5-7.1c6.1,0,11.4,4.3,12.6,10.2l0.3,1.5l1.5,0.1c3.7,0.2,6.6,3.3,6.6,7
			c0,3.9-3.1,7-7,7.1h-0.1h-2H138v2h3.8l0,0h0.1c5,0,9.1-4.1,9.1-9.1C151,214.8,147.2,210.9,142.5,210.6z M114.5,207
			c-0.2,0-0.5,0-0.7,0c-2.5,0-4.9,0.9-6.7,2.3c-2-1.3-3.5-3.4-4-5.8c0.6,0.1,1.2,0.2,1.8,0.2c5,0,9-4,9-9c0-0.6-0.1-1.2-0.2-1.8
			c3.7,0.8,6.6,3.8,7.1,7.6C118.2,202,115.9,204.3,114.5,207z"/>
	</g>
	<g>
		<circle cx="118.5" cy="222.2" r="1.5"/>
	</g>
	<g>
		<circle cx="122.5" cy="228.2" r="1.5"/>
	</g>
	<g>
		<circle cx="130.5" cy="228.2" r="1.5"/>
	</g>
	<g>
		<circle cx="126.5" cy="222.2" r="1.5"/>
	</g>
	<g>
		<circle cx="134.5" cy="222.2" r="1.5"/>
	</g>
	<g>
		<circle cx="118.5" cy="234.2" r="1.5"/>
	</g>
	<g>
		<circle cx="126.5" cy="234.2" r="1.5"/>
	</g>
	<g>
		<circle cx="134.5" cy="234.2" r="1.5"/>
	</g>
</g>
<g>
	<path d="M453.6,111.7c-1.6-7.4-8.2-13-16.1-13c-6.4,0-12,3.7-14.7,9c-0.3,0-0.5,0-0.8,0c-6.6,0-12,5.4-12,12s5.3,12,11.9,12l0,0
		h2.1v-2h-1.6H422c-5.5,0-9.9-4.5-9.9-10s4.5-10,10-10c0.2,0,0.3,0,0.5,0h0.1l1.3,0.1l0.6-1.2c2.5-4.9,7.4-7.9,12.9-7.9
		c6.8,0,12.8,4.8,14.2,11.4l0.3,1.5l1.5,0.1c4.2,0.3,7.5,3.8,7.5,8c0,4.4-3.6,8-8,8h-0.1h-2H448v2h4.9l0,0h0.1c5.5,0,10-4.5,10-10
		C463,116.4,458.9,112.1,453.6,111.7z"/>
	<circle cx="428" cy="139.2" r="1.5"/>
	<circle cx="436" cy="145.2" r="1.5"/>
	<circle cx="444" cy="141.2" r="1.5"/>
	<rect x="427" y="122.7" width="2" height="12"/>
	<polygon points="437,140.7 437,138.7 437,126.7 435,126.7 435,138.7 435,140.7 435,140.7 	"/>
	<polygon points="445,136.5 445,134.7 445,122.7 443,122.7 443,134.7 443,136.5 443,136.7 445,136.7 	"/>
</g>
<g>
	<rect x="-294.7" y="183.3" width="2" height="8"/>
	<rect x="-313.7" y="202.3" width="8" height="2"/>
	<rect x="-306.1" y="188" transform="matrix(0.7071 -0.7071 0.7071 0.7071 -225.1258 -159.4934)" width="2" height="8"/>
	<rect x="-286.5" y="191" transform="matrix(0.7071 -0.7071 0.7071 0.7071 -218.4759 -143.547)" width="8" height="2"/>
	<path d="M-264.2,209.1c-1.4-6.7-7.4-11.8-14.6-11.8c-2.2,0-4.3,0.5-6.1,1.3c-1.7-3.2-5-5.4-8.9-5.4c-5.5,0-10,4.5-10,10
		c0,2.5,0.9,4.7,2.4,6.4c-1.4,1.8-2.3,4.1-2.3,6.7c0,6,4.8,10.8,10.8,10.9l0,0h1.2v-2h-0.7h-0.5c-4.9,0-8.8-4-8.8-8.9s4-8.9,8.9-8.9
		c0.1,0,0.3,0,0.4,0h0.1l1.3,0.1l0.6-1.2c2.2-4.4,6.6-7.1,11.5-7.1c6.1,0,11.4,4.3,12.6,10.2l0.3,1.5l1.5,0.1c3.7,0.2,6.6,3.3,6.6,7
		c0,3.9-3.1,7-7,7.1h-0.1h-2h-0.8v2h2.8l0,0h0.1c5,0,9.1-4.1,9.1-9.1C-255.7,213.4-259.5,209.4-264.2,209.1z M-292.2,205.5
		c-0.2,0-0.5,0-0.7,0c-2.8,0-5.3,1-7.2,2.7c-1.1-1.4-1.8-3.1-1.8-5c0-4.4,3.6-8,8-8c3.1,0,5.8,1.8,7.1,4.3
		C-289,201-290.9,203.1-292.2,205.5z"/>
	<circle cx="-287.8" cy="235.7" r="1.5"/>
	<circle cx="-279.8" cy="241.7" r="1.5"/>
	<circle cx="-271.8" cy="237.7" r="1.5"/>
	<rect x="-288.8" y="219.2" width="2" height="12"/>
	<polygon points="-278.8,237.2 -278.8,235.2 -278.8,223.2 -280.8,223.2 -280.8,235.2 -280.8,237.2 -280.8,237.2 	"/>
	<polygon points="-270.8,233 -270.8,231.2 -270.8,219.2 -272.8,219.2 -272.8,231.2 -272.8,233 -272.8,233.2 -270.8,233.2 	"/>
</g>
<g>
	<path d="M-163.6,206.1c-1.4-6.7-7.4-11.8-14.6-11.8c-1.8,0-3.5,0.3-5.1,0.9c-0.9-5.1-5.4-9-10.8-9c-0.4,0-0.8,0-1.2,0.1
		c0.7,1.1,1.2,2.4,1.2,3.9c0,3.9-3.1,7-7,7c-1.4,0-2.8-0.4-3.9-1.2c0,0.4-0.1,0.8-0.1,1.2c0,3.7,1.8,7,4.7,9
		c-1.7,1.9-2.7,4.4-2.7,7.1c0,6,4.8,10.8,10.8,10.9l0,0h1.2v-2h-0.7h-0.5c-4.9,0-8.8-4-8.8-8.9s4-8.9,8.9-8.9c0.1,0,0.3,0,0.4,0h0.1
		l1.3,0.1l0.6-1.2c2.2-4.4,6.6-7.1,11.5-7.1c6.1,0,11.4,4.3,12.6,10.2l0.3,1.5l1.5,0.1c3.7,0.2,6.6,3.3,6.6,7c0,3.9-3.1,7-7,7.1
		h-0.1h-2h-0.8v2h2.8l0,0h0.1c5,0,9.1-4.1,9.1-9.1C-155.1,210.4-158.9,206.4-163.6,206.1z M-191.6,202.5c-0.2,0-0.5,0-0.7,0
		c-2.5,0-4.9,0.9-6.7,2.3c-2-1.3-3.5-3.4-4-5.8c0.6,0.1,1.2,0.2,1.8,0.2c5,0,9-4,9-9c0-0.6-0.1-1.2-0.2-1.8c3.7,0.8,6.6,3.8,7.1,7.6
		C-187.9,197.5-190.2,199.8-191.6,202.5z"/>
	<circle cx="-187.1" cy="232.7" r="1.5"/>
	<circle cx="-179.1" cy="238.7" r="1.5"/>
	<circle cx="-171.1" cy="234.7" r="1.5"/>
	<rect x="-188.1" y="216.2" width="2" height="12"/>
	<polygon points="-178.1,234.2 -178.1,232.2 -178.1,220.2 -180.1,220.2 -180.1,232.2 -180.1,234.2 -180.1,234.2 	"/>
	<polygon points="-170.1,230 -170.1,228.2 -170.1,216.2 -172.1,216.2 -172.1,228.2 -172.1,230 -172.1,230.2 -170.1,230.2 	"/>
</g>
<g>
	<rect x="-311.7" y="310.6" width="56" height="2"/>
	<rect x="-307.7" y="316.6" width="50" height="2"/>
	<rect x="-301.7" y="322.6" width="36" height="2"/>
	<rect x="-309.7" y="304.6" width="52" height="2"/>
	<path d="M-297.9,296.6c0.2,0,0.3,0,0.5,0h0.1l1.3,0.1l0.6-1.2c2.5-4.9,7.4-7.9,12.9-7.9c6.8,0,12.8,4.8,14.2,11.4l0.3,1.5l1.5,0.1
		c1.2,0.1,2.3,0.4,3.3,1h3.3c-1.7-1.7-4-2.8-6.5-3c-1.6-7.4-8.2-13-16.1-13c-6.4,0-12,3.7-14.7,9c-0.3,0-0.5,0-0.8,0
		c-4.8,0-9,2.9-10.9,7h2.3C-304.8,298.6-301.6,296.6-297.9,296.6z"/>
</g>
<g>
	<rect x="-190.6" y="283.1" width="2" height="8"/>
	<rect x="-209.6" y="302" width="8" height="2"/>
	<rect x="-202" y="287.7" transform="matrix(0.7071 -0.7071 0.7071 0.7071 -265.1427 -56.6889)" width="2" height="8"/>
	<rect x="-182.4" y="290.7" transform="matrix(0.7071 -0.7071 0.7071 0.7071 -258.4921 -40.7426)" width="8" height="2"/>
	<rect x="-200.6" y="316.9" width="50" height="2"/>
	<rect x="-196.6" y="322.9" width="44" height="2"/>
	<rect x="-190.6" y="327.9" width="30" height="2"/>
	<rect x="-198.6" y="310.9" width="46" height="2"/>
	<path d="M-197.7,308.9h0.8h1.9h1c1.5-1.1,3.3-1.7,5.2-1.7c0.1,0,0.3,0,0.4,0h0.1l1.3,0.1l0.6-1.2c2.2-4.4,6.6-7.1,11.5-7.1
		c5.9,0,11.2,4.1,12.6,9.9h2v-0.1c-1.4-6.7-7.4-11.8-14.6-11.8c-2.2,0-4.3,0.5-6.1,1.3c-1.7-3.2-5-5.4-8.9-5.4c-5.5,0-10,4.5-10,10
		C-199.7,305.2-199,307.3-197.7,308.9z M-189.7,295c3.1,0,5.8,1.8,7.1,4.3c-2.3,1.4-4.2,3.5-5.4,5.9c-0.2,0-0.5,0-0.7,0
		c-2.8,0-5.3,1-7.2,2.7c-1.1-1.4-1.8-3.1-1.8-5C-197.7,298.6-194.1,295-189.7,295z"/>
</g>
<g>
	<rect x="-101.9" y="313.5" width="50" height="2"/>
	<rect x="-97.9" y="319.5" width="44" height="2"/>
	<rect x="-91.9" y="324.5" width="30" height="2"/>
	<rect x="-99.9" y="307.5" width="46" height="2"/>
	<path d="M-98.3,305.5L-98.3,305.5h1.9h1.1c1.5-1.1,3.3-1.7,5.2-1.7c0.2,0,0.3,0,0.4,0h0.1l1.3,0.1l0.6-1.2
		c2.2-4.4,6.6-7.1,11.5-7.1c5.9,0,11.2,4.1,12.6,9.9h2v-0.1c-1.4-6.7-7.4-11.8-14.6-11.8c-1.8,0-3.5,0.3-5.1,0.9
		c-0.9-5.1-5.4-9-10.8-9c-0.4,0-0.8,0-1.2,0.1c0.7,1.1,1.2,2.4,1.2,3.9c0,3.9-3.1,7-7,7c-1.4,0-2.8-0.4-3.9-1.2
		c0,0.4-0.1,0.8-0.1,1.2C-102.9,300.2-101.1,303.5-98.3,305.5z M-98.9,298.5c5,0,9-4,9-9c0-0.6-0.1-1.2-0.2-1.8
		c3.7,0.8,6.6,3.8,7.1,7.6c-2.7,1.4-4.9,3.7-6.3,6.4c-0.2,0-0.5,0-0.7,0c-2.5,0-4.9,0.9-6.7,2.3c-2-1.3-3.5-3.4-4-5.8
		C-100.1,298.4-99.5,298.5-98.9,298.5z"/>
</g>
<g>
	<path d="M30,316.5H10.5H9.9c-5.5,0-9.9-4.5-9.9-10s4.5-10,10-10c0.2,0,0.3,0,0.5,0h0.1l1.3,0.1l0.6-1.2c2.5-4.9,7.4-7.9,12.9-7.9
		c6.8,0,12.7,4.8,14.2,11.4l0.3,1.5l1.5,0.1c1.8,0.1,3.5,0.8,4.7,2H49c-1.7-2.3-4.3-3.8-7.4-4c-1.6-7.4-8.2-13-16.1-13
		c-6.4,0-12,3.7-14.7,9c-0.3,0-0.5,0-0.8,0c-6.6,0-12,5.4-12,12s5.3,12,11.9,12l0,0H30c2.2,0,4,1.8,4,4s-1.8,4-4,4v2
		c3.3,0,6-2.7,6-6S33.3,316.5,30,316.5z"/>
	<path d="M34,312.5H18v2h16c3.3,0,6-2.7,6-6s-2.7-6-6-6v2c2.2,0,4,1.8,4,4S36.2,312.5,34,312.5z"/>
	<path d="M47,306.5c1.7,0,3,1.3,3,3s-1.3,3-3,3h-0.1H42l0,0l0,0v2h5.5v-0.1c2.5-0.3,4.5-2.4,4.5-4.9c0-2.8-2.2-5-5-5V306.5L47,306.5
		z"/>
	<path d="M51,316.5H38v2h9l0,0h3.9H51c1.7,0,3,1.3,3,3s-1.3,3-3,3v2c2.8,0,5-2.2,5-5S53.8,316.5,51,316.5z"/>
	<rect x="12" y="312.5" width="4" height="2"/>
</g>
<path d="M-177.6-82.6c6.9,1.3,12.2,7.4,12.2,14.7c0,8.3-6.7,15-15,15c-6.8,0-12.5-4.5-14.4-10.7c1.4,0.5,2.9,0.7,4.4,0.7
	c7.7,0,14-6.3,14-14C-176.3-78.9-176.8-80.8-177.6-82.6 M-180.3-84.8c-0.3,0-0.7,0-1,0.1c1.9,2.1,3,4.9,3,7.9c0,6.6-5.4,12-12,12
	c-2.6,0-5-0.8-7-2.2c0.4,9,7.8,16.3,17,16.3c9.4,0,17-7.6,17-17S-171-84.8-180.3-84.8L-180.3-84.8z"/>
<g>
	<path d="M-283.7-79.9c-7.2,0-13,5.8-13,13s5.8,13,13,13s13-5.8,13-13C-270.7-74-276.6-79.9-283.7-79.9z M-283.7-55.9
		c-6.1,0-11-4.9-11-11s4.9-11,11-11s11,4.9,11,11S-277.7-55.9-283.7-55.9z"/>
	<rect x="-284.7" y="-92.8" width="2" height="10"/>
	<rect x="-284.7" y="-50.8" width="2" height="10"/>
	<rect x="-309.7" y="-67.8" width="10" height="2"/>
	<rect x="-267.7" y="-67.8" width="10" height="2"/>
	<rect x="-274.3" y="-82.6" transform="matrix(0.7071 -0.7071 0.7071 0.7071 -21.1561 -214.1778)" width="10.4" height="2"/>
	<rect x="-303.7" y="-53.2" transform="matrix(0.7071 -0.7071 0.7071 0.7071 -50.5527 -226.3627)" width="10.4" height="2"/>
	<rect x="-299.5" y="-86.8" transform="matrix(0.7071 -0.7071 0.7071 0.7071 -29.7673 -234.9708)" width="2" height="10.4"/>
	<rect x="-270" y="-57.3" transform="matrix(0.7071 -0.7072 0.7072 0.7071 -41.9424 -205.4961)" width="2" height="10.4"/>
</g>
<g>
	<rect x="114.4" y="278" width="2" height="8"/>
	<rect x="95.5" y="297" width="8" height="2"/>
	<rect x="103.2" y="282.8" transform="matrix(0.7071 -0.7071 0.7071 0.7071 -172.2549 157.6751)" width="2" height="8"/>
	<rect x="122.7" y="285.8" transform="matrix(0.7071 -0.7071 0.7071 0.7071 -165.6757 173.5922)" width="8" height="2"/>
	<path d="M129.5,320L129.5,320H117h-0.6c-4.9,0-8.8-4-8.8-8.9s4-8.9,8.9-8.9c0.2,0,0.3,0,0.4,0h0.1l1.3,0.1l0.6-1.2
		c2.2-4.4,6.6-7.1,11.5-7.1c5.9,0,11.1,4.1,12.5,9.8h2.1c-1.4-6.7-7.4-11.8-14.6-11.8c-2.2,0-4.3,0.5-6.1,1.3
		c-1.7-3.2-5-5.4-8.9-5.4c-5.5,0-10,4.5-10,10c0,2.5,0.9,4.7,2.4,6.4c-1.4,1.8-2.3,4.1-2.3,6.7c0,6,4.8,10.8,10.8,10.9l0,0h13.1l0,0
		c2.2,0,4,1.8,4,4s-1.8,4-4,4v2c3.3,0,6-2.7,6-6C135.5,322.7,132.8,320,129.5,320z M115.4,290c3.1,0,5.8,1.8,7.1,4.3
		c-2.3,1.4-4.2,3.5-5.4,5.9c-0.2,0-0.5,0-0.7,0c-2.8,0-5.3,1-7.2,2.7c-1.1-1.4-1.8-3.1-1.8-5C107.4,293.6,111,290,115.4,290z"/>
	<path d="M133.5,316h-10v2h10c3.3,0,6-2.7,6-6s-2.7-6-6-6v2c2.2,0,4,1.8,4,4S135.7,316,133.5,316z"/>
	<path d="M141.5,316L141.5,316v2h5.5l0,0c2.5-0.3,4.5-2.4,4.5-4.9c0-2.8-2.2-5-5-5v2c1.7,0,3,1.3,3,3s-1.3,3-3,3h-0.1L141.5,316
		L141.5,316z"/>
	<path d="M150.5,320h-13v2h9l0,0h3.9h0.1c1.7,0,3,1.3,3,3s-1.3,3-3,3v2c2.8,0,5-2.2,5-5S153.2,320,150.5,320z"/>
	<rect x="117.5" y="316" width="4" height="2"/>
</g>
<g>
	<path d="M229.4,318L229.4,318h-12.5h-0.6c-4.9,0-8.8-4-8.8-8.9s4-8.9,8.9-8.9c0.1,0,0.3,0,0.4,0h0.1l1.3,0.1l0.6-1.2
		c2.2-4.4,6.6-7.1,11.5-7.1c5.9,0,11.1,4.1,12.5,9.8h2.1c-1.4-6.7-7.4-11.8-14.6-11.8c-1.8,0-3.5,0.3-5.1,0.9c-0.9-5.1-5.4-9-10.8-9
		c-0.4,0-0.8,0-1.2,0.1c0.7,1.1,1.2,2.4,1.2,3.9c0,3.9-3.1,7-7,7c-1.4,0-2.8-0.4-3.9-1.2c0,0.4-0.1,0.8-0.1,1.2c0,3.7,1.9,7,4.7,9
		c-1.7,1.9-2.7,4.4-2.7,7.1c0,6,4.8,10.8,10.8,10.9l0,0h13.1l0,0c2.2,0,4,1.8,4,4s-1.8,4-4,4v2c3.3,0,6-2.7,6-6
		C235.4,320.7,232.7,318,229.4,318z M205.6,294.8c0.6,0.1,1.2,0.2,1.8,0.2c5,0,9-4,9-9c0-0.6-0.1-1.2-0.2-1.8
		c3.7,0.8,6.6,3.8,7.1,7.7c-2.7,1.4-4.9,3.7-6.3,6.4c-0.2,0-0.5,0-0.7,0c-2.5,0-4.9,0.9-6.7,2.3
		C207.6,299.3,206.1,297.2,205.6,294.8z"/>
	<path d="M233.4,314h-10v2h10c3.3,0,6-2.7,6-6s-2.7-6-6-6v2c2.2,0,4,1.8,4,4S235.6,314,233.4,314z"/>
	<path d="M241.4,314L241.4,314v2h5.5l0,0c2.5-0.3,4.5-2.4,4.5-4.9c0-2.8-2.2-5-5-5v2c1.7,0,3,1.3,3,3s-1.3,3-3,3h-0.1L241.4,314
		L241.4,314z"/>
	<path d="M250.4,318h-13v2h9l0,0h3.9h0.1c1.7,0,3,1.3,3,3s-1.3,3-3,3v2c2.8,0,5-2.2,5-5S253.2,318,250.4,318z"/>
	<rect x="217.4" y="314" width="4" height="2"/>
</g>
<g>
	<rect x="330.3" y="280.6" width="2" height="10"/>
	<rect x="305.3" y="305.6" width="10" height="2"/>
	<rect x="340.8" y="290.9" transform="matrix(0.7071 -0.7071 0.7071 0.7071 -105.0508 330.1697)" width="10.4" height="2"/>
	<rect x="315.6" y="286.7" transform="matrix(0.7071 -0.7071 0.7071 0.7071 -113.6625 309.3767)" width="2" height="10.4"/>
	<path d="M335.3,320.6h-24v2h24c2.2,0,4,1.8,4,4s-1.8,4-4,4v2c3.3,0,6-2.7,6-6C341.3,323.3,338.6,320.6,335.3,320.6z"/>
	<path d="M347.3,316.6L347.3,316.6v2h5.5v-0.1c2.5-0.3,4.5-2.4,4.5-4.9c0-2.8-2.2-5-5-5v2c1.7,0,3,1.3,3,3s-1.3,3-3,3h-0.1H347.3
		L347.3,316.6z"/>
	<path d="M356.3,320.6h-13v2h9l0,0h3.9h0.1c1.7,0,3,1.3,3,3s-1.3,3-3,3v2c2.8,0,5-2.2,5-5S359.1,320.6,356.3,320.6z"/>
	<path d="M323,316.6h-11.7v2h12h0.8h15.2c3.3,0,6-2.7,6-6s-2.7-6-6-6v2c2.2,0,4,1.8,4,4s-1.8,4-4,4h-12.5c-3.8-1.7-6.5-5.6-6.5-10
		c0-6.1,4.9-11,11-11c5.4,0,9.9,3.9,10.8,9h2c-1-6.2-6.3-11-12.8-11c-7.2,0-13,5.8-13,13C318.3,310.6,320.1,314.2,323,316.6z"/>
</g>
<g>
	<path d="M435.5,314h-24v2h24c2.2,0,4,1.8,4,4s-1.8,4-4,4v2c3.3,0,6-2.7,6-6S438.8,314,435.5,314z"/>
	<path d="M453,312L453,312c2.5-0.3,4.5-2.4,4.5-5c0-2.8-2.2-5-5-5v2c1.7,0,3,1.3,3,3s-1.3,3-3,3h-0.1h-4.9l0,0l0,0v2H453z"/>
	<path d="M456.5,314h-13v2h9l0,0h3.9h0.1c1.7,0,3,1.3,3,3s-1.3,3-3,3v2c2.8,0,5-2.2,5-5S459.3,314,456.5,314z"/>
	<path d="M424.4,312h15.2c3.3,0,6-2.7,6-6s-2.7-6-6-6v2c2.2,0,4,1.8,4,4s-1.8,4-4,4H427c-2.6-1.2-4.7-3.3-5.7-6
		c0.8,0.2,1.7,0.3,2.6,0.3c6.2,0,11.2-5,11.2-11.2c0-1.3-0.2-2.5-0.6-3.7c4,1.1,7.2,4.5,7.9,8.6h2c-1-6.2-6.3-11-12.8-11
		c-0.3,0-0.5,0-0.8,0c1.4,1.6,2.3,3.7,2.3,6.1c0,5.1-4.1,9.2-9.2,9.2c-2,0-3.8-0.6-5.3-1.7c0.2,3.8,2,7.2,4.7,9.4h-11.7v2h12
		L424.4,312L424.4,312z"/>
</g>
<g>
	<path d="M-284.2,399.2h-20c-1.1,0-2-0.9-2-2s0.9-2,2-2h3.4h0.6v-2h-4c-2.2,0-4,1.8-4,4s1.8,4,4,4h20c2.2,0,4,1.8,4,4s-1.8,4-4,4v2
		c3.3,0,6-2.7,6-6S-280.9,399.2-284.2,399.2z"/>
	<path d="M-282.2,383.2v2c2.2,0,4,1.8,4,4s-1.8,4-4,4h-16v2h16c3.3,0,6-2.7,6-6C-276.2,385.9-278.9,383.2-282.2,383.2z"/>
	<path d="M-276.2,395.2v2h5.5v-0.1c2.5-0.3,4.5-2.4,4.5-4.9c0-2.8-2.2-5-5-5v2c1.7,0,3,1.3,3,3s-1.3,3-3,3h-0.1H-276.2L-276.2,395.2
		L-276.2,395.2z"/>
	<path d="M-265.2,399.2h-11v2h7l0,0h3.9h0.1c1.7,0,3,1.3,3,3s-1.3,3-3,3v2c2.8,0,5-2.2,5-5S-262.5,399.2-265.2,399.2z"/>
</g>
<path d="M252,385.6L252,385.6h-38.4c-1.1,0-2-0.9-2-2s0.9-2,2-2h33c2.8,0,5-2.2,5-5s-2.2-5-5-5h-37.9l0,0h-0.1c-2.8,0-5,2.2-5,5
	s2.2,5,5,5v-2c-1.7,0-3-1.3-3-3s1.3-3,3-3h0.1h3.9h34c1.7,0,3,1.3,3,3s-1.3,3-3,3h-33c-2.2,0-4,1.8-4,4s1.8,4,4,4h38
	c1.1,0,2,0.9,2,2s-0.9,2-2,2h-32c-2.2,0-4,1.8-4,4s1.8,4,4,4h22c1.1,0,2,0.9,2,2s-0.9,2-2,2h-24l0,0c-2.2,0-4,1.8-4,4s1.8,4,4,4l0,0
	h12c1.1,0,2,0.9,2,2s-0.9,2-2,2h-2c-2.2,0-4,1.8-4,4s1.8,4,4,4v-2c-1.1,0-2-0.9-2-2s0.9-2,2-2h2c2.2,0,4-1.8,4-4s-1.8-4-4-4h-12
	c-1.1,0-2-0.9-2-2s0.9-2,2-2h24c2.2,0,4-1.8,4-4s-1.7-3.9-3.8-4l0,0h-22.2c-1.1,0-2-0.9-2-2s0.9-2,2-2h32c2.2,0,4-1.8,4-4
	C255.7,387.4,254.1,385.8,252,385.6z"/>
<path d="M437.5,376.2v-2h-2v2c-13,0.5-23.5,11-24,24h1.7c1.1-1.2,2.7-2,4.6-2c2.3,0,4.2,1.2,5.3,3h1.8c1.1-1.8,3.1-3,5.3-3
	c2.2,0,4.1,1.1,5.2,2.9v15.1c0,2.2,1.8,4,4,4s4-1.8,4-4h-2c0,1.1-0.9,2-2,2s-2-0.9-2-2v-15.1c1.1-1.7,3-2.9,5.2-2.9
	c2.3,0,4.2,1.2,5.3,3h1.8c1.1-1.8,3.1-3,5.3-3c1.8,0,3.4,0.8,4.6,2h1.7C460.9,387.2,450.5,376.7,437.5,376.2z M455.2,396.2
	c-2.5,0-4.7,1.1-6.2,2.9c-1.5-1.8-3.8-2.9-6.2-2.9s-4.7,1.1-6.2,2.9c-1.5-1.8-3.8-2.9-6.2-2.9s-4.7,1.1-6.2,2.9
	c-1.5-1.8-3.8-2.9-6.2-2.9c-1.4,0-2.7,0.4-3.9,1c1.9-10.8,11.3-19,22.6-19s20.7,8.2,22.6,19C457.9,396.6,456.6,396.2,455.2,396.2z"
	/>
<g>
	<path d="M32.2,500.5v-17.1c0-2.8-2.2-5-5-5s-5,2.2-5,5v17.1c-1.2,1.3-2,3-2,4.9c0,3.9,3.1,7,7,7s7-3.1,7-7
		C34.2,503.5,33.4,501.8,32.2,500.5z M27.2,510.4c-2.8,0-5-2.2-5-5c0-1.3,0.5-2.6,1.4-3.5l0.6-0.6v-0.8v-17.1c0-1.7,1.3-3,3-3
		s3,1.3,3,3v17.1v0.8l0.6,0.6c0.9,0.9,1.4,2.2,1.4,3.5C32.2,508.2,29.9,510.4,27.2,510.4z"/>
	<path d="M28.2,502.6v-15.2h-2v15.2c-1.2,0.4-2,1.5-2,2.8c0,1.7,1.3,3,3,3s3-1.3,3-3C30.2,504.1,29.3,503,28.2,502.6z M27.2,506.4
		c-0.6,0-1-0.5-1-1s0.5-1,1-1s1,0.5,1,1S27.7,506.4,27.2,506.4z"/>
</g>
<g>
	<path d="M132,500.5v-17.1c0-2.8-2.2-5-5-5s-5,2.2-5,5v17.1c-1.2,1.3-2,3-2,4.9c0,3.9,3.1,7,7,7c3.9,0,7-3.1,7-7
		C134,503.5,133.2,501.8,132,500.5z M127,510.4c-2.8,0-5-2.2-5-5c0-1.3,0.5-2.6,1.4-3.5l0.6-0.6v-0.8v-17.1c0-1.7,1.3-3,3-3
		s3,1.3,3,3v17.1v0.8l0.6,0.6c0.9,0.9,1.4,2.2,1.4,3.5C132,508.2,129.7,510.4,127,510.4z"/>
	<path d="M128,502.6v-20.2h-2v20.2c-1.2,0.4-2,1.5-2,2.8c0,1.7,1.3,3,3,3s3-1.3,3-3C130,504.1,129.1,503,128,502.6z M127,506.4
		c-0.6,0-1-0.5-1-1s0.5-1,1-1s1,0.5,1,1S127.5,506.4,127,506.4z"/>
</g>
<g>
	<path d="M-70.9,500.5v-17.1c0-2.8-2.2-5-5-5s-5,2.2-5,5v17.1c-1.2,1.3-2,3-2,4.9c0,3.9,3.1,7,7,7s7-3.1,7-7
		C-68.9,503.5-69.7,501.8-70.9,500.5z M-75.9,510.4c-2.8,0-5-2.2-5-5c0-1.3,0.5-2.6,1.4-3.5l0.6-0.6v-0.8v-17.1c0-1.7,1.3-3,3-3
		s3,1.3,3,3v17.1v0.8l0.6,0.6c0.9,0.9,1.4,2.2,1.4,3.5C-70.9,508.2-73.2,510.4-75.9,510.4z"/>
	<path d="M-74.9,502.6v-10.2h-2v10.2c-1.2,0.4-2,1.5-2,2.8c0,1.7,1.3,3,3,3s3-1.3,3-3C-72.9,504.1-73.8,503-74.9,502.6z
		 M-75.9,506.4c-0.6,0-1-0.5-1-1s0.5-1,1-1s1,0.5,1,1S-75.4,506.4-75.9,506.4z"/>
</g>
<g>
	<path d="M-174.6,500.5v-17.1c0-2.8-2.2-5-5-5s-5,2.2-5,5v17.1c-1.2,1.3-2,3-2,4.9c0,3.9,3.1,7,7,7s7-3.1,7-7
		C-172.6,503.5-173.4,501.8-174.6,500.5z M-179.6,510.4c-2.8,0-5-2.2-5-5c0-1.3,0.5-2.6,1.4-3.5l0.6-0.6v-0.8v-17.1c0-1.7,1.3-3,3-3
		s3,1.3,3,3v17.1v0.8l0.6,0.6c0.9,0.9,1.4,2.2,1.4,3.5C-174.6,508.2-176.8,510.4-179.6,510.4z"/>
	<path d="M-178.6,502.6v-5.2h-2v5.2c-1.2,0.4-2,1.5-2,2.8c0,1.7,1.3,3,3,3s3-1.3,3-3C-176.6,504.1-177.4,503-178.6,502.6z
		 M-179.6,506.4c-0.6,0-1-0.5-1-1s0.5-1,1-1s1,0.5,1,1S-179,506.4-179.6,506.4z"/>
</g>
<g>
	<path d="M-279.2,500.5v-17.1c0-2.8-2.2-5-5-5s-5,2.2-5,5v17.1c-1.2,1.3-2,3-2,4.9c0,3.9,3.1,7,7,7s7-3.1,7-7
		C-277.2,503.5-278,501.8-279.2,500.5z M-284.2,510.4c-2.8,0-5-2.2-5-5c0-1.3,0.5-2.6,1.4-3.5l0.6-0.6v-0.8v-17.1c0-1.7,1.3-3,3-3
		s3,1.3,3,3v17.1v0.8l0.6,0.6c0.9,0.9,1.4,2.2,1.4,3.5C-279.2,508.2-281.5,510.4-284.2,510.4z"/>
	<path d="M-284.2,502.4c-1.7,0-3,1.3-3,3s1.3,3,3,3s3-1.3,3-3C-281.2,503.8-282.6,502.4-284.2,502.4z M-284.2,506.4
		c-0.6,0-1-0.5-1-1s0.5-1,1-1s1,0.5,1,1S-283.7,506.4-284.2,506.4z"/>
</g>
<g>
	<path d="M220.7,480.7c-2.2,0-4,1.8-4,4s1.8,4,4,4s4-1.8,4-4S222.9,480.7,220.7,480.7z M220.7,486.7c-1.1,0-2-0.9-2-2s0.9-2,2-2
		s2,0.9,2,2S221.8,486.7,220.7,486.7z"/>
	<path d="M234.7,508.7c-4.4,0-8-3.6-8-8v-4c0-4.4,3.6-8,8-8c2.7,0,5.1,1.4,6.6,3.4l1.4-1.4c-1.8-2.4-4.7-4-8-4c-5.5,0-10,4.5-10,10
		v4c0,5.5,4.5,10,10,10c3.3,0,6.2-1.6,8-4l-1.4-1.4C239.8,507.4,237.4,508.7,234.7,508.7z"/>
</g>
<g>
	<path d="M325.4,480.6c-2.2,0-4,1.8-4,4s1.8,4,4,4s4-1.8,4-4S327.6,480.6,325.4,480.6z M325.4,486.6c-1.1,0-2-0.9-2-2s0.9-2,2-2
		s2,0.9,2,2S326.5,486.6,325.4,486.6z"/>
	<polygon points="345.2,488.7 345.2,486.7 333.2,486.7 331.2,486.7 331.2,510.7 333.2,510.7 333.2,498.7 341.2,498.7 341.2,496.7 
		333.2,496.7 333.2,488.7 	"/>
</g>
<g>
	<path d="M436.5,484.4c-7.2,0-13,5.8-13,13s5.8,13,13,13s13-5.8,13-13S443.6,484.4,436.5,484.4z M436.5,508.4c-6.1,0-11-4.9-11-11
		s4.9-11,11-11s11,4.9,11,11S442.5,508.4,436.5,508.4z"/>
	<path d="M432.2,501.7l6.4-2.1l2.1-6.4l-6.4,2.1L432.2,501.7z M435.9,496.9l1.6-0.5L437,498l-1.6,0.5L435.9,496.9z"/>
</g>
<g>
	<path d="M-284.2,574.9c-7.2,0-13,5.8-13,13s5.8,13,13,13s13-5.8,13-13S-277.1,574.9-284.2,574.9z M-284.2,598.9
		c-6.1,0-11-4.9-11-11s4.9-11,11-11s11,4.9,11,11S-278.2,598.9-284.2,598.9z"/>
	<path d="M-281.7,586.4l-2.6-4.4l-2.5,4.3l0,0c-0.3,0.5-0.5,1-0.5,1.6c0,1.7,1.3,3,3,3s3-1.3,3-3
		C-281.3,587.3-281.4,586.8-281.7,586.4L-281.7,586.4z M-284.3,588.9c-0.6,0-1-0.4-1-1c0-0.2,0.1-0.4,0.2-0.5l0.9-1.4l0.8,1.4
		c0.1,0.2,0.1,0.3,0.1,0.5C-283.3,588.4-283.7,588.9-284.3,588.9z"/>
</g>
<g>
	<path d="M-179.5,574.9c-7.2,0-13,5.8-13,13s5.8,13,13,13s13-5.8,13-13S-172.3,574.9-179.5,574.9z M-179.5,598.9
		c-6.1,0-11-4.9-11-11s4.9-11,11-11s11,4.9,11,11S-173.4,598.9-179.5,598.9z"/>
	<path d="M-177.9,585.4c-0.5-0.3-1-0.5-1.6-0.5c-1.7,0-3,1.3-3,3s1.3,3,3,3c0.6,0,1.1-0.2,1.5-0.4l0,0l4.4-2.6L-177.9,585.4
		L-177.9,585.4L-177.9,585.4z M-179,588.7c-0.2,0.1-0.3,0.1-0.5,0.1c-0.6,0-1-0.4-1-1s0.4-1,1-1c0.2,0,0.4,0.1,0.5,0.2l1.4,0.9
		L-179,588.7z"/>
</g>
<g>
	<path d="M-76.4,574.9c-7.2,0-13,5.8-13,13s5.8,13,13,13s13-5.8,13-13S-69.2,574.9-76.4,574.9z M-76.4,598.9c-6.1,0-11-4.9-11-11
		s4.9-11,11-11s11,4.9,11,11S-70.3,598.9-76.4,598.9z"/>
	<path d="M-76.4,584.9c-1.7,0-3,1.3-3,3c0,0.6,0.2,1.1,0.4,1.5l0,0l2.6,4.4l2.5-4.3l0,0c0.3-0.5,0.5-1,0.5-1.6
		C-73.4,586.2-74.8,584.9-76.4,584.9z M-75.6,588.4l-0.9,1.4l-0.8-1.4c-0.1-0.2-0.1-0.3-0.1-0.5c0-0.6,0.4-1,1-1s1,0.4,1,1
		C-75.4,588.1-75.5,588.3-75.6,588.4z"/>
</g>
<g>
	<path d="M27,574.9c-7.2,0-13,5.8-13,13s5.8,13,13,13s13-5.8,13-13S34.2,574.9,27,574.9z M27,598.9c-6.1,0-11-4.9-11-11
		s4.9-11,11-11s11,4.9,11,11S33.1,598.9,27,598.9z"/>
	<path d="M27,584.9c-0.6,0-1.1,0.2-1.5,0.4l0,0l-4.4,2.6l4.3,2.5l0,0c0.5,0.3,1,0.5,1.6,0.5c1.7,0,3-1.3,3-3
		C30,586.2,28.6,584.9,27,584.9z M27,588.9c-0.2,0-0.4-0.1-0.5-0.2l-1.4-0.9l1.4-0.8c0.2-0.1,0.3-0.1,0.5-0.1c0.6,0,1,0.4,1,1
		C28,588.4,27.5,588.9,27,588.9z"/>
</g>
<g>
	<rect x="-181.2" y="378.2" width="2" height="10"/>
	<rect x="-170.7" y="388.5" transform="matrix(0.7071 -0.7071 0.7071 0.7071 -323.9115 -2.9253)" width="10.4" height="2"/>
	<rect x="-195.9" y="384.3" transform="matrix(0.7071 -0.7071 0.7071 0.7071 -332.5226 -23.7177)" width="2" height="10.4"/>
	<polygon points="-186.8,407.5 -185.4,408.9 -181.2,404.6 -181.2,414.2 -179.2,414.2 -179.2,404.6 -174.9,408.9 -173.5,407.5 
		-180.2,400.8 	"/>
	<path d="M-167.1,404.2L-167.1,404.2c0-7.2-5.8-13-13-13s-13,5.8-13,13l0,0h-13v2h18v-2h-3l0,0c0-6.1,4.9-11,11-11s11,4.9,11,11l0,0
		h-3v2h18v-2H-167.1z"/>
</g>
<g>
	<rect x="-77.4" y="377" width="2" height="10"/>
	<rect x="-66.9" y="387.3" transform="matrix(0.7071 -0.7071 0.7071 0.7071 -292.6438 70.093)" width="10.4" height="2"/>
	<rect x="-92.1" y="383.1" transform="matrix(0.7071 -0.7071 0.7071 0.7071 -301.2548 49.3)" width="2" height="10.4"/>
	<polygon points="-75.4,411.6 -75.4,401 -77.4,401 -77.4,411.6 -81.7,407.3 -83.1,408.7 -76.4,415.4 -69.7,408.7 -71.2,407.3 	"/>
	<path d="M-63.4,403L-63.4,403c0-7.2-5.8-13-13-13s-13,5.8-13,13l0,0h-13v2h22v-2h-7l0,0c0-6.1,4.9-11,11-11s11,4.9,11,11l0,0h-7v2
		h22v-2H-63.4z"/>
</g>
<g>
	<polygon points="127,411 127,396.7 125,396.7 125,411 120.7,406.8 119.3,408.2 126,414.9 132.6,408.2 131.2,406.8 	"/>
	<path d="M142.6,391.7c-1.6-7.4-8.2-13-16.1-13c-6.4,0-12,3.7-14.7,9c-0.3,0-0.5,0-0.8,0c-6.6,0-12,5.4-12,12s5.3,12,11.9,12l0,0
		h6.1v-2h-5.6H111c-5.5,0-9.9-4.5-9.9-10s4.5-10,10-10c0.2,0,0.3,0,0.5,0h0.1l1.3,0.1l0.6-1.2c2.5-4.9,7.4-7.9,12.9-7.9
		c6.8,0,12.8,4.8,14.2,11.4l0.3,1.5l1.5,0.1c4.2,0.3,7.5,3.8,7.5,8c0,4.4-3.6,8-8,8c-0.1,0-0.1,0-0.1,0h-2H135v2h6.9l0,0h0.1
		c5.5,0,10-4.5,10-10C152,396.3,147.8,392,142.6,391.7z"/>
</g>
<g>
	<polygon points="32.9,407.8 34.3,406.4 27.7,399.8 21,406.4 22.4,407.8 26.7,403.6 26.7,416.2 28.7,416.2 28.7,403.6 	"/>
	<path d="M44.3,393.3c-1.6-7.4-8.2-13-16.1-13c-6.4,0-12,3.7-14.7,9c-0.3,0-0.5,0-0.8,0c-6.6,0-12,5.4-12,12s5.3,12,11.9,12l0,0
		h10.1v-2h-9.6h-0.4c-5.5,0-9.9-4.5-9.9-10s4.5-10,10-10c0.2,0,0.3,0,0.5,0h0.1l1.3,0.1l0.6-1.2c2.5-4.9,7.4-7.9,12.9-7.9
		c6.8,0,12.8,4.8,14.2,11.4l0.3,1.5l1.5,0.1c4.2,0.3,7.5,3.8,7.5,8c0,4.4-3.6,8-8,8h-0.1h-2h-8.9v2h10.9l0,0h0.1c5.5,0,10-4.5,10-10
		C53.7,397.9,49.5,393.6,44.3,393.3z"/>
</g>
<g>
	<path d="M246.8,203.8c-1.6-7.4-8.2-13-16.1-13c-6.4,0-12,3.7-14.7,9c-0.3,0-0.5,0-0.8,0c-6.6,0-12,5.4-12,12s5.3,12,11.9,12l0,0
		h2.1v-2h-1.6h-0.4c-5.5,0-9.9-4.5-9.9-10s4.5-10,10-10c0.2,0,0.3,0,0.5,0h0.1l1.3,0.1l0.6-1.2c2.5-4.9,7.4-7.9,12.9-7.9
		c6.8,0,12.8,4.8,14.2,11.4l0.3,1.5l1.5,0.1c4.2,0.3,7.5,3.8,7.5,8c0,4.4-3.6,8-8,8c-0.1,0-0.1,0-0.1,0h-2h-0.9v2h2.9l0,0h0.1
		c5.5,0,10-4.5,10-10C256.2,208.4,252,204.1,246.8,203.8z"/>
	<polygon points="225.2,222.8 225.2,220.1 227.3,221.3 228,220.1 225.6,218.7 228,217.3 227.3,216.1 225.2,217.3 225.2,214.8 
		223.2,214.8 223.2,217.4 220.9,216.1 220.2,217.3 222.7,218.7 220.2,220.1 220.9,221.3 223.2,220.1 223.2,222.8 	"/>
	<polygon points="230.3,227.1 228.2,228.3 228.2,225.7 226.2,225.7 226.2,228.4 223.9,227.1 223.2,228.3 225.7,229.7 223.2,231.1 
		223.9,232.3 226.2,231.1 226.2,233.7 228.2,233.7 228.2,231.1 230.3,232.3 231,231.1 228.6,229.7 231,228.3 	"/>
	<polygon points="239.4,220.1 237.2,221.3 237.2,218.8 235.2,218.8 235.2,221.4 232.9,220.1 232.2,221.3 234.7,222.7 232.2,224.1 
		232.9,225.3 235.2,224.1 235.2,226.8 237.2,226.8 237.2,224.1 239.4,225.3 240,224.1 237.6,222.7 240,221.3 	"/>
</g>
<g>
	<rect x="322.3" y="185.7" width="2" height="8"/>
	<rect x="303.3" y="204.6" width="8" height="2"/>
	<rect x="311" y="190.4" transform="matrix(0.7071 -0.7071 0.7071 0.7071 -46.0503 277.5599)" width="2" height="8"/>
	<rect x="330.5" y="193.4" transform="matrix(0.7071 -0.7071 0.7071 0.7071 -39.4705 293.4764)" width="8" height="2"/>
	<path d="M352.8,211.5c-1.4-6.7-7.4-11.8-14.6-11.8c-2.2,0-4.3,0.5-6.1,1.3c-1.7-3.2-5-5.4-8.9-5.4c-5.5,0-10,4.5-10,10
		c0,2.5,0.9,4.7,2.4,6.4c-1.4,1.8-2.3,4.1-2.3,6.7c0,6,4.8,10.8,10.8,10.9l0,0h1.2v-2h-0.7h-0.5c-4.9,0-8.8-4-8.8-8.9s4-8.9,8.9-8.9
		c0.1,0,0.3,0,0.4,0h0.1l1.3,0.1l0.6-1.2c2.2-4.4,6.6-7.1,11.5-7.1c6.1,0,11.4,4.3,12.6,10.2l0.3,1.5l1.5,0.1c3.7,0.2,6.6,3.3,6.6,7
		c0,3.9-3.1,7-7,7.1H352h-1.9v2h1.8l0,0h0.1c5,0,9.1-4.1,9.1-9.1C361.3,215.7,357.6,211.8,352.8,211.5z M324.9,207.9
		c-0.2,0-0.5,0-0.7,0c-2.8,0-5.3,1-7.2,2.7c-1.1-1.4-1.8-3.1-1.8-5c0-4.4,3.6-8,8-8c3.1,0,5.8,1.8,7.1,4.3
		C328,203.4,326.1,205.5,324.9,207.9z"/>
	<polygon points="332.3,228.6 332.3,226 334.5,227.2 335.2,226 332.7,224.6 335.2,223.2 334.5,222 332.3,223.2 332.3,220.6 
		330.3,220.6 330.3,223.2 328.1,222 327.4,223.2 329.8,224.6 327.4,226 328.1,227.2 330.3,225.9 330.3,228.6 	"/>
	<polygon points="337.5,233 335.3,234.2 335.3,231.6 333.3,231.6 333.3,234.2 331,233 330.4,234.2 332.8,235.6 330.4,237 331,238.2 
		333.3,236.9 333.3,239.6 335.3,239.6 335.3,237 337.5,238.2 338.2,237 335.7,235.6 338.2,234.2 	"/>
	<polygon points="346.5,226 344.3,227.2 344.3,224.6 342.3,224.6 342.3,227.2 340.1,226 339.4,227.2 341.8,228.6 339.4,230 
		340.1,231.2 342.3,229.9 342.3,232.6 344.3,232.6 344.3,230 346.5,231.2 347.2,230 344.7,228.6 347.2,227.2 	"/>
</g>
<g>
	<path d="M453,208.5c-1.4-6.7-7.4-11.8-14.6-11.8c-1.8,0-3.5,0.3-5.1,0.9c-0.9-5.1-5.4-9-10.8-9c-0.4,0-0.8,0-1.2,0.1
		c0.7,1.1,1.2,2.4,1.2,3.9c0,3.9-3.1,7-7,7c-1.4,0-2.8-0.4-3.9-1.2c0,0.4-0.1,0.8-0.1,1.2c0,3.7,1.8,7,4.7,9
		c-1.7,1.9-2.7,4.4-2.7,7.1c0,6,4.8,10.8,10.8,10.9l0,0h1.2v-2h-0.7h-0.5c-4.9,0-8.8-4-8.8-8.9s4-8.9,8.9-8.9c0.1,0,0.3,0,0.4,0h0.1
		l1.3,0.1l0.6-1.2c2.2-4.4,6.6-7.1,11.5-7.1c6.1,0,11.4,4.3,12.6,10.2l0.3,1.5l1.5,0.1c3.7,0.2,6.6,3.3,6.6,7c0,3.9-3.1,7-7,7.1
		h-0.1h-1.9v2h1.8l0,0h0.1c5,0,9.1-4.1,9.1-9.1C461.5,212.7,457.7,208.8,453,208.5z M425.1,204.9c-0.2,0-0.5,0-0.7,0
		c-2.5,0-4.9,0.9-6.7,2.3c-2-1.3-3.5-3.4-4-5.8c0.6,0.1,1.2,0.2,1.8,0.2c5,0,9-4,9-9c0-0.6-0.1-1.2-0.2-1.8c3.7,0.8,6.6,3.8,7.1,7.6
		C428.7,199.9,426.5,202.1,425.1,204.9z"/>
	<polygon points="432.5,225.6 432.5,223 434.7,224.2 435.4,223 432.9,221.6 435.4,220.2 434.7,219 432.5,220.2 432.5,217.6 
		430.5,217.6 430.5,220.2 428.3,219 427.6,220.2 430.1,221.6 427.6,223 428.3,224.2 430.5,222.9 430.5,225.6 	"/>
	<polygon points="437.7,230 435.5,231.2 435.5,228.6 433.5,228.6 433.5,231.2 431.3,230 430.6,231.2 433.1,232.6 430.6,234 
		431.3,235.2 433.5,233.9 433.5,236.6 435.5,236.6 435.5,234 437.7,235.2 438.4,234 435.9,232.6 438.4,231.2 	"/>
	<polygon points="446.7,223 444.5,224.2 444.5,221.6 442.5,221.6 442.5,224.2 440.3,223 439.6,224.2 442.1,225.6 439.6,227 
		440.3,228.2 442.5,226.9 442.5,229.6 444.5,229.6 444.5,227 446.7,228.2 447.4,227 444.9,225.6 447.4,224.2 	"/>
</g>
<rect x="-163.3" y="-359.3" class="st0" width="473" height="180.9"/>
<text transform="matrix(1 0 0 1 16.2905 -287.8521)" style="font-family:'Helvetica'; font-size:100px; letter-spacing:2;">60</text>
<text transform="matrix(1 0 0 1 -82.9775 -227.8521)" style="font-family:'Helvetica'; font-size:48px;">Weather Icons</text>
<text transform="matrix(1 0 0 1 12.5645 -183.8521)" style="font-family:'Helvetica'; font-size:24px;">IOS 7 Style</text>
</svg>
