<?xml version="1.0" encoding="utf-8"?>
<!-- Generator: Adobe Illustrator 25.0.1, SVG Export Plug-In . SVG Version: 6.00 Build 0)  -->
<svg version="1.1" id="Layer_1" xmlns="http://www.w3.org/2000/svg" xmlns:xlink="http://www.w3.org/1999/xlink" x="0px" y="0px"
	 viewBox="0 0 58 50.9" style="enable-background:new 0 0 58 50.9;" xml:space="preserve">
<style type="text/css">
	.st0{fill:none;}
</style>
<path d="M340.1,191.1l-1.8,15.1l-0.3,2.2h2.3h6.9l-14.7,18.8l1.8-14.5l0.3-2.2h-2.3h-7L340.1,191.1 M343,184.1l-21.7,28.3h11
	l-2.7,21.7l21.7-27.7h-11L343,184.1L343,184.1z"/>
<path d="M-72.9-271.1c6.8,0,12.7,4.8,14.2,11.4l0.3,1.5l1.5,0.1c4.2,0.3,7.5,3.8,7.5,8c0,4.4-3.6,8-8,8h-0.1h-2l0,0h-28.3h-0.6
	c-5.5,0-9.9-4.5-9.9-10s4.5-10,10-10c0.2,0,0.3,0,0.5,0h0.1l1.3,0.1l0.6-1.2C-83.3-268.1-78.4-271.1-72.9-271.1 M-72.9-273.1
	c-6.4,0-12,3.7-14.7,9c-0.3,0-0.5,0-0.8,0c-6.6,0-12,5.4-12,12s5.3,12,11.9,12l0,0h30.9l0,0h0.1c5.5,0,10-4.5,10-10
	c0-5.3-4.1-9.6-9.4-10C-58.4-267.5-65-273.1-72.9-273.1L-72.9-273.1z"/>
<g>
	<path d="M50-252.7c-1.4-6.7-7.4-11.8-14.6-11.8c-2.2,0-4.3,0.5-6.1,1.3c-1.7-3.2-5-5.4-8.9-5.4c-5.5,0-10,4.5-10,10
		c0,2.5,0.9,4.7,2.4,6.4c-1.4,1.8-2.3,4.1-2.3,6.7c0,6,4.8,10.8,10.8,10.9l0,0h28l0,0h0.1c5,0,9.1-4.1,9.1-9.1
		C58.5-248.5,54.8-252.4,50-252.7z M20.4-266.6c3.1,0,5.8,1.8,7.1,4.3c-2.3,1.4-4.2,3.5-5.4,5.9c-0.2,0-0.5,0-0.7,0
		c-2.8,0-5.3,1-7.2,2.7c-1.1-1.4-1.8-3.1-1.8-5C12.4-263,16-266.6,20.4-266.6z M49.5-236.6L49.5-236.6h-2.1l0,0H21.9h-0.6
		c-4.9,0-8.8-4-8.8-8.9s4-8.9,8.9-8.9c0.1,0,0.3,0,0.4,0h0.1l1.3,0.1l0.6-1.2c2.2-4.4,6.6-7.1,11.5-7.1c6.1,0,11.4,4.3,12.7,10.2
		l0.3,1.5l1.5,0.1c3.7,0.2,6.6,3.3,6.6,7C56.5-239.8,53.4-236.7,49.5-236.6z"/>
	<rect x="19.4" y="-278.6" width="2" height="8"/>
	<rect x="0.5" y="-259.6" width="8" height="2"/>
	<rect x="8.2" y="-273.8" transform="matrix(0.7071 -0.7071 0.7071 0.7071 193.5017 -72.4981)" width="2" height="8"/>
	<rect x="27.7" y="-270.9" transform="matrix(0.7071 -0.7071 0.7071 0.7071 200.1103 -56.6518)" width="8" height="2"/>
</g>
<path d="M145.8-256.7c-1.4-6.7-7.4-11.8-14.6-11.8c-1.8,0-3.5,0.3-5.1,0.9c-0.9-5.1-5.4-9-10.8-9c-0.4,0-0.8,0-1.2,0.1
	c0.7,1.1,1.2,2.4,1.2,3.9c0,3.9-3.1,7-7,7c-1.4,0-2.8-0.4-3.9-1.2c0,0.4-0.1,0.8-0.1,1.2c0,3.7,1.8,7,4.7,9
	c-1.7,1.9-2.7,4.4-2.7,7.1c0,6,4.8,10.8,10.8,10.9l0,0h28l0,0h0.1c5,0,9.1-4.1,9.1-9.1C154.3-252.5,150.5-256.4,145.8-256.7z
	 M106.4-263.8c0.6,0.1,1.2,0.2,1.8,0.2c5,0,9-4,9-9c0-0.6-0.1-1.2-0.2-1.8c3.7,0.8,6.6,3.8,7.1,7.6c-2.7,1.4-4.9,3.7-6.3,6.4
	c-0.2,0-0.5,0-0.7,0c-2.5,0-4.9,0.9-6.7,2.3C108.4-259.4,106.9-261.4,106.4-263.8z M145.3-240.7h-0.1h-2l0,0h-25.4h-0.6
	c-4.9,0-8.8-4-8.8-8.9s4-8.9,8.9-8.9c0.2,0,0.3,0,0.4,0h0.1l1.3,0.1l0.6-1.2c2.2-4.4,6.6-7.1,11.5-7.1c6.1,0,11.4,4.3,12.6,10.2
	l0.3,1.5l1.5,0.1c3.7,0.2,6.6,3.3,6.6,7C152.3-243.8,149.1-240.7,145.3-240.7z"/>
<g>
	<rect x="230.4" y="-248.1" width="2" height="7"/>
	<rect x="238.4" y="-252.1" width="2" height="7"/>
	<rect x="222.4" y="-252.1" width="2" height="7"/>
	<rect x="230.4" y="-238.1" width="2" height="7"/>
	<rect x="238.4" y="-242.1" width="2" height="7"/>
	<rect x="222.4" y="-242.1" width="2" height="7"/>
	<path d="M249.1-265.1c-1.6-7.4-8.2-13-16.1-13c-6.4,0-12,3.7-14.7,9c-0.3,0-0.5,0-0.8,0c-6.6,0-12,5.4-12,12s5.3,12,11.9,12l0,0
		h2.1v-2h-1.6h-0.4c-5.5,0-9.9-4.5-9.9-10s4.5-10,10-10c0.2,0,0.3,0,0.5,0h0.1l1.3,0.1l0.6-1.2c2.5-4.9,7.4-7.9,12.9-7.9
		c6.8,0,12.8,4.8,14.2,11.4l0.3,1.5l1.5,0.1c4.2,0.3,7.5,3.8,7.5,8c0,4.4-3.6,8-8,8c-0.1,0-0.1,0-0.1,0h-2h-2.9v2h4.9l0,0h0.1
		c5.5,0,10-4.5,10-10C258.4-260.5,254.3-264.8,249.1-265.1z"/>
</g>
<g>
	<path d="M46.6-175.8c-1.6-7.4-8.2-13-16.1-13c-6.4,0-12,3.7-14.7,9c-0.3,0-0.5,0-0.8,0c-6.6,0-12,5.4-12,12s5.3,12,11.9,12l0,0H17
		v-2h-1.6H15c-5.5,0-9.9-4.5-9.9-10s4.5-10,10-10c0.2,0,0.3,0,0.5,0h0.1l1.3,0.1l0.6-1.2c2.5-4.9,7.4-7.9,12.9-7.9
		c6.8,0,12.8,4.8,14.2,11.4l0.3,1.5l1.5,0.1c4.2,0.3,7.5,3.8,7.5,8c0,4.4-3.6,8-8,8h-0.1h-2H41v2h4.9l0,0H46c5.5,0,10-4.5,10-10
		C56-171.1,51.9-175.4,46.6-175.8z"/>
	<polygon points="28,-148.8 28,-146.8 28,-140.8 30,-140.8 30,-146.8 30,-148.8 30,-160.8 28,-160.8 	"/>
	<polygon points="36,-152.8 36,-151 36,-144.8 38,-144.8 38,-151 38,-152.8 38,-164.8 36,-164.8 	"/>
	<polygon points="20,-152.8 20,-150.7 20,-144.8 22,-144.8 22,-150.7 22,-152.8 22,-164.8 20,-164.8 	"/>
</g>
<g>
	<polygon points="342.3,-151.8 335.4,-161.7 333.8,-160.5 340.6,-150.7 341.8,-149.1 345.2,-144.1 346.9,-145.3 343.4,-150.3 	"/>
	<polygon points="350.3,-151.8 343.4,-161.7 341.8,-160.5 348.6,-150.7 349.6,-149.3 353.2,-144.1 354.9,-145.3 351.3,-150.4 	"/>
	<polygon points="334.3,-151.8 327.4,-161.7 325.8,-160.5 332.6,-150.7 333.8,-149 337.2,-144.1 338.9,-145.3 335.5,-150.2 	"/>
	<path d="M353.4-175.5c-1.6-7.4-8.2-13-16.1-13c-6.4,0-12,3.7-14.7,9c-0.3,0-0.5,0-0.8,0c-6.6,0-12,5.4-12,12s5.3,12,11.9,12l0,0
		h2.1v-2h-1.6h-0.4c-5.5,0-9.9-4.5-9.9-10s4.5-10,10-10c0.2,0,0.3,0,0.5,0h0.1l1.3,0.1l0.6-1.2c2.5-4.9,7.4-7.9,12.9-7.9
		c6.8,0,12.8,4.8,14.2,11.4l0.3,1.5l1.5,0.1c4.2,0.3,7.5,3.8,7.5,8c0,4.4-3.6,8-8,8h-0.1h-1h0.1v2h0.9l0,0h0.1c5.5,0,10-4.5,10-10
		C362.8-170.8,358.6-175.2,353.4-175.5z"/>
</g>
<g>
	<rect x="325.1" y="-284.6" width="2" height="8"/>
	<rect x="306.1" y="-265.7" width="8" height="2"/>
	<rect x="313.7" y="-279.9" transform="matrix(0.7071 -0.7071 0.7071 0.7071 287.2535 141.7429)" width="2" height="8"/>
	<rect x="333.3" y="-276.9" transform="matrix(0.7071 -0.7071 0.7071 0.7071 293.9035 157.6893)" width="8" height="2"/>
	<rect x="339.1" y="-243.7" width="2" height="7"/>
	<rect x="347.1" y="-247.7" width="2" height="7"/>
	<rect x="331.1" y="-247.7" width="2" height="7"/>
	<rect x="339.1" y="-233.7" width="2" height="7"/>
	<rect x="347.1" y="-237.7" width="2" height="7"/>
	<rect x="331.1" y="-237.7" width="2" height="7"/>
	<path d="M355.6-258.8c-1.4-6.7-7.4-11.8-14.6-11.8c-2.2,0-4.3,0.5-6.1,1.3c-1.7-3.2-5-5.4-8.9-5.4c-5.5,0-10,4.5-10,10
		c0,2.5,0.9,4.7,2.4,6.4c-1.4,1.8-2.3,4.1-2.3,6.7c0,6,4.8,10.8,10.8,10.9l0,0h1.2v-2h-0.7h-0.5c-4.9,0-8.8-4-8.8-8.9
		c0-4.9,4-8.9,8.9-8.9c0.1,0,0.3,0,0.4,0h0.1l1.3,0.1l0.6-1.2c2.2-4.4,6.6-7.1,11.5-7.1c6.1,0,11.4,4.3,12.6,10.2l0.3,1.5l1.5,0.1
		c3.7,0.2,6.6,3.3,6.6,7c0,3.9-3.1,7-7,7.1h-0.1h-2H352v2h2.8l0,0h0.1c5,0,9.1-4.1,9.1-9.1C364.1-254.6,360.3-258.5,355.6-258.8z
		 M327.7-262.4c-0.2,0-0.5,0-0.7,0c-2.8,0-5.3,1-7.2,2.7c-1.1-1.4-1.8-3.1-1.8-5c0-4.4,3.6-8,8-8c3.1,0,5.8,1.8,7.1,4.3
		C330.8-266.9,328.9-264.8,327.7-262.4z"/>
</g>
<g>
	<rect x="439.5" y="-245.1" width="2" height="7"/>
	<rect x="447.5" y="-249.1" width="2" height="7"/>
	<rect x="431.5" y="-249.1" width="2" height="7"/>
	<rect x="439.5" y="-235.1" width="2" height="7"/>
	<rect x="447.5" y="-239.1" width="2" height="7"/>
	<rect x="431.5" y="-239.1" width="2" height="7"/>
	<path d="M456-260.2c-1.4-6.7-7.4-11.8-14.6-11.8c-1.8,0-3.5,0.3-5.1,0.9c-0.9-5.1-5.4-9-10.8-9c-0.4,0-0.8,0-1.2,0.1
		c0.7,1.1,1.2,2.4,1.2,3.9c0,3.9-3.1,7-7,7c-1.4,0-2.8-0.4-3.9-1.2c0,0.4-0.1,0.8-0.1,1.2c0,3.7,1.8,7,4.7,9
		c-1.7,1.9-2.7,4.4-2.7,7.1c0,6,4.8,10.8,10.8,10.9l0,0h1.2v-2h-0.7h-0.5c-4.9,0-8.8-4-8.8-8.9s4-8.9,8.9-8.9c0.1,0,0.3,0,0.4,0h0.1
		l1.3,0.1l0.6-1.2c2.2-4.4,6.6-7.1,11.5-7.1c6.1,0,11.4,4.3,12.6,10.2l0.3,1.5l1.5,0.1c3.7,0.2,6.6,3.3,6.6,7c0,3.9-3.1,7-7,7.1
		h-0.1h-2h-0.8v2h2.8l0,0h0.1c5,0,9.1-4.1,9.1-9.1C464.5-256,460.7-259.9,456-260.2z M428.1-263.8c-0.2,0-0.5,0-0.7,0
		c-2.5,0-4.9,0.9-6.7,2.3c-2-1.3-3.5-3.4-4-5.8c0.6,0.1,1.2,0.2,1.8,0.2c5,0,9-4,9-9c0-0.6-0.1-1.2-0.2-1.8c3.7,0.8,6.6,3.8,7.1,7.6
		C431.7-268.8,429.5-266.6,428.1-263.8z"/>
</g>
<g>
	<polygon points="132.3,-144.3 132.3,-142.4 132.3,-136.3 134.3,-136.3 134.3,-142.4 134.3,-144.3 134.3,-156.3 132.3,-156.3 	"/>
	<polygon points="140.3,-148.3 140.3,-146.6 140.3,-140.3 142.3,-140.3 142.3,-146.6 142.3,-148.3 142.3,-160.3 140.3,-160.3 	"/>
	<polygon points="124.3,-148.3 124.3,-146.3 124.3,-140.3 126.3,-140.3 126.3,-146.3 126.3,-148.3 126.3,-160.3 124.3,-160.3 	"/>
	<rect x="118.3" y="-195.2" width="2" height="8"/>
	<rect x="99.3" y="-176.3" width="8" height="2"/>
	<rect x="106.9" y="-190.6" transform="matrix(0.7071 -0.7071 0.7071 0.7071 163.5251 21.644)" width="2" height="8"/>
	<rect x="126.5" y="-187.6" transform="matrix(0.7071 -0.7071 0.7071 0.7071 170.1756 37.5903)" width="8" height="2"/>
	<path d="M148.8-169.4c-1.4-6.7-7.4-11.8-14.6-11.8c-2.2,0-4.3,0.5-6.1,1.3c-1.7-3.2-5-5.4-8.9-5.4c-5.5,0-10,4.5-10,10
		c0,2.5,0.9,4.7,2.4,6.4c-1.4,1.8-2.3,4.1-2.3,6.7c0,6,4.8,10.8,10.8,10.9l0,0h1.2v-2h-0.7h-0.5c-4.9,0-8.8-4-8.8-8.9s4-8.9,8.9-8.9
		c0.2,0,0.3,0,0.4,0h0.1l1.3,0.1l0.6-1.2c2.2-4.4,6.6-7.1,11.5-7.1c6.1,0,11.4,4.3,12.6,10.2l0.3,1.5l1.5,0.1c3.7,0.2,6.6,3.3,6.6,7
		c0,3.9-3.1,7-7,7.1H148h-2h-0.8v2h2.8l0,0h0.1c5,0,9.1-4.1,9.1-9.1C157.3-165.2,153.5-169.1,148.8-169.4z M120.9-173
		c-0.2,0-0.5,0-0.7,0c-2.8,0-5.3,1-7.2,2.7c-1.1-1.4-1.8-3.1-1.8-5c0-4.4,3.6-8,8-8c3.1,0,5.8,1.8,7.1,4.3
		C124-177.5,122.1-175.5,120.9-173z"/>
</g>
<g>
	<polygon points="232.7,-146.8 232.7,-144.9 232.7,-138.8 234.7,-138.8 234.7,-144.9 234.7,-146.8 234.7,-158.8 232.7,-158.8 	"/>
	<polygon points="240.7,-150.8 240.7,-149.1 240.7,-142.8 242.7,-142.8 242.7,-149.1 242.7,-150.8 242.7,-162.8 240.7,-162.8 	"/>
	<polygon points="224.7,-150.8 224.7,-148.8 224.7,-142.8 226.7,-142.8 226.7,-148.8 226.7,-150.8 226.7,-162.8 224.7,-162.8 	"/>
	<path d="M249.2-171.9c-1.4-6.7-7.4-11.8-14.6-11.8c-1.8,0-3.5,0.3-5.1,0.9c-0.9-5.1-5.4-9-10.8-9c-0.4,0-0.8,0-1.2,0.1
		c0.7,1.1,1.2,2.4,1.2,3.9c0,3.9-3.1,7-7,7c-1.4,0-2.8-0.4-3.9-1.2c0,0.4-0.1,0.8-0.1,1.2c0,3.7,1.8,7,4.7,9
		c-1.7,1.9-2.7,4.4-2.7,7.1c0,6,4.8,10.8,10.8,10.9l0,0h1.2v-2H221h-0.5c-4.9,0-8.8-4-8.8-8.9s4-8.9,8.9-8.9c0.1,0,0.3,0,0.4,0h0.1
		l1.3,0.1l0.6-1.2c2.2-4.4,6.6-7.1,11.5-7.1c6.1,0,11.4,4.3,12.6,10.2l0.3,1.5l1.5,0.1c3.7,0.2,6.6,3.3,6.6,7c0,3.9-3.1,7-7,7.1
		h-0.1h-2h-0.8v2h2.8l0,0h0.1c5,0,9.1-4.1,9.1-9.1C257.7-167.7,253.9-171.7,249.2-171.9z M221.3-175.6c-0.2,0-0.5,0-0.7,0
		c-2.5,0-4.9,0.9-6.7,2.3c-2-1.3-3.5-3.4-4-5.8c0.6,0.1,1.2,0.2,1.8,0.2c5,0,9-4,9-9c0-0.6-0.1-1.2-0.2-1.8c3.7,0.8,6.6,3.8,7.1,7.6
		C224.9-180.6,222.7-178.3,221.3-175.6z"/>
</g>
<g>
	<polygon points="449.7,-145.9 442.8,-155.7 441.2,-154.6 448.1,-144.7 449.2,-143.2 452.7,-138.2 454.3,-139.3 450.8,-144.3 	"/>
	<polygon points="457.7,-145.9 450.8,-155.7 449.2,-154.6 456.1,-144.7 457.1,-143.3 460.7,-138.2 462.3,-139.3 458.7,-144.5 	"/>
	<polygon points="441.7,-145.9 434.8,-155.7 433.2,-154.6 440.1,-144.7 441.2,-143.1 444.7,-138.2 446.3,-139.3 442.9,-144.2 	"/>
	<rect x="429.2" y="-193.4" width="2" height="8"/>
	<rect x="410.2" y="-174.5" width="8" height="2"/>
	<rect x="417.8" y="-188.8" transform="matrix(0.7071 -0.7071 0.7071 0.7071 253.3152 242.0227)" width="2" height="8"/>
	<rect x="437.4" y="-185.8" transform="matrix(0.7071 -0.7071 0.7071 0.7071 259.9659 257.9691)" width="8" height="2"/>
	<path d="M459.7-167.6c-1.4-6.7-7.4-11.8-14.6-11.8c-2.2,0-4.3,0.5-6.1,1.3c-1.7-3.2-5-5.4-8.9-5.4c-5.5,0-10,4.5-10,10
		c0,2.5,0.9,4.7,2.4,6.4c-1.4,1.8-2.3,4.1-2.3,6.7c0,6,4.8,10.8,10.8,10.9l0,0h1.2v-2h-0.7H431c-4.9,0-8.8-4-8.8-8.9s4-8.9,8.9-8.9
		c0.1,0,0.3,0,0.4,0h0.1l1.3,0.1l0.6-1.2c2.2-4.4,6.6-7.1,11.5-7.1c6.1,0,11.4,4.3,12.6,10.2l0.3,1.5l1.5,0.1c3.7,0.2,6.6,3.3,6.6,7
		c0,3.9-3.1,7-7,7.1h-0.1l0,0h-0.8v2h0.8l0,0h0.1c5,0,9.1-4.1,9.1-9.1C468.2-163.4,464.4-167.4,459.7-167.6z M431.8-171.3
		c-0.2,0-0.5,0-0.7,0c-2.8,0-5.3,1-7.2,2.7c-1.1-1.4-1.8-3.1-1.8-5c0-4.4,3.6-8,8-8c3.1,0,5.8,1.8,7.1,4.3
		C434.9-175.7,433-173.7,431.8-171.3z"/>
</g>
<g>
	<polygon points="-273.7,-49.4 -280.6,-59.2 -282.2,-58.1 -275.4,-48.3 -274.3,-46.7 -270.8,-41.7 -269.1,-42.9 -272.6,-47.8 	"/>
	<polygon points="-265.7,-49.4 -272.6,-59.2 -274.2,-58.1 -267.4,-48.3 -266.4,-46.8 -262.8,-41.7 -261.1,-42.9 -264.7,-48 	"/>
	<polygon points="-281.7,-49.4 -288.6,-59.2 -290.2,-58.1 -283.4,-48.3 -282.2,-46.6 -278.8,-41.7 -277.1,-42.9 -280.5,-47.7 	"/>
	<path d="M-263.7-71.2c-1.4-6.7-7.4-11.8-14.6-11.8c-1.8,0-3.5,0.3-5.1,0.9c-0.9-5.1-5.4-9-10.8-9c-0.4,0-0.8,0-1.2,0.1
		c0.7,1.1,1.2,2.4,1.2,3.9c0,3.9-3.1,7-7,7c-1.4,0-2.8-0.4-3.9-1.2c0,0.4-0.1,0.8-0.1,1.2c0,3.7,1.8,7,4.7,9
		c-1.7,1.9-2.7,4.4-2.7,7.1c0,6,4.8,10.8,10.8,10.9l0,0h1.2v-2h-0.7h-0.5c-4.9,0-8.8-4-8.8-8.9s4-8.9,8.9-8.9c0.1,0,0.3,0,0.4,0h0.1
		l1.3,0.1l0.6-1.2c2.2-4.4,6.6-7.1,11.5-7.1c6.1,0,11.4,4.3,12.6,10.2l0.3,1.5l1.5,0.1c3.7,0.2,6.6,3.3,6.6,7c0,3.9-3.1,7-7,7.1
		h-0.1l0,0h-0.8v2h0.8l0,0h0.1c5,0,9.1-4.1,9.1-9.1C-255.2-66.9-259-70.9-263.7-71.2z M-291.7-74.8c-0.2,0-0.5,0-0.7,0
		c-2.5,0-4.9,0.9-6.7,2.3c-2-1.3-3.5-3.4-4-5.8c0.6,0.1,1.2,0.2,1.8,0.2c5,0,9-4,9-9c0-0.6-0.1-1.2-0.2-1.8c3.7,0.8,6.6,3.8,7.1,7.6
		C-288-79.8-290.3-77.5-291.7-74.8z"/>
</g>
<g>
	<rect x="-281.2" y="-153.3" width="2" height="4"/>
	<rect x="-273.2" y="-157.3" width="2" height="4"/>
	<rect x="-289.2" y="-157.3" width="2" height="4"/>
	<path d="M-262.6-173.2c-1.6-7.4-8.2-13-16.1-13c-6.4,0-12,3.7-14.7,9c-0.3,0-0.5,0-0.8,0c-6.6,0-12,5.4-12,12s5.3,12,11.9,12l0,0
		h2.1v-2h-1.6h-0.4c-5.5,0-9.9-4.5-9.9-10s4.5-10,10-10c0.2,0,0.3,0,0.5,0h0.1l1.3,0.1l0.6-1.2c2.5-4.9,7.4-7.9,12.9-7.9
		c6.8,0,12.8,4.8,14.2,11.4l0.3,1.5l1.5,0.1c4.2,0.3,7.5,3.8,7.5,8c0,4.4-3.6,8-8,8h-0.1h-2h-2.9v2h4.9l0,0h0.1c5.5,0,10-4.5,10-10
		C-253.2-168.6-257.4-172.9-262.6-173.2z"/>
	<circle cx="-272.2" cy="-148.2" r="1.5"/>
	<circle cx="-280.2" cy="-144.3" r="1.5"/>
	<circle cx="-288.2" cy="-148.3" r="1.5"/>
</g>
<g>
	<rect x="-188.3" y="-192.7" width="2" height="8"/>
	<rect x="-207.3" y="-173.8" width="8" height="2"/>
	<rect x="-199.6" y="-188" transform="matrix(0.7071 -0.7071 0.7071 0.7071 71.9205 -194.3565)" width="2" height="8"/>
	<rect x="-180.1" y="-185.1" transform="matrix(0.7071 -0.7071 0.7071 0.7071 78.5997 -178.4809)" width="8" height="2"/>
	<path d="M-157.8-166.9c-1.4-6.7-7.4-11.8-14.6-11.8c-2.2,0-4.3,0.5-6.1,1.3c-1.7-3.2-5-5.4-8.9-5.4c-5.5,0-10,4.5-10,10
		c0,2.5,0.9,4.7,2.4,6.4c-1.4,1.8-2.3,4.1-2.3,6.7c0,6,4.8,10.8,10.8,10.9l0,0h1.2v-2h-0.7h-0.5c-4.9,0-8.8-4-8.8-8.9s4-8.9,8.9-8.9
		c0.1,0,0.3,0,0.4,0h0.1l1.3,0.1l0.6-1.2c2.2-4.4,6.6-7.1,11.5-7.1c6.1,0,11.4,4.3,12.6,10.2l0.3,1.5l1.5,0.1c3.7,0.2,6.6,3.3,6.6,7
		c0,3.9-3.1,7-7,7.1h-0.1h-2h-0.8v2h2.8l0,0h0.1c5,0,9.1-4.1,9.1-9.1C-149.3-162.7-153.1-166.6-157.8-166.9z M-185.7-170.5
		c-0.2,0-0.5,0-0.7,0c-2.8,0-5.3,1-7.2,2.7c-1.1-1.4-1.8-3.1-1.8-5c0-4.4,3.6-8,8-8c3.1,0,5.8,1.8,7.1,4.3
		C-182.6-175-184.5-173-185.7-170.5z"/>
	<rect x="-174.3" y="-148.8" width="2" height="4"/>
	<rect x="-166.3" y="-152.8" width="2" height="4"/>
	<rect x="-182.3" y="-152.8" width="2" height="4"/>
	<circle cx="-165.3" cy="-143.8" r="1.5"/>
	<circle cx="-173.3" cy="-139.8" r="1.5"/>
	<circle cx="-181.3" cy="-143.8" r="1.5"/>
</g>
<g>
	<path d="M-56.9-167.9c-1.4-6.7-7.4-11.8-14.6-11.8c-1.8,0-3.5,0.3-5.1,0.9c-0.9-5.1-5.4-9-10.8-9c-0.4,0-0.8,0-1.2,0.1
		c0.7,1.1,1.2,2.4,1.2,3.9c0,3.9-3.1,7-7,7c-1.4,0-2.8-0.4-3.9-1.2c0,0.4-0.1,0.8-0.1,1.2c0,3.7,1.8,7,4.7,9
		c-1.7,1.9-2.7,4.4-2.7,7.1c0,6,4.8,10.8,10.8,10.9l0,0h1.2v-2h-0.7h-0.5c-4.9,0-8.8-4-8.8-8.9s4-8.9,8.9-8.9c0.2,0,0.3,0,0.4,0h0.1
		l1.3,0.1l0.6-1.2c2.2-4.4,6.6-7.1,11.5-7.1c6.1,0,11.4,4.3,12.6,10.2l0.3,1.5l1.5,0.1c3.7,0.2,6.6,3.3,6.6,7c0,3.9-3.1,7-7,7.1
		h-0.1h-2h-0.8v2h2.8l0,0h0.1c5,0,9.1-4.1,9.1-9.1C-48.4-163.7-52.2-167.6-56.9-167.9z M-84.8-171.5c-0.2,0-0.5,0-0.7,0
		c-2.5,0-4.9,0.9-6.7,2.3c-2-1.3-3.5-3.4-4-5.8c0.6,0.1,1.2,0.2,1.8,0.2c5,0,9-4,9-9c0-0.6-0.1-1.2-0.2-1.8c3.7,0.8,6.6,3.8,7.1,7.6
		C-81.2-176.5-83.4-174.2-84.8-171.5z"/>
	<rect x="-73.4" y="-149.8" width="2" height="4"/>
	<rect x="-65.4" y="-153.8" width="2" height="4"/>
	<rect x="-81.4" y="-153.8" width="2" height="4"/>
	<circle cx="-64.4" cy="-144.8" r="1.5"/>
	<circle cx="-72.4" cy="-140.8" r="1.5"/>
	<circle cx="-80.4" cy="-144.8" r="1.5"/>
</g>
<g>
	<path d="M-160.2-74.8c-1.6-7.4-8.2-13-16.1-13c-6.4,0-12,3.7-14.7,9c-0.3,0-0.5,0-0.8,0c-6.6,0-12,5.4-12,12s5.3,12,11.9,12l0,0
		h6.1v-2h-5.6h-0.4c-5.5,0-9.9-4.5-9.9-10s4.5-10,10-10c0.2,0,0.3,0,0.5,0h0.1l1.3,0.1l0.6-1.2c2.5-4.9,7.4-7.9,12.9-7.9
		c6.8,0,12.8,4.8,14.2,11.4l0.3,1.5l1.5,0.1c4.2,0.3,7.5,3.8,7.5,8c0,4.4-3.6,8-8,8c-0.1,0-0.1,0-0.1,0h-5h0.1v2h4.9l0,0h0.1
		c5.5,0,10-4.5,10-10C-150.8-70.2-155-74.5-160.2-74.8z"/>
	<polygon points="-176,-54.9 -174.2,-54.9 -173.8,-54.9 -171.8,-54.9 -178.2,-64 -179.8,-62.9 -175.6,-56.9 -177.4,-56.9 
		-179.8,-56.9 -178.6,-55.1 -177.4,-53.5 -171.5,-44.9 -169.8,-46 -175.8,-54.6 	"/>
</g>
<g>
	<rect x="-84.4" y="-94" width="2" height="8"/>
	<rect x="-103.4" y="-75.1" width="8" height="2"/>
	<rect x="-95.7" y="-89.3" transform="matrix(0.7071 -0.7071 0.7071 0.7071 32.6069 -91.9536)" width="2" height="8"/>
	<rect x="-76.2" y="-86.3" transform="matrix(0.7071 -0.7071 0.7071 0.7071 39.1867 -76.0365)" width="8" height="2"/>
	<path d="M-53.9-68.2C-55.3-74.9-61.3-80-68.5-80c-2.2,0-4.3,0.5-6.1,1.3c-1.7-3.2-5-5.4-8.9-5.4c-5.5,0-10,4.5-10,10
		c0,2.5,0.9,4.7,2.4,6.4c-1.4,1.8-2.3,4.1-2.3,6.7c0,6,4.8,10.8,10.8,10.9l0,0h4.2v-2h-3.7h-0.5c-4.9,0-8.8-4-8.8-8.9s4-8.9,8.9-8.9
		c0.2,0,0.3,0,0.4,0h0.1l1.3,0.1l0.6-1.2c2.2-4.4,6.6-7.1,11.5-7.1c6.1,0,11.4,4.3,12.6,10.2l0.3,1.5l1.5,0.1c3.7,0.2,6.6,3.3,6.6,7
		c0,3.9-3.1,7-7,7.1h-0.1h-2h-3.8v2h5.8l0,0h0.1c5,0,9.1-4.1,9.1-9.1C-45.4-64-49.2-67.9-53.9-68.2z M-81.8-71.8c-0.2,0-0.5,0-0.7,0
		c-2.8,0-5.3,1-7.2,2.7c-1.1-1.4-1.8-3.1-1.8-5c0-4.4,3.6-8,8-8c3.1,0,5.8,1.8,7.1,4.3C-78.7-76.3-80.6-74.2-81.8-71.8z"/>
	<polygon points="-69.6,-50.1 -67.8,-50.1 -67.4,-50.1 -65.4,-50.1 -71.8,-59.3 -73.4,-58.1 -69.2,-52.1 -71,-52.1 -73.4,-52.1 
		-72.1,-50.3 -71,-48.7 -65,-40.1 -63.4,-41.2 -69.4,-49.8 	"/>
</g>
<g>
	<path d="M45.7-70.5c-1.4-6.7-7.4-11.8-14.6-11.8c-1.8,0-3.5,0.3-5.1,0.9c-0.9-5.1-5.4-9-10.8-9c-0.4,0-0.8,0-1.2,0.1
		c0.7,1.1,1.2,2.4,1.2,3.9c0,3.9-3.1,7-7,7c-1.4,0-2.8-0.4-3.9-1.2c0,0.4-0.1,0.8-0.1,1.2c0,3.7,1.8,7,4.7,9
		c-1.7,1.9-2.7,4.4-2.7,7.1c0,6,4.8,10.8,10.8,10.9l0,0h4.2v-2h-3.7H17c-4.9,0-8.8-4-8.8-8.9s4-8.9,8.9-8.9c0.1,0,0.3,0,0.4,0h0.1
		L19-72l0.6-1.2c2.2-4.4,6.6-7.1,11.5-7.1c6.1,0,11.4,4.3,12.6,10.2l0.3,1.5l1.5,0.1c3.7,0.2,6.6,3.3,6.6,7c0,3.9-3.1,7-7,7.1H45h-2
		h-3.8v2H45l0,0h0.1c5,0,9.1-4.1,9.1-9.1C54.2-66.3,50.4-70.2,45.7-70.5z M17.8-74.1c-0.2,0-0.5,0-0.7,0c-2.5,0-4.9,0.9-6.7,2.3
		c-2-1.3-3.5-3.4-4-5.8c0.6,0.1,1.2,0.2,1.8,0.2c5,0,9-4,9-9c0-0.6-0.1-1.2-0.2-1.8c3.7,0.8,6.6,3.8,7.1,7.6
		C21.4-79.1,19.2-76.8,17.8-74.1z"/>
	<polygon points="30,-52.4 31.8,-52.4 32.2,-52.4 34.2,-52.4 27.8,-61.5 26.2,-60.4 30.4,-54.4 28.6,-54.4 26.2,-54.4 27.5,-52.6 
		28.6,-51 34.5,-42.4 36.2,-43.5 30.2,-52.1 	"/>
</g>
<g>
	<path d="M146.6-74.3c-1.6-7.4-8.2-13-16.1-13c-6.4,0-12,3.7-14.7,9c-0.3,0-0.5,0-0.8,0c-6.6,0-12,5.4-12,12s5.3,12,11.9,12l0,0h1.1
		v-2h-0.6H115c-5.5,0-9.9-4.5-9.9-10s4.5-10,10-10c0.2,0,0.3,0,0.5,0h0.1l1.3,0.1l0.6-1.2c2.5-4.9,7.4-7.9,12.9-7.9
		c6.8,0,12.8,4.8,14.2,11.4l0.3,1.5l1.5,0.1c4.2,0.3,7.5,3.8,7.5,8c0,4.4-3.6,8-8,8c-0.1,0-0.1,0-0.1,0H145v2h0.9l0,0h0.1
		c5.5,0,10-4.5,10-10C156-69.7,151.8-74,146.6-74.3z"/>
	<rect x="120" y="-61" transform="matrix(0.8191 -0.5736 0.5736 0.8191 53.6633 59.3768)" width="2" height="11.2"/>
	<rect x="138" y="-61" transform="matrix(0.8191 -0.5736 0.5736 0.8191 56.9259 69.6965)" width="2" height="11.2"/>
	<polygon points="131.8,-51.4 133.6,-51.4 134,-51.4 136,-51.4 129.6,-60.5 128,-59.4 132.2,-53.4 130.4,-53.4 128,-53.4 
		129.2,-51.6 130.3,-50 135,-43.4 136.6,-44.5 132,-51.1 	"/>
</g>
<g>
	<rect x="221.4" y="-93.8" width="2" height="8"/>
	<rect x="202.4" y="-74.9" width="8" height="2"/>
	<rect x="210.1" y="-89.1" transform="matrix(0.7071 -0.7071 0.7071 0.7071 122.0352 124.3647)" width="2" height="8"/>
	<rect x="229.6" y="-86.2" transform="matrix(0.7071 -0.7071 0.7071 0.7071 128.6437 140.2111)" width="8" height="2"/>
	<path d="M251.9-68c-1.4-6.7-7.4-11.8-14.6-11.8c-2.2,0-4.3,0.5-6.1,1.3c-1.7-3.2-5-5.4-8.9-5.4c-5.5,0-10,4.5-10,10
		c0,2.5,0.9,4.7,2.4,6.4c-1.4,1.8-2.3,4.1-2.3,6.7c0,6,4.8,10.8,10.8,10.9l0,0h0.2v-2h-0.2c-4.9,0-8.8-4-8.8-8.9s4-8.9,8.9-8.9
		c0.1,0,0.3,0,0.4,0h0.1l1.3,0.1l0.6-1.2c2.2-4.4,6.6-7.1,11.5-7.1c6.1,0,11.4,4.3,12.6,10.2l0.3,1.5l1.5,0.1c3.7,0.2,6.6,3.3,6.6,7
		c0,3.9-3.1,7-7,7.1h-0.1h-0.9v2h0.8l0,0h0.1c5,0,9.1-4.1,9.1-9.1C260.4-63.8,256.7-67.7,251.9-68z M224-71.6c-0.2,0-0.5,0-0.7,0
		c-2.8,0-5.3,1-7.2,2.7c-1.1-1.4-1.8-3.1-1.8-5c0-4.4,3.6-8,8-8c3.1,0,5.8,1.8,7.1,4.3C227.1-76.1,225.3-74.1,224-71.6z"/>
	<rect x="226.5" y="-56.5" transform="matrix(0.8191 -0.5736 0.5736 0.8191 70.3659 121.2908)" width="2" height="11.2"/>
	<rect x="244.4" y="-56.5" transform="matrix(0.8191 -0.5736 0.5736 0.8191 73.5811 131.574)" width="2" height="11.2"/>
	<polygon points="238.3,-46.9 240,-46.9 240.5,-46.9 242.5,-46.9 236.1,-56.1 234.4,-54.9 238.6,-48.9 236.9,-48.9 234.4,-48.9 
		235.7,-47.1 236.8,-45.5 241.4,-38.9 243.1,-40.1 238.4,-46.7 	"/>
</g>
<g>
	<path d="M353.8-71c-1.4-6.7-7.4-11.8-14.6-11.8c-1.8,0-3.5,0.3-5.1,0.9c-0.9-5.1-5.4-9-10.8-9c-0.4,0-0.8,0-1.2,0.1
		c0.7,1.1,1.2,2.4,1.2,3.9c0,3.9-3.1,7-7,7c-1.4,0-2.8-0.4-3.9-1.2c0,0.4-0.1,0.8-0.1,1.2c0,3.7,1.8,7,4.7,9
		c-1.7,1.9-2.7,4.4-2.7,7.1c0,6,4.8,10.8,10.8,10.9l0,0h0.2v-2h-0.2c-4.9,0-8.8-4-8.8-8.9s4-8.9,8.9-8.9c0.1,0,0.3,0,0.4,0h0.1
		l1.3,0.1l0.6-1.2c2.2-4.4,6.6-7.1,11.5-7.1c6.1,0,11.4,4.3,12.6,10.2l0.3,1.5l1.5,0.1c3.7,0.2,6.6,3.3,6.6,7c0,3.9-3.1,7-7,7.1H353
		h-0.9v2h0.8l0,0h0.1c5,0,9.1-4.1,9.1-9.1C362.3-66.8,358.5-70.7,353.8-71z M325.9-74.6c-0.2,0-0.5,0-0.7,0c-2.5,0-4.9,0.9-6.7,2.3
		c-2-1.3-3.5-3.4-4-5.8c0.6,0.1,1.2,0.2,1.8,0.2c5,0,9-4,9-9c0-0.6-0.1-1.2-0.2-1.8c3.7,0.8,6.6,3.8,7.1,7.6
		C329.5-79.6,327.3-77.3,325.9-74.6z"/>
	<rect x="328.3" y="-59.5" transform="matrix(0.8191 -0.5736 0.5736 0.8191 90.4775 179.1372)" width="2" height="11.2"/>
	<rect x="346.3" y="-59.5" transform="matrix(0.8191 -0.5736 0.5736 0.8191 93.7405 189.4569)" width="2" height="11.2"/>
	<polygon points="340.1,-49.9 341.9,-49.9 342.3,-49.9 344.3,-49.9 337.9,-59.1 336.3,-57.9 340.5,-51.9 338.7,-51.9 336.3,-51.9 
		337.5,-50.1 338.6,-48.5 343.3,-41.9 344.9,-43 340.3,-49.6 	"/>
</g>
<g>
	<g>
		<path d="M-56.8,15.5c-1.6-7.4-8.2-13-16.1-13c-6.4,0-12,3.7-14.7,9c-0.3,0-0.5,0-0.8,0c-6.6,0-12,5.4-12,12s5.3,12,11.9,12l0,0
			h2.1v-2H-88h-0.4c-5.5,0-9.9-4.5-9.9-10s4.5-10,10-10c0.2,0,0.3,0,0.5,0h0.1l1.3,0.1l0.6-1.2c2.5-4.9,7.4-7.9,12.9-7.9
			c6.8,0,12.8,4.8,14.2,11.4l0.3,1.5l1.5,0.1c4.2,0.3,7.5,3.8,7.5,8c0,4.4-3.6,8-8,8h-0.1h-2h-2.9v2h4.9l0,0h0.1c5.5,0,10-4.5,10-10
			C-47.4,20.1-51.6,15.8-56.8,15.5z"/>
	</g>
	<g>
		<circle cx="-81.9" cy="29" r="1.5"/>
	</g>
	<g>
		<circle cx="-77.9" cy="34.9" r="1.5"/>
	</g>
	<g>
		<circle cx="-69.9" cy="34.9" r="1.5"/>
	</g>
	<g>
		<circle cx="-73.9" cy="29" r="1.5"/>
	</g>
	<g>
		<circle cx="-65.9" cy="29" r="1.5"/>
	</g>
	<g>
		<circle cx="-81.9" cy="41" r="1.5"/>
	</g>
	<g>
		<circle cx="-73.9" cy="41" r="1.5"/>
	</g>
	<g>
		<circle cx="-65.9" cy="41" r="1.5"/>
	</g>
</g>
<g>
	<g>
		<rect x="19" width="2" height="8"/>
	</g>
	<g>
		<rect y="18.9" width="8" height="2"/>
	</g>
	<g>
		<rect x="7.7" y="4.7" transform="matrix(0.7071 -0.7071 0.7071 0.7071 -3.5653 8.7049)" width="2" height="8"/>
	</g>
	<g>
		<rect x="27.2" y="7.7" transform="matrix(0.7071 -0.7071 0.7071 0.7071 3.014 24.6219)" width="8" height="2"/>
	</g>
	<g>
		<path d="M49.5,25.8C48.1,19,42.1,14,34.9,14c-2.2,0-4.3,0.5-6.1,1.3c-1.7-3.2-5-5.4-8.9-5.4c-5.5,0-10,4.5-10,10
			c0,2.5,0.9,4.7,2.4,6.4C10.9,28.2,10,30.5,10,33c0,6,4.8,10.8,10.8,10.9l0,0H22v-2h-0.7h-0.5c-4.9,0-8.8-4-8.8-8.9s4-8.9,8.9-8.9
			c0.1,0,0.3,0,0.4,0h0.1l1.3,0.1l0.6-1.2c2.3-4.3,6.7-7,11.6-7c6.1,0,11.4,4.3,12.6,10.2l0.3,1.5l1.5,0.1c3.7,0.2,6.6,3.3,6.6,7
			c0,3.9-3.1,7-7,7.1h-0.1h-2H45v2h3.8l0,0h0.1c5,0,9.1-4.1,9.1-9.1C58,30,54.2,26.1,49.5,25.8z M21.6,22.2c-0.2,0-0.5,0-0.7,0
			c-2.8,0-5.3,1-7.2,2.7c-1.1-1.4-1.8-3.1-1.8-5c0-4.4,3.6-8,8-8c3.1,0,5.8,1.8,7.1,4.3C24.7,17.7,22.8,19.7,21.6,22.2z"/>
	</g>
	<g>
		<circle cx="25.5" cy="37.4" r="1.5"/>
	</g>
	<g>
		<circle cx="29.5" cy="43.4" r="1.5"/>
	</g>
	<g>
		<circle cx="37.5" cy="43.4" r="1.5"/>
	</g>
	<g>
		<circle cx="33.5" cy="37.4" r="1.5"/>
	</g>
	<g>
		<circle cx="41.5" cy="37.4" r="1.5"/>
	</g>
	<g>
		<circle cx="25.5" cy="49.4" r="1.5"/>
	</g>
	<g>
		<circle cx="33.5" cy="49.4" r="1.5"/>
	</g>
	<g>
		<circle cx="41.5" cy="49.4" r="1.5"/>
	</g>
</g>
<g>
	<g>
		<path d="M145.5,21.8C144,15.1,138,10,130.9,10c-1.8,0-3.5,0.3-5.1,0.9c-0.9-5.1-5.4-9-10.8-9c-0.4,0-0.8,0-1.2,0.1
			c0.7,1.1,1.2,2.4,1.2,3.9c0,3.9-3.1,7-7,7c-1.4,0-2.8-0.4-3.9-1.2c0,0.4-0.1,0.8-0.1,1.2c0,3.7,1.8,7,4.7,9
			c-1.7,1.9-2.7,4.4-2.7,7.1c0,6,4.8,10.8,10.8,10.9l0,0h1.2v-2h-0.7h-0.5c-4.9,0-8.8-4-8.8-8.9s4-8.9,8.9-8.9c0.2,0,0.3,0,0.4,0
			h0.1l1.3,0.1l0.6-1.2c2.2-4.4,6.6-7.1,11.5-7.1c6.1,0,11.4,4.3,12.6,10.2l0.3,1.5l1.5,0.1c3.7,0.2,6.6,3.3,6.6,7
			c0,3.9-3.1,7-7,7.1h-0.1h-2H141v2h3.8l0,0h0.1c5,0,9.1-4.1,9.1-9.1C154,26.1,150.2,22.1,145.5,21.8z M117.5,18.2
			c-0.2,0-0.5,0-0.7,0c-2.5,0-4.9,0.9-6.7,2.3c-2-1.3-3.5-3.4-4-5.8c0.6,0.1,1.2,0.2,1.8,0.2c5,0,9-4,9-9c0-0.6-0.1-1.2-0.2-1.8
			c3.7,0.8,6.6,3.8,7.1,7.6C121.2,13.2,118.9,15.5,117.5,18.2z"/>
	</g>
	<g>
		<circle cx="121.5" cy="33.4" r="1.5"/>
	</g>
	<g>
		<circle cx="125.5" cy="39.4" r="1.5"/>
	</g>
	<g>
		<circle cx="133.5" cy="39.4" r="1.5"/>
	</g>
	<g>
		<circle cx="129.5" cy="33.4" r="1.5"/>
	</g>
	<g>
		<circle cx="137.5" cy="33.4" r="1.5"/>
	</g>
	<g>
		<circle cx="121.5" cy="45.4" r="1.5"/>
	</g>
	<g>
		<circle cx="129.5" cy="45.4" r="1.5"/>
	</g>
	<g>
		<circle cx="137.5" cy="45.4" r="1.5"/>
	</g>
</g>
<g>
	<path d="M456.6-77.1c-1.6-7.4-8.2-13-16.1-13c-6.4,0-12,3.7-14.7,9c-0.3,0-0.5,0-0.8,0c-6.6,0-12,5.4-12,12s5.3,12,11.9,12l0,0h2.1
		v-2h-1.6H425c-5.5,0-9.9-4.5-9.9-10s4.5-10,10-10c0.2,0,0.3,0,0.5,0h0.1L427-79l0.6-1.2c2.5-4.9,7.4-7.9,12.9-7.9
		c6.8,0,12.8,4.8,14.2,11.4l0.3,1.5l1.5,0.1c4.2,0.3,7.5,3.8,7.5,8c0,4.4-3.6,8-8,8h-0.1h-2H451v2h4.9l0,0h0.1c5.5,0,10-4.5,10-10
		C466-72.4,461.9-76.7,456.6-77.1z"/>
	<circle cx="431" cy="-49.6" r="1.5"/>
	<circle cx="439" cy="-43.6" r="1.5"/>
	<circle cx="447" cy="-47.6" r="1.5"/>
	<rect x="430" y="-66.1" width="2" height="12"/>
	<polygon points="440,-48.1 440,-50.1 440,-62.1 438,-62.1 438,-50.1 438,-48.1 438,-48.1 	"/>
	<polygon points="448,-52.3 448,-54.1 448,-66.1 446,-66.1 446,-54.1 446,-52.3 446,-52.1 448,-52.1 	"/>
</g>
<g>
	<rect x="-291.7" y="-5.4" width="2" height="8"/>
	<rect x="-310.7" y="13.5" width="8" height="2"/>
	<rect x="-303.1" y="-0.8" transform="matrix(0.7071 -0.7071 0.7071 0.7071 -90.7537 -212.678)" width="2" height="8"/>
	<rect x="-283.6" y="2.2" transform="matrix(0.7071 -0.7071 0.7071 0.7071 -84.1744 -196.7609)" width="8" height="2"/>
	<path d="M-261.2,20.4c-1.4-6.7-7.4-11.8-14.6-11.8c-2.2,0-4.3,0.5-6.1,1.3c-1.7-3.2-5-5.4-8.9-5.4c-5.5,0-10,4.5-10,10
		c0,2.5,0.9,4.7,2.4,6.4c-1.4,1.8-2.3,4.1-2.3,6.7c0,6,4.8,10.8,10.8,10.9l0,0h1.2v-2h-0.7h-0.5c-4.9,0-8.8-4-8.8-8.9s4-8.9,8.9-8.9
		c0.1,0,0.3,0,0.4,0h0.1l1.3,0.1l0.6-1.2c2.2-4.4,6.6-7.1,11.5-7.1c6.1,0,11.4,4.3,12.6,10.2l0.3,1.5l1.5,0.1c3.7,0.2,6.6,3.3,6.6,7
		c0,3.9-3.1,7-7,7.1h-0.1h-2h-0.8v2h2.8l0,0h0.1c5,0,9.1-4.1,9.1-9.1C-252.7,24.6-256.5,20.6-261.2,20.4z M-289.2,16.7
		c-0.2,0-0.5,0-0.7,0c-2.8,0-5.3,1-7.2,2.7c-1.1-1.4-1.8-3.1-1.8-5c0-4.4,3.6-8,8-8c3.1,0,5.8,1.8,7.1,4.3
		C-286,12.3-287.9,14.3-289.2,16.7z"/>
	<circle cx="-284.8" cy="46.9" r="1.5"/>
	<circle cx="-276.8" cy="52.9" r="1.5"/>
	<circle cx="-268.8" cy="48.9" r="1.5"/>
	<rect x="-285.8" y="30.4" width="2" height="12"/>
	<polygon points="-275.8,48.4 -275.8,46.4 -275.8,34.4 -277.8,34.4 -277.8,46.4 -277.8,48.4 -277.8,48.4 	"/>
	<polygon points="-267.8,44.2 -267.8,42.4 -267.8,30.4 -269.8,30.4 -269.8,42.4 -269.8,44.2 -269.8,44.4 -267.8,44.4 	"/>
</g>
<g>
	<path d="M-160.6,17.4c-1.4-6.7-7.4-11.8-14.6-11.8c-1.8,0-3.5,0.3-5.1,0.9c-0.9-5.1-5.4-9-10.8-9c-0.4,0-0.8,0-1.2,0.1
		c0.7,1.1,1.2,2.4,1.2,3.9c0,3.9-3.1,7-7,7c-1.4,0-2.8-0.4-3.9-1.2c0,0.4-0.1,0.8-0.1,1.2c0,3.7,1.8,7,4.7,9
		c-1.7,1.9-2.7,4.4-2.7,7.1c0,6,4.8,10.8,10.8,10.9l0,0h1.2v-2h-0.7h-0.5c-4.9,0-8.8-4-8.8-8.9s4-8.9,8.9-8.9c0.1,0,0.3,0,0.4,0h0.1
		l1.3,0.1l0.6-1.2c2.2-4.4,6.6-7.1,11.5-7.1c6.1,0,11.4,4.3,12.6,10.2l0.3,1.5l1.5,0.1c3.7,0.2,6.6,3.3,6.6,7c0,3.9-3.1,7-7,7.1
		h-0.1h-2h-0.8v2h2.8l0,0h0.1c5,0,9.1-4.1,9.1-9.1C-152.1,21.6-155.9,17.6-160.6,17.4z M-188.6,13.7c-0.2,0-0.5,0-0.7,0
		c-2.5,0-4.9,0.9-6.7,2.3c-2-1.3-3.5-3.4-4-5.8c0.6,0.1,1.2,0.2,1.8,0.2c5,0,9-4,9-9c0-0.6-0.1-1.2-0.2-1.8c3.7,0.8,6.6,3.8,7.1,7.6
		C-184.9,8.7-187.2,11-188.6,13.7z"/>
	<circle cx="-184.1" cy="43.9" r="1.5"/>
	<circle cx="-176.1" cy="49.9" r="1.5"/>
	<circle cx="-168.1" cy="45.9" r="1.5"/>
	<rect x="-185.1" y="27.5" width="2" height="12"/>
	<polygon points="-175.1,45.4 -175.1,43.5 -175.1,31.5 -177.1,31.5 -177.1,43.5 -177.1,45.4 -177.1,45.4 	"/>
	<polygon points="-167.1,41.2 -167.1,39.5 -167.1,27.5 -169.1,27.5 -169.1,39.5 -169.1,41.2 -169.1,41.4 -167.1,41.4 	"/>
</g>
<g>
	<rect x="-308.7" y="121.8" width="56" height="2"/>
	<rect x="-304.7" y="127.8" width="50" height="2"/>
	<rect x="-298.7" y="133.8" width="36" height="2"/>
	<rect x="-306.7" y="115.8" width="52" height="2"/>
	<path d="M-294.9,107.8c0.2,0,0.3,0,0.5,0h0.1l1.3,0.1l0.6-1.2c2.5-4.9,7.4-7.9,12.9-7.9c6.8,0,12.8,4.8,14.2,11.4l0.3,1.5l1.5,0.1
		c1.2,0.1,2.3,0.4,3.3,1h3.3c-1.7-1.7-4-2.8-6.5-3c-1.6-7.4-8.2-13-16.1-13c-6.4,0-12,3.7-14.7,9c-0.3,0-0.5,0-0.8,0
		c-4.8,0-9,2.9-10.9,7h2.3C-301.8,109.8-298.6,107.8-294.9,107.8z"/>
</g>
<g>
	<rect x="-187.6" y="94.3" width="2" height="8"/>
	<rect x="-206.6" y="113.2" width="8" height="2"/>
	<rect x="-199" y="98.9" transform="matrix(0.7071 -0.7071 0.7071 0.7071 -130.7706 -109.8735)" width="2" height="8"/>
	<rect x="-179.4" y="101.9" transform="matrix(0.7071 -0.7071 0.7071 0.7071 -124.12 -93.9272)" width="8" height="2"/>
	<rect x="-197.6" y="128.2" width="50" height="2"/>
	<rect x="-193.6" y="134.2" width="44" height="2"/>
	<rect x="-187.6" y="139.2" width="30" height="2"/>
	<rect x="-195.6" y="122.2" width="46" height="2"/>
	<path d="M-194.7,120.2h0.8h1.9h1c1.5-1.1,3.3-1.7,5.2-1.7c0.1,0,0.3,0,0.4,0h0.1l1.3,0.1l0.6-1.2c2.2-4.4,6.6-7.1,11.5-7.1
		c5.9,0,11.2,4.1,12.6,9.9h2v-0.1c-1.4-6.7-7.4-11.8-14.6-11.8c-2.2,0-4.3,0.5-6.1,1.3c-1.7-3.2-5-5.4-8.9-5.4c-5.5,0-10,4.5-10,10
		C-196.7,116.4-196,118.5-194.7,120.2z M-186.7,106.2c3.1,0,5.8,1.8,7.1,4.3c-2.3,1.4-4.2,3.5-5.4,5.9c-0.2,0-0.5,0-0.7,0
		c-2.8,0-5.3,1-7.2,2.7c-1.1-1.4-1.8-3.1-1.8-5C-194.7,109.8-191.1,106.2-186.7,106.2z"/>
</g>
<g>
	<rect x="-98.9" y="124.7" width="50" height="2"/>
	<rect x="-94.9" y="130.7" width="44" height="2"/>
	<rect x="-88.9" y="135.7" width="30" height="2"/>
	<rect x="-96.9" y="118.7" width="46" height="2"/>
	<path d="M-95.3,116.7L-95.3,116.7h1.9h1.1c1.5-1.1,3.3-1.7,5.2-1.7c0.2,0,0.3,0,0.4,0h0.1l1.3,0.1l0.6-1.2
		c2.2-4.4,6.6-7.1,11.5-7.1c5.9,0,11.2,4.1,12.6,9.9h2v-0.1c-1.4-6.7-7.4-11.8-14.6-11.8c-1.8,0-3.5,0.3-5.1,0.9
		c-0.9-5.1-5.4-9-10.8-9c-0.4,0-0.8,0-1.2,0.1c0.7,1.1,1.2,2.4,1.2,3.9c0,3.9-3.1,7-7,7c-1.4,0-2.8-0.4-3.9-1.2
		c0,0.4-0.1,0.8-0.1,1.2C-99.9,111.5-98.1,114.7-95.3,116.7z M-95.9,109.7c5,0,9-4,9-9c0-0.6-0.1-1.2-0.2-1.8
		c3.7,0.8,6.6,3.8,7.1,7.6c-2.7,1.4-4.9,3.7-6.3,6.4c-0.2,0-0.5,0-0.7,0c-2.5,0-4.9,0.9-6.7,2.3c-2-1.3-3.5-3.4-4-5.8
		C-97.1,109.6-96.5,109.7-95.9,109.7z"/>
</g>
<g>
	<path d="M33,127.7H13.5h-0.6c-5.5,0-9.9-4.5-9.9-10s4.5-10,10-10c0.2,0,0.3,0,0.5,0h0.1l1.3,0.1l0.6-1.2c2.5-4.9,7.4-7.9,12.9-7.9
		c6.8,0,12.7,4.8,14.2,11.4l0.3,1.5l1.5,0.1c1.8,0.1,3.5,0.8,4.7,2H52c-1.7-2.3-4.3-3.8-7.4-4c-1.6-7.4-8.2-13-16.1-13
		c-6.4,0-12,3.7-14.7,9c-0.3,0-0.5,0-0.8,0c-6.6,0-12,5.4-12,12s5.3,12,11.9,12l0,0H33c2.2,0,4,1.8,4,4s-1.8,4-4,4v2
		c3.3,0,6-2.7,6-6S36.3,127.7,33,127.7z"/>
	<path d="M37,123.7H21v2h16c3.3,0,6-2.7,6-6s-2.7-6-6-6v2c2.2,0,4,1.8,4,4S39.2,123.7,37,123.7z"/>
	<path d="M50,117.7c1.7,0,3,1.3,3,3s-1.3,3-3,3h-0.1H45l0,0l0,0v2h5.5v-0.1c2.5-0.3,4.5-2.4,4.5-4.9c0-2.8-2.2-5-5-5V117.7L50,117.7
		z"/>
	<path d="M54,127.7H41v2h9l0,0h3.9H54c1.7,0,3,1.3,3,3s-1.3,3-3,3v2c2.8,0,5-2.2,5-5S56.8,127.7,54,127.7z"/>
	<rect x="15" y="123.7" width="4" height="2"/>
</g>
<path d="M-174.6-271.4c6.9,1.3,12.2,7.4,12.2,14.7c0,8.3-6.7,15-15,15c-6.8,0-12.5-4.5-14.4-10.7c1.4,0.5,2.9,0.7,4.4,0.7
	c7.7,0,14-6.3,14-14C-173.3-267.6-173.8-269.6-174.6-271.4 M-177.3-273.6c-0.3,0-0.7,0-1,0.1c1.9,2.1,3,4.9,3,7.9
	c0,6.6-5.4,12-12,12c-2.6,0-5-0.8-7-2.2c0.4,9,7.8,16.3,17,16.3c9.4,0,17-7.6,17-17S-168-273.6-177.3-273.6L-177.3-273.6z"/>
<g>
	<path d="M-280.7-268.6c-7.2,0-13,5.8-13,13c0,7.2,5.8,13,13,13s13-5.8,13-13C-267.7-262.8-273.6-268.6-280.7-268.6z M-280.7-244.6
		c-6.1,0-11-4.9-11-11s4.9-11,11-11s11,4.9,11,11C-269.7-249.6-274.7-244.6-280.7-244.6z"/>
	<rect x="-281.7" y="-281.6" width="2" height="10"/>
	<rect x="-281.7" y="-239.6" width="2" height="10"/>
	<rect x="-306.7" y="-256.6" width="10" height="2"/>
	<rect x="-264.7" y="-256.6" width="10" height="2"/>
	<rect x="-271.3" y="-271.3" transform="matrix(0.7071 -0.7071 0.7071 0.7071 113.1867 -267.2917)" width="10.4" height="2"/>
	<rect x="-300.7" y="-241.9" transform="matrix(0.7071 -0.7071 0.7071 0.7071 83.7902 -279.4742)" width="10.4" height="2"/>
	<rect x="-296.5" y="-275.5" transform="matrix(0.7071 -0.7071 0.7071 0.7071 104.5756 -288.0847)" width="2" height="10.4"/>
	<rect x="-267" y="-246.1" transform="matrix(0.7071 -0.7072 0.7072 0.7071 92.4428 -258.7048)" width="2" height="10.4"/>
</g>
<g>
	<rect x="117.4" y="89.2" width="2" height="8"/>
	<rect x="98.5" y="108.2" width="8" height="2"/>
	<rect x="106.2" y="94" transform="matrix(0.7071 -0.7071 0.7071 0.7071 -37.8828 104.4905)" width="2" height="8"/>
	<rect x="125.7" y="97" transform="matrix(0.7071 -0.7071 0.7071 0.7071 -31.3037 120.4076)" width="8" height="2"/>
	<path d="M132.5,131.2L132.5,131.2H120h-0.6c-4.9,0-8.8-4-8.8-8.9s4-8.9,8.9-8.9c0.2,0,0.3,0,0.4,0h0.1l1.3,0.1l0.6-1.2
		c2.2-4.4,6.6-7.1,11.5-7.1c5.9,0,11.1,4.1,12.5,9.8h2.1c-1.4-6.7-7.4-11.8-14.6-11.8c-2.2,0-4.3,0.5-6.1,1.3
		c-1.7-3.2-5-5.4-8.9-5.4c-5.5,0-10,4.5-10,10c0,2.5,0.9,4.7,2.4,6.4c-1.4,1.8-2.3,4.1-2.3,6.7c0,6,4.8,10.8,10.8,10.9l0,0h13.1l0,0
		c2.2,0,4,1.8,4,4s-1.8,4-4,4v2c3.3,0,6-2.7,6-6C138.5,133.9,135.8,131.2,132.5,131.2z M118.4,101.3c3.1,0,5.8,1.8,7.1,4.3
		c-2.3,1.4-4.2,3.5-5.4,5.9c-0.2,0-0.5,0-0.7,0c-2.8,0-5.3,1-7.2,2.7c-1.1-1.4-1.8-3.1-1.8-5C110.4,104.9,114,101.3,118.4,101.3z"/>
	<path d="M136.5,127.2h-10v2h10c3.3,0,6-2.7,6-6s-2.7-6-6-6v2c2.2,0,4,1.8,4,4S138.7,127.2,136.5,127.2z"/>
	<path d="M144.5,127.2L144.5,127.2v2h5.5v-0.1c2.5-0.3,4.5-2.4,4.5-4.9c0-2.8-2.2-5-5-5v2c1.7,0,3,1.3,3,3s-1.3,3-3,3h-0.1
		L144.5,127.2L144.5,127.2z"/>
	<path d="M153.5,131.2h-13v2h9l0,0h3.9h0.1c1.7,0,3,1.3,3,3s-1.3,3-3,3v2c2.8,0,5-2.2,5-5S156.2,131.2,153.5,131.2z"/>
	<rect x="120.5" y="127.2" width="4" height="2"/>
</g>
<g>
	<path d="M232.4,129.2L232.4,129.2h-12.5h-0.6c-4.9,0-8.8-4-8.8-8.9s4-8.9,8.9-8.9c0.1,0,0.3,0,0.4,0h0.1l1.3,0.1l0.6-1.2
		c2.2-4.4,6.6-7.1,11.5-7.1c5.9,0,11.1,4.1,12.5,9.8h2.1c-1.4-6.7-7.4-11.8-14.6-11.8c-1.8,0-3.5,0.3-5.1,0.9c-0.9-5.1-5.4-9-10.8-9
		c-0.4,0-0.8,0-1.2,0.1c0.7,1.1,1.2,2.4,1.2,3.9c0,3.9-3.1,7-7,7c-1.4,0-2.8-0.4-3.9-1.2c0,0.4-0.1,0.8-0.1,1.2c0,3.7,1.9,7,4.7,9
		c-1.7,1.9-2.7,4.4-2.7,7.1c0,6,4.8,10.8,10.8,10.9l0,0h13.1l0,0c2.2,0,4,1.8,4,4s-1.8,4-4,4v2c3.3,0,6-2.7,6-6
		C238.4,131.9,235.7,129.2,232.4,129.2z M208.6,106c0.6,0.1,1.2,0.2,1.8,0.2c5,0,9-4,9-9c0-0.6-0.1-1.2-0.2-1.8
		c3.7,0.8,6.6,3.8,7.1,7.7c-2.7,1.4-4.9,3.7-6.3,6.4c-0.2,0-0.5,0-0.7,0c-2.5,0-4.9,0.9-6.7,2.3C210.6,110.5,209.1,108.5,208.6,106z
		"/>
	<path d="M236.4,125.2h-10v2h10c3.3,0,6-2.7,6-6s-2.7-6-6-6v2c2.2,0,4,1.8,4,4S238.6,125.2,236.4,125.2z"/>
	<path d="M244.4,125.2L244.4,125.2v2h5.5v-0.1c2.5-0.3,4.5-2.4,4.5-4.9c0-2.8-2.2-5-5-5v2c1.7,0,3,1.3,3,3s-1.3,3-3,3h-0.1H244.4
		L244.4,125.2z"/>
	<path d="M253.4,129.2h-13v2h9l0,0h3.9h0.1c1.7,0,3,1.3,3,3s-1.3,3-3,3v2c2.8,0,5-2.2,5-5S256.2,129.2,253.4,129.2z"/>
	<rect x="220.4" y="125.2" width="4" height="2"/>
</g>
<g>
	<rect x="333.3" y="91.8" width="2" height="10"/>
	<rect x="308.3" y="116.8" width="10" height="2"/>
	<rect x="343.8" y="102.1" transform="matrix(0.7071 -0.7071 0.7071 0.7071 29.3213 276.9851)" width="10.4" height="2"/>
	<rect x="318.6" y="97.9" transform="matrix(0.7071 -0.7071 0.7071 0.7071 20.7096 256.1927)" width="2" height="10.4"/>
	<path d="M338.3,131.8h-24v2h24c2.2,0,4,1.8,4,4s-1.8,4-4,4v2c3.3,0,6-2.7,6-6S341.6,131.8,338.3,131.8z"/>
	<path d="M350.3,127.8L350.3,127.8v2h5.5v-0.1c2.5-0.3,4.5-2.4,4.5-4.9c0-2.8-2.2-5-5-5v2c1.7,0,3,1.3,3,3s-1.3,3-3,3h-0.1
		L350.3,127.8L350.3,127.8z"/>
	<path d="M359.3,131.8h-13v2h9l0,0h3.9h0.1c1.7,0,3,1.3,3,3s-1.3,3-3,3v2c2.8,0,5-2.2,5-5S362.1,131.8,359.3,131.8z"/>
	<path d="M326,127.8h-11.7v2h12h0.8h15.2c3.3,0,6-2.7,6-6s-2.7-6-6-6v2c2.2,0,4,1.8,4,4s-1.8,4-4,4h-12.5c-3.8-1.7-6.5-5.6-6.5-10
		c0-6.1,4.9-11,11-11c5.4,0,9.9,3.9,10.8,9h2c-1-6.2-6.3-11-12.8-11c-7.2,0-13,5.8-13,13C321.3,121.8,323.1,125.4,326,127.8z"/>
</g>
<g>
	<path d="M438.5,125.2h-24v2h24c2.2,0,4,1.8,4,4s-1.8,4-4,4v2c3.3,0,6-2.7,6-6C444.5,127.9,441.8,125.2,438.5,125.2z"/>
	<path d="M456,123.2L456,123.2c2.5-0.3,4.5-2.4,4.5-5c0-2.8-2.2-5-5-5v2c1.7,0,3,1.3,3,3s-1.3,3-3,3h-0.1h-4.9l0,0l0,0v2H456z"/>
	<path d="M459.5,125.2h-13v2h9l0,0h3.9h0.1c1.7,0,3,1.3,3,3s-1.3,3-3,3v2c2.8,0,5-2.2,5-5S462.3,125.2,459.5,125.2z"/>
	<path d="M427.4,123.2h15.2c3.3,0,6-2.7,6-6s-2.7-6-6-6v2c2.2,0,4,1.8,4,4s-1.8,4-4,4H430c-2.6-1.2-4.7-3.3-5.7-6
		c0.8,0.2,1.7,0.3,2.6,0.3c6.2,0,11.2-5,11.2-11.2c0-1.3-0.2-2.5-0.6-3.7c4,1.1,7.2,4.5,7.9,8.6h2c-1-6.2-6.3-11-12.8-11
		c-0.3,0-0.5,0-0.8,0c1.4,1.6,2.3,3.7,2.3,6.1c0,5.1-4.1,9.2-9.2,9.2c-2,0-3.8-0.6-5.3-1.7c0.2,3.8,2,7.2,4.7,9.4h-11.7v2h12
		L427.4,123.2L427.4,123.2z"/>
</g>
<g>
	<path d="M-281.2,210.4h-20c-1.1,0-2-0.9-2-2s0.9-2,2-2h3.4h0.6v-2h-4c-2.2,0-4,1.8-4,4s1.8,4,4,4h20c2.2,0,4,1.8,4,4s-1.8,4-4,4v2
		c3.3,0,6-2.7,6-6S-277.9,210.4-281.2,210.4z"/>
	<path d="M-279.2,194.4v2c2.2,0,4,1.8,4,4s-1.8,4-4,4h-16v2h16c3.3,0,6-2.7,6-6C-273.2,197.1-275.9,194.4-279.2,194.4z"/>
	<path d="M-273.2,206.4v2h5.5v-0.1c2.5-0.3,4.5-2.4,4.5-4.9c0-2.8-2.2-5-5-5v2c1.7,0,3,1.3,3,3s-1.3,3-3,3h-0.1H-273.2L-273.2,206.4
		L-273.2,206.4z"/>
	<path d="M-262.2,210.4h-11v2h7l0,0h3.9h0.1c1.7,0,3,1.3,3,3s-1.3,3-3,3v2c2.8,0,5-2.2,5-5S-259.5,210.4-262.2,210.4z"/>
</g>
<path d="M255,196.8L255,196.8h-38.4c-1.1,0-2-0.9-2-2s0.9-2,2-2h33c2.8,0,5-2.2,5-5s-2.2-5-5-5h-37.9l0,0h-0.1c-2.8,0-5,2.2-5,5
	s2.2,5,5,5v-2c-1.7,0-3-1.3-3-3s1.3-3,3-3h0.1h3.9h34c1.7,0,3,1.3,3,3s-1.3,3-3,3h-33c-2.2,0-4,1.8-4,4s1.8,4,4,4h38
	c1.1,0,2,0.9,2,2s-0.9,2-2,2h-32c-2.2,0-4,1.8-4,4s1.8,4,4,4h22c1.1,0,2,0.9,2,2s-0.9,2-2,2h-24l0,0c-2.2,0-4,1.8-4,4s1.8,4,4,4l0,0
	h12c1.1,0,2,0.9,2,2s-0.9,2-2,2h-2c-2.2,0-4,1.8-4,4s1.8,4,4,4v-2c-1.1,0-2-0.9-2-2s0.9-2,2-2h2c2.2,0,4-1.8,4-4s-1.8-4-4-4h-12
	c-1.1,0-2-0.9-2-2s0.9-2,2-2h24c2.2,0,4-1.8,4-4s-1.7-3.9-3.8-4l0,0h-22.2c-1.1,0-2-0.9-2-2s0.9-2,2-2h32c2.2,0,4-1.8,4-4
	C258.7,198.7,257.1,197,255,196.8z"/>
<path d="M440.5,187.5v-2h-2v2c-13,0.5-23.5,11-24,24h1.7c1.1-1.2,2.7-2,4.6-2c2.3,0,4.2,1.2,5.3,3h1.8c1.1-1.8,3.1-3,5.3-3
	c2.2,0,4.1,1.1,5.2,2.9v15.1c0,2.2,1.8,4,4,4s4-1.8,4-4h-2c0,1.1-0.9,2-2,2s-2-0.9-2-2v-15.1c1.1-1.7,3-2.9,5.2-2.9
	c2.3,0,4.2,1.2,5.3,3h1.8c1.1-1.8,3.1-3,5.3-3c1.8,0,3.4,0.8,4.6,2h1.7C463.9,198.4,453.5,188,440.5,187.5z M458.2,207.4
	c-2.5,0-4.7,1.1-6.2,2.9c-1.5-1.8-3.8-2.9-6.2-2.9s-4.7,1.1-6.2,2.9c-1.5-1.8-3.8-2.9-6.2-2.9s-4.7,1.1-6.2,2.9
	c-1.5-1.8-3.8-2.9-6.2-2.9c-1.4,0-2.7,0.4-3.9,1c1.9-10.8,11.3-19,22.6-19s20.7,8.2,22.6,19C460.9,207.8,459.6,207.4,458.2,207.4z"
	/>
<g>
	<path d="M35.2,311.7v-17.1c0-2.8-2.2-5-5-5s-5,2.2-5,5v17.1c-1.2,1.3-2,3-2,4.9c0,3.9,3.1,7,7,7s7-3.1,7-7
		C37.2,314.7,36.4,313,35.2,311.7z M30.2,321.6c-2.8,0-5-2.2-5-5c0-1.3,0.5-2.6,1.4-3.5l0.6-0.6v-0.8v-17.1c0-1.7,1.3-3,3-3
		s3,1.3,3,3v17.1v0.8l0.6,0.6c0.9,0.9,1.4,2.2,1.4,3.5C35.2,319.4,32.9,321.6,30.2,321.6z"/>
	<path d="M31.2,313.8v-15.2h-2v15.2c-1.2,0.4-2,1.5-2,2.8c0,1.7,1.3,3,3,3s3-1.3,3-3C33.2,315.3,32.3,314.2,31.2,313.8z M30.2,317.6
		c-0.6,0-1-0.5-1-1s0.5-1,1-1s1,0.5,1,1S30.7,317.6,30.2,317.6z"/>
</g>
<g>
	<path d="M135,311.7v-17.1c0-2.8-2.2-5-5-5s-5,2.2-5,5v17.1c-1.2,1.3-2,3-2,4.9c0,3.9,3.1,7,7,7c3.9,0,7-3.1,7-7
		C137,314.7,136.2,313,135,311.7z M130,321.6c-2.8,0-5-2.2-5-5c0-1.3,0.5-2.6,1.4-3.5l0.6-0.6v-0.8v-17.1c0-1.7,1.3-3,3-3s3,1.3,3,3
		v17.1v0.8l0.6,0.6c0.9,0.9,1.4,2.2,1.4,3.5C135,319.4,132.7,321.6,130,321.6z"/>
	<path d="M131,313.8v-20.2h-2v20.2c-1.2,0.4-2,1.5-2,2.8c0,1.7,1.3,3,3,3s3-1.3,3-3C133,315.3,132.1,314.2,131,313.8z M130,317.6
		c-0.6,0-1-0.5-1-1s0.5-1,1-1s1,0.5,1,1S130.5,317.6,130,317.6z"/>
</g>
<g>
	<path d="M-67.9,311.7v-17.1c0-2.8-2.2-5-5-5s-5,2.2-5,5v17.1c-1.2,1.3-2,3-2,4.9c0,3.9,3.1,7,7,7s7-3.1,7-7
		C-65.9,314.7-66.7,313-67.9,311.7z M-72.9,321.6c-2.8,0-5-2.2-5-5c0-1.3,0.5-2.6,1.4-3.5l0.6-0.6v-0.8v-17.1c0-1.7,1.3-3,3-3
		s3,1.3,3,3v17.1v0.8l0.6,0.6c0.9,0.9,1.4,2.2,1.4,3.5C-67.9,319.4-70.2,321.6-72.9,321.6z"/>
	<path d="M-71.9,313.8v-10.2h-2v10.2c-1.2,0.4-2,1.5-2,2.8c0,1.7,1.3,3,3,3s3-1.3,3-3C-69.9,315.3-70.8,314.2-71.9,313.8z
		 M-72.9,317.6c-0.6,0-1-0.5-1-1s0.5-1,1-1s1,0.5,1,1S-72.4,317.6-72.9,317.6z"/>
</g>
<g>
	<path d="M-171.6,311.7v-17.1c0-2.8-2.2-5-5-5s-5,2.2-5,5v17.1c-1.2,1.3-2,3-2,4.9c0,3.9,3.1,7,7,7s7-3.1,7-7
		C-169.6,314.7-170.4,313-171.6,311.7z M-176.6,321.6c-2.8,0-5-2.2-5-5c0-1.3,0.5-2.6,1.4-3.5l0.6-0.6v-0.8v-17.1c0-1.7,1.3-3,3-3
		s3,1.3,3,3v17.1v0.8l0.6,0.6c0.9,0.9,1.4,2.2,1.4,3.5C-171.6,319.4-173.8,321.6-176.6,321.6z"/>
	<path d="M-175.6,313.8v-5.2h-2v5.2c-1.2,0.4-2,1.5-2,2.8c0,1.7,1.3,3,3,3s3-1.3,3-3C-173.6,315.3-174.4,314.2-175.6,313.8z
		 M-176.6,317.6c-0.6,0-1-0.5-1-1s0.5-1,1-1s1,0.5,1,1S-176,317.6-176.6,317.6z"/>
</g>
<g>
	<path d="M-276.2,311.7v-17.1c0-2.8-2.2-5-5-5s-5,2.2-5,5v17.1c-1.2,1.3-2,3-2,4.9c0,3.9,3.1,7,7,7s7-3.1,7-7
		C-274.2,314.7-275,313-276.2,311.7z M-281.2,321.6c-2.8,0-5-2.2-5-5c0-1.3,0.5-2.6,1.4-3.5l0.6-0.6v-0.8v-17.1c0-1.7,1.3-3,3-3
		s3,1.3,3,3v17.1v0.8l0.6,0.6c0.9,0.9,1.4,2.2,1.4,3.5C-276.2,319.4-278.5,321.6-281.2,321.6z"/>
	<path d="M-281.2,313.6c-1.7,0-3,1.3-3,3s1.3,3,3,3s3-1.3,3-3C-278.2,315-279.6,313.6-281.2,313.6z M-281.2,317.6c-0.6,0-1-0.5-1-1
		s0.5-1,1-1s1,0.5,1,1S-280.7,317.6-281.2,317.6z"/>
</g>
<g>
	<path d="M223.7,292c-2.2,0-4,1.8-4,4s1.8,4,4,4s4-1.8,4-4C227.7,293.7,225.9,292,223.7,292z M223.7,298c-1.1,0-2-0.9-2-2s0.9-2,2-2
		s2,0.9,2,2S224.8,298,223.7,298z"/>
	<path d="M237.7,320c-4.4,0-8-3.6-8-8v-4c0-4.4,3.6-8,8-8c2.7,0,5.1,1.4,6.6,3.4l1.4-1.4c-1.8-2.4-4.7-4-8-4c-5.5,0-10,4.5-10,10v4
		c0,5.5,4.5,10,10,10c3.3,0,6.2-1.6,8-4l-1.4-1.4C242.8,318.6,240.4,320,237.7,320z"/>
</g>
<g>
	<path d="M328.4,291.8c-2.2,0-4,1.8-4,4s1.8,4,4,4s4-1.8,4-4C332.4,293.6,330.6,291.8,328.4,291.8z M328.4,297.8c-1.1,0-2-0.9-2-2
		s0.9-2,2-2s2,0.9,2,2S329.5,297.8,328.4,297.8z"/>
	<polygon points="348.2,300 348.2,298 336.2,298 334.2,298 334.2,322 336.2,322 336.2,310 344.2,310 344.2,308 336.2,308 336.2,300 
			"/>
</g>
<g>
	<path d="M439.5,295.6c-7.2,0-13,5.8-13,13s5.8,13,13,13s13-5.8,13-13S446.6,295.6,439.5,295.6z M439.5,319.6c-6.1,0-11-4.9-11-11
		s4.9-11,11-11s11,4.9,11,11S445.5,319.6,439.5,319.6z"/>
	<path d="M435.2,312.9l6.4-2.1l2.1-6.4l-6.4,2.1L435.2,312.9z M438.9,308.1l1.6-0.5l-0.5,1.6l-1.6,0.5L438.9,308.1z"/>
</g>
<g>
	<path d="M-281.2,386.2c-7.2,0-13,5.8-13,13s5.8,13,13,13s13-5.8,13-13S-274.1,386.2-281.2,386.2z M-281.2,410.2
		c-6.1,0-11-4.9-11-11s4.9-11,11-11s11,4.9,11,11C-270.2,405.2-275.2,410.2-281.2,410.2z"/>
	<path d="M-278.7,397.6l-2.6-4.4l-2.5,4.3l0,0c-0.3,0.5-0.5,1-0.5,1.6c0,1.7,1.3,3,3,3s3-1.3,3-3
		C-278.3,398.5-278.4,398-278.7,397.6L-278.7,397.6z M-281.3,400.1c-0.6,0-1-0.4-1-1c0-0.2,0.1-0.4,0.2-0.5l0.9-1.4l0.8,1.4
		c0.1,0.2,0.1,0.3,0.1,0.5C-280.3,399.7-280.7,400.1-281.3,400.1z"/>
</g>
<g>
	<path d="M-176.5,386.2c-7.2,0-13,5.8-13,13s5.8,13,13,13s13-5.8,13-13S-169.3,386.2-176.5,386.2z M-176.5,410.2
		c-6.1,0-11-4.9-11-11s4.9-11,11-11s11,4.9,11,11C-165.5,405.2-170.4,410.2-176.5,410.2z"/>
	<path d="M-174.9,396.6c-0.5-0.3-1-0.5-1.6-0.5c-1.7,0-3,1.3-3,3s1.3,3,3,3c0.6,0,1.1-0.2,1.5-0.4l0,0l4.4-2.6L-174.9,396.6
		L-174.9,396.6L-174.9,396.6z M-176,400c-0.2,0.1-0.3,0.1-0.5,0.1c-0.6,0-1-0.4-1-1s0.4-1,1-1c0.2,0,0.4,0.1,0.5,0.2l1.4,0.9
		L-176,400z"/>
</g>
<g>
	<path d="M-73.4,386.2c-7.2,0-13,5.8-13,13s5.8,13,13,13s13-5.8,13-13S-66.2,386.2-73.4,386.2z M-73.4,410.2c-6.1,0-11-4.9-11-11
		s4.9-11,11-11s11,4.9,11,11C-62.4,405.2-67.3,410.2-73.4,410.2z"/>
	<path d="M-73.4,396.1c-1.7,0-3,1.3-3,3c0,0.6,0.2,1.1,0.4,1.5l0,0l2.6,4.4l2.5-4.3l0,0c0.3-0.5,0.5-1,0.5-1.6
		C-70.4,397.4-71.8,396.1-73.4,396.1z M-72.6,399.6l-0.9,1.4l-0.8-1.4c-0.1-0.2-0.1-0.3-0.1-0.5c0-0.6,0.4-1,1-1s1,0.4,1,1
		C-72.4,399.3-72.5,399.5-72.6,399.6z"/>
</g>
<g>
	<path d="M30,386.2c-7.2,0-13,5.8-13,13s5.8,13,13,13s13-5.8,13-13S37.2,386.2,30,386.2z M30,410.2c-6.1,0-11-4.9-11-11
		s4.9-11,11-11s11,4.9,11,11C41,405.2,36.1,410.2,30,410.2z"/>
	<path d="M30,396.1c-0.6,0-1.1,0.2-1.5,0.4l0,0l-4.4,2.6l4.3,2.5l0,0c0.5,0.3,1,0.5,1.6,0.5c1.7,0,3-1.3,3-3S31.6,396.1,30,396.1z
		 M30,400.1c-0.2,0-0.4-0.1-0.5-0.2l-1.4-0.9l1.4-0.8c0.2-0.1,0.3-0.1,0.5-0.1c0.6,0,1,0.4,1,1S30.5,400.1,30,400.1z"/>
</g>
<g>
	<rect x="-178.2" y="189.4" width="2" height="10"/>
	<rect x="-167.7" y="199.7" transform="matrix(0.7071 -0.7071 0.7071 0.7071 -189.5393 -56.1099)" width="10.4" height="2"/>
	<rect x="-192.9" y="195.5" transform="matrix(0.7071 -0.7071 0.7071 0.7071 -198.1505 -76.9023)" width="2" height="10.4"/>
	<polygon points="-183.8,218.7 -182.4,220.1 -178.2,215.8 -178.2,225.4 -176.2,225.4 -176.2,215.8 -171.9,220.1 -170.5,218.7 
		-177.2,212 	"/>
	<path d="M-164.1,215.4L-164.1,215.4c0-7.2-5.8-13-13-13s-13,5.8-13,13l0,0h-13v2h18v-2h-3l0,0c0-6.1,4.9-11,11-11s11,4.9,11,11l0,0
		h-3v2h18v-2H-164.1z"/>
</g>
<g>
	<rect x="-74.4" y="188.2" width="2" height="10"/>
	<rect x="-63.9" y="198.5" transform="matrix(0.7071 -0.7071 0.7071 0.7071 -158.2716 16.9084)" width="10.4" height="2"/>
	<rect x="-89.1" y="194.3" transform="matrix(0.7071 -0.7071 0.7071 0.7071 -166.8827 -3.8847)" width="2" height="10.4"/>
	<polygon points="-72.4,222.8 -72.4,212.2 -74.4,212.2 -74.4,222.8 -78.7,218.5 -80.1,219.9 -73.4,226.6 -66.7,219.9 -68.2,218.5 	
		"/>
	<path d="M-60.4,214.2L-60.4,214.2c0-7.2-5.8-13-13-13s-13,5.8-13,13l0,0h-13v2h22v-2h-7l0,0c0-6.1,4.9-11,11-11s11,4.9,11,11l0,0
		h-7v2h22v-2H-60.4z"/>
</g>
<g>
	<polygon points="130,222.3 130,207.9 128,207.9 128,222.3 123.7,218 122.3,219.4 129,226.1 135.6,219.4 134.2,218 	"/>
	<path d="M145.6,202.9c-1.6-7.4-8.2-13-16.1-13c-6.4,0-12,3.7-14.7,9c-0.3,0-0.5,0-0.8,0c-6.6,0-12,5.4-12,12s5.3,12,11.9,12l0,0
		h6.1v-2h-5.6H114c-5.5,0-9.9-4.5-9.9-10s4.5-10,10-10c0.2,0,0.3,0,0.5,0h0.1l1.3,0.1l0.6-1.2c2.5-4.9,7.4-7.9,12.9-7.9
		c6.8,0,12.8,4.8,14.2,11.4l0.3,1.5l1.5,0.1c4.2,0.3,7.5,3.8,7.5,8c0,4.4-3.6,8-8,8c-0.1,0-0.1,0-0.1,0h-2H138v2h6.9l0,0h0.1
		c5.5,0,10-4.5,10-10C155,207.6,150.8,203.2,145.6,202.9z"/>
</g>
<g>
	<polygon points="35.9,219.1 37.3,217.6 30.7,211 24,217.6 25.4,219.1 29.7,214.8 29.7,227.4 31.7,227.4 31.7,214.8 	"/>
	<path d="M47.3,204.5c-1.6-7.4-8.2-13-16.1-13c-6.4,0-12,3.7-14.7,9c-0.3,0-0.5,0-0.8,0c-6.6,0-12,5.4-12,12s5.3,12,11.9,12l0,0
		h10.1v-2h-9.6h-0.4c-5.5,0-9.9-4.5-9.9-10s4.5-10,10-10c0.2,0,0.3,0,0.5,0h0.1l1.3,0.1l0.6-1.2c2.5-4.9,7.4-7.9,12.9-7.9
		c6.8,0,12.8,4.8,14.2,11.4l0.3,1.5l1.5,0.1c4.2,0.3,7.5,3.8,7.5,8c0,4.4-3.6,8-8,8h-0.1h-2h-8.9v2h10.9l0,0h0.1c5.5,0,10-4.5,10-10
		C56.7,209.2,52.5,204.8,47.3,204.5z"/>
</g>
<g>
	<path d="M249.8,15c-1.6-7.4-8.2-13-16.1-13c-6.4,0-12,3.7-14.7,9c-0.3,0-0.5,0-0.8,0c-6.6,0-12,5.4-12,12s5.3,12,11.9,12l0,0h2.1
		v-2h-1.6h-0.4c-5.5,0-9.9-4.5-9.9-10s4.5-10,10-10c0.2,0,0.3,0,0.5,0h0.1l1.3,0.1l0.6-1.2C223.2,7,228.2,4,233.7,4
		c6.8,0,12.8,4.8,14.2,11.4l0.3,1.5l1.5,0.1c4.2,0.3,7.5,3.8,7.5,8c0,4.4-3.6,8-8,8c-0.1,0-0.1,0-0.1,0h-2h-0.9v2h2.9l0,0h0.1
		c5.5,0,10-4.5,10-10C259.2,19.6,255,15.3,249.8,15z"/>
	<polygon points="228.2,34 228.2,31.3 230.3,32.6 231,31.3 228.6,30 231,28.6 230.3,27.3 228.2,28.6 228.2,26 226.2,26 226.2,28.6 
		223.9,27.3 223.2,28.6 225.7,30 223.2,31.3 223.9,32.6 226.2,31.3 226.2,34 	"/>
	<polygon points="233.3,38.3 231.2,39.5 231.2,37 229.2,37 229.2,39.6 226.9,38.3 226.2,39.5 228.7,40.9 226.2,42.3 226.9,43.5 
		229.2,42.3 229.2,45 231.2,45 231.2,42.3 233.3,43.5 234,42.3 231.6,40.9 234,39.5 	"/>
	<polygon points="242.4,31.3 240.2,32.6 240.2,30 238.2,30 238.2,32.6 235.9,31.3 235.2,32.6 237.7,34 235.2,35.3 235.9,36.6 
		238.2,35.3 238.2,38 240.2,38 240.2,35.3 242.4,36.6 243,35.3 240.6,34 243,32.6 	"/>
</g>
<g>
	<rect x="325.3" y="-3.1" width="2" height="8"/>
	<rect x="306.3" y="15.8" width="8" height="2"/>
	<rect x="314" y="1.6" transform="matrix(0.7071 -0.7071 0.7071 0.7071 88.3218 224.3753)" width="2" height="8"/>
	<rect x="333.5" y="4.6" transform="matrix(0.7071 -0.7071 0.7071 0.7071 94.9016 240.2925)" width="8" height="2"/>
	<path d="M355.8,22.7c-1.4-6.7-7.4-11.8-14.6-11.8c-2.2,0-4.3,0.5-6.1,1.3c-1.7-3.2-5-5.4-8.9-5.4c-5.5,0-10,4.5-10,10
		c0,2.5,0.9,4.7,2.4,6.4c-1.4,1.8-2.3,4.1-2.3,6.7c0,6,4.8,10.8,10.8,10.9l0,0h1.2v-2h-0.7h-0.5c-4.9,0-8.8-4-8.8-8.9s4-8.9,8.9-8.9
		c0.1,0,0.3,0,0.4,0h0.1l1.3,0.1l0.6-1.2c2.2-4.4,6.6-7.1,11.5-7.1c6.1,0,11.4,4.3,12.6,10.2l0.3,1.5l1.5,0.1c3.7,0.2,6.6,3.3,6.6,7
		c0,3.9-3.1,7-7,7.1H355h-1.9v2h1.8l0,0h0.1c5,0,9.1-4.1,9.1-9.1C364.3,26.9,360.6,23,355.8,22.7z M327.9,19.1c-0.2,0-0.5,0-0.7,0
		c-2.8,0-5.3,1-7.2,2.7c-1.1-1.4-1.8-3.1-1.8-5c0-4.4,3.6-8,8-8c3.1,0,5.8,1.8,7.1,4.3C331,14.6,329.1,16.7,327.9,19.1z"/>
	<polygon points="335.3,39.8 335.3,37.2 337.5,38.4 338.2,37.2 335.7,35.8 338.2,34.4 337.5,33.2 335.3,34.4 335.3,31.8 333.3,31.8 
		333.3,34.5 331.1,33.2 330.4,34.4 332.8,35.8 330.4,37.2 331.1,38.4 333.3,37.1 333.3,39.8 	"/>
	<polygon points="340.5,44.2 338.3,45.4 338.3,42.8 336.3,42.8 336.3,45.4 334,44.2 333.4,45.4 335.8,46.8 333.4,48.2 334,49.4 
		336.3,48.1 336.3,50.8 338.3,50.8 338.3,48.2 340.5,49.4 341.2,48.2 338.7,46.8 341.2,45.4 	"/>
	<polygon points="349.5,37.2 347.3,38.4 347.3,35.8 345.3,35.8 345.3,38.5 343.1,37.2 342.4,38.4 344.8,39.8 342.4,41.2 343.1,42.4 
		345.3,41.1 345.3,43.8 347.3,43.8 347.3,41.2 349.5,42.4 350.2,41.2 347.7,39.8 350.2,38.4 	"/>
</g>
<g>
	<path d="M456,19.7c-1.4-6.7-7.4-11.8-14.6-11.8c-1.8,0-3.5,0.3-5.1,0.9c-0.9-5.1-5.4-9-10.8-9c-0.4,0-0.8,0-1.2,0.1
		c0.7,1.1,1.2,2.4,1.2,3.9c0,3.9-3.1,7-7,7c-1.4,0-2.8-0.4-3.9-1.2c0,0.4-0.1,0.8-0.1,1.2c0,3.7,1.8,7,4.7,9
		c-1.7,1.9-2.7,4.4-2.7,7.1c0,6,4.8,10.8,10.8,10.9l0,0h1.2v-2h-0.7h-0.5c-4.9,0-8.8-4-8.8-8.9s4-8.9,8.9-8.9c0.1,0,0.3,0,0.4,0h0.1
		l1.3,0.1l0.6-1.2c2.2-4.4,6.6-7.1,11.5-7.1c6.1,0,11.4,4.3,12.6,10.2l0.3,1.5l1.5,0.1c3.7,0.2,6.6,3.3,6.6,7c0,3.9-3.1,7-7,7.1
		h-0.1h-1.9v2h1.8l0,0h0.1c5,0,9.1-4.1,9.1-9.1C464.5,23.9,460.7,20,456,19.7z M428.1,16.1c-0.2,0-0.5,0-0.7,0
		c-2.5,0-4.9,0.9-6.7,2.3c-2-1.3-3.5-3.4-4-5.8c0.6,0.1,1.2,0.2,1.8,0.2c5,0,9-4,9-9c0-0.6-0.1-1.2-0.2-1.8c3.7,0.8,6.6,3.8,7.1,7.6
		C431.7,11.1,429.5,13.4,428.1,16.1z"/>
	<polygon points="435.5,36.8 435.5,34.2 437.7,35.4 438.4,34.2 435.9,32.8 438.4,31.4 437.7,30.2 435.5,31.4 435.5,28.8 433.5,28.8 
		433.5,31.5 431.3,30.2 430.6,31.4 433.1,32.8 430.6,34.2 431.3,35.4 433.5,34.1 433.5,36.8 	"/>
	<polygon points="440.7,41.2 438.5,42.4 438.5,39.8 436.5,39.8 436.5,42.4 434.3,41.2 433.6,42.4 436.1,43.8 433.6,45.2 434.3,46.4 
		436.5,45.1 436.5,47.8 438.5,47.8 438.5,45.2 440.7,46.4 441.4,45.2 438.9,43.8 441.4,42.4 	"/>
	<polygon points="449.7,34.2 447.5,35.4 447.5,32.8 445.5,32.8 445.5,35.5 443.3,34.2 442.6,35.4 445.1,36.8 442.6,38.2 443.3,39.4 
		445.5,38.1 445.5,40.8 447.5,40.8 447.5,38.2 449.7,39.4 450.4,38.2 447.9,36.8 450.4,35.4 	"/>
</g>
<rect x="-160.3" y="-548" class="st0" width="473" height="180.9"/>
<text transform="matrix(1 0 0 1 19.2905 -476.6333)" style="font-family:'Helvetica'; font-size:100px; letter-spacing:2;">60</text>
<text transform="matrix(1 0 0 1 -79.9775 -416.6333)" style="font-family:'Helvetica'; font-size:48px;">Weather Icons</text>
<text transform="matrix(1 0 0 1 15.5645 -372.6333)" style="font-family:'Helvetica'; font-size:24px;">IOS 7 Style</text>
</svg>
